<svg class="img-fluid" id="outputsvg" xmlns="http://www.w3.org/2000/svg"
  style="transform: none; transform-origin: 50% 50% 0px; cursor: move; max-height: none; transition: none 0s ease 0s;"
  width="1373" height="3184" viewBox="0 0 13730 31840"
  preserveAspectRatio="none">
  <g id="l2KLsiu67XRhVSxuZr9fWEw" fill="rgb(0,0,0)" style="transform: none;">
    <g>
      <path id="p186mPoff8"
        d="M13467 31824 c-3 -3 -142 -7 -309 -10 -167 -2 -456 -6 -643 -9 -187 -3 -355 -5 -372 -5 -18 0 -54 0 -80 -1 -98 -2 -503 -7 -973 -13 -267 -3 -485 -5 -485 -6 0 0 -222 -1 -492 -2 -271 0 -493 -4 -493 -8 0 -7 -627 -13 -1140 -12 -58 0 -111 -5 -118 -10 -7 -6 -34 -8 -65 -4 -150 18 -164 18 -171 7 -9 -14 -226 -15 -226 -1 0 13 -123 13 -136 0 -6 -6 -116 -10 -294 -11 -198 0 -288 -3 -298 -11 -9 -8 -15 -9 -20 -1 -8 13 -598 17 -606 4 -7 -11 -375 -11 -382 0 -6 11 -74 12 -74 1 0 -4 -91 -9 -202 -10 -118 -2 -207 -7 -214 -13 -8 -6 -14 -7 -18 0 -9 14 -416 14 -433 -1 -10 -8 -20 -8 -39 2 -20 11 -36 12 -83 2 -70 -15 -128 -15 -136 -2 -8 13 -103 13 -184 -1 -45 -7 -67 -7 -75 1 -13 13 -65 13 -104 -1 -23 -8 -59 -8 -132 0 -70 8 -121 8 -173 0 -40 -5 -257 -10 -485 -11 -227 0 -415 -4 -417 -9 -3 -4 -71 -5 -151 -2 -93 4 -148 2 -152 -4 -5 -6 -52 -7 -137 -2 -71 5 -146 7 -165 4 -98 -13 -507 -19 -617 -9 -44 4 -89 4 -99 0 -10 -4 -169 -8 -353 -10 -352 -4 -471 -11 -483 -30 -6 -8 -11 -7 -18 4 -8 12 -44 16 -202 18 -106 2 -213 3 -238 3 -474 -10 -576 -14 -587 -23 -9 -7 -13 -7 -13 1 0 7 -27 11 -78 11 -75 0 -79 -1 -90 -25 -18 -39 -17 -1561 1 -1568 9 -4 9 -7 -1 -15 -11 -7 -13 -1043 -4 -2527 0 -11 0 -459 0 -995 1 -536 3 -1076 5 -1200 3 -124 4 -241 4 -260 -2 -43 -2 -993 0 -1215 1 -88 1 -243 0 -345 -1 -102 -1 -216 0 -255 1 -38 1 -92 1 -120 0 -27 1 -492 3 -1033 4 -860 6 -984 19 -992 10 -7 11 -10 2 -10 -10 0 -12 -126 -12 -607 0 -691 6 -873 26 -873 8 0 14 -4 14 -10 0 -5 -6 -10 -14 -10 -12 0 -15 -18 -15 -85 0 -69 3 -86 17 -94 10 -6 12 -11 5 -11 -7 0 -13 -11 -13 -25 0 -14 -4 -25 -10 -25 -6 0 -10 -33 -10 -79 0 -60 4 -82 16 -92 12 -9 14 -24 10 -53 -13 -103 -23 -249 -22 -331 1 -49 2 -165 4 -257 2 -145 4 -168 18 -168 10 0 12 -4 7 -12 -4 -7 -11 -44 -15 -83 -4 -38 -10 -91 -14 -117 -3 -27 -2 -48 3 -48 4 0 9 -291 10 -647 1 -357 3 -661 3 -678 1 -16 1 -167 0 -335 -1 -210 2 -306 9 -308 14 -5 15 -32 1 -32 -15 0 -11 -1616 5 -1662 9 -27 9 -38 1 -41 -7 -2 -11 -37 -11 -98 2 -248 3 -626 3 -734 -2 -760 6 -1622 16 -1736 7 -91 8 -140 1 -142 -5 -2 -11 -57 -12 -125 -2 -96 0 -124 12 -136 17 -17 20 -36 4 -36 -7 0 -9 -42 -5 -127 2 -71 4 -135 4 -143 0 -8 -2 -176 -4 -372 l-4 -358 41 0 c62 0 66 9 70 161 5 228 -2 722 -11 769 -5 26 -5 46 1 48 13 5 11 440 -3 444 -8 3 -7 36 2 123 10 93 11 257 5 725 -4 333 -6 700 -4 815 2 116 3 298 2 405 -1 107 -3 518 -4 913 -2 395 -7 721 -11 723 -12 7 -10 48 2 60 8 8 8 43 3 108 -5 53 -6 102 -2 108 6 10 1 1109 -6 1273 -2 39 -3 79 -2 90 0 11 0 252 -1 535 0 283 -1 553 0 600 1 242 -2 875 -6 1345 -5 537 -6 680 -3 928 1 111 -2 140 -13 148 -12 7 -12 11 -3 17 18 12 18 -72 8 2742 -2 712 -4 1464 -4 1670 -1 206 -5 390 -10 408 -6 20 -6 32 0 32 6 0 8 184 5 508 -3 279 -6 518 -6 532 0 14 0 234 0 490 0 256 -3 697 -5 980 -3 283 -4 540 -3 570 2 30 2 89 2 130 -1 41 -1 111 -1 155 1 44 1 103 1 130 -1 28 -2 503 -3 1057 -1 825 -4 1010 -15 1020 -9 9 -11 22 -5 48 14 60 11 120 -6 120 -10 0 -15 11 -15 35 0 23 5 35 14 35 18 0 26 22 26 71 0 30 4 39 18 41 24 2 93 4 512 11 201 4 520 10 710 13 408 8 380 8 452 -1 31 -4 65 -4 75 0 19 8 404 12 1392 15 431 0 630 4 645 12 15 8 21 8 24 -1 5 -14 82 -15 82 -1 0 6 32 10 75 10 43 0 75 -4 75 -10 0 -6 42 -10 105 -10 63 0 105 4 105 10 0 14 206 13 229 -2 14 -9 35 -9 89 0 44 8 198 12 406 12 232 0 335 3 338 11 3 8 37 7 123 -1 86 -8 120 -9 123 -1 5 15 422 15 422 1 0 -13 45 -13 90 0 19 5 244 12 500 15 256 3 507 6 558 8 52 1 96 -1 99 -5 6 -11 71 -10 78 2 3 6 180 10 463 10 251 1 581 3 732 5 151 2 286 3 300 3 14 -1 45 -1 70 -1 25 1 243 3 485 6 242 2 663 7 935 11 272 3 587 6 699 7 130 0 210 4 218 10 7 7 30 8 55 5 80 -13 169 -18 186 -11 9 4 74 7 144 6 81 -1 129 2 133 9 4 7 19 9 36 5 54 -12 1069 -7 1069 5 0 4 17 4 38 -1 47 -11 143 -11 160 -1 6 5 47 4 89 -1 54 -6 83 -5 95 2 24 15 155 14 160 -1 2 -6 1 -37 -4 -67 -4 -31 -6 -78 -3 -106 4 -40 20 -1529 19 -1705 -6 -679 -5 -783 8 -791 10 -7 10 -9 1 -9 -10 0 -13 -39 -13 -163 0 -90 3 -167 7 -170 3 -4 5 -53 2 -109 -2 -57 -3 -283 -2 -503 1 -220 1 -591 1 -825 -2 -512 -1 -561 10 -572 5 -5 5 -29 0 -56 -8 -43 -7 -594 5 -3177 3 -495 8 -972 12 -1060 3 -88 5 -167 4 -175 -1 -8 -3 -144 -5 -302 -1 -158 -3 -361 -5 -450 -6 -370 1 -788 14 -788 9 0 9 -2 0 -8 -9 -5 -11 -69 -8 -242 4 -283 2 -260 20 -260 20 0 19 -10 -2 -25 -15 -11 -17 -36 -15 -221 1 -115 1 -229 0 -254 -1 -51 -1 -84 0 -255 0 -66 1 -196 1 -290 1 -519 4 -701 11 -710 4 -5 10 -34 12 -62 4 -42 2 -53 -10 -53 -13 0 -14 -17 -7 -117 4 -65 7 -125 5 -133 -1 -8 -1 -231 -1 -495 0 -264 0 -509 -1 -545 -1 -36 -1 -85 -1 -110 0 -25 2 -351 5 -725 3 -527 8 -694 18 -743 12 -53 12 -68 0 -100 -11 -30 -13 -134 -13 -522 1 -1249 4 -1599 14 -1602 6 -2 6 -22 -1 -57 -14 -73 -12 -224 4 -291 12 -53 14 -55 48 -58 56 -5 63 12 63 157 0 69 -3 211 -5 314 -3 104 -2 191 2 193 5 3 5 116 2 252 -4 136 -8 544 -10 907 -2 363 -4 676 -4 695 -1 19 1 161 3 315 3 235 2 284 -11 303 -11 17 -12 28 -3 50 11 26 10 1749 -3 2932 -2 250 -4 473 -3 495 1 22 1 220 1 440 -1 220 -1 438 -1 485 0 47 -1 211 -2 365 -2 154 -4 624 -5 1045 -2 421 -6 784 -11 808 -4 23 -3 42 1 42 12 0 15 353 4 360 -5 3 -6 88 -1 195 4 105 6 375 5 600 -1 226 -4 970 -7 1655 -4 891 -8 1245 -16 1248 -6 2 -11 15 -11 28 0 13 -4 24 -10 24 -19 0 -10 18 11 23 l22 6 -8 348 c-4 191 -6 384 -5 428 4 126 5 397 1 425 -2 14 0 121 3 238 7 222 3 282 -19 282 -16 0 -8 81 8 92 11 7 13 68 10 333 -4 422 -5 460 -17 467 -8 6 -7 8 2 8 10 0 12 164 9 868 -3 477 -4 919 -4 982 5 543 -1 622 -52 650 -21 11 -94 14 -104 4z"></path>
      <path id="plsq4lB87"
        d="M13592 12689 c-10 -15 -13 -69 -14 -192 0 -95 0 -197 0 -227 -1 -30 0 -214 0 -408 2 -346 2 -354 22 -359 26 -7 26 -33 0 -33 -18 0 -19 -8 -19 -112 0 -177 8 -258 27 -258 13 0 13 -2 -3 -13 -20 -15 -22 -62 -18 -407 0 -85 -1 -211 -3 -280 -4 -141 0 -170 21 -170 9 0 15 -10 15 -25 0 -16 -6 -25 -16 -25 -16 0 -16 -3 -17 -235 0 -38 2 -286 4 -550 4 -353 8 -486 17 -502 11 -19 10 -23 -2 -23 -13 0 -15 -48 -15 -352 0 -194 3 -361 5 -370 4 -14 17 -18 60 -18 l54 0 3 178 c4 300 -5 686 -16 693 -6 4 -7 20 -2 40 14 60 15 433 2 441 -9 6 -9 10 0 16 8 5 9 49 5 160 -4 85 -3 161 2 169 5 9 6 75 2 147 -4 72 -5 212 -4 311 1 99 2 207 1 240 -1 33 -1 96 0 140 3 184 2 196 -13 205 -10 7 -11 10 -2 10 15 0 17 86 2 95 -7 4 -7 12 0 25 13 25 13 66 -2 107 -10 27 -10 36 0 42 15 9 17 66 14 524 -2 258 -6 374 -14 387 -9 14 -9 31 1 73 13 51 12 73 -5 155 -4 23 -3 32 6 32 10 0 12 34 7 163 -4 90 -10 177 -13 195 -6 29 -10 32 -43 32 -26 0 -40 -6 -49 -21z"></path>
      <path id="pLnRp2BvI"
        d="M77 10313 c-4 -38 -4 -358 -1 -713 2 -355 6 -861 8 -1125 2 -398 5 -488 18 -527 14 -42 14 -47 -1 -51 -17 -4 -17 -45 -12 -800 l1 -148 37 3 c20 2 39 10 44 18 19 38 31 156 25 238 -4 48 -7 134 -6 192 1 153 1 767 0 1040 -1 139 -7 272 -15 325 -11 76 -11 91 1 100 20 14 16 1196 -3 1203 -16 5 -17 59 -1 64 12 4 14 39 10 171 l-2 77 -49 0 -48 0 -6 -67z"></path>
      <path id="p2V2CLWzD"
        d="M13600 8033 c0 -27 4 -55 10 -63 6 -9 5 -17 -2 -21 -15 -9 -16 -748 -1 -758 5 -3 14 -22 19 -42 9 -30 8 -38 -5 -46 -16 -10 -17 -84 -14 -1548 1 -526 8 -1132 14 -1180 1 -5 -1 -125 -5 -265 -3 -140 -3 -298 2 -350 5 -54 4 -137 -1 -194 -5 -59 -6 -101 0 -105 5 -3 7 -49 5 -101 -9 -236 -4 -574 8 -664 22 -149 17 -138 58 -134 l37 3 2 348 c0 210 -3 347 -8 347 -6 0 -6 7 0 18 5 10 7 69 5 132 -3 63 -4 144 -2 180 3 88 1 855 -3 955 -2 44 0 166 5 272 7 179 7 192 -11 202 -14 8 -14 10 -3 11 13 0 15 29 17 195 1 107 -2 195 -6 195 -6 0 -10 390 -7 745 1 172 -3 280 -12 283 -12 4 -3 122 11 151 7 13 12 45 11 70 -7 725 -16 1333 -21 1355 -8 41 -26 56 -67 56 l-36 0 0 -47z"></path>
      <path id="pdmnC0VUH"
        d="M97 6923 c-9 -8 -7 -313 2 -446 3 -53 2 -97 -2 -97 -5 0 -7 -115 -5 -255 2 -195 6 -258 16 -264 9 -5 10 -15 4 -32 -13 -32 -14 -379 -1 -379 5 0 9 -11 9 -25 0 -22 4 -25 34 -25 l34 0 1 95 c0 52 5 104 11 116 7 13 9 51 5 107 -3 48 -8 211 -11 362 -3 151 -6 282 -6 290 0 8 3 134 7 278 7 222 6 265 -6 273 -16 10 -83 12 -92 2z"></path>
      <path id="p4Rc3Eouu"
        d="M112 5367 c-6 -7 -14 -39 -18 -71 -8 -66 -1 -76 57 -76 34 0 37 2 43 38 3 20 6 56 6 80 l0 42 -39 0 c-21 0 -43 -6 -49 -13z"></path>
      <path id="pIfv0DKjE"
        d="M101 5118 c0 -46 4 -109 8 -140 4 -32 3 -58 -1 -58 -6 0 -4 -608 3 -835 0 -11 -2 -105 -5 -210 -2 -104 -2 -245 1 -312 l6 -123 29 0 c58 0 59 2 59 312 0 156 0 303 0 328 0 25 0 178 0 340 1 162 0 300 -1 305 -1 6 1 80 3 165 6 187 0 270 -19 270 -8 0 -14 9 -14 20 0 16 -7 20 -35 20 l-35 0 1 -82z"></path>
      <path id="p11uNoGjx9"
        d="M109 3298 c-3 -73 -4 -180 -3 -238 1 -58 2 -219 3 -357 l2 -253 38 0 c33 0 38 4 49 33 16 45 15 903 -1 929 -8 12 -24 18 -48 18 l-36 0 -4 -132z"></path>
      <path id="pBZWh0VEk"
        d="M13654 2493 c-3 -16 -12 -45 -20 -66 -21 -55 -20 -290 1 -307 12 -10 13 -15 4 -21 -8 -5 -13 -34 -13 -81 l-1 -73 53 -3 52 -3 0 45 c0 26 -5 47 -12 50 -10 5 -10 7 -1 12 9 4 12 68 12 240 l1 234 -35 0 c-30 0 -35 -4 -41 -27z"></path>
      <path id="pzwR5r8kS"
        d="M119 2388 c-1 -24 -3 -141 -5 -260 l-3 -218 38 0 c35 0 39 3 45 33 14 66 18 216 11 350 l-7 137 -39 0 -39 0 -1 -42z"></path>
      <path id="pFz8oMwIJ"
        d="M119 1818 c0 -46 -2 -189 -3 -318 -2 -129 1 -271 6 -315 5 -44 8 -101 8 -127 l-1 -48 35 0 c33 0 34 1 40 48 13 93 11 505 -2 536 -9 21 -10 31 -2 36 7 4 10 52 8 136 l-3 129 -42 3 -43 3 -1 -83z"></path>
      <path id="p6tJ6SOaL"
        d="M13635 1880 c-3 -5 -6 -47 -5 -92 0 -46 -2 -132 -5 -192 -5 -83 -3 -111 6 -117 11 -6 10 -13 0 -33 -11 -20 -12 -47 -3 -137 6 -69 7 -121 1 -136 -12 -32 -12 -136 1 -149 6 -6 6 -49 -1 -124 -10 -107 -5 -471 7 -512 4 -13 16 -18 44 -18 l38 0 7 63 c9 92 1 1419 -9 1440 -9 19 -70 24 -81 7z"></path>
      <path id="py7Adn6rl"
        d="M127 953 c-11 -10 -8 -71 3 -78 6 -4 7 -12 3 -18 -7 -11 -22 -288 -26 -487 -3 -144 14 -328 31 -343 11 -9 68 -12 216 -10 216 1 251 1 479 0 108 -1 150 2 156 11 6 10 32 10 119 2 62 -6 128 -7 149 -2 21 4 52 5 68 1 52 -12 115 -10 120 4 4 9 112 12 502 10 273 -1 503 -5 511 -8 8 -3 76 0 151 6 141 12 266 13 684 6 136 -2 250 0 253 4 2 4 86 6 187 5 100 -1 238 1 307 6 169 12 156 12 406 4 158 -6 224 -5 228 3 9 14 137 14 381 1 118 -6 181 -6 183 0 2 6 129 10 340 10 186 0 352 4 370 9 21 7 32 6 32 -1 0 -7 45 -8 138 -4 176 8 158 8 224 0 32 -4 100 -1 150 5 51 6 131 11 178 10 165 -3 345 3 348 11 2 5 17 4 35 -1 44 -12 284 -12 292 1 8 13 95 13 95 0 0 -13 73 -13 182 2 70 9 117 9 216 -1 95 -9 140 -9 176 -1 34 7 52 8 60 0 13 -13 83 -13 88 0 3 9 656 24 798 19 193 -7 381 -6 445 1 49 5 84 5 89 -1 12 -11 99 -12 112 0 5 5 48 4 98 -1 62 -7 92 -6 99 1 15 15 177 15 177 0 0 -9 19 -10 68 -4 37 5 121 9 187 11 66 1 153 6 193 11 39 5 78 6 85 1 17 -11 231 -10 243 1 5 6 39 6 89 0 60 -7 97 -6 145 3 46 10 112 12 225 8 234 -9 608 -5 628 6 9 6 56 7 110 3 52 -4 206 -5 343 -2 137 3 363 4 503 3 191 -1 256 2 262 11 5 9 27 10 96 1 97 -12 413 -15 413 -4 0 4 32 8 72 9 45 2 75 7 80 15 12 20 9 123 -4 136 -17 17 -85 15 -95 -2 -6 -11 -65 -15 -298 -20 -159 -4 -330 -10 -380 -14 -49 -5 -94 -5 -100 -1 -5 4 -62 5 -125 3 -63 -2 -142 -3 -175 -2 -33 2 -125 2 -205 1 -80 0 -460 -3 -845 -6 -673 -5 -1010 -13 -1027 -23 -4 -3 -8 0 -8 5 0 15 -143 14 -158 -1 -9 -9 -12 -9 -12 0 0 15 -107 17 -112 2 -2 -6 -112 -10 -300 -11 -178 0 -298 -4 -298 -10 0 -5 -7 -9 -15 -9 -8 0 -15 5 -15 10 0 16 -577 13 -583 -2 -3 -10 -9 -10 -25 -1 -25 15 -242 17 -242 3 0 -6 -50 -10 -120 -10 -73 0 -120 4 -120 10 0 13 -77 13 -82 0 -2 -7 -201 -11 -606 -11 -434 0 -602 -3 -602 -11 0 -8 -32 -9 -112 -3 -143 10 -170 10 -294 0 -73 -6 -103 -5 -108 4 -9 14 -88 15 -103 0 -7 -7 -110 -10 -312 -10 -166 0 -313 -4 -327 -9 -14 -6 -24 -6 -24 0 0 16 -1647 -4 -1703 -22 -28 -8 -47 -9 -70 -1 -31 11 -618 9 -1032 -2 -160 -4 -371 -5 -455 -2 -25 0 -152 -2 -284 -6 -131 -4 -312 -7 -401 -8 -116 0 -165 -4 -169 -12 -3 -9 -5 -9 -5 1 -1 15 -272 17 -287 2 -7 -7 -47 -7 -128 1 -95 9 -123 9 -142 -2 -20 -10 -36 -10 -83 -1 -71 15 -104 15 -118 1 -8 -8 -13 -8 -17 0 -9 14 -76 15 -76 1 0 -6 -117 -10 -327 -10 -181 -1 -336 -1 -347 -1 -28 0 -29 5 -15 75 10 55 10 87 -2 193 -8 71 -14 216 -14 323 0 118 -4 198 -10 202 -13 10 -69 10 -78 1z"></path>
    </g>
  </g>
  <g id="l552vH8udG4J3fsN8FRdTlT" fill="rgb(255,255,255)" style="transform: none;">
    <g>
      <path id="pMUvFerVr"
        d="M0 15920 l0 -15920 6865 0 6865 0 0 15920 0 15920 -6865 0 -6865 0 0 -15920z m13541 15870 c44 -24 55 -85 50 -280 -1 -41 -7 -80 -12 -86 -7 -9 -6 -20 2 -36 16 -28 13 -279 -3 -289 -7 -4 -8 -18 -3 -35 18 -70 26 -313 10 -327 -9 -8 -8 -18 4 -39 14 -25 14 -30 1 -38 -12 -8 -13 -14 -1 -46 10 -28 10 -38 1 -44 -9 -6 -9 -20 -1 -61 14 -64 12 -167 -3 -192 -8 -13 -8 -20 3 -26 9 -6 11 -18 6 -40 -4 -17 -11 -29 -16 -25 -15 9 -10 -43 6 -59 10 -11 14 -34 13 -79 -1 -34 -4 -53 -6 -40 -2 12 -8 20 -13 17 -15 -10 -10 -52 6 -59 17 -6 21 -61 5 -71 -7 -4 -7 -12 0 -25 5 -10 9 -108 7 -237 -2 -197 -4 -222 -21 -248 l-20 -30 -6 26 c-11 37 -11 200 -1 213 4 6 11 25 14 41 4 17 4 24 1 18 -9 -20 -24 -15 -24 7 0 11 5 20 11 20 8 0 9 14 5 43 -12 73 -17 337 -7 337 5 0 9 13 9 30 -1 16 -5 27 -10 24 -7 -5 -14 116 -8 141 2 6 3 57 2 115 0 58 2 99 5 93 2 -7 9 -13 14 -13 14 0 11 30 -6 46 -18 19 -20 54 -2 54 9 0 9 2 0 8 -17 11 -28 62 -13 62 6 0 8 5 4 12 -4 6 -9 85 -11 174 -3 135 -1 165 12 177 16 17 20 32 6 23 -5 -3 -11 11 -14 32 -9 52 -9 485 -1 553 8 65 -10 93 -52 83 -14 -4 -31 -1 -39 6 -10 9 -15 9 -15 1 0 -7 -21 -11 -54 -11 -30 0 -58 -5 -61 -10 -4 -6 -12 -7 -18 -3 -20 13 -171 12 -179 -1 -6 -8 -11 -7 -18 4 -8 12 -13 13 -30 2 -11 -7 -20 -8 -20 -4 0 5 -27 9 -60 10 -33 1 -60 -2 -60 -7 0 -12 -88 -13 -95 -1 -5 8 -11 8 -19 0 -9 -6 -34 -7 -74 -2 -34 5 -68 5 -76 0 -9 -5 -24 -5 -35 2 -13 7 -22 7 -26 0 -9 -14 -119 -12 -133 2 -9 9 -15 10 -20 2 -10 -15 -42 -25 -55 -17 -7 4 -45 6 -84 5 -40 -1 -73 2 -73 6 0 4 -9 8 -20 9 -11 1 -20 -2 -20 -8 0 -5 -11 -9 -25 -9 -19 0 -25 5 -25 23 l-1 22 -18 -22 c-21 -25 -47 -30 -53 -11 -3 9 -10 8 -26 -3 -22 -16 -92 -14 -92 2 0 5 -7 9 -15 9 -8 0 -15 -5 -15 -12 0 -8 -3 -9 -11 -1 -5 5 -7 22 -4 36 8 29 39 32 56 6 7 -11 9 -10 9 6 1 19 1 19 14 3 16 -21 26 -23 26 -5 0 33 68 36 117 4 6 -4 14 -1 17 5 3 9 8 8 16 -4 15 -24 30 -23 30 3 0 15 5 19 15 15 8 -3 27 -1 41 4 17 7 31 7 38 1 10 -8 51 -8 76 -1 21 7 127 -1 154 -11 29 -11 36 -10 51 4 16 16 18 16 45 0 22 -13 32 -14 43 -5 17 15 124 25 131 13 6 -10 65 -5 100 9 13 5 27 6 31 2 8 -8 175 -9 175 -1 0 5 33 4 180 -5 19 -1 41 2 48 8 8 6 21 5 35 -3 17 -9 30 -9 51 -2 18 8 33 8 46 1 14 -8 22 -6 32 5 16 17 23 18 49 5z m-1879 -31 c3 -9 9 -9 26 0 12 6 32 9 45 5 14 -3 48 -6 76 -8 33 -1 56 -7 61 -16 12 -18 13 -43 3 -37 -5 3 -19 0 -33 -6 -34 -13 -88 -17 -125 -8 -17 5 -41 4 -53 0 -12 -5 -33 -4 -46 1 -15 5 -31 4 -47 -4 -15 -7 -35 -9 -51 -5 -16 4 -28 3 -30 -3 -4 -10 -58 10 -69 25 -4 5 -10 4 -13 -2 -4 -6 -26 -11 -50 -11 -23 0 -47 -5 -54 -12 -9 -9 -12 -9 -12 1 0 10 -10 11 -37 6 -63 -11 -183 -15 -183 -6 0 4 -19 6 -42 4 -43 -5 -60 -5 -88 -1 -8 1 -32 -2 -54 -6 -27 -6 -40 -5 -46 4 -5 9 -13 9 -26 2 -29 -15 -136 -18 -161 -4 -16 9 -23 9 -23 2 0 -7 -8 -9 -20 -5 -12 4 -27 1 -35 -5 -11 -9 -19 -10 -28 -1 -8 6 -17 8 -20 4 -10 -9 -129 -10 -149 -1 -9 4 -19 4 -22 0 -8 -13 -113 -7 -130 7 -11 9 -15 9 -18 0 -5 -14 -217 -22 -238 -9 -7 4 -34 2 -61 -5 -30 -8 -51 -10 -55 -4 -3 6 -14 7 -23 4 -38 -12 -279 -9 -294 4 -9 6 -18 8 -20 4 -6 -10 -133 -18 -217 -14 -63 3 -63 3 -185 -1 -49 -2 -95 -6 -101 -10 -7 -4 -32 -2 -57 6 -25 8 -48 12 -50 10 -6 -6 -68 -16 -89 -14 -29 2 -78 1 -171 -2 -49 -2 -91 0 -93 3 -3 5 -85 3 -112 -3 -17 -3 -61 15 -66 28 -3 8 -2 14 3 14 5 0 11 10 14 22 5 16 9 19 19 10 16 -13 76 -11 97 2 10 6 20 2 33 -14 11 -13 22 -20 26 -14 4 5 19 15 34 23 22 11 30 12 43 1 11 -9 18 -10 29 -1 15 13 84 12 92 -1 7 -12 54 -10 54 2 0 6 7 10 15 10 8 0 15 -5 15 -10 0 -7 6 -7 18 -1 24 12 390 12 398 -1 4 -7 9 -6 14 1 5 8 61 12 188 12 129 -1 182 2 182 10 0 8 15 9 48 4 72 -11 135 -13 154 -3 12 6 26 3 42 -7 17 -11 26 -13 31 -5 4 6 13 9 21 6 7 -3 16 -2 18 3 7 11 84 13 91 2 3 -5 17 -5 34 2 23 8 36 8 54 -2 14 -7 31 -10 38 -6 19 12 179 15 200 4 14 -7 19 -6 19 2 0 8 4 8 15 -1 10 -9 15 -9 15 -1 0 7 24 11 65 11 36 0 65 -4 65 -9 0 -19 50 -18 67 1 16 18 18 18 29 3 11 -15 18 -15 48 -5 20 6 41 8 48 4 17 -11 48 -12 53 -3 8 13 199 9 207 -4 6 -9 8 -9 8 1 0 6 9 12 20 12 11 0 20 -5 20 -12 0 -6 10 -3 21 8 12 10 24 15 25 9 3 -6 39 -9 90 -7 64 3 89 0 95 -10 7 -10 9 -10 9 0 0 6 12 12 26 12 18 0 28 -6 32 -22 l5 -22 8 22 c7 17 17 22 46 23 86 2 187 10 192 14 9 10 49 5 53 -6z m-3780 -52 c9 -10 19 -14 22 -9 3 5 58 10 123 11 65 1 123 7 130 13 7 6 21 7 30 3 10 -5 38 -10 63 -12 24 -2 48 -9 52 -16 14 -22 9 -37 -16 -46 -31 -13 -258 -12 -273 0 -7 7 -23 5 -46 -4 -19 -8 -40 -11 -47 -7 -7 4 -21 5 -32 2 -11 -2 -31 2 -45 9 -21 11 -27 11 -30 2 -6 -17 -123 -18 -123 -2 0 8 -4 8 -12 1 -7 -5 -69 -10 -138 -11 -68 -1 -129 -6 -134 -11 -6 -6 -14 -6 -22 1 -6 5 -25 9 -40 9 -92 -1 -140 2 -148 10 -6 6 -15 5 -23 -2 -8 -6 -29 -11 -48 -10 -19 1 -35 -3 -35 -8 0 -13 -57 -13 -65 0 -9 14 -48 13 -63 -2 -9 -9 -12 -9 -12 0 0 15 -32 16 -47 1 -8 -8 -17 -7 -32 3 -17 10 -25 10 -41 0 -22 -13 -50 -16 -50 -4 0 10 -101 13 -114 3 -17 -13 -88 -12 -104 1 -10 8 -15 9 -20 1 -8 -13 -192 -16 -192 -3 0 5 -9 8 -20 7 -11 -1 -20 -5 -20 -9 0 -4 -11 -8 -25 -8 -14 0 -25 6 -25 13 0 9 -2 9 -8 -1 -5 -7 -29 -13 -55 -14 -28 0 -47 -5 -47 -12 0 -7 -3 -7 -8 1 -5 8 -36 13 -85 14 -42 1 -77 5 -77 11 0 5 -6 6 -12 1 -21 -12 -41 -13 -56 -1 -9 8 -19 8 -37 -2 -20 -11 -27 -11 -41 1 -13 11 -18 11 -21 2 -3 -9 -28 -13 -79 -13 -52 0 -74 -4 -74 -12 0 -10 -3 -9 -9 1 -5 8 -16 11 -29 7 -12 -4 -26 -1 -35 9 -10 10 -17 11 -19 3 -3 -7 -31 -10 -81 -9 -49 1 -77 -2 -77 -8 0 -6 -7 -11 -15 -11 -8 0 -15 5 -15 12 0 9 -3 9 -12 0 -14 -14 -78 -16 -78 -2 0 6 -9 10 -20 10 -11 0 -20 -4 -20 -10 0 -14 -37 -12 -43 3 -4 9 -8 9 -14 1 -12 -17 -383 -18 -383 -1 0 9 -2 9 -8 -1 -5 -7 -33 -13 -75 -13 -37 -1 -70 -5 -73 -11 -4 -5 -10 -5 -18 1 -6 5 -72 11 -145 12 -103 1 -135 -2 -142 -12 -6 -10 -9 -11 -9 -1 0 6 -11 12 -24 12 -13 0 -26 -6 -29 -12 -4 -10 -7 -10 -18 0 -7 6 -21 12 -30 12 -10 0 -20 -6 -23 -12 -5 -10 -7 -10 -12 0 -4 8 -36 12 -109 12 -73 0 -105 -4 -109 -12 -5 -10 -7 -10 -12 0 -7 14 -68 16 -94 2 -13 -7 -21 -7 -25 0 -8 13 -55 13 -55 0 0 -5 -13 -10 -30 -10 -16 0 -30 5 -30 10 0 6 -20 9 -45 8 -25 0 -45 -5 -45 -10 0 -5 -57 -8 -127 -7 -124 2 -153 9 -153 37 0 18 64 49 85 42 11 -4 23 -5 28 -3 17 10 147 14 147 4 0 -6 6 -8 13 -5 8 3 26 0 42 -6 21 -8 32 -7 44 3 11 9 34 12 71 10 90 -7 146 -6 158 1 5 3 64 5 129 4 156 -2 273 4 279 14 3 4 13 4 22 -1 24 -12 215 -13 247 -1 19 7 31 7 40 0 14 -11 71 -14 130 -5 75 11 120 13 130 5 20 -15 133 -18 172 -5 23 8 42 10 47 4 12 -11 93 -12 100 -1 3 5 44 9 91 9 64 1 85 -2 85 -12 0 -10 7 -12 28 -6 15 4 32 6 39 4 6 -2 14 1 18 6 8 14 62 14 70 1 5 -8 11 -8 19 -1 9 8 18 6 32 -7 18 -18 20 -18 54 1 22 12 36 15 38 8 5 -14 35 -14 48 -1 6 6 78 10 177 11 120 0 167 3 167 11 0 9 3 9 12 0 7 -7 27 -12 45 -12 18 0 33 -4 33 -10 0 -5 9 -10 20 -10 11 0 20 5 20 11 0 7 11 9 28 6 15 -3 44 -1 64 5 30 9 42 8 62 -5 15 -10 27 -13 31 -7 3 6 35 10 70 10 35 0 66 4 70 9 7 12 43 9 69 -6 20 -11 56 -6 56 8 0 5 36 8 80 8 48 -1 80 -5 80 -11 0 -6 12 -8 30 -4 22 4 36 0 49 -13 19 -19 19 -19 25 5 7 25 34 32 53 13 7 -7 23 -7 54 2 33 10 43 11 47 1 5 -15 74 -16 90 0 9 9 13 7 18 -6 5 -13 9 -14 20 -5 20 16 83 22 99 9 10 -8 15 -8 20 0 4 6 12 7 18 3 12 -9 38 -8 95 3 20 4 38 1 48 -7 11 -9 18 -9 22 -2 4 7 52 11 122 12 63 1 119 6 125 12 15 15 68 7 87 -14z m475 -20 c9 -19 8 -26 -7 -35 -14 -9 -19 -8 -24 4 -18 48 11 76 31 31z m-5414 -38 c43 -1 96 -5 118 -9 26 -5 44 -3 52 4 14 14 224 13 238 -1 6 -6 6 -19 0 -35 -9 -25 -11 -25 -122 -26 -75 -1 -118 3 -128 11 -11 9 -15 9 -19 -1 -3 -9 -57 -12 -236 -12 -127 1 -241 -2 -251 -5 -14 -5 -16 -4 -7 2 7 5 14 24 15 41 2 32 15 40 33 22 6 -6 22 -6 43 0 19 5 56 8 82 5 27 -2 52 1 55 7 3 5 16 7 28 4 11 -3 56 -6 99 -7z m-706 -21 c7 -6 20 -8 28 -4 11 4 15 -1 15 -20 0 -31 -25 -41 -49 -20 -11 10 -22 13 -25 8 -8 -13 -72 -22 -106 -15 -38 7 -45 30 -18 53 19 15 34 18 83 14 33 -3 65 -10 72 -16z m-1395 -22 c4 -6 13 -4 22 3 23 19 286 23 286 4 0 -17 16 -17 24 0 5 10 7 10 12 0 7 -17 84 -17 84 -1 0 9 3 9 12 0 16 -16 -19 -57 -37 -42 -9 7 -21 7 -40 -2 -21 -10 -28 -9 -35 2 -7 11 -18 11 -68 0 -59 -12 -189 -9 -225 5 -10 4 -24 2 -32 -5 -9 -7 -27 -10 -43 -7 -16 3 -55 2 -88 -2 -33 -5 -64 -5 -70 0 -6 5 -13 6 -17 3 -10 -10 -229 -15 -241 -5 -13 11 -90 7 -126 -6 -14 -6 -50 -7 -80 -4 -54 6 -110 -9 -110 -29 0 -5 -7 -7 -15 -4 -12 5 -15 -2 -15 -29 0 -20 -5 -39 -11 -43 -16 -9 -6 110 11 149 13 26 50 39 50 17 0 -14 37 -12 44 3 5 10 7 10 12 0 7 -15 70 -17 79 -3 3 6 17 10 31 10 18 0 24 -5 24 -22 l1 -23 17 21 c19 22 77 29 100 11 8 -6 12 -6 12 2 0 14 188 13 196 -1 3 -5 11 -5 18 1 7 6 40 11 75 13 34 1 64 5 67 9 5 9 66 -12 76 -25z m864 21 c4 -4 16 -7 26 -7 20 0 22 -8 7 -30 -8 -11 -12 -12 -16 -2 -6 16 -21 15 -38 -2 -10 -10 -44 -13 -135 -12 -67 1 -123 -1 -126 -3 -9 -9 -49 -8 -60 1 -7 5 -18 7 -25 6 -8 -2 -15 7 -17 20 -4 24 7 29 25 11 9 -9 16 -8 27 3 9 9 25 13 40 11 14 -3 26 -1 26 5 0 12 254 11 266 -1z m224 2 c0 -10 63 -7 71 4 10 13 39 -4 39 -24 0 -28 -27 -37 -101 -31 -38 2 -74 0 -81 -5 -13 -9 -58 -9 -85 1 -7 3 -13 19 -13 36 l0 31 85 -2 c47 -1 85 -5 85 -10z m640 -4 c7 -8 10 -22 6 -30 -4 -12 -25 -15 -106 -15 -60 0 -100 4 -100 10 0 6 -11 10 -25 10 -14 0 -25 -4 -25 -10 0 -15 -20 -12 -26 4 -3 8 0 22 8 30 19 21 250 22 268 1z m-2490 -152 c0 -23 -17 -49 -26 -41 -9 10 4 58 16 58 6 0 10 -8 10 -17z m-40 -164 c0 -15 5 -19 15 -15 18 7 18 2 4 -65 -11 -48 -13 -51 -25 -34 -16 22 -19 135 -4 135 6 0 10 -9 10 -21z m32 -181 c3 -7 5 -124 7 -260 2 -232 1 -248 -16 -248 -17 -1 -17 -1 -1 -10 15 -9 17 -36 17 -242 l0 -231 -24 -25 -24 -24 -6 24 c-3 12 -3 75 0 138 2 63 4 126 2 140 -1 14 -2 185 -2 380 0 279 3 354 13 353 6 -2 12 2 12 7 0 14 17 12 22 -2z m4 -1096 c-10 -10 -29 15 -21 28 6 9 10 8 17 -4 6 -10 7 -20 4 -24z m-16 -44 c16 -20 18 -43 18 -183 0 -134 -2 -163 -16 -178 -14 -16 -14 -21 -2 -40 8 -14 15 -61 17 -127 4 -103 3 -104 -12 -65 -8 22 -15 42 -16 45 0 3 -5 -6 -9 -20 -6 -17 -9 4 -8 65 0 50 -3 97 -6 105 -3 8 -4 96 -2 195 5 224 5 225 12 225 3 0 14 -10 24 -22z m13536 -612 c2 -18 -1 -26 -9 -23 -9 3 -11 -7 -9 -34 2 -22 8 -39 12 -39 14 0 17 -232 4 -293 -7 -35 -9 -73 -4 -95 4 -20 8 -75 9 -122 0 -47 3 -103 6 -125 3 -22 1 -56 -4 -75 l-9 -35 -1 38 c-1 20 -6 37 -11 37 -7 0 -9 -25 -5 -71 4 -60 3 -70 -8 -61 -10 9 -13 35 -10 103 2 52 -1 97 -7 104 -5 6 -9 68 -9 144 1 116 3 130 16 119 14 -11 15 -7 8 32 -4 25 -11 47 -15 50 -11 7 -11 179 0 200 7 13 6 26 -4 45 -10 19 -11 36 -6 56 5 17 6 37 3 45 -3 8 1 14 11 14 9 0 16 5 16 11 0 23 23 1 26 -25z m-13534 -55 c-3 -9 -1 -12 6 -7 8 5 11 -24 11 -101 -1 -59 0 -115 2 -123 1 -8 1 -50 1 -94 -2 -68 -4 -77 -17 -66 -17 14 -20 0 -6 -28 23 -45 32 -97 26 -145 -13 -114 -17 -130 -26 -116 -6 10 -9 8 -9 -8 0 -13 4 -23 9 -23 5 0 12 -8 15 -18 11 -34 16 -916 6 -932 -7 -11 -10 -7 -11 20 -2 27 -3 29 -6 9 -2 -14 1 -45 8 -70 6 -24 13 -107 14 -184 1 -77 4 -182 5 -233 3 -73 0 -96 -11 -103 -25 -16 -39 -10 -40 19 -7 209 -6 308 6 359 9 37 10 63 4 75 -5 9 -12 57 -16 107 -5 75 -3 92 11 106 19 19 21 46 4 43 -17 -4 -24 75 -20 215 2 74 7 105 14 101 8 -5 9 2 3 22 -14 54 -17 200 -15 641 1 188 0 345 -3 350 -3 5 -2 37 2 73 5 38 4 78 -2 97 -8 24 -7 36 3 48 11 14 14 13 25 -2 7 -9 10 -24 7 -32z m13501 -914 c-3 -20 -10 -37 -16 -37 -5 0 -7 13 -3 31 3 17 6 39 6 47 0 10 3 13 10 6 5 -5 7 -26 3 -47z m38 -39 c4 -70 0 -138 -10 -156 -8 -15 -8 -21 0 -24 7 -2 11 -17 10 -33 0 -17 -1 -70 -2 -118 -1 -68 -4 -90 -16 -94 -11 -5 -12 -8 -2 -14 10 -6 10 -11 0 -22 -10 -13 -9 -17 6 -25 16 -9 18 -27 21 -139 3 -136 -7 -210 -27 -205 -8 1 -10 -4 -7 -15 15 -51 17 -74 8 -106 -8 -28 -7 -37 4 -41 18 -7 18 -36 0 -36 -8 0 -17 -6 -19 -12 -6 -15 -10 56 -13 227 -1 66 -5 128 -9 138 -4 10 -4 42 0 70 3 29 6 108 5 177 -5 299 -3 389 10 419 15 36 39 41 41 9z m3 -1125 c9 -61 4 -286 -7 -308 -11 -20 -32 -45 -40 -45 -8 0 -1 354 7 373 14 29 34 19 40 -20z m-13519 -310 c-1 -71 3 -143 8 -162 11 -43 -8 -123 -33 -139 -16 -10 -19 -8 -24 16 -3 15 -3 50 0 77 7 69 6 193 -2 228 -5 25 -3 29 10 24 19 -7 22 13 5 30 -14 14 -4 47 11 38 5 -3 10 -1 10 4 0 6 4 11 8 11 5 0 8 -57 7 -127z m13523 -124 c2 -74 1 -81 -18 -86 -13 -4 -20 -14 -20 -30 0 -14 -4 -22 -11 -18 -6 4 -7 19 -4 35 3 15 2 31 -3 34 -6 3 -6 22 0 48 5 24 10 51 11 60 1 9 4 15 8 12 4 -2 9 3 13 11 13 34 21 10 24 -66z m-13523 -226 c10 -24 15 -963 5 -963 -14 0 -21 -63 -8 -71 10 -6 13 -87 15 -339 1 -303 0 -330 -15 -330 -15 -1 -15 -2 1 -15 15 -10 17 -21 12 -44 -4 -17 -11 -31 -16 -31 -5 0 -9 -7 -9 -16 0 -8 4 -12 10 -9 5 3 10 3 11 -2 0 -12 7 -81 14 -149 5 -49 3 -65 -10 -77 -13 -13 -14 -21 -5 -37 7 -13 11 -67 10 -133 -1 -62 0 -149 3 -194 3 -53 1 -83 -5 -83 -6 0 -8 -13 -4 -32 4 -24 3 -29 -4 -18 -7 11 -10 6 -10 -22 0 -21 5 -38 10 -38 6 0 10 -20 10 -45 0 -25 -4 -45 -10 -45 -13 0 -13 -33 1 -47 17 -17 17 -172 0 -182 -12 -8 -12 -14 1 -43 12 -26 15 -71 14 -210 -1 -97 -4 -179 -8 -183 -15 -16 -47 31 -47 70 -1 78 -2 181 -2 255 0 41 0 80 0 85 4 62 6 413 1 410 -8 -5 -5 807 4 833 4 14 3 22 -3 22 -6 0 -11 20 -11 45 0 25 4 45 9 45 6 0 8 31 5 73 -2 39 -7 152 -10 250 -5 174 -5 177 15 177 26 0 26 7 1 45 -18 26 -20 47 -20 175 0 80 4 152 10 160 5 8 5 19 0 25 -8 9 -13 134 -8 215 0 14 -2 115 -6 225 -7 223 -3 265 24 265 10 0 21 -8 25 -17z m13495 6 c0 -6 6 -9 14 -6 17 7 28 -27 13 -42 -7 -7 -6 -15 3 -26 10 -11 10 -19 2 -27 -6 -6 -8 -30 -5 -58 3 -28 1 -50 -5 -54 -7 -4 -7 -17 -1 -39 11 -40 19 -146 12 -164 -7 -18 -16 -16 -41 6 -21 18 -31 74 -14 84 4 3 6 25 4 49 -5 80 -5 103 3 123 5 16 5 17 -4 5 -8 -12 -11 -8 -11 18 0 22 5 32 15 32 14 0 14 13 -1 88 -2 12 0 22 6 22 5 0 10 -5 10 -11z m29 -547 c1 -67 -2 -92 -9 -82 -6 9 -10 10 -10 3 0 -6 5 -15 10 -18 13 -8 13 -121 -1 -146 -6 -13 -7 -25 -1 -32 12 -15 10 -217 -2 -236 -5 -8 -4 -16 1 -20 13 -8 13 -5 16 -269 1 -128 -2 -233 -7 -235 -5 -2 -3 -19 4 -39 11 -29 11 -58 2 -149 -9 -82 -9 -115 -1 -120 8 -5 8 -13 -1 -29 -8 -15 -9 -25 -2 -29 10 -6 15 -410 6 -443 -3 -10 -12 -18 -20 -18 -8 0 -14 -10 -14 -26 0 -19 4 -25 14 -21 20 8 29 -38 17 -80 -6 -21 -6 -33 1 -35 7 -3 10 -103 8 -298 -1 -162 -2 -314 -2 -337 -1 -114 -1 -163 1 -215 0 -33 -3 -58 -9 -58 -5 0 -10 -5 -10 -11 0 -5 5 -7 10 -4 6 4 10 -8 10 -28 0 -22 -6 -37 -15 -41 -8 -3 -15 -11 -15 -18 0 -9 3 -8 10 2 8 12 10 11 10 -7 0 -12 -6 -23 -12 -26 -10 -3 -10 -7 1 -20 8 -10 11 -27 7 -42 -5 -18 -2 -25 9 -25 11 0 15 -12 15 -49 0 -28 -4 -52 -9 -55 -4 -3 -6 -28 -3 -55 3 -38 1 -49 -9 -48 -8 1 -14 -2 -14 -8 0 -5 6 -9 14 -8 9 1 12 -7 7 -28 -3 -16 -1 -29 4 -29 6 0 10 -4 10 -10 0 -16 -47 -11 -54 6 -12 31 -6 94 9 100 19 8 20 34 1 34 -8 0 -14 10 -14 23 -1 12 -4 45 -7 72 -4 28 -3 67 3 88 6 20 7 37 4 37 -4 0 -7 65 -7 145 0 119 3 148 15 155 10 7 11 10 3 10 -7 0 -13 7 -13 15 0 8 4 15 9 15 4 0 6 11 3 25 -2 14 -8 25 -12 25 -6 0 -6 738 1 906 1 38 -1 75 -4 81 -12 19 -9 277 2 281 14 5 14 42 1 42 -7 0 -10 26 -9 65 2 53 4 62 14 48 9 -12 14 -13 20 -4 4 7 -2 23 -16 37 -23 24 -23 28 -24 261 -1 181 2 239 12 249 16 16 17 44 2 44 -8 0 -10 14 -6 45 4 25 3 45 -1 45 -6 0 -9 368 -3 405 1 6 5 3 11 -5 12 -19 21 -9 14 17 -3 12 -11 20 -18 17 -8 -3 -12 26 -14 103 -2 141 2 161 32 156 23 -5 24 -9 25 -101z m-13503 -2952 c3 -128 -4 -146 -34 -84 -12 25 -18 43 -12 39 15 -9 12 22 -5 48 -21 33 -1 109 29 105 19 -3 21 -10 22 -108z m-36 -142 c0 -23 -3 -39 -6 -36 -7 8 -13 61 -7 71 9 15 13 6 13 -35z m33 -75 c9 -35 7 -328 -2 -342 -28 -44 -59 83 -41 166 5 22 5 40 0 43 -6 4 -6 18 -1 37 6 20 5 35 -1 41 -8 8 -7 20 2 41 14 34 36 41 43 14z m13500 -326 c4 3 7 -6 7 -20 0 -17 -5 -27 -15 -27 -8 0 -15 3 -15 8 0 4 -3 18 -7 32 -6 21 -4 23 9 13 8 -7 18 -10 21 -6z m-13495 -99 c2 -26 -2 -57 -9 -70 -9 -16 -9 -23 0 -26 14 -5 15 -89 0 -94 -9 -3 -9 -17 0 -56 15 -71 15 -292 0 -292 -8 0 -8 -4 -2 -12 9 -13 18 -177 14 -248 -3 -46 -3 -58 1 -320 2 -124 2 -231 0 -237 -6 -20 -20 -15 -28 10 -4 12 -11 25 -16 28 -5 4 -9 35 -8 70 0 35 1 75 0 89 0 14 0 108 1 210 0 102 0 194 0 205 -11 352 -10 392 11 379 7 -4 7 0 0 12 -5 11 -10 42 -10 69 -1 28 -3 84 -6 125 -4 49 -2 77 6 81 8 5 8 19 -1 53 -9 37 -9 50 1 61 24 28 43 13 46 -37z m13509 1 c17 -32 17 -146 1 -152 -10 -3 -10 -7 0 -19 10 -13 10 -17 0 -20 -10 -4 -10 -13 0 -45 14 -47 13 -503 -1 -503 -5 0 -6 -8 -2 -17 4 -10 8 -82 9 -160 1 -109 -2 -143 -11 -143 -7 0 -13 -5 -13 -11 0 -5 4 -8 9 -5 12 8 18 -41 21 -172 1 -90 -2 -115 -14 -128 -12 -11 -13 -20 -6 -34 14 -26 24 -287 11 -295 -6 -3 -11 -13 -11 -21 0 -8 5 -12 11 -8 7 4 10 -4 8 -22 -2 -16 0 -34 4 -41 9 -14 -2 -65 -16 -74 -5 -4 -6 -13 -1 -20 5 -8 9 -36 10 -64 1 -27 3 -56 5 -64 3 -9 -7 -17 -28 -21 l-33 -7 0 48 c0 26 4 51 10 54 10 6 7 48 -5 78 -5 12 -2 17 9 17 21 0 22 58 1 66 -12 5 -14 31 -9 167 3 89 4 176 3 192 -6 72 -3 212 5 234 5 15 5 21 -2 17 -16 -9 -23 43 -14 99 4 28 7 79 5 115 -2 42 2 76 12 96 13 28 13 35 0 60 -21 40 -21 126 0 118 8 -4 15 -2 15 4 0 5 -7 12 -15 15 -20 8 -19 312 2 376 9 29 10 47 3 55 -6 9 -6 23 3 45 8 23 9 34 1 39 -17 10 -27 87 -19 138 7 49 22 54 42 13z m-13515 -1424 c9 -33 -7 -75 -28 -75 -9 0 -13 16 -13 56 1 44 4 54 17 52 8 -2 19 -16 24 -33z m0 -140 c10 -32 9 -115 -2 -115 -13 0 -13 -77 0 -82 21 -7 10 -370 -13 -428 -10 -24 -10 -24 -19 14 -6 29 -5 42 4 49 10 7 10 10 1 14 -20 8 -18 182 2 189 8 4 15 14 14 23 0 10 -2 11 -6 4 -14 -35 -18 2 -20 162 -1 128 1 174 9 169 7 -5 9 -2 5 9 -4 10 -2 16 6 14 7 -1 15 -11 19 -22z m13516 -510 c16 -35 15 -64 -2 -71 -12 -4 -13 -12 -5 -32 16 -42 29 -120 23 -137 -9 -22 -24 -18 -24 5 0 11 -7 20 -15 20 -17 0 -19 13 -15 80 4 60 6 72 15 94 5 11 3 21 -4 25 -12 8 -5 41 8 41 4 0 13 -11 19 -25z m-13525 -192 c24 -76 28 -121 12 -137 -13 -12 -12 -15 0 -20 13 -4 14 -21 9 -93 -7 -94 -10 -106 -24 -83 -7 11 -10 5 -10 -22 0 -42 15 -50 30 -15 8 17 9 11 4 -23 -7 -52 -33 -150 -40 -150 -3 0 -5 30 -5 68 1 37 -1 111 -3 165 -3 88 -1 100 15 110 25 16 24 27 -2 27 -20 0 -21 4 -16 42 3 24 11 44 16 46 17 6 13 22 -5 22 -13 0 -15 6 -10 28 4 15 7 39 6 55 -1 40 6 33 23 -20z m13542 -228 c0 -134 -6 -170 -22 -129 -4 12 -7 13 -14 3 -14 -23 -18 -6 -19 81 0 122 3 153 20 172 31 36 36 20 35 -127z m-32 -245 l-9 -33 -12 28 c-11 24 -11 27 3 22 10 -4 15 -1 15 10 0 9 3 14 6 11 3 -3 1 -20 -3 -38z m37 -21 c0 -24 -23 -21 -28 4 -2 10 3 17 12 17 10 0 16 -9 16 -21z m-1 -134 c-1 -58 -5 -108 -10 -111 -6 -3 -7 -13 -5 -22 3 -10 1 -23 -3 -31 -16 -25 -41 5 -40 47 1 21 0 62 -1 93 -2 52 7 85 34 115 23 26 27 12 25 -91z m-13535 -11 c18 -18 21 -50 5 -60 -6 -3 -9 -15 -6 -25 3 -12 0 -19 -8 -19 -22 0 -28 20 -15 46 10 18 11 30 2 49 -13 28 -1 33 22 9z m15 -221 c1 -109 -8 -183 -21 -183 -6 0 -8 11 -6 25 3 16 -1 30 -14 42 -14 13 -18 28 -16 65 2 26 6 48 11 48 4 0 7 11 7 24 0 13 5 26 10 28 6 2 12 13 13 25 0 12 4 20 8 17 4 -2 7 -43 8 -91z m13521 -133 c0 -62 -4 -100 -12 -108 -9 -9 -9 -15 0 -24 14 -14 16 -48 2 -48 -6 0 -6 -9 0 -24 5 -13 6 -27 3 -30 -4 -3 -7 -18 -8 -33 -2 -16 -5 -39 -9 -53 -3 -14 -4 -19 0 -12 16 34 24 1 24 -102 0 -82 -4 -116 -12 -120 -10 -5 -10 -7 0 -12 13 -6 17 -89 6 -143 l-7 -31 -24 27 c-23 24 -25 31 -17 82 5 31 6 99 1 151 -5 65 -4 109 4 138 10 35 9 46 0 52 -13 7 -15 69 -8 223 2 37 0 70 -4 72 -4 3 -3 23 2 46 5 22 7 44 4 49 -3 5 -1 19 6 31 11 21 11 21 30 -7 15 -23 19 -48 19 -124z m-13517 -114 c3 -8 2 -39 -2 -71 -4 -31 -6 -87 -3 -123 6 -92 3 -181 -8 -219 -5 -20 -5 -35 1 -39 5 -3 9 -25 9 -50 0 -34 -4 -44 -17 -44 -9 0 -13 -3 -9 -7 4 -5 13 -8 19 -8 15 0 20 -85 6 -105 -8 -13 -10 -13 -19 0 -6 10 -10 11 -10 3 0 -7 -4 -13 -9 -13 -8 0 -16 296 -11 435 1 22 1 47 0 55 -2 29 9 161 15 180 7 23 30 27 38 6z m13493 -651 c-3 -8 2 -19 11 -24 13 -7 16 -21 14 -57 -1 -27 -8 -52 -14 -56 -9 -6 -9 -10 2 -17 7 -5 16 -32 19 -60 4 -45 2 -51 -14 -52 -11 0 -14 -3 -6 -6 18 -7 16 -83 -2 -83 -8 0 -17 6 -19 13 -3 7 -6 4 -6 -6 -1 -11 7 -21 17 -24 16 -4 18 -18 20 -126 7 -407 7 -420 -5 -424 -7 -3 -13 2 -13 11 0 9 -6 16 -14 16 -16 0 -25 44 -16 80 4 14 3 39 -2 55 -5 17 -5 55 -1 85 4 30 6 60 4 65 -10 35 -7 148 5 159 9 10 10 24 4 52 -15 66 -17 204 -3 204 19 0 22 13 13 55 -5 21 -5 46 -1 54 6 9 2 27 -10 48 -24 43 -24 53 2 53 15 0 19 -5 15 -15z m-13504 -105 c-6 -24 -7 -53 -2 -71 5 -17 5 -31 -1 -35 -5 -3 -3 -15 6 -27 16 -23 21 -97 6 -97 -5 0 -6 -21 -3 -46 4 -43 -5 -63 -29 -64 -15 0 -15 73 0 88 12 11 13 16 3 20 -6 2 -12 14 -12 27 0 13 -5 25 -11 27 -9 3 -8 11 1 28 8 14 15 52 16 85 2 81 14 129 27 116 6 -6 6 -23 -1 -51z m7 -391 c13 -37 13 -103 2 -174 -5 -29 -5 -57 1 -68 6 -12 5 -19 -5 -23 -14 -5 -12 -54 2 -54 12 0 12 -383 1 -400 -8 -13 -11 -11 -16 8 -4 12 -11 22 -16 22 -6 0 -8 16 -6 35 2 19 0 35 -5 35 -5 0 -7 36 -4 83 7 100 8 302 2 377 -2 30 -1 85 2 123 6 74 24 89 42 36z m13521 -499 c0 -39 -4 -50 -16 -50 -13 0 -12 -6 6 -39 17 -29 20 -43 12 -58 -7 -12 -7 -25 -1 -34 12 -20 11 -137 -2 -141 -7 -2 -7 -12 -1 -28 6 -14 7 -52 3 -85 -4 -33 -3 -78 2 -100 9 -43 4 -201 -7 -212 -3 -4 -13 2 -22 13 -14 18 -15 17 -9 -16 4 -27 3 -30 -4 -14 -8 19 -14 139 -12 240 1 25 8 48 21 62 24 25 25 32 5 32 -18 0 -18 5 -5 31 8 15 7 19 -5 19 -8 0 -15 6 -16 13 -3 78 -1 309 3 332 8 45 26 85 38 85 5 0 10 -22 10 -50z m-13529 -277 c11 -44 13 -61 10 -116 -1 -16 -3 -16 -24 -2 -21 13 -23 21 -21 92 2 90 1 86 13 79 5 -3 14 -27 22 -53z m18 -258 c1 -83 -5 -100 -25 -87 -22 14 -30 49 -26 109 3 47 8 63 20 66 10 2 20 2 24 0 3 -2 7 -41 7 -88z m-13 -115 c11 0 14 -34 15 -192 1 -106 2 -242 3 -303 0 -60 -2 -144 -6 -185 -4 -44 -3 -77 3 -80 6 -4 5 -18 -1 -37 -7 -19 -8 -49 -2 -85 10 -62 -1 -98 -30 -98 -16 0 -18 9 -18 90 0 75 2 88 15 84 10 -4 15 0 15 15 0 12 -7 24 -15 27 -17 7 -21 64 -5 64 6 0 10 11 10 24 0 14 4 27 9 30 10 7 2 56 -9 56 -5 0 -10 -6 -13 -12 -4 -13 -11 214 -10 322 0 31 5 56 12 58 14 5 15 32 1 32 -6 0 -9 30 -8 75 2 41 7 75 12 75 5 0 6 15 3 33 -3 17 -3 26 0 20 2 -7 11 -13 19 -13z m13524 -160 c6 -42 -1 -80 -14 -80 -18 0 -34 62 -17 68 6 2 11 13 11 25 0 23 17 12 20 -13z m-14 -111 c5 -8 9 -8 14 1 4 7 8 -16 9 -51 0 -35 -4 -66 -10 -69 -6 -5 -6 -15 1 -34 15 -41 13 -76 -6 -76 -11 0 -14 -6 -8 -22 4 -13 11 -26 17 -29 5 -4 7 -20 3 -35 -16 -69 -17 -84 -7 -84 15 0 14 -47 0 -52 -9 -3 -9 -10 1 -27 9 -18 9 -30 1 -48 -6 -13 -11 -38 -11 -54 0 -29 -1 -29 -17 -14 -9 10 -16 31 -15 49 0 17 2 59 4 94 2 34 0 62 -4 62 -5 0 -8 11 -8 25 0 14 5 25 11 25 8 0 9 14 5 43 -14 85 -17 185 -6 192 6 4 8 27 4 61 -5 36 -3 54 4 54 6 0 14 -5 18 -11z m24 -688 c-4 -14 -3 -59 2 -100 6 -49 5 -77 -2 -86 -6 -7 -8 -19 -5 -27 4 -9 -3 -14 -19 -16 -29 -2 -42 24 -21 44 19 19 20 54 1 54 -10 0 -12 16 -10 68 1 37 3 75 3 85 1 10 5 16 10 13 5 -3 12 2 15 11 11 28 35 -15 26 -46z m-13551 -91 c4 0 13 6 20 13 11 10 12 6 6 -20 -3 -17 -2 -48 3 -67 8 -27 7 -38 -4 -47 -8 -6 -12 -19 -9 -28 5 -17 -10 -49 -19 -40 -8 7 -8 46 0 92 4 22 2 37 -4 37 -6 0 -10 21 -9 48 0 26 3 39 5 30 2 -10 7 -18 11 -18z m13535 -179 c18 -27 20 -43 16 -143 -2 -32 -4 -37 -8 -20 -4 13 -11 22 -17 20 -16 -4 -30 81 -17 103 15 23 16 49 2 49 -5 0 -10 5 -10 10 0 18 15 10 34 -19z m-13496 -78 c2 -13 -1 -23 -6 -23 -5 0 -7 -48 -5 -107 9 -285 9 -370 0 -390 -7 -16 -6 -27 3 -38 17 -20 4 -85 -20 -102 -18 -13 -18 -14 6 -38 23 -23 24 -31 23 -120 -1 -74 -4 -95 -15 -95 -18 0 -18 -15 0 -43 11 -17 12 -40 7 -95 -4 -40 -3 -76 1 -78 12 -7 10 -82 -2 -89 -6 -4 -8 -10 -6 -14 16 -26 22 -252 8 -278 -10 -16 -12 -15 -21 9 -6 15 -8 35 -5 43 4 8 2 15 -3 15 -6 0 -10 34 -10 75 0 55 4 75 14 77 11 2 10 10 -5 38 -19 35 -18 59 2 72 7 5 5 11 -6 20 -20 15 -14 68 8 68 19 0 18 34 -3 73 -21 42 -26 182 -7 202 10 10 11 14 2 17 -6 2 -13 31 -16 64 -3 47 0 64 12 77 13 12 14 21 7 35 -7 13 -7 22 0 29 8 8 7 18 -1 33 -12 23 -19 341 -8 408 3 18 1 35 -4 38 -4 3 -8 30 -8 60 0 41 4 54 15 54 18 0 20 16 3 24 -7 3 -2 4 12 3 17 -1 26 -9 28 -24z m13512 -117 c0 -2 -3 -11 -6 -20 -9 -23 -24 -20 -24 4 0 11 7 20 15 20 8 0 15 -2 15 -4z m-11 -108 c13 -36 20 -118 9 -118 -5 0 -5 -7 1 -17 5 -10 8 -57 7 -104 -1 -67 -5 -89 -18 -103 -22 -21 -22 -21 -1 -41 12 -12 17 -40 20 -106 3 -83 2 -89 -17 -89 -15 0 -20 -7 -20 -27 0 -21 3 -24 10 -13 17 27 23 1 26 -105 2 -102 -4 -124 -25 -87 -8 14 -10 10 -11 -20 0 -21 -4 -38 -9 -38 -15 0 -20 27 -11 60 5 16 6 45 3 64 -3 19 -1 36 6 40 6 4 11 19 11 34 0 21 -2 24 -10 12 -7 -10 -10 8 -10 62 0 50 4 78 12 80 9 3 9 11 1 34 -6 16 -14 59 -17 95 -5 54 -3 68 9 73 18 7 20 33 3 39 -10 3 -12 37 -10 133 1 71 5 137 8 147 7 24 23 21 33 -5z m-16 -897 c-2 -10 3 -25 11 -34 21 -20 20 -35 -1 -39 -16 -3 -15 -6 5 -26 26 -26 30 -81 7 -115 -12 -19 -12 -28 -1 -62 8 -23 14 -83 14 -137 0 -85 -2 -98 -16 -98 -14 0 -14 -2 -3 -9 26 -17 36 -356 11 -386 -7 -9 -9 -26 -6 -41 7 -27 18 -322 19 -486 0 -64 -5 -103 -13 -113 -15 -18 -32 -10 -28 13 1 10 -1 22 -5 28 -10 17 -18 204 -8 204 4 0 6 13 3 29 -2 16 1 32 7 35 6 4 11 0 11 -11 0 -13 2 -15 9 -5 10 16 2 62 -10 62 -5 0 -9 9 -9 20 0 11 -4 20 -9 20 -13 0 -6 153 8 158 6 2 11 18 11 35 0 21 -3 28 -9 19 -7 -11 -9 -11 -14 1 -3 8 -6 213 -6 456 0 243 -3 446 -6 452 -4 6 1 19 11 30 21 24 23 24 17 0z m-13513 -421 c0 -5 5 -9 12 -7 15 3 26 -78 21 -153 -3 -30 -4 -100 -3 -154 1 -67 -2 -101 -10 -106 -9 -6 -9 -13 -1 -28 9 -16 8 -33 0 -68 -9 -34 -9 -52 -1 -64 6 -10 8 -21 5 -24 -10 -10 -13 -59 -4 -71 5 -5 8 -38 8 -72 0 -53 -3 -63 -18 -63 -18 0 -33 38 -20 54 4 6 6 27 4 46 -10 108 -11 180 -1 180 7 0 7 4 1 13 -19 23 -22 96 -6 112 12 12 12 19 3 30 -12 15 -15 199 -3 231 6 16 7 16 14 -2 7 -16 8 -16 8 7 1 14 -6 34 -14 45 -16 21 -20 104 -5 104 6 0 10 -4 10 -10z m30 -870 c0 -21 -4 -42 -10 -45 -13 -8 -13 -55 1 -55 6 0 9 -14 8 -32 -1 -18 1 -43 5 -55 9 -29 -1 -63 -19 -63 -7 0 -15 -6 -18 -12 -2 -7 -7 -10 -11 -6 -4 3 -2 16 4 28 6 12 8 29 5 38 -11 25 -15 212 -5 212 5 0 12 9 15 20 10 31 25 13 25 -30z m6 -328 c-10 -10 -29 15 -21 28 6 9 10 8 17 -4 6 -10 7 -20 4 -24z m-23 -29 c23 -56 25 -66 16 -90 -5 -13 -4 -23 2 -25 7 -2 8 -18 3 -43 -7 -37 -8 -38 -17 -17 -6 12 -13 22 -18 22 -4 0 -2 -11 4 -25 7 -14 18 -25 25 -25 6 0 12 -2 12 -5 0 -12 -24 -55 -32 -55 -4 0 -8 -4 -8 -9 0 -5 8 -8 17 -7 16 1 18 -16 18 -204 0 -236 -5 -294 -27 -298 -22 -4 -27 44 -21 238 3 91 5 172 4 180 -11 142 -11 268 -1 306 10 34 10 48 1 57 -13 13 -15 37 -3 37 5 0 16 -17 25 -37z m13529 -45 c1 -13 2 -45 3 -73 0 -27 4 -60 8 -71 8 -24 -14 -54 -39 -54 -19 0 -20 170 -2 200 17 26 28 25 30 -2z m14 -256 c1 -29 0 -52 -2 -52 -8 0 -54 48 -54 57 0 15 34 53 45 50 6 -2 11 -27 11 -55z m-16 -98 c0 -8 -4 -14 -10 -14 -16 0 -11 -25 10 -50 24 -28 26 -60 4 -60 -13 0 -14 -3 -5 -13 8 -11 5 -16 -14 -25 l-25 -12 -2 68 c0 37 0 74 1 82 2 8 5 32 8 53 l5 38 14 -27 c8 -14 14 -33 14 -40z m-1 -236 c-2 -13 0 -29 5 -37 5 -7 10 -42 12 -77 2 -50 -1 -64 -12 -64 -17 0 -18 -14 -1 -32 9 -9 12 -57 12 -168 l0 -155 -25 0 -25 0 -2 245 c-1 135 1 260 4 278 6 37 36 46 32 10z m-13525 -202 c-6 -16 -24 -23 -24 -8 0 10 22 33 27 28 2 -2 1 -11 -3 -20z m24 -156 c0 -58 -3 -84 -14 -95 -15 -14 -11 -55 4 -55 4 0 9 -34 10 -75 2 -61 -1 -75 -13 -75 -9 0 -15 9 -15 24 0 13 -5 26 -11 28 -7 2 -12 34 -13 78 -3 92 3 130 19 130 15 0 18 62 3 71 -6 4 -3 14 8 28 10 11 19 21 20 21 1 0 2 -36 2 -80z m13522 -241 c0 -17 -5 -40 -11 -52 -9 -16 -9 -22 0 -25 15 -5 14 -31 -3 -48 -20 -19 -36 -18 -36 4 0 9 -3 35 -6 57 -4 32 -3 36 6 23 19 -30 30 -20 30 27 0 25 5 45 10 45 6 0 10 -14 10 -31z m-13533 -151 c5 -33 5 -56 -1 -60 -5 -4 -4 -24 4 -52 7 -25 9 -53 5 -63 -5 -15 -10 -12 -25 17 -23 44 -27 210 -5 210 8 0 17 -20 22 -52z m13533 -68 c-5 -8 -6 -27 -3 -41 4 -23 1 -26 -20 -26 -33 0 -41 29 -16 61 10 13 16 26 13 29 -3 3 -2 16 2 29 7 23 7 23 20 -7 7 -17 9 -37 4 -45z m-20 -110 c0 -5 -7 -10 -15 -10 -8 0 -15 5 -15 10 0 6 7 10 15 10 8 0 15 -4 15 -10z m-13505 -84 c7 -21 6 -29 -5 -36 -12 -7 -13 -13 -4 -28 7 -11 12 -76 13 -171 1 -84 2 -155 2 -159 1 -4 1 -24 0 -44 -1 -30 -4 -36 -17 -31 -12 5 -15 -1 -12 -28 2 -21 8 -33 16 -31 17 3 16 -66 -2 -84 -8 -8 -19 -14 -24 -14 -15 0 -8 381 8 407 12 18 11 25 -3 47 -18 27 -23 102 -7 126 5 9 5 19 -1 27 -13 15 -1 55 14 50 7 -2 16 -16 22 -31z m13510 -36 c-15 -28 -15 -34 0 -62 16 -34 21 -62 5 -38 -11 16 -13 10 -11 -35 0 -16 -2 -25 -5 -18 -3 7 -12 9 -21 6 -14 -6 -15 4 -9 82 5 64 11 93 24 105 26 25 37 -1 17 -40z m19 -206 c4 -14 2 -33 -4 -44 -6 -10 -9 -23 -9 -27 1 -4 -2 -17 -6 -27 -6 -13 -4 -21 3 -24 16 -5 15 -30 -2 -48 -12 -12 -11 -21 6 -66 16 -42 18 -59 10 -80 -6 -16 -9 -40 -7 -55 1 -16 -2 -31 -9 -35 -8 -6 -8 -10 0 -15 6 -5 12 -36 13 -70 2 -61 1 -63 -23 -63 -32 0 -37 19 -27 98 4 35 4 65 0 68 -12 7 -2 66 12 74 8 5 9 19 4 41 -4 19 -9 93 -11 165 l-3 132 24 0 c16 0 25 -8 29 -24z m-13525 -531 c0 -38 0 -72 1 -78 6 -27 -1 -47 -14 -42 -8 3 -16 1 -19 -6 -2 -7 -7 11 -10 38 -7 51 16 155 34 155 5 0 9 -30 8 -67z m13521 -99 c0 -8 -4 -12 -10 -9 -5 3 -10 13 -10 21 0 8 5 12 10 9 6 -3 10 -13 10 -21z m-22 -46 c25 -31 41 -252 21 -290 -10 -19 -11 -26 -5 -163 3 -79 1 -106 -12 -127 -13 -22 -13 -29 -3 -42 8 -9 11 -26 7 -41 -5 -18 -2 -25 9 -25 12 0 15 -12 15 -55 0 -30 -4 -55 -8 -55 -5 0 -7 -13 -4 -29 3 -22 -1 -29 -16 -33 -17 -5 -20 0 -21 31 0 20 -1 50 -2 66 0 17 -1 41 0 55 0 14 -1 63 -3 110 -2 47 -1 115 3 152 4 37 3 75 -2 84 -6 11 -5 19 4 25 10 6 11 13 2 31 -24 47 -26 123 -5 166 12 26 16 42 9 45 -12 4 -19 107 -7 107 4 0 12 -6 18 -12z m-13523 -34 c1 -25 -10 -33 -18 -11 -5 16 4 49 12 42 3 -4 6 -18 6 -31z m26 -116 c1 -29 3 -87 5 -128 3 -73 -8 -119 -31 -127 -13 -4 -15 7 -18 125 -2 51 1 92 6 92 5 0 3 7 -4 16 -11 14 -10 18 6 31 14 11 16 17 8 20 -20 7 -15 23 7 23 17 0 20 -7 21 -52z m0 -285 c1 -5 3 -105 5 -223 2 -174 0 -221 -12 -245 -13 -27 -13 -31 0 -40 13 -8 13 -13 -2 -37 -14 -24 -15 -30 -3 -37 10 -6 15 -39 18 -115 3 -89 2 -107 -11 -112 -13 -5 -15 -22 -13 -85 1 -43 5 -79 9 -79 4 0 7 -8 7 -17 1 -10 3 -47 6 -82 2 -35 1 -69 -2 -75 -9 -13 -11 -86 -3 -86 5 0 8 -119 9 -353 1 -55 -3 -83 -13 -93 -22 -21 -26 -18 -26 24 0 20 -1 102 -3 182 -1 80 2 148 7 151 5 4 5 13 0 20 -11 18 -13 669 -2 669 5 0 4 8 -1 19 -6 10 -10 122 -11 267 0 137 0 263 0 279 -1 46 9 75 25 75 8 0 16 -3 16 -7z m13513 -470 c3 -10 8 -39 12 -65 6 -44 5 -48 -15 -48 -11 0 -21 -4 -21 -10 0 -5 -5 -10 -11 -10 -7 0 -8 7 -4 18 4 9 7 43 7 75 0 41 3 57 13 57 8 0 16 -8 19 -17z m-10 -169 c3 -9 6 -33 6 -55 0 -21 5 -39 10 -39 7 0 10 -53 10 -152 0 -84 0 -202 0 -261 1 -71 -2 -113 -10 -122 -9 -11 -10 -22 -2 -42 17 -41 14 -123 -4 -123 -19 0 -18 -16 1 -24 10 -3 15 -19 15 -46 0 -36 -3 -40 -24 -40 -15 0 -26 7 -29 18 -9 32 5 268 16 279 4 3 0 18 -8 34 -17 32 -19 72 -5 98 6 12 6 30 -1 52 -7 24 -6 41 3 57 7 14 8 26 3 30 -13 9 -16 112 -4 112 5 0 9 -12 9 -27 1 -22 3 -25 10 -12 6 10 5 36 -1 70 -22 121 -29 173 -23 191 7 22 20 23 28 2z m2 -1028 c16 -17 23 -77 9 -82 -6 -2 -16 14 -23 36 -19 61 -15 74 14 46z m-13500 -51 c4 -8 3 -23 -1 -32 -7 -17 -8 -16 -15 2 -5 11 -9 26 -9 33 -1 17 18 15 25 -3z m13520 -171 c1 -94 -2 -123 -14 -136 -14 -16 -13 -18 2 -18 15 0 16 -14 16 -132 -1 -73 1 -195 5 -271 6 -144 -2 -170 -27 -84 -6 23 -16 45 -21 48 -6 5 -9 245 -5 479 1 19 1 62 0 95 -2 108 -1 116 11 130 25 29 32 6 33 -111z m-13515 18 c1 -9 1 -21 0 -26 -7 -33 -6 -224 1 -237 5 -12 2 -18 -15 -23 -13 -4 -18 -9 -11 -13 28 -20 26 -113 -2 -113 -11 0 -14 34 -14 178 0 97 -1 197 -1 222 -1 56 -3 53 21 40 11 -6 21 -18 21 -28z m-1 -473 c0 -10 -5 -29 -11 -43 -9 -19 -9 -29 0 -40 10 -11 10 -20 1 -37 -8 -14 -8 -19 -1 -15 17 11 20 -77 6 -154 -5 -25 -8 -50 -7 -56 1 -6 -4 -17 -12 -23 -13 -11 -14 -2 -10 61 3 40 4 80 3 88 -1 8 -2 45 -3 83 0 37 -4 67 -8 67 -9 0 -10 66 -2 98 6 22 8 22 25 6 11 -9 19 -25 19 -35z m13520 -333 c1 -22 3 -86 5 -141 3 -55 2 -94 -1 -87 -10 23 -21 12 -22 -23 -1 -34 11 -47 21 -22 3 6 6 -8 7 -33 3 -59 0 -83 -11 -97 -6 -6 -11 -37 -13 -70 -5 -75 -4 -73 -15 -73 -12 0 -20 100 -9 122 5 10 4 19 -2 23 -11 7 -7 426 4 444 15 23 36 -2 36 -43z m-13521 -135 c12 -8 13 -14 3 -35 -16 -36 -42 -34 -42 2 0 41 12 50 39 33z m11 -104 c0 -31 -5 -45 -19 -54 -24 -15 -31 -8 -31 30 0 28 24 65 43 66 4 1 7 -18 7 -42z m-2 -118 c1 -23 -7 -53 -16 -67 -12 -19 -13 -27 -4 -30 16 -5 15 -22 -2 -22 -16 0 -27 33 -16 51 5 7 4 23 -1 36 -12 32 -12 73 0 54 7 -11 10 -9 16 8 10 32 23 16 23 -30z m-13 -166 c-6 -25 -8 -26 -17 -10 -7 13 -6 22 3 33 16 20 23 10 14 -23z m5 -75 c0 -17 -20 -47 -20 -31 0 6 -3 18 -6 27 -4 11 -1 16 10 16 9 0 16 -6 16 -12z m13507 -23 c-21 -15 -16 -49 8 -59 23 -8 19 -53 -5 -59 -25 -6 -40 18 -40 67 0 49 9 66 34 66 20 -1 20 -1 3 -15z m-13513 -72 c2 -10 5 -47 5 -83 1 -36 3 -94 5 -130 2 -36 -1 -71 -7 -78 -7 -9 -6 -20 3 -37 7 -14 10 -35 6 -52 -4 -15 -7 -36 -7 -45 0 -30 -29 -21 -30 10 -10 282 -9 292 7 292 14 0 14 1 0 16 -20 20 -20 43 0 51 9 3 11 9 6 12 -5 3 -12 18 -16 34 -5 20 -3 27 8 27 8 0 17 -8 20 -17z m13526 -147 c0 -8 -4 -17 -9 -20 -5 -3 -5 -26 0 -52 5 -25 6 -50 4 -55 -3 -4 0 -17 6 -28 10 -15 9 -22 -4 -36 -20 -19 -21 -27 -7 -41 19 -19 23 -167 6 -227 -18 -62 -20 -81 -7 -73 5 3 11 -4 15 -17 9 -32 7 -75 -3 -81 -11 -7 -4 -158 8 -165 5 -3 8 -77 8 -166 -2 -146 -4 -161 -21 -168 -14 -5 -17 -13 -11 -34 3 -15 13 -32 22 -38 13 -10 14 -23 8 -76 -4 -35 -7 -97 -6 -136 1 -57 -1 -73 -13 -73 -8 0 -16 15 -20 38 -13 75 -22 442 -15 565 1 17 1 46 -1 62 -3 41 11 115 21 115 5 0 9 5 9 10 0 6 -7 10 -15 10 -12 0 -15 19 -16 103 -2 211 -2 285 2 385 2 56 1 102 -3 102 -5 0 -8 16 -8 35 0 19 4 35 9 35 5 0 13 9 16 20 7 23 25 27 25 6z m-13512 -365 c0 -15 -5 -46 -13 -67 l-13 -39 -8 29 c-5 20 -3 31 4 34 7 2 10 7 7 12 -4 7 14 60 20 60 1 0 2 -13 3 -29z m-2 -191 c-13 -31 -14 -32 -24 -13 -11 20 -4 65 14 95 16 25 25 -48 10 -82z m-6 -95 c0 -8 -7 -15 -15 -15 -8 0 -15 7 -15 15 0 8 7 15 15 15 8 0 15 -7 15 -15z m10 -209 c0 -14 -4 -27 -9 -30 -5 -3 -7 -15 -4 -26 6 -21 3 -23 -21 -14 -11 4 -14 14 -9 37 10 55 43 79 43 33z m3 -265 c2 -10 1 -25 -4 -32 -5 -8 -6 -30 -3 -50 4 -20 2 -45 -4 -55 -8 -14 -11 -6 -17 41 -3 33 -9 72 -11 88 -5 22 -2 27 14 27 11 0 22 -8 25 -19z m-1 -207 c-6 -46 -36 -44 -40 4 -3 28 0 32 20 32 22 0 24 -4 20 -36z m-9 -113 c-3 -21 0 -47 6 -59 11 -21 6 -52 -10 -52 -11 0 -29 67 -29 113 0 30 4 37 19 37 16 0 18 -5 14 -39z m13521 -90 c-4 -20 -8 -45 -10 -56 -1 -11 -3 -22 -3 -25 -1 -2 -7 4 -14 15 -7 11 -12 38 -11 60 2 55 2 54 25 48 18 -5 20 -10 13 -42z m-13513 -85 c6 -136 -1 -420 -10 -429 -16 -16 -21 -6 -28 52 -4 35 -2 51 6 51 7 0 9 9 5 26 -4 17 -2 29 7 34 9 6 10 12 2 22 -7 8 -14 74 -18 150 -6 135 -6 136 14 131 15 -4 21 -14 22 -37z m13509 -61 c-5 -21 -3 -41 6 -56 16 -28 18 -85 4 -94 -5 -3 -10 2 -10 11 0 10 -8 26 -17 36 -13 15 -14 21 -5 27 10 6 9 17 -3 50 -19 54 -19 61 0 61 8 0 15 6 15 13 0 9 3 8 9 -2 5 -7 5 -28 1 -46z m9 -192 c14 -36 12 -127 -4 -175 -7 -22 -8 -39 -3 -40 12 -4 16 -426 5 -492 -14 -80 -31 -40 -33 77 -1 56 -5 145 -9 198 -6 76 -5 101 7 123 13 25 13 33 1 57 -8 16 -12 37 -9 46 3 10 6 66 8 126 2 111 14 136 37 80z m-13524 -294 c4 -11 4 -23 0 -27 -7 -7 -25 17 -25 36 0 20 18 14 25 -9z m5 -53 c0 -2 3 -11 6 -20 4 -12 0 -16 -15 -16 -12 0 -21 2 -21 4 0 2 -3 11 -6 20 -4 12 0 16 15 16 12 0 21 -2 21 -4z m2 -88 c4 -38 3 -66 -3 -62 -13 8 -21 -17 -10 -30 6 -7 8 -16 4 -19 -17 -17 -22 -2 -21 58 2 45 6 65 15 65 7 0 14 -6 15 -12z m4 -146 c-3 -10 -7 -67 -8 -127 -2 -67 -7 -115 -14 -122 -18 -19 -25 156 -7 178 14 16 8 49 -8 49 -5 0 -9 5 -9 10 0 6 7 10 15 10 8 0 15 5 15 10 0 6 5 10 11 10 6 0 8 -8 5 -18z m13506 -212 c4 -26 2 -30 -20 -30 -18 0 -23 4 -18 16 3 9 6 22 6 30 0 27 28 14 32 -16z m11 -70 c-5 -20 -15 -25 -26 -14 -9 9 4 34 18 34 8 0 11 -8 8 -20z m-3 -60 c0 -19 -5 -30 -14 -30 -19 0 -26 21 -14 43 14 27 28 20 28 -13z m-13524 -7 c6 -11 10 -67 8 -143 -2 -150 -1 -140 -18 -140 -14 0 -31 113 -20 132 3 5 5 45 5 89 -1 79 5 94 25 62z m13525 -71 c-13 -25 -15 -79 -2 -84 5 -1 12 -26 16 -54 5 -39 3 -55 -8 -66 -9 -9 -13 -25 -10 -41 3 -15 2 -38 -1 -53 -6 -21 -9 -24 -22 -13 -11 9 -15 35 -15 103 0 50 0 100 0 111 -1 37 14 110 24 123 16 20 31 -2 18 -26z m-13527 -260 c19 -36 18 -302 -1 -302 -14 0 -28 97 -19 142 3 18 2 49 -2 68 -8 32 -5 120 4 120 2 0 10 -13 18 -28z m13535 -169 c-2 -49 0 -94 4 -101 10 -15 -2 -100 -14 -108 -5 -3 -9 2 -9 10 0 9 -5 16 -11 16 -6 0 -9 12 -8 28 2 15 1 32 -3 37 -3 6 -5 50 -4 98 1 85 9 106 40 107 4 0 6 -39 5 -87z m-13526 -173 c-3 -11 -9 -20 -14 -20 -5 0 -9 9 -9 20 0 11 6 20 14 20 9 0 12 -7 9 -20z m-5 -75 c14 -31 15 -94 2 -115 -12 -20 -18 -12 -26 38 -5 35 -4 42 10 42 20 0 20 7 1 26 -16 17 -20 34 -7 34 5 0 14 -11 20 -25z m13532 -14 c0 -11 -4 -23 -10 -26 -5 -3 -10 -2 -10 4 0 5 -3 16 -6 25 -4 11 -1 16 10 16 9 0 16 -8 16 -19z m4 -251 c-1 -36 -3 -73 -3 -82 -1 -11 -9 -18 -21 -18 -29 0 -37 60 -17 124 9 28 20 62 23 76 l8 25 5 -30 c4 -16 5 -59 5 -95z m-13534 10 c0 -11 -4 -20 -10 -20 -5 0 -10 9 -10 20 0 11 5 20 10 20 6 0 10 -9 10 -20z m4 -107 c5 -17 2 -31 -7 -41 -13 -12 -16 -10 -22 17 -11 50 17 74 29 24z m13516 -58 c3 -17 1 -40 -5 -52 -17 -33 -35 -9 -35 45 0 36 3 43 17 40 10 -2 20 -16 23 -33z m-13510 -49 c0 -8 -5 -27 -11 -43 -10 -26 -12 -26 -19 -8 -7 21 7 65 22 65 4 0 8 -6 8 -14z m13520 -62 c0 -14 -4 -23 -10 -19 -5 3 -10 15 -10 26 0 10 5 19 10 19 6 0 10 -12 10 -26z m-13527 -52 c-3 -12 -9 -22 -14 -22 -14 0 -11 38 4 43 16 6 17 5 10 -21z m13507 -34 c0 -16 5 -27 11 -25 6 1 13 -3 16 -10 3 -8 -6 -11 -24 -10 -22 2 -29 8 -31 30 -2 15 2 27 8 27 7 0 9 9 5 23 -5 17 -4 19 4 7 6 -8 11 -27 11 -42z m-13516 -7 c8 -13 -5 -71 -15 -71 -5 0 -9 18 -9 40 0 37 11 52 24 31z m14 -249 c2 -84 1 -102 -11 -102 -21 0 -23 13 -19 118 2 64 7 92 15 89 7 -2 13 -40 15 -105z m13518 -15 c11 -195 13 -327 5 -327 -6 0 -6 -13 0 -32 13 -46 11 -58 -6 -58 -12 0 -14 -8 -9 -42 4 -24 11 -49 16 -55 6 -8 7 -57 3 -125 -7 -126 -7 -152 -1 -353 3 -111 1 -145 -11 -169 -14 -26 -14 -30 1 -38 16 -9 23 -48 8 -48 -4 0 -9 -21 -10 -47 -4 -104 -31 -56 -32 57 0 47 -2 131 -6 186 -5 83 -3 107 10 133 13 24 14 36 6 52 -7 13 -9 36 -4 62 10 49 6 98 -7 111 -13 14 -11 67 4 96 9 17 11 42 6 79 -4 29 -5 60 -2 67 3 8 0 35 -7 61 -12 39 -11 47 1 57 11 8 14 24 11 54 -2 23 -8 42 -12 42 -11 0 -4 154 8 176 11 21 9 99 -3 127 -4 9 -4 25 0 35 12 32 26 -12 31 -101z m-13516 -241 c5 -38 4 -66 -3 -74 -7 -9 -7 -20 1 -36 6 -13 8 -27 5 -30 -3 -3 -6 -37 -6 -76 0 -49 -3 -70 -12 -70 -16 0 -25 61 -19 130 3 30 5 100 5 155 0 111 15 112 29 1z m0 -369 c-1 -21 -1 -21 -15 -3 -8 10 -12 23 -9 28 9 14 24 -2 24 -25z m2 -229 c-12 -12 -35 -1 -27 12 3 5 13 6 21 3 10 -4 12 -9 6 -15z m-16 -96 c-14 -15 -15 -13 -3 17 8 23 13 28 15 16 2 -10 -3 -25 -12 -33z m9 -91 c-1 -26 -7 -57 -13 -67 -9 -15 -11 -7 -12 42 0 33 3 64 7 67 15 16 21 4 18 -42z m1 -107 c0 -5 4 -21 8 -37 5 -16 4 -32 -2 -40 -8 -9 -7 -27 4 -63 16 -53 19 -156 8 -271 -6 -64 -5 -73 10 -73 9 0 16 -3 16 -7 0 -10 52 -9 68 1 7 4 52 6 101 5 49 -1 93 1 99 5 6 3 15 -2 21 -11 6 -10 11 -13 11 -7 0 15 232 15 243 0 6 -8 10 -7 14 2 6 16 38 16 63 0 17 -11 22 -10 29 0 5 8 21 12 40 10 19 -2 35 3 40 11 6 9 11 10 15 2 9 -15 69 -14 84 1 8 8 15 8 26 -1 8 -7 19 -10 25 -7 5 4 16 -1 24 -9 19 -18 34 -19 40 -2 2 6 7 9 11 6 11 -10 -6 -41 -19 -35 -7 2 -15 -5 -18 -16 -5 -18 -10 -20 -54 -13 -26 4 -59 7 -72 6 -13 0 -30 4 -37 10 -11 9 -14 7 -14 -11 0 -16 -4 -20 -15 -16 -8 3 -22 9 -30 12 -10 4 -15 0 -15 -10 0 -9 -7 -16 -15 -16 -8 0 -15 8 -15 17 0 13 -3 14 -11 6 -6 -6 -26 -9 -45 -6 -22 4 -34 2 -34 -6 0 -11 -55 -10 -66 2 -3 3 -12 3 -20 0 -9 -3 -14 1 -14 12 0 9 -4 14 -9 11 -5 -4 -12 0 -14 6 -4 9 -6 7 -6 -3 -1 -11 -9 -15 -26 -14 -13 2 -45 -3 -70 -11 -32 -9 -53 -10 -71 -4 -16 6 -32 6 -43 1 -9 -5 -45 -7 -79 -4 -48 5 -66 11 -78 27 -10 14 -15 16 -13 6 4 -37 0 -40 -48 -34 -68 8 -74 16 -72 93 0 36 -5 107 -11 156 -9 67 -9 102 -1 138 6 27 11 82 11 124 0 55 3 74 13 71 6 -3 12 -9 13 -14z m13511 -306 c6 -7 13 -24 16 -37 9 -38 -14 -52 -90 -52 -40 0 -70 -5 -75 -12 -5 -8 -13 -7 -32 2 -20 11 -28 12 -40 2 -8 -7 -21 -9 -27 -5 -17 10 -119 15 -119 6 0 -9 -78 -7 -102 3 -10 4 -25 4 -34 1 -9 -4 -27 0 -40 9 -14 9 -25 11 -29 5 -3 -6 -24 -10 -46 -10 -21 0 -39 -4 -39 -10 0 -5 -7 -10 -15 -10 -8 0 -15 5 -15 10 0 6 -9 10 -20 10 -11 0 -20 -4 -20 -8 0 -13 -97 -14 -105 -2 -9 14 -42 12 -48 -2 -3 -10 -7 -10 -18 -1 -17 13 -109 14 -126 1 -7 -6 -19 -6 -30 0 -26 14 -84 13 -111 0 -18 -10 -25 -9 -31 1 -6 9 -14 10 -27 3 -33 -16 -81 -21 -115 -12 -17 5 -37 6 -43 2 -15 -10 -169 -2 -181 9 -15 15 -28 10 -21 -7 6 -15 0 -16 -41 -10 -27 4 -65 6 -85 6 -34 -1 -38 2 -38 24 0 14 5 28 11 32 19 11 130 6 146 -7 12 -11 17 -10 25 4 8 15 18 17 53 12 23 -4 45 -3 48 3 10 15 79 6 93 -13 12 -16 14 -16 29 -2 23 23 56 31 65 16 7 -10 11 -10 24 0 9 8 16 9 16 4 0 -13 169 -14 193 -2 14 8 19 5 26 -13 8 -21 10 -21 16 -5 6 14 14 17 35 12 14 -3 39 -1 54 5 23 8 33 6 58 -11 24 -17 32 -19 38 -9 5 9 32 14 72 15 34 1 84 6 111 10 33 5 52 3 62 -5 9 -7 15 -8 15 -2 0 15 41 22 62 11 10 -5 24 -7 30 -3 17 11 58 12 91 3 17 -5 38 -3 54 4 21 10 27 8 39 -8 13 -17 16 -18 24 -5 7 12 32 15 111 16 83 1 103 4 111 18 11 19 22 20 35 4z m-2471 -58 c11 -10 17 -10 30 1 13 10 17 10 25 -2 7 -10 11 -11 17 -2 5 8 44 12 122 12 63 1 135 2 160 3 121 5 174 2 177 -9 4 -10 9 -10 24 0 16 10 22 9 30 -3 8 -11 12 -12 16 -2 7 19 23 14 23 -7 0 -34 -25 -48 -87 -50 -32 -1 -67 -1 -78 -1 -11 1 -28 1 -37 1 -24 -1 -37 -1 -143 -1 -49 0 -101 -1 -115 -1 -14 -1 -108 1 -210 4 -102 2 -190 1 -196 -4 -6 -5 -24 -9 -40 -10 -34 -2 -177 11 -183 17 -2 2 -11 -2 -19 -8 -23 -19 -171 -19 -204 0 -21 12 -31 13 -55 3 -16 -6 -45 -9 -67 -5 -27 4 -41 2 -47 -8 -7 -10 -13 -7 -28 12 l-20 25 -10 -28 c-9 -22 -15 -27 -31 -22 -11 3 -38 8 -60 10 -22 2 -44 6 -50 10 -5 3 -20 -1 -31 -9 -14 -9 -33 -13 -50 -9 -18 3 -36 0 -46 -8 -13 -11 -17 -11 -20 -1 -3 7 -21 12 -42 12 -40 0 -62 15 -54 36 3 8 0 14 -6 14 -6 0 -11 5 -11 10 0 6 58 10 155 10 97 0 155 4 155 10 0 6 11 10 25 10 14 0 25 -4 25 -10 0 -13 67 -13 75 0 4 7 14 2 26 -12 17 -19 22 -20 29 -8 6 8 10 18 10 23 0 11 30 9 30 -2 0 -14 213 -10 223 3 4 7 10 6 16 -3 8 -12 12 -13 26 -1 12 10 19 10 27 2 15 -15 55 -15 64 -1 4 8 9 8 17 0 15 -15 57 -14 57 1 0 6 9 3 21 -8 20 -18 22 -18 34 -1 15 20 85 24 85 5 0 -9 3 -10 8 -2 11 17 26 19 113 17 45 -1 87 -7 95 -13z m699 -11 c4 -12 2 -26 -4 -32 -8 -8 -11 -7 -11 2 0 8 -7 11 -20 8 -23 -6 -33 5 -24 27 9 24 51 20 59 -5z m-3485 -9 c0 -6 33 -10 80 -10 57 0 80 -4 80 -12 0 -8 3 -9 8 -3 4 6 34 11 67 13 33 1 62 7 63 12 5 13 39 13 47 0 3 -5 17 -10 30 -10 13 0 27 5 30 10 8 13 62 13 70 0 3 -6 14 -10 25 -10 22 0 33 -25 16 -39 -18 -15 -117 -35 -125 -25 -9 13 -69 15 -76 4 -10 -16 -37 -12 -50 7 -10 14 -16 15 -27 6 -16 -13 -58 -6 -58 9 0 6 -9 0 -20 -13 -18 -22 -21 -22 -30 -7 -10 15 -14 16 -61 2 -42 -13 -56 -13 -87 -2 -47 15 -55 16 -64 4 -9 -14 -168 -19 -168 -6 0 16 -14 12 -39 -11 -16 -15 -25 -18 -35 -10 -15 13 -146 13 -146 0 0 -5 -7 -9 -15 -9 -8 0 -15 4 -15 9 0 14 -368 12 -392 -2 -16 -10 -22 -9 -25 1 -4 10 -8 10 -18 2 -11 -9 -19 -7 -36 9 -25 23 -35 26 -44 11 -3 -6 -24 -10 -46 -10 -21 0 -48 -6 -59 -12 -16 -10 -24 -10 -40 0 -11 7 -20 8 -20 4 0 -9 -140 -8 -175 1 -11 3 -26 6 -32 6 -7 1 -13 12 -13 26 0 25 1 25 85 25 47 0 85 4 85 9 0 11 49 11 56 -1 3 -5 13 -3 22 4 12 10 16 10 19 1 6 -17 53 -17 53 0 0 8 3 8 8 2 9 -14 72 -18 72 -5 0 5 9 10 20 10 11 0 20 -4 20 -9 0 -5 13 -5 29 2 16 6 36 7 47 2 24 -11 74 -12 74 -2 0 13 168 8 174 -5 5 -10 7 -10 12 0 7 16 41 16 46 0 4 -10 13 -10 41 -1 20 6 37 8 37 3 0 -4 18 -8 40 -8 22 0 40 3 40 8 0 5 73 9 165 9 119 0 165 -3 165 -11 0 -9 3 -9 12 0 7 7 22 12 35 12 13 0 23 5 23 10 0 6 5 10 10 10 6 0 10 -4 10 -10z m590 1 c0 -5 9 -11 19 -14 14 -3 18 -1 14 9 -4 11 9 14 61 14 37 0 66 -4 66 -10 0 -15 40 -12 41 3 0 8 2 8 6 -2 5 -11 7 -11 14 0 8 12 11 11 19 -1 8 -12 13 -13 30 -2 12 7 20 8 20 2 0 -5 11 -10 25 -10 14 0 25 5 25 10 0 6 20 10 45 10 25 0 45 -4 45 -10 0 -14 47 -12 54 3 5 10 7 10 12 0 7 -15 94 -18 94 -3 0 5 25 9 55 8 30 -1 55 -5 55 -10 0 -4 -7 -8 -15 -8 -8 0 -15 -4 -15 -10 0 -6 10 -6 28 1 15 6 42 11 60 11 17 0 32 4 32 9 0 14 30 11 31 -3 0 -10 2 -10 6 0 6 16 21 15 39 -2 18 -19 18 -36 -1 -36 -8 0 -15 -4 -15 -10 0 -5 -16 -8 -35 -6 -20 1 -44 -4 -55 -11 -10 -7 -21 -9 -24 -5 -7 11 -168 13 -181 2 -15 -13 -46 -6 -60 13 -8 11 -15 13 -22 6 -5 -5 -43 -12 -84 -15 -96 -7 -98 -7 -139 0 -22 4 -37 1 -42 -7 -6 -9 -12 -9 -27 0 -15 9 -28 10 -46 3 -36 -14 -124 -10 -157 7 -30 14 -39 53 -13 53 8 0 15 5 15 10 0 6 5 10 10 10 6 0 10 -4 10 -9z m-2382 -36 c22 -28 32 -32 32 -11 0 11 16 15 74 14 41 0 78 2 83 5 4 2 17 1 28 -3 13 -5 26 -2 38 8 11 10 17 11 17 3 0 -8 11 -10 33 -6 29 6 36 3 51 -19 14 -22 15 -29 4 -40 -16 -16 -80 -19 -89 -4 -4 6 -13 7 -20 3 -25 -16 -125 -21 -143 -7 -22 18 -66 23 -66 9 0 -19 -110 -23 -122 -4 -6 9 -10 9 -17 -2 -6 -9 -24 -14 -46 -13 -21 1 -46 -3 -57 -9 -14 -8 -23 -7 -34 2 -23 19 -54 18 -54 0 0 -10 -3 -12 -8 -5 -4 6 -14 11 -22 12 -46 3 -58 3 -93 1 -20 0 -40 -5 -43 -10 -7 -12 -44 -11 -44 1 0 15 -48 12 -53 -2 -3 -10 -9 -10 -26 0 -18 10 -26 10 -37 1 -10 -8 -14 -8 -14 0 0 6 -9 11 -19 11 -11 0 -21 6 -24 13 -3 8 -9 6 -19 -7 -9 -12 -20 -16 -28 -11 -7 4 -16 2 -20 -6 -7 -10 -11 -10 -25 1 -12 10 -19 10 -27 2 -16 -16 -65 -15 -71 1 -4 9 -8 9 -14 1 -12 -17 -344 -18 -354 -2 -5 8 -11 9 -21 1 -7 -6 -49 -11 -92 -12 -52 -1 -83 -6 -88 -14 -6 -9 -10 -9 -17 2 -5 7 -13 11 -19 7 -6 -3 -13 -2 -17 4 -4 6 -13 7 -23 2 -23 -12 -273 -5 -286 8 -6 6 -15 5 -24 -3 -12 -9 -16 -9 -19 1 -5 14 -39 16 -48 2 -3 -6 -28 -10 -54 -10 -26 0 -52 -5 -58 -11 -8 -8 -17 -8 -33 1 -18 10 -24 9 -31 -1 -8 -12 -10 -12 -18 0 -7 11 -17 12 -48 4 -21 -5 -56 -8 -78 -6 -22 2 -87 5 -144 8 -102 4 -120 10 -121 41 0 6 15 15 33 19 47 12 230 13 245 2 7 -6 12 -6 12 0 0 5 20 10 44 10 34 1 46 -3 49 -16 4 -13 6 -11 12 6 6 18 12 22 31 17 39 -10 178 -11 197 -2 11 6 17 5 17 -2 0 -8 11 -9 30 -5 18 4 36 2 44 -4 10 -8 22 -8 47 2 30 12 71 16 248 21 24 1 55 -4 69 -11 14 -8 28 -10 31 -5 3 4 39 8 79 7 41 0 76 3 78 7 8 12 167 3 172 -10 3 -9 8 -10 17 -2 8 7 21 7 38 1 18 -7 27 -7 30 2 4 14 159 19 168 5 11 -16 48 -17 79 -1 24 12 34 12 45 3 11 -9 19 -9 28 -2 17 15 88 11 105 -5 17 -17 37 -16 51 0 11 14 63 16 91 4 18 -8 81 -4 96 5 6 4 56 7 113 6 66 -1 106 3 113 10 18 18 35 14 56 -13z m-3098 -24 c0 -12 39 -21 46 -10 6 11 44 12 44 1 0 -10 53 -9 61 1 7 9 36 10 159 7 41 -1 80 -1 85 1 6 1 26 -1 45 -5 20 -4 47 -3 62 3 21 8 31 7 43 -5 8 -9 15 -21 15 -27 0 -7 4 -6 10 3 5 8 10 11 10 6 0 -5 6 -3 14 3 17 14 29 0 20 -24 -9 -23 -45 -34 -68 -21 -14 8 -20 8 -23 -1 -6 -16 -69 -17 -78 -3 -5 8 -12 7 -22 -2 -19 -15 -126 -15 -131 1 -3 8 -9 8 -23 0 -15 -8 -24 -7 -35 2 -12 10 -17 10 -23 1 -10 -17 -111 -18 -121 -2 -5 9 -9 9 -14 1 -4 -6 -27 -11 -51 -11 -24 0 -47 -5 -50 -10 -4 -6 -13 -7 -23 -1 -22 11 -191 11 -198 -1 -7 -11 -54 -10 -54 1 0 5 -42 8 -93 7 -66 -1 -102 3 -121 14 -23 12 -29 12 -36 0 -13 -21 -50 -23 -51 -2 -1 13 -2 13 -5 2 -4 -12 -21 -15 -90 -13 -47 1 -92 4 -99 7 -8 3 -17 0 -21 -5 -3 -6 -15 -8 -26 -6 -11 3 -33 1 -50 -5 -23 -8 -36 -8 -50 1 -13 8 -23 9 -32 2 -15 -13 -68 -15 -121 -6 -45 7 -46 7 -95 1 -19 -2 -41 1 -47 6 -9 7 -13 7 -13 -1 0 -13 -56 -15 -64 -2 -5 8 -16 7 -82 -5 -18 -3 -34 -1 -38 5 -4 7 -15 7 -31 1 -16 -6 -27 -6 -31 1 -4 8 -9 7 -15 -2 -8 -12 -10 -12 -18 -1 -7 11 -12 11 -28 1 -13 -7 -28 -9 -39 -4 -11 5 -23 7 -27 6 -4 0 -17 8 -29 19 -21 20 -21 20 -2 35 23 17 31 18 39 5 8 -13 45 -13 45 0 0 6 14 10 30 10 24 0 30 -4 31 -22 l0 -23 11 23 c11 22 15 23 130 21 66 -1 122 1 125 5 12 12 52 6 68 -11 16 -16 18 -16 27 0 8 15 12 16 45 2 33 -14 38 -14 54 1 14 12 30 15 68 10 29 -3 52 -2 56 4 4 6 13 7 23 1 25 -13 131 -19 135 -8 2 6 12 5 26 -2 16 -9 26 -9 36 -1 9 8 17 7 28 -5 11 -10 18 -12 22 -4 5 7 11 7 17 1 7 -7 22 -3 44 10 24 14 38 17 47 10 9 -7 100 -8 144 -1 28 5 53 -3 53 -16 0 -22 17 -18 23 6 5 18 12 20 59 18 29 -1 59 -7 66 -12 10 -8 19 -7 32 1 13 8 21 8 25 1 5 -6 11 -7 18 0 11 9 47 15 105 19 12 1 22 -2 22 -7z m-2260 -30 c0 -6 25 -9 56 -9 38 1 58 -3 65 -13 6 -9 12 -10 17 -4 4 6 22 10 40 11 25 1 32 -2 28 -13 -4 -8 -6 -19 -6 -25 0 -5 -12 -7 -30 -3 -23 5 -30 3 -30 -9 0 -25 -15 -27 -83 -12 -36 7 -69 10 -74 6 -4 -5 -21 -10 -38 -12 -24 -2 -30 1 -35 22 -7 27 9 50 34 50 8 0 18 5 21 10 8 13 35 13 35 1z m372 -3 c10 -5 19 -4 23 2 8 13 65 13 65 1 0 -5 7 -16 15 -25 14 -13 13 -16 -6 -26 -11 -7 -31 -9 -44 -6 -13 3 -27 2 -30 -4 -8 -13 -116 -11 -132 2 -9 7 -18 6 -28 -2 -16 -13 -19 -8 -15 25 4 37 21 46 79 44 31 -1 64 -6 73 -11z m189 -10 c10 -13 18 -29 19 -37 0 -11 -4 -9 -14 5 -15 19 -15 19 -30 -1 -15 -20 -15 -20 -16 2 0 23 9 53 17 53 3 0 13 -10 24 -22z"></path>
      <path id="p19931tHaS" d="M13557 31319 c3 -24 7 -46 9 -48 9 -10 3 65 -5 78 -6 10 -8 -1 -4 -30z"></path>
      <path id="polV9m6zO"
        d="M13560 28843 c0 -5 5 -15 10 -23 8 -12 10 -11 10 8 0 12 -4 22 -10 22 -5 0 -10 -3 -10 -7z"></path>
      <path id="p1DRHo7KBw"
        d="M13562 28100 c0 -8 4 -26 8 -40 6 -20 8 -21 8 -5 0 11 -3 29 -8 40 -5 12 -8 14 -8 5z"></path>
      <path id="pyuc02Hm5" d="M72 24388 c-17 -17 -15 -38 3 -38 9 0 15 9 15 25 0 29 -1 30 -18 13z"></path>
      <path id="p1GHzQc9C"
        d="M13591 22378 c1 -7 5 -24 9 -38 7 -22 8 -21 9 13 1 20 -3 37 -9 37 -5 0 -10 -6 -9 -12z"></path>
      <path id="pvzPdFSFX" d="M13604 19185 c-9 -21 -2 -26 13 -10 8 9 9 16 3 20 -6 3 -13 -1 -16 -10z"></path>
      <path id="p1HgwFnmfU" d="M13632 13590 c0 -19 2 -27 5 -17 2 9 2 25 0 35 -3 9 -5 1 -5 -18z"></path>
    </g>
  </g>
</svg>