<svg class="img-fluid" id="outputsvg" xmlns="http://www.w3.org/2000/svg"
  style="transform: none; transform-origin: 50% 50% 0px; cursor: move; transition: none 0s ease 0s;"
  width="1568" height="1788" viewBox="0 0 15680 17880"
  preserveAspectRatio="none">
  <g id="l1wSzzfhuqL91Gj6lUamB5x" fill="rgb(0,0,0)" style="transform: none;">
    <g style="transform: none;">
      <path id="pE75Cp1Mi"
        d="M13997 17873 c-2 -1 -1378 -11 -2797 -18 -514 -3 -1207 -8 -1540 -11 -333 -4 -618 -5 -635 -3 -36 3 38 3 -890 -4 -412 -3 -1067 -8 -1455 -10 -980 -6 -2630 -17 -3405 -23 -1109 -9 -1702 -13 -2490 -16 -418 -2 -766 -7 -774 -12 -19 -12 -12 -3649 8 -3685 10 -18 10 -25 1 -31 -8 -5 -9 -170 -4 -661 3 -360 8 -836 9 -1059 5 -751 15 -1305 23 -1382 4 -43 4 -78 0 -78 -4 0 -8 -27 -8 -59 0 -45 4 -60 16 -65 14 -5 14 -9 3 -23 -15 -18 -16 -145 -5 -1558 3 -423 8 -1146 11 -1605 3 -459 10 -868 15 -909 7 -49 7 -78 0 -86 -6 -8 -8 -137 -5 -361 2 -192 7 -646 10 -1009 4 -363 11 -680 15 -705 5 -25 5 -46 1 -48 -10 -3 -3 -688 7 -777 4 -33 4 -91 -1 -130 -4 -38 -5 -122 -2 -185 3 -63 7 -374 10 -690 12 -1522 18 -1998 26 -2038 6 -26 5 -75 -1 -130 -5 -48 -10 -113 -10 -144 0 -31 -5 -79 -12 -106 -8 -39 -8 -62 1 -104 7 -29 15 -75 18 -101 l5 -48 581 2 c375 1 586 5 595 11 8 7 12 7 12 -1 0 -9 75 -11 313 -6 171 3 940 8 1707 11 767 3 1550 7 1740 9 190 2 392 3 450 2 184 -3 426 -2 1200 6 748 8 1826 15 3400 22 448 3 1047 7 1330 10 283 3 531 5 550 4 19 -2 55 -3 80 -3 25 1 358 4 740 7 382 3 1159 8 1725 11 567 2 1049 7 1073 11 l43 8 -5 1656 c-3 911 -5 1694 -5 1741 0 47 -5 99 -10 117 -7 23 -6 33 2 36 9 3 11 65 10 228 -1 123 -2 283 -2 354 0 72 -3 169 -7 218 -6 79 -8 87 -28 88 -18 1 -18 2 4 8 l25 7 -1 244 c-1 135 -1 288 -1 340 1 117 1 178 0 300 -1 52 -1 120 -1 150 1 188 -10 639 -16 648 -4 7 -2 12 4 12 14 0 3 523 -11 528 -12 5 -12 32 1 32 13 0 13 77 0 85 -8 5 -7 11 0 21 13 15 4 197 -11 226 -6 11 -5 18 4 21 8 2 12 27 11 78 0 41 0 133 -1 204 0 72 -1 202 -2 290 -4 230 -9 820 -7 885 2 96 1 204 -8 1100 -5 481 -8 933 -6 1003 1 83 -2 132 -9 141 -8 10 -8 21 0 42 16 43 4 861 -13 882 -10 12 -10 16 -1 19 10 4 13 98 13 405 0 221 -4 406 -8 412 -5 6 -4 65 1 130 9 107 8 120 -7 132 -13 9 -14 13 -4 16 14 5 14 124 3 1048 -3 245 -5 569 -5 722 1 257 0 277 -17 287 -13 8 -15 13 -6 19 17 11 22 309 6 384 -10 48 -9 65 4 103 12 38 13 61 5 133 -6 48 -8 150 -5 226 6 126 4 140 -12 152 -17 12 -17 14 0 31 16 15 17 29 11 123 -4 58 -7 112 -6 120 1 8 1 251 0 540 -2 461 -4 607 -10 645 -1 6 1 73 4 150 8 171 0 251 -26 277 -19 19 -42 19 -779 16 -419 -2 -761 -4 -762 -5z m1013 -108 c14 3 113 6 220 7 l195 3 7 -360 c3 -198 7 -576 7 -839 1 -342 5 -483 13 -493 8 -10 8 -45 0 -136 -14 -152 -7 -543 9 -574 10 -18 10 -28 0 -46 -9 -17 -10 -69 -6 -197 3 -96 6 -188 7 -205 0 -16 -3 -132 -7 -256 -5 -125 -5 -235 0 -245 4 -11 6 -59 5 -109 -1 -49 -1 -173 0 -275 7 -923 11 -1213 19 -1385 5 -110 6 -204 2 -210 -8 -11 -7 -324 3 -1378 5 -565 9 -753 19 -768 10 -16 9 -21 -1 -28 -11 -7 -13 -95 -8 -487 3 -263 7 -623 8 -799 3 -259 6 -324 18 -342 12 -19 12 -25 0 -49 -12 -22 -15 -80 -14 -308 3 -932 9 -1110 37 -1128 9 -6 8 -12 -5 -22 -17 -12 -17 -50 -12 -592 10 -1003 10 -1069 14 -1079 2 -5 0 -17 -4 -25 -3 -9 -3 -66 2 -127 5 -66 5 -140 -1 -183 -5 -44 -5 -81 0 -94 5 -12 6 -71 2 -141 -5 -66 -6 -128 -3 -138 3 -10 7 -318 9 -685 2 -367 6 -869 9 -1117 4 -247 7 -579 7 -737 1 -159 5 -288 10 -288 13 0 11 -68 -2 -76 -24 -14 6 -385 34 -421 6 -8 2 -24 -12 -46 -18 -30 -21 -49 -20 -170 l1 -137 26 -1 c25 -2 25 -2 4 -6 -21 -4 -23 -9 -21 -52 1 -26 0 -52 -4 -58 -4 -6 -5 -180 -3 -387 2 -207 0 -378 -4 -381 -7 -4 -1034 -12 -2720 -20 -553 -3 -1351 -8 -1775 -10 -423 -3 -1238 -8 -1810 -11 -572 -2 -1310 -7 -1640 -10 -330 -2 -616 -4 -635 -2 -49 3 -18 3 -1160 -5 -569 -4 -1359 -9 -1755 -11 -396 -2 -1017 -7 -1380 -10 -363 -4 -700 -5 -750 -4 -49 1 -108 2 -130 1 -22 0 -382 -3 -800 -6 l-760 -7 0 73 c-1 39 -6 106 -13 147 -8 46 -12 149 -11 265 1 105 1 255 -1 335 -1 80 -4 418 -6 750 -2 333 -3 612 -4 620 0 8 2 69 5 136 2 67 1 150 -3 185 -4 35 -4 100 0 144 10 106 2 155 -23 155 -19 0 -19 1 1 23 20 20 21 29 15 101 -5 55 -4 85 5 101 9 17 10 43 3 98 -5 40 -8 207 -7 370 1 163 -1 297 -5 297 -3 0 -5 210 -4 467 2 347 -1 484 -11 530 -10 49 -10 63 0 67 9 3 11 85 9 348 -1 189 -4 567 -7 841 -2 355 -7 500 -15 505 -8 5 -7 18 2 47 11 31 13 100 9 324 -3 158 -6 603 -8 989 -2 594 -5 705 -17 713 -10 6 -11 9 -1 9 10 0 12 126 8 673 -7 1011 -14 1601 -20 1807 -3 102 -6 192 -5 200 2 37 -2 1486 -5 1955 -2 286 -7 864 -10 1285 -3 421 -9 1028 -12 1350 -3 322 -7 788 -8 1035 -3 465 -8 555 -32 555 -21 0 -17 17 6 23 13 3 20 14 20 30 0 20 6 26 33 30 17 3 212 6 432 6 220 1 618 4 885 8 267 3 503 4 525 3 22 -2 67 -4 100 -4 161 -1 3204 16 3575 19 472 4 2066 14 3175 19 396 2 1157 7 1690 10 1167 7 2661 16 3594 21 376 2 685 6 687 8 2 1 43 -1 91 -5 48 -4 99 -6 113 -3z"></path>
    </g>
  </g>
  <g id="l6L9dTx9Cps4yIffQCYY7Tv" fill="rgb(255,255,255)" style="transform: none;">
    <g style="transform: none;">
      <path id="pIOnULEcn"
        d="M0 8940 l0 -8940 7840 0 7840 0 0 8940 0 8940 -7840 0 -7840 0 0 -8940z m14435 8898 c108 4 163 5 210 3 17 -1 213 1 437 3 318 3 410 1 424 -9 28 -20 38 -170 12 -186 -9 -6 -8 -11 3 -25 15 -19 14 -140 -2 -160 -6 -8 -5 -26 4 -50 7 -23 10 -53 6 -72 -4 -18 -3 -35 2 -38 16 -9 10 -44 -8 -44 -15 0 -15 -1 0 -18 13 -14 14 -21 5 -30 -8 -8 -8 -15 1 -26 9 -11 9 -15 -1 -18 -9 -3 -9 -10 0 -34 15 -34 13 -95 -3 -106 -7 -6 -7 -10 1 -15 15 -11 13 -52 -3 -46 -7 3 -13 0 -13 -6 0 -7 7 -14 15 -17 10 -4 15 -19 14 -48 0 -29 -3 -35 -8 -22 -6 15 -9 17 -16 6 -5 -8 -1 -18 11 -27 15 -11 16 -17 6 -33 -7 -11 -8 -21 -2 -25 8 -5 11 -38 11 -115 0 -14 0 -48 0 -76 0 -57 -30 -109 -51 -88 -15 15 -19 105 -6 123 8 10 8 15 -1 18 -18 6 -16 33 2 33 17 0 20 25 5 35 -6 4 -8 11 -5 16 4 5 3 15 -2 22 -4 6 -8 40 -10 74 -2 48 1 62 14 67 14 6 14 8 0 24 -11 13 -15 39 -14 108 1 82 3 91 19 86 25 -6 22 15 -3 23 -14 5 -19 13 -16 26 3 10 1 22 -5 25 -6 4 -6 9 2 14 8 5 9 13 4 21 -12 19 -16 177 -4 184 5 3 5 17 -1 35 -6 16 -9 97 -7 189 4 180 8 170 -72 170 -212 -1 -398 -7 -407 -12 -7 -4 -14 -3 -17 1 -3 5 -115 7 -248 6 -134 -2 -292 -4 -353 -4 -60 0 -119 0 -130 -1 -23 -1 -224 -1 -302 1 -36 0 -53 5 -53 14 0 21 11 26 31 13 15 -9 21 -9 27 0 10 16 70 19 247 13 83 -3 195 -4 250 -2z m-1600 -9 c81 0 137 -4 140 -10 5 -7 11 -6 21 2 22 18 544 21 569 3 10 -8 15 -17 11 -21 -6 -6 -299 -11 -836 -13 -63 0 -158 0 -210 -1 -86 0 -113 0 -152 0 -7 1 -164 -1 -348 -3 -203 -3 -340 0 -347 5 -7 6 -13 6 -17 1 -3 -6 -210 -10 -503 -11 -274 0 -727 -3 -1008 -5 -280 -3 -527 -2 -547 1 -31 4 -35 8 -27 22 9 13 26 16 96 14 47 -2 91 -7 98 -13 9 -8 14 -8 17 0 3 9 175 13 618 17 338 3 678 5 755 4 77 -1 158 -1 180 0 61 2 716 3 750 1 62 -4 577 7 582 12 3 3 10 3 15 0 5 -3 69 -6 143 -5z m823 2 c20 -6 32 -6 32 0 0 5 9 4 20 -3 16 -10 22 -10 28 -1 9 15 119 16 128 1 13 -20 -16 -29 -92 -30 -88 0 -164 3 -164 8 0 4 12 34 14 34 0 0 16 -4 34 -9z m-4513 -22 c274 5 345 2 345 -19 0 -18 -100 -26 -270 -20 -30 1 -73 1 -95 1 -22 0 -67 0 -100 0 -68 1 -84 1 -140 -2 -22 -1 -58 -1 -80 0 -22 1 -125 1 -228 -1 -107 -2 -192 1 -197 6 -6 6 -15 4 -24 -3 -11 -9 -32 -10 -83 -3 -37 5 -72 7 -78 3 -9 -5 -258 -8 -1000 -12 -154 -1 -354 -1 -445 0 -91 0 -211 -1 -267 -4 -63 -3 -104 -1 -108 5 -4 6 -12 7 -18 3 -14 -9 10 -9 -912 -16 -1129 -10 -1572 -10 -1585 -2 -9 5 -9 10 0 19 12 12 88 13 1400 21 454 3 848 6 876 7 28 0 56 -2 62 -6 6 -3 40 -2 76 3 37 5 91 6 124 1 31 -4 89 -6 127 -3 161 10 560 11 572 1 8 -6 23 -7 40 -2 23 7 132 10 203 5 8 0 83 2 165 5 83 3 193 5 245 5 52 -1 112 -1 134 -1 21 0 44 -4 51 -10 10 -8 16 -7 23 6 8 14 15 15 39 7 17 -6 49 -7 78 -3 28 4 55 5 60 0 6 -4 44 -5 85 -4 41 2 214 5 383 7 169 3 311 7 315 11 4 4 23 4 42 -1 19 -4 103 -6 185 -4z m394 -12 c12 -15 5 -27 -16 -27 -7 0 -13 9 -13 20 0 23 13 26 29 7z m-6024 -28 c164 5 305 5 311 -2 4 -4 2 -13 -4 -19 -8 -8 -54 -11 -144 -9 -73 1 -140 2 -148 2 -8 0 -138 -2 -287 -4 -266 -4 -273 -4 -273 15 0 16 5 19 28 14 15 -3 54 -2 87 2 33 4 132 6 220 3 88 -2 183 -3 210 -2z m-1587 -8 c34 0 62 -6 62 -11 0 -6 -12 -11 -27 -11 -16 0 -97 -2 -181 -4 -85 -2 -156 -5 -158 -7 -8 -9 -109 3 -118 13 -8 9 -3 10 20 6 17 -3 35 -2 40 3 15 14 113 17 362 11z m302 -3 c14 0 30 -4 36 -9 8 -6 14 -5 17 5 6 15 47 11 47 -5 0 -10 -10 -11 -115 -15 -163 -7 -198 -6 -206 8 -12 19 32 27 121 21 41 -4 86 -6 100 -5z m367 -2 c3 -3 3 -8 0 -13 -6 -10 -202 -16 -231 -7 -19 6 -19 7 0 21 15 11 42 13 123 9 57 -3 106 -8 108 -10z m339 1 c17 -17 -22 -25 -105 -21 -47 2 -116 4 -153 5 -38 1 -68 3 -68 6 0 19 307 29 326 10z m-2701 -8 c72 0 182 2 245 4 63 2 141 1 173 -3 32 -3 60 -3 63 1 2 4 149 6 327 4 177 -2 343 -4 370 -4 26 0 47 -5 47 -10 0 -13 1 -13 -70 -12 -30 0 -62 0 -70 0 -387 -4 -983 -9 -1065 -9 -138 -1 -215 -16 -215 -42 0 -19 -15 -25 -24 -9 -8 12 21 78 36 85 7 2 22 2 33 -1 11 -3 79 -5 150 -4z m-157 -81 c-2 -6 -10 -14 -16 -16 -7 -2 -10 2 -6 12 7 18 28 22 22 4z m-38 -88 c0 -5 7 -10 15 -10 18 0 18 -1 5 -34 -12 -33 -24 -33 -38 -1 -16 35 -15 55 3 55 8 0 15 -4 15 -10z m42 -117 c7 -38 1 -380 -6 -392 -4 -5 -3 -12 2 -15 4 -2 9 -32 10 -65 1 -54 -1 -62 -23 -77 -13 -9 -29 -13 -35 -9 -13 8 -13 132 0 140 7 4 7 13 -1 26 -5 11 -10 54 -10 97 1 42 1 111 0 152 0 104 0 102 4 128 7 45 52 56 59 15z m-11 -630 c9 -10 14 -45 15 -97 1 -70 -1 -83 -19 -97 l-20 -16 21 -24 c16 -16 22 -36 22 -66 l0 -44 -22 21 c-16 15 -24 17 -30 8 -4 -8 -9 13 -10 47 -5 142 -6 242 -2 263 5 26 26 29 45 5z m15463 -339 c4 -11 2 -15 -8 -11 -10 4 -12 0 -8 -16 3 -12 9 -24 13 -27 16 -11 18 -129 4 -164 -8 -18 -12 -36 -9 -39 3 -3 8 -23 10 -44 12 -99 13 -137 4 -152 -9 -15 -9 -14 -10 1 0 9 -5 20 -12 24 -8 5 -9 -5 -5 -35 4 -30 2 -41 -6 -38 -7 2 -12 25 -12 54 0 29 -6 57 -14 67 -12 14 -13 26 -4 57 6 22 6 42 2 45 -5 3 -9 14 -9 26 0 15 5 19 20 15 24 -6 25 -3 4 29 -20 30 -28 98 -15 123 7 12 7 21 0 28 -14 14 0 61 19 66 29 8 30 7 36 -9z m-15466 -23 c25 -21 28 -41 10 -59 -7 -7 -8 -12 -2 -12 6 0 11 -33 11 -80 1 -75 -1 -80 -18 -75 -26 8 -24 -1 6 -33 17 -18 23 -33 18 -47 -3 -11 -7 -31 -9 -45 -1 -13 -9 -29 -18 -35 -12 -10 -12 -13 5 -24 18 -10 20 -22 19 -94 0 -45 2 -158 5 -251 2 -92 2 -172 -1 -178 -3 -5 -12 -4 -20 3 -19 16 -18 6 6 -36 22 -39 26 -65 10 -65 -6 0 -5 -10 2 -26 9 -20 9 -27 -1 -33 -7 -5 -9 -11 -4 -14 5 -3 10 -39 10 -79 l2 -73 -29 -2 c-18 -1 -30 3 -31 10 -8 84 -5 177 7 206 10 25 11 37 3 47 -6 7 -8 23 -4 35 5 14 4 19 -4 15 -7 -5 -11 5 -11 28 0 25 4 36 15 36 8 0 15 7 15 15 0 8 -5 14 -12 12 -7 -1 -15 12 -18 28 -8 39 0 138 12 146 5 3 5 15 0 30 -8 20 -14 94 -13 149 2 89 0 264 -3 267 -2 2 0 20 4 39 5 20 5 48 0 64 -5 16 -5 44 0 63 4 19 3 42 -2 51 -9 16 -3 36 11 36 4 0 18 -8 29 -19z m15435 -516 c-4 -11 1 -14 18 -13 22 3 24 -1 25 -45 1 -33 -4 -51 -13 -54 -11 -4 -10 -8 3 -18 15 -11 16 -16 5 -43 -7 -17 -10 -40 -6 -51 3 -12 -1 -31 -11 -46 -15 -22 -15 -25 -1 -25 16 0 24 -27 29 -100 3 -49 -11 -100 -28 -100 -11 0 -12 -4 -4 -19 7 -13 7 -28 0 -45 -7 -21 -6 -26 5 -26 8 0 15 -4 15 -10 0 -5 -9 -10 -20 -10 -15 0 -20 7 -20 24 0 14 -4 27 -9 30 -4 3 -7 36 -6 73 1 38 -2 73 -7 80 -6 7 -5 20 2 34 7 11 10 34 8 51 -3 16 -1 31 3 34 4 2 4 17 0 32 -4 15 -6 32 -4 39 2 6 -1 14 -6 17 -7 5 -7 15 0 33 7 19 6 28 -2 34 -7 4 -8 12 -3 20 4 7 8 33 9 58 3 68 4 73 15 66 5 -3 7 -12 3 -20z m46 -665 c5 -16 6 -30 1 -30 -5 0 -5 -14 1 -32 13 -46 1 -96 -28 -115 -13 -9 -26 -13 -29 -10 -9 9 -11 127 -2 133 4 3 3 14 -3 25 -8 16 -7 25 7 40 24 27 40 24 53 -11z m-15452 -132 c1 -23 -3 -49 -10 -57 -9 -11 -9 -15 1 -18 6 -3 10 -8 7 -13 -3 -5 -1 -19 4 -32 11 -29 -2 -63 -30 -78 -28 -15 -42 3 -33 44 8 37 7 100 -1 126 -5 15 -2 20 11 20 14 0 15 3 6 12 -18 18 -15 26 11 31 12 2 24 5 27 6 3 0 7 -18 7 -41z m15453 -103 c0 -33 -4 -45 -15 -45 -7 0 -18 -8 -24 -17 -13 -24 -23 -12 -24 31 -1 36 25 76 50 76 9 0 13 -14 13 -45z m-26 -109 c-3 -8 2 -16 12 -18 14 -2 18 -15 19 -60 2 -42 -1 -58 -11 -58 -10 0 -10 -5 2 -27 7 -16 14 -43 14 -60 0 -38 -20 -44 -58 -17 -18 12 -20 19 -12 35 6 10 8 19 4 19 -3 0 -1 6 5 14 7 9 8 17 2 20 -15 10 -11 76 5 76 17 0 17 1 4 36 -7 19 -7 30 1 40 15 18 20 18 13 0z m-15429 -15 c3 -5 7 -129 9 -276 2 -217 0 -268 -10 -272 -17 -6 -18 -30 -3 -35 8 -3 12 -62 14 -191 2 -166 0 -187 -14 -188 -13 -1 -13 -2 2 -6 21 -6 22 -17 2 -33 -9 -8 -12 -16 -6 -19 5 -3 14 -30 19 -59 8 -43 7 -56 -6 -68 -11 -11 -12 -18 -3 -27 14 -14 15 -104 1 -112 -7 -4 -7 -11 -2 -18 17 -22 20 -91 6 -105 -16 -15 -19 -66 -4 -57 6 4 10 -5 10 -19 0 -14 -5 -26 -11 -26 -5 0 -7 5 -4 10 3 6 1 10 -5 10 -12 0 -4 -41 10 -50 4 -3 10 -22 14 -42 5 -30 3 -41 -14 -58 -15 -15 -17 -20 -5 -20 8 0 16 -6 16 -12 5 -49 4 -200 -1 -209 -11 -17 -63 8 -56 27 3 9 3 20 0 26 -10 16 -12 78 -3 83 4 3 5 22 2 43 -3 20 -4 44 -4 52 1 8 3 53 4 100 1 47 6 91 11 99 5 8 4 16 -4 21 -15 9 -24 397 -9 406 5 3 5 14 -2 25 -7 15 -7 24 2 35 8 10 8 14 0 14 -6 0 -11 11 -11 25 0 14 4 25 9 25 15 0 18 57 5 82 -7 13 -13 63 -13 117 l-1 93 28 -5 27 -5 -27 22 c-27 21 -28 26 -28 109 0 63 3 87 13 87 9 0 9 2 1 8 -15 9 -26 110 -13 118 5 3 7 9 4 14 -8 12 -16 231 -9 252 6 19 48 25 59 9z m15456 -283 c1 -18 3 -58 4 -88 3 -40 -1 -60 -12 -72 -9 -10 -11 -18 -5 -18 6 0 10 -19 8 -50 -1 -27 2 -50 6 -50 4 0 8 -7 8 -15 0 -8 -8 -15 -17 -15 -12 0 -14 -3 -7 -8 16 -10 33 -77 24 -92 -5 -7 -6 -34 -4 -59 3 -25 4 -53 4 -61 0 -8 0 -27 0 -42 0 -15 -5 -30 -10 -33 -8 -5 -7 -12 1 -22 7 -8 12 -29 11 -46 -3 -32 -9 -72 -12 -72 -1 0 -3 -8 -5 -17 -2 -11 3 -18 12 -18 13 0 13 -3 2 -16 -9 -11 -9 -18 -2 -22 12 -7 11 -112 -1 -150 -5 -14 -3 -22 4 -22 7 0 10 -14 8 -37 -2 -31 -7 -39 -25 -41 -29 -4 -30 -32 -2 -32 19 0 21 -4 16 -30 -4 -17 -2 -30 4 -30 6 0 9 -51 7 -138 -1 -76 2 -144 6 -151 5 -7 3 -24 -5 -37 -9 -18 -10 -32 -2 -59 7 -23 8 -37 1 -41 -5 -4 -7 -33 -5 -70 4 -40 2 -64 -5 -66 -6 -2 -12 -21 -12 -41 -1 -28 2 -36 13 -34 21 3 25 -52 5 -60 -9 -3 -11 -9 -5 -17 18 -22 15 -31 -15 -37 -28 -6 -28 -7 -3 -8 21 -1 27 -6 27 -26 0 -27 -25 -34 -46 -13 -17 17 -15 58 3 58 8 0 15 5 15 10 0 6 -6 10 -13 10 -17 0 -17 -1 -21 153 -3 109 -1 129 13 137 13 8 14 9 1 10 -11 0 -12 2 -2 8 10 7 8 14 -7 31 -15 18 -18 28 -11 41 6 10 8 25 5 32 -9 24 -11 159 -3 164 5 3 5 10 1 16 -10 17 -10 161 0 175 5 7 7 22 4 33 -3 11 0 20 5 20 7 0 7 4 0 13 -5 6 -6 21 -2 31 3 11 1 32 -7 47 -16 32 -11 138 8 149 9 6 8 12 -5 25 -9 10 -15 24 -12 32 3 8 6 19 6 25 0 7 5 6 14 -1 8 -7 17 -8 20 -3 3 6 -5 17 -19 26 -23 15 -24 20 -24 123 0 60 -1 117 -1 128 -1 11 7 26 17 33 15 10 15 14 4 21 -8 5 -12 18 -8 30 3 12 1 21 -4 21 -4 0 -6 32 -3 71 3 45 1 75 -6 84 -8 9 -8 15 0 20 7 4 7 12 0 25 -12 22 0 33 24 24 12 -5 15 -2 10 10 -3 9 -10 13 -15 10 -18 -11 -28 6 -19 31 6 15 6 27 0 30 -11 7 -8 54 4 73 4 7 18 12 32 12 20 0 24 -5 25 -32z m-15435 -1668 c1 -25 0 -57 -3 -73 l-5 -28 -19 25 c-10 13 -16 31 -13 40 4 10 1 16 -9 16 -22 0 -28 25 -10 49 9 14 23 21 36 19 17 -2 21 -11 23 -48z m-39 -85 c8 -22 -6 -33 -17 -15 -13 20 -12 30 0 30 6 0 13 -7 17 -15z m35 -57 c2 -7 4 -51 3 -98 0 -84 0 -85 -25 -85 -24 0 -25 3 -25 58 0 31 -3 57 -8 57 -4 0 -3 9 3 19 7 14 7 22 0 26 -8 5 -7 11 1 21 14 17 45 18 51 2z m15439 -191 c-11 -11 -41 -3 -41 11 0 5 12 7 26 4 17 -3 22 -8 15 -15z m-15431 -46 c0 -15 -5 -32 -12 -39 -9 -9 -9 -12 0 -12 16 0 16 -47 0 -52 -10 -4 -10 -11 0 -33 14 -31 15 -176 0 -214 -5 -13 -5 -28 0 -35 19 -23 22 -63 7 -76 -12 -10 -13 -16 -4 -26 12 -15 19 -258 8 -275 -3 -5 -17 1 -32 14 -20 17 -27 32 -27 60 0 21 5 37 11 37 8 0 8 4 2 13 -17 21 -22 56 -12 89 5 20 5 36 -2 44 -5 7 -6 15 -2 17 5 3 8 25 6 49 -9 164 -9 229 -2 234 7 4 5 73 -5 142 -2 9 4 22 13 29 11 8 12 12 4 13 -7 0 -13 11 -13 24 0 26 14 36 43 28 11 -3 17 -14 17 -31z m15442 2 c21 -19 25 -83 6 -83 -9 0 -8 -4 2 -10 13 -9 13 -10 0 -10 -38 1 -67 51 -56 96 7 28 22 31 48 7z m-4 -120 c20 -20 30 -193 11 -193 -8 0 -7 -5 1 -15 10 -12 10 -22 2 -39 -7 -17 -7 -27 1 -35 8 -8 7 -11 -5 -11 -15 0 -15 -3 -4 -24 16 -32 13 -145 -5 -156 -11 -7 -10 -10 4 -16 20 -7 23 -34 5 -34 -9 0 -9 -3 -2 -8 17 -11 18 -108 1 -115 -14 -5 -12 -62 3 -82 11 -14 10 -105 -1 -105 -5 0 -9 -5 -9 -11 0 -5 5 -7 11 -3 6 4 9 -1 8 -12 -2 -11 0 -24 4 -31 4 -6 0 -19 -10 -28 -9 -9 -12 -20 -7 -23 5 -4 10 -24 11 -44 2 -37 1 -38 -33 -38 -29 0 -34 3 -34 23 0 13 3 27 7 31 11 10 12 36 2 36 -5 0 -9 5 -9 10 0 6 7 10 15 10 19 0 20 26 1 33 -12 5 -14 25 -12 94 2 48 5 93 6 98 2 6 -1 27 -8 49 -9 31 -8 46 3 73 8 18 10 31 5 28 -14 -8 -21 28 -11 60 4 17 7 45 5 63 -2 19 3 43 12 56 9 15 11 25 5 28 -6 1 -15 18 -20 36 -9 30 -8 32 17 33 27 0 27 0 4 10 -23 9 -24 13 -19 84 3 41 1 78 -4 80 -4 3 0 20 11 37 13 22 16 34 8 39 -6 4 -7 12 -4 18 10 15 14 14 34 -6z m-15462 -661 c18 -11 22 -36 8 -49 -22 -22 -34 -14 -34 22 0 35 6 41 26 27z m-12 -94 c-6 -10 -4 -10 8 0 13 10 17 10 22 -4 10 -27 7 -54 -9 -60 -19 -8 -19 -19 1 -38 25 -26 19 -209 -8 -244 -7 -8 -4 -28 11 -63 17 -40 20 -54 10 -65 -7 -9 -8 -14 -1 -14 6 0 9 -12 7 -27 -2 -16 -4 -39 -4 -52 -1 -16 -5 -21 -16 -17 -10 4 -15 -1 -15 -14 0 -23 10 -26 28 -8 7 7 12 9 12 4 0 -15 -41 -96 -49 -96 -9 0 -7 43 3 59 4 5 2 12 -4 16 -5 3 -10 31 -10 61 0 41 4 54 15 54 8 0 15 4 15 9 0 5 -8 8 -17 7 -12 0 -17 5 -14 14 2 8 4 48 4 88 0 45 4 72 11 72 6 0 4 4 -4 10 -11 7 -14 37 -13 155 2 133 5 165 19 165 3 0 2 -6 -2 -12z m15486 -293 c14 -16 5 -35 -16 -35 -12 0 -12 -3 -2 -20 7 -11 17 -19 23 -16 5 2 10 -11 9 -28 -1 -20 -7 -32 -17 -34 -10 -2 -17 1 -17 6 0 5 -9 12 -20 15 -16 4 -19 11 -15 29 4 13 7 32 9 41 1 9 5 20 9 23 12 12 8 26 -5 18 -7 -4 -8 -3 -4 4 10 16 31 15 46 -3z m15 -233 c1 -77 -5 -97 -20 -72 -4 6 -15 8 -26 5 -15 -5 -19 -1 -20 17 0 13 -2 35 -4 50 -2 15 0 30 5 33 5 3 7 12 4 20 -6 14 30 37 50 31 5 -1 10 -39 11 -84z m4 -187 c0 -77 -17 -125 -45 -125 -22 0 -24 8 -25 93 0 19 24 47 40 47 14 0 14 10 1 30 -8 12 -12 12 -18 2 -7 -10 -12 -9 -23 4 -12 16 -12 17 4 11 9 -3 17 -2 17 2 0 5 11 4 24 -2 22 -10 25 -19 25 -62z m-15489 -35 c0 -5 7 -10 15 -10 18 0 18 -1 2 -32 -7 -14 -18 -23 -25 -20 -16 5 -16 29 1 36 10 5 10 7 0 12 -15 7 -17 24 -3 24 6 0 10 -4 10 -10z m29 -102 c-2 -13 0 -29 4 -35 10 -15 -12 -93 -26 -93 -5 0 -7 7 -4 14 4 9 -2 17 -14 21 -13 4 -19 15 -19 36 0 16 5 29 10 29 6 0 10 5 10 10 0 13 22 39 33 40 5 0 7 -10 6 -22z m15441 -35 c15 -13 20 -30 20 -69 0 -33 -5 -54 -12 -57 -10 -3 -10 -7 -1 -17 7 -8 8 -22 3 -41 -5 -16 -6 -29 -3 -29 3 0 -2 -10 -13 -22 -16 -18 -16 -20 -2 -15 11 4 18 -1 22 -16 10 -36 7 -69 -5 -62 -6 4 -5 -3 3 -14 11 -18 11 -23 -1 -30 -9 -6 -10 -11 -2 -15 12 -8 15 -54 5 -79 -4 -12 -11 -13 -35 -4 -30 12 -38 38 -20 67 6 8 7 18 4 24 -13 20 -13 108 -1 123 9 11 9 16 -1 23 -10 5 -12 30 -10 89 2 44 1 81 -2 81 -9 0 2 53 14 68 12 15 13 15 37 -5z m-15435 -154 c-13 -58 -14 -84 -3 -116 9 -25 8 -40 -4 -72 -9 -22 -12 -41 -7 -43 5 -2 10 -30 11 -63 3 -58 2 -59 -24 -61 -27 -3 -28 -2 -27 49 1 29 -1 79 -5 111 -4 38 -2 64 5 73 9 10 8 17 -1 28 -6 8 -8 19 -4 26 4 7 7 26 6 43 -1 36 13 56 40 56 17 0 19 -5 13 -31z m15436 -349 c22 -12 27 -70 7 -70 -10 0 -10 -2 0 -8 7 -5 13 -22 13 -38 0 -16 0 -94 0 -174 0 -80 0 -158 0 -175 3 -89 -1 -115 -18 -115 -15 0 -14 -2 2 -20 9 -10 15 -26 12 -34 -4 -9 -2 -18 3 -21 13 -8 13 -75 0 -75 -5 0 -10 -7 -10 -15 0 -8 4 -15 9 -15 5 0 5 -16 1 -37 -5 -20 -6 -42 -2 -47 4 -6 7 -41 7 -77 0 -64 -1 -66 -20 -53 -24 17 -38 18 -29 2 5 -9 4 -10 -4 -3 -10 9 -15 63 -13 125 1 16 11 32 29 42 21 14 23 18 8 18 -11 0 -16 5 -13 14 3 8 -2 16 -11 18 -14 4 -17 17 -15 84 2 111 4 117 29 137 26 20 22 47 -5 40 -20 -5 -34 26 -21 47 5 7 3 24 -3 37 -7 16 -7 30 1 47 6 13 8 26 5 29 -12 13 -11 86 2 91 13 5 10 46 -4 46 -3 0 -7 23 -7 50 -1 46 1 50 23 50 22 0 23 1 8 24 -12 17 -13 26 -5 31 8 5 4 15 -11 31 -20 21 -20 24 -5 24 9 0 26 -5 37 -10z m-15441 -33 c0 -7 -6 -19 -12 -25 -10 -10 -10 -17 0 -32 10 -16 10 -20 0 -20 -8 -1 -6 -6 5 -14 25 -19 14 -116 -13 -116 -21 0 -34 28 -21 44 6 7 4 18 -5 30 -12 17 -12 22 3 38 10 12 13 22 8 26 -16 11 -16 29 0 42 8 7 15 19 15 26 0 8 5 14 10 14 6 0 10 -6 10 -13z m6 -256 c3 -14 7 -31 9 -38 2 -7 -2 -25 -10 -40 -10 -19 -11 -31 -3 -40 8 -10 6 -13 -6 -13 -9 0 -16 -7 -16 -15 0 -8 7 -15 15 -15 14 0 21 -25 16 -60 -1 -8 -2 -19 -1 -25 7 -126 7 -137 -7 -142 -8 -3 -19 0 -23 8 -5 7 -12 10 -15 7 -4 -4 5 -22 19 -41 39 -51 33 -82 -12 -71 -20 6 -21 10 -18 180 2 96 6 177 9 180 4 4 2 16 -4 26 -11 21 -14 111 -5 127 11 17 46 -1 52 -28z m6 -548 c7 -52 0 -65 -31 -61 -21 2 -26 8 -27 33 -2 48 7 65 31 65 19 0 24 -7 27 -37z m5 -259 c1 -143 -2 -174 -13 -174 -8 0 -14 5 -14 10 0 6 -7 10 -16 8 -15 -3 -17 10 -19 96 -1 65 2 102 10 110 10 8 9 16 -4 35 -13 20 -13 25 -2 29 11 4 11 6 0 13 -11 7 -11 9 -1 9 7 0 10 5 7 10 -3 6 -1 10 5 10 7 0 10 6 7 13 -4 10 1 13 17 10 21 -4 21 -8 23 -179z m15443 70 c0 -32 -33 -32 -48 1 -9 19 -9 23 2 19 8 -3 17 0 21 5 10 17 25 3 25 -25z m8 -69 c0 -19 -4 -38 -9 -41 -5 -3 -5 -13 1 -25 12 -21 4 -43 -11 -34 -5 4 -9 2 -9 -4 0 -5 8 -14 18 -20 16 -9 16 -11 -1 -40 -17 -28 -15 -35 6 -32 4 0 7 -8 7 -20 0 -13 -4 -18 -12 -13 -9 5 -8 2 1 -10 11 -13 11 -20 3 -28 -7 -7 -12 -19 -12 -28 0 -9 -9 -16 -19 -17 -22 -2 -36 34 -20 53 5 6 6 19 3 29 -4 10 -1 21 7 26 11 7 11 9 -3 9 -22 0 -24 26 -3 34 13 5 14 9 4 28 -17 32 -23 98 -9 98 8 0 9 10 5 29 -6 27 -3 30 22 34 15 2 29 5 30 6 0 0 1 -15 1 -34z m-15448 -198 c0 -7 -6 -19 -12 -25 -10 -10 -10 -15 1 -22 11 -6 12 -12 3 -23 -9 -10 -9 -21 0 -44 13 -36 -1 -63 -32 -63 -15 0 -19 10 -22 53 -3 47 -1 53 15 49 9 -2 17 1 17 7 0 6 -7 11 -15 11 -8 0 -15 9 -15 20 0 11 5 20 11 20 6 0 9 7 5 15 -4 11 1 15 19 15 14 0 25 -6 25 -13z m15446 -175 c-1 -20 2 -47 8 -60 7 -18 7 -26 -3 -32 -8 -4 -11 -13 -7 -19 5 -7 1 -9 -8 -5 -23 9 -19 -14 4 -26 12 -7 18 -16 13 -23 -4 -7 -6 -24 -4 -39 4 -41 -7 -68 -26 -61 -14 5 -14 7 1 15 18 10 21 28 5 28 -12 0 -38 29 -39 42 0 4 7 14 16 22 14 14 13 18 -6 38 l-21 22 21 8 c22 8 19 28 -4 28 -9 0 -12 13 -10 41 1 23 4 42 6 42 2 1 12 7 23 13 28 16 34 9 31 -34z m-15456 -42 c-17 -10 -17 -15 -1 -34 12 -14 11 -18 -5 -31 -10 -8 -15 -15 -10 -15 5 0 2 -7 -5 -16 -12 -14 -14 -14 -20 3 -3 10 -1 26 5 37 8 14 8 20 -1 23 -7 3 -13 17 -13 31 0 18 3 23 8 14 10 -14 42 -6 43 12 0 6 3 5 6 -3 3 -7 0 -17 -7 -21z m10 -144 c0 -8 -6 -16 -12 -19 -10 -3 -10 -7 -1 -18 12 -15 12 -56 0 -76 -4 -6 -3 -14 3 -18 6 -4 8 -10 5 -15 -3 -5 -2 -11 3 -14 9 -5 8 -51 -2 -118 -3 -20 -2 -38 4 -40 14 -4 0 -48 -15 -48 -20 0 -39 27 -23 33 9 4 10 8 2 14 -20 14 -42 197 -25 208 7 4 9 26 5 60 -6 46 -4 54 12 58 35 9 44 7 44 -7z m15447 -151 c8 -24 8 -35 1 -35 -7 0 -7 -4 -1 -12 5 -7 10 -35 11 -61 1 -41 -2 -50 -18 -54 -24 -6 -26 -20 -3 -25 13 -2 17 -16 19 -56 3 -46 1 -52 -16 -52 -11 0 -20 -7 -20 -15 0 -8 6 -12 14 -9 22 8 30 -53 17 -125 -1 -2 -8 2 -16 9 -13 11 -15 8 -15 -18 0 -17 7 -38 16 -46 14 -15 14 -16 0 -16 -9 0 -16 -4 -16 -10 0 -9 14 -14 33 -11 4 0 7 -10 7 -24 0 -14 -4 -25 -9 -25 -17 0 -21 -33 -7 -55 9 -14 14 -47 14 -91 0 -38 1 -109 3 -157 2 -64 -1 -91 -10 -97 -10 -5 -10 -13 -3 -27 7 -12 8 -33 3 -56 -5 -20 -7 -38 -4 -40 7 -8 13 -66 15 -150 2 -57 -2 -81 -12 -87 -16 -10 -36 -3 -38 13 -1 7 -5 35 -10 62 -9 58 -3 96 17 103 8 3 11 0 7 -7 -7 -11 6 -16 17 -5 10 10 -4 34 -20 34 -8 0 -11 5 -8 10 3 6 2 10 -3 10 -11 0 -22 58 -15 78 3 6 11 12 19 12 8 0 14 9 14 19 0 11 -7 18 -17 17 -14 -1 -16 23 -19 246 -1 136 -5 251 -8 257 -4 5 1 14 9 19 15 8 15 10 1 21 -11 10 -13 18 -6 31 6 10 7 26 4 34 -4 10 0 18 10 22 9 3 16 12 16 20 0 8 -6 11 -15 8 -12 -5 -15 3 -15 35 0 23 5 41 11 41 7 0 8 7 4 18 -21 50 -24 86 -7 98 15 11 15 13 -1 28 -18 18 -23 61 -8 70 4 3 6 17 4 31 -12 61 36 79 54 20z m-15457 -240 c12 8 19 -24 15 -67 -4 -43 -13 -61 -26 -53 -5 4 -9 1 -9 -5 0 -6 7 -13 15 -16 12 -5 14 -24 13 -93 -1 -48 2 -92 6 -99 4 -7 2 -12 -6 -12 -8 0 -9 -3 -3 -8 17 -12 12 -96 -5 -100 -19 -3 -55 64 -40 73 6 4 7 17 4 31 -5 20 -3 23 12 18 16 -6 16 -4 -3 18 -27 29 -29 38 -7 38 8 0 12 5 9 10 -4 6 -11 7 -17 4 -8 -5 -9 -1 -5 10 4 10 7 22 7 27 0 5 7 9 15 9 21 0 19 13 -5 35 -27 25 -29 115 -2 115 16 1 16 1 0 11 -11 6 -18 22 -18 38 0 36 9 44 27 25 8 -8 18 -12 23 -9z m18 -533 c2 -28 -2 -61 -8 -72 -7 -13 -7 -20 0 -20 15 0 13 -77 -2 -83 -10 -3 -10 -7 0 -19 8 -10 9 -19 3 -22 -11 -7 -13 -106 -2 -106 4 0 7 -16 7 -35 0 -32 -3 -35 -28 -35 -18 0 -28 5 -28 15 0 8 6 15 13 15 8 0 7 4 -3 11 -12 8 -12 12 -2 16 8 3 10 9 4 16 -16 20 -23 142 -9 156 8 8 9 14 1 19 -6 4 -10 21 -9 37 2 17 3 45 4 63 1 30 4 33 24 27 l22 -6 -22 20 c-13 10 -23 30 -23 44 0 23 3 25 28 18 24 -7 27 -12 30 -59z m-8 -446 c-9 -17 -10 -30 -3 -38 5 -7 10 -27 11 -44 2 -24 -3 -33 -24 -43 -29 -13 -48 -6 -24 9 12 7 12 12 2 22 -6 6 -12 35 -12 63 0 44 3 54 23 62 31 15 44 -1 27 -31z m10 -161 c0 -9 -6 -12 -15 -9 -8 4 -12 10 -9 15 8 14 24 10 24 -6z m-19 -26 c12 -12 19 -29 16 -40 -3 -10 -2 -19 2 -19 11 0 0 -64 -13 -72 -8 -6 -8 -10 1 -16 18 -11 25 -201 8 -248 -14 -41 -28 -53 -41 -32 -14 22 -15 370 -1 397 9 19 9 25 0 28 -15 5 -17 23 -3 23 6 0 19 -9 31 -21z m15454 -19 c-3 -5 -2 -10 3 -10 4 0 9 -21 10 -47 2 -27 4 -61 5 -78 1 -22 -2 -30 -14 -29 -22 2 -20 -57 4 -74 23 -18 22 -36 -4 -29 -16 4 -18 3 -9 -8 8 -9 6 -14 -9 -18 -16 -4 -20 2 -24 36 -3 23 -2 46 2 52 5 5 7 24 5 40 -2 20 2 34 13 43 15 11 15 12 -3 12 -16 0 -19 8 -20 47 -1 33 4 52 15 60 20 15 34 17 26 3z m0 -352 c-3 -18 -3 -27 1 -20 10 22 19 13 19 -20 0 -18 -6 -38 -14 -44 -12 -9 -11 -12 3 -17 10 -4 15 -11 12 -16 -3 -5 -2 -37 2 -70 6 -45 5 -68 -4 -86 -8 -16 -9 -25 -2 -25 6 0 8 -11 5 -29 -3 -15 -1 -33 5 -39 8 -8 4 -14 -16 -22 -35 -13 -32 -14 -45 20 -11 33 -9 35 20 20 15 -9 19 -7 19 7 0 34 -12 63 -26 63 -8 0 -14 3 -15 8 -2 28 0 233 4 257 6 45 6 45 22 45 11 0 13 -8 10 -32z m-15458 -103 c0 -8 -4 -15 -8 -15 -11 0 -20 16 -12 24 11 11 20 7 20 -9z m24 -70 c3 -57 1 -65 -16 -65 -9 0 -12 -6 -8 -16 3 -8 12 -13 20 -9 11 4 13 1 9 -11 -3 -8 -6 -29 -6 -45 0 -33 -12 -37 -37 -11 -12 12 -18 33 -18 67 0 41 3 50 20 55 23 6 30 40 9 40 -11 0 -10 4 4 18 9 10 18 18 19 18 1 -1 2 -19 4 -41z m-10 -227 c9 -22 10 -33 2 -35 -8 -3 -7 -12 3 -31 18 -34 2 -52 -25 -28 -19 17 -35 66 -21 66 3 0 5 14 2 30 -6 41 21 40 39 -2z m15469 -42 c-6 -6 -6 -14 1 -22 7 -9 1 -12 -25 -12 -32 0 -34 2 -34 34 0 19 4 31 9 28 5 -3 7 -10 4 -15 -4 -5 -2 -9 3 -9 5 0 13 10 16 23 6 22 7 22 21 3 10 -13 12 -23 5 -30z m-15459 -120 c-6 -7 -6 -31 0 -61 5 -28 9 -83 8 -123 -2 -59 -5 -72 -18 -70 -8 2 -17 -5 -19 -16 -3 -14 0 -18 15 -14 13 4 19 0 20 -13 2 -20 -35 -52 -48 -43 -5 2 -7 35 -5 72 1 37 -1 80 -5 95 -6 21 -3 33 12 48 24 24 24 31 0 46 -17 11 -18 17 -10 45 6 22 6 34 -1 36 -7 3 -7 8 0 17 9 11 17 11 36 3 16 -7 21 -15 15 -22z m15454 15 c3 -5 -2 -17 -12 -26 -16 -16 -16 -18 0 -30 21 -15 22 -29 1 -21 -12 4 -14 1 -9 -14 5 -15 3 -18 -9 -14 -10 4 -16 1 -16 -9 0 -11 7 -14 25 -11 33 6 42 -17 19 -51 -15 -23 -15 -28 -3 -36 12 -8 11 -11 -4 -20 -18 -10 -18 -12 3 -34 24 -26 22 -61 -5 -89 -17 -16 -20 -30 -6 -21 15 8 31 -28 24 -54 -4 -17 -12 -21 -32 -19 -25 3 -26 6 -27 66 -1 43 2 65 11 68 14 6 14 21 1 42 -4 8 -10 70 -13 138 -5 133 -6 127 44 143 1 1 4 -3 8 -8z m-15447 -448 c-3 -49 -6 -56 -24 -59 -42 -7 -39 80 3 105 10 6 19 11 21 11 1 0 1 -25 0 -57z m15427 -71 c34 -25 53 -145 26 -162 -12 -7 -10 -84 2 -96 4 -4 2 -13 -4 -21 -9 -10 -8 -13 2 -13 9 -1 6 -7 -8 -19 -20 -16 -21 -22 -10 -45 7 -14 18 -26 26 -26 10 0 12 -8 6 -32 -3 -18 -8 -39 -9 -47 -2 -8 -10 -17 -20 -21 -16 -5 -16 -7 3 -24 24 -22 28 -66 7 -66 -8 0 -21 -3 -29 -6 -11 -4 -15 1 -13 20 0 14 3 26 6 26 8 0 5 74 -4 88 -4 7 -5 19 -3 26 3 8 2 40 -3 72 -5 36 -4 64 2 71 5 7 8 28 7 47 -2 19 0 38 3 42 4 3 0 13 -9 22 -18 18 -12 90 9 103 10 7 10 9 1 9 -8 0 -13 13 -13 30 0 30 6 36 25 22z m-15453 -9 c-6 -2 -10 -9 -6 -14 3 -5 -2 -9 -10 -9 -17 0 -21 12 -9 23 3 4 13 7 22 6 11 0 12 -2 3 -6z m24 -67 c-3 -12 -3 -26 1 -30 12 -12 2 -101 -13 -112 -18 -15 -18 -25 1 -18 11 5 15 -1 16 -22 1 -16 0 -33 -1 -39 -1 -5 -1 -17 -1 -25 7 -115 4 -182 -9 -191 -13 -7 -13 -10 -1 -18 11 -7 10 -11 -5 -19 -16 -9 -17 -12 -4 -17 15 -5 22 -33 24 -100 1 -23 -3 -30 -17 -29 -18 2 -18 -12 0 -91 20 -88 20 -95 4 -105 -10 -6 -11 -10 -3 -10 10 0 10 -5 1 -21 -8 -15 -8 -19 0 -15 7 5 11 -3 12 -21 1 -15 3 -40 5 -55 1 -16 -1 -28 -5 -28 -4 0 -3 -25 3 -56 7 -42 7 -61 -3 -76 -11 -17 -10 -22 1 -29 10 -7 9 -12 -6 -26 -18 -17 -18 -17 -13 0 4 9 2 17 -4 17 -6 0 -8 4 -5 9 4 5 0 12 -6 15 -10 5 -10 7 0 12 10 5 10 9 0 21 -9 11 -13 84 -14 284 -1 235 1 269 15 269 12 0 11 3 -3 13 -15 11 -18 25 -16 68 5 144 5 205 -2 215 -4 6 -3 26 3 43 8 23 8 39 1 54 -6 12 -10 46 -9 75 2 45 6 55 27 66 34 19 33 19 26 -8z m15443 -547 c1 -13 8 -27 13 -30 15 -9 19 -132 6 -141 -8 -4 -9 -10 -1 -20 16 -20 15 -108 -1 -133 -10 -16 -12 -25 -4 -33 15 -15 20 -72 7 -72 -8 0 -7 -5 1 -15 19 -23 4 -47 -27 -43 -25 3 -28 7 -31 48 -2 24 2 64 8 87 9 37 8 47 -5 60 -14 13 -14 18 -1 37 9 15 11 28 5 37 -12 19 -11 119 1 119 6 0 10 -10 10 -22 0 -18 2 -20 9 -9 11 16 9 21 -27 112 -7 19 -7 30 1 38 16 16 31 8 36 -20z m17 -603 c-2 -22 1 -47 6 -53 7 -9 6 -18 -2 -28 -9 -11 -10 -19 -3 -26 14 -14 5 -47 -16 -52 -11 -3 -9 -5 6 -6 19 -1 22 -7 21 -41 0 -22 -3 -42 -7 -45 -4 -2 -2 -40 4 -84 7 -44 9 -97 5 -118 -4 -21 -8 -31 -9 -23 0 8 -13 28 -28 44 l-27 30 0 188 c0 156 2 191 14 198 12 8 13 13 3 30 -19 30 -16 38 12 32 24 -4 25 -8 21 -46z m-15471 -55 c17 -7 20 -18 21 -67 1 -32 -3 -65 -8 -71 -7 -9 -7 -13 1 -13 6 0 11 -4 11 -10 0 -5 -7 -10 -16 -10 -14 0 -14 -2 0 -15 12 -12 13 -22 5 -42 -6 -17 -6 -30 1 -38 8 -10 8 -19 -2 -35 -11 -17 -11 -22 2 -30 13 -9 13 -10 0 -10 -13 0 -13 -2 -1 -9 13 -8 13 -58 0 -111 -4 -15 -19 -30 -30 -30 -7 0 -2 57 7 71 3 6 1 16 -6 23 -6 8 -8 27 -6 42 3 15 0 34 -5 41 -7 7 -8 24 -4 40 4 16 8 46 7 68 0 22 4 45 10 52 5 7 5 13 -1 17 -5 4 -10 23 -10 44 0 20 -1 52 -3 70 -4 34 -4 35 27 23z m15474 -441 c5 0 9 -37 9 -82 1 -46 -1 -77 -4 -70 -8 17 -24 5 -24 -19 0 -22 11 -24 28 -7 9 9 12 4 12 -25 0 -21 -6 -39 -15 -44 -8 -5 -16 -24 -18 -43 -1 -22 -8 -36 -18 -38 -11 -2 -15 7 -15 40 -1 38 -3 180 -4 233 0 42 10 67 26 61 9 -3 19 -6 23 -6z m-15444 -143 c0 -28 -4 -41 -12 -39 -7 1 -13 -2 -13 -8 0 -18 -19 -10 -25 11 -5 14 -1 25 12 35 12 10 13 13 4 12 -8 -2 -17 5 -19 15 -3 13 3 17 25 17 26 0 28 -3 28 -43z m0 -86 c1 -13 -6 -26 -19 -33 -20 -11 -20 -11 -1 -19 19 -7 19 -8 -2 -8 -17 -1 -22 4 -22 22 1 12 -2 31 -6 41 -7 16 -5 18 8 13 9 -3 17 -2 17 4 0 21 23 2 25 -20z m-5 -80 c0 -14 -18 -23 -31 -15 -8 4 -7 9 2 15 18 11 29 11 29 0z m0 -50 c0 -5 -7 -11 -15 -15 -9 -3 -15 0 -15 9 0 8 7 15 15 15 8 0 15 -4 15 -9z m15450 -10 c0 -5 -8 -12 -17 -14 -15 -4 -15 -6 5 -12 13 -4 22 -15 22 -27 0 -15 -6 -19 -27 -16 -29 3 -41 32 -29 64 6 15 46 20 46 5z m-15464 -42 c5 1 10 -27 11 -62 2 -34 4 -71 5 -82 2 -13 -2 -19 -11 -17 -11 2 -11 -2 2 -21 20 -31 12 -67 -15 -67 -17 0 -20 5 -16 35 2 19 1 35 -3 35 -5 0 -5 97 1 110 1 3 1 25 1 50 -1 30 1 40 7 32 5 -8 13 -13 18 -13z m15468 -84 c-4 -8 -10 -15 -15 -15 -6 0 -5 -9 1 -21 7 -11 9 -27 6 -34 -3 -8 0 -16 7 -18 8 -3 5 -10 -8 -20 -18 -14 -18 -16 -4 -22 28 -11 33 -81 9 -127 -23 -45 -24 -49 -8 -45 17 3 22 -41 8 -59 -7 -7 -8 -14 -3 -14 11 0 11 -4 18 -165 2 -60 1 -104 -3 -98 -12 19 -32 0 -26 -24 4 -13 11 -20 20 -16 11 4 14 -5 14 -34 0 -21 -4 -43 -10 -49 -6 -6 -6 -21 -1 -42 8 -27 7 -32 -7 -32 -10 0 -13 -3 -6 -8 6 -4 10 -33 10 -65 -1 -32 2 -61 7 -64 7 -4 8 -25 5 -128 -2 -92 -2 -114 4 -202 4 -59 3 -95 -3 -99 -6 -3 -8 -16 -5 -29 6 -23 -16 -51 -32 -42 -4 3 -7 33 -6 67 0 33 -3 63 -7 66 -16 9 -11 114 6 120 13 5 13 8 0 20 -11 11 -13 29 -10 66 3 28 8 54 10 59 3 4 1 10 -5 14 -18 11 -10 25 15 25 30 0 33 20 5 27 -21 6 -28 23 -9 23 5 0 3 10 -5 22 -20 28 -20 38 -1 38 19 0 20 19 2 26 -8 3 -14 22 -15 47 -1 30 1 38 8 27 8 -13 10 -13 10 2 0 9 -5 20 -11 23 -6 4 -8 13 -5 21 3 8 2 34 -3 58 -5 26 -4 49 1 54 5 5 5 20 -2 36 -11 30 -8 180 5 211 5 11 13 23 19 27 7 5 4 8 -6 8 -10 0 -19 3 -19 8 -6 31 -5 229 1 251 5 17 3 42 -5 64 -12 36 -12 37 19 57 37 24 37 24 30 5z m-15444 -215 c0 -6 -8 -19 -17 -30 -13 -14 -19 -16 -25 -7 -10 16 -10 29 1 23 5 -3 11 4 14 15 5 20 27 19 27 -1z m4 -65 c6 -16 -13 -55 -26 -55 -14 0 -19 41 -8 55 16 19 26 19 34 0z m-14 -85 c0 -5 -9 -10 -21 -10 -11 0 -17 5 -14 10 3 6 13 10 21 10 8 0 14 -4 14 -10z m-2 -139 c-18 -29 -38 -26 -38 5 0 14 4 23 9 19 5 -3 13 0 16 6 5 7 11 7 17 1 6 -6 5 -17 -4 -31z m15 -128 c4 -3 3 -11 -4 -19 -6 -8 -9 -23 -6 -34 3 -11 2 -22 -2 -25 -14 -8 -37 55 -32 87 1 7 23 2 44 -9z m-3 -112 c0 -23 -36 -35 -44 -14 -8 20 1 33 25 33 12 0 19 -7 19 -19z m-10 -55 c0 -7 3 -28 6 -45 5 -24 3 -31 -9 -31 -18 0 -42 53 -33 75 7 19 36 20 36 1z m8 -101 c7 -6 9 -93 3 -104 -4 -6 -5 -33 -1 -60 7 -54 -2 -91 -22 -91 -18 0 -22 51 -6 62 10 6 10 8 1 8 -7 0 -13 7 -13 15 0 8 5 15 11 15 8 0 9 4 0 13 -6 8 -9 16 -7 18 2 2 1 34 -3 72 -7 65 -6 67 13 61 12 -4 22 -8 24 -9z m-8 -320 c14 -16 10 -18 -14 -9 -9 3 -16 10 -16 15 0 14 16 11 30 -6z m5 -35 c3 -5 -3 -10 -14 -10 -12 0 -21 5 -21 10 0 6 6 10 14 10 8 0 18 -4 21 -10z m4 -44 c9 -11 8 -17 -2 -28 -8 -7 -19 -27 -25 -43 -10 -27 -11 -24 -7 25 2 30 4 56 4 58 2 7 20 0 30 -12z m2 -114 c-1 -20 -7 -43 -13 -49 -7 -9 -7 -13 1 -13 22 0 2 -49 -20 -50 -3 0 -6 25 -7 55 0 30 4 55 9 55 5 0 9 8 9 18 0 21 10 35 19 26 3 -3 4 -22 2 -42z m15449 -82 c0 -9 -10 -16 -25 -18 -18 -1 -25 3 -25 16 0 11 8 17 25 17 16 0 25 -6 25 -15z m5 -95 c-2 -35 0 -67 5 -70 6 -4 10 -22 10 -41 0 -25 -4 -34 -17 -35 -11 0 -13 -3 -5 -6 14 -5 16 -39 3 -47 -29 -18 -67 52 -42 77 7 7 7 16 0 29 -7 14 -7 23 1 34 7 7 12 32 12 54 0 22 3 40 8 40 5 0 7 7 4 15 -4 9 0 15 10 15 13 0 15 -11 11 -65z m-15451 3 c8 -13 8 -23 -1 -37 -9 -14 -9 -29 -2 -56 9 -31 8 -39 -8 -50 -16 -12 -17 -14 -1 -32 12 -14 16 -38 16 -100 -1 -90 -9 -116 -30 -95 -9 9 -9 12 0 12 7 0 12 5 12 11 0 5 -4 7 -10 4 -5 -3 -10 0 -10 7 -12 319 -12 360 6 356 9 -1 22 -11 28 -20z m15461 -306 c-3 -42 -6 -90 -6 -105 0 -23 -2 -27 -13 -18 -8 7 -12 21 -9 32 3 12 0 24 -6 28 -7 5 -14 36 -16 70 -3 56 -2 63 18 70 12 5 25 7 29 4 5 -2 6 -39 3 -81z m-15455 -138 c0 -31 -20 -41 -37 -19 -18 25 -16 35 5 35 16 1 16 1 -1 11 -9 6 -15 15 -11 20 9 16 44 -21 44 -47z m15460 -103 c0 -33 -5 -63 -11 -67 -6 -3 -8 -16 -5 -27 7 -28 -12 -51 -30 -36 -16 13 -18 45 -4 54 6 4 5 13 -3 25 -10 17 -8 27 13 65 13 25 28 45 32 45 5 0 8 -27 8 -59z m-15467 -65 c7 -16 -1 -26 -20 -26 -7 0 -13 9 -13 20 0 23 25 27 33 6z m7 -59 c0 -8 -9 -22 -20 -32 -19 -18 -20 -17 -20 1 0 20 17 44 32 44 4 0 8 -6 8 -13z m-14 -66 c-13 -15 -14 -20 -4 -24 10 -3 9 -9 -5 -23 -18 -18 -19 -18 -16 16 3 34 14 50 33 50 5 0 1 -9 -8 -19z m15449 -11 c4 -11 11 -18 16 -15 5 4 9 0 9 -8 0 -9 -9 -12 -30 -9 -27 4 -44 32 -19 32 5 0 7 5 4 10 -3 6 -2 10 4 10 5 0 13 -9 16 -20z m-15437 -150 c2 -54 1 -60 -18 -60 -18 0 -20 6 -20 60 0 51 3 60 18 60 15 0 18 -10 20 -60z m15440 33 c-4 -22 -22 -20 -26 1 -2 10 3 16 13 16 10 0 15 -7 13 -17z m15 -47 c-3 -18 -1 -36 5 -40 7 -4 7 -17 2 -35 -4 -16 -5 -32 -2 -36 11 -10 11 -65 0 -65 -5 0 -6 -9 -3 -20 4 -12 1 -27 -5 -35 -7 -8 -9 -22 -6 -32 4 -9 1 -20 -6 -25 -9 -6 -7 -8 7 -6 17 3 20 -3 20 -42 1 -25 -5 -62 -12 -83 -11 -33 -10 -42 3 -62 21 -32 15 -152 -9 -170 -16 -12 -16 -13 4 -18 20 -5 22 -34 2 -30 -6 1 -8 -8 -6 -21 5 -24 -12 -44 -25 -31 -4 4 -8 30 -10 58 -2 29 -5 77 -8 108 -5 44 -2 59 11 73 13 13 14 20 5 31 -7 8 -9 23 -4 37 12 38 11 58 -3 58 -17 0 -17 30 2 56 8 12 12 24 9 26 -2 3 -6 23 -8 44 -2 21 -7 47 -11 56 -5 13 -1 20 16 27 13 5 19 10 12 10 -7 1 -10 8 -7 16 4 8 -1 17 -9 20 -22 9 -15 84 9 102 15 11 16 15 5 22 -12 8 -12 11 0 25 22 24 28 19 22 -18z m-15468 -84 c-3 -3 -1 -10 4 -16 8 -10 16 -54 11 -66 0 -3 -2 -33 -2 -68 -1 -52 -4 -62 -17 -60 -19 4 -27 77 -12 106 6 11 7 22 4 26 -13 13 -9 83 4 83 7 0 11 -3 8 -5z m15 -259 c0 -13 -3 -13 -15 -3 -8 7 -15 16 -15 21 0 5 7 6 15 3 8 -4 15 -13 15 -21z m-4 -226 c-1 -13 -6 -28 -10 -35 -4 -7 0 -19 8 -28 18 -17 21 -44 6 -44 -6 0 -4 -13 5 -31 21 -40 32 -129 16 -129 -8 0 -11 -12 -9 -32 3 -29 7 -33 36 -36 22 -2 32 -9 33 -20 0 -14 2 -15 7 -2 4 8 16 16 27 17 21 2 243 5 260 3 6 0 82 0 170 1 88 0 169 1 180 0 41 -1 133 1 243 3 62 2 115 -1 118 -6 4 -5 17 -7 31 -3 16 4 22 2 18 -5 -3 -5 -15 -10 -25 -10 -10 0 -21 -4 -24 -8 -3 -5 -20 -8 -38 -6 -90 7 -218 2 -238 -11 -6 -3 -15 -3 -21 1 -6 3 -58 6 -115 5 -71 -2 -104 1 -104 9 0 6 -3 9 -8 6 -30 -19 -415 -24 -437 -6 -9 7 -14 7 -18 -3 -2 -7 -18 -12 -33 -11 -16 0 -46 2 -68 2 -38 2 -38 2 -34 40 3 23 -1 46 -10 60 -8 12 -12 25 -9 29 4 3 2 13 -3 23 -6 11 -6 30 1 51 5 19 10 68 11 109 0 82 2 90 23 90 8 0 13 -9 11 -23z m15458 -249 c5 -9 7 -20 3 -24 -4 -4 -46 -8 -94 -10 -49 -1 -90 -3 -93 -4 -7 -3 -345 1 -420 4 -36 2 -90 0 -120 -4 -32 -4 -64 -3 -77 3 -15 7 -27 7 -35 0 -18 -14 -120 -11 -125 4 -4 12 39 24 82 23 169 -3 822 13 830 21 13 13 36 7 49 -13z m-1256 -9 c119 1 228 1 240 1 13 0 28 -3 33 -6 27 -16 -18 -23 -164 -24 -89 0 -261 -3 -382 -6 -228 -5 -289 -1 -282 19 3 9 48 12 156 13 83 1 154 4 158 7 3 4 10 4 15 1 4 -3 106 -5 226 -5z m-1563 -9 c6 -1 150 1 321 3 171 3 317 1 324 -3 8 -5 19 -5 26 1 8 7 15 6 19 -2 12 -19 -16 -29 -85 -29 -36 0 -348 -3 -695 -6 -346 -3 -639 -5 -650 -4 -11 0 -82 0 -157 1 -81 0 -140 4 -144 10 -4 6 -13 4 -23 -5 -15 -14 -30 -15 -97 -7 -44 4 -86 5 -96 0 -37 -19 -248 -4 -248 17 0 8 3 15 8 15 4 1 270 3 590 5 321 1 586 5 589 8 4 4 285 0 318 -4z m978 1 c9 0 17 -8 17 -16 0 -12 -16 -15 -87 -14 -97 1 -109 5 -93 24 9 11 75 14 163 6z m-2948 -13 c209 -1 386 1 393 5 6 5 22 3 34 -4 l22 -12 -24 -10 c-19 -7 -664 -22 -767 -17 -22 1 -45 0 -123 -3 -71 -4 -134 4 -148 18 -12 11 23 26 53 22 17 -2 41 -1 55 3 14 4 48 5 75 3 28 -2 221 -4 430 -5z m2755 3 c0 -5 -16 -9 -35 -8 -19 1 -35 5 -35 9 0 4 16 8 35 8 19 0 35 -4 35 -9z m-4610 -12 c74 0 218 0 320 0 102 0 196 0 210 0 14 0 81 1 150 1 69 0 130 0 135 0 6 0 97 1 203 4 106 2 194 0 197 -4 3 -4 -1 -13 -9 -19 -11 -10 -73 -12 -256 -11 -14 0 -68 0 -120 1 -52 0 -126 0 -165 0 -38 1 -86 1 -105 1 -19 1 -91 -2 -160 -5 -157 -8 -718 -7 -925 1 -11 1 -42 -1 -70 -3 -27 -2 -122 -4 -210 -4 -144 0 -191 6 -173 25 4 3 110 7 237 8 127 2 233 5 235 7 2 2 87 3 188 2 101 -2 244 -3 318 -4z m-1900 -12 c85 0 224 2 309 4 108 3 159 1 170 -8 9 -7 20 -8 27 -2 6 4 24 9 40 9 16 0 52 1 79 2 150 4 265 2 272 -5 4 -5 1 -14 -8 -20 -23 -17 -322 -15 -342 2 -12 9 -16 9 -19 0 -5 -16 -108 -22 -142 -9 -15 5 -28 6 -31 0 -5 -8 -265 -13 -525 -9 -58 1 -114 1 -125 0 -20 -1 -685 -9 -830 -10 -96 -1 -91 -1 -285 1 -233 2 -309 1 -495 -5 -93 -2 -203 -2 -243 2 -40 4 -76 3 -78 -1 -3 -4 -15 -6 -27 -4 -12 3 -39 8 -61 11 -30 5 -36 9 -27 18 9 9 76 12 231 12 121 0 220 4 220 8 0 5 8 6 18 3 24 -8 362 -9 576 -2 120 4 184 2 192 -5 7 -6 19 -7 25 -3 18 10 636 14 684 4 22 -5 44 -5 50 0 6 5 31 7 55 6 25 -2 54 0 65 4 11 5 31 5 45 2 14 -3 95 -6 180 -5z m-3283 -21 c3 -3 14 -1 24 4 12 7 20 7 24 0 4 -6 12 -7 18 -3 17 11 777 10 777 0 0 -5 16 -7 35 -5 36 4 44 -3 23 -19 -11 -8 -156 -16 -283 -15 -16 1 -120 1 -230 1 -110 0 -326 0 -480 1 -305 1 -319 1 -337 0 -7 -1 -24 -1 -38 -1 -14 1 -286 0 -606 -2 -462 -4 -586 -2 -605 8 l-24 13 25 5 c14 3 63 6 110 6 47 0 162 1 257 4 95 2 178 0 185 -4 7 -4 17 -4 23 1 5 4 31 5 57 1 26 -4 53 -4 60 0 10 6 409 5 428 -1 3 -1 19 -1 35 0 201 9 334 10 340 1 4 -8 10 -7 19 2 13 12 151 15 163 3z m-1839 -24 c-3 -15 -21 -17 -145 -18 -135 -2 -142 -1 -133 17 12 21 57 26 193 21 76 -3 88 -6 85 -20z m-341 8 c45 1 52 -1 46 -15 -4 -13 -13 -15 -35 -11 -16 3 -37 0 -47 -6 -14 -8 -40 -9 -95 -2 -42 5 -76 6 -76 2 0 -15 -78 -9 -84 7 -8 23 46 33 149 28 50 -2 114 -3 142 -3z m443 0 c0 -5 -9 -14 -20 -20 -15 -8 -20 -8 -20 3 0 8 3 17 7 20 10 10 33 8 33 -3z"></path>
      <path id="pTXaRPrYC" d="M77 13693 c-12 -11 -8 -23 8 -23 8 0 15 7 15 15 0 16 -12 20 -23 8z"></path>
      <path id="p16Z77maPx"
        d="M15536 12556 c3 -9 11 -16 16 -16 13 0 5 23 -10 28 -7 2 -10 -2 -6 -12z"></path>
      <path id="plo4SNxV8" d="M100 10388 c0 -19 2 -20 10 -8 13 19 13 30 0 30 -5 0 -10 -10 -10 -22z"></path>
      <path id="pWRfItD6J" d="M15573 7630 c-1 -11 2 -18 8 -15 11 7 12 35 1 35 -4 0 -8 -9 -9 -20z"></path>
    </g>
  </g>
</svg>