<svg
  class="img-fluid"
  id="outputsvg"
  xmlns="http://www.w3.org/2000/svg"
  style="transform: none; transform-origin: 50% 50% 0px; cursor: move; max-height: none; transition: none 0s ease 0s;"
  width="3184"
  height="1373"
  viewBox="0 0 31840 13730"
  preserveAspectRatio="none"
>
  <g id="l7ktKkUq8XJ8lSWv7USWBGC" fill="rgb(0,0,0)" style="transform: none;">
    <g style="transform: none;">
      <path
        id="p1C38YX63W"
        d="M25130 13726 c-3 -3 -294 -8 -645 -11 -352 -3 -653 -8 -669 -12 -41 -8 -56 -26 -56 -67 l0 -36 48 0 c26 0 54 4 62 10 9 6 17 5 21 -2 9 -15 748 -16 758 -1 3 5 22 14 42 19 30 9 38 8 46 -5 10 -16 84 -17 1548 -14 526 1 1132 8 1180 14 6 1 125 -1 265 -5 140 -3 298 -3 350 2 54 5 137 4 194 -1 59 -5 101 -6 105 0 3 5 49 7 101 5 236 -9 574 -4 664 8 149 22 138 17 134 58 l-3 37 -347 2 c-211 0 -348 -3 -348 -8 0 -6 -7 -6 -18 0 -10 5 -69 7 -132 5 -63 -3 -144 -4 -180 -2 -88 3 -855 1 -955 -3 -44 -2 -166 0 -272 5 -179 7 -192 7 -202 -11 -8 -14 -10 -14 -11 -3 0 13 -29 15 -195 17 -107 1 -195 -2 -195 -6 0 -6 -390 -10 -745 -7 -171 1 -280 -3 -283 -12 -3 -10 -133 -3 -148 9 -14 11 -107 23 -114 15z"
      ></path>
      <path
        id="pfDJkacFx"
        d="M29320 13695 c0 -30 4 -35 28 -41 15 -3 44 -12 65 -20 55 -21 290 -20 307 1 10 12 15 13 21 4 5 -8 34 -13 81 -13 l73 -1 3 53 3 52 -45 0 c-26 0 -47 -5 -50 -12 -5 -10 -7 -10 -12 -1 -4 9 -68 12 -240 12 l-234 1 0 -35z"
      ></path>
      <path
        id="pClfsI2ng"
        d="M30015 13725 c-5 -2 -23 -6 -38 -9 -25 -6 -28 -10 -25 -44 l3 -37 90 -2 c50 -2 139 -5 199 -9 82 -4 111 -2 117 7 6 11 13 10 33 0 20 -11 47 -12 137 -3 69 6 121 7 136 1 32 -12 136 -12 149 1 6 6 49 6 124 -1 107 -10 471 -5 513 7 12 4 17 16 17 43 0 38 0 38 -47 45 -48 6 -1389 7 -1408 1z"
      ></path>
      <path
        id="p1PysUuBY"
        d="M31502 13718 c-17 -17 -15 -85 2 -95 11 -6 15 -65 20 -298 4 -159 10 -330 14 -380 5 -49 5 -94 1 -100 -4 -5 -5 -62 -3 -125 2 -63 3 -142 2 -175 -2 -33 -2 -125 -1 -205 0 -80 3 -460 6 -845 5 -673 13 -1010 23 -1027 3 -4 0 -8 -5 -8 -15 0 -14 -143 1 -158 9 -9 9 -12 0 -12 -15 0 -17 -107 -2 -112 6 -2 10 -112 11 -300 0 -178 4 -298 10 -298 5 0 9 -7 9 -15 0 -8 -4 -15 -10 -15 -16 0 -13 -577 3 -583 9 -3 9 -9 0 -25 -15 -25 -17 -242 -3 -242 6 0 10 -50 10 -120 0 -73 -4 -120 -10 -120 -13 0 -13 -77 0 -82 7 -2 11 -201 11 -606 0 -434 3 -602 11 -602 8 0 9 -32 3 -112 -10 -143 -10 -170 0 -294 6 -73 5 -103 -4 -108 -14 -9 -15 -88 0 -103 7 -7 10 -110 10 -312 0 -166 4 -313 9 -327 6 -14 6 -24 0 -24 -16 0 4 -1647 22 -1703 8 -28 9 -47 1 -70 -11 -31 -9 -618 2 -1032 4 -160 5 -371 2 -455 0 -25 2 -152 6 -284 4 -131 7 -312 8 -401 0 -116 4 -165 12 -169 9 -3 9 -5 0 -5 -16 -1 -18 -272 -3 -287 7 -7 7 -47 -1 -128 -9 -95 -9 -123 2 -142 10 -20 10 -36 1 -83 -15 -71 -15 -104 -1 -118 8 -8 8 -13 0 -17 -14 -9 -15 -76 -1 -76 6 0 10 -117 10 -328 1 -180 1 -335 1 -346 0 -28 -5 -29 -75 -15 -55 10 -87 10 -193 -2 -71 -8 -217 -14 -326 -14 -194 0 -198 0 -203 -21 -11 -44 -1 -69 29 -72 16 -2 36 0 45 4 10 4 22 5 27 3 11 -4 346 -19 485 -22 144 -3 328 14 343 31 9 11 12 68 10 216 -1 216 -1 251 0 479 1 108 -2 150 -11 156 -10 6 -10 32 -2 119 6 62 7 128 2 149 -4 21 -5 52 -1 68 12 52 10 115 -3 120 -10 4 -13 112 -11 502 1 273 5 503 8 511 3 8 0 76 -6 151 -12 141 -13 266 -6 684 2 136 0 250 -4 253 -4 2 -6 86 -5 187 1 100 -1 238 -6 307 -12 169 -12 156 -4 406 6 158 5 224 -3 228 -14 9 -14 137 -1 381 6 118 6 181 0 183 -6 2 -10 129 -10 340 0 186 -4 352 -9 370 -7 21 -6 32 1 32 7 0 8 45 4 138 -8 176 -8 158 0 224 4 32 1 100 -5 150 -6 51 -11 131 -10 178 3 165 -3 345 -11 348 -5 2 -4 17 1 35 12 44 12 284 -1 292 -5 3 -10 26 -10 51 0 24 5 44 10 44 13 0 13 73 -2 182 -9 70 -9 117 1 216 9 95 9 140 1 176 -7 34 -8 52 0 60 13 13 13 83 0 88 -9 3 -24 656 -19 798 7 193 6 381 -1 445 -5 49 -5 84 1 90 11 11 12 98 0 110 -5 6 -4 49 1 99 7 62 6 92 -1 99 -15 15 -15 177 0 177 9 0 10 19 4 68 -5 37 -9 121 -11 187 -1 66 -6 153 -11 193 -5 39 -6 78 -1 85 11 17 10 231 -1 243 -6 5 -6 39 0 89 7 60 6 97 -3 145 -10 46 -12 112 -8 225 9 234 5 608 -6 628 -6 9 -7 56 -3 110 4 52 5 206 2 343 -3 137 -4 363 -3 503 1 191 -2 256 -11 262 -9 5 -10 27 -1 96 12 97 15 413 4 413 -4 0 -8 32 -9 72 -2 45 -7 75 -15 80 -20 12 -123 9 -136 -4z"
      ></path>
      <path
        id="plXflu3YU"
        d="M23003 13713 c-110 -2 -163 -7 -163 -15 0 -7 -12 -8 -37 -3 -70 13 -437 15 -445 2 -6 -9 -10 -9 -15 0 -6 8 -50 9 -161 5 -85 -4 -161 -3 -169 2 -9 5 -75 6 -147 2 -72 -4 -212 -5 -311 -4 -99 1 -207 2 -240 1 -33 -1 -96 -1 -140 0 -184 3 -196 2 -205 -13 -7 -10 -10 -11 -10 -2 0 15 -86 17 -95 2 -4 -7 -12 -7 -25 0 -25 13 -66 13 -107 -2 -27 -10 -36 -10 -42 0 -9 15 -66 17 -524 14 -258 -2 -374 -6 -387 -14 -14 -9 -31 -9 -73 1 -51 13 -73 12 -154 -5 -24 -4 -33 -3 -33 6 0 10 -34 12 -163 7 -90 -4 -177 -10 -195 -13 -29 -6 -32 -10 -32 -43 0 -57 16 -62 213 -63 95 0 197 0 227 0 30 -1 214 0 408 0 346 2 354 2 359 22 7 26 33 26 33 0 0 -18 8 -19 113 -19 176 0 257 8 257 27 0 13 2 13 13 -3 15 -20 62 -22 407 -18 85 0 211 -1 280 -3 141 -4 170 0 170 21 0 9 10 15 25 15 16 0 25 -6 25 -16 0 -16 3 -16 235 -17 39 0 286 2 550 4 353 4 486 8 503 17 18 11 22 10 22 -2 0 -13 48 -15 353 -15 193 0 360 3 370 5 13 4 17 17 17 60 l0 54 -123 0 c-68 0 -191 2 -273 3 -82 2 -222 2 -311 0z"
      ></path>
      <path
        id="pXKXDd8ie"
        d="M18188 13694 c-3 -3 -365 -7 -804 -9 -440 -3 -812 -5 -829 -5 -16 -1 -156 1 -310 3 -235 3 -284 2 -303 -11 -17 -11 -28 -12 -50 -3 -26 11 -1749 10 -2932 -3 -250 -2 -473 -4 -495 -3 -22 1 -220 1 -440 1 -220 -1 -438 -1 -485 -1 -47 0 -211 -1 -365 -2 -154 -2 -624 -4 -1045 -5 -421 -2 -784 -6 -807 -11 -24 -4 -43 -3 -43 1 0 12 -353 15 -360 4 -3 -5 -88 -6 -195 -1 -105 4 -374 6 -600 5 -225 -1 -970 -4 -1655 -7 -891 -4 -1245 -8 -1248 -16 -2 -6 -15 -11 -28 -11 -13 0 -24 -4 -24 -10 0 -19 -18 -10 -23 11 l-6 22 -348 -8 c-191 -4 -384 -6 -428 -5 -126 4 -397 5 -425 1 -14 -2 -121 0 -238 3 -222 7 -282 3 -282 -19 0 -16 -81 -8 -92 8 -7 11 -68 13 -333 10 -422 -4 -460 -5 -467 -17 -6 -8 -8 -7 -8 2 0 10 -164 12 -867 9 -478 -3 -920 -4 -983 -4 -63 1 -219 1 -347 0 -308 -2 -322 -9 -308 -152 4 -42 9 -197 11 -346 2 -148 6 -423 9 -610 3 -187 5 -355 5 -372 0 -18 0 -54 1 -80 2 -98 7 -503 13 -973 3 -267 5 -485 6 -485 0 0 1 -222 2 -492 0 -271 4 -493 8 -493 7 0 13 -627 12 -1140 0 -58 5 -111 10 -118 6 -7 8 -34 4 -65 -18 -150 -18 -164 -7 -171 14 -9 15 -226 1 -226 -13 0 -13 -123 0 -136 6 -6 10 -116 11 -294 0 -198 3 -288 11 -298 8 -9 9 -15 1 -20 -13 -8 -17 -598 -4 -606 11 -7 11 -375 0 -382 -11 -6 -12 -74 -1 -74 4 0 9 -91 10 -202 2 -118 7 -207 13 -214 6 -8 7 -14 0 -18 -14 -9 -14 -416 1 -433 8 -10 8 -20 -2 -39 -11 -20 -12 -36 -2 -83 15 -70 15 -128 2 -136 -13 -8 -13 -103 1 -184 7 -45 7 -67 -1 -75 -13 -13 -13 -65 1 -104 8 -23 8 -59 0 -132 -8 -70 -8 -121 0 -173 5 -40 10 -257 11 -485 0 -227 4 -415 9 -417 4 -3 5 -71 2 -151 -4 -93 -2 -148 4 -152 6 -5 7 -52 2 -137 -5 -71 -7 -146 -4 -165 13 -98 19 -507 9 -617 -4 -44 -4 -89 0 -99 4 -10 8 -169 10 -353 4 -352 11 -471 30 -483 8 -6 7 -11 -4 -18 -12 -8 -16 -44 -18 -202 -2 -106 -3 -213 -3 -238 10 -474 14 -576 23 -587 7 -9 7 -13 -1 -13 -7 0 -11 -27 -11 -78 0 -75 1 -79 25 -90 39 -18 1561 -17 1568 1 4 9 7 9 15 -1 7 -11 1043 -13 2527 -4 11 0 459 0 995 0 536 1 1076 3 1200 5 124 3 241 4 260 4 43 -2 993 -2 1215 0 88 1 243 1 345 0 102 -1 217 -1 255 0 39 1 93 1 120 1 28 0 492 1 1033 3 860 4 984 6 992 19 7 10 10 11 10 2 0 -10 126 -12 608 -12 690 0 872 6 872 26 0 8 5 14 10 14 6 0 10 -6 10 -14 0 -12 18 -15 85 -15 69 0 86 3 94 17 6 10 11 12 11 5 0 -7 11 -13 25 -13 14 0 25 -4 25 -10 0 -6 33 -10 79 -10 60 0 82 4 92 16 9 12 24 14 53 10 103 -13 249 -23 331 -22 50 1 165 2 258 4 144 2 167 4 167 18 0 10 4 12 13 7 6 -4 44 -11 82 -15 39 -4 91 -10 118 -14 26 -3 47 -2 47 3 0 4 291 9 648 10 356 1 661 3 677 3 17 1 167 1 335 0 210 -1 306 2 308 9 5 14 32 15 32 1 0 -15 1616 -11 1662 5 27 9 38 9 41 1 2 -7 37 -11 98 -11 248 2 626 3 734 3 760 -2 1622 6 1736 16 91 7 140 8 142 1 2 -5 57 -11 125 -12 96 -2 124 0 136 12 17 17 36 20 36 4 0 -7 42 -9 128 -5 70 2 134 4 142 4 8 0 176 -2 373 -4 l357 -4 0 41 c0 62 -9 66 -161 70 -228 5 -722 -2 -769 -11 -26 -5 -46 -5 -48 1 -5 13 -440 11 -444 -3 -3 -8 -36 -7 -123 2 -93 10 -257 11 -725 5 -333 -4 -699 -6 -815 -4 -115 2 -298 3 -405 2 -107 -1 -518 -3 -913 -4 -395 -2 -721 -7 -723 -11 -7 -12 -48 -10 -60 2 -8 8 -43 8 -108 3 -53 -5 -102 -6 -108 -2 -10 6 -1109 1 -1273 -6 -38 -2 -79 -3 -90 -2 -11 0 -252 0 -535 -1 -283 0 -553 -1 -600 0 -242 1 -875 -2 -1345 -6 -537 -5 -680 -6 -928 -3 -111 1 -140 -2 -148 -13 -7 -12 -11 -12 -17 -3 -12 18 72 18 -2742 8 -712 -2 -1464 -4 -1670 -4 -206 -1 -390 -5 -407 -10 -21 -6 -33 -6 -33 0 0 6 -184 8 -508 5 -279 -3 -518 -6 -532 -6 -14 0 -234 0 -490 0 -256 0 -697 -3 -980 -5 -283 -3 -540 -4 -570 -3 -30 2 -89 2 -130 2 -41 -1 -111 -1 -155 -1 -44 1 -102 1 -130 1 -27 -1 -503 -2 -1057 -3 -825 -1 -1010 -4 -1020 -15 -9 -9 -22 -11 -48 -5 -60 14 -120 11 -120 -6 0 -10 -11 -15 -35 -15 -23 0 -35 5 -35 14 0 18 -22 26 -71 26 -30 0 -39 4 -41 18 -2 24 -4 93 -11 512 -4 201 -10 520 -13 710 -8 408 -8 380 1 452 4 31 4 65 0 75 -8 19 -12 404 -15 1392 0 431 -4 630 -12 645 -8 15 -8 21 1 24 14 5 15 82 1 82 -6 0 -10 32 -10 75 0 43 4 75 10 75 6 0 10 42 10 105 0 63 -4 105 -10 105 -14 0 -13 206 2 229 9 14 9 35 0 89 -8 44 -12 198 -12 406 0 232 -3 335 -11 338 -8 3 -7 37 1 123 8 86 9 120 1 123 -15 5 -15 422 -1 422 13 0 13 45 0 90 -5 19 -12 244 -15 500 -3 256 -6 507 -8 558 -1 52 1 96 6 99 10 6 9 71 -3 78 -6 3 -10 180 -10 463 -1 251 -3 581 -5 732 -2 151 -3 286 -3 300 1 14 1 45 1 70 -1 25 -3 243 -6 485 -2 242 -7 663 -11 935 -3 272 -6 587 -7 699 0 130 -4 210 -10 218 -7 7 -8 30 -5 55 13 80 18 169 11 186 -4 9 -7 74 -6 144 1 81 -2 129 -9 133 -7 4 -9 19 -5 36 12 54 7 1069 -5 1069 -4 0 -4 17 1 38 11 47 11 143 1 160 -5 6 -4 47 1 89 6 54 5 83 -2 95 -15 24 -14 155 1 160 6 2 37 1 67 -4 31 -4 79 -6 106 -3 40 4 1529 20 1705 19 679 -6 783 -5 791 8 7 10 9 10 9 1 0 -10 39 -13 163 -13 90 0 167 3 170 7 4 3 53 5 109 2 57 -2 283 -3 503 -2 220 1 591 1 825 1 512 -2 561 -1 572 10 5 5 29 5 56 0 43 -8 594 -7 3177 5 495 3 972 8 1060 12 88 3 167 5 175 4 8 -1 144 -3 302 -5 158 -1 361 -3 450 -5 370 -6 788 1 788 14 0 9 2 9 8 0 5 -9 69 -11 242 -8 283 4 260 2 260 20 0 20 10 19 25 -2 11 -15 36 -17 221 -15 115 1 229 1 254 0 51 -1 84 -1 255 0 66 0 197 1 290 1 519 1 701 4 710 11 6 4 34 10 63 12 41 4 52 2 52 -10 0 -13 17 -14 118 -7 64 4 124 7 132 5 8 -1 231 -1 495 -1 264 0 509 0 545 -1 36 -1 85 -1 110 -1 25 0 351 2 725 5 527 3 694 8 743 18 53 12 68 12 100 0 30 -11 134 -13 522 -13 1249 1 1599 4 1602 14 2 6 22 6 57 -1 73 -14 224 -12 291 4 53 12 55 14 58 48 5 56 -12 63 -157 63 -69 0 -211 -3 -314 -5 -104 -3 -190 -3 -193 1 -5 8 -218 11 -226 3z"
      ></path>
      <path
        id="px6VJ8cPu"
        d="M30300 210 c-30 -4 -63 -11 -72 -15 -11 -4 -18 -3 -18 4 0 8 -39 11 -132 9 l-133 -3 -3 -42 -3 -43 83 -1 c46 0 189 -2 318 -3 129 -2 271 1 315 6 44 5 101 8 128 8 l47 -1 0 35 c0 34 0 35 -52 40 -97 10 -422 14 -478 6z"
      ></path>
      <path
        id="pdNOWul7i"
        d="M26129 206 c-2 -2 -148 -7 -324 -11 -176 -3 -327 -6 -335 -7 -8 0 -135 3 -282 7 l-267 8 -6 -25 c-4 -14 -5 -39 -3 -54 l3 -29 150 -3 c83 -1 205 1 273 5 68 5 122 4 122 0 0 -5 115 -7 255 -5 195 2 258 6 264 16 5 9 15 10 32 4 32 -13 379 -14 379 -1 0 5 11 9 25 9 22 0 25 4 25 34 l0 34 -95 1 c-52 0 -104 5 -114 11 -19 10 -93 14 -102 6z"
      ></path>
      <path
        id="p1BEaIen3W"
        d="M26723 202 c-29 -2 -43 -8 -43 -18 0 -8 -9 -14 -20 -14 -16 0 -20 -7 -20 -35 l0 -35 83 1 c45 0 108 4 140 8 31 4 57 3 57 -1 0 -6 608 -4 835 3 11 0 106 -2 210 -5 105 -2 245 -2 313 1 l122 6 0 29 c0 58 -2 59 -312 59 -156 0 -303 0 -328 0 -25 0 -178 0 -340 0 -162 1 -299 0 -305 -1 -5 -1 -86 0 -180 2 -93 2 -189 2 -212 0z"
      ></path>
      <path
        id="pGmm5J96Y"
        d="M28427 195 c-10 -7 -17 -26 -17 -47 l0 -35 133 -4 c72 -3 179 -4 237 -3 58 1 219 2 358 3 l252 2 0 38 c0 33 -4 38 -32 49 -49 17 -907 15 -931 -3z"
      ></path>
      <path
        id="pVna3Rhk9"
        d="M29478 203 l-68 -4 0 -39 0 -40 43 -1 c23 -1 140 -3 260 -5 l217 -3 0 38 c0 34 -3 39 -27 45 -35 8 -336 15 -425 9z"
      ></path>
      <path
        id="pZ487WVUY"
        d="M23645 192 c-2 -2 -110 -3 -241 -3 -148 0 -273 -5 -329 -14 -76 -11 -91 -11 -100 1 -14 20 -1196 16 -1203 -3 -5 -16 -59 -17 -64 -1 -4 12 -39 14 -170 10 l-78 -2 0 -49 0 -48 68 -6 c37 -4 357 -4 712 -1 355 2 861 6 1125 8 398 2 488 5 527 18 42 14 47 14 51 -1 4 -17 45 -17 800 -12 l148 1 -3 37 c-2 20 -10 39 -18 44 -38 19 -156 31 -238 25 -48 -4 -134 -7 -192 -6 -491 4 -792 4 -795 2z"
      ></path>
      <path
        id="ppFJvuDqi"
        d="M26460 161 c0 -49 12 -59 84 -67 66 -8 76 -1 76 57 0 34 -2 37 -37 43 -21 3 -57 6 -80 6 l-43 0 0 -39z"
      ></path>
    </g>
  </g>
  <g
    id="l2zUckpmKqzwMGt0FsVrs3h"
    fill="rgb(255,255,255)"
    style="transform: none;"
  >
    <g style="transform: none;">
      <path
        id="piRX5NILZ"
        d="M0 6865 l0 -6865 15920 0 15920 0 0 6865 0 6865 -15920 0 -15920 0 0 -6865z m28733 6831 c8 -8 24 -12 40 -9 15 3 38 2 53 -1 21 -6 24 -9 13 -22 -9 -11 -35 -15 -103 -15 -50 0 -100 0 -111 0 -46 0 -115 14 -125 26 -15 19 4 29 29 15 24 -13 81 -13 81 -1 0 9 28 15 87 19 12 1 28 -4 36 -12z m432 -7 c5 -6 3 -9 -8 -9 -9 0 -17 -5 -17 -11 0 -6 -12 -9 -28 -8 -15 2 -32 1 -37 -3 -6 -3 -50 -5 -98 -4 -85 1 -106 9 -107 40 0 4 40 6 89 5 49 -2 93 0 98 4 10 10 94 -1 108 -14z m388 12 c10 -1 17 -9 17 -21 0 -29 -60 -37 -124 -17 -28 9 -62 20 -76 24 l-25 7 30 6 c25 4 89 5 178 1z m314 -18 c-2 -22 -8 -29 -30 -31 -15 -2 -27 2 -27 8 0 7 -9 9 -22 5 -18 -5 -20 -4 -8 4 8 6 27 11 43 11 15 0 26 3 26 8 -3 14 1 22 10 22 6 0 9 -12 8 -27z m553 17 c0 -5 14 -5 32 1 46 13 58 11 58 -6 0 -12 8 -14 43 -9 23 4 48 11 54 16 8 6 57 7 125 3 126 -7 152 -7 353 -1 111 3 145 1 169 -11 26 -14 30 -14 38 1 9 16 48 23 48 8 0 -4 21 -9 47 -10 104 -4 56 -31 -57 -32 -47 0 -131 -2 -186 -6 -83 -5 -107 -3 -133 10 -24 13 -36 14 -52 6 -13 -7 -36 -9 -62 -4 -49 10 -98 6 -111 -7 -14 -13 -67 -11 -96 4 -17 9 -42 11 -79 6 -29 -4 -60 -5 -67 -2 -8 3 -35 0 -61 -7 -39 -12 -47 -11 -57 1 -8 11 -24 14 -53 11 -24 -2 -43 -8 -43 -12 0 -10 -154 -4 -176 8 -22 10 -86 9 -127 -2 -17 -5 -33 -4 -39 2 -15 15 21 24 108 26 41 1 76 5 79 8 9 9 245 7 245 -2z m1186 -5 c11 -10 15 -36 15 -82 0 -40 5 -70 12 -75 8 -5 7 -13 -2 -32 -11 -20 -12 -28 -2 -40 7 -8 9 -21 5 -27 -10 -17 -15 -119 -6 -119 9 0 7 -78 -3 -102 -4 -10 -4 -25 -1 -34 4 -9 0 -27 -9 -40 -9 -14 -11 -25 -5 -29 6 -3 10 -24 10 -46 0 -21 5 -39 10 -39 6 0 10 -7 10 -15 0 -8 -4 -15 -10 -15 -5 0 -10 -9 -10 -20 0 -11 4 -20 8 -20 13 0 14 -97 2 -105 -14 -9 -12 -42 3 -48 9 -3 9 -7 0 -18 -13 -17 -14 -109 -1 -126 6 -7 6 -19 0 -30 -14 -26 -13 -84 0 -111 10 -18 9 -25 -1 -31 -9 -6 -10 -14 -3 -27 16 -33 21 -81 12 -115 -5 -17 -6 -37 -2 -43 10 -15 2 -169 -9 -181 -15 -15 -10 -28 7 -21 15 6 16 0 10 -41 -4 -27 -6 -65 -6 -85 1 -34 -2 -38 -24 -38 -14 0 -28 5 -32 11 -11 19 -6 130 7 146 11 12 10 17 -4 25 -15 8 -17 18 -12 53 4 23 3 45 -3 48 -15 10 -6 79 13 93 16 12 16 14 2 29 -23 23 -31 56 -16 65 10 7 10 11 0 24 -8 9 -9 16 -4 16 13 0 14 169 2 193 -8 14 -5 19 13 26 21 8 21 10 5 16 -14 6 -17 14 -12 35 3 14 1 39 -5 54 -8 23 -6 33 11 58 17 24 19 32 9 38 -9 5 -14 32 -15 72 -1 34 -6 84 -10 111 -5 33 -3 52 5 62 7 9 8 15 2 15 -15 0 -22 41 -11 62 5 10 7 24 3 30 -11 17 -12 58 -3 91 5 17 3 38 -4 54 -10 21 -8 27 8 39 17 13 18 16 5 24 -12 7 -15 32 -16 110 -1 86 -4 103 -20 114 -15 12 -16 16 -5 29 7 9 22 18 34 20 12 2 23 5 25 6 2 0 10 -6 18 -14z m-6389 -17 c6 -5 37 -10 70 -12 75 -5 73 -4 73 -15 0 -12 -100 -20 -122 -9 -10 5 -19 4 -23 -2 -8 -12 -433 -6 -446 7 -22 22 12 31 146 37 77 3 134 3 128 0 -24 -10 -13 -21 22 -22 32 -1 52 16 23 20 -7 0 7 4 32 7 48 7 78 3 97 -11z m1566 -2 c5 -14 13 -17 34 -11 15 3 32 13 38 22 10 13 23 14 76 8 35 -4 97 -7 137 -6 56 1 72 -1 72 -13 0 -8 -15 -16 -37 -20 -76 -13 -443 -22 -565 -15 -18 1 -46 1 -63 -1 -41 -3 -115 11 -115 21 0 5 -4 9 -10 9 -5 0 -10 -7 -10 -15 0 -12 -19 -15 -102 -16 -212 -2 -286 -2 -385 2 -57 2 -103 1 -103 -3 0 -14 -61 -9 -76 6 -7 8 -19 16 -26 19 -7 2 -9 8 -5 13 4 4 15 4 25 -2 10 -7 32 -8 60 -2 24 4 48 5 53 3 4 -3 17 0 28 6 15 10 22 9 36 -4 19 -20 27 -21 41 -7 19 19 167 23 227 6 62 -18 81 -20 73 -7 -3 5 4 11 17 15 32 9 75 7 81 -3 7 -11 160 -4 164 8 2 5 72 9 165 8 148 -2 163 -4 170 -21z m702 14 c3 -5 -2 -10 -11 -10 -10 0 -26 -8 -36 -17 -15 -13 -21 -14 -27 -5 -6 10 -17 9 -50 -3 -54 -19 -61 -19 -61 0 0 8 -6 15 -12 15 -10 0 -9 3 1 9 7 5 28 5 46 1 21 -5 41 -3 56 6 28 16 85 18 94 4z m217 -5 c22 -7 39 -8 40 -3 4 12 426 16 492 5 80 -14 40 -31 -77 -33 -56 -1 -145 -5 -198 -9 -76 -6 -101 -5 -123 7 -25 13 -33 13 -57 1 -16 -8 -37 -12 -46 -9 -10 3 -66 6 -125 8 -74 1 -108 5 -108 13 0 33 128 45 202 20z m708 -4 c0 -14 -12 -20 -26 -14 -22 8 -17 32 6 26 11 -3 20 -9 20 -12z m835 9 c3 -5 2 -10 -4 -10 -5 0 -16 -3 -25 -6 -11 -4 -16 -1 -16 10 0 18 35 22 45 6z m443 -27 c-6 -7 -30 -13 -55 -13 -37 0 -44 3 -41 17 4 22 54 32 85 18 16 -7 19 -13 11 -22z m67 27 c-3 -5 -15 -10 -26 -10 -10 0 -19 5 -19 10 0 6 12 10 26 10 14 0 23 -4 19 -10z m-6349 -21 c10 -8 21 -9 41 -1 41 17 123 14 123 -4 0 -19 16 -18 24 1 3 10 19 15 46 15 36 0 40 -3 40 -24 0 -15 -7 -26 -17 -29 -33 -9 -269 5 -280 16 -3 4 -18 0 -34 -8 -32 -17 -72 -19 -98 -5 -12 6 -30 6 -52 -1 -24 -7 -41 -6 -57 3 -14 7 -26 8 -30 3 -9 -13 -112 -16 -112 -4 0 5 12 9 28 9 21 0 24 2 12 10 -16 10 -76 5 -120 -10 -74 -25 -192 -18 -150 10 8 5 34 10 58 10 24 0 42 5 42 11 0 8 41 10 138 7 75 -2 147 -2 160 1 41 10 223 3 238 -10z m1309 12 c-3 -6 -25 -16 -48 -23 -23 -6 -45 -16 -48 -21 -5 -6 -245 -9 -479 -5 -19 1 -62 1 -95 0 -110 -2 -117 -1 -132 14 -9 8 -12 18 -9 22 4 4 60 7 124 8 92 1 121 -2 135 -14 15 -14 17 -13 17 2 0 16 12 17 128 13 70 -2 135 -1 144 2 31 11 270 12 263 2z m838 -11 c6 -25 -18 -40 -67 -40 -49 0 -66 9 -66 34 1 20 1 20 15 3 15 -21 49 -16 59 8 8 23 53 19 59 -5z m1692 4 c11 -1 22 -3 25 -3 2 -1 -4 -7 -15 -14 -21 -13 -98 -16 -102 -4 -11 31 -2 39 35 32 20 -4 46 -9 57 -11z m1103 -29 c-8 -9 -58 9 -58 21 0 7 12 14 28 16 20 2 28 -2 30 -15 2 -10 2 -20 0 -22z m132 31 c0 -19 -21 -26 -42 -14 -28 14 -21 28 12 28 19 0 30 -5 30 -14z m-7849 -9 c23 4 27 1 27 -20 0 -33 -30 -41 -62 -16 -13 10 -26 16 -29 13 -3 -3 -16 -2 -29 2 -23 7 -23 7 7 20 17 7 37 9 45 4 8 -5 27 -6 41 -3z m459 -1 c8 -2 24 -7 34 -11 13 -6 21 -4 24 3 5 16 30 15 48 -2 12 -12 21 -11 66 6 42 16 59 18 80 10 16 -6 40 -9 55 -7 16 1 31 -2 36 -9 5 -8 9 -8 15 0 4 6 35 12 70 13 60 2 62 1 62 -23 0 -32 -19 -37 -98 -27 -35 4 -65 4 -68 0 -7 -12 -66 -2 -74 12 -5 8 -19 9 -41 4 -19 -4 -93 -9 -165 -11 l-131 -3 0 24 c0 26 19 36 52 28 11 -2 27 -6 35 -7z m902 3 c19 -10 26 -11 163 -5 79 3 106 1 127 -12 22 -13 29 -13 42 -3 9 8 26 11 41 7 18 -5 25 -2 25 9 0 12 12 15 55 15 30 0 55 -4 55 -8 0 -5 13 -7 29 -4 22 3 29 -1 33 -16 5 -17 0 -20 -31 -21 -20 0 -49 -1 -66 -2 -16 0 -41 -1 -55 0 -14 0 -63 -1 -110 -3 -47 -2 -115 -1 -152 3 -37 4 -75 3 -84 -2 -11 -6 -19 -5 -25 4 -6 10 -13 11 -31 2 -47 -24 -123 -26 -166 -5 -26 12 -42 16 -45 9 -4 -12 -107 -19 -107 -7 0 16 27 29 85 38 75 12 195 13 217 1z m728 -9 c0 -11 5 -20 10 -20 6 0 10 -5 10 -11 0 -7 -7 -8 -17 -4 -10 4 -44 7 -75 7 -43 0 -58 3 -58 14 0 7 10 16 23 18 12 3 31 7 42 9 48 11 65 7 65 -13z m1167 5 c4 -12 -84 -41 -94 -32 -3 3 1 13 9 20 25 25 78 32 85 12z m-5491 -16 c8 -6 25 -8 40 -5 27 7 322 18 486 19 64 0 103 -5 113 -13 18 -15 10 -32 -13 -28 -10 1 -22 -1 -28 -5 -17 -10 -204 -18 -204 -8 0 4 -13 6 -29 3 -16 -2 -32 1 -35 7 -4 6 0 11 11 11 13 0 15 2 5 9 -16 10 -62 2 -62 -10 0 -5 -9 -9 -20 -9 -11 0 -20 -4 -20 -9 0 -13 -153 -6 -158 8 -2 6 -18 11 -35 11 -21 0 -28 -3 -19 -9 11 -7 11 -9 -1 -14 -8 -3 -212 -6 -454 -6 -241 0 -445 -3 -454 -6 -9 -3 -23 3 -33 14 -17 19 -17 19 2 15 10 -3 26 2 35 10 20 21 35 20 39 -1 3 -16 6 -15 26 5 26 26 81 30 115 7 19 -12 28 -12 62 -1 23 8 83 14 138 14 84 0 97 -2 97 -16 0 -14 2 -15 9 -3 17 27 356 36 387 10z m968 5 c9 -8 16 -22 16 -30 0 -20 -177 -20 -204 1 -29 22 -15 28 69 30 42 2 79 5 82 9 10 10 20 7 37 -10z m126 10 c0 -8 -49 -54 -57 -54 -18 0 -55 39 -48 50 5 9 105 13 105 4z m170 -10 c0 -13 3 -14 13 -5 11 8 16 5 25 -14 l12 -25 -68 -2 c-37 0 -74 0 -82 1 -8 2 -32 5 -53 8 l-38 5 27 14 c31 16 54 18 54 4 0 -16 25 -11 50 10 28 24 60 26 60 4z m290 0 c0 -17 14 -18 32 -1 9 9 57 12 168 12 l155 0 0 -25 0 -25 -245 -2 c-268 -2 -310 1 -310 24 0 11 7 14 25 11 14 -3 29 0 34 6 5 6 39 12 75 13 51 1 66 -2 66 -13z m473 5 c16 -9 22 -9 25 0 5 15 31 14 48 -3 19 -20 18 -36 -3 -36 -10 0 -36 -3 -58 -6 -32 -4 -36 -3 -22 6 29 19 19 30 -28 30 -25 0 -45 5 -45 10 0 14 56 13 83 -1z m398 -4 c27 -14 33 -14 61 0 34 16 62 21 38 5 -16 -11 -10 -13 35 -11 17 0 25 -2 18 -5 -7 -3 -9 -12 -6 -21 10 -25 -164 -10 -189 16 -16 18 -14 24 10 30 2 1 16 -6 33 -14z m844 5 c-3 -5 -13 -10 -21 -10 -8 0 -12 5 -9 10 3 6 13 10 21 10 8 0 12 -4 9 -10z m-5546 -8 c49 6 77 5 86 -2 7 -6 19 -8 27 -5 9 4 14 -3 16 -19 2 -29 -24 -42 -44 -21 -19 19 -54 20 -54 1 0 -10 -16 -12 -67 -10 -38 1 -76 3 -86 3 -10 1 -16 5 -13 10 3 5 -2 12 -11 15 -28 11 15 35 46 26 14 -4 59 -3 100 2z m316 -2 c31 -2 35 -3 17 -8 -13 -4 -23 -11 -22 -17 2 -17 -80 -30 -101 -17 -23 15 -49 16 -49 2 0 -5 -4 -10 -10 -10 -18 0 -10 15 19 35 18 13 43 19 67 18 22 -1 57 -2 79 -3z m275 0 c0 -7 6 -7 18 -1 9 5 56 8 103 7 67 -1 89 -5 103 -18 21 -22 21 -22 41 -1 12 12 40 17 106 20 83 3 89 2 89 -17 0 -15 7 -20 28 -20 20 0 23 3 12 10 -27 17 -1 23 105 26 102 2 124 -4 88 -25 -15 -8 -11 -10 20 -11 20 0 37 -4 37 -9 0 -15 -27 -20 -60 -11 -16 5 -45 6 -64 3 -19 -3 -36 -1 -40 6 -4 6 -19 11 -34 11 -21 0 -24 -2 -12 -10 10 -7 -8 -10 -62 -10 -50 0 -78 4 -80 12 -3 9 -11 9 -34 1 -16 -6 -59 -14 -95 -17 -54 -5 -68 -3 -73 9 -6 16 -36 21 -36 6 0 -5 -14 -11 -30 -15 -38 -7 -244 4 -262 15 -22 14 5 30 63 39 30 4 57 8 62 9 4 0 7 -4 7 -9z m-3157 -24 c5 -8 10 -7 16 3 5 7 32 16 60 19 45 4 51 2 52 -14 0 -11 3 -14 6 -6 7 18 83 16 83 -2 0 -8 -6 -17 -12 -19 -8 -3 -5 -6 5 -6 11 -1 21 7 24 17 4 16 18 18 126 20 407 7 420 7 424 -5 3 -7 -2 -13 -11 -13 -9 0 -16 -6 -16 -14 0 -16 -44 -25 -80 -16 -14 4 -38 3 -55 -2 -16 -5 -55 -5 -85 -1 -30 4 -59 6 -65 4 -35 -10 -148 -7 -159 5 -10 9 -24 10 -52 4 -66 -15 -204 -17 -204 -3 0 19 -13 22 -55 13 -21 -5 -46 -5 -54 -1 -9 6 -27 2 -48 -10 -43 -24 -53 -24 -53 2 0 14 5 19 14 16 7 -3 20 2 28 12 11 13 25 16 59 13 24 -3 47 -10 52 -16z m1022 14 c74 10 149 10 155 1 4 -8 14 -9 31 -2 14 5 51 6 84 2 33 -4 78 -3 100 2 43 9 201 4 212 -7 4 -3 -2 -13 -13 -22 -18 -14 -17 -15 16 -9 27 4 30 3 14 -4 -19 -8 -139 -14 -240 -12 -25 1 -48 8 -62 21 -25 24 -32 25 -32 5 0 -18 -5 -18 -31 -5 -15 8 -19 7 -19 -5 0 -8 -6 -15 -12 -16 -79 -3 -310 -1 -333 3 -45 8 -85 26 -85 38 0 5 23 10 50 10 39 0 50 -3 50 -16 0 -14 5 -13 33 5 17 11 41 18 52 15 11 -3 25 -5 30 -4z m725 -15 c0 -16 -60 -31 -69 -17 -3 5 -15 12 -26 14 -19 5 -19 5 3 14 31 13 92 5 92 -11z m150 14 c5 -6 15 -6 34 1 41 15 76 13 76 -6 0 -11 6 -14 23 -8 12 4 25 11 28 17 4 5 20 7 35 3 69 -16 84 -17 84 -7 0 15 47 14 52 0 3 -9 10 -9 27 1 18 9 30 9 48 1 13 -6 38 -11 54 -11 29 0 29 -1 14 -17 -10 -9 -31 -16 -49 -15 -17 0 -59 2 -93 4 -35 2 -63 0 -63 -4 0 -5 -11 -8 -25 -8 -14 0 -25 5 -25 11 0 8 -14 9 -42 5 -86 -14 -186 -17 -193 -6 -4 6 -27 8 -61 4 -36 -5 -54 -3 -54 4 0 6 5 14 11 18 8 5 8 9 -1 14 -7 4 16 8 51 9 35 0 66 -4 69 -10z m1054 5 c23 -9 20 -24 -4 -24 -11 0 -20 7 -20 15 0 17 2 18 24 9z m4206 -9 c0 -8 -4 -15 -10 -15 -5 0 -10 7 -10 15 0 8 5 15 10 15 6 0 10 -7 10 -15z m-9449 -18 c4 -5 12 -6 20 -1 8 5 37 9 64 10 28 1 56 3 64 5 9 3 17 -7 21 -28 l7 -33 -48 0 c-26 0 -51 4 -54 10 -6 10 -48 7 -77 -5 -13 -5 -18 -2 -18 9 0 21 -58 22 -66 1 -5 -12 -31 -14 -167 -9 -89 3 -175 4 -192 3 -72 -6 -212 -3 -234 5 -15 5 -21 5 -17 -2 9 -16 -43 -23 -99 -14 -27 4 -79 7 -115 5 -42 -2 -76 2 -96 12 -28 13 -35 13 -60 0 -40 -21 -126 -21 -118 0 4 8 2 15 -4 15 -5 0 -12 -7 -15 -15 -8 -20 -312 -19 -376 2 -29 9 -47 10 -55 3 -9 -6 -23 -6 -45 3 -26 10 -33 9 -41 -3 -7 -11 -30 -15 -89 -15 -87 0 -104 7 -78 32 22 23 155 32 167 12 7 -10 12 -10 23 0 12 9 16 9 19 -1 4 -10 13 -10 45 0 47 14 503 13 503 -1 0 -5 8 -6 18 -2 9 4 81 8 160 9 108 1 142 -2 142 -11 0 -7 5 -13 11 -13 5 0 8 4 5 9 -8 12 41 18 172 21 90 1 115 -2 128 -14 11 -12 20 -13 34 -6 26 14 287 24 295 11 3 -6 13 -11 21 -11 9 0 12 5 8 11 -5 8 3 10 25 7 18 -3 34 -1 37 4 7 11 67 -1 75 -15z m443 17 c23 -9 20 -24 -4 -24 -11 0 -20 -7 -20 -15 0 -17 -13 -19 -80 -15 -60 4 -72 6 -94 15 -11 5 -21 3 -25 -4 -8 -12 -41 -5 -41 8 0 11 47 31 71 31 11 0 22 -6 25 -14 5 -12 11 -13 32 -5 22 9 75 22 114 28 3 1 13 -2 22 -5z m326 -7 c0 -4 -7 -10 -16 -14 -12 -4 -13 -7 -3 -14 8 -4 11 -10 8 -13 -5 -5 -151 -8 -210 -4 -33 3 -69 26 -69 45 0 5 65 9 145 8 80 0 145 -4 145 -8z m138 1 c-7 -19 -38 -22 -38 -4 0 10 9 16 21 16 12 0 19 -5 17 -12z m228 1 c3 -6 13 -7 22 -5 10 3 23 1 31 -3 25 -16 -5 -41 -47 -40 -21 1 -62 0 -93 -1 -53 -3 -89 9 -116 36 -7 7 -13 15 -13 19 0 10 210 4 216 -6z m362 -1 c9 -9 15 -9 24 0 14 14 48 16 48 2 0 -6 9 -6 24 0 13 5 27 6 30 3 3 -4 18 -7 33 -8 16 -2 39 -5 53 -9 14 -3 19 -4 13 0 -35 16 -2 24 101 24 82 0 116 -4 120 -12 5 -10 7 -10 12 0 6 13 89 17 143 6 l31 -7 -27 -24 c-24 -23 -31 -25 -82 -17 -31 5 -99 6 -151 1 -65 -5 -109 -4 -138 4 -35 10 -46 9 -52 0 -7 -13 -69 -15 -223 -8 -37 2 -70 0 -72 -4 -3 -4 -23 -3 -46 2 -22 5 -44 7 -49 4 -5 -3 -19 -1 -31 6 -21 11 -21 11 7 30 23 15 48 19 125 19 61 0 99 -4 107 -12z m-4295 -10 c115 -1 158 -1 210 1 32 0 57 -3 57 -9 0 -5 5 -10 11 -10 5 0 7 5 4 10 -4 6 8 10 28 10 22 0 37 -6 41 -15 3 -8 11 -15 18 -15 9 0 8 3 -2 10 -12 8 -11 10 7 10 12 0 23 -6 26 -12 3 -10 7 -10 20 1 10 8 27 11 42 7 18 -5 25 -2 25 9 0 11 12 15 49 15 28 0 52 -4 55 -9 3 -4 28 -6 55 -3 38 3 49 1 48 -9 -1 -8 3 -14 8 -14 6 0 9 6 8 14 -1 9 7 12 28 7 16 -3 29 -1 29 4 0 6 5 10 10 10 16 0 11 -47 -6 -54 -31 -12 -94 -6 -100 9 -8 19 -34 20 -34 1 0 -8 -10 -14 -22 -14 -13 -1 -46 -4 -73 -7 -28 -4 -67 -3 -88 3 -20 6 -37 7 -37 4 0 -4 -65 -7 -145 -7 -119 0 -148 3 -155 15 -7 10 -10 11 -10 3 0 -7 -7 -13 -15 -13 -8 0 -15 4 -15 9 0 4 -11 6 -25 3 -14 -2 -25 -8 -25 -12 0 -6 -738 -6 -906 1 -38 1 -75 -1 -81 -4 -19 -12 -277 -9 -281 2 -5 14 -42 14 -42 1 0 -7 -26 -10 -65 -9 -53 2 -62 4 -48 14 12 9 13 14 4 20 -7 4 -23 -2 -37 -16 -24 -23 -28 -23 -261 -24 -181 -1 -239 2 -249 12 -16 16 -44 17 -44 2 0 -8 -14 -10 -45 -6 -25 4 -45 3 -45 -1 0 -6 -368 -9 -405 -3 -5 1 -3 5 5 11 19 12 9 21 -17 14 -12 -3 -20 -11 -17 -18 3 -8 -26 -12 -103 -14 -141 -2 -161 2 -156 32 5 23 9 24 101 25 67 1 92 -2 82 -9 -9 -6 -10 -10 -3 -10 6 0 15 5 18 10 8 13 121 13 146 -1 13 -6 25 -7 32 -1 15 12 217 10 236 -2 8 -5 16 -4 20 1 8 13 5 13 269 16 128 1 233 -2 235 -7 2 -5 19 -3 39 4 29 11 58 11 149 2 82 -9 115 -9 120 -1 5 8 13 8 29 -1 15 -8 25 -9 29 -2 6 10 410 15 444 6 9 -3 17 -12 17 -20 0 -8 10 -14 26 -14 19 0 25 4 21 14 -8 20 38 29 81 17 17 -5 32 -6 32 -1 0 14 32 15 325 11 154 -1 297 -3 318 -3z m-3138 -8 c12 10 19 10 27 2 6 -6 30 -8 58 -5 28 3 50 1 54 -5 4 -7 17 -7 39 -1 40 11 146 19 164 12 18 -7 16 -16 -6 -41 -18 -21 -74 -31 -84 -14 -3 4 -25 6 -49 4 -80 -5 -103 -5 -123 3 -16 5 -17 5 -5 -4 12 -8 8 -11 -17 -11 -23 0 -33 5 -33 15 0 11 -7 14 -22 11 -65 -13 -88 -15 -88 -6 0 6 5 10 11 10 6 0 9 6 6 14 -7 18 22 27 41 13 8 -6 17 -5 27 3z m-2477 -14 c39 -9 77 -11 100 -6 20 4 75 8 122 9 47 0 103 3 125 6 22 3 56 1 75 -4 l35 -9 -37 -1 c-21 -1 -38 -6 -38 -11 0 -7 25 -9 71 -5 60 4 70 3 61 -8 -9 -10 -35 -13 -103 -10 -52 2 -97 -1 -104 -7 -6 -5 -68 -9 -144 -9 -116 1 -130 3 -119 16 11 14 7 15 -32 8 -25 -4 -47 -11 -50 -15 -7 -11 -179 -11 -200 0 -13 7 -26 6 -45 -4 -19 -10 -36 -11 -56 -6 -17 5 -37 6 -45 3 -8 -3 -14 1 -14 11 0 9 -5 16 -11 16 -23 0 -1 23 25 26 18 2 26 -1 23 -9 -3 -9 7 -11 34 -9 22 2 39 8 39 13 0 4 44 10 98 12 53 1 104 4 112 5 8 1 43 -5 78 -12z m780 -5 c15 -8 21 -8 24 0 2 7 17 11 33 10 17 0 70 -1 118 -2 68 -1 90 -4 94 -16 5 -11 8 -12 14 -2 6 10 11 10 22 0 13 -10 17 -9 25 6 9 16 27 18 139 21 136 3 210 -7 205 -27 -1 -8 4 -10 15 -7 51 15 74 17 106 8 28 -8 37 -7 41 4 7 18 36 18 36 0 0 -8 6 -17 13 -19 14 -6 -57 -10 -228 -13 -66 -1 -128 -5 -138 -9 -10 -4 -42 -4 -70 0 -29 3 -108 6 -177 5 -299 -5 -389 -3 -419 10 -36 15 -41 37 -8 42 42 6 135 0 155 -11z m1277 6 c20 -11 45 -32 45 -40 0 -8 -354 -1 -372 7 -25 11 -22 34 5 39 46 8 303 4 322 -6z m212 -7 c4 -13 14 -20 30 -20 14 0 22 -4 18 -11 -4 -6 -19 -7 -35 -4 -15 3 -31 2 -34 -3 -3 -6 -22 -6 -48 0 -24 5 -51 10 -60 11 -9 1 -15 4 -12 8 2 4 -3 9 -11 13 -34 13 -10 21 66 24 74 2 81 1 86 -18z m4223 5 c0 -8 -3 -15 -7 -15 -5 0 -19 -3 -33 -7 -21 -6 -23 -4 -13 9 7 8 10 18 6 21 -3 4 6 7 20 7 17 0 27 -5 27 -15z m2799 6 l24 -6 -28 -13 c-23 -11 -27 -11 -22 2 4 9 -1 17 -11 19 -12 3 -13 5 -2 5 8 0 26 -3 39 -7z m-11722 -23 c7 -6 20 -5 35 3 28 16 279 13 289 -3 4 -7 18 -8 35 -3 70 18 313 26 327 10 8 -9 18 -8 39 4 25 14 30 14 38 1 8 -12 14 -13 46 -1 28 10 38 10 44 1 6 -9 20 -9 61 -1 64 14 167 12 192 -3 13 -8 20 -8 26 3 6 9 18 11 40 6 17 -4 29 -11 25 -16 -9 -15 43 -10 59 6 11 10 34 14 79 13 34 -1 53 -4 40 -6 -12 -2 -20 -8 -17 -13 10 -15 52 -10 59 6 6 17 61 21 71 5 4 -7 12 -7 25 0 10 5 108 9 237 7 197 -2 222 -4 248 -21 l30 -20 -26 -6 c-37 -11 -200 -11 -213 -1 -6 4 -24 11 -41 14 -16 4 -24 4 -17 1 19 -9 14 -24 -8 -24 -11 0 -20 5 -20 11 0 8 -14 9 -42 5 -74 -12 -338 -17 -338 -7 0 5 -13 9 -30 9 -16 -1 -27 -5 -24 -10 5 -7 -116 -14 -141 -8 -5 2 -57 3 -115 2 -58 0 -99 2 -92 5 6 2 12 9 12 14 0 14 -30 11 -46 -6 -19 -18 -54 -20 -54 -2 0 9 -2 9 -8 0 -11 -17 -62 -28 -62 -13 0 6 -5 8 -12 4 -6 -4 -85 -9 -174 -11 -135 -3 -165 -1 -177 12 -17 16 -32 20 -23 6 3 -5 -11 -11 -32 -14 -52 -9 -485 -9 -553 -1 -65 8 -93 -10 -83 -52 4 -14 1 -31 -6 -39 -9 -10 -9 -15 -1 -15 7 0 11 -21 11 -54 0 -30 5 -58 10 -61 6 -4 7 -12 3 -18 -13 -20 -12 -171 1 -179 8 -6 7 -11 -4 -18 -12 -8 -13 -13 -2 -30 7 -11 8 -20 4 -20 -5 0 -9 -27 -10 -60 -1 -33 2 -60 7 -60 12 0 13 -88 1 -95 -8 -5 -8 -11 0 -19 6 -9 7 -34 2 -74 -5 -34 -5 -68 0 -76 5 -9 5 -24 -2 -35 -7 -13 -7 -22 0 -26 14 -9 12 -119 -2 -133 -9 -9 -10 -15 -2 -20 15 -10 25 -42 17 -55 -4 -7 -6 -45 -5 -84 1 -40 -2 -73 -6 -73 -4 0 -8 -9 -9 -20 -1 -11 2 -20 8 -20 5 0 9 -11 9 -25 0 -19 -5 -25 -22 -25 l-23 -1 22 -18 c25 -21 30 -47 11 -53 -9 -3 -8 -10 3 -26 16 -22 14 -92 -2 -92 -5 0 -9 -7 -9 -15 0 -8 5 -15 12 -15 8 0 9 -3 1 -11 -5 -5 -22 -7 -36 -4 -29 8 -32 39 -6 56 11 7 10 9 -6 9 -19 1 -19 1 -2 14 20 16 22 26 4 26 -33 0 -36 68 -4 117 4 6 1 14 -5 17 -9 3 -8 8 5 16 23 15 22 30 -4 30 -15 0 -19 5 -15 15 3 8 1 27 -4 41 -7 17 -7 31 -1 38 8 10 8 51 1 76 -7 21 1 127 11 154 11 29 10 36 -4 51 -16 16 -16 18 0 45 13 22 14 32 5 43 -15 17 -25 124 -13 131 10 6 5 65 -9 100 -5 13 -6 27 -2 31 8 8 9 175 1 175 -5 0 -4 33 5 180 1 19 -2 41 -8 48 -6 8 -5 21 3 35 9 17 9 30 2 51 -8 18 -8 33 -1 46 7 14 6 23 -6 35 -13 13 -14 21 -6 40 17 37 61 54 137 54 36 -1 69 2 73 6 9 8 145 -6 159 -17z m3052 -24 c2 -2 2 -6 -1 -9 -9 -9 -88 7 -82 17 5 8 72 1 83 -8z m28166 -1644 c3 -5 1 -10 -6 -10 -6 0 -9 -8 -6 -20 6 -23 -5 -33 -27 -24 -19 7 -21 50 -3 57 20 9 35 8 42 -3z m-31498 -37 c-3 -5 0 -19 6 -33 13 -34 17 -88 8 -125 -5 -17 -4 -41 0 -53 5 -12 4 -33 -1 -46 -5 -15 -4 -31 4 -47 7 -15 9 -35 5 -51 -4 -16 -3 -28 3 -30 10 -4 -10 -58 -25 -69 -5 -4 -4 -10 2 -13 6 -4 11 -26 11 -50 0 -23 5 -47 12 -54 9 -9 9 -12 -1 -12 -10 0 -11 -10 -6 -37 11 -63 15 -183 6 -183 -4 0 -6 -19 -4 -42 5 -43 5 -60 1 -88 -1 -8 2 -32 6 -54 6 -27 5 -40 -4 -46 -9 -5 -9 -13 -2 -26 15 -29 18 -136 4 -161 -9 -16 -9 -23 -2 -23 7 0 9 -8 5 -20 -4 -12 -1 -27 5 -35 9 -11 10 -19 1 -28 -6 -8 -8 -17 -4 -20 9 -10 10 -129 1 -149 -4 -9 -4 -19 0 -22 13 -8 7 -113 -7 -130 -9 -11 -9 -15 0 -18 14 -5 22 -217 9 -238 -4 -7 -2 -34 5 -61 8 -30 10 -51 4 -55 -6 -3 -7 -14 -4 -23 12 -38 9 -279 -4 -294 -6 -9 -8 -18 -4 -20 10 -6 18 -133 14 -217 -3 -63 -3 -63 1 -185 2 -49 6 -95 10 -101 4 -7 2 -32 -6 -57 -8 -25 -12 -48 -10 -50 6 -6 16 -68 14 -89 -2 -29 -1 -78 2 -171 2 -49 0 -91 -3 -93 -5 -3 -3 -85 3 -112 3 -17 -15 -61 -28 -66 -8 -3 -14 -2 -14 3 0 5 -10 11 -22 14 -16 5 -19 9 -10 19 13 16 11 76 -2 97 -6 10 -2 20 14 33 13 11 20 22 14 26 -5 4 -15 19 -23 34 -11 22 -12 30 -1 43 9 11 10 18 1 29 -13 15 -12 84 1 92 12 7 10 54 -2 54 -5 0 -10 7 -10 15 0 8 5 15 10 15 7 0 7 6 1 18 -12 24 -12 390 1 398 7 4 6 9 -1 14 -8 5 -12 61 -12 188 1 129 -2 182 -10 182 -8 0 -9 15 -4 48 11 72 13 135 3 154 -6 12 -3 26 7 42 11 17 13 26 5 31 -6 4 -9 13 -6 21 3 7 2 16 -3 18 -11 7 -13 84 -2 91 5 3 5 17 -2 34 -8 23 -8 36 2 54 7 14 10 31 6 38 -12 19 -15 179 -4 200 7 14 6 19 -2 19 -8 0 -8 4 1 15 9 10 9 15 1 15 -7 0 -11 24 -11 65 0 36 4 65 9 65 19 0 18 50 -1 67 -18 16 -18 18 -3 29 15 11 15 18 5 48 -6 20 -8 41 -4 48 11 17 12 48 3 53 -13 8 -9 199 4 207 9 6 9 8 0 8 -7 0 -13 9 -13 20 0 11 5 20 12 20 6 0 3 10 -8 21 -10 12 -14 24 -9 25 6 3 9 39 7 90 -3 64 0 89 10 95 10 7 10 9 1 9 -7 0 -13 12 -13 26 0 18 6 28 22 32 l22 5 -22 8 c-18 7 -22 17 -24 54 -3 96 -5 122 -12 174 -5 37 -4 56 4 61 9 6 9 13 1 29 -6 11 -9 31 -5 44 3 14 6 48 8 76 1 33 7 56 16 61 18 12 43 13 37 3z m31496 -47 c13 -13 21 -88 17 -151 -1 -11 -1 -28 -1 -37 1 -24 1 -37 1 -143 0 -49 1 -101 1 -115 1 -14 -1 -108 -4 -210 -2 -102 -1 -190 4 -196 5 -6 9 -24 10 -40 2 -34 -11 -177 -17 -183 -2 -2 2 -11 8 -19 19 -23 19 -171 0 -204 -12 -21 -13 -31 -3 -55 6 -16 9 -45 5 -67 -4 -27 -2 -41 8 -47 10 -7 7 -13 -12 -28 l-25 -20 28 -10 c22 -9 27 -15 22 -31 -3 -11 -8 -38 -10 -60 -2 -22 -6 -44 -10 -50 -3 -5 1 -20 9 -31 9 -14 13 -33 9 -50 -3 -18 0 -36 8 -46 11 -13 11 -17 2 -20 -8 -3 -13 -21 -13 -42 0 -40 -15 -62 -36 -54 -8 3 -14 0 -14 -6 0 -6 -4 -11 -10 -11 -6 0 -10 58 -10 155 0 97 -4 155 -10 155 -5 0 -10 11 -10 25 0 14 5 25 10 25 13 0 13 67 0 75 -7 4 -2 14 12 26 19 17 20 22 8 29 -8 6 -18 10 -22 10 -12 0 -10 30 1 30 14 0 10 213 -3 223 -7 4 -6 10 3 16 12 8 13 12 1 26 -10 12 -10 19 -2 27 15 15 15 55 1 64 -8 4 -8 9 0 17 15 15 14 57 -1 57 -6 0 -3 9 8 21 18 20 18 22 1 34 -20 15 -24 85 -4 85 8 0 8 3 -2 9 -19 12 -19 184 -1 206 10 12 10 18 -1 31 -10 13 -10 17 2 25 10 7 11 11 2 17 -8 5 -12 44 -12 122 -1 63 -2 135 -3 160 -5 121 -2 174 9 177 10 4 10 9 0 24 -10 16 -9 22 3 30 11 8 12 12 3 16 -7 2 -13 9 -13 14 0 14 37 11 53 -5z m17 -1941 c0 -8 4 -15 10 -15 5 0 8 -16 6 -35 -1 -20 4 -44 11 -55 7 -10 9 -21 5 -24 -11 -7 -13 -168 -2 -181 13 -15 6 -46 -13 -60 -11 -8 -13 -15 -6 -22 5 -5 12 -43 15 -84 7 -96 7 -98 0 -139 -4 -22 -1 -37 7 -42 9 -6 9 -12 0 -27 -9 -15 -10 -28 -3 -46 14 -36 10 -124 -7 -157 -14 -29 -53 -39 -53 -14 0 8 -6 17 -12 19 -9 4 -10 8 -2 14 6 4 13 16 17 25 4 12 2 15 -9 11 -11 -4 -14 7 -14 61 0 37 4 66 10 66 15 0 12 40 -2 41 -9 0 -9 2 1 6 11 5 11 7 0 14 -12 8 -11 11 1 19 12 8 13 13 2 30 -7 12 -8 20 -2 20 5 0 10 11 10 25 0 14 -4 25 -10 25 -5 0 -10 20 -10 45 0 25 5 45 10 45 14 0 12 47 -2 54 -10 5 -10 7 0 12 14 7 17 94 2 94 -5 0 -9 25 -8 55 1 30 5 55 10 55 4 0 8 -7 8 -15 0 -8 4 -15 10 -15 6 0 6 10 -1 28 -6 15 -11 42 -11 60 0 17 -4 32 -9 32 -14 0 -11 30 4 31 10 0 10 2 0 6 -7 2 -13 9 -13 14 0 14 23 38 38 39 6 0 12 -7 12 -15z m30 -1002 c7 -31 8 -58 3 -62 -12 -9 -14 -69 -3 -76 16 -10 12 -37 -7 -50 -14 -10 -15 -16 -6 -27 13 -16 6 -58 -9 -58 -6 0 0 -9 13 -20 22 -18 22 -21 7 -30 -15 -10 -16 -14 -2 -61 13 -42 13 -56 2 -87 -15 -47 -16 -55 -4 -64 14 -9 19 -168 6 -168 -16 0 -12 -14 11 -39 15 -16 18 -25 10 -35 -13 -15 -13 -146 0 -146 5 0 9 -7 9 -15 0 -8 -4 -15 -9 -15 -14 0 -12 -368 2 -392 10 -16 9 -22 -1 -25 -10 -4 -10 -8 -2 -18 9 -11 7 -19 -9 -36 -23 -25 -26 -35 -11 -44 6 -3 10 -24 10 -46 0 -21 6 -48 12 -59 10 -16 10 -24 0 -40 -7 -11 -8 -20 -4 -20 9 0 8 -140 -1 -175 -3 -11 -6 -26 -6 -32 -1 -7 -12 -13 -26 -13 -25 0 -25 1 -25 85 0 47 -4 85 -9 85 -11 0 -11 49 1 56 5 3 3 13 -4 22 -10 12 -10 16 0 19 6 3 12 16 12 29 0 13 -6 24 -12 24 -9 0 -9 3 -3 8 14 9 18 72 5 72 -5 0 -10 9 -10 20 0 11 4 20 9 20 5 0 5 13 -2 29 -6 16 -7 36 -2 47 11 24 12 74 3 74 -14 0 -9 168 5 174 10 5 10 7 0 12 -17 7 -17 41 -1 46 10 4 10 13 1 41 -6 20 -8 37 -3 37 4 0 8 18 8 40 0 22 -3 40 -8 40 -5 0 -9 73 -9 165 0 119 3 165 11 165 9 0 9 3 0 12 -7 7 -12 22 -12 34 0 12 -6 25 -12 28 -10 5 -10 7 0 12 8 4 12 31 12 85 0 56 4 79 13 79 7 0 8 3 2 8 -5 4 -11 34 -13 67 -1 33 -7 62 -12 63 -13 5 -13 39 0 47 6 3 10 17 10 30 0 13 -4 27 -10 30 -5 3 -10 19 -10 35 0 16 5 32 10 35 6 3 10 15 10 25 0 22 20 31 37 18 7 -5 17 -35 23 -65z m-31493 -555 c-20 -13 -57 -9 -57 5 0 8 10 18 22 24 18 8 26 6 35 -6 9 -12 9 -18 0 -23z m2 -42 c13 -31 12 -258 0 -273 -7 -7 -5 -23 4 -46 8 -19 11 -40 7 -47 -4 -7 -5 -21 -2 -32 2 -11 -2 -31 -9 -45 -11 -21 -11 -27 -1 -30 16 -6 17 -123 1 -123 -8 0 -8 -4 -1 -12 5 -7 10 -69 11 -138 1 -68 6 -129 11 -134 6 -6 6 -14 -1 -22 -5 -6 -9 -25 -9 -40 1 -92 -2 -140 -10 -148 -6 -6 -5 -15 2 -23 6 -8 11 -29 10 -48 -1 -19 3 -35 8 -35 13 0 13 -57 0 -65 -14 -9 -13 -48 2 -63 9 -9 9 -12 0 -12 -15 0 -16 -32 -1 -47 8 -8 7 -17 -3 -32 -10 -17 -10 -25 0 -41 13 -22 16 -50 5 -50 -11 0 -14 -101 -4 -114 13 -17 12 -88 -1 -104 -8 -10 -9 -15 -1 -20 13 -8 16 -192 3 -192 -5 0 -8 -9 -7 -20 1 -11 5 -20 9 -20 4 0 8 -11 8 -25 0 -14 -6 -25 -12 -25 -10 0 -10 -2 0 -8 7 -5 13 -29 14 -55 0 -28 5 -47 12 -47 7 0 7 -3 -1 -8 -8 -5 -13 -36 -14 -85 -1 -42 -5 -77 -11 -77 -5 0 -6 -6 -1 -12 12 -21 13 -41 1 -56 -8 -9 -8 -19 2 -37 11 -20 11 -27 -1 -41 -11 -13 -11 -18 -1 -21 8 -3 12 -28 12 -79 0 -52 4 -74 13 -74 9 0 8 -3 -2 -9 -8 -5 -11 -16 -7 -29 4 -12 1 -26 -9 -35 -10 -10 -11 -17 -3 -19 7 -3 10 -31 9 -81 -1 -49 2 -77 8 -77 6 0 11 -7 11 -15 0 -8 -5 -15 -12 -15 -9 0 -9 -3 0 -12 14 -14 16 -78 2 -78 -5 0 -10 -9 -10 -20 0 -11 5 -20 10 -20 14 0 12 -37 -2 -43 -10 -4 -10 -8 -2 -14 17 -12 18 -383 1 -383 -9 0 -9 -2 1 -8 7 -5 13 -33 13 -75 1 -37 5 -70 11 -73 5 -4 5 -10 -1 -18 -5 -6 -11 -72 -12 -145 -1 -103 2 -135 12 -142 10 -6 11 -9 2 -9 -17 0 -17 -47 0 -53 9 -4 9 -7 -1 -18 -16 -17 -16 -46 1 -53 9 -5 9 -7 -1 -12 -17 -8 -17 -210 1 -218 10 -5 10 -7 0 -12 -15 -7 -17 -68 -3 -94 7 -13 7 -21 0 -25 -13 -8 -13 -55 0 -55 6 0 10 -13 10 -30 0 -16 -5 -30 -10 -30 -6 0 -9 -20 -8 -45 0 -25 5 -45 10 -45 5 0 8 -57 7 -127 -2 -124 -9 -153 -37 -153 -18 0 -49 64 -42 85 4 11 5 23 3 28 -10 17 -14 147 -4 147 6 0 8 6 5 13 -3 8 0 26 6 42 8 21 7 32 -3 44 -9 11 -12 34 -10 71 7 90 6 146 -1 158 -3 5 -5 64 -4 129 2 156 -4 273 -14 279 -4 3 -4 13 1 22 12 24 13 215 1 247 -7 19 -7 31 0 40 11 14 14 71 5 130 -11 75 -13 120 -5 130 15 20 18 133 5 172 -8 23 -10 42 -4 47 11 12 12 93 1 100 -5 3 -9 44 -9 91 -1 64 2 85 12 85 10 0 12 7 6 28 -4 15 -6 32 -4 39 2 6 -1 14 -6 18 -14 8 -14 62 -1 70 8 5 8 11 1 19 -8 9 -6 18 7 32 18 18 18 20 -1 54 -12 22 -15 36 -8 38 14 5 14 35 1 48 -6 6 -10 78 -11 177 0 120 -3 167 -11 167 -9 0 -9 3 0 12 7 7 12 27 12 45 0 18 5 33 10 33 6 0 10 9 10 20 0 11 -5 20 -11 20 -7 0 -9 11 -6 28 3 15 1 44 -5 64 -9 30 -8 42 5 62 10 15 13 27 7 31 -6 3 -10 35 -10 70 0 35 -4 66 -9 70 -12 7 -9 43 6 69 11 20 6 56 -8 56 -5 0 -8 36 -8 80 1 48 5 80 11 80 6 0 8 12 4 30 -4 22 0 36 13 49 19 19 19 19 -5 25 -25 7 -32 34 -13 53 7 7 7 23 -2 54 -10 33 -11 43 -1 47 15 5 16 74 0 90 -9 9 -7 13 6 18 13 5 14 9 5 20 -16 20 -22 83 -9 99 8 10 8 15 0 20 -6 4 -7 12 -3 18 9 12 8 38 -3 95 -4 20 -1 38 7 48 9 11 9 18 2 22 -7 4 -11 52 -12 121 -1 63 -7 121 -12 127 -15 18 -7 66 14 86 10 9 14 19 9 22 -5 3 -10 58 -11 123 -1 65 -7 123 -13 130 -6 7 -7 21 -3 30 5 10 10 38 12 63 2 24 9 48 16 52 22 14 37 9 46 -16z m31505 -1289 c16 -15 19 -79 4 -88 -6 -4 -7 -13 -3 -20 16 -25 21 -125 7 -143 -18 -22 -23 -66 -9 -66 19 0 23 -110 4 -122 -9 -6 -9 -10 2 -17 9 -6 14 -24 13 -46 -1 -21 3 -46 9 -57 8 -14 7 -23 -2 -34 -19 -23 -18 -54 0 -54 10 0 12 -3 5 -8 -6 -4 -11 -14 -12 -22 -3 -46 -3 -58 -1 -93 0 -20 5 -40 10 -43 12 -7 11 -44 -1 -44 -15 0 -12 -48 3 -53 9 -3 9 -9 -1 -26 -10 -18 -10 -26 -1 -37 8 -10 8 -14 0 -14 -6 0 -11 -9 -11 -19 0 -11 -6 -21 -12 -24 -9 -3 -7 -9 6 -19 12 -9 16 -20 11 -28 -4 -7 -2 -16 6 -20 10 -7 10 -11 -1 -25 -10 -12 -10 -19 -2 -27 16 -16 15 -65 0 -71 -10 -4 -10 -8 -2 -14 17 -12 18 -344 2 -354 -8 -5 -9 -11 -1 -21 6 -7 11 -49 12 -92 1 -52 6 -83 14 -88 9 -6 9 -10 -2 -17 -7 -5 -11 -13 -7 -19 3 -6 2 -13 -4 -17 -6 -4 -7 -13 -2 -23 12 -23 5 -273 -8 -286 -6 -6 -5 -15 3 -24 9 -12 9 -16 0 -19 -15 -5 -17 -39 -3 -48 6 -3 10 -28 10 -54 0 -26 5 -52 11 -58 8 -8 8 -17 -1 -33 -10 -18 -9 -24 1 -31 12 -8 12 -10 0 -18 -11 -7 -12 -17 -4 -48 5 -21 8 -56 6 -78 -2 -22 -5 -87 -8 -144 -4 -102 -10 -120 -41 -121 -6 0 -15 15 -19 33 -12 47 -13 230 -2 245 6 7 6 12 0 12 -5 0 -10 20 -10 44 -1 34 3 46 16 49 13 4 11 6 -6 12 -18 6 -22 12 -17 31 10 39 11 178 2 197 -6 11 -5 17 2 17 8 0 9 11 5 30 -4 18 -2 36 4 44 8 10 8 22 -2 47 -12 30 -16 71 -21 248 -1 24 4 55 11 69 8 14 10 28 5 31 -4 3 -8 39 -7 79 0 41 -3 76 -7 78 -12 8 -3 167 10 172 9 3 10 8 2 17 -7 8 -7 21 -1 38 7 18 7 27 -2 30 -14 4 -19 159 -5 168 16 11 17 48 1 79 -12 24 -12 34 -3 45 9 11 9 19 2 28 -15 17 -11 88 6 105 16 17 15 37 -1 51 -14 11 -16 63 -4 91 8 18 4 81 -5 96 -4 6 -7 55 -6 110 1 69 -3 106 -13 122 -13 21 -12 25 14 47 30 27 33 35 13 35 -11 0 -15 16 -14 74 0 41 -2 78 -5 83 -2 4 -1 17 3 28 5 13 2 26 -8 38 -10 12 -11 17 -3 17 9 0 11 9 6 32 -6 26 -3 34 16 49 29 22 27 22 43 6z m28 -2849 c20 -16 24 -36 13 -62 -6 -13 -4 -21 3 -24 15 -5 16 -68 2 -77 -8 -5 -7 -12 2 -22 15 -19 15 -126 -1 -131 -8 -3 -8 -9 0 -23 8 -15 7 -24 -2 -35 -10 -12 -10 -17 -1 -23 17 -10 18 -111 2 -121 -9 -5 -9 -9 -1 -14 6 -4 11 -27 11 -51 0 -24 5 -47 10 -50 6 -4 7 -13 1 -23 -11 -22 -11 -191 1 -198 11 -7 10 -54 -1 -54 -5 0 -8 -42 -7 -93 1 -66 -3 -102 -14 -121 -12 -23 -12 -29 0 -36 21 -13 23 -50 2 -51 -13 -1 -13 -2 -2 -5 12 -4 15 -21 13 -90 -1 -47 -4 -92 -7 -99 -3 -8 0 -17 5 -21 6 -3 8 -15 6 -26 -3 -11 -1 -33 5 -50 8 -23 8 -36 -1 -50 -8 -13 -9 -23 -2 -32 13 -15 15 -68 6 -121 -7 -45 -7 -46 -1 -95 2 -19 -1 -41 -6 -47 -7 -9 -7 -13 1 -13 13 0 15 -56 2 -64 -8 -5 -7 -16 5 -82 3 -18 1 -34 -5 -38 -7 -4 -7 -15 -1 -31 6 -16 6 -27 -1 -31 -8 -4 -7 -9 2 -15 12 -8 12 -10 1 -18 -11 -7 -11 -12 -1 -28 7 -13 9 -28 4 -39 -5 -11 -7 -23 -6 -27 0 -4 -8 -17 -19 -29 -20 -21 -20 -21 -35 -2 -17 23 -18 31 -5 39 6 3 10 15 10 26 0 10 -4 19 -10 19 -5 0 -10 14 -10 30 0 24 4 30 23 31 l22 0 -23 11 c-22 11 -23 15 -21 130 1 66 -1 122 -5 125 -12 12 -6 52 11 68 16 16 16 18 0 27 -15 8 -16 12 -2 45 14 33 14 38 -1 54 -12 14 -15 30 -10 68 3 29 2 52 -4 56 -6 4 -7 13 -1 23 13 25 19 131 8 135 -6 2 -5 12 2 26 9 16 9 26 1 36 -8 9 -7 17 5 28 10 11 12 18 4 22 -7 5 -7 11 -1 17 7 7 3 22 -10 44 -14 24 -17 38 -10 47 7 9 8 100 1 144 -5 28 3 53 16 53 22 0 18 17 -6 23 -18 5 -20 12 -18 59 1 29 7 59 12 66 8 10 7 19 -1 32 -8 13 -8 21 -1 25 6 4 6 11 1 18 -14 17 -26 127 -14 127 13 0 22 39 11 46 -11 6 -12 44 -1 44 10 0 9 53 -1 61 -9 7 -10 36 -7 159 1 41 1 80 -1 85 -1 6 1 26 5 45 4 19 3 47 -2 61 -11 29 -7 40 23 57 11 6 14 12 7 12 -7 0 -11 4 -7 9 3 5 1 12 -5 16 -11 7 -4 25 9 25 4 0 14 -6 23 -12z m-31489 -797 c24 -9 24 -12 25 -122 1 -75 -3 -118 -11 -128 -9 -11 -9 -15 1 -19 9 -3 12 -57 12 -236 -1 -127 2 -241 5 -251 5 -14 4 -16 -2 -7 -5 7 -24 14 -41 15 -32 2 -40 15 -22 33 6 6 6 22 0 43 -5 19 -8 56 -5 82 2 27 -1 52 -7 55 -5 3 -7 16 -4 28 3 11 6 56 7 99 1 43 5 96 9 118 5 26 3 44 -4 52 -13 13 -14 217 -1 236 8 13 8 13 38 2z m25 -879 c2 -65 -1 -102 -8 -102 -5 0 -10 -11 -10 -25 0 -14 5 -25 10 -25 15 0 12 -20 -5 -26 -34 -13 -44 19 -44 141 -1 121 7 149 38 143 13 -3 17 -21 19 -106z m9 -207 c3 -9 -2 -24 -11 -34 -10 -11 -13 -22 -8 -25 13 -8 22 -72 15 -106 -7 -38 -30 -45 -53 -18 -15 19 -18 34 -14 83 3 33 10 65 16 72 6 7 8 20 4 28 -4 11 1 15 20 15 13 0 27 -7 31 -15z m-9 -241 c5 -9 7 -47 4 -85 -2 -38 0 -74 5 -81 9 -13 9 -58 -1 -85 -3 -7 -19 -13 -36 -13 l-31 0 2 85 c1 47 5 85 10 85 10 0 7 63 -4 71 -13 10 4 39 24 39 10 0 22 -7 27 -16z m31486 -178 c-19 -15 -19 -15 1 -30 20 -15 19 -15 -5 -16 -14 0 -32 4 -39 9 -12 8 -11 13 10 30 13 11 30 20 38 21 11 0 9 -4 -5 -14z m12 -138 c-3 -15 -1 -30 4 -33 13 -8 11 -116 -2 -132 -7 -9 -6 -18 2 -28 13 -16 8 -19 -25 -15 -37 4 -46 21 -44 79 1 31 6 64 11 73 5 10 4 19 -2 23 -19 12 -11 63 10 70 11 3 20 12 20 18 0 7 8 3 16 -8 9 -12 13 -31 10 -47z m-31506 31 c11 -8 12 -12 3 -16 -17 -6 -16 -21 1 -38 10 -10 13 -44 12 -135 -1 -67 1 -123 3 -126 9 -9 8 -49 -1 -60 -5 -7 -7 -18 -6 -25 2 -8 -7 -15 -19 -17 -25 -4 -30 7 -12 25 9 9 8 16 -3 27 -9 9 -13 25 -11 40 3 14 1 26 -5 26 -12 0 -11 254 1 266 4 4 7 16 7 26 0 20 8 22 30 7z m31502 -259 c5 0 7 -12 3 -30 -5 -23 -3 -30 9 -30 25 0 27 -15 12 -83 -7 -36 -10 -69 -6 -74 5 -4 10 -21 12 -38 2 -24 -1 -30 -22 -35 -25 -6 -50 9 -50 29 0 6 -6 20 -12 31 -10 16 -10 22 -1 28 6 4 11 30 10 60 0 36 4 57 14 63 9 6 10 12 4 17 -5 4 -10 22 -11 40 -1 25 2 32 13 28 8 -4 19 -6 25 -6z m-31489 -208 c12 -13 14 -21 6 -29 -7 -7 -6 -18 2 -37 11 -22 10 -29 -1 -36 -11 -7 -11 -18 0 -68 12 -59 9 -189 -5 -225 -4 -10 -2 -24 5 -32 7 -9 10 -27 7 -43 -3 -16 -2 -55 2 -88 5 -33 5 -64 0 -70 -5 -6 -6 -13 -3 -17 10 -10 15 -229 5 -241 -11 -13 -7 -90 6 -126 6 -14 7 -50 4 -80 -6 -54 9 -110 29 -110 5 0 7 -7 4 -15 -5 -12 2 -15 29 -15 20 0 39 -5 43 -11 9 -16 -110 -6 -149 11 -26 13 -39 50 -17 50 14 0 12 37 -2 44 -10 5 -10 7 0 12 14 7 16 70 2 79 -5 3 -10 17 -10 31 0 18 5 24 23 24 l22 1 -21 17 c-22 19 -29 77 -11 99 6 9 6 13 -2 13 -14 0 -13 188 1 196 5 3 5 11 -1 18 -6 7 -11 40 -13 75 -1 34 -5 64 -9 67 -9 5 12 66 25 76 6 4 4 13 -3 22 -19 23 -23 286 -4 286 17 0 17 16 1 24 -10 5 -10 7 0 12 15 7 16 84 1 84 -5 0 -7 5 -4 10 9 15 20 12 38 -8z m31476 -101 c7 -5 11 -13 7 -19 -3 -5 4 -12 15 -15 20 -5 21 -10 14 -54 -4 -26 -7 -59 -6 -72 0 -13 -4 -30 -10 -37 -9 -11 -7 -14 11 -14 14 0 20 -5 17 -12 -19 -46 -19 -48 -3 -48 9 0 16 -7 16 -15 0 -8 -8 -15 -17 -15 -13 0 -14 -3 -6 -11 6 -6 9 -26 6 -45 -4 -22 -2 -34 6 -34 11 0 10 -55 -2 -66 -3 -3 -3 -12 0 -20 3 -9 -1 -14 -12 -14 -9 0 -14 -4 -11 -9 4 -5 0 -12 -6 -14 -9 -4 -7 -6 3 -6 11 -1 15 -9 14 -26 -2 -13 3 -45 11 -70 9 -32 10 -53 4 -71 -6 -16 -6 -32 -1 -43 5 -9 7 -45 4 -79 -5 -48 -11 -66 -27 -78 -14 -10 -16 -15 -6 -13 37 4 40 0 34 -48 -8 -68 -16 -74 -93 -72 -36 0 -106 -5 -156 -11 -67 -9 -102 -9 -138 -1 -27 6 -82 11 -124 11 -55 0 -74 3 -70 13 2 6 8 12 13 13 5 0 21 4 37 8 16 5 32 4 40 -2 9 -8 27 -7 63 4 53 16 156 19 272 8 63 -6 72 -5 72 10 0 9 3 16 8 16 9 0 8 52 -2 68 -4 7 -6 52 -5 101 1 49 -1 93 -5 99 -3 6 2 15 11 21 10 6 13 11 7 11 -15 0 -15 232 0 243 8 6 7 10 -1 14 -7 2 -13 13 -13 24 0 11 6 28 13 39 10 17 9 22 -1 29 -8 5 -12 21 -10 40 2 19 -3 35 -11 40 -9 6 -10 11 -2 15 15 9 14 69 -1 84 -8 8 -8 15 1 26 7 8 10 19 7 25 -4 5 1 16 9 24 17 18 20 37 5 37 -5 0 -10 5 -10 10 0 12 10 13 29 1z m-1331 -993 c8 -8 18 -9 36 0 13 6 27 8 30 5 3 -3 37 -6 76 -6 49 0 70 -3 70 -12 0 -16 -61 -25 -130 -19 -30 3 -100 5 -155 5 -109 0 -112 15 -6 29 31 4 58 8 62 9 3 0 10 -4 17 -11z m527 -17 c-9 -16 -25 -3 -18 15 4 10 9 12 15 6 6 -6 7 -15 3 -21z m-4725 5 c31 -13 32 -14 13 -24 -13 -7 -31 -8 -51 -2 -51 14 -60 23 -32 31 36 10 35 10 70 -5z m652 1 c20 3 44 1 54 -5 14 -8 6 -11 -41 -17 -33 -3 -72 -9 -87 -11 -23 -5 -28 -2 -28 14 0 23 26 33 51 21 9 -5 32 -6 51 -2z m156 -16 c-2 -10 -15 -17 -36 -19 -28 -3 -32 0 -32 20 0 22 4 24 36 20 26 -3 34 -9 32 -21z m176 23 c9 -3 16 -10 16 -15 0 -11 -67 -29 -112 -29 -31 0 -38 4 -38 19 0 16 5 18 39 14 21 -3 47 0 57 6 23 13 19 12 38 5z m509 -13 c16 -16 6 -21 -52 -28 -35 -4 -51 -2 -51 6 0 7 -9 9 -26 5 -17 -4 -29 -2 -34 7 -6 9 -12 10 -22 2 -8 -7 -74 -14 -150 -18 -133 -6 -136 -6 -131 14 6 25 19 26 262 24 119 -1 198 -6 204 -12z m207 -1 c0 -11 -2 -20 -4 -20 -2 0 -11 -3 -20 -6 -11 -4 -16 0 -16 14 0 18 11 29 33 31 4 1 7 -8 7 -19z m114 8 c-8 -12 17 -20 30 -9 7 6 16 8 19 4 17 -17 2 -22 -58 -21 -43 2 -65 6 -65 14 0 7 6 14 13 17 18 7 66 3 61 -5z m211 0 c67 -2 115 -7 122 -14 19 -18 -156 -25 -178 -7 -16 14 -49 8 -49 -8 0 -5 -4 -9 -10 -9 -5 0 -10 7 -10 15 0 8 -4 15 -10 15 -5 0 -10 5 -10 11 0 6 8 8 18 5 10 -3 67 -7 127 -8z m498 3 c4 -1 7 -7 7 -15 0 -14 -113 -31 -132 -20 -5 3 -45 5 -89 5 -43 0 -79 2 -79 5 0 23 41 31 159 28 69 -1 129 -2 134 -3z m357 -8 c0 -14 -97 -28 -142 -19 -18 3 -49 2 -68 -3 -20 -4 -56 -5 -80 -2 l-45 7 30 16 c24 13 57 16 168 15 99 -1 137 -5 137 -14z m60 -4 c0 -5 -9 -9 -20 -9 -11 0 -20 6 -20 14 0 9 7 12 20 9 11 -3 20 -9 20 -14z m170 11 c20 -12 12 -18 -38 -26 -35 -5 -42 -4 -42 10 0 20 -7 20 -26 1 -17 -16 -34 -20 -34 -7 0 25 108 42 140 22z m289 -4 c10 -12 6 -15 -18 -21 -31 -7 -51 -1 -51 15 0 8 20 16 46 19 6 0 17 -5 23 -13z m108 3 c26 -10 26 -12 8 -19 -21 -7 -65 7 -65 22 0 11 23 10 57 -3z m84 1 c5 0 9 -4 9 -10 0 -16 -37 -11 -44 6 -5 12 -2 15 10 10 8 -3 20 -6 25 -6z m379 -5 c0 -8 -6 -15 -12 -16 -29 -2 -193 3 -197 6 -13 13 21 20 108 23 85 2 101 0 101 -13z m526 0 c-10 -8 -23 -12 -28 -9 -14 9 2 24 25 24 21 -1 21 -1 3 -15z m325 -2 c13 -15 12 -15 -6 -6 -11 6 -27 13 -35 16 -10 4 -8 6 6 6 12 1 28 -6 35 -16z m155 -2 c15 -9 6 -11 -45 -9 -37 2 -66 8 -68 14 -5 15 87 11 113 -5z m-7369 -17 c20 -20 16 -24 -24 -24 -21 0 -103 -1 -183 -3 -80 -1 -148 2 -151 7 -4 5 -13 5 -20 0 -18 -11 -669 -13 -669 -2 0 5 -8 4 -19 -1 -10 -6 -122 -10 -267 -11 -137 0 -262 0 -279 0 -46 -1 -75 9 -75 25 0 19 -21 17 230 21 174 2 221 0 245 -12 27 -13 31 -13 40 0 8 13 13 13 37 -2 24 -14 30 -15 37 -3 6 10 39 15 115 18 89 3 107 2 112 -11 5 -13 22 -15 85 -13 43 1 79 5 79 9 0 4 8 7 18 7 9 1 46 3 81 6 35 2 69 1 75 -2 14 -9 86 -11 86 -3 0 3 57 5 128 5 70 -1 141 2 157 5 45 9 147 -1 162 -16z m330 12 c60 -1 115 1 124 6 12 5 18 2 23 -15 4 -13 9 -18 13 -11 20 28 113 26 113 -2 0 -11 -34 -14 -177 -14 -98 0 -196 -1 -218 -2 -39 -2 -45 1 -45 22 0 12 41 30 52 23 4 -2 56 -5 115 -7z m629 -2 c21 -5 44 -7 50 -6 6 1 17 -4 23 -12 11 -13 2 -14 -61 -10 -40 3 -80 4 -88 3 -8 -1 -45 -2 -83 -3 -37 0 -67 -4 -67 -8 0 -9 -66 -10 -98 -2 -22 6 -22 8 -6 25 20 22 42 24 78 8 19 -9 29 -9 40 0 11 10 20 10 37 1 12 -7 19 -8 15 -2 -12 19 76 22 160 6z m215 6 c30 -16 24 -40 -10 -40 -33 0 -44 11 -35 34 7 19 18 20 45 6z m116 -9 c15 -24 8 -31 -31 -31 -19 0 -38 8 -49 20 -24 28 -22 30 26 30 31 0 45 -5 54 -19z m131 1 c19 -12 27 -13 30 -4 5 16 22 15 22 -2 0 -16 -33 -27 -51 -16 -7 5 -23 4 -36 -1 -32 -12 -73 -12 -54 0 11 7 9 10 -8 16 -12 3 -19 10 -16 15 9 14 87 9 113 -8z m565 4 c10 -5 23 -3 32 4 9 8 27 10 47 6 18 -4 41 -7 51 -7 29 0 20 -29 -10 -30 -283 -10 -293 -9 -293 7 0 14 -1 14 -16 0 -20 -20 -43 -20 -51 0 -3 9 -9 11 -12 6 -3 -5 -18 -12 -33 -16 -21 -5 -28 -3 -28 8 0 20 22 25 103 25 38 0 70 1 72 3 7 6 121 1 138 -6z m283 -1 l39 -13 -29 -8 c-20 -5 -31 -3 -34 4 -2 7 -8 10 -13 7 -5 -3 -20 0 -35 8 l-27 14 30 1 c17 0 48 -5 69 -13z m458 6 c3 -5 15 -7 26 -4 21 6 23 3 14 -21 -9 -25 -94 -2 -94 25 0 12 47 12 54 0z m1306 0 c0 -12 -39 -25 -48 -16 -7 7 17 25 36 25 6 0 12 -4 12 -9z m1630 -1 c0 -5 -9 -10 -20 -10 -11 0 -20 5 -20 10 0 6 9 10 20 10 11 0 20 -4 20 -10z m408 0 c6 0 12 -4 12 -10 0 -5 -18 -10 -40 -10 -38 0 -49 8 -33 24 4 4 17 5 28 2 11 -3 26 -6 33 -6z m-8635 -27 c-4 -11 2 -14 28 -11 21 2 33 8 32 16 -4 17 65 16 83 -2 8 -8 14 -19 14 -24 0 -15 -381 -8 -407 8 -18 12 -25 11 -47 -3 -27 -18 -102 -23 -126 -7 -9 5 -19 5 -27 -1 -15 -13 -55 -1 -50 14 2 7 16 16 31 22 21 7 29 6 36 -5 7 -12 13 -13 28 -4 11 7 77 12 172 13 85 1 155 3 156 4 2 1 21 1 43 -1 30 -3 38 -8 34 -19z m423 1 c-3 -7 0 -14 7 -17 7 -2 -11 -7 -38 -10 -51 -7 -155 16 -155 34 0 5 32 8 71 8 38 -1 72 1 75 4 10 10 45 -6 40 -19z m417 7 c34 -28 28 -30 -110 -34 -52 -2 -93 1 -93 6 0 5 -7 3 -16 -4 -14 -11 -18 -10 -31 6 -11 14 -17 16 -20 8 -7 -20 -23 -15 -23 7 0 16 8 19 58 22 131 7 219 3 235 -11z m1801 10 c3 -5 -6 -12 -20 -15 -29 -8 -39 -3 -29 13 8 13 42 14 49 2z m1454 0 c11 -6 10 -10 -4 -15 -10 -4 -24 0 -33 9 -14 13 -13 15 4 15 11 0 26 -4 33 -9z m92 -1 c9 -6 10 -10 3 -10 -6 0 -18 -3 -27 -6 -11 -4 -16 -1 -16 10 0 18 17 21 40 6z m880 -5 c0 -8 -7 -15 -15 -15 -8 0 -15 7 -15 15 0 8 7 15 15 15 8 0 15 -7 15 -15z m-8433 -18 c9 -10 -45 -27 -62 -21 -8 4 -15 2 -15 -3 0 -6 -34 -10 -75 -10 -55 0 -75 4 -77 14 -2 11 -10 10 -38 -5 -35 -19 -59 -18 -72 2 -5 7 -11 5 -20 -6 -15 -20 -68 -14 -68 8 0 19 -34 18 -73 -3 -42 -21 -182 -26 -202 -7 -10 10 -14 11 -17 2 -2 -6 -31 -13 -64 -16 -47 -3 -64 0 -77 12 -12 13 -21 14 -35 7 -13 -7 -22 -7 -29 0 -8 8 -18 7 -33 -1 -23 -12 -341 -19 -408 -8 -18 3 -35 1 -38 -4 -3 -4 -30 -8 -60 -8 -41 0 -54 4 -54 15 0 18 -16 20 -24 3 -3 -7 -4 -2 -3 12 1 17 9 26 25 28 12 2 22 -1 22 -6 0 -5 48 -7 108 -5 284 9 369 9 389 0 16 -7 27 -6 38 3 20 17 85 4 102 -20 13 -18 14 -18 38 6 23 23 31 24 120 23 74 -1 95 -4 95 -15 0 -18 15 -18 43 0 17 11 40 12 95 7 40 -4 76 -3 78 1 7 12 82 10 89 -2 4 -6 10 -8 15 -5 5 3 51 8 102 11 51 4 94 7 96 9 4 4 82 -12 89 -18z m337 13 c67 1 101 -2 106 -10 6 -9 13 -9 28 -1 16 9 33 8 68 0 34 -9 52 -9 64 -1 10 6 21 8 24 5 10 -10 59 -13 71 -4 5 5 38 8 73 8 52 0 62 -3 62 -18 0 -18 -38 -33 -54 -20 -6 4 -27 6 -46 4 -108 -10 -180 -11 -180 -1 0 7 -4 7 -12 1 -24 -19 -97 -22 -113 -6 -12 12 -19 12 -30 3 -15 -12 -199 -15 -231 -3 -16 6 -16 7 2 14 16 7 16 8 -7 8 -14 1 -34 -6 -45 -14 -21 -16 -104 -20 -104 -5 0 6 5 10 10 10 6 0 9 6 8 13 -4 15 65 24 147 19 33 -2 105 -3 159 -2z m790 4 c9 -3 16 -12 16 -19 0 -7 6 -15 13 -18 6 -2 9 -7 5 -11 -3 -4 -16 -2 -28 4 -12 6 -29 8 -38 5 -25 -11 -212 -15 -212 -5 0 5 -9 12 -20 15 -11 4 -18 11 -15 16 8 12 82 12 90 -1 8 -13 55 -13 55 0 0 6 17 10 40 8 22 -1 43 1 46 5 9 9 27 9 48 1z m96 -3 c0 -14 -18 -23 -31 -15 -8 4 -7 9 2 15 18 11 29 11 29 0z m142 0 c2 7 18 8 43 3 37 -7 38 -8 17 -17 -12 -6 -22 -13 -22 -18 0 -4 11 -2 25 4 14 7 25 18 25 25 0 6 2 12 5 12 12 0 55 -24 55 -32 0 -4 4 -8 9 -8 5 0 8 8 7 17 -1 16 16 18 204 18 236 0 294 -5 298 -27 4 -22 -44 -27 -238 -21 -91 3 -172 5 -180 4 -142 -11 -268 -11 -306 -1 -34 10 -48 10 -57 1 -13 -13 -37 -15 -37 -3 0 8 53 35 90 45 8 2 25 0 37 -4 13 -5 23 -4 25 2z m973 -7 c14 -15 55 -11 55 4 0 4 34 9 75 10 61 2 75 -1 75 -13 0 -9 -9 -15 -24 -15 -13 0 -26 -5 -28 -11 -2 -7 -34 -12 -78 -13 -92 -3 -130 3 -130 19 0 15 -62 18 -71 3 -5 -7 -14 -4 -29 9 l-21 21 80 0 c59 0 85 -3 96 -14z m409 6 c25 7 53 9 63 5 15 -5 12 -10 -17 -25 -44 -23 -210 -27 -210 -5 0 16 102 36 112 21 4 -5 24 -4 52 4z m-4850 -16 c17 -4 31 -1 35 5 5 8 16 8 38 1 19 -7 49 -8 85 -2 62 10 98 -1 98 -30 0 -16 -9 -18 -90 -18 -75 0 -88 2 -84 15 4 10 0 15 -15 15 -12 0 -24 -7 -27 -15 -7 -17 -64 -21 -64 -5 0 6 -11 10 -24 10 -14 0 -27 4 -30 9 -7 10 -56 2 -56 -9 0 -5 6 -10 13 -13 12 -4 -215 -11 -323 -10 -31 0 -56 5 -58 12 -5 14 -32 15 -32 1 0 -6 -30 -9 -75 -8 -41 2 -75 7 -75 12 0 5 -15 6 -32 3 -18 -3 -27 -3 -20 0 6 2 12 11 12 19 0 12 33 14 191 13 105 0 193 2 196 5 6 6 300 -2 337 -10z m477 -9 c15 5 47 -11 38 -19 -7 -8 -46 -8 -91 0 -23 4 -38 2 -38 -4 0 -6 -21 -10 -47 -9 -27 0 -40 3 -30 5 20 4 22 13 5 31 -11 10 -6 11 22 7 19 -4 49 -2 65 2 22 7 34 5 46 -5 9 -7 22 -11 30 -8z m-3345 3 c38 1 105 1 149 2 44 0 95 -4 112 -9 20 -6 35 -6 38 0 4 5 26 9 51 9 34 0 44 -4 44 -17 0 -9 3 -13 8 -9 4 4 7 13 7 19 0 15 85 20 105 6 13 -8 13 -10 0 -19 -10 -6 -11 -10 -2 -10 6 0 12 -4 12 -9 0 -8 -296 -16 -435 -11 -22 1 -47 1 -55 0 -29 -2 -161 9 -180 15 -22 7 -27 31 -7 38 6 3 28 3 48 0 20 -3 68 -5 105 -5z m834 3 c0 -5 21 -6 46 -3 43 4 63 -5 64 -29 0 -15 -73 -15 -88 0 -11 12 -16 13 -20 3 -2 -6 -14 -12 -27 -12 -13 0 -25 -5 -27 -11 -3 -9 -11 -8 -28 1 -14 8 -52 15 -85 15 -74 2 -138 19 -113 29 9 4 32 3 52 -3 22 -5 49 -6 66 -1 18 5 32 5 36 -1 3 -5 15 -3 27 6 23 16 97 21 97 6z m335 0 c29 -5 57 -5 68 1 12 6 19 5 23 -5 5 -14 54 -12 54 2 0 12 383 12 400 1 13 -8 11 -11 -7 -16 -13 -4 -23 -11 -23 -16 0 -6 -16 -8 -35 -6 -19 2 -35 0 -35 -5 0 -5 -36 -7 -82 -4 -101 7 -303 8 -378 2 -84 -6 -190 6 -190 21 0 29 102 42 205 25z m718 0 c16 -1 16 -3 2 -24 -13 -21 -22 -23 -90 -22 -41 0 -75 5 -76 10 -1 13 90 42 121 39 14 -1 33 -3 43 -3z m231 1 c3 -4 2 -13 -2 -18 -14 -22 -49 -30 -109 -26 -49 3 -62 7 -66 22 -3 10 -3 21 0 24 8 8 172 6 177 -2z m4946 -2 c8 -5 11 -12 7 -16 -4 -4 -15 0 -24 9 -18 18 -8 23 17 7z m1780 -2 c0 -3 -6 -8 -12 -11 -18 -5 -49 4 -43 13 6 9 55 8 55 -2z m-11505 -10 c144 4 483 7 493 4 19 -6 14 -20 -10 -28 -13 -4 -26 -11 -29 -16 -4 -5 -35 -9 -70 -8 -35 0 -75 1 -89 0 -14 0 -108 0 -210 1 -102 0 -194 0 -205 0 -352 -11 -392 -10 -379 11 4 7 0 7 -12 0 -11 -5 -41 -10 -69 -10 -27 -1 -84 -3 -125 -6 -49 -4 -77 -2 -81 6 -5 8 -19 8 -53 -1 -40 -10 -49 -9 -62 4 -27 26 -10 45 41 45 26 0 56 -5 68 -11 16 -9 22 -9 25 0 5 14 89 15 94 0 3 -9 17 -9 56 0 71 15 292 15 292 0 0 -8 5 -8 15 1 8 7 27 10 43 7 15 -2 61 -1 102 3 41 4 89 5 105 2 17 -3 44 -5 60 -4z m1210 -3 c50 -5 101 -12 115 -18 24 -10 24 -10 -14 -19 -29 -6 -42 -5 -49 4 -7 10 -10 10 -14 1 -8 -20 -182 -18 -189 2 -4 8 -14 15 -23 14 -10 0 -11 -2 -3 -6 34 -14 -3 -18 -163 -20 -128 -1 -174 1 -169 9 5 7 2 9 -9 5 -10 -4 -16 -2 -14 6 1 7 11 15 22 19 32 10 115 9 115 -2 0 -5 18 -10 40 -10 22 0 40 4 40 9 0 5 10 11 23 13 34 5 192 1 292 -7z m328 0 c13 -13 16 -13 21 0 4 13 21 14 93 9 94 -7 106 -10 83 -24 -11 -7 -5 -10 23 -10 41 0 49 15 15 30 -18 8 -12 9 22 4 52 -7 150 -33 150 -40 0 -3 -30 -5 -67 -5 -38 1 -112 -1 -166 -3 -88 -3 -100 -1 -110 15 -16 25 -27 24 -27 -2 0 -20 -4 -21 -42 -16 -24 3 -44 11 -46 16 -6 17 -22 13 -22 -5 0 -13 -6 -15 -27 -10 -16 4 -41 7 -58 7 l-30 0 35 16 c19 8 55 19 80 23 25 4 48 8 52 9 4 0 13 -6 21 -14z m563 4 c3 -6 15 -9 25 -6 12 3 19 0 19 -8 0 -22 -20 -28 -46 -15 -18 10 -30 11 -49 2 -28 -13 -33 -1 -9 22 18 18 50 21 60 5z m297 5 c26 -3 47 -10 47 -16 0 -6 -11 -8 -25 -6 -16 3 -30 -1 -42 -14 -13 -14 -28 -18 -65 -16 -26 2 -48 6 -48 11 0 4 -11 7 -24 7 -13 0 -26 5 -28 10 -2 6 -13 12 -25 13 -12 0 -20 4 -17 8 5 9 162 11 227 3z m-5349 -19 c12 -13 20 -14 36 -5 13 7 67 11 133 10 62 -1 149 0 195 3 52 3 82 1 82 -5 0 -6 13 -8 33 -4 23 4 28 3 17 -4 -11 -7 -6 -10 23 -10 20 0 37 5 37 10 0 6 20 10 45 10 25 0 45 -4 45 -10 0 -13 33 -13 47 1 17 17 172 17 182 0 8 -12 14 -12 43 1 26 12 71 15 210 14 97 -1 179 -4 183 -8 16 -15 -31 -47 -70 -47 -78 -1 -181 -2 -255 -2 -41 0 -79 0 -85 0 -62 4 -413 6 -410 1 5 -8 -807 -5 -832 4 -15 4 -23 3 -23 -3 0 -6 -20 -11 -45 -11 -25 0 -45 4 -45 9 0 6 -31 8 -72 5 -40 -2 -153 -7 -250 -10 -175 -5 -178 -5 -178 15 0 26 -7 26 -45 1 -26 -18 -47 -20 -175 -20 -80 0 -152 4 -160 10 -8 5 -19 5 -25 0 -9 -8 -134 -13 -215 -8 -14 0 -115 -2 -225 -6 -223 -7 -265 -3 -265 24 0 10 8 21 18 25 23 10 962 15 962 5 0 -14 63 -21 71 -8 6 10 87 13 339 15 303 1 330 0 330 -15 1 -15 2 -15 15 1 10 15 21 17 44 12 17 -4 31 -11 31 -16 0 -5 7 -9 16 -9 8 0 12 5 9 10 -3 6 -5 10 -3 11 2 0 37 3 78 6 41 3 77 7 79 9 11 10 61 2 75 -11z m1564 6 c8 -4 -4 -15 -34 -29 -25 -12 -43 -18 -39 -12 9 15 -22 12 -48 -5 -30 -19 -107 -2 -107 25 0 9 2 19 4 21 8 7 210 7 224 0z m441 0 c45 -28 -84 -59 -166 -41 -22 5 -40 5 -43 0 -4 -6 -18 -6 -37 -1 -20 6 -35 5 -41 -1 -8 -8 -20 -7 -41 2 -31 12 -41 35 -19 42 24 8 334 7 347 -1z m1564 -5 c31 -24 19 -35 -39 -35 -45 1 -54 4 -52 17 2 9 14 19 28 23 37 10 43 10 63 -5z m-6131 -20 c15 -22 7 -36 -19 -37 -210 -7 -309 -6 -360 6 -37 9 -63 10 -75 4 -9 -5 -57 -12 -107 -16 -75 -5 -92 -3 -106 11 -19 19 -46 21 -43 4 4 -17 -75 -24 -215 -20 -74 2 -105 7 -101 14 5 8 -2 9 -22 3 -54 -14 -200 -17 -641 -15 -188 1 -345 0 -350 -3 -5 -3 -37 -2 -73 2 -38 5 -78 4 -97 -2 -24 -8 -36 -7 -48 3 -14 11 -13 14 2 25 9 7 24 10 32 7 9 -3 12 -1 7 6 -5 8 24 11 101 11 59 -1 115 0 123 2 8 1 50 1 94 1 68 -2 77 -4 66 -17 -14 -17 0 -20 28 -6 45 23 97 32 145 26 114 -13 130 -17 116 -26 -10 -6 -8 -9 9 -9 12 0 22 4 22 9 0 5 8 12 18 15 34 11 916 16 932 6 11 -7 7 -10 -20 -11 -27 -2 -29 -3 -9 -6 14 -2 45 1 70 8 24 6 138 13 253 15 115 2 211 6 214 9 8 7 46 -6 54 -19z m412 13 c23 -6 47 -19 54 -29 10 -16 8 -19 -16 -24 -15 -3 -49 -3 -77 0 -69 7 -193 6 -228 -2 -25 -5 -29 -3 -24 10 7 19 -13 22 -30 5 -14 -14 -47 -4 -38 11 3 5 1 10 -4 10 -6 0 -11 4 -11 8 0 5 57 8 128 7 70 -1 138 2 152 6 36 10 46 10 94 -2z m-4754 -19 c8 -5 11 -12 8 -16 -10 -9 -58 4 -58 16 0 13 30 13 50 0z m820 -7 c1 -17 1 -17 10 -1 9 15 36 17 242 17 l231 0 25 -24 24 -24 -24 -6 c-12 -3 -75 -3 -138 0 -63 2 -126 4 -140 2 -76 -7 -734 -1 -732 7 2 5 -2 13 -10 17 -30 20 21 25 262 27 234 3 250 2 250 -15z m590 8 c0 -14 -18 -23 -31 -15 -8 4 -7 9 2 15 18 11 29 11 29 0z m403 -9 c16 -14 21 -14 40 -2 14 8 61 15 127 17 103 4 104 3 65 -12 -22 -8 -42 -15 -45 -16 -3 0 6 -5 20 -9 17 -6 -5 -8 -66 -8 -50 0 -96 -2 -102 -6 -13 -8 -410 -1 -419 7 -3 4 5 15 18 26 22 17 40 19 184 19 134 0 163 -2 178 -16z m-1602 -3 c48 -11 51 -13 34 -25 -22 -16 -135 -19 -135 -4 0 6 9 10 21 10 15 0 19 5 15 15 -7 18 -2 18 65 4z m8317 5 c-11 -10 -67 -13 -73 -3 -4 5 12 9 36 9 23 0 40 -3 37 -6z"
      ></path>
      <path
        id="phCCsozTO"
        d="M18233 13633 c9 -2 25 -2 35 0 9 3 1 5 -18 5 -19 0 -27 -2 -17 -5z"
      ></path>
      <path
        id="pKpsPIMrW"
        d="M9450 13600 c0 -11 14 -11 50 0 22 7 21 8 -12 9 -21 1 -38 -3 -38 -9z"
      ></path>
      <path
        id="pJI4HLFIZ"
        d="M12645 13620 c-3 -6 1 -13 10 -16 21 -9 26 -2 10 13 -9 8 -16 9 -20 3z"
      ></path>
      <path
        id="psrJfGCrp"
        d="M2990 13570 c0 -13 11 -13 30 0 12 8 11 10 -7 10 -13 0 -23 -4 -23 -10z"
      ></path>
      <path
        id="pDAbHOxBC"
        d="M3745 13570 c-25 -11 1 -11 35 0 20 6 21 8 5 8 -11 0 -29 -3 -40 -8z"
      ></path>
      <path
        id="p11AeZKGEI"
        d="M491 13561 c-10 -6 1 -8 30 -4 24 3 46 7 48 9 10 9 -65 3 -78 -5z"
      ></path>
      <path
        id="pXvHeRvR4"
        d="M7450 75 c7 -8 19 -15 26 -15 8 0 14 7 14 15 0 10 -10 15 -26 15 -22 0 -25 -2 -14 -15z"
      ></path>
    </g>
  </g>
</svg>