<svg class="img-fluid" id="outputsvg" xmlns="http://www.w3.org/2000/svg"
  style="transform: none; transform-origin: 50% 50% 0px; cursor: move; transition: none 0s ease 0s;"
  width="1788" height="1568" viewBox="0 0 17880 15680"
  preserveAspectRatio="none">
  <g id="lQqbLf9CoiUr94KlQfROJE" fill="rgb(0,0,0)" style="transform: none;">
    <g style="transform: none;">
      <path id="p7WWFuSx5"
        d="M14335 15670 c-132 -3 -248 -9 -257 -14 -12 -5 -18 -4 -18 3 0 9 -161 10 -657 5 -362 -3 -840 -8 -1063 -9 -751 -5 -1305 -15 -1382 -23 -43 -4 -78 -4 -78 0 0 4 -27 8 -59 8 -45 0 -60 -4 -65 -16 -5 -14 -9 -14 -23 -3 -18 15 -145 16 -1558 5 -423 -3 -1146 -8 -1605 -11 -459 -3 -868 -10 -909 -15 -49 -7 -78 -7 -86 0 -8 6 -137 8 -361 5 -192 -2 -646 -7 -1009 -10 -363 -4 -680 -11 -705 -15 -25 -5 -46 -5 -48 -1 -3 10 -688 3 -777 -7 -33 -4 -91 -4 -130 1 -38 4 -122 5 -185 2 -63 -3 -374 -7 -690 -10 -1522 -12 -1998 -18 -2038 -26 -26 -6 -75 -5 -130 1 -48 5 -113 10 -144 10 -31 0 -79 5 -106 12 -39 8 -62 8 -104 -1 -29 -7 -75 -15 -101 -18 l-48 -5 2 -581 c1 -375 5 -586 11 -594 7 -9 7 -13 -1 -13 -9 0 -11 -75 -6 -312 3 -172 8 -941 11 -1708 3 -767 7 -1550 9 -1740 2 -190 3 -392 2 -450 -3 -184 -2 -426 6 -1200 8 -748 15 -1826 22 -3400 3 -448 7 -1047 10 -1330 3 -283 5 -531 4 -550 -2 -19 -3 -55 -3 -80 1 -25 4 -358 7 -740 3 -382 8 -1158 11 -1725 2 -566 7 -1049 11 -1073 l8 -43 1656 5 c911 3 1694 5 1741 5 47 0 99 5 117 10 23 7 33 6 36 -2 3 -9 65 -11 228 -10 123 1 283 2 354 2 72 0 169 3 218 7 79 6 87 8 88 28 1 18 2 18 8 -4 l7 -25 244 1 c135 1 288 1 340 1 117 -1 178 -1 300 0 52 1 120 1 150 1 188 -1 639 10 648 16 7 4 12 2 12 -4 0 -14 523 -3 528 11 5 12 32 12 32 -1 0 -13 77 -13 85 0 5 8 11 7 21 0 15 -13 197 -4 226 11 11 6 18 5 21 -4 2 -8 27 -12 78 -11 41 0 133 0 204 1 72 0 202 1 290 2 230 4 820 9 885 7 96 -2 204 -1 1100 8 481 5 933 8 1003 6 83 -1 132 2 141 9 10 8 21 8 42 0 43 -16 861 -4 882 13 12 10 16 10 19 1 4 -10 98 -13 405 -13 221 0 406 4 412 8 6 5 65 4 130 -1 107 -9 120 -8 132 7 9 13 13 14 16 4 5 -14 124 -14 1048 -3 245 3 569 5 722 5 257 -1 277 0 287 17 8 13 13 15 19 6 11 -17 309 -22 384 -6 48 10 65 9 103 -4 38 -12 61 -13 133 -5 48 6 150 8 226 5 126 -6 140 -4 152 12 12 17 14 17 31 0 15 -16 29 -17 123 -11 58 4 112 7 120 6 8 -1 251 -1 540 0 461 2 607 4 645 10 6 1 73 -1 150 -4 171 -8 251 0 277 26 21 21 21 43 3 2543 -3 385 -7 1170 -10 1745 -3 575 -8 1304 -12 1620 -3 316 -4 589 -2 605 3 36 3 -37 -4 890 -3 413 -8 1067 -10 1455 -6 980 -17 2630 -23 3405 -9 1109 -13 1702 -16 2490 -2 418 -7 766 -11 773 -7 10 -318 12 -1605 10 -878 -2 -1705 -5 -1837 -8z m3288 -80 c3 -13 14 -20 30 -20 20 0 26 -6 30 -32 3 -18 6 -213 6 -433 1 -220 4 -618 8 -885 3 -267 4 -503 3 -525 -2 -22 -4 -67 -4 -100 -1 -161 16 -3204 19 -3575 5 -476 14 -2081 19 -3175 2 -396 7 -1141 10 -1655 21 -3336 25 -4178 23 -4480 0 -25 1 -137 3 -250 l5 -205 -360 -7 c-198 -3 -576 -7 -839 -7 -342 -1 -483 -5 -493 -13 -10 -8 -45 -8 -136 0 -152 14 -543 7 -574 -9 -18 -10 -28 -10 -46 0 -17 9 -69 10 -197 6 -96 -3 -188 -6 -205 -7 -16 0 -132 3 -256 7 -125 5 -235 5 -245 0 -11 -4 -59 -6 -109 -5 -49 1 -173 1 -275 0 -923 -7 -1213 -11 -1385 -19 -110 -5 -204 -6 -210 -2 -11 8 -324 7 -1378 -3 -565 -5 -753 -9 -768 -19 -16 -10 -21 -9 -28 1 -7 11 -95 13 -487 8 -263 -3 -623 -7 -799 -8 -259 -3 -324 -6 -342 -18 -19 -12 -25 -12 -49 0 -22 12 -80 15 -308 14 -932 -3 -1110 -9 -1128 -37 -6 -9 -12 -8 -22 5 -12 17 -50 17 -592 12 -1003 -10 -1069 -10 -1079 -14 -5 -2 -17 0 -25 4 -9 3 -66 3 -127 -2 -66 -5 -140 -5 -183 1 -44 5 -81 5 -94 0 -12 -5 -71 -6 -141 -2 -66 5 -128 6 -138 3 -10 -3 -318 -7 -685 -9 -367 -2 -869 -6 -1117 -9 -247 -4 -579 -7 -737 -7 -159 -1 -288 -5 -288 -10 0 -13 -68 -11 -76 2 -14 24 -385 -6 -421 -34 -8 -6 -24 -2 -46 12 -30 18 -49 21 -170 20 l-137 -1 -1 -26 c-2 -25 -2 -25 -6 -4 -4 21 -9 23 -52 21 -26 -1 -52 0 -58 4 -6 4 -180 5 -387 3 -207 -2 -378 0 -381 4 -4 7 -12 1034 -20 2720 -3 553 -8 1352 -10 1775 -3 424 -8 1238 -11 1810 -2 572 -7 1310 -10 1640 -2 330 -4 616 -2 635 3 49 3 18 -5 1160 -4 569 -9 1359 -11 1755 -2 396 -7 1017 -10 1380 -4 363 -5 701 -4 750 1 50 2 108 1 130 0 22 -3 382 -6 800 l-7 760 73 0 c39 1 106 6 147 13 46 8 149 12 265 11 105 -1 255 -1 335 1 80 1 418 4 750 6 333 2 612 3 620 4 8 0 69 -2 136 -5 67 -2 150 -1 185 3 35 4 100 4 144 0 106 -10 155 -2 155 23 0 19 1 19 23 -1 20 -20 29 -21 101 -15 55 5 85 4 101 -5 17 -9 43 -10 98 -3 40 5 207 8 370 7 163 -1 297 1 297 5 0 3 210 5 467 4 347 -2 484 1 530 11 49 10 63 10 67 0 3 -9 85 -11 348 -9 189 1 567 4 841 7 355 2 500 7 505 15 5 8 18 7 47 -2 31 -11 100 -13 324 -9 158 3 603 6 989 8 594 2 705 5 713 17 6 10 9 11 9 1 0 -10 126 -12 673 -8 1011 7 1601 14 1807 20 102 3 192 6 200 5 37 -2 1486 2 1955 5 286 2 864 7 1285 10 421 3 1028 9 1350 12 322 3 788 7 1035 8 465 3 555 8 555 32 0 21 17 17 23 -6z"></path>
    </g>
  </g>
  <g id="l856Ut4sOErF09BFr70OSK" fill="rgb(255,255,255)" style="transform: none;">
    <g style="transform: none;">
      <path id="pynQDkrlW"
        d="M0 7840 l0 -7840 8940 0 8940 0 0 7840 0 7840 -8940 0 -8940 0 0 -7840z m17308 7819 c108 2 114 2 141 -2 25 -4 50 -41 37 -55 -9 -8 -400 -7 -415 2 -5 4 -12 3 -15 -2 -2 -4 -32 -9 -65 -10 -54 -1 -62 1 -77 23 -9 13 -13 29 -9 35 8 13 132 13 140 0 4 -6 12 -7 18 -3 17 11 107 21 140 16 16 -3 63 -4 105 -4z m282 -4 c0 -8 -4 -15 -10 -15 -5 0 -10 -7 -10 -15 0 -18 -1 -18 -34 -5 -32 12 -33 24 -3 38 32 15 57 14 57 -3z m123 0 c38 -16 53 -43 40 -72 -9 -17 -9 -123 0 -378 2 -66 1 -146 -3 -178 -3 -32 -3 -60 1 -63 4 -2 6 -149 4 -327 -2 -177 -4 -343 -4 -369 0 -27 -5 -48 -10 -48 -13 0 -13 -1 -12 70 0 30 0 62 0 70 -4 387 -9 983 -9 1065 -1 138 -16 215 -42 215 -18 0 -24 11 -11 23 8 9 5 9 46 -8z m-1922 -17 c3 -5 15 -5 30 0 20 8 94 14 149 13 8 0 71 0 140 0 69 1 130 1 135 0 18 -1 100 0 120 1 11 0 34 0 50 -1 17 -1 39 -1 49 1 26 4 30 -14 8 -40 -22 -25 -42 -28 -60 -10 -7 7 -12 8 -12 2 0 -6 -33 -11 -80 -11 -75 -1 -80 1 -75 18 8 26 -1 24 -33 -6 -18 -17 -33 -23 -47 -18 -11 3 -31 7 -45 9 -13 1 -29 9 -35 18 -10 12 -13 12 -24 -5 -10 -18 -22 -20 -94 -19 -45 0 -158 -2 -251 -5 -92 -2 -172 -2 -178 1 -5 3 -4 12 3 20 16 19 6 18 -36 -6 -39 -22 -65 -26 -65 -10 0 6 -10 5 -26 -2 -20 -9 -27 -9 -33 1 -5 7 -11 9 -14 4 -3 -5 -39 -10 -79 -10 l-73 -2 -2 29 c-1 18 3 30 10 31 84 8 177 5 206 -7 25 -10 37 -11 47 -3 7 6 23 8 35 4 14 -5 19 -4 15 4 -5 7 5 11 28 11 25 0 36 -4 36 -15 0 -8 7 -15 15 -15 8 0 14 5 13 12 -2 7 11 15 27 18 39 8 138 0 146 -12z m1042 15 c9 -2 17 -10 17 -17 0 -29 -33 -41 -114 -42 -70 -1 -83 1 -97 19 l-16 20 -24 -21 c-16 -16 -36 -22 -66 -22 l-44 0 21 22 c15 16 17 24 8 29 -20 12 272 23 315 12z m-2173 -13 c3 -1 8 -2 13 -1 34 5 235 10 249 5 19 -6 25 -48 9 -59 -5 -3 -129 -7 -276 -9 -217 -2 -268 0 -272 10 -6 17 -30 18 -35 3 -3 -8 -62 -12 -191 -14 -166 -2 -187 0 -188 14 -1 13 -2 13 -6 -1 -6 -22 -17 -23 -33 -3 -8 9 -16 12 -19 6 -3 -5 -30 -14 -59 -19 -43 -8 -56 -7 -68 6 -11 11 -18 12 -27 3 -14 -14 -104 -15 -112 -1 -4 7 -11 7 -18 2 -22 -17 -91 -20 -105 -6 -15 16 -66 19 -57 4 4 -6 -5 -10 -19 -10 -14 0 -26 5 -26 11 0 5 5 7 10 4 6 -3 10 -1 10 5 0 12 -41 4 -50 -10 -3 -4 -22 -10 -42 -14 -30 -5 -41 -3 -58 14 -15 15 -20 17 -20 5 0 -8 -6 -16 -12 -16 -49 -5 -200 -4 -209 1 -17 11 8 63 27 56 9 -3 20 -3 26 0 16 10 78 12 83 3 3 -4 22 -5 43 -2 20 3 44 4 52 4 8 -1 53 -3 100 -4 47 -1 91 -6 99 -11 8 -5 16 -4 21 4 9 15 397 24 406 9 3 -5 14 -5 25 2 15 7 24 7 35 -2 10 -8 14 -8 14 0 0 6 11 11 25 11 14 0 25 -4 25 -9 0 -15 57 -18 82 -5 13 7 63 13 117 13 l93 1 -5 -28 -5 -27 22 28 c21 26 26 27 109 27 63 0 87 -3 87 -12 0 -10 2 -10 8 -1 9 14 99 24 122 13z m412 -2 c21 1 47 4 58 7 15 5 20 2 20 -11 0 -14 3 -14 15 -4 18 15 20 13 28 -20 6 -24 4 -26 -35 -27 -23 -1 -49 3 -57 10 -11 9 -15 9 -18 -1 -3 -6 -8 -10 -13 -7 -5 3 -19 1 -32 -4 -29 -11 -63 2 -78 30 -15 28 3 42 44 33 16 -4 47 -6 68 -6z m-2047 -49 c0 -20 -5 -23 -45 -25 -25 -1 -57 0 -73 3 l-28 5 25 19 c13 10 31 16 40 13 10 -4 16 -1 16 9 0 8 6 17 13 20 20 8 52 -19 52 -44z m-976 31 c23 -6 39 -6 47 1 7 5 15 6 17 2 3 -5 25 -8 49 -6 164 9 229 9 234 2 4 -7 73 -5 142 5 9 2 22 -4 29 -13 8 -11 12 -12 13 -3 0 6 11 12 24 12 26 0 36 -14 28 -42 -5 -21 -51 -25 -70 -6 -9 9 -12 9 -12 0 0 -16 -47 -16 -52 0 -4 10 -11 10 -33 0 -31 -14 -176 -15 -214 0 -13 5 -28 5 -35 0 -23 -19 -63 -22 -76 -7 -10 12 -16 13 -26 4 -15 -12 -258 -19 -275 -8 -5 3 1 17 14 32 17 20 32 27 60 27 21 0 37 -5 37 -11 0 -8 4 -8 13 -1 6 5 21 12 32 15 11 2 20 5 20 6 0 0 16 -3 34 -9z m766 0 c9 15 35 -7 35 -30 0 -24 -10 -26 -110 -25 -84 0 -85 0 -85 25 0 24 3 25 58 25 31 0 57 3 57 8 0 4 9 3 19 -3 14 -7 22 -7 26 0z m95 0 c0 -13 -28 -25 -38 -16 -3 4 0 11 8 16 20 13 30 12 30 0z m4770 -12 c0 -13 -23 -5 -28 10 -2 7 2 10 12 6 9 -3 16 -11 16 -16z m-6332 -2 c41 1 62 -2 62 -10 0 -6 4 -5 10 4 7 11 37 14 156 13 99 -2 151 -6 158 -14 8 -9 7 -10 -4 -4 -13 7 -13 6 -2 -7 10 -13 10 -17 -4 -22 -27 -10 -54 -7 -60 9 -8 19 -19 19 -38 -1 -26 -25 -209 -19 -244 8 -8 7 -28 4 -63 -11 -40 -17 -54 -20 -65 -10 -9 7 -14 8 -14 1 0 -6 -12 -9 -27 -7 -16 2 -39 4 -52 4 -16 1 -21 5 -17 16 4 10 -1 15 -14 15 -23 0 -26 -10 -8 -28 7 -7 9 -12 4 -12 -15 0 -96 41 -96 49 0 9 43 7 59 -3 5 -4 12 -2 16 4 3 5 31 10 61 10 41 0 54 -4 54 -15 0 -8 5 -15 11 -15 5 0 7 5 4 10 -11 18 5 30 28 21 12 -4 50 -7 85 -5z m-1266 -31 c-5 -26 -4 -25 -47 -35 -25 -6 -44 -4 -63 6 -19 9 -30 10 -39 2 -10 -8 -13 -6 -13 6 0 9 -7 16 -15 16 -8 0 -15 -7 -15 -15 0 -14 -25 -21 -60 -16 -8 1 -19 2 -25 1 -126 -7 -137 -7 -142 7 -3 8 0 19 8 23 7 5 10 12 7 15 -4 4 -22 -5 -41 -19 -51 -39 -82 -33 -71 12 6 20 9 21 183 16 97 -2 181 -4 186 -5 6 0 26 4 45 8 19 5 51 6 70 3 28 -5 34 -10 32 -25z m156 11 c9 13 28 12 44 -3 6 -7 18 -13 25 -13 7 0 13 -4 13 -10 0 -14 -23 -13 -38 2 -10 10 -17 10 -32 0 -16 -10 -20 -10 -20 0 -1 8 -6 6 -14 -5 -19 -25 -116 -14 -116 13 0 21 28 34 44 21 7 -6 18 -4 30 5 17 12 22 12 38 -3 12 -11 22 -13 26 -7z m329 12 c9 -7 17 -7 28 2 8 6 19 8 26 4 7 -4 26 -7 43 -6 36 1 56 -13 56 -40 0 -17 -5 -19 -31 -13 -58 13 -84 14 -116 3 -25 -9 -40 -8 -72 4 -22 9 -41 12 -43 7 -2 -5 -30 -10 -63 -11 -58 -3 -59 -3 -62 25 -2 28 -1 29 45 24 26 -2 55 -2 64 2 30 11 112 10 125 -1z m283 2 c0 -5 5 -10 11 -10 11 0 39 -25 39 -35 0 -4 -10 -5 -22 -4 -13 2 -29 0 -35 -4 -15 -10 -93 12 -93 26 0 5 7 7 14 4 9 -4 17 2 21 14 4 13 15 19 36 19 16 0 29 -4 29 -10z m980 3 c-1 -28 -39 -46 -57 -27 -22 22 -14 34 22 34 19 0 35 -3 35 -7z m-3255 -13 c4 -6 27 -8 61 -4 30 4 54 3 54 -2 0 -5 3 -19 6 -31 5 -17 2 -23 -9 -23 -8 0 -17 6 -20 13 -3 9 -7 9 -18 0 -15 -12 -56 -12 -76 0 -6 4 -14 3 -18 -3 -4 -6 -10 -8 -15 -5 -5 3 -11 2 -14 -3 -5 -9 -51 -8 -118 2 -20 3 -38 2 -40 -4 -4 -14 -48 0 -48 15 0 20 27 39 33 23 4 -10 7 -10 14 -1 5 7 38 16 73 20 104 14 128 14 135 3z m398 -10 c-3 -11 0 -20 6 -20 6 0 11 7 11 15 0 8 9 15 20 15 11 0 20 -5 20 -11 0 -6 7 -9 15 -5 11 4 15 -1 15 -19 0 -27 -18 -33 -38 -13 -10 10 -15 10 -22 -1 -6 -11 -12 -12 -23 -3 -10 9 -21 9 -44 0 -36 -13 -63 1 -63 33 0 15 10 19 53 22 28 2 53 4 54 5 0 1 -1 -7 -4 -18z m324 3 c3 -9 12 -8 30 5 21 13 27 14 31 3 4 -11 6 -11 13 0 7 11 9 11 9 1 0 -7 5 -10 10 -7 6 3 10 1 10 -5 0 -7 6 -10 13 -7 10 4 13 -1 10 -17 -4 -21 -8 -21 -179 -23 -143 -1 -174 2 -174 13 0 8 5 14 11 14 6 0 9 6 6 14 -3 8 -4 16 -2 18 2 1 49 3 106 3 71 0 104 -4 106 -12z m231 8 c6 0 12 -12 12 -25 0 -20 -6 -25 -37 -28 -50 -6 -63 -1 -63 26 0 31 8 36 44 32 17 -2 37 -4 44 -5z m1425 -3 c4 -10 8 -9 16 2 5 8 14 11 18 6 4 -5 2 -11 -4 -13 -7 -3 -13 -11 -13 -19 0 -17 -2 -17 -32 -1 -14 7 -23 18 -20 25 5 16 29 16 35 0z m-3355 -10 c9 -9 15 -10 20 -2 4 6 21 10 37 9 17 -2 45 -3 63 -4 30 -1 33 -4 27 -23 l-6 -23 20 23 c10 12 30 22 44 22 23 0 25 -3 18 -27 -7 -25 -12 -28 -59 -31 -28 -2 -61 2 -72 8 -13 7 -20 7 -20 0 0 -15 -77 -13 -83 3 -3 9 -7 9 -19 -1 -10 -8 -19 -9 -22 -3 -7 11 -106 13 -106 2 0 -4 -16 -7 -35 -7 -32 0 -35 3 -35 28 0 18 5 28 15 28 8 0 15 -6 15 -12 0 -9 4 -8 11 2 8 12 12 12 16 2 3 -9 9 -10 17 -3 6 5 34 11 61 14 28 2 57 4 66 5 8 1 21 -4 27 -10z m350 -1 c19 4 21 2 16 -13 -6 -16 -4 -16 18 4 29 26 38 28 38 6 0 -8 5 -12 10 -9 6 4 7 11 4 17 -5 8 -1 9 10 5 10 -4 22 -7 27 -7 5 0 9 -7 9 -15 0 -21 13 -19 35 5 25 27 115 29 115 3 1 -17 1 -17 11 0 6 10 22 17 38 17 36 0 44 -9 25 -27 -8 -8 -12 -18 -9 -23 8 -12 -24 -19 -67 -15 -43 4 -61 13 -53 26 4 5 1 9 -5 9 -6 0 -13 -7 -16 -15 -5 -12 -24 -14 -93 -13 -48 1 -92 -2 -99 -6 -7 -4 -12 -2 -12 6 0 8 -3 9 -8 3 -12 -17 -96 -12 -100 6 -3 18 58 51 74 38 5 -4 20 -6 32 -2z m849 1 c3 6 17 12 31 11 15 0 21 -3 15 -6 -17 -6 -16 -18 3 -37 14 -15 14 -16 0 -16 -9 0 -16 4 -16 9 0 11 -19 9 -38 -3 -9 -5 -18 -1 -27 10 -8 11 -15 15 -15 10 0 -5 -7 -2 -16 5 -14 12 -14 14 3 20 10 3 26 1 37 -5 14 -8 20 -8 23 2z m-2717 -28 c0 -17 25 -11 37 9 11 17 17 18 45 10 22 -6 34 -6 36 1 3 7 8 7 17 0 11 -9 11 -17 3 -36 -7 -16 -15 -21 -22 -15 -7 6 -31 6 -61 0 -28 -5 -83 -9 -123 -8 -59 2 -72 5 -70 18 2 8 -5 17 -16 19 -14 3 -18 0 -14 -15 4 -13 0 -19 -13 -20 -20 -2 -52 35 -43 48 3 5 35 7 72 6 37 -2 78 0 92 3 27 7 60 -4 60 -20z m280 18 c22 3 30 0 30 -11 0 -18 -62 -46 -67 -30 -3 8 -12 7 -31 -3 -35 -18 -52 -2 -28 25 17 19 58 32 64 20 1 -3 16 -3 32 -1z m190 -13 c5 -21 31 -27 40 -10 3 7 12 4 23 -7 16 -17 16 -18 -13 -19 -73 -3 -80 -2 -80 16 0 9 -6 12 -16 8 -8 -3 -13 -12 -9 -20 4 -11 1 -13 -11 -9 -8 3 -29 6 -45 6 -33 0 -37 12 -11 38 12 12 32 17 67 17 41 0 50 -3 55 -20z m548 12 c19 -9 25 -8 32 3 13 22 23 5 11 -18 -12 -23 -45 -37 -61 -27 -5 3 -10 2 -10 -3 0 -12 -63 -2 -72 12 -6 8 -10 8 -16 -1 -11 -18 -201 -25 -248 -8 -45 15 -54 32 -24 43 36 13 361 13 388 -1z m105 1 c4 -10 7 -10 18 0 7 6 36 12 64 12 45 0 53 -3 63 -25 14 -31 -1 -42 -34 -25 -15 9 -28 10 -36 3 -7 -5 -27 -10 -44 -11 -24 -2 -33 3 -42 23 -14 31 -15 35 -3 35 5 0 11 -6 14 -12z m-1893 -13 c36 0 70 4 76 8 7 4 26 2 44 -4 22 -8 38 -8 53 -1 12 6 46 10 75 9 47 -2 54 -5 67 -31 15 -27 14 -28 -9 -22 -12 3 -26 3 -30 -1 -12 -12 -101 -2 -112 13 -15 18 -25 18 -18 -1 5 -11 -1 -15 -22 -16 -16 -1 -33 0 -39 1 -5 1 -17 1 -25 1 -115 -7 -182 -4 -191 9 -7 13 -10 13 -18 1 -7 -11 -11 -10 -19 5 -9 16 -12 17 -17 4 -5 -15 -33 -22 -100 -24 -23 -1 -30 3 -29 17 2 15 -3 17 -25 13 -48 -10 -76 -16 -119 -25 -35 -7 -44 -6 -52 8 -6 10 -10 11 -10 3 0 -10 -5 -10 -21 -1 -15 8 -19 8 -15 0 5 -7 -3 -11 -21 -12 -15 -1 -40 -3 -55 -5 -16 -1 -28 1 -28 5 0 4 -25 3 -56 -3 -42 -7 -61 -7 -76 3 -17 11 -22 10 -29 -1 -7 -10 -12 -9 -26 6 -17 18 -17 18 0 13 9 -4 17 -2 17 4 0 6 4 8 9 5 5 -4 12 0 15 6 5 10 7 10 12 0 5 -10 9 -10 21 0 11 9 84 13 284 14 235 1 269 -1 269 -15 0 -13 2 -13 13 1 15 21 40 25 97 18 25 -3 74 -5 110 -5z m377 -11 c2 -10 0 -13 -3 -6 -3 6 -10 10 -15 6 -5 -3 -9 2 -9 11 0 23 24 13 27 -11z m87 16 c14 -5 30 -18 36 -30 10 -19 9 -20 -46 -18 -50 3 -57 6 -60 25 -3 20 5 26 38 32 4 0 18 -3 32 -9z m896 -9 c0 -4 -7 -8 -15 -8 -16 0 -20 9 -9 20 8 8 24 -1 24 -12z m-2470 -2 c25 -1 50 -6 57 -11 7 -5 14 -5 17 1 4 5 23 10 44 10 20 0 52 1 70 3 34 4 35 4 23 -27 -7 -17 -18 -20 -67 -21 -32 -1 -65 3 -71 8 -9 7 -13 7 -13 -1 0 -6 -4 -11 -10 -11 -5 0 -10 7 -10 16 0 14 -2 14 -15 0 -12 -12 -22 -13 -42 -5 -17 6 -30 6 -38 -1 -10 -8 -19 -8 -35 2 -17 11 -22 11 -30 -2 -9 -13 -10 -13 -10 0 0 13 -2 13 -9 1 -8 -13 -58 -13 -111 0 -15 4 -30 19 -30 30 0 7 38 4 68 -5 11 -4 23 -2 27 4 4 6 21 9 40 6 19 -3 37 -1 41 5 3 6 18 8 33 5 14 -4 46 -7 71 -7z m-710 -9 c3 -1 25 -1 50 -1 30 1 40 -1 32 -7 -8 -5 -13 -13 -13 -18 1 -5 -27 -10 -62 -11 -34 -2 -71 -4 -82 -5 -13 -2 -19 2 -17 11 2 11 -2 11 -21 -2 -31 -20 -67 -12 -67 15 0 17 5 20 35 16 19 -2 35 -1 35 3 0 5 97 5 110 -1z m266 -5 c-3 -8 -1 -15 5 -15 6 0 9 -5 7 -12 -7 -20 -48 -16 -60 6 -11 20 -11 20 -19 1 -7 -18 -8 -18 -8 4 -1 18 3 22 18 18 10 -2 25 -1 32 4 21 13 32 11 25 -6z m71 -2 c9 -13 13 -14 11 -4 -2 8 5 17 15 19 13 3 17 -3 17 -25 0 -26 -3 -28 -38 -28 -20 0 -38 4 -39 9 -1 5 -7 13 -15 17 -11 7 -10 11 2 19 21 14 31 12 47 -7z m3343 -4 c0 -5 -7 -9 -15 -9 -9 0 -12 6 -9 15 6 15 24 11 24 -6z m-6916 -5 c20 -3 67 -7 104 -8 54 -1 67 -4 70 -18 2 -12 -3 -16 -20 -14 -13 1 -29 6 -36 10 -7 4 -19 0 -28 -8 -17 -18 -44 -21 -44 -6 0 6 -13 4 -31 -5 -40 -21 -129 -32 -129 -16 0 8 -12 11 -32 9 -29 -3 -33 -7 -36 -35 -2 -23 -9 -33 -20 -34 -14 0 -15 -2 -2 -7 8 -4 16 -16 17 -27 2 -21 5 -243 3 -260 0 -5 0 -82 1 -170 0 -88 1 -169 0 -180 -1 -41 1 -133 3 -243 2 -62 -1 -115 -6 -118 -5 -4 -7 -17 -3 -31 4 -16 2 -22 -5 -18 -5 3 -10 15 -10 25 0 10 -4 21 -8 24 -5 3 -8 20 -6 38 7 90 2 218 -11 238 -3 6 -3 15 1 21 3 6 6 58 5 115 -2 71 1 104 9 104 6 0 9 3 6 8 -19 30 -24 415 -6 437 7 9 7 14 -3 18 -7 2 -12 18 -11 33 0 16 2 46 2 68 2 38 2 38 40 34 22 -3 46 1 59 9 12 8 26 12 31 10 4 -3 14 -2 22 4 8 5 20 7 27 4 6 -2 28 -7 47 -11z m2329 -12 c-3 -12 -10 -22 -17 -23 -6 0 -27 -2 -46 -4 -19 -1 -41 1 -48 4 -7 4 -35 4 -61 1 -54 -7 -91 2 -91 22 0 18 51 22 62 6 6 -10 8 -10 8 0 0 6 7 12 15 12 8 0 15 -5 15 -11 0 -5 5 -7 12 -3 7 4 42 10 78 12 36 2 67 6 69 8 8 8 10 -2 4 -24z m104 13 c7 -20 6 -21 -44 -30 -34 -5 -43 -4 -43 8 0 29 76 49 87 22z m61 -13 c3 -16 -2 -22 -16 -22 -22 0 -37 36 -18 44 19 8 31 0 34 -22z m109 10 c-2 -4 -7 -15 -11 -26 -5 -15 -9 -16 -21 -6 -8 7 -24 10 -35 7 -28 -7 -34 8 -7 21 39 20 83 22 74 4z m140 11 c-4 -3 -2 -12 4 -19 15 -18 -6 -27 -31 -12 -28 18 -25 38 7 38 14 0 23 -3 20 -7z m123 -19 c0 -8 -4 -14 -10 -14 -5 0 -10 9 -10 21 0 11 5 17 10 14 6 -3 10 -13 10 -21z m125 16 c-3 -5 1 -10 9 -10 21 0 30 -19 13 -26 -21 -8 -61 27 -44 38 17 11 29 10 22 -2z m421 -28 c-10 -10 -29 15 -21 28 6 9 10 8 17 -4 6 -10 7 -20 4 -24z m-2206 11 c1 -17 1 -17 11 0 6 9 15 15 20 11 16 -9 -21 -44 -47 -44 -31 0 -41 20 -19 37 25 18 35 16 35 -4z m448 1 c-5 -27 -34 -41 -57 -27 -14 9 -29 9 -56 2 -31 -9 -39 -8 -50 8 -12 16 -14 17 -32 1 -14 -12 -38 -16 -100 -16 -90 1 -116 9 -95 30 9 9 12 9 12 0 0 -7 5 -12 11 -12 5 0 8 4 4 9 -8 13 17 16 203 19 150 3 163 2 160 -14z m152 6 c0 -5 9 -10 20 -12 12 -2 22 -7 23 -13 3 -13 -74 -7 -90 7 -9 7 -13 7 -13 -1 0 -22 -49 -2 -50 20 0 3 25 6 55 7 30 0 55 -4 55 -8z m127 -7 c2 -6 -3 -15 -11 -22 -11 -9 -17 -9 -28 2 -7 8 -27 19 -43 25 -27 10 -25 11 25 8 30 -2 56 -8 57 -13z m43 3 c0 -8 -4 -18 -10 -21 -5 -3 -10 3 -10 14 0 12 5 21 10 21 6 0 10 -6 10 -14z m40 5 c0 -5 -7 -14 -15 -21 -16 -14 -18 -10 -9 14 6 17 24 22 24 7z m931 -7 c10 -13 10 -17 -2 -25 -18 -11 -20 -11 -44 7 -17 13 -18 16 -5 24 22 14 36 12 51 -6z m419 1 c0 -8 -4 -15 -9 -15 -5 0 -11 7 -15 15 -3 9 0 15 9 15 8 0 15 -7 15 -15z m-2830 -4 c8 -6 19 -7 25 -3 19 12 82 8 82 -5 0 -7 -3 -11 -5 -8 -3 3 -10 1 -16 -4 -10 -8 -54 -16 -66 -11 -3 0 -33 2 -67 2 -59 1 -77 11 -56 31 10 10 86 8 103 -2z m260 -9 c0 -15 -10 -18 -60 -20 -54 -2 -60 -1 -60 18 0 18 6 20 60 20 51 0 60 -3 60 -18z m112 3 c15 -20 8 -28 -11 -11 -15 13 -20 14 -24 4 -3 -10 -9 -9 -23 5 -18 18 -18 19 16 16 19 -2 38 -8 42 -14z m56 3 c7 -7 12 -16 12 -20 0 -15 -27 -8 -45 12 -18 19 -17 20 1 20 11 0 25 -5 32 -12z m72 -2 c0 -15 -24 -28 -34 -19 -13 14 -5 33 14 33 11 0 20 -6 20 -14z m-636 -11 c-4 -8 -13 -15 -21 -15 -13 0 -13 3 -3 15 7 8 16 15 21 15 5 0 6 -7 3 -15z m-582 -1305 c-1 -58 -2 -129 -1 -157 0 -45 -2 -52 -16 -46 -13 4 -15 13 -11 35 3 16 0 37 -6 47 -8 14 -9 40 -2 95 5 42 6 76 2 76 -13 0 -9 78 5 83 23 8 31 -28 29 -133z m17675 -39 c-3 -15 -2 -32 4 -38 9 -9 15 -210 11 -360 -2 -61 -22 -91 -23 -35 0 15 -2 96 -4 180 -2 85 -5 156 -7 158 -6 5 0 94 6 111 10 24 19 13 13 -16z m-17665 -239 c2 -26 2 -87 0 -135 -3 -76 -6 -88 -20 -85 -15 3 -17 21 -18 145 -2 135 -1 142 17 133 13 -7 19 -24 21 -58z m17681 -367 c-3 -38 -6 -81 -5 -95 0 -14 -4 -30 -9 -36 -6 -8 -5 -14 5 -17 15 -6 11 -47 -5 -47 -10 0 -11 10 -15 115 -7 163 -6 198 8 206 19 12 29 -42 21 -126z m-17685 62 c5 -24 -15 -21 -28 4 -10 18 -9 20 7 17 10 -2 19 -11 21 -21z m0 -187 c1 -58 3 -178 5 -267 2 -89 0 -168 -4 -175 -4 -7 -4 -17 1 -23 4 -5 5 -31 1 -57 -4 -26 -4 -53 0 -60 6 -10 5 -409 -1 -428 -1 -3 -1 -18 0 -35 10 -209 10 -328 0 -340 -8 -9 -8 -14 0 -17 14 -4 19 -87 10 -139 -4 -20 -3 -44 2 -52 5 -10 4 -18 -2 -22 -6 -4 -7 -12 -3 -18 11 -17 10 -777 0 -777 -5 0 -7 -16 -5 -35 4 -36 -3 -44 -19 -22 -8 10 -16 155 -15 282 1 17 1 120 1 230 0 110 0 326 1 480 1 154 1 291 1 305 0 14 0 36 0 50 0 14 0 30 0 35 0 6 -2 271 -5 590 -2 393 0 587 7 603 17 37 24 7 25 -108z m17688 -229 c-6 -106 -8 -117 -23 -108 -10 6 -16 202 -7 231 6 19 7 19 21 0 11 -15 13 -42 9 -123z m0 -286 c1 -141 -6 -186 -25 -156 -5 7 -7 52 -5 100 2 47 4 117 5 154 1 51 4 66 13 57 7 -7 11 -63 12 -155z m2 -237 c0 -24 0 -135 0 -248 0 -113 1 -227 1 -255 7 -308 5 -333 -21 -307 -8 8 -11 54 -9 144 1 73 2 140 2 148 0 8 -2 138 -4 288 -4 254 -3 272 13 272 14 0 18 -9 18 -42z m10 -1141 c1 -155 5 -653 7 -1107 3 -454 6 -848 7 -876 0 -28 -2 -56 -6 -62 -3 -6 -2 -40 3 -76 5 -37 6 -91 1 -124 -4 -31 -6 -89 -3 -127 10 -161 11 -560 1 -572 -6 -8 -7 -23 -2 -40 7 -23 10 -132 5 -203 0 -8 2 -82 5 -165 3 -82 5 -193 5 -245 -1 -52 -1 -112 -1 -134 0 -21 -4 -44 -10 -51 -8 -10 -7 -16 6 -23 14 -8 15 -15 7 -39 -6 -17 -7 -49 -3 -78 4 -28 5 -54 0 -60 -4 -5 -5 -44 -4 -85 4 -87 16 -681 15 -725 -1 -16 -1 -102 0 -190 1 -316 -1 -355 -21 -355 -18 0 -26 100 -20 270 1 30 1 73 1 95 0 22 0 67 0 100 1 68 1 84 -2 140 -1 22 -1 58 0 80 1 22 1 125 -1 228 -2 107 1 192 6 197 6 6 4 15 -3 24 -9 11 -10 32 -3 83 5 37 7 73 3 78 -5 9 -8 258 -12 1000 -1 154 -1 354 0 445 0 91 -1 211 -4 267 -3 63 -1 104 5 108 6 4 7 12 3 18 -9 14 -9 -10 -16 912 -10 1129 -10 1572 -2 1585 5 9 10 9 19 0 7 -7 12 -99 14 -293z m-17683 -847 c0 -121 4 -220 8 -220 5 0 6 -8 3 -17 -8 -25 -9 -363 -2 -577 4 -120 2 -184 -5 -192 -6 -7 -7 -19 -3 -25 10 -17 14 -636 4 -683 -5 -22 -6 -45 -2 -50 7 -12 12 -91 10 -166 -2 -91 0 -339 3 -489 3 -108 1 -159 -8 -170 -7 -9 -8 -20 -2 -27 4 -6 9 -24 9 -40 0 -16 1 -51 2 -79 4 -150 2 -265 -5 -272 -5 -4 -14 -1 -20 8 -17 23 -15 322 2 342 9 12 9 16 0 19 -16 5 -22 108 -9 142 5 15 6 28 0 31 -8 5 -13 265 -9 525 1 58 1 114 0 125 -1 20 -9 685 -10 830 -1 96 -1 91 1 285 2 233 1 309 -5 495 -2 94 -2 203 2 243 4 40 3 76 -1 78 -4 3 -6 15 -4 27 3 12 8 39 11 61 5 30 9 36 18 27 9 -9 12 -76 12 -231z m17 -3112 c4 -173 8 -695 7 -908 0 -69 0 -208 0 -310 0 -102 0 -196 0 -210 0 -14 1 -81 1 -150 0 -69 0 -129 0 -135 0 -5 1 -97 4 -203 2 -106 0 -194 -4 -197 -4 -3 -13 1 -19 9 -10 11 -12 73 -11 256 0 14 0 68 1 120 0 52 0 127 0 165 1 39 1 86 1 105 1 19 -2 91 -5 160 -8 157 -7 718 1 925 1 11 -1 43 -3 70 -5 78 -5 367 1 376 15 25 24 0 26 -73z m17698 -1407 c0 -13 -26 -32 -33 -24 -14 13 -6 33 13 33 11 0 20 -4 20 -9z m3 -158 c-2 -47 -7 -91 -13 -98 -8 -9 -8 -14 0 -17 9 -3 13 -175 17 -618 3 -338 5 -678 4 -755 -1 -77 -1 -158 0 -180 2 -61 3 -716 1 -750 -2 -35 5 -565 8 -580 1 -5 2 -14 1 -20 -1 -5 -2 -69 -2 -142 0 -79 -4 -135 -10 -138 -7 -5 -6 -11 2 -21 18 -22 21 -544 3 -569 -8 -10 -17 -15 -21 -11 -6 6 -11 299 -13 836 0 63 0 158 -1 210 0 86 0 113 0 153 1 6 -1 163 -3 347 -3 203 0 340 5 347 6 7 6 13 1 17 -6 3 -10 210 -11 503 0 274 -3 728 -5 1008 -3 281 -2 527 1 547 4 31 8 35 22 27 13 -9 16 -26 14 -96z m-17689 -590 c5 -19 7 -76 7 -158 0 -27 -1 -223 -3 -435 -1 -212 1 -391 5 -397 5 -7 3 -23 -4 -35 l-12 -22 -10 24 c-7 19 -22 673 -17 770 1 8 0 29 -1 45 -5 61 -2 171 4 198 8 31 23 36 31 10z m7 -1070 c5 -24 14 -1457 10 -1488 -2 -11 -1 -160 2 -331 3 -171 1 -317 -3 -324 -5 -8 -5 -19 1 -26 7 -8 6 -15 -2 -19 -19 -12 -29 16 -29 85 0 36 -3 349 -6 695 -3 347 -5 639 -4 650 0 11 0 82 1 157 0 81 4 140 10 144 6 4 4 13 -5 23 -14 15 -15 30 -7 97 4 44 5 86 0 96 -19 37 -4 248 17 248 8 0 15 -3 15 -7z m9 -2248 c0 -19 -4 -35 -9 -35 -5 0 -9 16 -8 35 1 19 5 35 9 35 4 0 8 -16 8 -35z m17687 -33 c9 -6 10 -17 4 -40 -6 -20 -6 -32 0 -32 5 0 4 -9 -3 -20 -10 -16 -10 -22 -1 -28 8 -5 12 -30 12 -65 -1 -57 -12 -78 -31 -59 -14 14 -13 252 1 252 3 0 12 -4 18 -8z m-17682 -110 c-3 -99 -4 -102 -20 -102 -12 0 -15 16 -14 88 1 96 5 108 24 92 9 -7 12 -32 10 -78z m2 -258 c1 -76 2 -168 2 -204 -1 -205 0 -390 2 -427 1 -22 -2 -46 -6 -52 -17 -29 -24 13 -25 162 0 89 -3 261 -6 382 -5 228 -1 289 19 282 8 -3 13 -46 14 -143z m17686 100 c3 -3 0 -15 -6 -25 -9 -16 -9 -21 1 -28 10 -6 13 -47 11 -182 -1 -96 -1 -228 0 -294 3 -141 4 -189 2 -230 -1 -16 1 -213 3 -437 3 -318 1 -410 -9 -424 -20 -28 -170 -38 -186 -12 -6 9 -11 8 -25 -3 -19 -15 -140 -14 -160 2 -8 6 -26 5 -50 -4 -23 -7 -53 -10 -72 -6 -18 4 -35 3 -38 -2 -9 -16 -44 -10 -44 8 0 15 -1 15 -18 0 -14 -13 -21 -14 -30 -5 -8 8 -15 8 -26 -1 -11 -9 -15 -9 -18 1 -3 9 -10 9 -34 0 -34 -15 -95 -13 -106 3 -6 7 -10 7 -15 -1 -11 -15 -52 -13 -46 3 3 7 0 13 -6 13 -7 0 -14 -7 -17 -15 -4 -10 -19 -15 -48 -14 -29 0 -35 3 -22 8 15 6 17 9 6 16 -8 5 -18 1 -27 -11 -11 -15 -17 -16 -33 -6 -11 7 -21 8 -25 2 -5 -8 -38 -11 -115 -11 -14 0 -48 0 -76 0 -57 0 -109 30 -88 51 15 15 105 19 123 6 10 -8 15 -8 18 2 6 17 33 15 33 -3 0 -17 25 -20 35 -5 4 6 11 8 16 5 5 -4 15 -3 22 2 6 4 40 8 74 10 48 2 62 -1 67 -14 6 -14 8 -14 24 0 13 11 39 15 108 14 82 -1 91 -3 86 -19 -6 -25 15 -22 23 3 5 14 13 19 26 16 10 -3 22 -1 25 5 4 6 9 6 14 -2 5 -8 13 -9 21 -4 19 12 177 16 184 4 3 -5 17 -5 35 1 16 6 97 9 189 7 180 -4 170 -8 170 72 -1 212 -7 398 -12 407 -4 7 -3 14 1 17 5 3 7 115 6 248 -2 134 -4 293 -4 353 0 61 0 119 -1 130 -1 23 -1 224 1 303 1 48 13 66 33 46z m-17688 -836 c3 -18 5 -42 5 -53 0 -11 2 -198 5 -415 3 -266 9 -402 17 -417 12 -24 -2 -53 -27 -53 -15 0 -29 91 -20 139 3 18 2 37 -2 44 -6 10 -6 283 1 427 2 36 0 90 -4 120 -4 32 -4 63 2 73 5 10 6 26 2 35 -9 19 -14 113 -7 125 10 17 22 5 28 -25z m15488 -764 c21 0 40 -4 43 -7 3 -3 18 -2 32 2 15 5 32 6 39 4 6 -2 14 1 17 6 5 7 15 7 33 0 19 -7 28 -6 34 2 4 7 12 8 20 3 7 -4 33 -8 58 -9 68 -3 73 -4 66 -15 -3 -5 -12 -7 -20 -3 -11 4 -14 -1 -13 -18 3 -22 -1 -24 -45 -25 -33 -1 -51 4 -54 13 -4 11 -8 10 -18 -3 -11 -15 -16 -16 -43 -5 -17 7 -40 10 -51 6 -12 -3 -31 1 -46 11 -22 15 -25 15 -25 1 0 -16 -27 -24 -100 -29 -49 -3 -100 11 -100 28 0 11 -4 12 -19 4 -13 -7 -28 -7 -45 0 -21 7 -26 6 -26 -5 0 -8 -4 -15 -10 -15 -5 0 -10 9 -10 20 0 15 7 20 24 20 14 0 27 4 30 9 3 5 37 7 76 6 39 -1 73 2 76 7 3 5 13 6 23 2 9 -4 33 -9 54 -10z m551 6 c16 -6 27 -6 31 0 4 6 15 10 27 10 15 0 19 -5 15 -20 -6 -24 -3 -25 29 -4 30 20 98 28 123 15 12 -7 21 -7 28 0 11 11 63 2 63 -11 0 -5 3 -15 6 -23 3 -8 -2 -17 -12 -21 -11 -4 -15 -2 -11 8 4 10 0 12 -16 8 -12 -3 -24 -9 -27 -13 -11 -16 -129 -18 -164 -4 -18 8 -36 12 -39 9 -3 -3 -23 -8 -44 -10 -99 -12 -137 -13 -152 -4 -15 9 -14 9 1 10 9 0 20 5 24 12 5 8 -5 9 -35 5 -30 -4 -41 -2 -38 6 2 7 25 12 55 12 28 0 57 6 63 13 15 14 39 15 73 2z m-1966 -29 c11 -13 14 -14 21 -2 5 8 18 12 30 8 12 -3 21 -1 21 4 0 4 32 6 71 3 45 -3 75 -1 84 6 9 8 15 8 20 0 4 -7 12 -7 25 0 22 12 33 0 24 -24 -5 -12 -2 -15 10 -10 9 3 13 10 10 15 -11 18 6 28 31 19 15 -6 27 -6 30 0 7 11 54 8 73 -4 7 -4 12 -18 12 -32 0 -20 -5 -24 -32 -25 -18 -1 -58 -3 -88 -4 -40 -3 -60 1 -72 12 -10 9 -18 11 -18 5 0 -6 -19 -10 -50 -8 -27 1 -50 -2 -50 -6 0 -4 -7 -8 -15 -8 -8 0 -15 8 -15 18 0 11 -3 13 -8 6 -10 -16 -77 -33 -92 -24 -7 5 -34 6 -59 4 -25 -3 -53 -4 -61 -4 -8 0 -27 0 -42 0 -15 0 -30 5 -33 10 -5 8 -12 7 -22 -1 -8 -7 -29 -12 -46 -11 -32 3 -72 9 -72 12 0 1 -8 3 -17 5 -11 2 -18 -3 -18 -12 0 -13 -3 -13 -16 -2 -11 9 -18 9 -22 2 -7 -12 -112 -11 -150 1 -14 5 -22 3 -22 -4 0 -7 -14 -10 -37 -8 -31 2 -39 7 -41 26 -4 28 -32 29 -32 1 0 -19 -4 -21 -30 -15 -17 3 -30 1 -30 -5 0 -6 -51 -9 -138 -7 -76 1 -144 -2 -151 -6 -7 -5 -24 -3 -37 5 -18 9 -32 10 -59 2 -23 -7 -37 -8 -41 -1 -4 5 -33 7 -70 5 -40 -4 -64 -2 -66 5 -2 6 -21 12 -41 12 -28 1 -36 -2 -34 -13 3 -20 -52 -25 -60 -5 -3 7 -10 11 -17 7 -20 -14 -31 -9 -37 17 l-7 25 -1 -26 c-1 -21 -6 -26 -26 -26 -27 0 -34 24 -13 45 17 17 58 15 58 -3 0 -8 5 -15 10 -15 6 0 10 6 10 13 0 17 -1 17 153 21 109 3 129 1 137 -13 8 -13 9 -14 10 -1 0 11 2 12 8 2 7 -10 14 -8 31 7 18 15 28 18 41 11 10 -6 25 -8 32 -5 24 9 159 11 164 3 3 -5 10 -5 16 -1 17 10 161 10 175 0 7 -5 22 -7 33 -4 11 3 20 0 20 -5 0 -7 4 -7 13 0 6 5 21 6 31 2 11 -3 32 -1 47 7 32 16 138 11 149 -8 6 -9 12 -8 25 5 10 9 24 15 32 12 8 -3 19 -6 25 -6 7 0 6 -5 -1 -14 -7 -8 -8 -17 -3 -20 6 -3 17 5 26 19 16 24 19 25 116 22 55 -2 105 0 112 4 15 9 40 0 56 -20z m542 15 c0 3 6 1 14 -5 9 -7 17 -8 20 -2 10 16 76 11 76 -6 0 -8 6 -13 13 -10 43 16 55 16 67 2 11 -13 10 -14 -3 -9 -10 3 -16 -1 -19 -12 -2 -14 -15 -18 -60 -19 -42 -2 -58 1 -58 11 0 10 -5 10 -27 -2 -16 -7 -43 -14 -60 -14 -38 0 -44 20 -17 58 12 18 19 20 35 12 10 -6 19 -8 19 -4z m323 -14 c31 -27 21 -42 -28 -42 -34 0 -45 4 -45 15 0 9 -7 18 -15 21 -22 9 -18 22 8 27 29 5 58 -2 80 -21z m154 15 c3 -4 14 -2 25 4 15 8 24 7 39 -7 27 -24 24 -40 -11 -53 -16 -5 -30 -6 -30 -1 0 5 -14 5 -32 -1 -44 -12 -95 -1 -113 24 -8 12 -15 25 -15 29 0 14 122 19 137 5z m-3321 -22 c19 -8 32 -10 29 -5 -8 14 28 21 60 11 17 -4 45 -7 63 -5 19 2 43 -3 56 -12 15 -9 25 -11 28 -5 1 6 18 15 36 20 30 9 32 8 33 -17 0 -27 0 -27 10 -4 9 23 13 24 84 19 41 -3 78 -1 80 4 3 4 20 0 37 -11 24 -14 34 -16 40 -7 5 9 10 9 19 0 9 -9 7 -16 -6 -30 -15 -14 -37 -18 -107 -20 -59 -2 -88 1 -88 8 0 8 -5 7 -15 -1 -12 -10 -22 -10 -39 -2 -17 7 -27 7 -35 -1 -8 -8 -11 -7 -11 5 0 15 -3 15 -24 4 -32 -16 -145 -13 -156 5 -7 11 -10 10 -16 -4 -7 -20 -34 -23 -34 -4 0 8 -3 8 -8 1 -11 -17 -108 -18 -115 -1 -5 14 -62 12 -82 -3 -14 -11 -105 -10 -105 1 0 5 -5 9 -11 9 -5 0 -7 -5 -3 -11 4 -6 -1 -9 -12 -8 -11 2 -24 0 -31 -4 -6 -4 -19 0 -28 10 -9 9 -20 12 -23 7 -4 -5 -24 -10 -44 -11 -37 -2 -38 -1 -38 33 0 29 3 34 23 34 13 0 27 -3 31 -7 10 -11 36 -12 36 -2 0 5 5 9 10 9 6 0 10 -7 10 -15 0 -19 26 -20 33 -1 5 12 25 14 96 12 50 -1 93 -5 96 -8 3 -3 22 1 43 8 20 7 38 13 40 14 1 0 18 -7 38 -15z m-1066 -20 c8 -10 7 -19 -7 -34 -13 -16 -29 -21 -69 -21 -33 0 -54 5 -57 13 -3 9 -7 9 -17 0 -8 -7 -22 -8 -41 -3 -16 5 -29 6 -29 3 0 -3 -10 2 -22 13 -18 16 -20 16 -15 2 4 -11 -1 -18 -16 -22 -36 -10 -69 -7 -62 5 4 6 -3 5 -14 -3 -18 -11 -23 -11 -30 1 -6 9 -11 10 -15 2 -8 -12 -54 -15 -79 -5 -12 4 -13 11 -4 35 12 30 38 38 67 20 8 -6 18 -7 24 -4 20 13 108 13 123 1 11 -9 16 -9 23 1 5 10 30 12 89 10 44 -2 81 -2 81 2 0 10 59 -3 70 -16z m168 -1 c6 -7 12 -17 12 -23 0 -14 10 -14 30 -1 12 8 12 12 2 18 -10 7 -9 12 4 23 16 12 17 12 11 -3 -3 -10 -2 -18 2 -18 5 0 4 -11 -2 -24 -10 -22 -19 -25 -62 -25 -77 0 -125 17 -125 45 0 19 5 22 36 22 19 0 38 2 41 5 7 7 35 -4 51 -19z m217 14 c4 -4 13 -4 21 -1 14 5 40 -44 29 -55 -3 -3 -41 -6 -85 -7 -75 -1 -95 5 -70 20 6 4 8 15 5 25 -5 15 0 19 22 22 44 5 71 4 78 -4z m158 -2 c9 -1 20 -5 23 -9 12 -12 26 -8 18 6 -5 9 -4 9 7 -1 10 -9 11 -17 3 -29 -16 -25 -33 -27 -42 -5 -6 18 -9 19 -26 7 -10 -8 -16 -17 -13 -22 3 -4 -9 -8 -26 -7 -21 1 -33 7 -35 17 -2 10 1 17 6 17 5 0 12 9 15 20 4 16 11 19 29 15 13 -4 32 -7 41 -9z m1211 8 c20 -8 20 -23 -1 -46 -19 -21 -83 -25 -83 -5 0 8 -4 7 -10 -3 -9 -13 -10 -13 -10 0 1 42 58 72 104 54z m58 -20 c-3 -17 -8 -22 -15 -15 -11 11 -3 41 11 41 5 0 7 -12 4 -26z m-3129 -22 c13 -22 17 -23 17 -8 0 11 5 16 14 13 8 -3 16 2 18 11 4 14 17 17 84 15 111 -2 117 -4 137 -29 20 -26 47 -22 40 5 -5 20 26 34 47 21 7 -5 24 -3 37 3 16 7 30 7 47 -1 13 -6 26 -8 29 -5 13 12 86 11 91 -2 5 -13 46 -10 46 4 0 3 23 7 50 7 46 1 50 -1 50 -23 0 -22 1 -23 24 -8 17 12 26 13 31 5 5 -8 15 -4 31 11 21 20 24 20 24 5 0 -34 -20 -56 -50 -56 -17 0 -30 5 -30 13 0 9 -2 9 -8 -1 -5 -7 -22 -13 -38 -13 -16 0 -94 0 -174 0 -80 0 -158 0 -175 0 -89 -3 -115 1 -115 18 0 15 -2 14 -20 -2 -10 -9 -26 -15 -34 -12 -9 4 -18 2 -21 -3 -8 -13 -75 -13 -75 0 0 6 -7 10 -15 10 -8 0 -15 -4 -15 -9 0 -5 -16 -5 -37 -1 -20 5 -42 6 -47 2 -6 -4 -41 -7 -77 -7 -64 0 -66 1 -53 20 17 24 18 38 2 29 -9 -5 -10 -4 -3 4 11 11 83 19 126 14 14 -2 33 -15 42 -30z m-1453 13 c9 10 17 12 30 5 10 -6 26 -7 34 -4 10 4 18 0 22 -10 3 -9 12 -16 20 -16 8 0 11 6 8 15 -5 12 3 15 35 15 23 0 41 -5 41 -11 0 -7 7 -8 18 -4 50 21 86 24 98 7 11 -15 13 -15 28 1 18 17 57 23 69 10 4 -4 24 -7 45 -7 30 -1 38 -5 40 -22 2 -16 -5 -23 -33 -31 -23 -8 -35 -8 -35 -1 0 7 -4 7 -12 1 -7 -5 -35 -10 -61 -11 -41 -1 -50 2 -54 18 -6 24 -20 26 -25 3 -2 -13 -16 -17 -56 -19 -46 -3 -52 -1 -52 16 0 11 -7 20 -15 20 -8 0 -12 -6 -9 -14 8 -22 -53 -30 -125 -17 -2 1 2 8 9 16 11 13 8 15 -18 15 -17 0 -38 -7 -46 -16 -15 -14 -16 -14 -16 0 0 9 -4 16 -10 16 -9 0 -14 -14 -11 -32 0 -5 -10 -8 -24 -8 -14 0 -25 4 -25 9 0 17 -33 21 -55 7 -14 -9 -47 -14 -91 -14 -38 0 -109 -1 -157 -3 -64 -2 -91 1 -97 10 -5 10 -13 10 -27 3 -12 -7 -33 -8 -56 -3 -20 5 -38 7 -40 4 -8 -7 -66 -13 -150 -15 -57 -2 -81 2 -87 12 -10 16 -3 36 13 38 7 1 35 5 62 10 58 9 96 3 103 -17 3 -8 0 -11 -7 -7 -11 7 -16 -6 -5 -17 10 -10 34 4 34 20 0 8 5 11 10 8 6 -3 10 -2 10 3 0 11 58 22 78 15 6 -3 12 -11 12 -19 0 -8 9 -14 19 -14 11 0 18 7 17 17 -1 15 23 16 247 19 137 1 251 5 255 9 3 3 12 -1 18 -10 10 -13 13 -13 24 0z m720 -20 c5 3 10 12 10 19 0 12 15 13 81 7 4 -1 9 -11 13 -23 3 -13 7 -25 8 -28 2 -3 -17 -6 -42 -7 -25 -1 -55 -4 -67 -8 -15 -5 -23 -3 -23 5 0 7 -7 10 -14 7 -10 -4 -13 -1 -9 9 8 22 -15 17 -27 -6 -7 -12 -16 -18 -23 -13 -7 4 -24 6 -39 4 -41 -4 -68 7 -61 26 5 14 7 14 15 -1 10 -18 28 -21 28 -5 0 12 29 38 42 39 4 0 14 -7 22 -16 14 -14 18 -13 38 6 l22 21 8 -21 c4 -12 12 -18 18 -15z m185 25 c4 -6 16 -8 27 -4 13 4 24 1 29 -7 7 -11 9 -10 9 4 0 21 26 23 34 2 5 -13 9 -14 28 -4 32 17 98 23 98 9 0 -8 10 -9 29 -5 26 5 29 3 33 -23 4 -28 2 -30 -29 -30 -18 0 -36 4 -39 9 -3 5 -13 5 -25 -1 -21 -12 -43 -4 -34 11 4 5 2 9 -4 9 -5 0 -14 -8 -20 -17 -9 -17 -11 -17 -40 0 -28 17 -35 15 -32 -5 0 -5 -8 -8 -20 -8 -13 0 -18 4 -13 13 5 8 2 7 -10 -2 -13 -11 -20 -11 -28 -3 -7 7 -19 12 -28 12 -21 0 -23 38 -2 43 28 8 31 7 37 -3z m349 -4 c-3 -8 0 -17 5 -21 17 -10 3 -25 -25 -25 -43 0 -26 44 23 59 1 1 0 -5 -3 -13z m-2924 -35 c-9 -18 -8 -21 7 -21 34 0 63 12 63 26 0 8 3 14 8 15 28 2 233 0 257 -4 45 -6 45 -6 45 -22 0 -11 -8 -13 -32 -10 -18 3 -27 3 -20 -1 22 -10 13 -19 -20 -19 -18 0 -38 6 -44 14 -9 12 -12 11 -17 -3 -4 -10 -11 -15 -16 -12 -5 3 -37 2 -70 -2 -45 -6 -68 -5 -86 4 -16 8 -25 9 -25 2 0 -6 -11 -8 -29 -5 -15 3 -33 1 -39 -5 -8 -8 -14 -4 -22 17 -12 32 -12 31 20 43 31 12 34 9 20 -17z m495 20 c3 -5 21 -8 40 -5 25 3 37 -1 44 -13 10 -17 10 -16 11 2 0 17 7 20 47 21 33 1 52 -4 60 -15 15 -20 17 -34 3 -26 -5 3 -10 2 -10 -3 0 -4 -21 -9 -47 -10 -27 -2 -61 -4 -78 -5 -22 -1 -30 2 -29 14 2 22 -57 20 -74 -3 -18 -24 -36 -23 -29 3 4 16 3 18 -8 9 -9 -8 -14 -6 -18 9 -4 16 1 21 27 24 17 2 36 5 43 5 6 1 14 -2 18 -7z m-2054 -20 c19 12 119 11 119 -1 0 -5 -10 -10 -22 -10 -18 0 -20 -2 -9 -9 16 -11 21 -9 113 27 20 8 29 8 38 -3 16 -19 4 -35 -25 -35 -13 0 -25 -5 -27 -11 -5 -15 -131 -21 -140 -7 -4 8 -10 9 -20 1 -20 -16 -108 -15 -133 1 -16 10 -25 12 -33 4 -15 -15 -72 -20 -72 -7 0 8 -5 7 -15 -1 -23 -19 -47 -4 -43 27 3 25 7 28 48 31 24 2 64 -2 87 -8 37 -9 47 -8 60 5 13 14 18 14 37 1 15 -9 28 -11 37 -5z m564 8 c4 -6 24 -9 46 -8 21 2 41 0 45 -3 3 -4 13 0 22 9 18 18 90 12 103 -9 7 -10 9 -10 9 0 0 7 13 12 30 12 44 0 38 -23 -14 -50 -32 -17 -115 -17 -126 -1 -7 12 -84 10 -96 -2 -4 -4 -13 -2 -21 4 -10 9 -13 8 -13 -2 -1 -9 -7 -6 -19 8 -16 20 -22 21 -45 10 -14 -7 -26 -18 -26 -26 0 -10 -8 -12 -32 -6 -18 3 -39 8 -47 9 -8 2 -17 10 -21 20 -5 16 -7 16 -24 -3 -22 -24 -66 -28 -66 -7 0 8 -3 21 -6 29 -4 11 1 15 20 13 14 0 26 -3 26 -6 0 -8 74 -5 88 4 7 4 19 6 26 3 10 -4 72 2 128 12 4 0 10 -4 13 -10z m482 -5 c5 -13 15 -12 47 1 11 5 73 9 139 9 115 1 120 0 128 -21 11 -29 -5 -38 -26 -16 -16 16 -18 16 -30 0 -15 -21 -29 -22 -21 -1 4 12 1 14 -14 9 -15 -5 -18 -3 -14 9 4 10 1 16 -9 16 -11 0 -14 -7 -11 -25 6 -33 -17 -42 -51 -19 -23 15 -28 15 -36 3 -8 -12 -11 -11 -20 4 -10 18 -12 18 -34 -3 -26 -24 -61 -22 -89 5 -16 17 -30 20 -21 6 8 -14 -28 -31 -53 -24 -21 5 -31 41 -16 55 11 12 126 5 131 -8z m447 5 c-3 -5 -10 -7 -15 -4 -5 4 -9 2 -9 -3 0 -5 10 -13 23 -16 21 -6 22 -7 3 -21 -13 -10 -23 -11 -31 -5 -7 6 -15 6 -22 -1 -8 -8 -11 -1 -11 24 0 33 2 35 34 35 19 0 31 -4 28 -9z m-2863 -51 c7 -14 6 -16 -6 -12 -8 4 -15 10 -15 15 0 6 -9 5 -21 -1 -11 -7 -27 -9 -34 -6 -8 3 -16 0 -18 -7 -3 -8 -10 -5 -20 8 -14 18 -16 18 -22 4 -11 -28 -81 -33 -127 -9 -45 23 -49 24 -45 8 3 -17 -41 -22 -59 -8 -7 7 -14 8 -14 3 0 -11 -4 -11 -165 -18 -60 -2 -104 -1 -98 3 19 12 0 32 -24 26 -13 -4 -20 -11 -16 -20 4 -11 -5 -14 -34 -14 -21 0 -43 4 -49 10 -6 6 -21 6 -42 1 -27 -8 -32 -7 -32 7 0 10 -3 13 -8 6 -4 -6 -33 -10 -65 -10 -32 1 -61 -2 -64 -7 -4 -7 -25 -8 -128 -5 -92 2 -114 2 -202 -4 -59 -4 -95 -3 -99 3 -3 6 -16 8 -29 5 -23 -6 -51 16 -42 32 3 4 33 7 67 6 33 0 63 3 66 7 9 16 114 11 120 -6 5 -13 8 -13 20 0 11 11 29 13 66 10 28 -3 54 -8 59 -10 4 -3 10 -1 14 5 11 18 25 10 25 -15 0 -30 20 -33 27 -5 6 21 23 28 23 9 0 -5 10 -3 22 5 28 20 38 20 38 1 0 -19 19 -20 26 -2 3 8 22 14 47 15 30 1 38 -1 27 -8 -13 -8 -13 -10 2 -10 9 0 20 5 23 11 4 6 13 8 21 5 8 -3 34 -2 58 3 26 5 49 4 54 -1 5 -5 20 -5 36 2 30 11 180 8 211 -5 11 -5 23 -13 27 -19 5 -7 8 -4 8 7 0 9 3 18 8 18 31 6 229 6 251 -1 16 -4 41 -2 61 5 37 12 47 7 71 -37z m433 40 c51 1 67 -8 60 -34 -5 -19 -13 -21 -87 -22 -45 -1 -76 1 -69 4 17 8 5 24 -19 24 -22 0 -24 -11 -7 -28 9 -9 4 -12 -25 -12 -21 0 -39 6 -44 15 -5 8 -24 16 -43 18 -23 2 -36 8 -38 19 -2 13 4 16 30 14 18 -1 67 0 108 4 41 3 79 4 84 1 4 -2 27 -3 50 -3z m536 -9 c8 -11 13 -12 30 -1 30 18 38 15 32 -13 -4 -24 -8 -25 -46 -21 -22 2 -47 -1 -53 -6 -9 -7 -18 -6 -28 2 -11 9 -19 10 -26 3 -14 -14 -47 -5 -52 16 -3 11 -5 9 -6 -6 -1 -19 -7 -22 -41 -21 -22 0 -42 3 -45 7 -2 4 -40 2 -84 -4 -44 -7 -97 -9 -118 -5 -21 4 -31 8 -23 9 8 0 27 12 41 24 13 13 30 26 37 28 7 2 94 4 193 4 146 -1 182 -4 189 -16z m-842 -16 c4 -27 -14 -31 -21 -5 -4 14 -6 14 -12 -5 -10 -31 -45 -31 -45 0 0 32 9 38 45 35 22 -2 31 -9 33 -25z m-1843 7 c4 -7 13 -6 26 1 15 7 24 7 35 -1 7 -7 32 -12 54 -12 22 0 40 -3 40 -8 0 -5 7 -7 15 -4 9 4 15 0 15 -10 0 -13 -11 -15 -65 -11 -35 2 -67 0 -70 -5 -4 -6 -22 -10 -41 -10 -25 0 -34 4 -35 18 0 10 -3 12 -6 5 -5 -15 -39 -17 -47 -4 -9 14 4 39 22 44 31 8 51 7 57 -3z m230 -15 c0 -16 -6 -25 -15 -25 -9 0 -16 10 -18 25 -1 18 3 25 16 25 11 0 17 -8 17 -25z m-1530 -1 c12 -13 19 -13 30 -4 8 7 23 9 37 4 38 -12 58 -11 58 3 0 17 30 17 56 -2 12 -8 24 -12 26 -9 3 2 23 6 44 8 21 2 47 7 56 11 13 5 20 1 27 -16 5 -13 10 -19 10 -12 1 7 8 10 16 7 8 -4 17 1 20 9 9 22 84 15 102 -9 11 -16 15 -16 22 -5 8 12 12 12 25 -2 23 -23 20 -26 -18 -20 -18 3 -36 1 -40 -5 -4 -7 -17 -7 -35 -2 -16 4 -32 5 -36 2 -10 -11 -65 -11 -65 0 0 5 -9 6 -20 3 -12 -4 -27 -1 -35 5 -8 7 -22 9 -32 6 -9 -4 -20 -1 -25 6 -6 9 -8 7 -6 -7 3 -17 -3 -20 -42 -20 -25 -1 -62 5 -83 12 -33 11 -42 10 -62 -3 -32 -21 -152 -15 -170 9 -12 16 -13 16 -18 -4 -5 -20 -34 -22 -30 -2 1 6 -8 8 -21 6 -27 -6 -45 15 -25 28 8 5 33 7 56 5 23 -2 47 1 55 5 23 15 105 10 123 -7z m675 5 c0 -5 5 -7 10 -4 6 3 10 2 10 -4 0 -5 -9 -13 -20 -16 -11 -4 -18 -11 -15 -16 4 -5 0 -9 -8 -9 -9 0 -12 9 -9 30 4 27 32 44 32 19z m125 1 c4 -6 13 -5 25 3 17 10 27 8 65 -13 25 -13 45 -28 45 -32 0 -12 -118 -9 -126 3 -3 6 -16 8 -27 5 -28 -7 -51 12 -36 30 13 16 45 18 54 4z m396 -18 c11 -30 1 -33 -86 -27 -38 3 -83 6 -98 6 -23 0 -27 2 -18 13 6 7 22 11 36 8 14 -2 25 0 25 6 0 13 29 18 89 17 36 0 45 -4 52 -23z m-621 3 c0 -8 -6 -15 -14 -15 -17 0 -28 14 -19 24 12 12 33 6 33 -9z"></path>
      <path id="p1D7Qx6Ji3"
        d="M13670 15596 c0 -9 7 -16 16 -16 17 0 14 22 -4 28 -7 2 -12 -3 -12 -12z"></path>
      <path id="pqvGRIIyj"
        d="M10380 15570 c19 -13 30 -13 30 0 0 6 -10 10 -22 10 -19 0 -20 -2 -8 -10z"></path>
      <path id="p9s9PJYbG" d="M12550 140 c-8 -5 -11 -12 -7 -16 4 -4 13 -2 19 4 15 15 7 24 -12 12z"></path>
      <path id="pYxREKrvb" d="M7615 99 c7 -11 35 -12 35 -1 0 4 -9 8 -20 9 -11 1 -18 -2 -15 -8z"></path>
    </g>
  </g>
</svg>