<svg class="img-fluid" id="outputsvg" xmlns="http://www.w3.org/2000/svg"
    style="transform: none; transform-origin: 50% 50% 0px; cursor: move; transition: none 0s ease 0s;"
    width="2321" height="1098" viewBox="0 0 23210 10980"
    preserveAspectRatio="none">
    <g id="l6iX3rmERBM0KTqV5vSwDNg" fill="rgb(255,255,255)" style="transform: none;">
        <g>
            <path id="pZvUpmWxG"
                d="M0 5490 l0 -5490 11605 0 11605 0 0 5490 0 5490 -11605 0 -11605 0 0 -5490z"></path>
        </g>
    </g>
    <g id="l3BaOTHd0jggjsJxrPXNKLa" fill="rgb(51,51,50)" style="transform: none;">
        <g>
            <path id="p4ulpgLlW"
                d="M22374 10955 c-16 -12 -17 -16 -4 -24 15 -11 28 -93 32 -218 2 -40 7 -73 12 -73 4 0 5 -7 2 -16 -3 -8 -1 -47 5 -87 6 -40 12 -85 13 -101 1 -17 8 -32 14 -34 8 -2 7 -8 -4 -19 -10 -10 -13 -24 -9 -37 4 -12 7 -31 7 -43 0 -13 5 -23 12 -23 8 0 7 -3 -1 -8 -9 -6 -10 -24 -4 -68 5 -33 7 -75 5 -94 -2 -19 -1 -42 2 -50 3 -8 8 -46 11 -85 2 -38 6 -90 8 -115 2 -25 3 -53 4 -62 1 -12 9 -18 25 -18 22 0 23 4 24 60 0 33 -2 60 -6 60 -4 0 -7 39 -7 88 0 48 -5 112 -12 142 -7 30 -13 86 -15 123 -1 38 -5 70 -8 72 -3 2 -4 21 -2 42 5 63 2 97 -10 104 -9 6 -9 11 1 22 8 10 8 17 2 21 -6 4 -8 13 -4 21 3 9 0 21 -5 28 -7 8 -7 18 -2 27 5 8 7 17 4 21 -2 4 -6 56 -9 116 -4 105 -18 213 -30 233 -9 14 -28 12 -51 -5z"></path>
            <path id="ppTZtnD3k"
                d="M22209 10955 c-2 -2 -55 -6 -116 -9 -62 -3 -122 -10 -134 -16 -12 -7 -43 -10 -72 -7 -29 3 -83 1 -122 -4 -38 -5 -113 -11 -165 -14 -84 -4 -162 -9 -253 -19 -15 -1 -30 -6 -34 -9 -3 -4 -15 -7 -25 -7 -10 0 -18 -5 -18 -11 0 -8 12 -9 38 -4 20 4 74 7 120 6 46 -1 88 2 95 6 7 4 35 9 62 9 71 2 225 13 325 24 47 5 94 7 106 4 11 -3 56 -1 100 5 43 6 103 13 133 15 49 4 70 11 60 20 -6 5 -96 16 -100 11z"></path>
            <path id="pfFzztFpw"
                d="M21170 10871 c0 -5 -12 -12 -27 -16 -25 -7 -26 -8 -8 -15 29 -10 55 0 55 21 0 11 -4 19 -10 19 -5 0 -10 -4 -10 -9z"></path>
            <path id="p1y4NI3Pu"
                d="M21086 10863 c-4 -5 -40 -8 -79 -9 -176 -2 -192 -3 -178 -16 18 -19 206 -16 249 2 17 8 32 18 32 22 0 10 -14 10 -24 1z"></path>
            <path id="pab30pEJm"
                d="M20613 10827 c-3 -5 -16 -6 -29 -3 -38 10 -103 -4 -97 -20 4 -11 24 -13 96 -9 50 2 94 10 97 16 4 6 16 10 26 9 29 -3 44 -1 44 8 0 10 -131 9 -137 -1z"></path>
            <path id="p67IhLE1I"
                d="M20292 10801 c-7 -4 -47 -9 -88 -9 -42 -1 -79 -4 -84 -7 -5 -3 -64 -7 -132 -9 -67 -2 -175 -9 -238 -15 -63 -6 -162 -15 -220 -20 -58 -6 -123 -12 -145 -15 -22 -2 -103 -7 -179 -11 -90 -4 -149 -11 -167 -21 -18 -9 -30 -10 -34 -4 -7 11 -206 4 -235 -8 -16 -6 -140 -17 -290 -26 -52 -3 -120 -8 -150 -12 -30 -4 -77 -7 -103 -8 l-48 -1 23 -18 c15 -13 32 -17 53 -13 16 3 91 10 165 16 74 5 178 14 230 19 52 5 104 9 115 9 44 -1 217 13 335 27 69 8 150 16 180 18 132 11 176 17 198 29 19 10 25 10 31 -1 6 -8 19 -11 37 -7 16 3 96 8 179 12 82 3 153 8 156 10 10 6 135 15 192 15 31 0 47 4 47 12 0 6 11 12 25 12 14 0 25 -4 25 -8 0 -5 21 -6 48 -3 26 3 89 8 141 11 96 6 111 9 111 26 0 11 -160 12 -178 0z"></path>
            <path id="pkNEZBYkS"
                d="M18085 10620 c-4 -6 -15 -8 -26 -5 -13 4 -19 2 -19 -9 0 -11 9 -16 28 -16 42 0 72 11 72 26 0 16 -46 19 -55 4z"></path>
            <path id="p2MrFumDX"
                d="M17822 10613 c-12 -2 -20 -9 -17 -14 4 -5 -4 -9 -17 -9 -19 0 -20 2 -8 11 11 7 4 9 -25 4 -22 -3 -107 -10 -190 -15 -82 -6 -163 -12 -180 -14 -16 -3 -86 -10 -155 -16 -69 -6 -147 -14 -175 -16 -27 -3 -68 -6 -90 -8 -22 -2 -47 -4 -56 -5 -9 0 -19 -8 -23 -16 -6 -15 -13 -15 209 0 375 26 366 25 427 56 23 12 51 11 43 0 -3 -5 7 -11 22 -13 31 -3 290 16 365 28 50 7 57 24 10 22 -15 -1 -47 1 -72 4 -25 3 -55 4 -68 1z"></path>
            <path id="pNO2Fc7ys"
                d="M16767 10524 c-3 -3 -32 -7 -64 -9 -296 -15 -436 -25 -453 -32 -20 -9 -198 -22 -287 -22 -49 0 -73 -4 -73 -12 0 -7 -11 -10 -29 -7 -17 2 -28 1 -25 -4 7 -11 -20 -10 -31 1 -6 6 -29 6 -58 1 -26 -5 -87 -9 -135 -9 -99 1 -195 -15 -212 -36 -10 -12 -5 -14 24 -12 19 2 38 5 41 8 3 4 20 3 38 0 18 -4 50 -3 72 2 22 5 90 11 150 13 61 2 126 7 145 11 42 8 63 9 210 18 63 3 142 13 174 21 44 11 61 11 67 3 3 -6 15 -9 25 -5 11 3 63 8 117 11 55 3 103 8 108 11 5 3 59 7 120 8 60 2 112 6 116 9 3 4 3 13 0 22 -6 15 -28 20 -40 9z"></path>
            <path id="p9wprJbmt"
                d="M15248 10404 c-3 -3 -39 -7 -79 -9 -41 -3 -94 -7 -119 -10 -25 -3 -69 -5 -97 -4 -30 0 -53 -4 -53 -10 0 -10 -14 -11 -124 -10 -45 0 -47 -1 -32 -17 18 -18 12 -18 266 7 52 5 142 11 200 14 57 3 109 10 114 15 6 6 6 10 1 10 -6 0 -3 5 5 10 11 7 2 10 -31 10 -25 0 -48 -3 -51 -6z"></path>
            <path id="perBsdNEc"
                d="M14585 10352 c-3 -3 -31 -6 -62 -8 -149 -7 -243 -15 -297 -24 -32 -5 -63 -7 -67 -4 -12 7 -139 -17 -139 -26 0 -13 22 -18 70 -14 25 2 108 9 185 15 77 6 142 15 145 20 4 5 21 12 40 15 29 6 33 5 27 -11 -6 -13 -3 -16 9 -11 8 3 24 6 34 6 10 0 25 7 34 15 10 10 17 12 21 5 10 -16 115 -8 115 8 0 7 -5 10 -10 7 -6 -4 -16 -2 -23 3 -12 10 -73 13 -82 4z"></path>
            <path id="ppj5TuNw7"
                d="M13910 10291 c-8 -6 -17 -8 -21 -5 -4 2 -19 0 -34 -6 -19 -7 -24 -7 -19 1 6 11 -23 10 -185 -6 -55 -5 -74 -21 -37 -31 35 -8 140 4 144 17 3 6 9 6 15 1 13 -10 201 -1 212 10 23 22 -43 39 -75 19z"></path>
            <path id="pC2Z3Th0e"
                d="M13435 10263 c-16 -2 -73 -8 -125 -14 -135 -16 -196 -21 -270 -20 -36 1 -148 -8 -250 -20 -102 -11 -211 -20 -242 -19 -38 1 -58 -3 -58 -10 0 -7 -7 -9 -16 -6 -9 4 -22 2 -28 -3 -18 -14 -84 -19 -79 -5 3 8 -10 11 -45 8 -72 -5 -106 -12 -110 -24 -6 -16 -22 -12 -22 6 0 11 -5 14 -16 10 -9 -3 -35 -6 -59 -6 -27 0 -50 -6 -60 -16 -12 -13 -19 -14 -30 -4 -12 10 -39 10 -120 1 -109 -11 -159 -26 -135 -41 13 -8 147 -3 190 7 14 3 54 7 90 9 36 1 97 5 135 9 39 3 99 8 135 10 173 8 278 16 310 22 19 3 39 5 44 4 8 -2 172 13 336 30 47 5 113 9 147 8 43 0 70 5 88 17 22 14 31 15 46 6 18 -11 95 -9 169 5 19 3 41 5 48 4 6 -1 12 5 12 12 0 16 -35 24 -85 20z"></path>
            <path id="pTkcvKdLf"
                d="M11575 10112 c-3 -3 -40 -6 -82 -8 -43 -2 -98 -6 -123 -10 -25 -3 -65 -7 -90 -9 -25 -1 -47 -3 -50 -5 -3 -1 -39 -3 -80 -5 -217 -9 -358 -25 -364 -41 -3 -8 -13 -14 -23 -13 -11 0 -13 3 -5 6 50 20 -72 28 -148 9 -14 -3 -74 -8 -135 -11 -60 -3 -126 -8 -145 -11 -19 -2 -56 -5 -82 -7 -32 -1 -48 -6 -48 -15 0 -10 -4 -9 -16 2 -8 9 -19 14 -22 12 -4 -2 -68 -9 -142 -15 -214 -18 -222 -20 -236 -38 -13 -17 -14 -17 -8 0 6 15 0 17 -62 12 -38 -2 -88 -4 -111 -4 -46 0 -83 -18 -83 -40 0 -9 7 -11 23 -6 51 16 122 26 124 18 2 -4 36 -5 76 -1 39 4 124 9 187 12 63 3 149 11 190 17 41 6 131 13 200 15 144 6 167 8 176 17 4 4 16 7 26 7 10 0 18 5 18 11 0 7 8 6 23 -3 18 -12 40 -13 117 -6 52 5 98 12 103 17 5 5 26 6 48 4 32 -5 39 -3 39 11 0 9 5 16 11 16 5 0 8 -4 4 -9 -9 -16 10 -21 42 -12 17 5 36 5 43 1 7 -4 27 -4 44 1 37 10 182 21 247 19 30 0 52 5 62 15 10 9 18 11 22 5 8 -13 112 -13 120 0 3 5 23 9 43 9 84 -1 150 7 165 20 9 7 25 10 37 6 12 -4 20 -2 20 5 0 10 -144 12 -155 2z"></path>
            <path id="pUj3tlOjp"
                d="M9418 9945 c-3 -3 -47 -8 -97 -10 -51 -3 -96 -7 -100 -10 -4 -2 -73 -7 -152 -10 -101 -5 -151 -11 -167 -22 -13 -8 -21 -17 -18 -20 9 -9 251 1 305 13 28 6 164 16 237 18 48 1 84 17 84 37 0 9 -83 13 -92 4z"></path>
            <path id="pf9DyH2T2"
                d="M8646 9883 c-16 -3 -35 -11 -43 -19 -18 -18 -28 -18 -46 1 -8 8 -16 12 -18 11 -2 -2 -47 -7 -99 -11 -52 -4 -97 -9 -100 -12 -11 -11 30 -28 66 -27 128 2 136 4 130 20 -3 8 -2 12 4 9 5 -3 26 -8 46 -11 27 -3 40 0 49 13 11 15 16 16 41 4 33 -16 48 -17 122 -6 34 5 52 12 52 21 0 11 -19 14 -87 13 -49 -1 -101 -4 -117 -6z"></path>
            <path id="p3GEa33cf"
                d="M8256 9845 c-22 -8 -52 -11 -66 -8 -15 3 -37 0 -49 -6 -15 -9 -21 -9 -21 0 0 7 -13 9 -38 4 -49 -8 -160 -16 -242 -17 -36 0 -73 -4 -82 -9 -10 -5 -68 -11 -130 -13 -62 -3 -133 -7 -158 -10 -25 -3 -88 -8 -140 -12 -52 -3 -108 -8 -125 -9 -16 -2 -88 -6 -160 -9 -71 -4 -141 -9 -155 -12 -14 -4 -56 -8 -95 -9 -104 -5 -192 -24 -192 -41 0 -19 12 -18 32 3 13 13 18 14 25 3 6 -10 22 -11 67 -5 32 4 69 9 83 10 14 1 33 5 42 9 10 5 30 4 45 -1 38 -12 235 8 257 26 14 12 16 12 10 -3 -5 -14 -2 -16 20 -12 14 4 38 9 53 12 15 3 82 7 148 9 186 7 262 12 273 19 5 3 69 8 141 12 83 3 141 11 159 20 15 7 28 10 30 5 3 -10 97 -6 147 6 17 4 57 5 90 4 48 -2 65 1 82 17 38 32 14 40 -51 17z"></path>
            <path id="p1EV186675"
                d="M22503 9763 c-22 -8 -15 -43 8 -43 17 0 19 3 10 14 -9 11 -9 15 1 18 6 2 8 7 3 10 -6 3 -16 3 -22 1z"></path>
            <path id="pAetbKs4r"
                d="M6519 9700 c-4 -8 -9 -10 -9 -3 0 13 -117 15 -142 2 -9 -5 -72 -11 -140 -14 -68 -2 -179 -9 -248 -15 -69 -5 -179 -13 -245 -16 -66 -3 -136 -10 -155 -15 -19 -5 -49 -9 -67 -9 -22 0 -33 -5 -35 -17 -3 -15 -4 -15 -21 1 -17 17 -26 17 -175 3 -86 -9 -193 -19 -237 -22 -44 -3 -138 -10 -210 -16 -71 -6 -157 -12 -190 -13 -33 -2 -78 -6 -100 -9 -57 -9 -138 -16 -241 -22 -216 -11 -244 -15 -244 -37 0 -22 16 -22 225 -2 153 14 251 21 258 17 4 -2 7 0 7 5 0 5 11 7 25 4 14 -2 32 1 39 8 10 7 21 8 33 3 10 -5 27 -8 38 -7 20 3 98 9 235 20 49 3 82 11 94 22 11 9 16 11 12 5 -5 -10 4 -13 36 -13 24 0 50 6 57 13 9 8 15 8 17 2 5 -13 117 -9 184 6 25 5 79 10 120 10 41 1 152 8 245 15 94 8 208 17 255 20 47 3 92 8 100 11 8 3 51 7 95 8 155 5 328 24 335 36 5 7 13 8 21 3 28 -17 99 2 99 27 0 14 -61 5 -71 -11z"></path>
            <path id="pqEZTeqHL"
                d="M22495 9623 c4 -119 14 -240 24 -266 4 -12 6 -33 4 -47 -8 -54 4 -220 15 -220 4 0 8 -35 8 -77 2 -116 9 -201 16 -209 4 -3 5 -19 2 -34 -4 -16 -1 -31 5 -35 9 -5 9 -10 1 -20 -8 -10 -8 -19 1 -33 10 -16 10 -23 0 -36 -9 -10 -9 -20 -3 -33 9 -15 20 -115 26 -228 1 -16 5 -36 10 -43 4 -7 5 -16 2 -19 -3 -3 -1 -14 5 -24 6 -13 6 -19 0 -19 -6 0 -8 -13 -5 -32 3 -18 7 -58 9 -88 2 -30 7 -91 10 -135 3 -44 6 -106 5 -137 -1 -39 3 -58 11 -58 9 0 9 -3 0 -14 -8 -9 -9 -16 -2 -21 6 -3 10 -32 10 -63 -1 -31 2 -75 5 -97 3 -22 8 -89 10 -148 3 -60 8 -112 11 -117 3 -5 8 -60 11 -121 3 -62 8 -117 12 -123 4 -6 7 -51 8 -101 1 -83 4 -132 20 -290 4 -33 8 -80 9 -105 8 -125 16 -221 21 -275 3 -33 6 -73 8 -89 1 -17 8 -32 15 -34 9 -3 8 -9 -5 -23 -10 -11 -14 -25 -9 -36 8 -20 26 -164 29 -228 0 -22 5 -46 9 -53 5 -7 5 -22 1 -35 -12 -36 -13 -51 -4 -62 4 -5 7 -22 5 -37 -2 -16 0 -28 5 -28 4 0 6 -34 4 -74 -2 -41 0 -77 5 -81 5 -3 7 -39 5 -80 -3 -41 0 -94 6 -117 7 -23 11 -71 11 -107 0 -36 5 -97 11 -136 12 -81 20 -177 19 -254 0 -30 2 -58 5 -63 6 -10 17 -147 15 -197 -1 -18 4 -39 9 -46 17 -21 21 -58 8 -88 -7 -19 -8 -31 -1 -35 5 -4 10 -23 9 -42 -1 -68 12 -245 20 -264 4 -12 3 -21 -3 -23 -7 -3 -8 -16 -2 -41 5 -20 11 -68 14 -107 3 -38 10 -72 16 -73 6 -3 6 -8 -1 -17 -7 -9 -8 -26 -1 -54 5 -23 7 -51 4 -62 -3 -11 -1 -30 5 -42 17 -37 22 -56 13 -61 -4 -3 -6 -20 -4 -38 1 -18 3 -70 4 -115 1 -53 6 -87 14 -93 9 -8 11 -20 5 -40 -5 -17 -5 -32 1 -35 5 -4 4 -14 -3 -25 -8 -13 -9 -22 -1 -32 6 -7 11 -47 12 -88 2 -41 6 -77 9 -80 6 -4 11 -54 14 -143 1 -21 6 -27 24 -27 27 0 33 20 7 21 -10 0 -13 3 -6 5 7 3 10 11 7 18 -3 7 0 25 6 40 5 15 8 32 4 37 -3 5 -7 46 -9 92 -13 252 -23 382 -33 407 -3 8 -7 53 -8 100 -2 47 -8 86 -13 88 -6 2 -7 12 -1 28 6 14 7 42 2 62 -6 34 -7 59 -2 72 7 19 7 40 -1 40 -5 0 -8 10 -8 23 1 12 -2 58 -6 102 -4 44 -9 100 -10 125 -1 25 -4 50 -5 55 -3 10 -9 114 -9 172 0 17 -5 34 -10 37 -5 3 -7 16 -4 27 4 14 0 25 -11 31 -12 7 -14 13 -6 28 6 11 8 42 5 69 -2 28 0 62 5 76 6 15 6 25 0 25 -5 0 -9 8 -9 18 -3 78 -7 119 -15 131 -5 8 -11 71 -13 140 -4 167 -9 250 -17 286 -3 17 -9 75 -12 130 -3 55 -7 116 -9 135 -1 19 -5 66 -8 105 -3 38 -10 71 -16 73 -7 2 -8 10 -2 20 9 17 6 98 -4 157 -3 17 -7 69 -9 116 -2 48 -7 92 -11 100 -5 7 -8 31 -8 53 0 23 -4 44 -10 48 -8 5 -7 17 1 44 6 20 8 42 5 47 -3 6 -7 32 -9 59 -2 28 -8 56 -14 63 -7 8 -9 19 -5 25 11 17 6 182 -5 195 -11 13 -14 65 -6 110 2 16 2 34 -2 40 -8 11 -8 8 -17 175 -10 175 -13 225 -15 225 -1 0 -4 22 -6 48 -4 49 -11 92 -14 92 -1 0 -4 36 -5 80 -2 44 -4 80 -5 80 -1 0 -4 29 -6 65 -2 36 -6 88 -9 115 -6 54 -7 66 -6 135 1 41 -5 115 -9 115 -1 0 -3 29 -5 65 -1 36 -8 78 -14 94 -9 22 -9 31 0 36 6 4 9 16 6 26 -3 11 -8 57 -12 103 -3 46 -10 91 -15 101 -6 11 -6 36 -1 63 8 47 4 105 -10 123 -8 10 -4 78 6 94 3 5 -4 12 -16 15 -14 5 -18 10 -11 17 11 11 4 87 -11 106 -6 8 -6 17 2 26 12 14 10 112 -2 146 -3 8 -8 56 -12 105 -3 50 -8 108 -11 130 -4 36 -8 96 -19 295 -2 36 -4 65 -5 65 -1 0 -3 28 -4 61 -4 70 -10 84 -35 84 -16 0 -18 -9 -16 -87z"></path>
            <path id="pGy6ml3M8"
                d="M3978 9515 c-6 -6 -99 -15 -175 -16 -35 -1 -54 -6 -57 -16 -4 -10 -13 -12 -27 -8 -14 5 -19 3 -15 -4 4 -7 42 -8 109 -5 56 3 124 5 151 5 47 -1 86 18 86 41 0 9 -63 12 -72 3z"></path>
            <path id="pXor4MUVr"
                d="M3577 9483 c-37 -3 -47 -8 -43 -19 6 -16 -9 -19 -19 -4 -11 17 -243 6 -261 -13 -25 -25 73 -30 216 -12 52 7 99 10 103 8 5 -3 33 -2 64 2 l55 7 -31 19 c-17 10 -32 18 -34 17 -1 -1 -24 -3 -50 -5z"></path>
            <path id="pNquRGoDj"
                d="M3184 9439 c-3 -6 -18 -9 -33 -6 -14 3 -35 0 -45 -5 -14 -8 -21 -8 -24 0 -4 13 -202 5 -241 -10 -14 -6 -69 -10 -121 -10 -52 0 -99 -3 -104 -6 -5 -3 -37 -4 -71 -3 -45 2 -67 -2 -78 -13 -12 -13 -38 -15 -134 -14 -65 2 -145 -1 -178 -6 -33 -4 -81 -7 -106 -6 -26 0 -85 -4 -130 -11 -98 -14 -113 -15 -282 -23 -70 -4 -159 -11 -198 -15 -38 -5 -77 -7 -88 -4 -10 3 -21 0 -25 -5 -3 -5 -25 -7 -49 -5 -32 4 -52 0 -71 -12 -14 -10 -26 -13 -26 -7 0 11 -136 7 -200 -5 -30 -6 -85 -11 -165 -13 -11 -1 -67 -6 -125 -11 -58 -6 -143 -12 -190 -14 -150 -6 -380 -25 -405 -35 -28 -11 -52 -49 -37 -59 6 -3 13 -56 17 -116 3 -61 8 -132 12 -160 7 -56 13 -138 13 -205 1 -24 7 -55 16 -67 11 -18 12 -28 4 -44 -8 -15 -8 -24 0 -34 8 -10 8 -19 1 -33 -6 -11 -8 -22 -5 -25 4 -3 8 -39 10 -79 3 -64 7 -100 14 -118 5 -13 5 -37 -1 -61 -4 -15 -2 -32 4 -38 6 -6 11 -27 11 -48 1 -32 5 -39 25 -41 16 -3 22 0 19 10 -3 7 -1 26 3 42 5 18 5 34 -2 42 -6 7 -8 18 -4 24 3 5 3 15 -1 21 -3 6 -8 57 -10 113 -3 103 -8 173 -18 261 -3 28 -6 77 -7 110 -1 33 -5 65 -10 70 -4 6 -8 37 -8 70 -1 98 -14 260 -21 260 -7 0 -4 58 5 64 5 5 66 12 135 15 69 4 161 11 205 16 44 6 116 12 160 15 77 5 145 11 230 21 22 3 48 5 59 5 10 0 29 7 42 16 23 14 24 14 17 -2 -4 -11 -3 -16 4 -12 5 3 61 9 124 12 62 4 117 9 121 11 4 3 52 7 107 8 54 2 104 7 111 11 6 4 60 9 118 11 59 1 132 5 162 8 79 9 231 18 259 17 13 -1 29 3 35 8 19 15 59 25 52 12 -8 -12 168 -4 194 10 9 4 52 8 95 9 90 3 297 17 365 26 25 3 86 8 135 10 50 3 108 6 130 9 22 2 77 6 123 10 45 3 92 9 104 14 l22 8 -21 12 c-16 8 -24 8 -29 0z"></path>
            <path id="p1AvXwglrR"
                d="M170 8045 c-14 -17 -6 -234 11 -298 6 -21 11 -80 11 -130 1 -51 3 -96 6 -100 5 -10 15 -159 16 -244 1 -35 4 -63 9 -63 4 0 7 -17 5 -37 -3 -65 13 -257 23 -270 6 -7 6 -13 1 -17 -9 -5 -7 -54 4 -126 3 -19 7 -72 9 -117 2 -45 6 -86 9 -91 3 -5 8 -53 11 -105 2 -53 7 -109 9 -124 2 -15 7 -68 11 -118 3 -49 9 -117 12 -150 4 -33 6 -81 4 -107 -1 -25 3 -49 8 -52 5 -3 7 -15 4 -25 -3 -10 0 -28 6 -38 6 -13 7 -23 1 -29 -6 -6 -6 -22 0 -42 5 -18 7 -39 4 -46 -3 -8 2 -16 12 -20 11 -4 13 -10 6 -19 -14 -17 -5 -212 13 -279 4 -15 3 -33 -1 -40 -12 -19 -14 -41 -4 -53 4 -5 11 -53 14 -105 4 -52 10 -108 13 -125 3 -16 7 -52 9 -80 1 -27 5 -84 9 -125 3 -41 5 -87 5 -102 0 -16 5 -28 11 -28 8 0 8 -4 1 -12 -13 -17 -6 -156 9 -174 9 -10 9 -18 2 -25 -7 -7 -8 -22 -2 -43 8 -28 18 -137 19 -203 0 -12 5 -25 11 -28 7 -5 7 -11 -1 -19 -12 -16 7 -274 22 -293 6 -7 8 -20 4 -29 -3 -8 -1 -24 5 -35 6 -12 7 -25 2 -32 -12 -15 -15 -66 -6 -81 4 -6 8 -40 9 -76 1 -36 7 -101 13 -145 6 -44 13 -125 15 -180 3 -55 7 -131 10 -170 2 -38 7 -117 11 -175 4 -57 9 -108 11 -112 3 -4 7 -40 9 -80 3 -40 8 -93 11 -118 3 -25 6 -66 7 -92 1 -25 5 -49 9 -53 3 -4 4 -30 1 -58 -2 -29 0 -79 6 -112 6 -33 13 -99 15 -147 2 -47 7 -92 12 -99 4 -7 7 -53 6 -103 0 -49 2 -94 5 -99 5 -9 11 -52 14 -119 1 -15 5 -25 10 -23 4 3 10 1 14 -5 3 -5 1 -10 -6 -10 -8 0 -9 -23 -4 -87 5 -49 8 -123 9 -167 1 -62 5 -81 18 -89 31 -20 37 6 24 108 -3 28 -8 98 -10 156 -2 58 -6 119 -9 135 -4 16 -9 74 -12 129 -3 55 -8 112 -11 127 -3 15 -6 65 -7 113 -2 64 -6 88 -17 95 -12 8 -13 12 -2 19 11 7 12 29 3 122 -6 63 -13 146 -16 184 -3 39 -8 91 -11 118 -3 26 -8 84 -10 130 -2 45 -6 111 -9 147 -3 36 -7 101 -9 146 -1 44 -5 85 -8 90 -3 5 -9 61 -13 124 -12 184 -13 195 -15 195 -1 0 -3 25 -4 55 -1 30 -5 60 -8 65 -4 6 -9 60 -13 119 -3 60 -9 114 -12 119 -3 6 -8 68 -10 137 -1 70 -5 147 -9 171 -3 24 -7 76 -9 114 -3 39 -7 95 -11 125 -7 67 -12 130 -18 235 -3 44 -9 100 -14 125 -5 25 -7 62 -4 81 2 20 -1 39 -6 43 -7 4 -7 17 -2 34 4 16 4 35 0 43 -4 8 -11 68 -15 134 -3 66 -11 125 -16 131 -7 8 -6 14 1 19 6 4 7 21 4 43 -4 20 -6 60 -6 87 1 28 -1 57 -4 65 -3 8 -7 35 -9 60 -3 25 -7 74 -10 110 -3 36 -8 103 -11 150 -3 47 -7 110 -10 140 -4 58 -6 81 -18 255 -5 61 -10 113 -12 117 -3 4 -7 62 -10 130 -3 68 -7 134 -10 148 -3 14 -7 54 -9 90 -2 36 -7 90 -10 120 -4 30 -8 91 -9 135 -1 44 -4 85 -7 90 -3 6 -5 31 -3 58 1 26 -1 47 -5 47 -4 0 -8 31 -8 70 0 39 -5 76 -12 84 -9 10 -9 16 -1 21 6 4 8 14 5 24 -4 9 -8 61 -11 116 -3 55 -8 109 -11 120 -9 25 -13 90 -12 177 0 21 -4 46 -10 56 -5 10 -6 24 -1 32 5 8 5 21 0 30 -5 9 -6 37 -4 63 3 28 0 47 -6 47 -5 0 -10 9 -10 20 0 24 -13 26 -30 5z"></path>
            <path id="pS2U02NvY"
                d="M23042 2918 c-12 -15 -7 -145 6 -162 13 -16 23 -74 13 -80 -10 -7 -8 -87 3 -105 13 -20 16 -63 7 -76 -5 -5 -7 -21 -5 -35 1 -14 6 -47 9 -75 3 -27 7 -63 8 -80 2 -16 6 -36 10 -42 5 -7 4 -13 -2 -13 -6 0 -7 -11 -2 -27 4 -16 9 -75 10 -133 1 -58 7 -127 12 -154 13 -69 3 -78 -83 -72 -44 3 -88 -1 -126 -10 -65 -18 -114 -24 -189 -25 -29 -1 -53 -5 -53 -10 0 -13 348 -4 383 10 16 6 48 11 72 11 24 0 46 4 49 9 15 23 -9 299 -29 330 -3 5 -2 12 3 15 9 5 8 131 -2 156 -11 29 -18 75 -16 112 0 20 -4 39 -10 43 -6 3 -8 11 -5 16 4 5 1 9 -6 9 -8 0 -7 4 3 13 13 10 15 25 11 85 -3 39 -9 72 -14 72 -4 0 -8 28 -8 62 0 139 -18 194 -49 156z"></path>
            <path id="pGNuMx0ty"
                d="M22605 1810 c28 -12 37 -12 30 0 -3 6 -16 10 -28 9 -21 0 -21 -1 -2 -9z"></path>
            <path id="pFSoYYcAB"
                d="M22385 1800 c-8 -13 15 -13 35 0 12 8 11 10 -7 10 -12 0 -25 -4 -28 -10z"></path>
            <path id="p1CtA09GiU"
                d="M22220 1793 c-8 -1 -45 -5 -82 -8 -109 -10 -79 -25 40 -19 132 6 172 12 172 25 0 9 -75 10 -130 2z"></path>
            <path id="pLv0C7ecP"
                d="M21950 1770 c-19 -5 -38 -6 -42 -4 -5 3 -13 2 -19 -2 -21 -13 8 -19 75 -16 49 3 66 7 66 18 0 15 -25 17 -80 4z"></path>
            <path id="p8j84eAVO"
                d="M21730 1750 c0 -5 -19 -6 -42 -3 -28 4 -39 3 -34 -5 7 -12 158 -13 178 -1 9 6 5 9 -12 9 -14 1 -40 3 -57 4 -18 2 -33 0 -33 -4z"></path>
            <path id="p1Ac7116eQ"
                d="M21593 1742 c-13 -2 -23 -8 -23 -13 0 -11 40 -12 58 0 18 11 -3 19 -35 13z"></path>
            <path id="pd0rKfbIA"
                d="M21348 1724 c-4 -3 -63 -8 -134 -10 -70 -3 -131 -7 -136 -10 -11 -7 -155 -17 -214 -15 -28 1 -46 -4 -55 -15 -13 -16 -6 -16 91 -11 173 10 292 22 340 34 14 3 44 5 68 4 29 -2 42 2 42 11 0 11 2 10 9 -1 9 -15 71 -7 71 10 0 10 -73 13 -82 3z"></path>
            <path id="p1HkSyUBNS"
                d="M20550 1660 c1 -16 19 -32 30 -25 12 7 41 10 138 14 17 0 32 5 32 11 0 6 -39 9 -100 7 -55 -1 -100 -4 -100 -7z"></path>
            <path id="pS6n1DzFp"
                d="M20457 1653 c-16 -15 -5 -21 35 -20 23 1 43 7 45 12 3 11 -70 19 -80 8z"></path>
            <path id="pH0oYL5BM"
                d="M20358 1642 c-10 -2 -18 -8 -18 -13 0 -13 27 -11 35 2 9 13 4 16 -17 11z"></path>
            <path id="ptKpoIizE"
                d="M20397 1643 c-12 -11 -8 -23 8 -23 8 0 15 7 15 15 0 16 -12 20 -23 8z"></path>
            <path id="p6zEeSVSZ"
                d="M20209 1636 c-3 -2 -187 -14 -250 -16 -4 0 -10 -7 -13 -16 -6 -15 2 -16 71 -10 43 3 89 8 103 11 14 3 48 6 75 6 58 0 85 7 85 20 0 8 -62 13 -71 5z"></path>
            <path id="plxGLlsrv"
                d="M19850 1603 c-41 -8 -48 -23 -9 -23 43 0 79 10 79 21 0 9 -25 10 -70 2z"></path>
            <path id="pPboe4grH"
                d="M19638 1593 c-67 -4 -88 -15 -47 -26 28 -8 140 13 133 24 -3 5 -8 8 -12 7 -4 -1 -37 -3 -74 -5z"></path>
            <path id="pSy6nJt3Y"
                d="M19740 1584 c0 -10 7 -14 22 -12 32 5 35 28 4 28 -17 0 -26 -5 -26 -16z"></path>
            <path id="p62hPfzSq"
                d="M19421 1571 c-22 -14 -5 -28 29 -23 31 4 52 22 26 22 -8 0 -20 2 -28 5 -7 3 -19 1 -27 -4z"></path>
            <path id="p6D6baxqz"
                d="M19155 1550 c-3 -5 -26 -7 -53 -3 -35 4 -44 3 -36 -6 6 -6 24 -11 40 -11 94 0 114 2 124 16 11 12 6 14 -28 14 -23 0 -44 -4 -47 -10z"></path>
            <path id="pErAMiaD7"
                d="M19270 1550 c0 -5 7 -10 15 -10 8 0 15 5 15 10 0 6 -7 10 -15 10 -8 0 -15 -4 -15 -10z"></path>
            <path id="p1F7g7Eddk"
                d="M18949 1536 c-2 -2 -51 -7 -109 -10 -114 -8 -140 -12 -140 -27 0 -10 168 -4 269 9 65 8 82 32 24 32 -22 0 -42 -2 -44 -4z"></path>
            <path id="pyLWGNR9m"
                d="M18570 1500 c-14 -3 -54 -5 -90 -3 -91 5 -160 -5 -160 -23 0 -18 46 -19 53 -1 4 10 6 10 6 0 1 -15 39 -17 61 -3 9 6 17 5 21 -2 4 -7 12 -7 26 0 11 6 43 13 72 16 29 2 55 7 57 9 9 9 -21 14 -46 7z"></path>
            <path id="prdeE9mXU"
                d="M18640 1500 c0 -5 12 -10 26 -10 14 0 23 4 19 10 -3 6 -15 10 -26 10 -10 0 -19 -4 -19 -10z"></path>
            <path id="p9jWyOxzt"
                d="M18110 1467 c-30 -5 -72 -8 -93 -8 -21 1 -42 -1 -47 -4 -7 -4 -207 -16 -270 -16 -36 0 -69 -11 -74 -25 -5 -12 4 -14 47 -9 28 3 84 8 122 11 39 3 120 9 180 15 61 5 150 12 198 16 48 3 84 9 80 14 -13 12 -84 15 -143 6z"></path>
            <path id="p1G2Y70TG3"
                d="M696 1415 c-3 -8 -2 -15 3 -15 5 0 7 -12 5 -27 -11 -96 -4 -139 22 -135 25 5 27 7 24 37 -1 14 -3 49 -4 78 -1 50 -13 77 -34 77 -6 0 -12 -7 -16 -15z"></path>
            <path id="pb6NIasLl"
                d="M17537 1424 c-2 -3 -55 -7 -117 -9 -62 -3 -145 -10 -184 -16 -39 -6 -94 -10 -122 -10 -28 1 -63 -3 -79 -9 -42 -16 -115 -23 -128 -11 -8 6 -39 6 -87 0 -41 -6 -115 -12 -164 -14 -190 -7 -348 -24 -340 -36 3 -5 1 -9 -5 -9 -5 0 -13 5 -16 10 -4 6 -26 9 -53 6 -141 -16 -152 -19 -152 -33 0 -12 15 -13 93 -8 50 3 99 8 107 11 8 2 49 6 90 9 41 2 102 7 135 9 33 3 101 8 150 11 50 4 104 8 120 9 17 2 80 6 140 10 61 4 146 12 190 17 44 5 134 12 200 15 66 3 127 8 135 11 8 2 37 7 63 9 27 3 62 10 79 17 l30 12 -41 1 c-22 1 -42 0 -44 -2z"></path>
            <path id="p1BLAv0JBd"
                d="M15968 1304 c-4 -3 -26 -7 -50 -8 -35 -1 -43 -5 -45 -21 -2 -11 0 -15 3 -9 3 8 16 9 37 4 18 -4 41 -5 52 -3 11 2 38 5 59 6 48 4 59 22 14 23 -18 0 -40 3 -49 7 -8 4 -18 5 -21 1z"></path>
            <path id="psBZeJ3l1"
                d="M15755 1280 c-4 -6 -11 -7 -17 -4 -7 4 -8 2 -4 -4 4 -7 1 -12 -8 -12 -8 0 -16 5 -18 12 -3 9 -36 9 -144 -1 -76 -7 -144 -17 -149 -22 -6 -4 -17 -4 -24 1 -18 11 -41 2 -41 -16 0 -10 15 -12 66 -9 37 3 72 9 79 15 10 8 25 8 50 1 19 -5 48 -6 63 -2 15 4 67 9 117 10 49 1 92 4 94 7 2 2 -2 10 -9 19 -14 17 -46 20 -55 5z"></path>
            <path id="p10GYG2DXQ"
                d="M15278 1244 c-3 -3 -31 -6 -62 -7 -49 -2 -88 -18 -75 -31 12 -12 150 11 166 27 16 16 16 17 -3 17 -11 0 -23 -3 -26 -6z"></path>
            <path id="p13Vus9DiC"
                d="M713 1213 c-7 -19 11 -216 22 -233 8 -12 16 -91 13 -125 -4 -64 2 -196 10 -212 6 -11 7 -25 1 -34 -5 -10 -4 -40 2 -75 5 -32 12 -97 15 -144 4 -75 8 -114 14 -130 1 -3 1 -15 0 -27 -1 -12 4 -31 10 -43 8 -16 8 -25 0 -35 -8 -9 -8 -15 0 -20 8 -5 7 -11 -2 -22 -10 -12 -9 -18 7 -29 22 -16 111 -19 120 -4 4 6 11 7 17 4 6 -4 9 -1 6 7 -2 8 -20 15 -39 17 -26 2 -30 0 -19 -8 11 -7 12 -10 2 -10 -40 0 -56 66 -68 275 -2 50 -6 104 -8 120 -12 92 -17 149 -20 225 -1 47 -8 95 -15 108 -9 16 -9 22 0 22 7 0 8 7 4 18 -4 9 -7 27 -6 40 0 12 -6 25 -15 29 -10 4 -12 8 -5 12 6 4 11 18 12 32 1 36 -9 160 -16 194 -4 17 -6 38 -6 48 0 22 -28 22 -36 0z"></path>
            <path id="pKEVwz3Bc"
                d="M15001 1214 c-10 -12 -15 -13 -21 -3 -9 14 -163 5 -168 -11 -2 -5 -10 -6 -18 -3 -8 3 -14 0 -14 -6 0 -6 14 -11 31 -11 20 0 28 4 23 12 -5 8 2 9 24 5 21 -4 32 -3 32 4 0 8 6 7 16 -2 13 -10 17 -10 25 2 6 10 9 10 9 2 0 -9 18 -13 57 -13 57 0 123 17 123 32 0 15 -104 8 -119 -8z"></path>
            <path id="piEnI0tBC"
                d="M14565 1194 c-11 -1 -55 -6 -98 -9 -48 -4 -75 -11 -71 -17 4 -6 -1 -6 -14 1 -11 6 -33 8 -49 5 -31 -6 -77 -10 -135 -13 -21 0 -38 -6 -38 -12 0 -6 7 -9 14 -6 11 4 13 1 9 -10 -5 -12 -2 -13 13 -5 11 6 32 8 47 5 16 -3 103 2 195 11 92 9 202 19 245 22 53 4 77 10 77 19 0 9 -23 13 -87 13 -49 0 -97 -2 -108 -4z"></path>
            <path id="p11esYJKLB"
                d="M14045 1149 c-22 -5 -47 -9 -55 -9 -49 1 -83 -1 -146 -10 -39 -6 -75 -10 -80 -9 -5 1 -11 0 -14 -1 -3 -1 -54 -3 -115 -6 -192 -7 -416 -25 -495 -39 -14 -2 -68 -7 -120 -10 -52 -4 -101 -11 -108 -17 -10 -9 -15 -9 -21 1 -12 19 -148 4 -161 -18 -8 -13 -11 -13 -18 -3 -10 15 -104 11 -357 -14 -33 -4 -76 -6 -96 -6 -29 1 -38 -3 -42 -18 -3 -11 -1 -20 4 -20 5 0 9 6 9 13 0 9 3 8 9 -2 6 -9 20 -12 47 -7 22 3 75 8 119 10 104 5 205 15 230 23 11 4 52 7 90 8 39 1 106 5 150 9 44 4 104 9 133 11 29 1 55 5 58 8 3 3 12 3 20 0 8 -3 22 -2 32 2 9 4 47 7 85 7 43 -1 67 3 67 10 0 6 3 9 6 5 3 -3 17 -2 30 3 15 6 24 6 24 0 0 -11 53 -14 63 -4 5 6 153 14 245 13 23 0 48 3 54 7 6 4 32 8 57 10 25 2 73 5 106 8 63 6 211 16 258 18 30 1 33 8 15 26 -14 14 -26 14 -83 1z"></path>
            <path id="pZxrL0UlU"
                d="M12065 990 c-27 -4 -39 -8 -25 -9 20 -1 22 -3 10 -12 -11 -7 7 -8 60 -4 72 7 123 25 70 25 -14 0 -34 2 -45 4 -11 2 -42 0 -70 -4z"></path>
            <path id="pyizAexOP"
                d="M11937 984 c-3 -3 -47 -8 -99 -10 -51 -2 -145 -8 -208 -14 -63 -5 -158 -12 -210 -16 -52 -4 -98 -8 -102 -11 -4 -2 -58 -6 -119 -9 -62 -3 -116 -7 -122 -11 -5 -3 -55 -7 -110 -9 -160 -5 -239 -13 -254 -26 -11 -9 -16 -9 -23 1 -4 8 -13 10 -21 6 -7 -5 -36 -8 -63 -7 -67 2 -121 -10 -121 -28 0 -11 15 -14 68 -12 38 1 73 4 78 8 6 3 67 8 137 10 70 2 141 7 157 10 17 3 68 7 115 10 58 3 89 10 96 20 13 16 34 19 34 4 0 -17 97 -12 114 6 9 8 16 10 16 4 0 -8 6 -8 20 0 11 6 20 7 20 2 0 -5 24 -7 53 -5 28 2 61 4 72 4 99 3 283 24 278 32 -4 6 16 7 56 3 40 -5 61 -3 61 4 0 5 8 10 18 10 15 0 15 -2 2 -11 -11 -8 -2 -9 34 -5 27 3 59 6 72 6 27 0 33 25 8 34 -20 8 -49 8 -57 0z"></path>
            <path id="pD4x4SAIx"
                d="M10317 853 c-5 -4 -49 -9 -100 -10 -51 -2 -130 -7 -177 -12 -47 -5 -103 -9 -125 -9 -110 -2 -239 -18 -243 -29 -3 -12 25 -18 68 -15 8 1 69 3 135 6 66 3 131 8 145 11 14 3 49 6 78 6 29 1 58 6 65 13 8 8 48 12 112 12 179 1 197 3 193 16 -5 14 -139 24 -151 11z"></path>
            <path id="p84pftQyx"
                d="M9480 788 c-30 -5 -70 -9 -89 -9 -19 1 -38 -4 -43 -11 -13 -21 -9 -30 8 -20 9 5 25 7 35 5 11 -3 25 0 33 6 10 8 28 10 53 5 51 -10 103 -8 116 5 6 6 20 11 32 12 20 0 20 0 0 9 -25 11 -75 10 -145 -2z"></path>
            <path id="peacClCC3"
                d="M9270 768 c-19 -5 -49 -8 -67 -6 -25 3 -32 1 -29 -9 4 -8 -3 -13 -17 -13 -17 0 -19 2 -7 10 9 5 -13 7 -60 4 -41 -3 -84 -5 -95 -5 -11 0 -38 -5 -60 -11 -22 -6 -107 -13 -190 -14 -189 -5 -174 -3 -215 -21 -24 -11 -35 -13 -38 -4 -5 14 -26 14 -75 0 -68 -19 -31 -31 75 -25 55 3 103 8 108 11 4 2 49 5 99 6 50 1 91 4 91 8 0 6 100 13 200 15 33 1 44 5 42 15 -3 12 0 12 12 1 15 -12 103 -10 161 4 11 2 36 5 55 5 26 1 31 4 20 11 -12 8 -12 10 5 10 11 0 27 5 35 10 13 9 13 10 0 9 -8 0 -31 -5 -50 -11z"></path>
            <path id="pPlpeFSpT"
                d="M8120 684 c-69 -7 -168 -15 -220 -19 -52 -3 -102 -8 -110 -10 -8 -2 -73 -7 -145 -11 -71 -3 -139 -10 -150 -14 -11 -4 -64 -8 -119 -9 -106 -2 -116 -4 -116 -27 0 -13 16 -14 107 -9 59 3 110 8 113 10 4 2 69 7 144 10 76 3 143 8 148 12 6 3 47 8 92 10 255 11 370 22 374 34 2 5 10 9 18 9 17 0 19 16 2 22 -7 2 -69 -2 -138 -8z"></path>
            <path id="pkXvjBpia"
                d="M8303 690 c-36 -14 -27 -30 16 -30 34 0 62 14 50 24 -12 11 -47 13 -66 6z"></path>
            <path id="pHZFdHtck"
                d="M7149 606 c-2 -3 -29 -5 -59 -6 -80 -2 -110 -10 -110 -27 0 -13 16 -14 118 -8 114 7 152 16 152 35 0 10 -92 14 -101 6z"></path>
            <path id="pTCKJfupu"
                d="M6815 581 c-37 -4 -51 -11 -53 -23 -3 -15 4 -18 40 -18 24 0 49 5 56 12 9 9 12 9 12 -1 0 -7 5 -9 13 -4 6 4 28 8 47 8 26 0 35 5 38 19 4 18 3 19 -13 3 -9 -9 -24 -17 -33 -16 -11 0 -12 2 -4 6 6 2 12 9 12 14 0 10 -34 10 -115 0z"></path>
            <path id="pWcTNLfw0"
                d="M6585 562 c-3 -3 -87 -10 -192 -16 -39 -2 -77 -7 -84 -11 -6 -4 -64 -9 -128 -11 -64 -2 -165 -8 -226 -13 -60 -5 -149 -11 -196 -14 -47 -2 -92 -8 -99 -12 -8 -5 -34 -8 -59 -7 -54 1 -388 -24 -456 -33 -16 -3 -79 -7 -140 -10 -97 -5 -179 -11 -520 -41 -44 -4 -87 -8 -97 -9 -9 -1 -23 -7 -32 -14 -11 -10 -20 -10 -37 -1 -15 9 -41 10 -83 4 -34 -4 -86 -9 -116 -11 -80 -4 -84 -5 -98 -16 -10 -8 -16 -7 -21 1 -5 9 -29 9 -92 2 -191 -21 -290 -30 -399 -34 -63 -2 -160 -9 -215 -15 -55 -6 -134 -14 -175 -17 -41 -3 -95 -7 -120 -10 -25 -2 -93 -8 -151 -12 -69 -5 -113 -13 -125 -22 -14 -12 -16 -12 -9 -1 8 14 -20 14 -235 -4 -19 -2 -73 -6 -120 -10 -46 -3 -88 -9 -92 -11 -8 -5 -225 -17 -272 -16 -11 1 -30 -8 -44 -19 l-25 -19 29 -1 c16 -1 31 -1 34 -1 3 0 50 3 105 7 122 7 277 24 284 30 2 3 -2 5 -10 5 -12 0 -12 2 0 9 10 7 18 5 26 -5 9 -13 28 -13 125 -5 63 6 205 17 315 26 110 9 247 20 305 25 58 6 155 12 216 14 60 3 122 9 136 15 14 5 35 7 46 4 11 -2 46 1 79 7 32 7 87 12 123 11 90 -2 259 15 274 28 7 6 15 8 19 5 10 -10 53 -11 113 -3 33 4 131 11 219 15 88 3 163 8 167 11 9 5 90 13 183 18 202 11 368 26 384 34 10 6 27 8 37 5 20 -5 201 10 302 25 29 4 55 4 58 -1 3 -5 9 -6 13 -4 8 6 65 10 296 26 83 5 197 15 255 21 100 10 197 19 230 20 8 1 69 5 135 10 66 4 160 11 209 14 85 5 116 15 116 37 0 8 -156 8 -165 0z"></path>
            <path id="p17KKAwrOI"
                d="M1790 186 c-5 -5 -187 -22 -325 -31 -44 -3 -105 -7 -135 -10 -30 -3 -86 -8 -124 -10 -39 -3 -72 -8 -75 -10 -21 -22 80 -33 184 -20 22 2 90 7 150 10 61 3 134 10 164 15 30 6 86 11 125 11 89 2 128 10 118 26 -7 12 -74 28 -82 19z"></path>
            <path id="p1GgISoORk"
                d="M1016 100 c-19 -20 -19 -20 12 -20 32 0 88 17 80 25 -2 2 -20 7 -39 9 -25 4 -39 0 -53 -14z"></path>
        </g>
    </g>
    <g id="l6fJbWvzGTEoUd81dYzGdnB" fill="rgb(25,25,24)" style="transform: none;">
        <g>
            <path id="pb20CCQdy"
                d="M22026 10931 c-3 -5 1 -11 9 -15 18 -6 45 2 45 15 0 12 -47 12 -54 0z"></path>
            <path id="p1GekGvlOS"
                d="M22400 10850 c0 -19 20 -60 30 -60 5 0 10 13 10 29 0 20 -6 30 -20 34 -11 3 -20 1 -20 -3z"></path>
            <path id="p15GASdIGK"
                d="M15525 10410 c11 -5 31 -8 45 -8 l25 0 -25 8 c-14 4 -34 8 -45 8 l-20 1 20 -9z"></path>
            <path id="pIWM6TgXZ"
                d="M11888 10118 c9 -9 15 -9 24 0 9 9 7 12 -12 12 -19 0 -21 -3 -12 -12z"></path>
            <path id="pc5D1DCWg"
                d="M7565 9770 c-3 -6 5 -10 19 -10 14 0 28 5 31 10 3 6 -5 10 -19 10 -14 0 -28 -4 -31 -10z"></path>
            <path id="pzMqFa4KM"
                d="M5654 9629 c-9 -16 2 -22 21 -11 15 8 16 10 1 15 -8 3 -18 2 -22 -4z"></path>
            <path id="pvA4gYnXE"
                d="M22500 9605 c0 -10 7 -15 18 -13 21 4 19 22 -2 26 -10 2 -16 -3 -16 -13z"></path>
            <path id="pZkrhQLuW"
                d="M4950 9570 c0 -5 7 -10 15 -10 8 0 15 5 15 10 0 6 -7 10 -15 10 -8 0 -15 -4 -15 -10z"></path>
            <path id="pHcW9EVjG"
                d="M22516 9555 c4 -8 10 -15 15 -15 5 0 9 7 9 15 0 8 -7 15 -15 15 -9 0 -12 -6 -9 -15z"></path>
            <path id="pfjjZWocM" d="M3404 9449 c-5 -9 27 -17 44 -12 6 3 12 8 12 11 0 9 -51 9 -56 1z"></path>
            <path id="p13ededrkz"
                d="M1978 9338 c9 -9 15 -9 24 0 9 9 7 12 -12 12 -19 0 -21 -3 -12 -12z"></path>
            <path id="pqhOd8BNL"
                d="M212 9198 c3 -7 12 -14 21 -16 12 -2 15 1 11 12 -7 19 -38 22 -32 4z"></path>
            <path id="pUGhWuw7o"
                d="M80 9175 c-10 -13 -9 -15 9 -15 11 0 21 4 21 9 0 18 -18 21 -30 6z"></path>
            <path id="p1A9wEXeJd"
                d="M22554 9086 c1 -19 4 -32 9 -29 10 6 9 63 -1 63 -5 0 -8 -15 -8 -34z"></path>
            <path id="p1Fg7wIziI"
                d="M95 8951 c3 -5 1 -12 -5 -16 -6 -4 -5 -12 5 -21 8 -9 12 -20 9 -26 -4 -6 -1 -9 7 -6 22 7 10 78 -12 78 -6 0 -8 -4 -4 -9z"></path>
            <path id="p1BLOuRg3p"
                d="M112 8744 c1 -9 9 -19 16 -22 9 -3 13 2 10 14 -1 9 -9 19 -16 22 -9 3 -13 -2 -10 -14z"></path>
            <path id="pDz8P7Ntv" d="M126 8642 c-7 -12 3 -42 13 -42 9 0 8 37 -1 45 -3 4 -9 2 -12 -3z"></path>
            <path id="pGFGCwMcx"
                d="M22600 8541 c-7 -15 -7 -21 0 -21 12 0 25 28 17 36 -3 3 -10 -4 -17 -15z"></path>
            <path id="pxjnE3NJO"
                d="M22602 8489 c2 -6 8 -10 13 -10 5 0 11 4 13 10 2 6 -4 11 -13 11 -9 0 -15 -5 -13 -11z"></path>
            <path id="pNNPIgpMb"
                d="M136 8415 c4 -8 15 -15 26 -15 17 0 18 3 8 15 -7 8 -19 15 -26 15 -8 0 -11 -6 -8 -15z"></path>
            <path id="pqgkhWeKh"
                d="M150 8345 c0 -8 5 -15 10 -15 6 0 10 7 10 15 0 8 -4 15 -10 15 -5 0 -10 -7 -10 -15z"></path>
            <path id="paIRTFLF7"
                d="M22644 8024 c3 -9 6 -18 6 -20 0 -3 5 -2 10 1 16 10 12 35 -6 35 -11 0 -14 -5 -10 -16z"></path>
            <path id="pMlHBqbxs" d="M187 7903 c-10 -9 -9 -23 2 -23 5 0 11 7 15 15 5 15 -5 20 -17 8z"></path>
            <path id="pavrO3JVY"
                d="M22640 7896 c0 -7 9 -16 20 -19 11 -3 20 -2 20 2 0 3 -9 12 -20 19 -16 10 -20 10 -20 -2z"></path>
            <path id="p10Bvmeak9"
                d="M210 7606 c0 -8 5 -18 10 -21 6 -3 10 1 10 9 0 8 -4 18 -10 21 -5 3 -10 -1 -10 -9z"></path>
            <path id="p9Xm6AnaM"
                d="M22705 7180 c-7 -12 2 -30 16 -30 5 0 9 9 9 20 0 21 -15 27 -25 10z"></path>
            <path id="pCGlZDoAi"
                d="M247 7115 c6 -17 25 -15 31 3 2 7 -5 12 -17 12 -14 0 -19 -5 -14 -15z"></path>
            <path id="p2EurBoWf"
                d="M257 6993 c-12 -11 -8 -23 8 -23 8 0 15 7 15 15 0 16 -12 20 -23 8z"></path>
            <path id="pajEDVXlO"
                d="M267 6873 c-11 -10 -8 -20 6 -26 8 -3 14 3 14 14 2 19 -8 25 -20 12z"></path>
            <path id="pSqfJABzb" d="M273 6795 c0 -8 7 -15 15 -15 7 0 12 5 10 12 -6 18 -25 21 -25 3z"></path>
            <path id="pKy162HnT"
                d="M280 6700 c0 -5 7 -10 15 -10 8 0 15 5 15 10 0 6 -7 10 -15 10 -8 0 -15 -4 -15 -10z"></path>
            <path id="p1EMBbNekw"
                d="M284 6585 c-7 -18 4 -37 17 -29 5 3 7 10 4 15 -4 5 -1 9 5 9 6 0 8 5 5 10 -9 15 -25 12 -31 -5z"></path>
            <path id="pvCA6y29Q"
                d="M315 6357 c-4 -10 -5 -21 -1 -24 10 -10 18 4 13 24 -4 17 -4 17 -12 0z"></path>
            <path id="pEGrmdlj1"
                d="M322 6149 c2 -6 8 -10 13 -10 5 0 11 4 13 10 2 6 -4 11 -13 11 -9 0 -15 -5 -13 -11z"></path>
            <path id="pQmW9yLwd"
                d="M22803 6073 c-7 -3 -13 -11 -13 -18 0 -8 6 -17 13 -21 6 -4 9 -4 5 1 -4 4 0 13 9 20 17 13 7 25 -14 18z"></path>
            <path id="pOXk32HrE" d="M347 5874 c-7 -7 2 -34 12 -34 4 0 7 9 7 20 0 20 -7 25 -19 14z"></path>
            <path id="p1H35ljLO6"
                d="M363 5580 c1 -22 7 -30 21 -30 14 0 16 3 7 14 -6 7 -9 21 -5 30 4 10 1 16 -10 16 -11 0 -15 -9 -13 -30z"></path>
            <path id="pgjBiqBWj"
                d="M22835 5501 c-7 -12 12 -24 25 -16 11 7 4 25 -10 25 -5 0 -11 -4 -15 -9z"></path>
            <path id="pVLrrKeOU"
                d="M22867 5138 c-10 -37 3 -68 27 -67 17 1 18 2 3 6 -13 3 -16 10 -11 26 7 24 7 25 5 45 -2 20 -18 14 -24 -10z"></path>
            <path id="pCAauC1GP"
                d="M22932 4394 c1 -9 9 -19 16 -22 9 -3 13 2 10 14 -1 9 -9 19 -16 22 -9 3 -13 -2 -10 -14z"></path>
            <path id="panGW2Sqh"
                d="M22930 4276 c0 -8 7 -16 15 -20 13 -4 14 -2 5 14 -13 23 -20 26 -20 6z"></path>
            <path id="pdUX95Br1"
                d="M22940 4086 c0 -13 7 -29 15 -36 8 -7 12 -16 9 -21 -3 -5 -1 -9 4 -9 15 0 23 31 12 45 -8 9 -7 14 1 17 18 6 1 28 -22 28 -13 0 -19 -7 -19 -24z"></path>
            <path id="p17FhU11PP"
                d="M22968 3975 c-6 -39 -2 -65 9 -65 22 0 26 27 9 52 -9 12 -17 18 -18 13z"></path>
            <path id="p1DnQMaCxG"
                d="M540 3501 c0 -12 5 -21 10 -21 6 0 10 6 10 14 0 8 -4 18 -10 21 -5 3 -10 -3 -10 -14z"></path>
            <path id="pRRvCwRFY"
                d="M555 3178 c14 -46 43 -50 40 -6 -1 16 -9 24 -24 26 -20 3 -22 0 -16 -20z"></path>
            <path id="pKk7BKRG0"
                d="M577 3123 c-11 -19 -1 -117 12 -121 11 -4 12 4 6 39 -4 24 -7 54 -6 67 1 22 -4 28 -12 15z"></path>
            <path id="pszwph3xV"
                d="M591 2926 c-8 -9 -11 -19 -7 -23 9 -9 29 13 24 27 -2 8 -8 7 -17 -4z"></path>
            <path id="p1FATiInlK"
                d="M600 2736 c0 -2 7 -9 15 -16 12 -10 15 -10 15 4 0 9 -7 16 -15 16 -8 0 -15 -2 -15 -4z"></path>
            <path id="pFwhQIBJU"
                d="M612 2600 c15 -23 28 -26 28 -6 0 8 -7 17 -16 20 -24 9 -25 8 -12 -14z"></path>
            <path id="pGkufpCJT"
                d="M610 2479 c0 -6 6 -17 14 -25 17 -16 31 -2 22 21 -6 17 -36 20 -36 4z"></path>
            <path id="p1ALKZNy6Y"
                d="M626 2371 c-7 -10 22 -37 30 -28 4 3 -1 13 -9 22 -9 8 -18 11 -21 6z"></path>
            <path id="p1CrBPiIsx"
                d="M640 2206 c0 -9 7 -16 16 -16 17 0 14 22 -4 28 -7 2 -12 -3 -12 -12z"></path>
            <path id="pbvMmX4PO"
                d="M23120 2020 c0 -5 7 -10 15 -10 8 0 15 5 15 10 0 6 -7 10 -15 10 -8 0 -15 -4 -15 -10z"></path>
            <path id="pjiblBtiG"
                d="M661 1976 c-10 -12 -6 -26 10 -26 11 0 19 29 10 35 -5 2 -14 -1 -20 -9z"></path>
            <path id="pl3MpfNdu"
                d="M22925 1851 c-16 -3 -28 -11 -25 -16 5 -10 46 -11 110 -2 55 8 57 9 30 17 -30 10 -74 10 -115 1z"></path>
            <path id="pwZtEijG5"
                d="M10845 880 c-4 -6 9 -10 32 -10 28 0 34 3 23 10 -20 13 -47 13 -55 0z"></path>
            <path id="phOiedvFz"
                d="M767 749 c-3 -12 -2 -31 3 -42 9 -24 11 -20 16 31 3 36 -11 44 -19 11z"></path>
            <path id="pVBfJ8FnL"
                d="M6586 544 c-5 -12 -2 -15 10 -10 8 3 18 6 20 6 3 0 2 5 -1 10 -9 15 -22 12 -29 -6z"></path>
            <path id="pZ3yGC2af"
                d="M5706 475 c-16 -12 -17 -15 -4 -15 8 0 21 7 28 15 16 19 1 19 -24 0z"></path>
            <path id="pZgAzqMEj"
                d="M4506 381 c-11 -4 -15 -10 -10 -14 14 -8 54 3 54 14 0 11 -17 11 -44 0z"></path>
            <path id="pz6x3KT9z"
                d="M3404 282 c10 -11 18 -12 32 -3 21 12 21 12 -18 15 -24 1 -26 0 -14 -12z"></path>
            <path id="poIXdMRqU"
                d="M810 100 c0 -5 9 -10 21 -10 11 0 17 5 14 10 -3 6 -13 10 -21 10 -8 0 -14 -4 -14 -10z"></path>
        </g>
    </g>
</svg>