<svg width="190" height="146" viewBox="0 0 190 146" fill="none" xmlns="http://www.w3.org/2000/svg">
<path d="M53.9397 46.226L54.0038 46.3238C54.0569 46.4037 54.0392 46.4267 53.9508 46.3926C53.4464 46.2001 53.1072 46.018 52.9332 45.8462C52.0527 44.9829 51.1553 44.1381 50.2409 43.3117C49.2809 42.4454 48.601 41.7258 48.2013 41.1527C47.5686 40.2449 47.0628 39.2601 46.6838 38.1984C46.613 37.9985 46.4242 37.803 46.1175 37.612C46.0378 37.5631 46.0105 37.5838 46.0356 37.6742C46.074 37.8178 46.1359 37.9511 46.2214 38.074C46.2226 38.0757 46.2233 38.0776 46.2236 38.0796C46.2238 38.0816 46.2236 38.0837 46.223 38.0856C46.2224 38.0875 46.2213 38.0893 46.2199 38.0907C46.2184 38.0922 46.2167 38.0933 46.2148 38.094C46.1912 38.0984 46.1713 38.1014 46.1551 38.1029C46.1551 38.1029 46.1536 38.1006 46.1507 38.0962L45.3543 36.8989C45.3102 36.8339 45.2889 36.756 45.2937 36.6774C45.2985 36.5989 45.3291 36.5242 45.3807 36.465C45.4323 36.4058 45.502 36.3655 45.5789 36.3503C45.6558 36.3352 45.7355 36.3461 45.8056 36.3814L46.1108 36.5324C46.126 36.5397 46.143 36.5424 46.1597 36.5401C46.1764 36.5378 46.192 36.5307 46.2047 36.5196C46.2174 36.5085 46.2266 36.4939 46.2311 36.4777C46.2357 36.4614 46.2354 36.4441 46.2303 36.428C45.8542 35.2796 45.3299 34.2401 45.0136 33.0628C44.872 32.5341 44.4406 31.6123 44.4783 31.1036C44.4841 31.0296 44.4701 30.9592 44.4362 30.8926C44.1641 30.3595 43.8478 29.3577 44.3743 28.8957C44.4318 28.8453 44.4591 28.7817 44.4561 28.7047C44.3765 26.707 44.3942 24.7101 44.5092 22.7139C44.5166 22.5865 44.5468 22.4496 44.5999 22.303C44.7857 21.7876 44.6176 21.3567 44.7393 20.8325C44.8381 20.406 44.8905 20.1083 44.8964 19.9395C44.9716 17.5939 44.9988 15.2475 44.9782 12.9003C44.9605 10.8923 45.3211 8.98421 45.5843 7.01394C45.6876 6.2439 45.9781 5.0459 46.4559 3.41992C46.5651 3.04675 46.6403 2.58102 46.6816 2.02274C46.7258 1.44225 46.8305 0.931361 46.9957 0.490068C47.1063 0.193899 47.3415 0.0310053 47.7014 0.0013883C47.781 -0.00601594 47.8511 0.0161966 47.9115 0.0680263C48.2596 0.361234 48.514 0.724782 48.6747 1.15867C48.6998 1.22383 48.7381 1.2801 48.7898 1.32749C49.3893 1.86281 49.9511 2.23154 50.2409 3.06674C50.4902 3.78792 50.839 4.45134 51.2873 5.057C51.5837 5.45683 51.9753 5.67896 52.3691 6.01215C52.7385 6.32535 52.9199 6.96507 53.1743 7.38267C53.6211 8.12014 54.0348 9.72834 55.2316 9.52176C55.5435 9.46623 55.7315 9.14636 56.1187 9.13303C56.2072 9.13007 56.2721 9.16709 56.3133 9.2441L56.4992 9.59284C56.5375 9.66392 56.5965 9.70834 56.6761 9.72611C57.7011 9.95268 58.7231 10.1859 59.7422 10.4258C60.3277 10.5635 60.8859 10.6583 61.4168 10.7101C62.1822 10.7834 62.9167 10.8057 63.671 10.9856C67.1773 11.8208 70.4867 12.0962 74.2031 11.954C74.6323 11.9378 75.091 11.8867 75.5791 11.8008C76.183 11.6964 76.7847 11.5698 77.4019 11.572C78.9136 11.5764 80.364 11.5764 81.7533 11.572C81.8833 11.572 82.0118 11.5419 82.1287 11.4842C82.2457 11.4264 82.348 11.3425 82.428 11.2388C83.0452 10.4458 83.6093 9.74388 84.3681 8.9731C85.0155 8.31413 85.6246 7.62109 86.1953 6.89399C86.7284 6.21428 87.3921 5.65452 87.9584 4.98592C88.4141 4.44837 88.7806 4.06039 89.0578 3.82198C89.4546 3.48138 89.8734 3.14893 90.3144 2.82462C90.4208 2.74586 90.5531 2.71095 90.6844 2.72706C90.8156 2.74317 90.9357 2.80907 91.0201 2.91125C91.1572 3.07563 91.301 3.43992 91.3187 3.68648C91.4175 5.10809 91.4485 6.53193 91.4116 7.95798C91.4027 8.32227 91.5554 8.71988 91.5642 9.07084C91.6011 10.4702 91.6129 11.8696 91.5996 13.269C91.5878 14.6314 91.4905 16.0849 91.3076 17.6294C90.9581 20.5637 90.7745 22.2252 90.0976 24.6442C89.8078 25.6815 89.7901 26.8743 89.4339 27.9961C89.4177 28.0449 89.4265 28.0916 89.4605 28.136C89.5077 28.1997 89.5423 28.193 89.5644 28.116L89.6927 27.6651C89.7208 27.5703 89.7834 27.5207 89.8808 27.5163L90.2104 27.503C90.2646 27.5008 90.3185 27.5126 90.3669 27.5372C90.4153 27.5618 90.4567 27.5985 90.487 27.6436C90.5174 27.6888 90.5358 27.741 90.5404 27.7953C90.545 27.8496 90.5357 27.9042 90.5135 27.9539C89.6596 29.8301 89.0195 31.7878 88.5933 33.8269C88.5653 33.9632 88.4665 34.206 88.2969 34.5555C88.0248 35.1086 88.1641 35.5462 88.5579 36.0349C90.0135 37.8385 91.6948 39.6755 93.0464 41.3259C93.9873 42.4751 94.9348 43.6198 95.889 44.76C97.0637 46.1661 98.0614 47.6943 99.2449 49.087C100.342 50.3783 101.44 51.6689 102.539 52.9587C102.957 53.4496 103.994 54.5491 104.643 55.3955C105.892 57.0214 107.215 58.5763 108.543 60.1357C108.857 60.5059 109.241 60.7739 109.695 60.9397C109.72 60.9486 109.748 60.9494 109.774 60.942C109.799 60.9347 109.822 60.9195 109.839 60.8987C109.856 60.8778 109.866 60.8522 109.868 60.8254C109.87 60.7986 109.864 60.7718 109.85 60.7487C109.692 60.4792 109.68 60.2038 109.812 59.9224C109.851 59.841 109.852 59.7588 109.817 59.6758L109.571 59.1161C109.548 59.0598 109.557 59.0087 109.598 58.9628L109.766 58.7807C109.818 58.7259 109.84 58.6607 109.835 58.5852C109.82 58.3823 109.902 58.2268 110.08 58.1187C110.145 58.0798 110.194 58.0204 110.222 57.9499C110.612 56.9133 111.017 56.0914 111.436 55.4843C112.551 53.8694 114.254 54.4048 115.841 54.869C116.205 54.9742 116.517 55.1667 116.776 55.4465C117.677 56.4195 118.475 57.2969 119.365 58.4564C120.317 59.7003 121.361 60.8657 122.497 61.9526C122.667 62.1141 122.963 62.328 123.386 62.5946C123.453 62.6361 123.49 62.6175 123.497 62.5391C123.553 61.8445 123.776 61.2315 124.167 60.6999C125.786 58.483 126.616 60.3955 127.702 61.5928C128.077 62.006 128.438 62.431 128.786 62.8678C128.832 62.9271 128.892 62.9641 128.965 62.9789C129.91 63.1832 130.742 64.5804 131.266 65.3268C131.813 66.1072 132.266 66.7114 132.624 67.1393C135.04 70.0151 136.925 72.2771 138.281 73.9253C138.58 74.2896 138.63 74.6842 138.431 75.1092C138.399 75.1788 138.41 75.241 138.464 75.2958C138.86 75.689 138.555 76.1443 138.068 76.1843C138.033 76.1872 137.998 76.1971 137.966 76.2135C137.934 76.2299 137.906 76.2524 137.883 76.2798C137.325 76.9351 136.666 77.5771 136.323 78.3701C136.202 78.647 136.083 78.9246 135.967 79.203C135.952 79.2357 135.945 79.2711 135.945 79.3068C135.946 79.3425 135.954 79.3776 135.969 79.4096C137.327 82.3217 138.124 84.7496 137.173 87.906C137.016 88.4243 136.751 88.91 136.376 89.3631C135.238 90.7448 133.915 91.9287 132.41 92.915C132.354 92.952 132.34 93.0008 132.368 93.0616C132.736 93.8538 133.087 94.9726 133.418 96.4179C133.654 97.4456 134.327 99.467 135.436 102.482C135.762 103.366 136.126 104.86 136.529 106.964C136.995 109.4 137.678 112.041 138.577 114.886C139.252 117.014 139.453 119.397 139.75 121.578C140.135 124.41 140.194 127.704 139.5 130.61C139.36 131.193 139.225 131.803 139.097 132.44C138.927 133.282 138.46 134.16 138.491 135.01C138.524 135.91 139.86 135.719 140.486 135.745C140.519 135.747 140.551 135.742 140.582 135.73C140.612 135.718 140.639 135.7 140.661 135.677C140.769 135.566 140.902 135.508 141.061 135.503C141.101 135.502 141.139 135.51 141.175 135.527C141.21 135.543 141.241 135.568 141.265 135.599C142.291 136.914 144.386 137.38 146.178 137.711C147.76 138 150.434 138.833 152.95 139.297C153.854 139.465 154.455 139.573 154.755 139.622C155.319 139.713 155.865 139.488 156.379 139.488C158.768 139.496 161.156 139.47 163.544 139.411C163.727 139.405 164.129 139.354 164.752 139.257C165.296 139.173 165.862 139.257 166.391 139.173C167.641 138.975 168.948 139.022 170.116 138.844C171.544 138.628 172.974 138.444 174.408 138.293C175.113 138.218 175.963 138.327 176.77 138.18C177.328 138.08 177.79 138.204 178.314 138.133C181.369 137.72 184.022 138.389 186.785 139.584C188.026 140.121 189.685 140.497 189.97 142.067C190.054 142.523 189.96 142.949 189.687 143.344C189.214 144.029 188.811 144.362 187.924 144.435C185.528 144.629 183.136 144.625 180.75 144.424C180.46 144.4 180.007 144.411 179.719 144.477C177.365 145.024 174.984 145.347 172.576 145.448C170.866 145.519 169.147 145.679 167.426 145.681C167.026 145.683 166.639 145.877 166.313 145.883C165.225 145.909 164.137 145.927 163.05 145.939C162.515 145.946 162.137 146.17 161.632 145.715C161.445 145.546 161.238 145.495 161.011 145.564C160.94 145.586 160.868 145.592 160.796 145.584C159.347 145.432 157.938 145.501 156.505 145.268C155.503 145.106 154.441 145.033 153.512 144.842C151.181 144.359 148.682 143.678 146.015 142.8C144.61 142.338 143.836 141.69 142.652 140.959C141.211 140.072 139.732 139.253 138.214 138.502C138.151 138.471 138.097 138.483 138.053 138.538C137.524 139.173 137.159 139.87 136.469 140.308C135.969 140.625 135.445 140.889 134.896 141.101C133.673 141.57 132.202 141.465 130.85 141.512C130.514 141.523 130.383 141.636 130.147 141.847C130.132 141.861 130.114 141.871 130.094 141.876C130.075 141.881 130.054 141.881 130.035 141.877C130.015 141.873 129.996 141.864 129.98 141.851C129.964 141.838 129.952 141.822 129.943 141.803C129.816 141.523 129.596 141.468 129.282 141.639C129.249 141.656 129.21 141.661 129.171 141.654C127.713 141.341 126.572 141.781 125.324 141.85C123.218 141.97 121.103 141.784 118.977 141.294C118.528 141.191 118.16 141.301 117.874 141.625C117.825 141.68 117.764 141.713 117.69 141.725C116.515 141.91 115.232 141.872 114.177 142.034C109.93 142.694 105.689 143.404 101.422 143.913C99.632 144.124 97.6875 144.455 96.0572 144.591C93.3775 144.813 90.6926 144.865 88.0026 144.748C87.808 144.739 87.4865 144.571 87.0381 144.244C86.9806 144.203 86.9519 144.146 86.9519 144.075L86.9497 143.462C86.9497 143.37 86.9128 143.351 86.839 143.404C86.6916 143.508 86.5234 143.55 86.3347 143.529C86.2634 143.52 86.1966 143.49 86.1435 143.441C86.0903 143.393 86.0536 143.329 86.0382 143.259C86.0229 143.188 86.0298 143.115 86.0579 143.049C86.0861 142.982 86.1341 142.927 86.1953 142.889C87.0315 142.383 87.6775 141.525 88.3168 140.943C88.7659 140.535 89.1463 140.115 89.6419 139.773C90.7863 138.98 91.9617 138.237 93.1681 137.543C93.3583 137.434 93.359 137.325 93.1703 137.214C92.632 136.901 92.0804 136.51 91.5156 136.041C90.0673 134.833 88.6987 133.541 87.4098 132.165C84.68 129.253 82.5504 126.781 81.021 124.748C79.7808 123.101 78.7897 121.839 78.0479 120.961C77.9668 120.864 77.9144 120.879 77.8908 121.003C77.7787 121.58 77.6615 122.147 77.5391 122.702C77.4167 123.256 77.3275 123.828 77.2714 124.417C77.1328 125.858 77.0045 127.299 76.8865 128.74C76.7715 130.13 76.4861 131.372 76.1587 132.687C76.1538 132.706 76.1531 132.727 76.1564 132.747C76.1598 132.767 76.1672 132.786 76.1782 132.802C76.1892 132.819 76.2036 132.834 76.2204 132.845C76.2372 132.856 76.2561 132.863 76.2759 132.867C76.7538 132.953 76.8378 133.36 76.7361 133.797C76.3497 135.46 75.8254 137.078 75.1632 138.649C75.0069 139.022 74.7164 139.534 74.2916 140.184C73.8315 140.891 73.4606 141.649 73.1789 142.456C72.6413 143.998 71.1327 142.289 70.4756 141.969C69.6999 141.592 68.9883 141.252 68.3409 140.95C68.0666 140.821 67.8904 140.61 67.8122 140.317C66.9716 137.189 66.1862 134.106 65.4562 131.068C65.381 130.751 65.3618 130.462 65.3987 130.201C65.4088 130.128 65.4431 130.06 65.4961 130.01C65.8013 129.715 65.9348 129.366 65.8965 128.962C65.7342 127.244 65.5056 125.457 65.2107 123.6C64.9275 121.828 64.7439 120.361 64.6599 119.197C64.4984 116.996 64.4563 114.772 64.2174 112.58C64.1112 111.585 64.1887 110.601 64.036 109.608C63.921 108.841 63.9829 108.202 63.6909 107.447C63.5066 106.977 63.4247 106.559 63.4454 106.194C63.5206 104.772 63.4402 103.345 63.2043 101.911C63.1762 101.742 63.0804 101.685 62.9167 101.738C62.8193 101.769 62.7249 101.781 62.6335 101.773C62.5598 101.766 62.4978 101.735 62.4477 101.68L60.9368 100.039C60.9162 100.015 60.8895 99.9982 60.8594 99.9891C60.8293 99.9801 60.7972 99.9795 60.7664 99.9875L60.4258 100.076C60.4053 100.082 60.384 100.083 60.3632 100.079C60.3424 100.076 60.3227 100.068 60.3051 100.056C60.2876 100.045 60.2727 100.03 60.2615 100.012C60.2503 99.9946 60.2429 99.9748 60.2399 99.9542L60.1404 99.3189C60.1353 99.2858 60.1234 99.2541 60.1053 99.2259C60.0871 99.1978 60.0633 99.1738 60.0353 99.1555C60.0073 99.1373 59.9758 99.1252 59.9428 99.12C59.9098 99.1149 59.8762 99.1168 59.844 99.1256C58.8087 99.4114 57.7859 99.621 56.7757 99.7542C55.8436 99.8772 55.1144 100.009 54.5879 100.15C53.6256 100.407 52.7518 100.683 51.7054 100.867C50.0773 101.154 48.5818 101.827 47.0687 102.247C44.6995 102.904 42.7616 104.059 40.6977 105.17C38.8173 106.18 36.5609 107.18 34.5279 108.271C34.4704 108.302 34.4734 108.323 34.5368 108.335C35.4644 108.502 36.3817 108.719 37.2887 108.984C37.9037 109.164 38.7576 108.79 39.5075 108.93C40.3275 109.083 40.8864 109.205 41.1843 109.297C41.9438 109.534 42.2292 110.088 42.0404 110.961C41.8767 111.713 41.7285 112.291 41.5958 112.695C41.5737 112.766 41.5287 112.816 41.4609 112.844C41.2529 112.929 41.0664 112.909 40.9012 112.784C40.8481 112.744 40.8105 112.755 40.7884 112.818C39.9507 115.179 39.3077 116.842 38.8593 117.804C37.6294 120.455 36.6464 123.159 35.9105 125.916C35.8235 126.242 35.9474 126.399 36.2822 126.387C36.4547 126.38 36.6 126.435 36.718 126.552C36.7311 126.565 36.7404 126.582 36.7448 126.6C36.7493 126.618 36.7488 126.637 36.7434 126.655C36.7379 126.673 36.7278 126.689 36.7139 126.702C36.7001 126.715 36.6832 126.723 36.6649 126.727L35.8442 126.9C35.7732 126.916 35.7107 126.958 35.6694 127.018C35.5234 127.228 35.3265 127.257 35.0788 127.105C35.0504 127.087 35.0167 127.081 34.9838 127.086C34.951 127.091 34.9211 127.108 34.8996 127.134C34.5213 127.573 33.9616 127.591 33.7006 127.049C33.6681 126.983 33.6217 126.929 33.5612 126.887C32.7619 126.351 31.8844 126.039 30.9287 125.952C27.6577 125.657 24.3866 125.354 21.1156 125.043C20.5256 124.989 19.9276 124.865 19.3215 124.672C17.6181 124.135 16.4656 124.033 14.3176 123.877C13.5898 123.824 12.8155 123.495 11.9881 123.46C11.6091 123.445 11.2648 123.392 10.9551 123.302C10.3563 123.13 9.74649 123.029 9.1256 123C8.10948 122.951 7.49671 122.912 7.28729 122.884C5.68273 122.659 4.08407 122.406 2.49131 122.125C2.41462 122.11 2.34826 122.13 2.29222 122.185C2.16686 122.303 2.01791 122.366 1.84536 122.373C1.75687 122.378 1.7141 122.336 1.71705 122.247L1.72148 122.016C1.72443 121.927 1.68387 121.871 1.59981 121.847L0.168537 121.458C0.122243 121.446 0.0810966 121.419 0.0509166 121.382C0.0207366 121.345 0.00305051 121.299 0.000360041 121.251C-0.00233043 121.203 0.0101102 121.155 0.0359235 121.114C0.0617367 121.073 0.0996158 121.041 0.144203 121.023C0.654476 120.817 1.18392 120.746 1.73254 120.81C1.79873 120.817 1.86537 120.8 1.92024 120.762C1.9751 120.723 2.01449 120.666 2.03118 120.601C2.67713 118.011 3.32677 115.413 3.9801 112.809C4.30087 111.531 4.7433 110.314 5.16804 109.075C5.2462 108.845 5.40179 108.583 5.6348 108.288C5.94451 107.894 6.14065 107.441 6.22324 106.929C6.23504 106.85 6.28076 106.81 6.36039 106.807C8.29825 106.749 9.99941 106.411 11.9572 106.767C12.3937 106.845 12.8148 106.828 13.2203 106.713C13.5551 106.62 13.8501 106.57 14.1052 106.562C14.6538 106.547 15.167 106.391 15.6692 106.385C16.995 106.364 18.3208 106.367 19.6467 106.394C20.7174 106.416 21.673 106.662 22.6884 106.929C23.0217 107.016 23.3609 107.065 23.706 107.076C23.7797 107.077 23.8365 107.047 23.8763 106.984C24.0909 106.651 24.1905 106.203 24.3099 105.929C24.8438 104.72 25.4566 103.552 26.1482 102.426C27.2543 100.627 28.8891 99.1789 30.442 97.7262C32.0304 96.2424 33.4727 94.6542 35.019 93.146C36.2372 91.9598 37.4074 91.0528 38.5297 90.4249C39.0164 90.1539 39.4434 89.7696 39.9433 89.4853C40.8916 88.9492 41.8119 88.371 42.7041 87.7505C43.7394 87.0293 44.6043 86.4725 45.299 86.0801C47.6778 84.734 50.0514 83.3783 52.4199 82.013C52.7444 81.8249 53.0637 81.8404 53.3778 82.0596C53.4021 82.0765 53.4215 82.0994 53.4343 82.1263C53.4471 82.1532 53.4528 82.183 53.4508 82.2129C53.4125 82.7119 53.2008 83.1236 52.8159 83.4479C52.7834 83.4753 52.743 83.4914 52.7011 83.4938C52.6592 83.4962 52.6179 83.4848 52.5836 83.4612L52.2938 83.2613C52.2275 83.2154 52.1589 83.211 52.0881 83.248C50.777 83.9099 49.5198 84.6629 48.3164 85.507C48.1822 85.6018 48.1962 85.6581 48.3584 85.6758C48.6224 85.7054 48.7979 85.855 48.8849 86.1245C48.8957 86.1585 48.8975 86.1947 48.8901 86.2298C48.8827 86.2648 48.8665 86.2974 48.8429 86.3244L47.7368 87.6128C47.7111 87.6425 47.6944 87.6791 47.6889 87.7181C47.6834 87.7571 47.6893 87.7969 47.7058 87.8327C47.8931 88.2414 47.8002 88.5776 47.4271 88.8411C47.3519 88.893 47.3489 88.9492 47.4182 89.01C47.5222 89.0988 47.6439 89.1588 47.6881 89.2943C47.7722 89.5564 47.6586 89.7445 47.3474 89.8585C46.9021 90.0229 46.4722 90.2228 46.0577 90.4582C46.0445 90.4662 46.0346 90.4786 46.0298 90.4933C46.0249 90.508 46.0255 90.5239 46.0314 90.5382C46.0373 90.5525 46.0482 90.5642 46.0619 90.5711C46.0757 90.578 46.0915 90.5797 46.1064 90.576C46.4692 90.4738 46.6462 90.1872 47.0222 90.5004C47.0818 90.5501 47.1271 90.6149 47.1533 90.6881C47.1795 90.7613 47.1857 90.8402 47.1712 90.9166C47.1568 90.993 47.1222 91.0642 47.0711 91.1226C47.02 91.1811 46.9543 91.2247 46.8807 91.249C46.2318 91.4622 45.5888 91.7355 44.9517 92.0686C44.1656 92.4818 43.5366 92.7817 43.0647 92.9683C42.2801 93.2778 41.4999 93.5939 40.7242 93.9167C40.1889 94.1411 39.6048 94.1633 39.0363 94.3499C38.9464 94.3795 38.8667 94.3617 38.7974 94.2966L38.6204 94.1278C38.5732 94.0833 38.5187 94.0656 38.4567 94.0745L37.7201 94.1811C37.6571 94.1901 37.5928 94.1806 37.535 94.154C37.4771 94.1273 37.4282 94.0845 37.3939 94.0306C37.3596 93.9768 37.3415 93.9142 37.3417 93.8503C37.3418 93.7864 37.3603 93.7238 37.3949 93.6702L38.2178 92.3996C38.237 92.37 38.2451 92.3374 38.2421 92.3019C38.2421 92.2797 38.2385 92.2567 38.2311 92.233C38.2245 92.2124 38.2133 92.1935 38.1984 92.1778C38.1836 92.1621 38.1654 92.1499 38.1452 92.1423C38.125 92.1346 38.1033 92.1316 38.0818 92.1334C38.0603 92.1353 38.0395 92.142 38.0209 92.1531C37.2187 92.6358 36.4687 93.1978 35.7712 93.839C34.3001 95.1918 32.6011 96.4845 31.3866 97.8839C30.1065 99.3559 28.9835 100.942 28.0175 102.642C27.7579 103.099 27.4291 103.572 27.0309 104.059C26.2743 104.983 25.6424 105.989 25.1351 107.078C25.009 107.344 25.0952 107.757 24.6838 107.942C24.6531 107.956 24.6268 107.978 24.6077 108.006C24.5886 108.035 24.5774 108.068 24.5754 108.102L24.4272 110.601C24.4211 110.703 24.4557 110.803 24.5233 110.88C24.5909 110.957 24.686 111.003 24.7878 111.009C25.5819 111.054 26.7544 111.3 27.491 110.969C29.0727 110.254 30.6456 109.721 32.1897 108.83C33.0546 108.333 33.9793 107.98 34.789 107.431C37.0387 105.907 39.3394 104.714 41.8944 103.795C43.7571 103.124 45.5312 102.202 47.343 101.4C48.6216 100.836 49.9976 100.596 51.3603 100.254C52.2253 100.039 53.6787 99.8786 54.8113 99.5321C55.2581 99.3959 55.7161 99.3041 56.185 99.2567C57.2675 99.1501 58.3139 98.8835 59.3241 98.457C59.4008 98.4245 59.4229 98.3704 59.3905 98.2949C59.2386 97.9291 59.0181 97.5537 58.729 97.1687C58.117 96.3527 57.7431 95.405 57.6075 94.3255C57.429 92.9201 57.1547 91.5341 56.7845 90.1672C56.6518 89.6786 56.6894 89.0722 56.5346 88.5213C56.3288 87.7838 56.258 87.0197 56.1651 86.2622C56.1474 86.1156 56.1091 86.1105 56.0501 86.2467C55.9594 86.4577 55.9329 86.6932 55.8333 86.8798C55.4418 87.6039 54.6653 87.5861 54.2317 86.9375C53.7738 86.2511 53.7649 84.7807 53.6543 83.9499C53.5717 83.3279 53.5548 82.6808 53.6034 82.0085C53.6949 80.7676 53.7391 79.5251 53.7362 78.2812C53.7332 77.6163 53.7826 76.8648 53.8844 76.0266C54.0289 74.8183 54.0709 73.6054 54.0105 72.3882C53.9766 71.6759 53.9928 71.0391 54.0591 70.4779C54.1358 69.8441 54.2096 69.2103 54.2804 68.5765C54.4087 67.4392 54.329 65.8732 54.6056 64.6582C54.7206 64.1502 55.0126 63.1388 55.4816 61.6239C55.7618 60.7221 55.9601 59.841 56.0766 58.9806C56.1976 58.0832 56.3119 57.1851 56.4195 56.2862C56.5213 55.4451 56.6938 54.5195 56.9372 53.5096C57.2071 52.3842 57.4327 51.2498 57.6141 50.1066C57.6274 50.0237 57.5927 49.9756 57.5101 49.9622C57.2019 49.9163 56.9962 49.7379 56.8929 49.4269C56.8884 49.4117 56.8882 49.3955 56.8922 49.3801C56.8963 49.3647 56.9045 49.3508 56.9159 49.3398C56.9273 49.3287 56.9415 49.3211 56.957 49.3177C56.9725 49.3142 56.9886 49.3151 57.0035 49.3203C58.3972 49.8267 59.768 50.3169 61.116 50.7908C61.2649 50.8426 61.3822 50.8285 61.4677 50.7486C61.54 50.6804 61.5289 50.6316 61.4345 50.602C60.3152 50.2599 59.3816 49.7379 58.2158 49.3425C57.1289 48.9752 56.2396 48.3037 55.5479 47.3278C55.3061 46.9872 54.7796 46.6088 53.9684 46.1927C53.964 46.1897 53.9585 46.1884 53.9532 46.1892C53.9478 46.1899 53.9429 46.1925 53.9394 46.1966C53.9359 46.2007 53.9339 46.206 53.934 46.2114C53.9341 46.2168 53.9361 46.222 53.9397 46.226ZM47.635 0.920995L47.4249 1.74953C47.421 1.76535 47.4205 1.78182 47.4234 1.79785C47.4263 1.81387 47.4326 1.8291 47.4418 1.84253C47.451 1.85595 47.4629 1.86727 47.4767 1.87575C47.4906 1.88422 47.5061 1.88965 47.5222 1.89169L47.8806 1.93389C47.9016 1.93648 47.9228 1.93446 47.943 1.92798C47.9631 1.92149 47.9816 1.9107 47.9972 1.89633C48.0127 1.88197 48.025 1.86438 48.0331 1.84479C48.0413 1.82519 48.0451 1.80406 48.0443 1.78285C48.0339 1.43929 47.9019 1.15053 47.6483 0.916552L47.6455 0.913956L47.6415 0.913978L47.6375 0.916609L47.635 0.920995ZM46.0002 23.3136C45.7141 24.3428 45.5327 25.586 45.456 27.0431C45.4236 27.6562 45.47 28.404 45.5954 29.2866C45.7104 30.1026 45.8542 31.2488 46.0268 32.7252C46.1492 33.7588 46.4758 34.8317 47.0068 35.9438C47.6262 37.2388 47.9469 38.6249 48.6769 39.8377C50.0087 42.0545 51.7607 43.9581 53.9331 45.5486C55.4395 46.6503 56.873 47.832 58.5675 48.5806C60.4302 49.4025 62.3703 50.1377 64.1378 50.1866C64.5566 50.1984 64.9725 50.2762 65.3855 50.4198C66.906 50.9455 68.4707 51.2839 70.0797 51.4349C70.528 51.4764 70.9682 51.429 71.4003 51.2928C72.4157 50.9751 73.7673 50.5797 74.5637 49.8623C74.5976 49.8312 74.5969 49.8008 74.5615 49.7712L74.1633 49.4402C74.0911 49.3795 74.0756 49.3069 74.1169 49.2225C74.2791 48.8834 74.4553 48.6124 74.6456 48.4096C76.082 46.8858 77.7146 45.4745 79.5433 44.1758C79.6421 44.1047 79.8427 44.0396 80.145 43.9803C80.7799 43.8537 81.4701 43.1851 82.1205 43.6072C82.1824 43.6471 82.2355 43.6368 82.2798 43.5761C82.7591 42.9008 83.0621 42.4121 83.189 42.11C83.7582 40.7462 84.3732 39.4045 85.0339 38.0851C85.3702 37.4128 85.6349 36.7397 85.8281 36.0659C86.7454 32.854 87.4127 30.7031 87.8301 29.6132C88.3212 28.3233 88.7098 27.1638 88.9959 26.1346C89.003 26.1084 88.9995 26.0804 88.9864 26.0567C88.9732 26.0329 88.9513 26.0153 88.9254 26.0075C88.8995 25.9997 88.8715 26.0023 88.8475 26.0149C88.8235 26.0274 88.8053 26.0489 88.7968 26.0747C88.701 26.3634 88.4303 26.7788 87.985 27.3208C87.7918 27.5533 87.5823 27.5725 87.3567 27.3786C87.2878 27.3198 87.2435 27.2371 87.2324 27.147C87.2213 27.0569 87.2444 26.9659 87.297 26.8921C87.6598 26.3879 87.9562 26.0036 88.2371 25.3794C88.5395 24.7056 89.0298 24.1896 89.7082 23.8312C89.7775 23.7942 89.8196 23.7379 89.8343 23.6624C90.2502 21.5507 90.5688 19.2139 90.79 16.652C90.9566 14.7032 90.9913 12.9018 90.894 11.2477C90.8913 11.2126 90.8786 11.1791 90.8575 11.1511C90.8363 11.1231 90.8074 11.1019 90.7745 11.09C90.2642 10.9093 90.0135 10.5502 90.0224 10.0127C90.0636 7.84025 90.0659 6.04843 90.029 4.63718C90.026 4.55574 89.9936 4.54093 89.9317 4.59276C89.3543 5.06367 88.8964 5.80113 88.5137 6.21428C87.9119 6.86734 86.901 7.69143 86.8214 8.62436C86.8155 8.70137 86.7815 8.76282 86.7196 8.80873C85.8333 9.46771 85.0649 10.2459 84.4145 11.1433C84.3703 11.2055 84.3622 11.2721 84.3902 11.3432C84.6202 11.9096 83.784 12.4827 83.3836 12.747C82.9058 13.0595 82.5968 13.2824 82.4567 13.4156C81.9332 13.9117 81.465 14.4582 81.052 15.0549C80.8043 15.4126 80.395 15.5792 80.0234 15.3348C79.961 15.2936 79.9077 15.2398 79.8669 15.177C79.8261 15.1141 79.7986 15.0435 79.7861 14.9695C79.7737 14.8956 79.7765 14.8198 79.7945 14.747C79.8125 14.6742 79.8452 14.6058 79.8906 14.5463L81.3529 12.636C81.5549 12.3724 81.49 12.2399 81.1582 12.2384C79.5168 12.2295 77.4971 12.0562 75.776 12.4605C75.3513 12.5597 74.942 12.6123 74.5482 12.6182C71.8288 12.6552 70.0089 12.6463 69.0886 12.5916C67.5224 12.4983 65.6369 12.1969 63.4321 11.6875C62.4167 11.4543 61.3305 11.5342 60.2532 11.2899C58.7467 10.9478 57.7424 10.7612 56.4903 10.4147C56.4453 10.4018 56.3957 10.3994 56.348 10.4077C56.3003 10.4161 56.2568 10.4349 56.2233 10.4616C56.1897 10.4883 56.1677 10.5217 56.1601 10.5573C56.1525 10.593 56.1596 10.6292 56.1806 10.6613C56.2367 10.7472 56.1769 10.8708 56.0014 11.0322C54.6387 12.2821 53.3962 13.6437 52.2739 15.1171C52.0557 15.4029 51.8389 15.6458 51.6236 15.8457C51.3301 16.1167 51.1199 16.3544 50.9931 16.5587C49.9283 18.2736 48.775 20.3334 47.5333 22.7383C47.4123 22.9723 47.2184 23.0708 46.9515 23.0338C46.8862 23.0253 46.826 22.9911 46.7833 22.9382C46.6594 22.7827 46.6086 22.6043 46.6307 22.4029C46.6395 22.3289 46.6159 22.2674 46.5599 22.2185C46.1838 21.8942 46.1322 21.5211 46.4051 21.099C46.523 20.9169 46.4854 20.8813 46.2922 20.9924C46.0754 21.1168 45.8572 21.1183 45.6374 20.9968C45.5519 20.948 45.4944 20.9709 45.4649 21.0657C45.3572 21.4122 45.3491 21.7447 45.4405 22.0631C45.4612 22.1327 45.5054 22.1808 45.5733 22.2074C46.0157 22.3733 46.158 22.742 46.0002 23.3136ZM47.6217 5.2969C47.4558 5.88331 47.082 6.83402 47.1749 7.5626C47.177 7.57694 47.1841 7.59007 47.1949 7.59973C47.2057 7.60939 47.2194 7.61496 47.2339 7.61549C47.2483 7.61602 47.2625 7.61146 47.2739 7.60262C47.2854 7.59377 47.2934 7.58118 47.2966 7.56704C47.4669 6.66964 48.0221 6.35422 47.7434 5.2969C47.7036 5.14881 47.663 5.14881 47.6217 5.2969ZM49.3052 10.3081C49.5559 8.88647 49.6658 7.61665 49.6348 6.49861C49.6304 6.35052 49.5795 6.21651 49.4822 6.09656C49.3922 5.98846 49.3443 6.00474 49.3384 6.14542L49.1703 10.2925C49.1707 10.3091 49.177 10.325 49.1882 10.3373C49.1994 10.3495 49.2146 10.3573 49.231 10.3592C49.2474 10.3611 49.264 10.357 49.2776 10.3476C49.2913 10.3382 49.3011 10.3242 49.3052 10.3081ZM53.3468 9.43735C52.8852 8.56217 52.4317 7.6818 51.9863 6.79626C51.8912 6.60523 51.6988 6.42308 51.5638 6.33201C51.2246 6.10248 51.145 6.17134 51.3249 6.53859C51.9016 7.71586 52.4657 8.82724 53.0172 9.87272C53.0858 10.0016 53.0769 10.0926 53.0615 10.2303C53.0541 10.3073 53.0865 10.3607 53.1588 10.3903C53.349 10.4673 53.4869 10.6006 53.5725 10.7901C53.6152 10.8878 53.6823 10.9093 53.7738 10.8545L54.4949 10.428C54.5116 10.418 54.5251 10.4035 54.5339 10.3861C54.5427 10.3688 54.5466 10.3493 54.545 10.3299C54.5433 10.3105 54.5364 10.2919 54.5248 10.2763C54.5132 10.2607 54.4975 10.2486 54.4795 10.2414C53.8777 9.99859 53.5002 9.73056 53.3468 9.43735ZM50.9842 9.66836C51.2173 9.38256 51.2408 9.09972 51.055 8.81983C50.9754 8.69692 50.9216 8.70729 50.8935 8.85093L50.69 9.9127C50.6847 9.93332 50.6878 9.9552 50.6986 9.97353C50.7094 9.99186 50.727 10.0051 50.7475 10.0104C50.7681 10.0157 50.7899 10.0126 50.8081 10.0018C50.8264 9.99097 50.8396 9.9733 50.8449 9.95268L50.8736 9.8705C50.8987 9.79645 50.9356 9.72908 50.9842 9.66836ZM50.5374 11.592C50.5123 11.6246 50.4939 11.6623 50.4821 11.7053C50.4703 11.7512 50.474 11.7926 50.4931 11.8297C50.5403 11.923 50.5831 11.9215 50.6214 11.8252C50.8264 11.3217 51.117 10.8738 51.493 10.4813C51.5176 10.4553 51.5367 10.4246 51.5492 10.391C51.5617 10.3574 51.5675 10.3217 51.566 10.2859L51.5483 9.89271C51.541 9.74462 51.5034 9.73648 51.4355 9.86827L50.575 11.532C50.5647 11.5542 50.5521 11.5742 50.5374 11.592ZM46.3471 11.8626C46.3556 11.863 46.3644 11.8511 46.373 11.8276C46.3817 11.8041 46.3901 11.7696 46.3978 11.7259C46.4054 11.6822 46.4121 11.6303 46.4175 11.5731C46.423 11.5158 46.427 11.4544 46.4293 11.3923C46.4341 11.2669 46.432 11.1464 46.4234 11.0573C46.4147 10.9682 46.4003 10.9177 46.3833 10.9171C46.3749 10.9167 46.3661 10.9286 46.3574 10.9521C46.3487 10.9755 46.3403 11.0101 46.3327 11.0538C46.3251 11.0974 46.3183 11.1494 46.3129 11.2066C46.3075 11.2639 46.3035 11.3253 46.3011 11.3874C46.2963 11.5128 46.2985 11.6333 46.3071 11.7224C46.3157 11.8115 46.3301 11.862 46.3471 11.8626ZM45.8476 16.5543C45.8467 16.5702 45.8521 16.5858 45.8627 16.5977C45.8733 16.6096 45.8882 16.6167 45.904 16.6176C45.9198 16.6185 45.9354 16.613 45.9472 16.6024C45.959 16.5918 45.9662 16.5769 45.967 16.561C45.9774 16.401 45.9796 16.2418 45.9737 16.0834C45.9708 16.0427 45.9784 16.0021 45.9958 15.9657C46.4227 15.0327 46.2546 13.7622 46.1971 12.7582C46.1956 12.7389 46.186 12.7293 46.1683 12.7293C46.1403 12.7293 46.1256 12.7404 46.1241 12.7626C46.0223 13.8125 45.9302 15.0764 45.8476 16.5543ZM50.7387 13.3001C50.7977 13.2557 50.8375 13.195 50.8581 13.118C50.8602 13.1051 50.8579 13.0918 50.8515 13.0804C50.8451 13.069 50.835 13.0602 50.8229 13.0553C50.8108 13.0504 50.7975 13.0497 50.785 13.0535C50.7725 13.0572 50.7616 13.0651 50.7542 13.0758L50.4622 13.5911C50.4554 13.6058 50.454 13.6224 50.4582 13.638C50.4624 13.6536 50.4719 13.6672 50.4851 13.6765C50.4982 13.6858 50.5143 13.6901 50.5303 13.6887C50.5463 13.6873 50.5614 13.6803 50.5728 13.6689C50.6303 13.6022 50.662 13.5237 50.6679 13.4334C50.6708 13.3786 50.6944 13.3342 50.7387 13.3001ZM49.7941 15.648C50.2203 15.1194 50.4445 14.5211 50.4666 13.8532C50.4725 13.6874 50.4327 13.6755 50.3471 13.8177C49.9829 14.4293 49.7476 15.0905 49.6414 15.8013C49.6297 15.8813 49.654 15.8938 49.7145 15.8391C49.7484 15.808 49.7668 15.7643 49.7698 15.708C49.7713 15.6863 49.7798 15.6654 49.7941 15.648ZM45.8653 20.2461L46.0046 20.115C46.019 20.1012 46.0297 20.084 46.0356 20.065C46.0416 20.046 46.0426 20.0257 46.0386 20.0062C46.0346 19.9867 46.0258 19.9685 46.0129 19.9533C46 19.9381 45.9834 19.9265 45.9648 19.9195L45.7525 19.8373C45.7341 19.8301 45.7142 19.8275 45.6946 19.8297C45.6749 19.832 45.6561 19.839 45.6398 19.8501C45.6235 19.8613 45.6101 19.8763 45.6008 19.8938C45.5915 19.9113 45.5866 19.9308 45.5865 19.9506V20.4349C45.5865 20.5119 45.6183 20.5289 45.6817 20.486C45.7215 20.4563 45.7532 20.4178 45.7768 20.3704C45.7989 20.3245 45.8284 20.2831 45.8653 20.2461ZM87.6344 32.2812C87.6532 32.2857 87.6809 32.2492 87.7115 32.1799C87.742 32.1106 87.7728 32.014 87.7971 31.9114C87.8092 31.8606 87.8193 31.8099 87.8269 31.7621C87.8344 31.7143 87.8393 31.6704 87.8412 31.6329C87.8432 31.5954 87.8421 31.565 87.8381 31.5435C87.8341 31.5221 87.8272 31.5098 87.8179 31.5076C87.799 31.5031 87.7713 31.5396 87.7408 31.6089C87.7103 31.6783 87.6795 31.7748 87.6551 31.8774C87.6431 31.9282 87.633 31.9789 87.6254 32.0267C87.6178 32.0745 87.613 32.1184 87.611 32.1559C87.6091 32.1934 87.6102 32.2238 87.6142 32.2453C87.6182 32.2668 87.625 32.279 87.6344 32.2812ZM62.222 98.6192C62.1498 98.7406 61.9374 98.8961 61.5849 99.0856C61.5661 99.0951 61.5484 99.1086 61.5329 99.1253C61.5174 99.1419 61.5044 99.1614 61.4946 99.1827C61.4849 99.2039 61.4786 99.2265 61.476 99.2492C61.4735 99.2718 61.4748 99.294 61.4799 99.3146C61.485 99.3352 61.4937 99.3536 61.5057 99.369C61.5176 99.3844 61.5324 99.3963 61.5494 99.4041C61.5663 99.4119 61.585 99.4155 61.6044 99.4146C61.6238 99.4137 61.6435 99.4083 61.6624 99.3988L62.0561 99.2145C62.0809 99.2031 62.1079 99.1974 62.1352 99.1978C62.1624 99.1981 62.1891 99.2044 62.2135 99.2163C62.2379 99.2283 62.2592 99.2454 62.276 99.2666C62.2928 99.2878 62.3046 99.3125 62.3105 99.3389L62.3791 99.6387C62.3968 99.7172 62.3695 99.7742 62.2973 99.8098L61.95 99.983C61.8423 100.036 61.8349 100.102 61.9278 100.179C62.2139 100.42 62.5413 100.583 62.91 100.667C63.0059 100.689 63.0413 100.652 63.0162 100.556C62.8791 100.03 62.8142 99.4966 62.8215 98.9546C62.8348 97.6507 62.5738 96.4668 62.5295 95.1962C62.5148 94.7979 62.6837 94.5868 63.0361 94.5631C63.1128 94.5587 63.1792 94.5831 63.2352 94.6364C63.8037 95.1829 63.3414 95.9603 63.3016 96.5845C63.3007 96.6027 63.3038 96.6209 63.3109 96.6378C63.3179 96.6546 63.3286 96.6697 63.3422 96.6818C63.3558 96.694 63.3719 96.7029 63.3894 96.708C63.4068 96.7131 63.4252 96.7141 63.4432 96.7111C64.0095 96.6134 64.1732 96.8688 64.3103 97.3953C64.4939 98.1016 65.0603 98.7058 65.0868 99.4188C65.1414 100.897 65.1369 102.374 65.0735 103.85C65.0426 104.579 65.12 105.356 65.1111 106.116C65.1023 106.736 65.4651 107.253 65.0072 107.911C64.9629 107.973 64.9438 108.043 64.9497 108.12C65.2136 111.836 65.4614 115.555 65.6929 119.275C65.7534 120.263 65.8869 121.335 66.0933 122.491C66.5564 125.093 66.8875 127.712 67.0866 130.348C67.0977 130.499 67.2105 130.55 67.2282 130.712C67.4052 132.208 67.6367 133.513 67.9228 134.628C68.1418 135.481 68.6528 136.334 68.8984 137.16C69.1506 138.005 69.5642 140.084 70.177 140.648C70.4041 140.857 70.66 141.034 70.9446 141.181C71.0154 141.216 71.067 141.197 71.0995 141.123C71.3015 140.648 71.5183 140.363 71.7499 140.268C72.679 139.886 73.3316 139.259 73.7076 138.387C73.8109 138.144 73.8647 137.776 73.8691 137.283C73.8735 136.8 73.9414 136.322 74.0726 135.85C74.4664 134.424 74.8211 132.989 75.1367 131.545C75.408 130.304 75.6116 128.903 75.7472 127.342C75.9109 125.478 76.0761 123.613 76.2428 121.747C76.3136 120.956 77.0214 119.51 76.1808 118.95C76.1212 118.91 76.0757 118.852 76.0505 118.785C76.0252 118.717 76.0216 118.643 76.0401 118.574C76.0586 118.504 76.0983 118.442 76.1537 118.396C76.2091 118.35 76.2773 118.323 76.349 118.317L76.5879 118.302C76.6631 118.297 76.7117 118.26 76.7339 118.189C76.9374 117.556 77.0635 116.909 77.1121 116.247C77.2463 114.442 77.4019 112.639 77.5789 110.838C77.6807 109.805 77.986 108.702 78.1541 107.629C78.3148 106.622 78.4623 105.82 78.5965 105.223C78.7868 104.394 78.9652 103.56 79.1319 102.722C79.2041 102.359 79.2211 101.932 79.1827 101.44C79.1407 100.896 79.0633 99.3922 79.4261 98.9568C79.7623 98.5548 80.5145 98.7369 80.5233 99.31C80.5307 99.7691 80.558 100.233 80.6052 100.703C80.6124 100.777 80.5969 100.851 80.5609 100.916C80.378 101.242 80.3618 101.594 80.5123 101.973C80.5417 102.049 80.5941 102.101 80.6693 102.129C81.01 102.258 81.114 102.521 80.9812 102.92C80.3766 104.738 79.9371 106.348 79.6628 107.751C79.3324 109.442 79.0382 111.139 78.7801 112.842C78.4992 114.692 78.2603 117.227 77.9152 119.415C77.9089 119.456 77.9114 119.498 77.9225 119.538C77.9336 119.578 77.9529 119.614 77.9793 119.646C78.1769 119.875 78.39 120.088 78.6186 120.283C78.7632 120.408 78.7882 120.387 78.6938 120.221C78.5537 119.975 78.4947 119.707 78.5169 119.417C78.521 119.357 78.5383 119.299 78.5674 119.247C78.5965 119.195 78.6368 119.15 78.6854 119.115C78.734 119.08 78.7897 119.057 78.8485 119.046C78.9073 119.035 78.9678 119.037 79.0257 119.053C79.2336 119.107 79.4025 119.249 79.5323 119.477C79.8877 120.093 80.2785 120.685 80.7047 121.254C81.0122 121.66 81.1117 122.005 80.791 122.416C80.7408 122.479 80.7401 122.544 80.7888 122.609C82.9567 125.495 85.3016 128.228 87.8235 130.808C89.7775 132.808 91.6409 134.365 93.4136 135.477C93.7852 135.711 94.3354 135.914 95.0639 136.085C95.8448 136.27 96.7385 135.743 97.3535 135.341C98.259 134.75 99.1667 134.278 100.077 133.924C100.093 133.918 100.107 133.907 100.117 133.893C100.128 133.879 100.134 133.863 100.136 133.846C100.138 133.828 100.134 133.811 100.127 133.795C100.119 133.78 100.107 133.767 100.092 133.757C99.736 133.529 99.309 133.466 98.9861 133.244C97.9803 132.554 96.9398 131.921 95.8647 131.345C95.1126 130.942 94.5462 130.562 94.1657 130.203C92.803 128.92 91.9956 127.28 91.093 125.474C90.7878 124.866 90.6949 124.39 90.7037 123.742C90.7273 122.245 90.7951 120.749 90.9072 119.255C91.0156 117.8 91.4758 116.498 91.8607 115.09C92.5088 112.713 93.8494 110.552 95.2873 108.542C95.6479 108.037 96.1456 107.722 96.5637 107.251C96.9737 106.79 97.293 106.474 97.5216 106.303C98.7516 105.38 100.023 104.723 101.335 104.332C102.073 104.112 102.651 104.32 103.07 104.959C103.089 104.988 103.1 105.022 103.101 105.058C103.102 105.093 103.094 105.128 103.076 105.159C102.862 105.547 102.729 106.005 102.293 106.156C101.863 106.304 101.53 106.152 101.296 105.701C101.263 105.64 101.214 105.615 101.147 105.627C100.69 105.706 100.374 105.811 100.198 105.943C98.5009 107.218 97.2687 108.294 96.5018 109.172C94.8545 111.058 93.5183 113.321 92.4933 115.963C92.1143 116.94 91.8577 117.961 91.7235 119.026C91.5583 120.344 91.5016 121.509 91.5532 122.52C91.6616 124.65 92.834 126.127 93.876 127.931C94.4135 128.862 95.1546 129.537 95.8227 130.377C96.1309 130.765 96.3927 131.022 96.608 131.15C97.3004 131.563 97.9331 131.37 98.6011 131.629C99.4211 131.948 100.223 132.32 101.006 132.745C101.068 132.778 101.138 132.792 101.207 132.785C101.749 132.729 102.756 133.129 102.2 133.789C101.559 134.55 100.754 135.029 99.7869 135.226C98.8578 135.417 98.3777 135.699 97.6101 136.092C97.1736 136.316 96.6294 136.533 95.9775 136.745C94.5484 137.207 93.2411 137.916 92.0553 138.873C91.6859 139.171 91.5355 139.539 91.1594 139.804C90.0386 140.587 88.9753 141.494 87.9695 142.525C87.7999 142.7 87.8213 142.846 88.0336 142.965C88.5446 143.253 89.5866 143.16 89.372 144.097C89.3572 144.166 89.3838 144.197 89.4516 144.191C90.686 144.093 91.8762 144.32 93.0597 144.133C95.0255 143.825 96.9885 143.495 98.9485 143.142C100.13 142.929 101.167 143.293 102.337 142.996C103.283 142.754 104.228 142.507 105.173 142.254C105.246 142.235 105.312 142.197 105.364 142.145C105.485 142.022 105.606 141.953 105.729 141.938C107.37 141.738 109.299 141.701 111.058 141.388C114.307 140.81 116.889 140.409 118.805 140.186C119.718 140.081 120.803 140.096 122.061 140.232C123.38 140.375 124.572 140.321 126.01 140.181C126.911 140.093 127.813 140.093 128.715 140.181C129.702 140.278 130.401 140.316 130.813 140.297C132.923 140.199 134.799 139.742 136.615 138.56C136.861 138.398 137.394 138.176 137.566 137.818C137.601 137.747 137.608 137.665 137.585 137.588C137.563 137.512 137.513 137.446 137.445 137.405C137.378 137.364 137.297 137.35 137.22 137.366C137.143 137.382 137.075 137.427 137.029 137.491C136.955 137.592 136.844 137.653 136.695 137.674C136.647 137.68 136.599 137.677 136.553 137.664C136.506 137.651 136.464 137.628 136.427 137.598C136.39 137.567 136.36 137.529 136.338 137.486C136.317 137.442 136.305 137.395 136.303 137.347L136.263 136.359C136.26 136.271 136.221 136.207 136.144 136.165C135.746 135.949 135.421 135.647 135.17 135.259C135.16 135.243 135.146 135.231 135.13 135.221C135.113 135.212 135.095 135.207 135.077 135.207C135.058 135.207 135.04 135.211 135.023 135.219C135.007 135.227 134.993 135.24 134.982 135.255C134.621 135.768 134.177 135.825 133.651 135.426C133.586 135.377 133.512 135.346 133.43 135.332L132.352 135.164C132.288 135.154 132.231 135.118 132.193 135.066C131.742 134.454 131.388 133.788 131.131 133.067C131.105 132.99 131.004 132.897 130.828 132.789C130.754 132.745 130.718 132.679 130.72 132.591L130.762 129.579C130.763 129.522 130.747 129.465 130.714 129.417C130.682 129.369 130.636 129.333 130.582 129.313C130.529 129.292 130.47 129.289 130.415 129.304C130.359 129.319 130.309 129.351 130.273 129.395C130.141 129.549 129.994 129.57 129.83 129.457C129.737 129.393 129.673 129.285 129.638 129.133C129.418 128.195 129.291 127.399 129.257 126.743C129.014 122.148 129.546 117.647 130.855 113.242C131.001 112.75 131.298 112.173 131.748 111.511C131.793 111.446 131.853 111.413 131.93 111.411L132.423 111.394C132.451 111.392 132.478 111.384 132.502 111.369C132.527 111.355 132.547 111.334 132.562 111.309C133.138 110.343 133.713 108.259 135.294 108.53C135.863 108.628 135.878 108.97 136.055 109.415C136.364 110.189 136.625 110.982 136.838 111.794C136.859 111.868 136.89 111.872 136.931 111.807C136.962 111.759 136.968 111.702 136.949 111.634C136.684 110.662 136.43 109.689 136.188 108.713C135.739 106.913 135.321 104.181 134.631 102.364C133.769 100.097 133.022 97.7921 132.39 95.4494C132.278 95.0333 132.101 94.649 131.859 94.2966C130.989 93.0282 130.158 91.671 129.282 90.5115C127.965 88.7671 126.632 87.0352 125.282 85.316C125.146 85.1442 125.166 84.9354 125.34 84.6896C125.356 84.667 125.365 84.64 125.365 84.6122C125.366 84.5844 125.357 84.5571 125.342 84.5341L113.962 67.0416C113.931 66.9942 113.892 66.9831 113.843 67.0083L113.779 67.0416C113.711 67.0771 113.648 67.0682 113.591 67.0149C113.48 66.9113 113.364 66.8972 113.243 66.9727C113.177 67.0127 113.116 67.0897 113.06 67.2037C111.775 69.7641 110.296 72.206 108.622 74.5295C108.217 75.0922 107.515 76.2569 106.516 78.0235C106.024 78.8943 105.013 80.5417 103.486 82.9659C102.823 84.0173 102.157 84.9591 101.486 85.7913C100.251 87.324 98.9285 88.699 97.818 90.436C97.2783 91.2801 96.8137 91.9487 96.4244 92.4418C95.6014 93.4814 94.7557 94.5017 93.887 95.5027C93.8737 95.5161 93.0626 96.4742 91.4536 98.3771C90.0128 100.082 88.4384 101.655 86.7307 103.097C86.2985 103.463 85.6356 103.926 84.7419 104.486C83.3807 105.339 82.1279 106.334 80.9834 107.473C80.7578 107.698 80.4997 107.763 80.2092 107.669C80.173 107.657 80.1404 107.636 80.1141 107.609C80.0879 107.581 80.0689 107.547 80.0588 107.51C80.0487 107.473 80.0479 107.435 80.0564 107.397C80.0649 107.359 80.0824 107.325 80.1074 107.295C80.4171 106.938 80.6981 106.614 81.1206 106.354C82.9589 105.223 84.3061 103.546 85.9365 101.92C86.4497 101.409 87.3169 100.601 88.538 99.4966C90.8092 97.4456 92.9055 95.2243 94.8272 92.8328C96.1036 91.2446 98.4728 88.9389 99.9616 86.7132C101.925 83.7737 103.886 80.8342 105.846 77.8947C106.368 77.1099 106.851 76.2569 107.295 75.3358C108.264 73.3204 109.284 71.3316 110.357 69.3695C110.626 68.8778 110.837 68.3847 110.987 67.8901C111.308 66.8283 111.434 65.7177 112.228 64.8936C112.265 64.8549 112.313 64.829 112.366 64.8199C112.419 64.8108 112.473 64.8189 112.521 64.843C112.569 64.8671 112.607 64.906 112.632 64.9539C112.656 65.0017 112.664 65.0561 112.655 65.1091C112.529 65.8998 112.082 66.2841 111.894 66.9461C111.573 68.0834 111.33 68.8016 111.166 69.1007C110.439 70.4349 109.708 71.7677 108.974 73.099C108.953 73.136 108.942 73.1671 108.941 73.1923C108.941 73.2767 108.968 73.2767 109.023 73.1923C110.545 70.8733 111.747 68.7149 112.629 66.7173C112.807 66.3145 112.994 66.0154 113.19 65.8199C113.236 65.774 113.241 65.7236 113.206 65.6688L110.58 61.5439C110.534 61.4729 110.493 61.4758 110.456 61.5528L110.113 62.2636C110.081 62.3317 110.082 62.3999 110.115 62.468C110.263 62.7582 110.256 63.0537 110.093 63.3543C107.06 68.9874 103.652 74.3821 99.8709 79.5385C99.6836 79.7961 99.4506 80.1375 99.1719 80.5625C98.6011 81.4332 97.9375 82.2595 97.4353 83.1258C95.4989 86.4725 93.1902 89.5283 90.509 92.293C90.0607 92.755 89.3056 93.5643 88.2438 94.7208C87.4341 95.602 86.6259 96.3639 85.8192 97.0065C84.5966 97.9824 83.5695 98.9716 82.7377 99.9742C82.4413 100.332 82.0497 100.558 81.7002 100.865C81.6716 100.89 81.6371 100.908 81.5997 100.917C81.5623 100.926 81.5231 100.925 81.4856 100.916C81.3027 100.87 81.2061 100.76 81.1958 100.587C81.1899 100.503 81.2246 100.441 81.2998 100.401C81.5992 100.247 81.7813 100.136 81.8462 100.067C83.3313 98.5407 84.7862 96.9843 86.2108 95.3983C88.945 92.353 91.7478 89.3387 94.1967 86.029C95.7054 83.9869 97.2333 81.9596 98.7803 79.9472C99.5118 78.9965 100.186 78.008 100.802 76.9818C101.975 75.0285 102.765 73.7543 103.174 73.159C104.575 71.1124 105.714 69.2999 106.591 67.7213C106.873 67.2163 107.318 66.3056 107.925 64.9891C108.35 64.0695 108.804 63.161 109.286 62.2636C109.324 62.1926 109.311 62.1318 109.246 62.0815C108.034 61.1708 107.203 60.4363 106.753 59.878C106.311 59.3293 105.755 58.8829 105.441 58.5408C104.258 57.2524 103.056 55.833 101.955 54.618C99.4447 51.8473 97.2937 49.3321 95.5019 47.0723C94.5949 45.9284 93.7808 44.409 92.8738 43.254C91.871 41.979 90.8409 40.7254 89.7834 39.4934C88.9627 38.536 88.3168 37.4454 87.5934 36.3991C87.5492 36.334 87.5093 36.3377 87.4739 36.4102C87.2394 36.9011 87.12 37.5809 87.005 37.9207C86.3797 39.7555 85.4395 41.397 84.1844 42.8453C82.7908 44.4557 81.6891 46.226 80.2357 47.8032C80.1863 47.8572 80.1507 47.9212 80.1318 47.9897C80.089 48.1452 80.013 48.2704 79.9039 48.3651C78.7329 49.3914 77.4263 50.3746 75.9839 51.315C75.6315 51.546 75.0902 51.7215 74.3602 51.8414C73.8942 51.9184 73.454 52.0413 73.0395 52.2102C71.1437 52.9787 69.2435 52.4367 67.2149 52.3745C66.0203 52.3375 64.8442 52.1354 63.6865 51.7681C63.567 51.7296 63.5199 51.7718 63.5449 51.8947L63.671 52.4945C63.6773 52.5282 63.6768 52.5627 63.6695 52.5959C63.6623 52.6291 63.6485 52.6604 63.629 52.6877C63.5169 52.8417 63.3679 52.8876 63.1821 52.8254C63.1504 52.815 63.1226 52.795 63.1024 52.768C63.0822 52.741 63.0707 52.7083 63.0693 52.6744L63.0428 51.7881C63.0407 51.7393 63.0219 51.6928 62.9896 51.6567C62.9572 51.6206 62.9134 51.5971 62.8658 51.5904C61.4736 51.3949 60.136 51.0121 58.8529 50.442C58.7497 50.3961 58.718 50.4265 58.7578 50.5331C58.9067 50.9255 58.9606 51.1921 58.9193 51.3327C58.6509 52.2375 58.4031 53.1475 58.176 54.0627C57.9754 54.8786 57.8206 55.8064 57.7114 56.8459C57.4858 58.985 57.3155 60.7065 56.6673 62.6079C56.289 63.7186 55.8952 64.9891 55.8311 66.1597C55.75 67.5843 55.618 69.0045 55.4351 70.4201C55.3555 71.0362 55.326 71.7129 55.3466 72.4504C55.3761 73.5196 55.3311 74.5843 55.2117 75.6446C55.0731 76.8722 54.9949 77.7948 54.9772 78.4123C54.9389 79.7539 54.8924 81.0948 54.8378 82.435C54.8268 82.6904 54.6741 82.8637 54.7206 83.1369C54.8725 84.0225 54.9448 84.9132 54.9374 85.8091C54.9369 85.812 54.9371 85.815 54.9378 85.8179C54.9385 85.8207 54.9398 85.8234 54.9415 85.8258C54.9433 85.8282 54.9455 85.8302 54.948 85.8317C54.9505 85.8332 54.9533 85.8342 54.9562 85.8346C54.9591 85.8351 54.9621 85.8349 54.9649 85.8342C54.9678 85.8335 54.9704 85.8323 54.9728 85.8305C54.9752 85.8288 54.9772 85.8265 54.9787 85.824C54.9802 85.8215 54.9812 85.8187 54.9816 85.8158C55.1497 85.336 55.3488 84.8628 55.5789 84.3964C55.8488 83.8544 55.7581 82.9992 56.6739 83.0103C57.0765 83.017 57.2889 83.2036 57.3309 83.6034C57.6259 86.3341 57.9061 89.0677 58.1716 91.8043C58.2719 92.8439 58.4422 93.7228 58.6826 94.441C58.9466 95.2303 59.2998 96.1513 59.7422 97.2042C59.9966 97.8106 60.0586 98.1394 60.7886 98.2549C61.2192 98.323 61.6543 98.3652 62.0937 98.3815C62.1208 98.3827 62.1471 98.3909 62.1701 98.4054C62.1931 98.4198 62.2119 98.44 62.2248 98.4639C62.2378 98.4878 62.2443 98.5147 62.2438 98.5419C62.2433 98.5691 62.2358 98.5957 62.222 98.6192ZM76.7228 49.3492C77.8363 48.7864 78.7986 48.0268 79.6097 47.0701C79.8176 46.8258 79.794 46.7999 79.5389 46.9924L76.6277 49.1981C76.6103 49.2115 76.5986 49.2308 76.5948 49.2522C76.591 49.2737 76.5954 49.2959 76.6072 49.3145C76.6189 49.3332 76.6372 49.347 76.6585 49.3534C76.6798 49.3598 76.7027 49.3583 76.7228 49.3492ZM65.5602 51.2928C65.3714 51.4631 65.1443 51.5171 64.8789 51.4549C64.8464 51.4475 64.8302 51.4601 64.8302 51.4927C64.8302 51.5119 64.8302 51.5312 64.8302 51.5504C64.8302 51.583 64.8457 51.6 64.8766 51.6015C65.5469 51.646 66.1796 51.7837 66.8521 51.7681C67.824 51.7489 68.6602 51.8266 69.3607 52.0014C71.2543 52.4745 72.1879 51.8659 73.8536 51.3594C73.9185 51.3402 74.1375 51.312 74.5106 51.275C75.0371 51.2195 75.6787 50.6153 76.0127 50.3554C76.5598 49.9304 76.523 49.8712 75.9021 50.1777C74.9973 50.6242 73.8824 50.8485 73.0285 51.1795C72.2277 51.4882 71.2543 51.9969 70.3827 51.9014C69.0481 51.7548 67.7274 51.5304 66.4207 51.2283C65.4053 50.9951 64.8368 50.4198 63.6002 50.6353C63.5117 50.6501 63.5014 50.6864 63.5693 50.7441C64.1356 51.2239 64.7749 51.3616 65.4872 51.1573C65.5042 51.1518 65.5224 51.1525 65.5387 51.1592C65.5551 51.1659 65.5687 51.1781 65.5772 51.194C65.5857 51.2098 65.5887 51.2282 65.5856 51.2462C65.5825 51.2642 65.5735 51.2806 65.5602 51.2928ZM62.4167 50.7996C62.781 51.0928 63.202 51.2365 63.6799 51.2306C63.8111 51.2306 63.8296 51.1847 63.7352 51.0929C63.2721 50.6516 62.7095 50.4324 62.0473 50.4354C62.0324 50.4359 62.018 50.4414 62.0065 50.4509C61.9949 50.4604 61.9868 50.4734 61.9833 50.488C61.9798 50.5026 61.9811 50.5179 61.987 50.5317C61.993 50.5454 62.0033 50.5568 62.0163 50.5642L62.2154 50.6686C62.2862 50.7056 62.3533 50.7493 62.4167 50.7996ZM124.557 62.3303C125.769 63.0277 126.523 63.9718 127.098 65.2135C127.134 65.289 127.173 65.2912 127.216 65.2201L128.107 63.7519C128.142 63.6926 128.138 63.6364 128.094 63.5831L125.806 60.8265C125.77 60.7827 125.724 60.7483 125.671 60.7264C125.619 60.7044 125.562 60.6954 125.505 60.7002C125.448 60.705 125.394 60.7234 125.346 60.7539C125.298 60.7844 125.258 60.826 125.229 60.8753L124.503 62.1326C124.455 62.217 124.472 62.2829 124.557 62.3303ZM125.972 66.4107C126.052 66.5055 126.123 66.4988 126.185 66.3907C126.273 66.2308 126.409 66.1516 126.592 66.1531C126.66 66.1546 126.682 66.1227 126.66 66.0576C126.233 64.8388 125.506 63.8429 124.479 63.0699C124.458 63.0546 124.435 63.0439 124.41 63.0384C124.384 63.033 124.359 63.0331 124.334 63.0385C124.309 63.044 124.285 63.0548 124.265 63.0702C124.245 63.0856 124.228 63.1052 124.216 63.1277C123.955 63.6031 123.992 64.0495 124.36 64.4871C124.818 65.0306 125.356 65.6718 125.972 66.4107ZM132.374 67.7679C131.41 66.684 130.631 65.52 129.777 64.3472C129.478 63.934 129.358 63.9814 129.419 64.4893C129.45 64.7411 129.537 65.1268 129.68 65.6466C130.062 67.0327 130.399 68.4299 130.691 69.8382C130.751 70.1247 130.757 70.6711 130.89 71.0576C130.916 71.1288 130.968 71.187 131.036 71.2198C133.036 72.1749 134.918 73.3204 136.684 74.6561C136.905 74.8227 137.27 74.996 137.502 75.0559C137.587 75.078 137.677 75.0727 137.759 75.0407C137.84 75.0088 137.91 74.9518 137.958 74.8778C138.006 74.8038 138.029 74.7166 138.025 74.6286C138.02 74.5406 137.988 74.4562 137.933 74.3873C136.159 72.1513 134.306 69.9448 132.374 67.7679ZM128.979 66.4641C128.799 65.9132 128.735 65.2912 128.541 64.7004C128.511 64.6115 128.468 64.6041 128.41 64.6782C128.022 65.1787 127.823 65.7466 127.813 66.3819C127.811 66.436 127.789 66.4877 127.751 66.5263C127.505 66.7676 127.478 66.989 127.671 67.1904C128.021 67.5569 128.357 67.8412 128.603 68.3055C128.94 68.9408 129.327 69.5516 129.764 70.138C129.866 70.2757 129.903 70.2602 129.875 70.0914C129.664 68.8519 129.365 67.6428 128.979 66.4641ZM136.148 77.5082L137.259 76.1355C137.299 76.0851 137.289 76.0474 137.23 76.0222C136.83 75.8489 136.442 75.6979 136.086 75.4202C134.635 74.2859 133.076 73.3159 131.41 72.5104C131.308 72.46 131.292 72.4807 131.361 72.5726C131.628 72.9191 131.881 73.276 132.12 73.6432C132.3 73.9186 132.591 74.2763 132.994 74.7161C133.505 75.2736 133.896 76.0444 134.235 76.5286C134.676 77.1654 135.098 77.8185 135.502 78.4878C135.575 78.6077 135.64 78.604 135.699 78.4767L136.144 77.5149C136.145 77.5134 136.147 77.511 136.148 77.5082ZM103.238 82.5625C103.242 82.556 103.245 82.5489 103.246 82.5414C103.247 82.5339 103.247 82.5263 103.245 82.5189C103.244 82.5115 103.241 82.5045 103.236 82.4983C103.232 82.4921 103.226 82.4868 103.22 82.4828L103.212 82.4781C103.199 82.47 103.184 82.4673 103.169 82.4707C103.154 82.4742 103.141 82.4834 103.133 82.4963L101.91 84.4533C101.906 84.4597 101.904 84.4669 101.902 84.4743C101.901 84.4818 101.901 84.4895 101.903 84.4969C101.905 84.5043 101.908 84.5113 101.912 84.5174C101.917 84.5236 101.922 84.5289 101.929 84.5329L101.936 84.5376C101.949 84.5458 101.965 84.5484 101.979 84.545C101.994 84.5416 102.007 84.5324 102.015 84.5194L103.238 82.5625ZM96.1125 84.1942C95.5085 85.2627 94.6834 86.2334 93.9445 87.2063C92.4469 89.1788 90.7546 91.0358 89.0888 92.8794C89.0652 92.9046 89.0711 92.9172 89.1065 92.9172C89.1316 92.9172 89.1552 92.9068 89.1773 92.8861C90.8556 91.2986 92.4078 89.5971 93.8339 87.7816C94.0581 87.4973 94.3796 87.0182 94.7984 86.3444C95.2586 85.6025 95.8027 84.9983 96.212 84.2165C96.2356 84.1705 96.2216 84.1506 96.17 84.1565C96.1449 84.1594 96.1257 84.172 96.1125 84.1942ZM45.81 87.2485C46.0032 87.1611 46.1691 87.0345 46.3077 86.8687C46.4021 86.7576 46.3822 86.7302 46.248 86.7865C46.0209 86.8798 45.8424 86.9834 45.7126 87.0974C45.6966 87.1119 45.6862 87.1317 45.6833 87.1532C45.6804 87.1747 45.6853 87.1965 45.6971 87.2147C45.7088 87.2329 45.7266 87.2463 45.7473 87.2525C45.768 87.2587 45.7902 87.2573 45.81 87.2485ZM97.4575 90.4982C97.4588 90.494 97.4589 90.4896 97.4577 90.4854C97.4565 90.4812 97.4541 90.4774 97.4508 90.4745C97.4475 90.4717 97.4434 90.4699 97.4391 90.4694C97.4348 90.4688 97.4304 90.4696 97.4265 90.4716C96.6655 91.0269 96.0572 91.9731 95.6081 92.4707C94.5883 93.5947 93.5928 94.9185 92.6504 95.9181C91.1756 97.4804 89.6374 98.9768 88.0358 100.407C86.6178 101.676 85.4188 102.924 84.1336 104.221C84.1235 104.231 84.1174 104.244 84.1164 104.258C84.1154 104.272 84.1196 104.285 84.1282 104.296C84.1369 104.307 84.1492 104.314 84.1629 104.316C84.1766 104.319 84.1906 104.316 84.2021 104.308C85.5427 103.506 86.7218 102.637 87.8987 101.493C89.3985 100.034 90.9559 98.5703 92.2102 96.8888C93.3738 95.3317 94.94 94.0434 96.0372 92.4196C96.4553 91.8021 97.077 91.2601 97.4575 90.4982ZM131.273 92.6084C131.267 92.6069 131.263 92.6092 131.262 92.6151C131.241 92.6832 131.254 92.7373 131.301 92.7772C131.332 92.8024 131.374 92.8106 131.428 92.8017C131.484 92.7928 131.537 92.7787 131.589 92.7595C131.68 92.7269 131.679 92.7002 131.585 92.6795L131.273 92.6084ZM88.2814 93.9145C88.0262 94.0774 87.8131 94.284 87.6421 94.5343C87.5875 94.6142 87.6015 94.629 87.6841 94.5787C87.9422 94.4202 88.1413 94.1989 88.2814 93.9145C88.5291 93.7709 88.7209 93.5702 88.8565 93.3126C88.9023 93.2296 88.8875 93.217 88.8123 93.2748C88.6309 93.417 88.3566 93.7502 88.2814 93.9145ZM26.1305 103.102C25.3895 104.341 24.6749 105.698 24.2281 107.08C24.2174 107.107 24.2175 107.138 24.2283 107.165C24.2391 107.192 24.2599 107.214 24.2864 107.227C24.3129 107.239 24.3431 107.241 24.3709 107.232C24.3987 107.223 24.422 107.203 24.436 107.178C24.79 106.616 25.1056 106.026 25.3828 105.407C25.5598 105.011 25.8983 104.513 26.3982 103.915C26.8362 103.393 27.185 102.911 27.4446 102.466C27.8811 101.723 28.3206 100.982 28.763 100.243C29.0152 99.8187 29.3625 99.4833 29.6612 99.1012C29.6654 99.097 29.6688 99.0921 29.6711 99.0866C29.6734 99.0812 29.6745 99.0754 29.6745 99.0696C29.6744 99.0637 29.6732 99.058 29.6708 99.0526C29.6684 99.0472 29.6649 99.0424 29.6606 99.0383C29.6562 99.0342 29.6511 99.031 29.6454 99.0288C29.6397 99.0266 29.6337 99.0255 29.6276 99.0256C29.6215 99.0257 29.6154 99.0269 29.6098 99.0292C29.6042 99.0315 29.5991 99.0348 29.5948 99.039C28.1569 100.287 27.0021 101.642 26.1305 103.102ZM47.4669 101.913L48.9247 101.418C48.9343 101.415 48.9424 101.409 48.9475 101.401C48.9526 101.393 48.9544 101.383 48.9525 101.373C48.9506 101.363 48.9452 101.354 48.9372 101.348C48.9292 101.341 48.9193 101.338 48.9092 101.338C48.3709 101.365 47.8761 101.527 47.4249 101.824C47.4131 101.83 47.4041 101.84 47.3997 101.852C47.3954 101.865 47.3961 101.878 47.4016 101.89C47.4072 101.902 47.4172 101.911 47.4295 101.915C47.4417 101.92 47.4552 101.919 47.4669 101.913ZM41.2949 104.335C41.3141 104.335 41.334 104.335 41.3547 104.335C41.3547 104.335 41.3532 104.329 41.3502 104.319C41.3488 104.316 41.3473 104.313 41.3458 104.31C41.3447 104.306 41.3429 104.303 41.3405 104.3C41.3382 104.297 41.3354 104.294 41.3323 104.292C41.3292 104.29 41.3258 104.289 41.3225 104.289C41.3191 104.288 41.3157 104.289 41.3126 104.29C40.1284 104.712 38.9906 105.236 37.8993 105.863C37.2341 106.245 36.7099 106.525 36.3264 106.705C36.0108 106.853 36.0219 106.884 36.3596 106.798C36.9635 106.642 37.3706 106.231 37.9125 106.038C38.8299 105.714 39.6904 105.28 40.4941 104.737C40.7441 104.568 41.0051 104.559 41.2529 104.35C41.2647 104.34 41.2787 104.335 41.2949 104.335ZM9.41318 108.359C9.91756 107.751 11.2847 109.326 11.5922 109.546C14.9635 111.951 18.0738 114.25 20.8656 117.202C21.1111 117.462 21.3567 117.533 21.6819 117.409C22.7688 116.987 23.8402 116.532 24.8961 116.045C26.6025 115.256 28.3095 114.465 30.0173 113.673C32.5945 112.478 35.0411 111.18 37.5387 109.892C37.7083 109.805 37.698 109.759 37.5077 109.754L34.0965 109.686C34.0095 109.683 33.9358 109.651 33.8753 109.59C33.7205 109.433 33.5332 109.358 33.3134 109.363C33.2191 109.365 33.1453 109.326 33.0922 109.248L32.9883 109.099C32.9666 109.067 32.9339 109.045 32.8967 109.036C32.8594 109.028 32.8202 109.034 32.7869 109.052C30.2312 110.47 28.4998 111.346 27.5928 111.682C26.6725 112.025 23.9361 112.36 23.7082 110.821C23.6477 110.413 23.633 109.472 23.664 107.995C23.6654 107.92 23.6308 107.895 23.56 107.922L23.4759 107.953C23.4037 107.98 23.3292 107.988 23.2525 107.977C22.1803 107.847 21.1067 107.72 20.0316 107.598C18.6586 107.441 17.6631 107.414 17.0452 107.518C16.4184 107.621 15.8735 107.649 15.4104 107.602C14.2092 107.48 12.9991 107.324 11.7957 107.242C11.4609 107.22 11.0546 107.164 10.5768 107.076C9.82317 106.938 8.87194 107.03 7.72309 107.351C7.62723 107.378 7.62133 107.418 7.70539 107.473L9.13445 108.402C9.23916 108.471 9.33207 108.457 9.41318 108.359ZM23.925 108.093L23.9692 108.342C23.9714 108.352 23.9766 108.362 23.9842 108.369C23.9918 108.376 24.0014 108.381 24.0116 108.383C24.0219 108.385 24.0323 108.383 24.0413 108.379C24.0504 108.374 24.0577 108.367 24.0622 108.357C24.1138 108.259 24.1241 108.158 24.0931 108.053C24.0879 108.031 24.0739 108.011 24.0544 107.999C24.0349 107.987 24.0115 107.983 23.9892 107.989C23.9669 107.994 23.9476 108.008 23.9355 108.027C23.9235 108.047 23.9197 108.071 23.925 108.093ZM7.03732 108.624C7.03236 108.619 7.02639 108.616 7.01996 108.615C7.01353 108.613 7.00683 108.614 7.00047 108.615C6.99411 108.617 6.98828 108.62 6.98351 108.625C6.97875 108.63 6.97519 108.635 6.97316 108.642L6.91122 108.844C6.88025 108.944 6.91786 108.992 7.02404 108.986L7.19438 108.977C7.21208 108.976 7.22918 108.97 7.24348 108.96C7.25777 108.949 7.2686 108.935 7.27455 108.918C7.28051 108.901 7.28132 108.883 7.27689 108.866C7.27246 108.849 7.26298 108.833 7.24968 108.821L7.03732 108.624ZM33.6851 108.65L33.6453 108.904C33.6434 108.915 33.6437 108.927 33.6464 108.938C33.649 108.95 33.6539 108.96 33.6607 108.97C33.6674 108.979 33.676 108.987 33.6859 108.994C33.6958 109 33.7068 109.004 33.7183 109.006L33.7492 109.01C34.3529 109.108 34.9355 109.18 35.3699 109.21C35.8043 109.239 36.0552 109.224 36.0676 109.168C36.0722 109.14 36.0176 109.102 35.907 109.057C35.7964 109.013 35.6319 108.962 35.423 108.907C35.2141 108.853 34.9648 108.796 34.6894 108.74C34.414 108.684 34.1178 108.63 33.8178 108.582L33.7868 108.577C33.7754 108.575 33.7636 108.576 33.7523 108.578C33.741 108.581 33.7303 108.586 33.7208 108.593C33.7114 108.599 33.7034 108.608 33.6972 108.618C33.6911 108.628 33.687 108.639 33.6851 108.65ZM8.38453 109.186L8.33143 109.224C8.3231 109.229 8.31638 109.237 8.31181 109.247C8.30725 109.256 8.30498 109.266 8.3052 109.276C8.30542 109.287 8.30811 109.297 8.31306 109.307C8.31801 109.316 8.32507 109.324 8.33365 109.33C9.0703 109.823 9.90207 110.108 10.5967 110.607C11.0155 110.909 11.3407 111.129 11.5723 111.265C12.2536 111.666 12.3038 111.599 11.7227 111.063C10.9374 110.341 9.7605 109.157 8.70087 108.888C8.62123 108.867 8.56298 108.894 8.52611 108.968L8.45974 109.099C8.44204 109.135 8.41697 109.164 8.38453 109.186ZM133.624 110.459C134.781 110.723 134.805 109.808 135.038 108.99C135.044 108.97 135.044 108.948 135.04 108.927C135.036 108.907 135.026 108.887 135.013 108.871C134.999 108.854 134.982 108.841 134.963 108.833C134.943 108.825 134.922 108.822 134.901 108.824C134.186 108.89 133.604 109.892 133.412 110.452C133.409 110.459 133.411 110.462 133.418 110.461L133.54 110.452C133.568 110.45 133.596 110.453 133.624 110.459ZM4.22344 120.152C4.41074 119.683 4.69684 119.552 5.08176 119.759C6.11042 120.312 6.55949 120.141 7.86467 119.919C8.43098 119.823 8.99656 119.724 9.5614 119.624C11.1121 119.346 12.716 119.166 14.2866 118.813C15.4789 118.544 16.5187 118.4 17.6801 118.222C17.7216 118.216 17.7609 118.199 17.7942 118.173C17.8276 118.148 17.8539 118.114 17.8707 118.075C17.8875 118.037 17.8943 117.994 17.8903 117.952C17.8864 117.91 17.8719 117.87 17.8482 117.835C16.9412 116.5 15.959 115.448 14.583 114.463C12.4446 112.937 10.2317 111.528 7.94431 110.236C7.5616 110.021 7.24084 109.726 6.90237 109.437C6.83158 109.376 6.78218 109.391 6.75416 109.481C5.41137 113.822 4.16814 117.296 3.01781 120.452C3.00994 120.473 3.00754 120.496 3.01085 120.519C3.01415 120.541 3.02305 120.563 3.03671 120.581C3.05037 120.599 3.06837 120.613 3.08904 120.623C3.1097 120.632 3.13238 120.636 3.15496 120.634L4.16592 120.559C4.18916 120.557 4.21148 120.549 4.23072 120.535C4.24996 120.522 4.26546 120.504 4.27571 120.483C4.28596 120.462 4.29061 120.439 4.2892 120.415C4.28779 120.392 4.28038 120.369 4.26768 120.35L4.23671 120.303C4.20574 120.254 4.20132 120.204 4.22344 120.152ZM40.3968 110.521C40.3186 110.377 40.2914 110.265 40.3149 110.185C40.3288 110.138 40.3295 110.089 40.3169 110.041C40.3044 109.994 40.2791 109.951 40.2438 109.917C40.2085 109.883 40.1646 109.859 40.1167 109.848C40.0688 109.837 40.0188 109.839 39.9721 109.854C39.1078 110.143 38.3528 110.476 37.7068 110.852C36.0978 111.788 34.4815 112.711 32.8577 113.622C30.9508 114.69 28.3184 115.452 26.135 116.594C24.6882 117.35 23.2009 118.034 21.673 118.644C21.6252 118.663 21.5839 118.695 21.554 118.737C21.5242 118.779 21.507 118.828 21.5047 118.88C21.5023 118.931 21.5149 118.982 21.5409 119.027C21.5668 119.071 21.605 119.107 21.6509 119.13C22.1774 119.395 22.7857 119.459 23.2967 119.741C25.2833 120.839 27.2993 121.88 29.3448 122.864C31.234 123.775 32.9661 124.968 34.8022 126.03C34.8804 126.074 34.9305 126.053 34.9527 125.965C35.2461 124.813 35.5234 123.657 35.7844 122.498C36.2114 120.61 36.7202 119.237 37.6028 117.693C38.2466 116.571 38.616 115.652 39.0407 114.539C39.5296 113.255 40.1889 112.067 40.7485 110.807C40.781 110.735 40.7581 110.696 40.68 110.692C40.6401 110.69 40.6018 110.682 40.5649 110.667C40.4941 110.642 40.4381 110.593 40.3968 110.521ZM10.399 110.974C10.4098 110.954 10.3616 110.903 10.2648 110.831C10.1681 110.759 10.0308 110.672 9.88323 110.589C9.81012 110.548 9.73667 110.51 9.66707 110.476C9.59747 110.442 9.53309 110.413 9.4776 110.391C9.42211 110.369 9.3766 110.354 9.34366 110.347C9.31073 110.341 9.29102 110.342 9.28565 110.352C9.27485 110.371 9.32312 110.423 9.41985 110.495C9.51658 110.567 9.65385 110.654 9.80147 110.737C9.87457 110.778 9.94802 110.816 10.0176 110.85C10.0872 110.884 10.1516 110.913 10.2071 110.935C10.2626 110.957 10.3081 110.972 10.341 110.979C10.374 110.985 10.3937 110.984 10.399 110.974ZM133.642 110.863C133.412 111.02 133.421 111.186 133.668 111.36C133.685 111.373 133.705 111.38 133.725 111.381C133.746 111.383 133.766 111.378 133.784 111.369C133.802 111.359 133.817 111.344 133.827 111.326C133.837 111.308 133.842 111.288 133.841 111.267L133.826 110.954C133.824 110.933 133.818 110.913 133.806 110.895C133.795 110.878 133.779 110.864 133.76 110.854C133.742 110.845 133.721 110.841 133.7 110.842C133.679 110.844 133.659 110.851 133.642 110.863ZM19.3259 116.316C17.4876 114.435 14.9148 112.666 12.696 111.067C12.4881 110.918 12.4571 110.949 12.6031 111.16C13.196 112.024 13.9887 112.798 14.9812 113.484C16.4973 114.531 17.9042 115.523 19.202 116.46C19.8082 116.899 19.8495 116.851 19.3259 116.316ZM24.1086 111.087C24.7855 112.005 25.6881 111.718 26.6548 111.709C26.7477 111.709 26.7499 111.695 26.6615 111.667C26.1055 111.492 25.5192 111.407 24.9028 111.411C24.5179 111.416 24.4095 111.249 24.144 111.052C24.0496 110.982 24.0378 110.994 24.1086 111.087ZM134.312 112.771C134.29 112.832 134.286 112.893 134.301 112.955C134.304 112.964 134.309 112.972 134.317 112.978C134.324 112.984 134.333 112.987 134.342 112.987C134.352 112.987 134.361 112.984 134.369 112.979C134.376 112.974 134.382 112.966 134.385 112.957C134.544 112.447 134.894 112.133 135.002 111.654C135.053 111.434 135.097 111.219 135.135 111.007C135.136 111 135.134 110.993 135.13 110.987C135.126 110.98 135.121 110.976 135.114 110.973C135.107 110.971 135.1 110.971 135.094 110.974C135.088 110.976 135.083 110.981 135.08 110.987C134.803 111.568 134.547 112.162 134.312 112.771ZM129.821 119.861C130.526 117.299 131.346 114.774 132.279 112.284C132.362 112.064 132.389 111.895 132.361 111.778C132.35 111.734 132.327 111.695 132.293 111.665C132.26 111.635 132.218 111.616 132.174 111.61C132.13 111.604 132.085 111.612 132.045 111.632C132.005 111.652 131.971 111.683 131.95 111.722C131.607 112.321 131.343 112.904 131.155 113.473C130.495 115.487 130.045 117.546 129.806 119.65C129.762 120.043 129.62 120.383 129.771 120.839C129.774 120.848 129.782 120.857 129.791 120.862C129.8 120.867 129.811 120.869 129.821 120.867C129.832 120.866 129.841 120.86 129.847 120.852C129.853 120.844 129.856 120.833 129.855 120.823L129.806 120.017C129.803 119.963 129.808 119.912 129.821 119.861ZM136.208 112.702C136.223 112.526 136.158 112.407 136.013 112.347C135.995 112.34 135.975 112.339 135.957 112.344C135.938 112.349 135.922 112.361 135.91 112.376C135.898 112.392 135.892 112.411 135.893 112.431C135.893 112.45 135.9 112.469 135.912 112.484L136.113 112.731C136.119 112.74 136.128 112.746 136.139 112.749C136.149 112.753 136.16 112.753 136.17 112.75C136.181 112.746 136.19 112.74 136.197 112.732C136.203 112.723 136.207 112.713 136.208 112.702ZM19.6334 117.695C18.9808 116.991 18.1335 116.338 17.189 116.012C17.04 115.96 17.0135 115.997 17.1093 116.123L18.4344 117.875C18.462 117.911 18.4984 117.939 18.54 117.956C18.5815 117.973 18.6268 117.979 18.6711 117.973L19.5781 117.851C19.6976 117.836 19.716 117.784 19.6334 117.695ZM37.7172 119.325C37.7303 119.331 37.7685 119.271 37.8235 119.16C37.8785 119.049 37.9458 118.895 38.0105 118.733C38.0752 118.57 38.132 118.412 38.1686 118.294C38.2051 118.175 38.2183 118.106 38.2052 118.1C38.1921 118.095 38.1539 118.155 38.0989 118.266C38.0439 118.377 37.9766 118.531 37.9119 118.693C37.8472 118.855 37.7904 119.013 37.7539 119.132C37.7173 119.25 37.7042 119.32 37.7172 119.325ZM138.947 120.815C138.96 120.812 138.967 120.791 138.969 120.751C138.972 120.712 138.969 120.657 138.961 120.587C138.954 120.518 138.941 120.437 138.924 120.348C138.908 120.259 138.887 120.165 138.864 120.07C138.841 119.975 138.816 119.881 138.79 119.795C138.764 119.708 138.738 119.63 138.713 119.565C138.688 119.5 138.665 119.449 138.645 119.416C138.625 119.382 138.609 119.366 138.596 119.369C138.584 119.372 138.577 119.394 138.574 119.433C138.572 119.472 138.575 119.528 138.582 119.597C138.59 119.666 138.603 119.748 138.619 119.836C138.636 119.925 138.656 120.02 138.679 120.115C138.703 120.21 138.728 120.303 138.754 120.39C138.78 120.476 138.806 120.554 138.831 120.619C138.856 120.684 138.879 120.735 138.899 120.769C138.919 120.802 138.935 120.818 138.947 120.815ZM18.2995 119.83L18.1402 119.566C18.0989 119.498 18.0384 119.469 17.9588 119.479C16.4442 119.681 14.9274 119.872 13.4084 120.052C13.3951 120.054 13.0537 120.087 12.3841 120.152C11.1232 120.274 9.90797 120.585 8.73847 121.087C8.68538 121.111 8.68759 121.127 8.74511 121.136C11.0266 121.508 13.3169 121.809 15.6161 122.04C16.7605 122.154 17.7774 122.324 18.6667 122.549C20.6289 123.044 22.5181 123.711 24.4957 124.019C26.5088 124.336 28.4754 124.67 30.3956 125.019C31.509 125.222 31.5496 125.091 30.5173 124.626C27.9445 123.466 25.1749 121.743 22.3212 120.612C21.9252 120.456 21.5735 120.234 21.1863 120.05C21.1207 120.018 21.0688 119.964 21.0403 119.897C20.943 119.658 20.769 119.593 20.5183 119.701C20.4386 119.735 20.3553 119.745 20.2683 119.73L19.5493 119.606C19.4918 119.595 19.4409 119.61 19.3967 119.65C19.1386 119.886 18.8378 119.986 18.4941 119.952C18.4086 119.945 18.3437 119.904 18.2995 119.83ZM1.90266 121.366C1.90166 121.339 1.86507 121.314 1.80094 121.297C1.73681 121.28 1.65038 121.273 1.56068 121.276C1.51626 121.278 1.47237 121.282 1.43152 121.289C1.39067 121.295 1.35365 121.304 1.32259 121.315C1.29153 121.326 1.26703 121.338 1.25048 121.351C1.23394 121.364 1.22568 121.377 1.22617 121.391C1.22717 121.418 1.26375 121.443 1.32789 121.459C1.39202 121.476 1.47845 121.484 1.56815 121.48C1.61257 121.479 1.65646 121.475 1.69731 121.468C1.73816 121.461 1.77518 121.452 1.80624 121.442C1.8373 121.431 1.8618 121.419 1.87834 121.406C1.89489 121.393 1.90315 121.379 1.90266 121.366ZM2.69926 121.567C2.65501 121.503 2.5916 121.47 2.50901 121.467C2.44412 121.464 2.43675 121.483 2.48689 121.525C2.67419 121.679 2.92047 121.785 3.22575 121.843C4.97336 122.18 6.55728 122.418 7.97749 122.556C8.38748 122.596 8.73405 122.582 9.01721 122.516C9.11602 122.493 9.12855 122.447 9.05481 122.378C8.2341 121.594 7.50408 121.403 6.3073 121.532C5.14075 121.659 3.97052 121.689 2.79659 121.62C2.77713 121.619 2.75834 121.613 2.74152 121.604C2.72471 121.595 2.71029 121.582 2.69926 121.567ZM9.64546 121.898C10.1454 122.407 10.6343 122.327 11.267 122.558C12.0457 122.842 12.8155 122.749 13.6119 122.884C14.1074 122.97 14.5941 123.009 15.0719 123.002C16.4479 122.982 17.7287 123.351 19.1158 123.222C19.1258 123.221 19.1351 123.216 19.142 123.208C19.149 123.201 19.1532 123.191 19.154 123.181C19.1547 123.171 19.152 123.161 19.1463 123.153C19.1405 123.144 19.1321 123.138 19.1224 123.135C17.9027 122.798 16.6853 122.604 15.4701 122.553C14.8551 122.529 14.2512 122.367 13.6052 122.338C13.0301 122.31 12.567 122.262 12.216 122.196C11.3385 122.03 10.4529 121.918 9.55919 121.86C9.55624 121.86 9.55476 121.862 9.55476 121.865V121.869C9.55329 121.878 9.55624 121.882 9.56361 121.88C9.58426 121.88 9.60417 121.883 9.62334 121.887C9.63219 121.888 9.63956 121.892 9.64546 121.898ZM19.6422 123.564L19.9807 123.5C19.9893 123.497 19.9968 123.491 20.0018 123.484C20.0068 123.476 20.0092 123.467 20.0084 123.458C20.0076 123.449 20.0038 123.441 19.9976 123.434C19.9913 123.427 19.983 123.423 19.9741 123.422C19.6658 123.413 19.3805 123.494 19.118 123.664C19.0103 123.732 19.0192 123.755 19.1445 123.733C19.2522 123.715 19.3488 123.684 19.4343 123.64C19.4992 123.604 19.5685 123.579 19.6422 123.564ZM22.8141 124.298C22.8161 124.28 22.7812 124.259 22.7114 124.234C22.6416 124.21 22.5382 124.183 22.4071 124.155C22.2761 124.127 22.12 124.1 21.9477 124.073C21.7754 124.046 21.5903 124.022 21.4029 124C21.2156 123.979 21.0297 123.961 20.8559 123.948C20.682 123.935 20.5237 123.927 20.3898 123.924C20.2559 123.922 20.1491 123.924 20.0756 123.933C20.0021 123.941 19.9632 123.954 19.9612 123.972C19.9592 123.989 19.9941 124.011 20.0639 124.036C20.1337 124.06 20.2371 124.087 20.3681 124.115C20.4992 124.142 20.6553 124.17 20.8276 124.197C20.9999 124.223 21.185 124.248 21.3724 124.27C21.5597 124.291 21.7456 124.309 21.9194 124.322C22.0933 124.335 22.2516 124.343 22.3855 124.346C22.5194 124.348 22.6262 124.345 22.6997 124.337C22.7732 124.329 22.8121 124.316 22.8141 124.298ZM26.0443 124.584C25.9182 124.484 25.781 124.386 25.6085 124.379C25.0171 124.357 24.4316 124.289 23.852 124.175C23.6809 124.142 23.5497 124.19 23.4582 124.319C23.4066 124.39 23.4243 124.43 23.5113 124.439C24.3755 124.524 25.242 124.575 26.1106 124.592L26.1128 124.595V124.597C26.1128 124.6 26.1106 124.601 26.1106 124.601C26.1018 124.601 26.0937 124.601 26.0863 124.599C26.0701 124.599 26.0561 124.594 26.0443 124.584ZM91.5823 125.642C91.6019 125.636 91.6022 125.572 91.5831 125.465C91.5641 125.358 91.5273 125.216 91.4809 125.071C91.4579 124.999 91.4332 124.928 91.4082 124.863C91.3833 124.798 91.3586 124.739 91.3354 124.69C91.3123 124.642 91.2913 124.604 91.2736 124.579C91.2558 124.555 91.2417 124.544 91.232 124.547C91.2125 124.553 91.2122 124.617 91.2312 124.724C91.2502 124.831 91.287 124.973 91.3335 125.118C91.3565 125.19 91.3811 125.261 91.4061 125.326C91.4311 125.391 91.4558 125.45 91.4789 125.499C91.502 125.547 91.523 125.585 91.5408 125.61C91.5585 125.634 91.5726 125.645 91.5823 125.642ZM26.3783 124.686C26.5464 124.735 26.8429 124.717 27.0663 124.672C27.0715 124.672 27.0765 124.67 27.0811 124.667C27.0857 124.665 27.0896 124.661 27.0928 124.657C27.096 124.653 27.0983 124.648 27.0997 124.643C27.101 124.638 27.1013 124.632 27.1006 124.627C27.0998 124.622 27.0981 124.617 27.0954 124.612C27.0928 124.607 27.0892 124.603 27.085 124.6C27.0808 124.597 27.076 124.595 27.0709 124.593C27.0658 124.592 27.0605 124.592 27.0552 124.592L26.3827 124.652C26.3237 124.658 26.3223 124.67 26.3783 124.686ZM136.631 127.822C136.64 127.822 136.648 127.803 136.656 127.767C136.664 127.731 136.671 127.678 136.676 127.611C136.681 127.544 136.685 127.464 136.687 127.377C136.689 127.29 136.69 127.196 136.688 127.101C136.687 127.007 136.683 126.913 136.679 126.826C136.674 126.739 136.667 126.66 136.66 126.593C136.653 126.526 136.644 126.473 136.635 126.437C136.626 126.401 136.617 126.383 136.608 126.383C136.599 126.383 136.591 126.402 136.583 126.438C136.575 126.474 136.568 126.528 136.563 126.594C136.558 126.661 136.554 126.741 136.552 126.828C136.55 126.916 136.549 127.009 136.551 127.104C136.552 127.198 136.556 127.292 136.56 127.379C136.565 127.466 136.572 127.545 136.579 127.612C136.586 127.679 136.595 127.732 136.604 127.768C136.613 127.804 136.622 127.822 136.631 127.822ZM93.7676 128.48C93.4379 127.913 93.0862 127.198 92.604 126.634C92.5037 126.515 92.4816 126.529 92.5376 126.674C93.0906 128.122 93.9438 129.356 95.0971 130.374C95.1605 130.431 95.2342 130.472 95.3183 130.499C95.3994 130.526 95.4783 130.559 95.555 130.599C95.7054 130.679 95.7231 130.656 95.6081 130.53C94.9931 129.859 94.2255 129.275 93.7676 128.48ZM138.843 130.694C138.871 130.363 138.81 130.115 138.801 129.824V129.821C138.805 129.823 138.807 129.826 138.807 129.826C138.742 130.128 138.728 130.418 138.763 130.697C138.763 130.702 138.764 130.707 138.766 130.712C138.769 130.717 138.772 130.721 138.775 130.724C138.779 130.728 138.784 130.731 138.789 130.733C138.794 130.735 138.799 130.736 138.804 130.735C138.809 130.735 138.814 130.734 138.819 130.732C138.824 130.73 138.828 130.727 138.832 130.723C138.835 130.719 138.838 130.715 138.84 130.71C138.842 130.705 138.843 130.7 138.843 130.694ZM135.25 132.596C135.355 132.375 135.377 132.143 135.316 131.9C135.294 131.813 135.25 131.799 135.184 131.858C134.985 132.036 134.861 132.469 135.168 132.625C135.205 132.644 135.232 132.634 135.25 132.596ZM100.402 133.193C99.8267 132.583 98.8895 132.177 97.5902 131.976C97.5855 131.975 97.5806 131.976 97.5763 131.978C97.5719 131.98 97.5682 131.983 97.5656 131.987C97.563 131.991 97.5616 131.996 97.5617 132C97.5617 132.005 97.5632 132.01 97.5658 132.014C97.6293 132.111 97.7214 132.157 97.8424 132.151C97.9161 132.149 97.9803 132.171 98.0348 132.218C98.6764 132.778 99.4123 133.188 100.243 133.449C100.62 133.567 100.673 133.482 100.402 133.193ZM133.943 132.114C133.943 132.109 133.943 132.105 133.943 132.1C133.921 131.986 133.87 131.953 133.792 132C133.707 132.054 133.671 132.131 133.684 132.231C133.685 132.244 133.689 132.255 133.696 132.266C133.702 132.276 133.711 132.285 133.721 132.292C133.731 132.299 133.742 132.304 133.754 132.306C133.766 132.308 133.778 132.308 133.79 132.305C133.882 132.283 133.932 132.219 133.943 132.114ZM136.365 132.511C136.369 132.526 136.378 132.539 136.39 132.548C136.403 132.557 136.418 132.561 136.433 132.559C136.448 132.558 136.462 132.551 136.473 132.541C136.483 132.53 136.49 132.515 136.491 132.5L136.498 132.183C136.499 132.069 136.473 132.061 136.418 132.16C136.358 132.27 136.34 132.387 136.365 132.511ZM101.512 133.164L101.47 133.102C101.466 133.095 101.459 133.09 101.451 133.087C101.443 133.084 101.434 133.084 101.426 133.086C101.417 133.089 101.41 133.094 101.405 133.101C101.4 133.107 101.397 133.116 101.397 133.124L101.373 133.78C101.37 133.854 101.401 133.873 101.466 133.837L101.886 133.609C101.903 133.599 101.918 133.586 101.93 133.571C101.942 133.555 101.95 133.537 101.954 133.517C101.959 133.498 101.959 133.478 101.954 133.458C101.95 133.439 101.942 133.42 101.93 133.404C101.849 133.292 101.739 133.23 101.599 133.218C101.562 133.213 101.533 133.195 101.512 133.164ZM133.049 133.324C132.999 133.264 132.963 133.213 132.941 133.173C132.874 133.047 132.829 133.05 132.806 133.182L132.604 134.233C132.591 134.303 132.603 134.375 132.637 134.437C132.672 134.5 132.726 134.548 132.792 134.574C132.858 134.6 132.931 134.601 132.997 134.579C133.064 134.556 133.121 134.511 133.157 134.451C133.385 134.082 133.382 133.749 133.151 133.451C133.118 133.408 133.084 133.366 133.049 133.324ZM135.137 133.566L135.142 133.213C135.143 133.197 135.138 133.182 135.128 133.169C135.118 133.157 135.103 133.149 135.088 133.148C135.072 133.146 135.056 133.151 135.044 133.161C135.031 133.172 135.024 133.186 135.022 133.202C135 133.327 135.002 133.451 135.029 133.575C135.032 133.588 135.04 133.599 135.051 133.606C135.061 133.614 135.074 133.617 135.087 133.616C135.1 133.615 135.112 133.61 135.121 133.6C135.13 133.591 135.136 133.579 135.137 133.566ZM133.85 134.404C133.839 134.358 133.817 134.321 133.783 134.293C133.778 134.288 133.77 134.285 133.763 134.284C133.755 134.283 133.748 134.283 133.74 134.286C133.733 134.289 133.727 134.294 133.723 134.3C133.718 134.307 133.716 134.314 133.715 134.322C133.687 134.6 133.78 134.82 133.994 134.981C134.005 134.99 134.018 134.994 134.031 134.994C134.045 134.994 134.058 134.99 134.069 134.982C134.08 134.974 134.089 134.963 134.093 134.95C134.097 134.937 134.097 134.923 134.093 134.91C134.04 134.744 133.965 134.588 133.868 134.442C133.86 134.43 133.854 134.417 133.85 134.404ZM132.686 134.968C132.702 134.955 132.7 134.922 132.682 134.877C132.663 134.831 132.629 134.777 132.587 134.725C132.566 134.7 132.544 134.676 132.521 134.655C132.499 134.634 132.477 134.616 132.457 134.603C132.436 134.589 132.418 134.581 132.403 134.577C132.388 134.573 132.376 134.575 132.368 134.581C132.352 134.594 132.354 134.627 132.372 134.673C132.391 134.718 132.425 134.773 132.467 134.824C132.488 134.85 132.51 134.874 132.533 134.895C132.555 134.916 132.577 134.933 132.597 134.947C132.617 134.96 132.636 134.969 132.651 134.973C132.666 134.976 132.678 134.975 132.686 134.968ZM134.613 135.03C134.377 135.012 134.233 135.118 134.182 135.346C134.179 135.361 134.18 135.377 134.186 135.391C134.193 135.406 134.203 135.418 134.216 135.426C134.229 135.435 134.245 135.439 134.26 135.438C134.276 135.438 134.291 135.433 134.303 135.423L134.651 135.157C134.662 135.148 134.67 135.136 134.674 135.122C134.679 135.109 134.679 135.094 134.675 135.081C134.671 135.067 134.663 135.055 134.652 135.046C134.641 135.037 134.627 135.032 134.613 135.03ZM136.21 135.965C136.25 135.981 136.297 135.972 136.342 135.939C136.387 135.906 136.426 135.853 136.451 135.792C136.463 135.761 136.471 135.729 136.475 135.698C136.479 135.667 136.478 135.637 136.473 135.609C136.468 135.582 136.459 135.559 136.445 135.54C136.432 135.521 136.415 135.507 136.396 135.499C136.357 135.483 136.309 135.493 136.264 135.525C136.219 135.558 136.18 135.611 136.155 135.673C136.143 135.703 136.135 135.735 136.131 135.766C136.127 135.798 136.128 135.828 136.133 135.855C136.138 135.882 136.147 135.906 136.161 135.925C136.174 135.944 136.191 135.957 136.21 135.965ZM92.9446 136.339C93.3605 136.645 94.033 137.18 94.4224 136.818C94.4519 136.79 94.4482 136.767 94.4113 136.75L92.0996 135.634C92.0642 135.618 92.0605 135.623 92.0885 135.648C92.3201 135.858 92.6054 136.088 92.9446 136.339ZM137.761 137.189L137.849 137.351C137.885 137.414 137.925 137.417 137.971 137.363C137.993 137.337 138.005 137.302 138.006 137.256C138.006 137.207 137.984 137.154 137.94 137.096C137.713 136.804 137.594 136.468 137.582 136.088C137.581 136.074 137.575 136.06 137.565 136.05C137.556 136.04 137.543 136.033 137.529 136.031C137.515 136.029 137.501 136.032 137.489 136.039C137.477 136.046 137.467 136.057 137.462 136.07L137.135 137.023C137.104 137.113 137.135 137.151 137.228 137.136L137.549 137.085C137.644 137.07 137.715 137.105 137.761 137.189ZM138.929 136.558C138.992 136.51 139.07 136.486 139.149 136.491C139.229 136.496 139.303 136.53 139.36 136.586C139.416 136.642 139.45 136.717 139.455 136.797C139.461 136.876 139.437 136.955 139.389 137.018L139.031 137.496C138.966 137.582 138.971 137.662 139.046 137.738C139.814 138.518 140.524 139.191 141.495 139.748C142.728 140.458 143.98 141.13 145.251 141.765C146.611 142.446 147.924 142.977 149.189 143.358C152.736 144.424 156.37 144.979 160.093 145.022C160.56 145.027 161.126 144.984 161.79 144.89C162.633 144.771 163.202 144.741 163.495 144.802C164.581 145.028 165.67 145.087 166.762 144.979C167.854 144.87 168.406 144.815 168.419 144.815C170.539 144.677 172.436 144.485 174.111 144.237C177.16 143.786 180.114 143.607 182.973 143.7C183.211 143.709 183.68 143.712 184.382 143.711C185.391 143.711 186.464 143.973 187.347 143.742C188.048 143.56 189.178 143.185 189.161 142.278C189.15 141.621 188.302 141.143 187.769 140.848C186.491 140.14 185.236 139.704 184.004 139.539C182.45 139.329 180.891 139.131 179.328 138.946C177.985 138.789 176.611 139.146 175.253 139.215C172.861 139.335 170.612 139.69 168.251 139.713C167.203 139.722 166.059 139.926 164.937 139.904C164.548 139.897 164.241 140.013 163.862 140.095C163.793 140.111 163.721 140.104 163.657 140.075C163.181 139.859 162.834 140.108 162.422 140.117C160.471 140.158 158.52 140.174 156.569 140.164C155.91 140.159 155.193 140.401 154.414 140.281C153.821 140.188 153.417 140.141 153.202 140.139C151.488 140.126 149.792 139.934 148.114 139.564C147.736 139.479 147.286 139.305 146.762 139.04C145.852 138.578 144.774 138.2 143.526 137.907C142.822 137.741 142.025 137.377 141.132 136.814C140.931 136.685 140.851 136.483 140.71 136.292C140.667 136.237 140.607 136.198 140.539 136.181C139.775 135.991 139.042 136.047 138.338 136.347C138.303 136.363 138.274 136.391 138.257 136.426C138.241 136.462 138.238 136.503 138.25 136.541L138.329 136.803C138.335 136.822 138.346 136.84 138.36 136.855C138.374 136.869 138.392 136.88 138.411 136.887C138.43 136.893 138.451 136.895 138.471 136.891C138.491 136.888 138.51 136.88 138.526 136.867L138.929 136.558ZM68.8254 138.373L68.4316 137.065C68.4213 137.028 68.4073 137.026 68.3896 137.061C68.3674 137.102 68.3645 137.146 68.3807 137.192C68.4235 137.316 68.4456 137.385 68.4471 137.398C68.4899 137.746 68.5901 138.082 68.7479 138.404C68.7529 138.413 68.761 138.42 68.7706 138.424C68.7802 138.427 68.7908 138.427 68.8003 138.423C68.8098 138.419 68.8176 138.412 68.8222 138.403C68.8268 138.394 68.8279 138.383 68.8254 138.373ZM146.203 138.509C147.455 139.2 148.786 139.391 150.162 139.644C150.351 139.678 150.558 139.659 150.784 139.586C150.908 139.546 150.906 139.512 150.78 139.484L146.22 138.464C146.215 138.463 146.209 138.464 146.204 138.467C146.199 138.47 146.195 138.474 146.193 138.479C146.191 138.485 146.191 138.49 146.193 138.496C146.194 138.501 146.198 138.506 146.203 138.509ZM136.341 139.451C135.435 139.964 134.564 140.332 133.728 140.555C133.547 140.603 133.319 140.577 133.118 140.637C133.041 140.659 133.042 140.681 133.12 140.703C134.148 140.985 135.695 140.117 136.385 139.513C136.575 139.347 136.56 139.326 136.341 139.451ZM69.5178 140.45L69.0422 139.417C69.0383 139.409 69.0313 139.402 69.0226 139.399C69.0139 139.395 69.0042 139.396 68.9957 139.399L68.9692 139.413C68.9226 139.436 68.903 139.512 68.9146 139.625C68.9261 139.737 68.968 139.878 69.0311 140.015L69.0554 140.07C69.1189 140.208 69.1986 140.332 69.277 140.414C69.3554 140.496 69.4261 140.53 69.4735 140.508L69.5001 140.497C69.5085 140.493 69.5151 140.486 69.5185 140.477C69.5218 140.468 69.5215 140.459 69.5178 140.45ZM118.654 140.965C119.278 141.134 119.884 141.216 120.473 141.212C120.517 141.215 120.561 141.201 120.595 141.171C120.629 141.142 120.65 141.1 120.653 141.055C120.656 141.011 120.642 140.966 120.613 140.932C120.583 140.899 120.542 140.878 120.497 140.874C120 140.797 119.456 140.783 118.865 140.832C118.769 140.84 118.696 140.875 118.646 140.939C118.644 140.941 118.643 140.944 118.643 140.946C118.642 140.949 118.643 140.952 118.644 140.954C118.644 140.957 118.646 140.959 118.648 140.961C118.65 140.963 118.652 140.965 118.654 140.965ZM123.682 141.443C123.681 141.416 123.668 141.391 123.648 141.374C123.629 141.357 123.603 141.348 123.576 141.35L121.943 141.461C121.917 141.463 121.892 141.475 121.875 141.495C121.857 141.515 121.849 141.542 121.851 141.568L121.851 141.581C121.853 141.608 121.865 141.632 121.885 141.65C121.905 141.667 121.931 141.676 121.957 141.674L123.591 141.562C123.617 141.561 123.642 141.548 123.659 141.528C123.676 141.508 123.685 141.482 123.683 141.456L123.682 141.443ZM72.7697 142.689C72.8316 142.603 72.9112 142.423 72.9621 142.32C72.9931 142.254 72.9739 142.231 72.9046 142.252L72.0087 142.531C71.9143 142.561 71.9076 142.603 71.9888 142.658C72.182 142.787 72.3936 142.828 72.6237 142.782C72.6871 142.769 72.7357 142.738 72.7697 142.689ZM104.525 142.671C103.959 142.828 103.388 142.962 102.811 143.073C102.801 143.075 102.795 143.082 102.795 143.093C102.795 143.098 102.789 143.117 102.776 143.151C102.774 143.154 102.774 143.157 102.774 143.161C102.775 143.164 102.776 143.167 102.778 143.17C102.78 143.172 102.783 143.174 102.786 143.175C102.789 143.176 102.792 143.176 102.795 143.176L105.426 142.834C105.446 142.831 105.465 142.821 105.48 142.806C105.494 142.791 105.502 142.771 105.504 142.75C105.506 142.729 105.5 142.709 105.488 142.691C105.476 142.674 105.459 142.662 105.439 142.656C105.153 142.576 104.848 142.581 104.525 142.671ZM88.8344 143.944C88.7135 143.688 88.493 143.517 88.173 143.431C88.0978 143.411 88.018 143.418 87.9469 143.45C87.8758 143.482 87.8177 143.537 87.7822 143.606C87.7468 143.676 87.7362 143.755 87.7521 143.831C87.7681 143.907 87.8097 143.975 87.8699 144.024C88.218 144.313 88.6139 144.369 89.0578 144.193C89.0632 144.191 89.0678 144.188 89.0712 144.183C89.0745 144.178 89.0765 144.173 89.0767 144.167C89.0769 144.161 89.0755 144.156 89.0725 144.151C89.0696 144.146 89.0652 144.142 89.0601 144.14C89.035 144.128 89.0107 144.115 88.9871 144.102C88.921 144.067 88.8675 144.012 88.8344 143.944Z" fill="#151515"/>
<path d="M60.7976 26.4923C62.0649 26.3392 61.6854 27.6807 61.6555 28.3312C61.5543 30.4185 61.7115 32.49 62.127 34.5458C62.1337 34.5799 62.151 34.6112 62.1765 34.6354C62.202 34.6595 62.2346 34.6754 62.2696 34.6808C63.606 34.8834 64.8619 34.6583 66.1638 34.9937C66.2466 35.0147 66.3072 34.9884 66.3455 34.9149C67.2686 33.1908 68.2646 31.5124 69.3334 29.8798C69.7152 29.2968 70.4375 27.4916 71.3092 27.5502C71.9809 27.5952 72.1994 28.329 71.8015 28.8084C71.55 29.1115 71.4189 29.2706 71.4081 29.2856C69.7428 31.8125 68.2293 34.4265 66.8676 37.1275C66.6031 37.6497 66.5663 38.5343 65.6325 38.1516C65.5573 38.1216 65.4922 38.1351 65.437 38.1921L63.3093 40.4024C63.2618 40.452 63.2403 40.512 63.2449 40.5825C63.3016 41.2278 63.3139 41.87 63.2817 42.5092C63.2426 43.3128 63.56 43.6752 64.0822 44.2109C64.4433 44.5777 64.6894 44.6543 65.1908 44.4404C65.6156 44.2604 66.0051 44.0255 66.3593 43.7359C66.7595 43.4073 67.2886 43.1687 67.5922 43.7157C68.1603 44.7263 65.9637 45.7032 65.2736 45.9192C63.7601 46.3964 62.3133 44.6543 61.8579 43.4388C61.8303 43.3638 61.795 43.3608 61.7521 43.4298C61.3266 44.1388 59.9718 45.3318 59.1184 44.5215C58.8409 44.2559 58.8002 43.9618 58.9965 43.6392C59.0349 43.5761 59.0885 43.5311 59.1575 43.5041C60.2095 43.0914 60.8282 42.3382 61.0138 41.2443C61.0153 41.2323 61.0084 41.0514 60.9931 40.7018C60.9869 40.5563 61.0314 40.416 61.1265 40.2809C61.1458 40.2546 61.1556 40.2229 61.1541 40.1909L61.0667 37.6294C61.0636 37.5694 61.0345 37.5274 60.9793 37.5034C59.9511 37.0509 60.786 36.3014 60.7078 35.5992C60.5146 33.9088 60.1719 32.2252 60.1696 30.546C60.1681 29.7507 60.1704 28.9547 60.1765 28.1579C60.178 28.0829 60.1543 28.0746 60.1052 28.1331C59.1506 29.2788 57.8372 30.0801 56.2869 29.9496C55.1484 29.8528 53.881 29.2518 53.3727 28.2007C52.862 27.1428 52.9126 25.2138 53.3037 24.2527C53.4309 23.9421 53.7468 23.7313 54.2513 23.6202C54.3194 23.6043 54.3791 23.5652 54.4192 23.5099C55.1461 22.5038 56.1972 21.7903 57.5152 22.0559C58.9582 22.347 59.9841 23.1971 60.5928 24.6061C60.7324 24.9302 60.7638 25.5244 60.6871 26.3887C60.6795 26.4683 60.7163 26.5028 60.7976 26.4923ZM55.636 26.9042C54.9966 26.7106 54.785 26.1389 54.8747 25.5447C54.8839 25.4832 54.8586 25.4651 54.7988 25.4907L54.502 25.6212C54.4284 25.6527 54.3832 25.7067 54.3663 25.7833C54.1777 26.6904 54.272 27.6627 55.1116 28.2299C55.7955 28.6936 56.5415 28.7971 57.3496 28.5405C58.6178 28.1384 59.3285 27.2411 59.4819 25.8485C59.6222 24.5858 58.6607 23.4649 57.4761 23.1138C56.8666 22.9315 56.7355 22.8662 56.2179 23.2241C55.7288 23.5647 55.5233 23.9631 55.6015 24.4193C55.6092 24.4673 55.5839 24.5453 55.5256 24.6533C55.4612 24.7719 55.4788 24.7846 55.5785 24.6916C55.9465 24.345 56.2187 24.1522 56.3951 24.1131C57.3151 23.9128 58.778 24.5093 58.2536 25.6662C57.7123 26.8562 56.8398 27.2688 55.636 26.9042ZM62.9206 38.7188L64.9999 36.3847C65.0827 36.2932 65.0613 36.2467 64.9355 36.2452L62.7527 36.2159C62.6929 36.2144 62.6699 36.2422 62.6837 36.2992C62.86 37.081 62.906 37.8733 62.8217 38.6761C62.8209 38.6876 62.8237 38.6991 62.8298 38.709C62.8359 38.7189 62.845 38.7267 62.8558 38.7314C62.8666 38.7361 62.8786 38.7374 62.8902 38.7351C62.9018 38.7329 62.9124 38.7272 62.9206 38.7188Z" fill="#151515"/>
<path d="M79.4413 24.3815C79.9133 24.5634 80.2981 24.8494 80.5956 25.2394C80.842 25.5623 80.9749 25.9847 80.9942 26.5066C81.0669 28.4062 80.4586 30.1458 78.7272 31.2429C77.0455 32.3103 75.4636 32.249 73.9812 31.059C73.3736 30.5701 73.1231 29.9007 73.2297 29.0506C73.2379 28.9874 73.2271 28.9236 73.1985 28.8668C73.0242 28.5163 72.9647 28.1473 73.02 27.7598C73.2082 26.4341 73.865 25.4345 74.9902 24.7611C75.5549 24.4237 75.8732 24.2379 75.9452 24.2036C76.7528 23.8221 78.532 24.0316 79.4413 24.3815ZM74.6747 27.4633C74.8428 28.1176 74.4317 28.6751 74.5501 29.4005C74.6892 30.2604 75.5985 30.725 76.4289 30.7368C76.8801 30.7434 77.3535 30.6024 77.849 30.3138C79.3562 29.4374 80.0185 28.0985 79.8358 26.297C79.8067 26.0203 79.7112 25.7982 79.5493 25.6308C78.941 24.9983 78.4303 25.1624 77.6393 24.9884C77.139 24.8777 76.6262 24.8224 76.2629 25.0754C75.4428 25.6447 74.6829 25.8483 74.2823 26.9177C74.1992 27.1391 74.2843 27.2782 74.5376 27.3348C74.5711 27.3418 74.6017 27.3576 74.6259 27.3803C74.6502 27.4031 74.6671 27.4319 74.6747 27.4633Z" fill="#151515"/>
<path d="M76.4268 29.9953C75.4171 30.0632 74.7732 29.389 75.0746 28.0656C75.2941 27.1086 75.7079 26.0996 76.5017 26.0091C77.1385 25.9344 77.7326 26.3213 77.9395 27.1086C78.2374 28.2465 77.3883 29.932 76.4268 29.9953Z" fill="#151515"/>
<path d="M112.431 95.7462C111.703 96.0887 110.856 96.4399 109.859 96.7562C109.043 97.0137 108.273 97.3678 107.55 97.8187C106.986 98.1706 106.505 98.4259 106.109 98.5844C105.364 98.8855 104.669 99.1451 103.934 99.5421C102.853 100.125 101.669 100.6 100.665 101.154C97.1093 103.113 94.7602 104.364 93.617 104.907C92.5382 105.42 91.6157 105.918 90.8497 106.401C90.436 106.661 89.9492 106.922 89.3894 107.182C88.5035 107.592 87.7207 108.188 86.8984 108.62C86.2318 108.969 85.4738 109.419 84.6245 109.97C83.7006 110.569 82.2292 111.409 80.2104 112.49C80.1417 112.526 80.0899 112.578 80.0548 112.647C79.9188 112.9 79.6973 113.017 79.3904 112.998C79.3121 112.993 79.2369 112.966 79.1733 112.921C79.1097 112.875 79.0603 112.813 79.0307 112.741C79.0012 112.668 78.9927 112.589 79.0063 112.513C79.0199 112.436 79.055 112.364 79.1075 112.306C79.6316 111.731 80.5152 111.405 80.9845 111.122C81.7417 110.664 82.5019 110.213 83.265 109.769C83.8395 109.433 85.1486 108.511 86.177 108.015C87.1155 107.564 87.8961 106.927 88.839 106.48C90.1919 105.836 91.3146 105.046 92.6171 104.396C95.312 103.05 97.9609 101.63 100.608 100.197C100.986 99.9901 101.48 99.7501 102.09 99.4767C103.088 99.0294 104.015 98.4731 105.019 98.0805C105.71 97.8099 106.282 97.594 106.945 97.1686C108.355 96.2654 110.146 95.7985 111.35 95.2706C112.299 94.8539 113.231 94.3652 114.196 94.0816C115.339 93.7457 116.497 93.4723 117.669 93.2614C118.829 93.0519 120.193 92.6069 121.41 92.5153C122.618 92.4236 124.294 92.5785 125.701 92.3277C126.228 92.2331 126.751 92.1313 127.271 92.0222C128.157 91.8368 128.252 92.8665 127.464 93.0476C127.437 93.0533 127.409 93.0526 127.381 93.0454C127.21 93.0032 127.036 92.9967 126.859 93.0258C125.257 93.2992 123.642 93.3959 122.013 93.3159C121.5 93.2912 120.737 93.409 119.724 93.6693C119.038 93.8468 118.288 94.0067 117.472 94.1493C115.724 94.4562 114.043 94.9884 112.431 95.7462Z" fill="#151515"/>
<path d="M90.8445 108.531C88.7236 109.721 86.5696 110.984 84.5984 112.409C84.1117 112.758 83.2351 113.197 82.7021 113.854C82.658 113.909 82.6001 113.95 82.5345 113.975C82.4688 113.999 82.3978 114.006 82.3287 113.994C82.2595 113.982 82.1948 113.952 82.1412 113.907C82.0876 113.862 82.0471 113.804 82.0237 113.738C81.8145 113.139 83.0457 112.416 83.4752 112.177C84.3297 111.699 85.1182 111.048 85.9155 110.581C87.0695 109.901 88.0871 109.125 89.3094 108.491C89.979 108.145 90.6243 107.691 91.2762 107.397C92.2908 106.938 93.3003 106.468 94.3046 105.987C94.8479 105.727 95.7729 105.326 97.0797 104.783C98.5223 104.187 99.8305 103.4 101.28 102.788C101.956 102.503 102.718 102.056 103.222 101.808C105.221 100.824 107.07 99.9648 108.77 99.2295C109.658 98.8458 110.843 98.6419 111.561 98.4292C112.922 98.0273 114.279 97.6107 115.633 97.1794C116.675 96.8462 117.932 96.1577 119.199 95.8705C119.877 95.7184 120.449 95.5635 120.915 95.4056C121.701 95.1403 122.492 94.9715 123.28 94.6952C124.747 94.1792 126.115 93.9505 127.383 94.0089C127.987 94.0374 128.332 94.9803 127.533 95.2521C127.452 95.2785 127.376 95.2675 127.304 95.2192L126.859 94.9145C126.819 94.8873 126.771 94.8735 126.722 94.875C125.02 94.9539 123.619 95.4626 122.005 95.8836C121.342 96.0546 120.732 96.3156 120.069 96.4647C119.003 96.7015 117.969 97.034 116.968 97.4623C115.375 98.142 113.898 98.506 112.332 98.9971C111.303 99.3216 109.808 99.576 108.651 100.1C107.171 100.769 104.826 101.848 102.685 102.992C102.007 103.354 101.247 103.617 100.612 103.961C99.335 104.656 98.0238 105.278 96.6788 105.827C95.8052 106.184 94.9668 106.558 94.1636 106.95C93.0536 107.491 91.8709 107.952 90.8445 108.531Z" fill="#151515"/>
</svg>
