<svg width="190" height="118" viewBox="0 0 190 118" fill="none" xmlns="http://www.w3.org/2000/svg">
<path d="M121.823 79.4429C121.249 79.5085 120.702 79.6899 120.133 79.6645C112.834 79.3374 105.534 79.0496 98.2328 78.8011C98.172 78.8001 98.137 78.7689 98.1278 78.7075C98.1248 78.6718 98.1317 78.6405 98.1484 78.6136C98.1591 78.604 98.1721 78.5984 98.1874 78.5968L101.398 78.745C101.432 78.7495 101.466 78.7403 101.493 78.7194C101.521 78.6985 101.538 78.6676 101.543 78.6335C101.547 78.5995 101.538 78.565 101.517 78.5378C101.496 78.5105 101.465 78.4927 101.431 78.4882C100.46 78.2745 99.4435 78.2105 98.3835 78.2961C98.2714 78.3049 98.1854 78.277 98.1257 78.2127C98.0279 78.1055 98.0512 78.0523 98.1957 78.0531C99.5762 78.0419 100.945 77.9399 102.303 77.7473C103.206 77.6195 104.044 77.6047 104.817 77.7028C106.01 77.8558 107.202 78.0201 108.392 78.1956C108.522 78.2159 108.592 78.1603 108.599 78.0288L108.906 72.7382C108.913 72.6118 108.958 72.5003 109.043 72.4037C109.401 71.9945 109.254 71.5636 109.348 71.1961C109.589 70.2207 109.926 69.3093 110.36 68.4618C110.382 68.4177 110.393 68.3686 110.391 68.3193C110.389 68.2701 110.375 68.2222 110.349 68.1802C110.324 68.1383 110.288 68.1037 110.245 68.0798C110.203 68.0559 110.155 68.0435 110.106 68.0437C107.496 68.0407 104.985 68.1157 102.36 67.971C99.5891 67.8178 96.8148 67.7419 94.0373 67.7431C93.8268 67.7436 93.3758 67.8899 92.6844 68.1821C92.5673 68.2337 92.4458 68.2507 92.32 68.2333L88.3043 67.6655C88.2397 67.657 88.1742 67.6651 88.1142 67.689C88.0542 67.7128 88.0017 67.7516 87.9617 67.8016C87.1456 68.8096 86.6015 69.9183 86.3294 71.1278C86.3028 71.2379 86.1421 72.0531 85.8471 73.5733C85.6855 74.4036 85.6095 75.244 85.6192 76.0944C85.6206 76.2467 85.6972 76.3272 85.8489 76.336L88.2116 76.4693C88.2652 76.4723 88.3177 76.4888 88.3644 76.5173C88.4112 76.5459 88.4508 76.5857 88.4799 76.6333C88.6993 76.9885 88.8097 77.1204 89.2554 77.1768C91.3684 77.4414 93.4818 77.6756 95.5956 77.8794C95.6737 77.8891 95.7291 77.9189 95.7617 77.969C95.8197 78.0637 95.7932 78.1065 95.6821 78.0976L94.238 78.0024C94.1014 77.9944 94.0031 78.0509 93.9429 78.1717C93.8657 78.3245 93.7472 78.3785 93.5874 78.3337C93.4201 78.2885 93.3162 78.2647 93.2757 78.2624C90.9029 78.1501 88.5343 78.0101 86.1698 77.8425C86.0461 77.8328 85.935 77.8669 85.8367 77.945C85.5788 78.1532 85.3264 78.131 85.0796 77.8782C85.0366 77.8342 84.9792 77.8073 84.918 77.8023C84.8567 77.7974 84.7957 77.8147 84.7463 77.8512L84.262 78.2037C84.1427 78.2932 84.0102 78.3261 83.8645 78.3024C82.1404 78.0463 79.4484 77.1519 78.2696 78.9367C78.1948 79.0465 78.0986 79.1323 77.9809 79.194C77.4948 79.4448 76.9777 79.5721 76.4296 79.5758C76.3155 79.5743 76.2133 79.6102 76.1229 79.6836C74.3433 81.0847 72.621 82.5475 70.9562 84.0719C67.8005 86.9597 64.9767 90.6963 62.0871 94.1209C61.5757 94.7254 60.5874 95.9948 59.1223 97.9292C57.9729 99.4429 56.8874 100.638 55.8658 101.515C53.3493 103.671 52.0429 105.624 48.9441 106.654C47.8841 107.003 47.1989 106.677 46.8885 105.675C46.6532 104.91 46.4342 103.308 46.2313 100.869C45.9042 97.0101 48.5344 93.5972 50.2089 90.3304C50.5116 89.7392 51.0369 88.4936 51.7847 86.5938C52.9376 83.6659 54.7117 81.1203 56.3607 78.499C56.3666 78.4933 56.3699 78.4855 56.37 78.4773C56.3701 78.4691 56.367 78.4612 56.3613 78.4553C56.3556 78.4494 56.3477 78.446 56.3395 78.4459C56.3313 78.4458 56.3234 78.449 56.3176 78.4547L48.7726 83.7134C48.6617 83.7907 48.5405 83.8471 48.4091 83.8826C47.7701 84.0561 47.2126 84.403 46.7364 84.9233C44.7471 87.1089 42.7542 89.0456 40.7579 90.7334C38.9214 92.286 37.3356 93.7364 36.0004 95.0847C31.8689 99.2464 27.4649 103.094 22.7884 106.628C21.663 107.48 19.2182 109.446 17.9757 107.822C17.9021 107.723 17.8609 107.607 17.8579 107.488C17.8433 106.589 17.929 105.712 18.1148 104.858C18.5617 102.811 19.2584 100.853 20.2049 98.9819C21.1743 97.0671 22.1451 95.151 23.1172 93.2337C24.1722 91.1525 25.5552 88.8583 26.7067 86.6191C28.1711 83.7664 29.7509 81.3579 31.3608 78.7534C31.7088 78.1914 32.2884 77.8369 32.5554 77.293C33.2899 75.8033 34.288 74.0969 35.5495 72.1736C36.0775 71.3696 36.6188 70.3088 37.1736 68.9914C37.2207 68.8775 37.2077 68.7714 37.1347 68.6733C36.6212 67.984 36.6787 67.2884 37.3073 66.5866C38.6184 65.1279 39.7771 63.5614 40.7835 61.8871C41.5878 60.5537 42.207 59.5508 42.6411 58.8784C43.4932 57.5503 44.1938 56.1449 45.2286 54.9492C46.4479 53.5435 47.5774 52.0666 48.6171 50.5186C48.7252 50.3574 48.6831 50.2954 48.4908 50.3324C47.5793 50.504 46.7193 51.1048 46.0434 51.3472C44.3189 51.9626 42.599 52.5871 40.8836 53.2207C38.0038 54.2789 34.6181 55.1365 31.4978 56.2075C30.2819 56.624 28.9263 56.9982 27.4311 57.33C24.194 58.0504 21.1881 59.0734 18.4135 60.399C15.6987 61.699 13.3351 61.9804 10.2184 63.3217C9.02224 63.8358 7.99836 64.1315 7.14675 64.209C5.83901 64.3234 4.53952 64.2493 3.24827 63.9866C3.06763 63.9497 2.90348 63.8553 2.7799 63.7173C2.65633 63.5793 2.57983 63.405 2.56163 63.22C2.4774 62.3424 2.75374 61.591 3.39064 60.9659C6.19599 58.2163 9.4954 56.3186 13.2889 55.2728C15.4111 54.6882 17.3013 53.7704 19.4511 53.1683C20.6574 52.8311 21.7634 52.3207 22.9569 52.0741C26.1084 51.4325 29.2445 50.7265 32.3653 49.9562C32.9467 49.8124 34.0576 49.5927 35.6978 49.2972C37.1933 49.0263 38.6833 48.5191 40.133 48.3178C45.0705 47.625 49.89 46.4459 54.5915 44.7805C54.7107 44.7367 54.8087 44.6638 54.8856 44.5617C55.3553 43.9319 55.9144 43.8032 56.5627 44.1757C56.6878 44.2489 56.8134 44.2486 56.9394 44.1747C58.7556 43.1081 60.6044 42.1156 62.4857 41.1973C62.7232 41.0817 63.0483 40.8507 63.4613 40.5043C63.7729 40.2458 64.1295 40.042 64.5312 39.8928C66.8429 39.0325 69.1973 38.3129 71.5944 37.734C72.2065 37.5869 72.9897 37.4636 73.944 37.3642C74.7349 37.2833 75.5225 37.173 76.3066 37.0333C77.0497 36.9013 77.9906 37.0599 79.1291 37.509C79.1608 37.5215 79.1948 37.5276 79.2289 37.5269C79.263 37.5263 79.2966 37.5188 79.3278 37.5051C79.359 37.4913 79.3872 37.4715 79.4107 37.4468C79.4342 37.4221 79.4526 37.393 79.4648 37.3611L80.0124 35.9012C80.0692 35.7523 80.1771 35.6837 80.3362 35.6955L80.4725 35.7072C80.6341 35.7191 80.7029 35.647 80.6789 35.4908C80.3499 33.3053 80.0805 31.1206 79.8706 28.9369C79.6564 26.6946 79.6055 24.9691 79.7178 23.7605C79.7299 23.6369 79.7114 23.5178 79.6621 23.4034C79.5505 23.1381 79.5724 22.8882 79.7278 22.6537C79.8029 22.5388 79.9082 22.4714 80.0438 22.4513C81.5079 22.2192 82.9755 22.1699 84.4466 22.3034C84.4811 22.3064 84.5157 22.3025 84.5486 22.2919C84.5815 22.2812 84.6119 22.2641 84.6381 22.2415C84.6642 22.2189 84.6855 22.1912 84.7008 22.1602C84.716 22.1292 84.7249 22.0954 84.7268 22.0609L84.9839 17.6998C84.988 17.6308 85.007 17.5637 85.0397 17.5029C85.0724 17.4421 85.118 17.3892 85.1732 17.3478C85.2285 17.3065 85.2921 17.2777 85.3596 17.2634C85.4271 17.2492 85.497 17.2499 85.5643 17.2654C85.7896 17.3165 85.9896 17.2786 86.1643 17.1518C86.27 17.0767 86.39 17.0418 86.5241 17.0471C88.7543 17.1689 91.191 17.5385 93.4008 17.2177C94.1578 17.1094 94.9178 17.014 95.681 16.9314C96.092 16.8842 96.6125 16.9195 97.2424 17.0372C97.9653 17.1705 98.6512 17.0847 99.3466 17.3001C100.156 17.5526 100.955 17.8323 101.741 18.1392C102.337 18.3716 102.849 18.2681 103.485 18.3888C103.552 18.4022 103.611 18.4408 103.649 18.4963C103.688 18.5519 103.703 18.62 103.692 18.6862L102.569 25.9424C102.549 26.0732 102.548 26.205 102.566 26.338C102.72 27.5392 102.618 28.7256 102.259 29.8971C102.219 30.0292 102.267 30.0929 102.404 30.0882C104.909 30.023 107.396 30.1203 109.864 30.3802C109.899 30.3848 110.401 30.4976 111.37 30.7187C112.302 30.9326 113.159 30.5789 113.974 30.6225C117.459 30.8069 120.945 31.0053 124.434 31.2178C125.397 31.2737 126.486 31.432 127.701 31.6928C129.795 32.1415 131.92 31.968 133.404 33.9606C133.491 34.0798 133.565 34.0714 133.626 33.9354L133.793 33.5493C133.91 33.2745 134.023 33.276 134.131 33.5537L134.254 33.8653C134.303 33.9899 134.384 34.0871 134.496 34.1571C135.196 34.5985 135.927 34.9745 136.688 35.285C137.364 35.564 138.418 35.4958 139.181 36.1983C139.285 36.2931 139.405 36.3458 139.541 36.3562L144.658 36.8167C144.924 36.8397 145.056 36.9844 145.056 37.2508C145.058 37.6162 144.979 37.8691 144.819 38.0095C144.693 38.1214 144.464 38.1348 144.131 38.0495C142.639 37.6661 140.488 37.2331 138.92 37.4389C137.608 37.614 136.759 37.4962 135.56 37.3696C135.356 37.347 135.15 37.3999 134.981 37.5183C134.812 37.6367 134.693 37.8125 134.645 38.0128C133.448 42.974 132.129 48.0232 130.689 53.1605C130.488 53.8769 130.302 55.3578 130.13 57.6031C129.973 59.6412 129.634 61.429 129.112 62.9665C128.173 65.7394 125.167 66.8131 122.47 66.474C122.441 66.471 122.412 66.4738 122.385 66.482C122.358 66.4902 122.333 66.5038 122.311 66.5219L121.64 67.0766C121.612 67.0995 121.58 67.1164 121.545 67.1262C121.51 67.1361 121.474 67.1386 121.438 67.1336C121.402 67.1287 121.368 67.1164 121.337 67.0975C121.306 67.0787 121.28 67.0536 121.259 67.024L120.901 66.5047C120.823 66.3911 120.727 66.3716 120.611 66.4461L119.118 67.3983C119.013 67.4638 118.89 67.4927 118.767 67.4807C117.778 67.3954 116.799 67.4641 115.83 67.687C115.704 67.7152 115.612 67.7872 115.555 67.9031C114.811 69.4049 113.898 70.9236 113.436 72.4189C112.91 74.1235 112.618 75.9243 112.56 77.821C112.558 77.8721 112.57 77.9228 112.593 77.968C112.617 78.0133 112.652 78.0517 112.695 78.0792C112.738 78.1067 112.788 78.1225 112.839 78.1249C112.89 78.1273 112.941 78.1163 112.986 78.0931C113.313 77.9268 113.642 77.9117 113.974 78.0476C114.135 78.1128 114.236 78.0615 114.276 77.8939L114.385 77.4398C114.415 77.3223 114.489 77.2758 114.606 77.3004C114.847 77.3524 114.946 77.5104 114.903 77.7743C114.898 77.8049 114.899 77.8362 114.907 77.8662C114.914 77.8962 114.928 77.9241 114.946 77.9482C114.965 77.9723 114.989 77.9919 115.015 78.0059C115.042 78.0199 115.071 78.0279 115.101 78.0293C116.856 78.1501 119.691 78.6114 121.318 78.1579C122.331 77.8742 123.082 77.7198 123.774 78.464C123.927 78.6279 124.012 78.844 124.01 79.0678C124.009 79.2915 123.921 79.5057 123.766 79.666C122.128 81.3708 120.819 83.2318 119.309 85.0202C118.554 85.9049 117.859 86.8882 117.118 87.7394C113.185 92.245 110.002 97.2381 107.571 102.719C107.003 104.002 106.709 105.445 106.688 107.047C106.683 107.362 106.834 107.487 107.142 107.424C107.854 107.279 108.476 107.311 109.126 106.862C112.353 104.639 115.183 101.987 117.616 98.9064C119.73 96.2334 122.323 93.3536 125.397 90.267C127.829 87.823 130.189 84.9221 132.477 81.5641C132.543 81.4639 132.549 81.359 132.495 81.2493C131.56 79.4548 130.542 77.7011 129.44 75.9882C129.168 75.5614 129.172 75.2192 129.297 74.7622C129.324 74.6613 129.381 74.571 129.46 74.5029C129.539 74.4348 129.637 74.392 129.741 74.3801C129.845 74.3681 129.951 74.3876 130.044 74.4358C130.138 74.4841 130.215 74.559 130.266 74.651L133.415 80.3894C133.484 80.5177 133.59 80.5911 133.733 80.6096C134.292 80.6876 134.516 81.0596 134.404 81.7253C134.321 82.2025 134.497 82.5603 134.932 82.7986C135.028 82.8524 135.117 82.8436 135.2 82.7723L135.352 82.6441C135.456 82.5563 135.503 82.5793 135.493 82.7132C135.319 84.6134 137.492 86.4708 138.623 87.8531C139.208 88.5695 139.93 89.5589 140.789 90.8213C142.338 93.1004 144.011 95.2841 145.809 97.3722C147.942 99.8553 149.715 102.785 152.35 104.555C153.756 105.501 154.444 106.717 156.478 106.941C156.546 106.948 156.615 106.938 156.678 106.911C156.741 106.884 156.795 106.841 156.837 106.787C157.143 106.401 157.29 105.88 157.276 105.222C157.245 103.607 157.034 102.153 156.643 100.862C156.144 99.2123 154.856 97.5279 153.897 95.9312C153.739 95.6684 153.415 94.9697 152.925 93.8352C152.623 93.1301 152.182 92.3575 151.604 91.5172C151.007 90.6429 149.942 88.6277 148.408 85.4716C148.095 84.8256 148.027 84.1519 147.941 83.4544C147.933 83.3938 147.907 83.3372 147.866 83.2925C147.825 83.2478 147.771 83.2172 147.712 83.2052C146.975 83.0445 146.915 82.0288 146.607 81.4401C146.513 81.2622 146.454 81.274 146.43 81.4755C146.286 82.6925 146.502 83.8288 147.075 84.8844C147.114 84.9552 147.1 85.0114 147.032 85.0531C147.005 85.0719 146.979 85.0919 146.952 85.1132C146.933 85.1274 146.923 85.1471 146.922 85.1724L146.929 87.4445C146.929 87.5358 146.883 87.5826 146.792 87.5849L145.578 87.5906C145.534 87.5905 145.491 87.5803 145.452 87.5609C145.413 87.5415 145.378 87.5133 145.352 87.4786L142.537 83.7421C142.51 83.7073 142.472 83.6828 142.429 83.6727C142.386 83.6626 142.34 83.6675 142.301 83.6866C142.147 83.7588 142.153 83.9177 142.319 84.1633C142.773 84.8314 143.189 85.486 143.569 86.127C143.581 86.1429 143.587 86.1632 143.585 86.1834C143.583 86.2036 143.573 86.2221 143.557 86.2348C143.541 86.2475 143.521 86.2533 143.5 86.2511C143.48 86.2489 143.462 86.2387 143.449 86.2228C142.69 85.5205 142.17 84.7673 141.892 83.7123C141.324 81.5839 140.922 79.4221 140.688 77.2268C140.506 75.5571 140.397 72.6626 142.191 71.8344C142.311 71.7779 142.371 71.6837 142.371 71.5518C142.361 70.128 142.769 68.8541 143.594 67.7299C143.664 67.635 143.702 67.5202 143.704 67.4015C143.712 67.133 143.737 66.9176 143.779 66.7551C143.813 66.6222 143.895 66.5065 144.009 66.4299C144.123 66.3533 144.261 66.321 144.397 66.3392C144.533 66.3574 144.658 66.4248 144.748 66.5287C144.838 66.6325 144.887 66.7657 144.885 66.903L144.866 68.2338C144.866 68.3226 144.892 68.3317 144.945 68.2611C145.514 67.4849 146.587 66.1836 148.162 64.3571C149.724 62.5426 151.115 60.6052 152.334 58.5449C152.692 57.9378 153.183 57.5288 153.488 56.9148C154.064 55.7635 154.697 54.6459 155.388 53.5622C155.5 53.386 155.456 53.2731 155.256 53.2234L154.922 53.1394C154.846 53.1201 154.778 53.079 154.726 53.0211C154.674 52.9632 154.64 52.8912 154.628 52.8141C154.54 52.1951 154.817 51.785 155.46 51.5838C155.481 51.5775 155.5 51.5646 155.513 51.5471C155.527 51.5296 155.535 51.5082 155.536 51.486C155.537 51.4638 155.53 51.4419 155.518 51.4234C155.506 51.4048 155.488 51.3905 155.468 51.3826C153.886 50.7581 152.665 49.9528 151.411 48.67C149.46 46.677 148.227 45.2888 147.711 44.5055C147.004 43.437 146.444 41.9445 146.031 40.0281C145.704 38.4984 145.636 36.6223 145.423 34.753C145.253 33.2134 145.359 31.549 145.743 29.76C146.127 27.9811 146.495 26.1975 146.848 24.4092C147.095 23.1601 147.706 22.0616 148.049 20.7877C148.087 20.6479 148.18 20.5797 148.327 20.5831L148.911 20.6056C149.058 20.6116 149.163 20.5479 149.226 20.4146L154.67 8.86176C154.696 8.80523 154.737 8.75644 154.788 8.72007C154.838 8.6837 154.897 8.66097 154.959 8.65406C155.455 8.59654 155.783 8.79951 155.944 9.26296C155.994 9.4003 156.079 9.52209 156.19 9.61591C157.505 10.7196 157.755 11.9365 158.246 13.3882C158.659 14.6071 159.556 15.6294 160.089 16.8781C160.143 17.003 160.238 17.0579 160.373 17.0429C162.607 16.7895 164.415 16.822 165.797 17.1407C168.593 17.7874 171.424 18.1851 174.289 18.3335C176.56 18.4501 178.673 19.0749 180.627 20.2081C180.779 20.2975 180.958 20.3287 181.132 20.2962C181.306 20.2636 181.462 20.1694 181.573 20.0309C183.469 17.6649 185.727 15.7258 188.347 14.2137C188.451 14.1534 188.565 14.1142 188.683 14.0982C188.802 14.0822 188.922 14.0898 189.037 14.1205C189.697 14.2958 189.9 14.782 189.646 15.579C188.787 18.3096 187.982 21.056 187.231 23.8181C186.807 25.3715 186.33 26.9762 185.799 28.6324C185.114 30.7655 184.526 32.988 183.718 35.0036C182.128 38.9944 180.664 42.6348 177.596 45.4478C176.502 46.4497 175.35 47.3812 174.142 48.2421C172.754 49.2271 171.2 50.0413 169.482 50.6849C167.463 51.443 165.758 51.9098 164.368 52.0854C162.669 52.3014 160.205 52.1851 156.977 51.7365C156.828 51.7152 156.756 51.7795 156.76 51.9294C156.779 52.7144 156.615 53.4 156.27 53.9863C154.831 56.432 153.156 59.0074 151.243 61.7124C149.819 63.7264 147.925 65.7133 146.303 67.7844C145.601 68.6836 144.73 69.5577 144.936 70.7341C145.439 73.5715 145.839 76.4208 146.137 79.2819C146.162 79.5396 146.388 80.0005 146.815 80.6645C147.115 81.1335 147.353 81.5836 147.529 82.0149C149.169 86.0625 150.565 88.9658 151.718 90.7247C152.408 91.777 152.944 92.7289 153.324 93.5805C153.897 94.8644 154.289 95.6812 154.5 96.0308C155.459 97.6162 156.677 99.2014 157.202 100.864C157.718 102.49 157.908 104.163 157.771 105.882C157.717 106.564 157.355 107.042 156.84 107.404C156.737 107.476 156.621 107.506 156.492 107.494C154.288 107.244 153.499 106.011 151.939 104.939C150.907 104.23 150.017 103.422 149.27 102.516C146.822 99.5531 144.157 96.1563 141.274 92.3259C141.116 92.1188 141.039 92.1448 141.045 92.4039L141.05 92.7695C141.052 92.8332 141.033 92.8953 140.995 92.9462C140.957 92.997 140.903 93.0335 140.841 93.05C140.779 93.0666 140.714 93.0621 140.654 93.0373C140.595 93.0126 140.545 92.969 140.513 92.9134C139.895 91.8349 139.316 90.8728 138.776 90.0272C138.413 89.4543 137.979 89.3302 137.565 88.8458C136.015 87.0308 134.672 85.0654 133.535 82.9497C133.372 82.646 133.188 82.6315 132.982 82.9062C130.926 85.6789 128.622 88.3485 126.071 90.9149C124.018 92.98 122.091 95.1527 120.292 97.4329C118.602 99.5749 117.506 100.926 117.005 101.485C115.769 102.865 114.549 104.109 113.344 105.219C112.918 105.61 112.391 106.022 111.763 106.455C109.898 107.736 108.963 108.846 106.417 108.649C106.294 108.639 106.187 108.591 106.098 108.505C104.386 106.842 106.081 102.431 107.169 100.564C107.663 99.7141 108.013 98.5738 108.533 97.6754C110.486 94.3107 112.576 91.2431 114.804 88.4728C118.081 84.3985 120.446 81.4343 121.899 79.5805C121.984 79.4738 121.958 79.4279 121.823 79.4429ZM161.455 19.6781C161.33 19.9143 161.145 19.9987 160.9 19.9313C160.783 19.8991 160.716 19.8229 160.7 19.7028C160.642 19.2529 160.541 18.8221 160.398 18.4104C160.369 18.3276 160.329 18.2708 160.278 18.2399C160.192 18.1892 160.1 18.1941 160.003 18.2544C159.955 18.284 159.919 18.3308 159.903 18.3856C159.887 18.4403 159.892 18.499 159.918 18.55C160.179 19.0751 160.263 19.6305 160.169 20.2161C160.159 20.276 160.131 20.3315 160.089 20.3751C160.047 20.4187 159.992 20.4482 159.932 20.4597C159.873 20.4712 159.811 20.4641 159.756 20.4393C159.7 20.4146 159.654 20.3734 159.622 20.3214L159.269 19.7149C159.256 19.6919 159.236 19.6738 159.212 19.6631C159.188 19.6524 159.162 19.6497 159.136 19.6555C159.11 19.6613 159.087 19.6752 159.07 19.6952C159.053 19.7152 159.043 19.7402 159.042 19.7664C158.987 20.3289 159.102 20.8645 159.387 21.3732C159.458 21.5035 159.48 21.6551 159.449 21.8C159.417 21.945 159.334 22.0736 159.215 22.1622C159.096 22.2507 158.949 22.2932 158.801 22.2819C158.653 22.2705 158.514 22.2061 158.41 22.1004C158.098 21.7804 157.973 21.3927 158.035 20.9371C158.036 20.9254 158.033 20.9135 158.026 20.9035C158.02 20.8935 158.01 20.8861 157.999 20.8827C157.988 20.8793 157.977 20.88 157.967 20.8849C157.957 20.8897 157.949 20.8983 157.945 20.909L157.763 21.3056C157.745 21.3452 157.715 21.3785 157.677 21.4014C157.639 21.4242 157.595 21.4356 157.55 21.4341L157.004 21.4024C156.865 21.3943 156.745 21.4394 156.646 21.5376L155.782 22.4046C155.68 22.5052 155.56 22.5414 155.422 22.5131C155.124 22.4527 154.857 22.5044 154.622 22.6683C152.082 24.4566 149.99 26.6577 148.347 29.2718C148.016 29.8005 147.488 30.1124 146.968 29.637C146.927 29.6016 146.895 29.5554 146.873 29.4983C146.838 29.4024 146.82 29.3455 146.818 29.3277C146.801 29.0527 146.769 29.0508 146.723 29.3222C145.965 33.8014 146.284 38.1287 147.681 42.3043C147.946 43.0908 148.36 43.8239 148.925 44.5036C151.21 47.2542 153.615 50.3162 157.365 50.8724C158.909 51.1015 160.555 51.216 162.303 51.2159C163.858 51.2148 165.376 51.0036 166.859 50.5822C168.481 50.1207 170.07 49.5597 171.627 48.8991C171.752 48.8455 171.812 48.75 171.807 48.6128C171.772 47.4996 173.947 45.198 175.021 44.0388C176.051 42.9304 177.027 42.5684 178.46 42.8608C178.58 42.8855 178.677 42.8493 178.751 42.7521C180.715 40.1415 181.828 37.3141 183.089 34.031C183.742 32.3222 184.204 30.3779 184.78 28.5467C186.091 24.3799 187.102 20.0777 188.323 15.9056C188.389 15.6786 188.321 15.6277 188.118 15.753C185.893 17.1384 183.937 18.8476 182.251 20.8808C181.25 22.0898 179.621 20.8994 178.548 20.4414C175.502 19.1497 171.858 19.4635 168.616 18.872C166.256 18.4408 163.772 18.194 161.163 18.1314C161.088 18.1296 161.015 18.1498 160.952 18.1895C160.888 18.2292 160.838 18.2867 160.808 18.3548C160.777 18.4228 160.767 18.4984 160.779 18.5722C160.791 18.6459 160.825 18.7144 160.875 18.7692L161.413 19.3522C161.503 19.4513 161.518 19.5599 161.455 19.6781ZM159.383 16.5935L159.492 16.9499C159.55 17.1334 159.604 17.1328 159.656 16.948C159.713 16.7408 159.654 16.5953 159.479 16.5116C159.385 16.4656 159.353 16.4929 159.383 16.5935ZM151.974 17.3396C152.201 17.1548 152.324 16.9172 152.346 16.6267C152.349 16.5998 152.342 16.5728 152.327 16.5505C152.311 16.5282 152.288 16.5121 152.262 16.5051C152.236 16.4981 152.208 16.5006 152.184 16.5122C152.159 16.5238 152.14 16.5438 152.129 16.5684L151.469 17.9914C151.459 18.0055 151.455 18.0229 151.458 18.0398C151.461 18.0568 151.471 18.0718 151.485 18.0817C151.499 18.0916 151.516 18.0955 151.533 18.0926C151.55 18.0897 151.565 18.0801 151.575 18.066C151.689 17.9433 151.761 17.8016 151.793 17.6411C151.816 17.5181 151.876 17.4176 151.974 17.3396ZM155.682 19.229L155.577 19.6795C155.566 19.718 155.572 19.7566 155.593 19.7869C155.614 19.8172 155.648 19.8366 155.687 19.8409C155.727 19.8452 155.769 19.8341 155.804 19.8099C155.839 19.7857 155.865 19.7505 155.875 19.7121C155.925 19.5475 155.912 19.3806 155.836 19.2113C155.77 19.0654 155.719 19.0713 155.682 19.229ZM150.463 20.3418C150.608 20.0001 150.832 19.7581 150.964 19.431C151.059 19.2005 151.027 19.1809 150.869 19.3721C150.561 19.7399 150.347 20.1537 150.227 20.6135C150.205 20.6934 150.221 20.7032 150.275 20.6429C150.351 20.5585 150.414 20.4581 150.463 20.3418ZM98.3352 21.8116L99.0031 23.8367C99.0202 23.8848 99.0543 23.925 99.099 23.9497C99.1438 23.9744 99.1959 23.9819 99.2458 23.9707C99.2956 23.9596 99.3395 23.9305 99.3694 23.8891C99.3992 23.8477 99.4129 23.7968 99.4078 23.746L99.3583 23.3474C99.3505 23.2709 99.3712 23.1959 99.4159 23.1376L102.367 19.3019C102.414 19.2412 102.402 19.1948 102.333 19.1629C101.008 18.5609 99.6365 18.13 98.2182 17.8701C97.3423 17.7077 96.192 17.6866 94.7672 17.8069C92.4987 18 90.2227 18.0595 87.939 17.9854C87.8024 17.98 87.675 17.9447 87.557 17.8795C87.0897 17.6241 86.6478 17.6568 86.2312 17.9776C86.1436 18.0461 86.1273 18.1301 86.1825 18.2297C86.7298 19.2153 87.2966 20.1932 87.8828 21.1633C88.1959 21.6762 88.6039 21.8597 89.1277 22.0803C89.2491 22.1305 89.3696 22.1311 89.4891 22.0822C91.2856 21.3379 92.9346 21.776 94.8061 21.7819C94.9409 21.7822 95.0738 21.748 95.1923 21.6825C95.496 21.5175 95.7801 21.539 96.0446 21.7472C96.0822 21.7763 96.1286 21.7911 96.1754 21.789L98.0969 21.6532C98.2166 21.6449 98.2961 21.6977 98.3352 21.8116ZM86.5546 21.6342L86.9845 21.9674C87.0264 22.0006 87.0786 22.018 87.132 22.0167C87.1854 22.0153 87.2366 21.9952 87.2767 21.96C87.3168 21.9247 87.3432 21.8764 87.3513 21.8236C87.3594 21.7708 87.3487 21.7168 87.3211 21.6711L85.7119 18.9407C85.6426 18.8225 85.604 18.8317 85.5962 18.9682L85.4185 22.2076C85.4156 22.2496 85.4265 22.2914 85.4495 22.3267C85.4725 22.362 85.5063 22.3889 85.5459 22.4032C85.5855 22.4175 85.6287 22.4186 85.6689 22.4062C85.7092 22.3938 85.7443 22.3686 85.7689 22.3345L86.2438 21.6809C86.3319 21.5591 86.4355 21.5436 86.5546 21.6342ZM100.027 23.4927C99.7955 23.818 99.2418 23.9875 99.4017 24.5828C99.5292 25.0595 99.5942 25.3208 99.5966 25.3666C99.6813 26.9012 99.7571 27.9254 99.8241 28.4392C100.259 31.737 100.452 34.4525 100.401 36.5855C100.398 36.7249 100.347 36.8424 100.247 36.9381C100.089 37.0888 100.035 37.2784 100.085 37.5071C100.1 37.5681 100.135 37.6221 100.185 37.6595C100.236 37.697 100.297 37.7155 100.36 37.7119C100.422 37.7082 100.482 37.6826 100.527 37.6396C100.572 37.5965 100.601 37.5388 100.608 37.4766C100.813 35.355 101.06 33.2675 101.347 31.2141C101.831 27.7375 101.867 23.8468 102.637 20.1737C102.661 20.0635 102.639 20.0521 102.57 20.1394C101.677 21.2495 100.83 22.3673 100.027 23.4927ZM147.903 23.9985L147.347 26.4739C147.346 26.4769 147.347 26.4799 147.349 26.4822C147.351 26.4844 147.354 26.4858 147.357 26.486L147.368 26.4904C147.418 26.5015 147.474 26.4835 147.532 26.4374C147.591 26.3913 147.651 26.318 147.71 26.2218C147.768 26.1255 147.824 26.0081 147.873 25.8764C147.923 25.7446 147.965 25.601 147.998 25.4539L148.055 25.1946C148.121 24.8988 148.145 24.6064 148.122 24.3812C148.099 24.1559 148.029 24.0162 147.93 23.9925L147.919 23.988L147.913 23.9872L147.908 23.989L147.904 23.9931L147.903 23.9985ZM90.3831 22.6821C87.8906 23.022 85.3961 23.0866 82.8996 22.8758C82.2786 22.8245 81.8077 23.075 81.1079 23.004C81.079 23.0001 81.0496 23.0052 81.0238 23.0188C80.998 23.0323 80.9771 23.0536 80.9639 23.0796C80.9507 23.1056 80.9459 23.135 80.9502 23.1638C80.9545 23.1927 80.9677 23.2195 80.9878 23.2405C82.2427 24.5818 83.3924 26.0108 84.4369 27.5275C84.7928 28.0454 85.2411 28.5014 85.7816 28.8955C86.8506 29.6729 87.8396 30.5421 88.7485 31.503C89.5414 32.3405 90.0621 33.2802 90.6017 34.2894C90.6153 34.3149 90.6357 34.3361 90.6607 34.3506C90.6856 34.3652 90.7141 34.3725 90.7429 34.3718C90.7718 34.3711 90.7999 34.3624 90.824 34.3467C90.8482 34.331 90.8675 34.3088 90.8799 34.2828C91.5539 32.8758 92.1117 31.5041 92.9739 30.1994C94.5287 27.8517 95.5126 26.0822 95.9257 24.8911C96.2561 23.9488 96.6155 23.2301 97.004 22.7351C97.0642 22.6574 97.0454 22.6094 96.9475 22.5911C96.1449 22.4329 95.3415 22.4218 94.5373 22.5578C94.0686 22.6371 92.9285 22.5926 91.1169 22.424C90.9655 22.4114 90.8364 22.4725 90.7217 22.5495C90.6187 22.6196 90.5059 22.6638 90.3831 22.6821ZM98.8458 41.6172L99.1223 41.5724C99.2782 41.551 99.3339 41.4642 99.2894 41.3119C98.9788 40.2233 98.8275 39.1212 98.8355 38.0054C98.8458 36.5397 98.8277 35.5937 98.781 35.1673C98.5861 33.431 98.3632 31.6968 98.1123 29.9648C98.0448 29.5042 98.0509 28.864 98.1308 28.0442C98.2085 27.2191 98.1373 26.4007 97.9174 25.5888C97.8796 25.4522 97.8773 25.315 97.9105 25.1774C98.0631 24.5064 98.0189 23.8595 97.7781 23.2367C97.765 23.2036 97.7429 23.1747 97.7145 23.1532C97.686 23.1318 97.6523 23.1187 97.6171 23.1155C97.582 23.1123 97.5469 23.119 97.5158 23.135C97.4846 23.1509 97.4588 23.1754 97.4412 23.2057C97.1476 23.6834 96.8186 24.3797 96.4543 25.2946C95.8087 26.9137 94.7977 28.7349 93.4214 30.7581C92.9935 31.3878 92.6906 32.0932 92.3738 32.775C91.9653 33.6646 92.1581 34.551 91.5542 35.4635C91.482 35.5734 91.4833 35.6839 91.5581 35.7947C93.5323 38.6618 95.2521 41.6751 96.7175 44.8348C97.0566 45.5584 97.6016 46.0733 98.0995 46.6806C98.416 47.0681 98.5044 47.6516 99.0282 48.0055C99.1406 48.0805 99.2082 48.0514 99.231 47.9183C99.3941 46.9955 99.0503 46.2221 99.0802 45.3676C99.1194 44.2385 98.9618 43.1144 98.6073 41.9953C98.5944 41.9547 98.5905 41.9118 98.5959 41.8696C98.6013 41.8273 98.6159 41.7868 98.6386 41.7508C98.6613 41.7148 98.6916 41.6842 98.7274 41.6611C98.7632 41.638 98.8036 41.6231 98.8458 41.6172ZM147.554 28.8414C147.548 28.8764 147.555 28.9121 147.572 28.9428C147.59 28.9735 147.617 28.9973 147.65 29.0103C147.683 29.0233 147.72 29.0247 147.753 29.0143C147.787 29.0038 147.816 28.9822 147.836 28.9529L148.681 27.6244C148.756 27.5045 148.723 27.4493 148.58 27.4587L147.984 27.4965C147.926 27.4996 147.87 27.5226 147.826 27.5615C147.783 27.6005 147.754 27.6531 147.744 27.7109L147.554 28.8414ZM84.4887 47.3065C84.4294 46.126 84.605 45.228 85.0156 44.6125C86.7904 41.9656 88.5007 39.2704 90.1465 36.5272C90.174 36.4813 90.1905 36.43 90.1948 36.3775C90.1992 36.3249 90.1912 36.2724 90.1715 36.2242C90.0249 35.8605 90.0349 35.5072 90.2017 35.1643C90.259 35.0484 90.2489 34.9374 90.1712 34.8315C89.4119 33.8056 89.0133 32.7931 88.055 31.9194C87.2484 31.1877 86.6692 30.4729 85.7291 29.8133C84.7027 29.0891 83.8828 28.2361 83.2693 27.2543C82.4446 25.9304 81.5312 24.8272 80.5291 23.9445C80.4348 23.863 80.3803 23.8852 80.3654 24.0111C80.223 25.3931 80.1939 26.3668 80.2782 26.9323C80.5195 28.5674 80.7264 30.2055 80.8988 31.8467C81.0415 33.2097 81.269 34.8414 81.5813 36.7419C81.7917 38.0301 81.96 39.3235 82.0861 40.6221C82.1524 41.2804 82.2867 42.4577 82.4889 44.1539C82.6269 45.3339 82.7126 46.5186 82.746 47.7077C82.7493 47.8272 82.8087 47.8978 82.9241 47.9198C84.0196 48.1457 85.0917 48.4489 86.1403 48.8293C87.0013 49.1419 87.8273 48.9348 88.7085 49.4274C88.815 49.486 88.9351 49.5165 89.0572 49.5161C90.6417 49.4862 92.1961 49.6487 93.7205 50.0035C95.4653 50.4067 96.3453 50.6099 96.3603 50.6133C97.3308 50.8066 98.3035 51.0076 99.2782 51.2164C99.366 51.2342 99.4073 51.1985 99.4023 51.1094L99.3118 49.3652C99.3091 49.3252 99.2942 49.286 99.2688 49.2523C97.9649 47.5709 96.7075 46.0747 95.7164 44.1108C94.4517 41.6122 93.0274 39.1525 91.4436 36.7318C91.2454 36.4286 91.0524 36.4313 90.8648 36.7401C89.8224 38.4681 88.6433 40.192 87.6161 41.9856C86.6101 43.7423 85.4026 44.6312 85.1717 46.8058C85.1328 47.1765 84.9781 47.3971 84.7077 47.4677C84.5687 47.5027 84.4957 47.449 84.4887 47.3065ZM108.567 54.6511C107.702 54.4665 106.861 54.4913 106.044 54.7254C105.92 54.7614 105.839 54.8404 105.802 54.9626L105.732 55.1868C105.726 55.209 105.728 55.2326 105.737 55.2536C105.746 55.2745 105.763 55.2916 105.783 55.3018C105.804 55.312 105.828 55.3147 105.85 55.3095C105.872 55.3042 105.892 55.2913 105.906 55.273L105.981 55.167C106.009 55.1264 106.049 55.0946 106.094 55.0751C106.14 55.0555 106.189 55.049 106.238 55.0563C106.995 55.1878 108.152 55.3843 108.567 54.6511C109.303 53.9708 109.763 53.2973 109.946 52.6306C110.24 51.5644 110.756 50.8549 111.494 50.5019C111.553 50.4727 111.62 50.4645 111.684 50.4786C111.748 50.4927 111.806 50.5283 111.847 50.5795L112.046 50.8232C112.134 50.9323 112.223 50.9349 112.312 50.831C112.472 50.65 112.607 50.5513 112.717 50.5349C114.271 50.28 115.833 50.0878 117.403 49.9581C118.611 49.8583 119.808 49.6664 120.994 49.3825C122.948 48.915 124.833 48.5068 126.649 48.1581C126.903 48.1094 126.964 48.1954 126.832 48.4161C125.019 51.4388 123.82 54.0557 122.618 57.7609C121.747 60.4476 120.791 62.8504 119.752 64.9692C119.528 65.4256 119.111 65.8809 118.502 66.3351C118.378 66.4268 118.39 66.4897 118.541 66.5238C118.621 66.5437 118.69 66.5274 118.749 66.475C119.639 65.6869 120.621 65.2695 121.697 65.2229C121.821 65.2174 121.934 65.177 122.035 65.1017C123.661 63.8756 124.045 61.8773 124.859 59.4891C124.889 59.3986 124.895 59.3005 124.876 59.2047C124.753 58.6445 124.899 58.2192 125.314 57.9287C125.358 57.8987 125.39 57.8549 125.405 57.8045C125.421 57.7541 125.418 57.7003 125.398 57.652C125.222 57.2232 125.307 56.9706 125.651 56.8942C126.172 56.7798 126.49 56.9708 126.603 57.467C126.618 57.5263 126.62 57.5879 126.609 57.648C126.599 57.708 126.576 57.7653 126.542 57.8162C126.509 57.8671 126.465 57.9105 126.414 57.9437C126.363 57.9769 126.305 57.9993 126.245 58.0094C125.828 58.0815 125.586 58.3961 125.522 58.9529C125.291 60.9259 124.545 63.7785 123.218 65.2274C123.132 65.3239 123.154 65.3797 123.285 65.3949C129.114 66.0527 128.752 59.4866 129.146 55.9249C129.273 54.7552 129.503 53.5115 129.835 52.1939C130.864 48.102 132.066 44.0544 132.926 39.9185C133.162 38.7944 133.759 37.5315 133.521 36.0374C133.498 35.9042 133.453 35.8952 133.386 36.0105C131.576 39.0512 129.868 42.1498 128.262 45.3064C127.636 46.5372 126.718 47.0167 125.45 47.2399C124.166 47.4623 123.514 47.5767 123.494 47.5831C122.555 47.8458 121.619 48.1199 120.684 48.4057C119.468 48.7803 118.131 48.8131 116.842 49.0694C114.83 49.4702 112.799 49.5261 110.748 49.2372C110.7 49.2298 110.651 49.2407 110.61 49.2678C110.57 49.2949 110.54 49.3363 110.527 49.3842L110.469 49.6053C110.463 49.6232 110.452 49.6388 110.437 49.6498C110.421 49.6608 110.403 49.6666 110.384 49.6664C110.365 49.6662 110.347 49.6599 110.332 49.6485C110.317 49.6371 110.307 49.6212 110.301 49.6032C110.06 48.5922 109.995 47.5674 110.108 46.5287C110.12 46.4152 110.097 46.3086 110.039 46.2089C109.893 45.962 109.84 45.6938 109.88 45.4043C109.884 45.3726 109.88 45.3404 109.87 45.3101C109.86 45.2799 109.843 45.2523 109.82 45.2297C109.798 45.2071 109.77 45.1899 109.74 45.1796C109.71 45.1693 109.677 45.166 109.646 45.1701C108.743 45.2927 107.88 45.1691 107.057 44.7992C106.703 44.6391 105.905 44.688 104.663 44.9457C104.55 44.9696 104.463 44.9316 104.403 44.8317L103.428 43.1883C103.361 43.0778 103.353 42.9645 103.406 42.8483C103.51 42.6134 103.484 42.3836 103.327 42.1588C103.259 42.0661 103.231 41.9617 103.242 41.8457C103.369 40.511 103.547 39.1831 103.775 37.862C104.06 36.2004 104.78 34.5108 105.252 32.7877C105.287 32.6579 105.369 32.5662 105.496 32.5127C105.938 32.3252 106.173 31.9837 106.201 31.4881C106.211 31.3187 106.14 31.2727 105.989 31.3502C105.471 31.6119 105.13 32.0665 104.963 32.7139C104.767 33.4788 104.324 34.7976 103.633 36.6703C103.153 37.9769 102.912 39.953 102.91 42.5989C102.91 42.8576 102.781 43.1279 102.669 43.3611C102.617 43.4697 102.608 43.5834 102.642 43.702C102.885 44.5406 102.904 45.3941 102.697 46.2624C102.687 46.3022 102.686 46.3437 102.695 46.3838C102.703 46.4239 102.721 46.4615 102.746 46.4938C102.772 46.5261 102.804 46.5522 102.841 46.5701C102.878 46.588 102.918 46.5973 102.959 46.5972L103.252 46.599C103.284 46.5988 103.316 46.6052 103.346 46.6179C103.376 46.6305 103.403 46.649 103.426 46.6724C103.448 46.6958 103.466 46.7235 103.477 46.7538C103.489 46.7841 103.494 46.8165 103.493 46.8489L103.353 50.9505C103.347 51.1024 103.274 51.1489 103.136 51.0901L102.928 51.0019C102.787 50.9405 102.72 50.8352 102.729 50.686C102.773 49.7182 103.312 47.3521 102.153 46.9196C102.049 46.8814 101.958 46.8139 101.894 46.7257L100.428 44.6848C100.275 44.4704 100.195 44.4962 100.188 44.7621L100.052 49.7316C100.05 49.8168 100.08 49.8996 100.136 49.9639C100.191 50.0282 100.268 50.0696 100.351 50.08C100.795 50.1362 101.021 50.37 101.03 50.7815C101.035 50.9264 101.107 51.0168 101.247 51.0528C101.602 51.147 101.866 51.0291 102.04 50.6993C102.056 50.6657 102.084 50.6386 102.117 50.6221C102.151 50.6056 102.189 50.6006 102.226 50.6079C102.263 50.6152 102.296 50.6344 102.321 50.6626C102.346 50.6908 102.36 50.7263 102.363 50.7637C102.396 51.1208 102.555 51.4014 102.84 51.6057C102.966 51.6993 103.037 51.8239 103.051 51.9794C103.149 53.0988 103.378 54.0469 103.736 54.8237C103.879 55.1313 104.129 55.2511 104.488 55.1831C104.637 55.1537 104.668 55.0756 104.581 54.9488L104.154 54.3152C104.079 54.2043 104.036 54.0826 104.026 53.9501C103.968 53.1831 103.897 52.4192 103.811 51.6582C103.707 50.777 103.678 49.9724 103.725 49.2445C103.781 48.3979 103.836 47.5411 103.891 46.6741C103.898 46.5376 103.97 46.4821 104.106 46.5077C105.598 46.8023 107.056 46.6498 108.481 46.05C108.6 46.0011 108.713 46.0128 108.821 46.0849C109.321 46.4361 109.556 46.8988 109.525 47.4729C109.424 49.324 109.315 51.1937 109.197 53.0818C109.187 53.2106 109.123 53.3008 109.006 53.3524C108.525 53.5579 108.379 53.9908 108.567 54.6511ZM111.611 34.9565L109.048 40.1124C108.991 40.2283 109.001 40.338 109.079 40.4415C109.522 41.0278 109.453 41.5362 108.87 41.9667C108.746 42.0584 108.679 42.1801 108.67 42.3318L108.591 43.7808C108.581 43.9553 108.663 44.0399 108.835 44.0347L109.723 44.0177C109.883 44.0143 109.969 43.9318 109.981 43.7701C110.088 42.2086 110.177 40.6422 110.249 39.071C110.279 38.3535 110.65 37.8613 110.716 37.1079C110.728 36.9843 110.767 36.8724 110.834 36.7722C111.23 36.1914 111.489 35.5862 111.611 34.9565L113.172 32.5508C113.177 32.5431 113.179 32.5334 113.178 32.5241C113.176 32.5147 113.171 32.5064 113.163 32.5009C113.155 32.4954 113.146 32.4932 113.136 32.4948C113.127 32.4964 113.119 32.5016 113.113 32.5094C112.52 33.2614 112.019 34.0771 111.611 34.9565ZM80.7786 37.2737C80.7731 37.3698 80.8116 37.4506 80.894 37.5163C80.9764 37.5845 81.004 37.5671 80.9769 37.464L80.6777 36.3774C80.6205 36.1787 80.5722 36.181 80.5327 36.3842C80.4802 36.6374 80.5372 36.8601 80.7037 37.0524C80.7584 37.1165 80.7833 37.1902 80.7786 37.2737ZM81.1789 38.6554L81.1512 38.2086C81.1514 38.1783 81.1396 38.1492 81.1184 38.1276C81.0971 38.106 81.0682 38.0938 81.0379 38.0935C81.0077 38.0933 80.9786 38.1051 80.957 38.1263C80.9355 38.1476 80.9232 38.1765 80.923 38.2067C80.9138 38.3686 80.9237 38.5277 80.9528 38.6841C80.9566 38.7141 80.9722 38.7414 80.9961 38.7599C81.02 38.7784 81.0503 38.7867 81.0803 38.7829C81.1103 38.779 81.1375 38.7635 81.156 38.7396C81.1745 38.7157 81.1827 38.6854 81.1789 38.6554ZM72.2222 38.2651C72.0441 38.1863 71.8615 38.163 71.6745 38.1953C71.6415 38.2042 71.6143 38.2249 71.5981 38.2533C71.5819 38.2817 71.5779 38.316 71.5868 38.3495C71.5958 38.383 71.617 38.4134 71.6464 38.4348C71.6759 38.4563 71.7116 38.4674 71.7466 38.4659L74.7238 38.0982C74.7433 38.0979 74.7626 38.0937 74.7804 38.0859C74.7983 38.0781 74.8145 38.0668 74.828 38.0527C74.8415 38.0387 74.8521 38.0221 74.8593 38.0039C74.8664 37.9858 74.8698 37.9664 74.8694 37.9469C74.8691 37.9274 74.8648 37.9081 74.857 37.8902C74.8492 37.8723 74.8379 37.8562 74.8239 37.8426C74.8098 37.8291 74.7932 37.8185 74.7751 37.8113C74.7569 37.8042 74.7375 37.8007 74.718 37.8011C73.9807 37.7431 73.2555 37.8279 72.5424 38.0554C72.4907 38.0727 72.4528 38.1136 72.4288 38.1782C72.4218 38.1981 72.4106 38.2162 72.3961 38.2316C72.3817 38.2469 72.3641 38.259 72.3447 38.2672C72.3253 38.2754 72.3043 38.2794 72.2832 38.2791C72.2622 38.2787 72.2414 38.274 72.2222 38.2651ZM51.2589 92.0619C51.8452 91.1243 52.4314 90.1867 53.0177 89.2491C53.4198 88.6065 53.5526 87.8797 53.9713 87.2115C54.4491 86.4426 54.7327 85.9619 54.8224 85.7692C56.2365 82.7309 57.8218 79.7824 59.5782 76.9238C59.6957 76.7328 59.6922 76.4167 59.5678 75.9757C59.5362 75.8623 59.4682 75.833 59.3636 75.8878L57.9351 76.6497C57.8835 76.6771 57.8439 76.7225 57.8239 76.7769C57.8039 76.8313 57.805 76.8908 57.8269 76.944C58.1523 77.729 58.1153 78.4423 57.7159 79.0838C55.7865 82.1733 54.5724 84.1755 54.0737 85.0903C53.6231 85.9165 53.1682 87.0178 52.709 88.394C52.2915 89.6407 51.5494 90.7735 51.0809 92.0477C50.9843 92.3161 50.8482 92.5682 50.6723 92.8041C50.4992 93.0376 50.337 93.2781 50.1859 93.5255C50.1497 93.5818 50.1329 93.6315 50.1355 93.6748C50.135 93.6909 50.1399 93.7067 50.1494 93.7198C50.1589 93.7328 50.1725 93.7422 50.188 93.7466C50.2035 93.751 50.22 93.7501 50.2349 93.744C50.2499 93.738 50.2623 93.7271 50.2703 93.7131C50.4952 93.3735 50.753 93.0574 51.0436 92.7648C51.0512 92.7579 51.0609 92.7538 51.0711 92.7531C51.0813 92.7524 51.0914 92.7552 51.0999 92.7609C51.1083 92.7667 51.1146 92.7751 51.1177 92.7849C51.1207 92.7946 51.1205 92.8051 51.1169 92.8147C50.8792 93.3336 50.5792 93.8122 50.2167 94.2503C50.1486 94.3326 50.1039 94.4264 50.0827 94.5317C49.815 95.8861 48.9915 96.9799 48.5659 98.6334C48.527 98.7808 48.3579 99.187 48.0586 99.8521C47.6535 100.749 48.0063 101.565 48.071 102.296C48.1228 102.897 48.2194 103.493 48.3607 104.082C48.385 104.19 48.3952 104.3 48.3913 104.411L48.3833 104.818C48.3785 104.99 48.4588 105.05 48.624 104.999C50.027 104.55 51.142 103.882 51.9689 102.994C53.1849 101.691 54.782 100.375 55.5977 99.5512C56.6609 98.4789 57.5186 97.4975 58.1707 96.6068C58.9081 95.5993 58.826 95.5261 57.9245 96.387C55.7757 98.4339 53.4225 100.596 50.8649 102.873C50.0925 103.561 49.4263 104.055 48.8663 104.355C48.8454 104.366 48.8253 104.363 48.8061 104.344C48.7796 104.319 48.7531 104.295 48.7266 104.271C48.7152 104.26 48.7064 104.248 48.7006 104.234C48.6948 104.219 48.6922 104.204 48.6931 104.189C48.694 104.174 48.6982 104.159 48.7056 104.145C48.713 104.132 48.7233 104.12 48.7357 104.111C50.487 102.828 52.4276 100.962 53.6176 99.912C55.5245 98.2367 57.5636 96.3559 59.7349 94.2698C60.8915 93.1623 61.9242 92.0248 62.8331 90.8573C63.8105 89.6012 64.9847 88.4288 65.9424 87.1183C66.5588 86.2738 67.206 85.4907 67.884 84.7689C68.8564 83.732 69.7369 82.6174 70.5255 81.4251C71.5755 79.8307 72.0397 78.8987 74.1205 78.6389C74.8448 78.5478 75.3563 78.1855 76.0524 78.0546C77.5754 77.7701 78.9811 77.2732 80.482 76.9075C80.5926 76.8809 80.6712 76.8145 80.7179 76.7081L80.7619 76.6041C80.8173 76.4779 80.9025 76.4524 81.0174 76.5276L81.5787 76.8912C81.7401 76.997 81.8046 76.955 81.7723 76.7654C81.6966 76.293 81.4059 75.9222 81.383 75.4567C81.2702 73.2608 81.6048 71.1366 82.3868 69.084C82.4259 68.9772 82.487 68.8843 82.5701 68.8054C82.8896 68.4967 83.1329 68.1455 83.3 67.7518C83.3139 67.7195 83.3199 67.6843 83.3176 67.6492C83.3153 67.6141 83.3048 67.58 83.2869 67.5497C83.269 67.5194 83.2442 67.4937 83.2145 67.4748C83.1849 67.4558 83.1512 67.4441 83.1162 67.4406C82.2689 67.3534 81.6282 67.3809 80.8289 67.0529C80.0358 66.7278 79.2304 66.4427 78.4124 66.1973C78.2927 66.1625 78.1898 66.0982 78.1039 66.0044C77.7388 65.6027 77.3792 65.1937 77.0251 64.7774C76.6066 64.2889 76.3557 63.7745 76.2725 63.2344C76.0704 61.934 76.1749 60.6399 76.5859 59.3522C77.247 57.285 77.9416 55.2298 78.6697 53.1868C79.2415 51.5723 81.0091 50.3354 81.9868 48.8738C82.0784 48.737 82.0707 48.6059 81.9637 48.4805L81.8817 48.3844C81.8432 48.3393 81.8203 48.283 81.8161 48.2239C81.812 48.1647 81.8269 48.1058 81.8586 48.0558C82.1763 47.5567 82.1976 46.9187 81.9225 46.1417C81.7937 45.7765 81.7206 44.9706 81.7031 43.724C81.6993 43.569 81.6238 43.5152 81.4765 43.5624C80.9339 43.7364 80.638 43.5214 80.4126 43.006C79.9987 42.0611 79.6397 41.2869 79.0573 40.4273C78.6899 39.8885 78.7289 39.2502 79.1744 38.5125C79.1893 38.4868 79.1958 38.4572 79.1933 38.4276C79.1907 38.3981 79.1791 38.3701 79.16 38.3473C79.1409 38.3246 79.1153 38.3083 79.0867 38.3006C79.058 38.293 79.0277 38.2943 78.9999 38.3045C77.299 38.9516 75.5223 39.4143 73.67 39.6924C70.8199 40.1207 67.9827 40.6131 65.1582 41.1697C64.8621 41.2248 64.5711 41.1242 64.2487 41.2387C64.1917 41.2608 64.1901 41.2873 64.2442 41.3184L65.5499 42.0372C65.5787 42.054 65.6116 42.0624 65.6452 42.0617C65.6787 42.0609 65.7117 42.051 65.7404 42.033C66.6622 41.4815 68.0764 40.8367 69.1374 41.3777C69.2433 41.4321 69.3605 41.4237 69.4889 41.3525C69.5674 41.3088 69.6016 41.3324 69.5913 41.4231C69.4178 42.9935 68.9313 44.1386 68.1317 44.8583C66.4016 46.4145 64.6904 47.9946 62.9981 49.5987C60.066 52.37 55.7819 54.6977 52.754 57.6804C48.7059 61.6694 44.5538 65.5484 40.2976 69.3173C39.7659 69.7887 39.2057 69.8704 38.6171 69.5623C38.5286 69.514 38.4589 69.534 38.4082 69.6224C37.9101 70.4814 37.0229 71.8468 35.7465 73.7185C35.226 74.4823 34.3974 75.931 33.2607 78.0645C32.0937 80.2419 30.0988 82.4588 28.8635 84.6323C26.4013 88.9644 23.8775 93.6659 21.2919 98.7368C19.9261 101.418 19.0964 104.216 18.8028 107.131C18.7994 107.164 18.8026 107.197 18.8124 107.228C18.8222 107.259 18.8383 107.288 18.8597 107.313C18.8811 107.338 18.9074 107.358 18.9369 107.372C18.9664 107.386 18.9985 107.394 19.0312 107.396C19.7675 107.426 20.4836 107.191 21.1793 106.691C26.0869 103.15 30.465 99.4224 34.3136 95.5081C35.8999 93.8929 37.564 92.3595 39.3059 90.908C40.1182 90.2321 40.9246 89.5483 41.7251 88.8565C43.6384 87.2018 45.3697 85.1371 47.3156 83.3778C47.4093 83.2919 47.4736 83.1878 47.5085 83.0655C47.6419 82.5963 47.8229 82.2922 48.0515 82.1533C50.3034 80.7872 52.4791 79.3114 54.5787 77.7259C55.244 77.2242 56.0276 76.761 56.9295 76.3364C57.8782 75.8917 58.7999 75.387 59.6946 74.8225C59.7471 74.7889 59.8071 74.7691 59.8693 74.7648C59.9315 74.7605 59.9939 74.7718 60.0508 74.7977C60.1078 74.8237 60.1576 74.8634 60.1958 74.9134C60.2339 74.9634 60.2592 75.0221 60.2694 75.0841C60.4589 76.2938 60.204 77.2912 59.4878 78.3722C58.8628 79.3215 58.2922 80.1827 57.7521 81.3119C57.5271 81.786 57.2654 82.2376 56.9669 82.6667C55.7844 84.3828 55.2451 86.2275 53.9535 87.922C53.8766 88.0241 53.8359 88.1385 53.8312 88.265C53.8257 88.4499 53.7837 88.6073 53.7052 88.7372C53.3888 89.2592 52.6931 90.3566 51.6184 92.0294C51.5767 92.093 51.4973 92.1505 51.3802 92.2021C51.1876 92.2873 51.1472 92.2406 51.2589 92.0619ZM74.7744 38.8775L75.1844 38.9583C75.2257 38.9662 75.2668 38.9572 75.2988 38.9334C75.3309 38.9095 75.3513 38.8727 75.3557 38.8309C75.3601 38.7891 75.3481 38.7457 75.3223 38.7101C75.2965 38.6745 75.2589 38.6495 75.2178 38.6406C75.0649 38.6089 74.9107 38.6215 74.7553 38.6785C74.7345 38.6862 74.717 38.7005 74.7054 38.7192C74.6938 38.7379 74.6887 38.76 74.6908 38.7823C74.6929 38.8046 74.7022 38.8259 74.7173 38.843C74.7323 38.8601 74.7523 38.8722 74.7744 38.8775ZM73.6316 39.1004L74.2064 39.2288C74.2393 39.233 74.2726 39.225 74.3001 39.2064C74.3275 39.1877 74.3473 39.1598 74.3556 39.1277C74.364 39.0956 74.3604 39.0615 74.3455 39.0318C74.3306 39.0022 74.3054 38.9789 74.2747 38.9664C74.0625 38.9059 73.8487 38.8973 73.6331 38.9406C73.6148 38.9434 73.5983 38.9526 73.5863 38.9664C73.5744 38.9803 73.5678 38.9981 73.5676 39.0168C73.5674 39.0355 73.5737 39.054 73.5853 39.0693C73.597 39.0845 73.6133 39.0954 73.6316 39.1004ZM81.3612 42.1859C81.2065 42.4509 81.1694 42.7239 81.2497 43.0051C81.2595 43.0389 81.2814 43.0683 81.3112 43.0876C81.3411 43.1068 81.3767 43.1147 81.4114 43.1096C81.4461 43.1046 81.4773 43.087 81.4992 43.0602C81.521 43.0333 81.5319 42.9992 81.5297 42.9643L81.5112 42.225C81.5068 42.0345 81.4568 42.0214 81.3612 42.1859ZM61.1864 42.5603C58.5486 43.7113 56.1386 45.2267 53.9562 47.1068C53.9108 47.1473 53.8937 47.2021 53.9049 47.2712C53.9261 47.3891 53.9868 47.4142 54.0871 47.3465C56.9664 45.432 59.5673 43.4634 62.72 41.9568C62.9417 41.8504 62.93 41.8104 62.685 41.8368C62.1034 41.8943 61.5533 42.399 61.1864 42.5603ZM11.5605 61.2762C12.5227 60.9515 13.4912 60.6487 14.466 60.3679C15.5853 60.0447 16.7193 59.6209 17.8678 59.0964C20.6518 57.8297 23.5277 56.8397 26.4955 56.1265C28.4295 55.6629 30.0153 55.231 31.2532 54.831C34.4125 53.808 37.6578 53.0107 40.7032 51.8517C42.2561 51.2645 43.811 50.6875 45.3678 50.1208C46.1683 49.8285 47.4543 49.0964 48.7006 48.9252C48.7368 48.9201 48.7714 48.9075 48.802 48.8883C48.8327 48.869 48.8586 48.8436 48.8782 48.8137C48.8977 48.7844 48.917 48.7564 48.9363 48.7296C49.0109 48.6223 49.11 48.5532 49.2335 48.5223C50.4553 48.2254 51.5886 47.7241 52.6334 47.0186C52.7496 46.9391 52.8769 46.9072 53.0156 46.9228C53.2373 46.9484 53.4342 46.8976 53.6064 46.7706C53.6302 46.7538 53.647 46.7292 53.6537 46.7011C53.6605 46.673 53.6567 46.6434 53.6431 46.6174C53.6294 46.5914 53.6069 46.5709 53.5794 46.5594C53.552 46.5479 53.5214 46.5463 53.4932 46.5548C49.5338 47.8852 45.5467 48.8348 41.5319 49.4036C39.251 49.7253 34.0988 50.8458 26.0753 52.7649C26.065 52.7669 25.517 52.881 24.4311 53.1072C23.276 53.3471 21.7172 53.7932 19.7547 54.4455C18.4644 54.8755 17.419 55.2372 16.6184 55.5307C15.67 55.8816 14.6219 56.2241 13.4741 56.5583C10.1179 57.5407 7.072 59.2641 4.33623 61.7285C3.80689 62.2026 3.88415 62.5369 4.56802 62.7313C6.01816 63.1427 7.50261 63.0208 9.02138 62.3656C10.6702 61.6546 11.5166 61.2914 11.5605 61.2762ZM52.0655 48.8625C52.0551 48.8504 52.0234 48.857 51.9722 48.8818C51.921 48.9067 51.8513 48.9493 51.7672 49.0072C51.683 49.0652 51.5861 49.1374 51.4818 49.2196C51.3775 49.3019 51.2679 49.3926 51.1594 49.4867C50.9402 49.6766 50.7384 49.8684 50.5983 50.0199C50.4583 50.1714 50.3914 50.2703 50.4125 50.2947C50.423 50.3067 50.4547 50.3002 50.5059 50.2753C50.5571 50.2505 50.6267 50.2079 50.7109 50.1499C50.795 50.092 50.892 50.0198 50.9963 49.9375C51.1006 49.8553 51.2101 49.7645 51.3187 49.6705C51.5378 49.4806 51.7397 49.2888 51.8797 49.1372C52.0198 48.9857 52.0866 48.8869 52.0655 48.8625ZM48.1479 58.6537C49.5426 57.5955 49.4879 57.5328 47.9837 58.4653C47.4395 58.799 46.258 58.9017 45.6188 59.0359C45.4905 59.0614 45.3818 59.1211 45.2927 59.2148C43.7735 60.8086 42.4449 62.5518 41.3069 64.4442C41.3 64.4583 41.2982 64.4743 41.3017 64.4896C41.3053 64.5049 41.314 64.5185 41.3263 64.5281C41.3387 64.5378 41.354 64.5429 41.3697 64.5425C41.3854 64.5422 41.4005 64.5365 41.4125 64.5264C43.5243 62.4165 45.7694 60.4589 48.1479 58.6537ZM42.992 59.3287C43.3027 58.9967 43.562 58.6312 43.77 58.2323C43.7848 58.2045 43.7882 58.1721 43.7797 58.1419C43.7711 58.1116 43.7511 58.0859 43.7239 58.07C43.6968 58.0542 43.6646 58.0495 43.634 58.0569C43.6035 58.0643 43.577 58.0832 43.5602 58.1097L42.5171 59.7159C42.428 59.8554 42.4589 59.8901 42.6101 59.8203C42.7352 59.7616 42.819 59.67 42.8616 59.5457C42.8917 59.4637 42.9352 59.3914 42.992 59.3287ZM107.601 66.9506C107.603 66.9023 107.525 66.8517 107.383 66.81C107.241 66.7682 107.047 66.7388 106.844 66.728C106.743 66.7227 106.643 66.7222 106.55 66.7264C106.456 66.7307 106.371 66.7396 106.299 66.7528C106.227 66.7659 106.17 66.783 106.13 66.8031C106.09 66.8232 106.069 66.8458 106.068 66.8697C106.066 66.918 106.144 66.9686 106.286 67.0103C106.428 67.0521 106.622 67.0815 106.825 67.0923C106.926 67.0976 107.025 67.0981 107.119 67.0939C107.212 67.0896 107.298 67.0807 107.37 67.0675C107.442 67.0543 107.499 67.0372 107.539 67.0172C107.578 66.9971 107.599 66.9745 107.601 66.9506ZM104.763 66.9993C104.364 66.7935 103.259 66.8321 102.824 66.8563C102.798 66.8611 102.775 66.8747 102.759 66.8947C102.742 66.9148 102.733 66.94 102.734 66.9659C102.734 66.9919 102.744 67.0169 102.76 67.0365C102.777 67.0562 102.801 67.0692 102.826 67.0734L104.724 67.153C104.744 67.1559 104.764 67.1515 104.78 67.1405C104.796 67.1296 104.808 67.113 104.813 67.0939C104.818 67.0748 104.816 67.0545 104.806 67.0371C104.797 67.0196 104.782 67.0061 104.763 66.9993ZM110.578 77.6223C111.08 77.4967 111.408 77.6412 111.561 78.0561C111.582 78.1057 111.618 78.147 111.665 78.1731C111.712 78.1993 111.766 78.2086 111.819 78.1997C111.872 78.1908 111.92 78.1642 111.955 78.1241C111.991 78.0841 112.012 78.0331 112.015 77.9796C112.064 76.1382 112.316 74.3326 112.77 72.5629C113.128 71.1567 113.899 69.8543 114.482 68.4421C114.52 68.3429 114.487 68.2902 114.38 68.284L111.467 68.1416C111.345 68.1346 111.257 68.1853 111.203 68.2938C109.634 71.3357 108.986 74.5859 109.26 78.0443C109.266 78.1208 109.305 78.1687 109.378 78.1881C109.862 78.3202 110.187 78.1958 110.354 77.8148C110.398 77.7133 110.472 77.6491 110.578 77.6223ZM90.2792 67.7267C90.8265 67.9373 91.5548 67.7094 92.2656 67.7202C92.2732 67.7207 92.2769 67.7221 92.2768 67.7247C92.2766 67.7272 92.2764 67.731 92.2761 67.7361C92.2757 67.7436 92.2704 67.7471 92.2603 67.7466C91.6245 67.598 90.9707 67.5436 90.2988 67.5833C90.282 67.5837 90.2662 67.5899 90.2539 67.601C90.2416 67.6121 90.2337 67.6273 90.2314 67.6441C90.2291 67.6609 90.2326 67.6782 90.2413 67.6933C90.25 67.7083 90.2634 67.7201 90.2792 67.7267ZM82.754 70.1137C82.1934 71.7327 81.7948 73.6464 81.99 75.4881C82.156 77.0427 83.7439 76.9521 84.8276 76.4975C84.9523 76.4464 85.0198 76.3526 85.0301 76.2162C85.323 72.6258 85.5251 70.6892 87.0404 67.8775C87.114 67.7448 87.0746 67.6791 86.9223 67.6804L84.4433 67.7192C84.319 67.7196 84.2149 67.7656 84.131 67.8571C83.5013 68.5335 83.0423 69.2856 82.754 70.1137ZM142.156 78.8378C142.26 78.4748 142.095 78.3016 142.102 78.0394C142.103 78.0369 142.103 78.0356 142.103 78.0356C142.108 78.0359 142.11 78.0386 142.11 78.0437C142.037 78.3007 142.017 78.5634 142.049 78.8317C142.07 79.0104 142.105 79.0125 142.156 78.8378ZM70.775 83.6467C70.751 83.6681 70.7254 83.6945 70.6982 83.7259C70.6916 83.7315 70.6876 83.7391 70.6873 83.7472C70.687 83.7553 70.6903 83.7632 70.6966 83.7691C70.7028 83.775 70.7114 83.7785 70.7205 83.7788C70.7296 83.779 70.7385 83.776 70.7451 83.7705L74.7217 80.3672C74.783 80.3149 74.7735 80.2814 74.6932 80.2666C72.9171 79.9885 71.805 81.937 70.8565 83.5525C70.8343 83.5867 70.8071 83.6181 70.775 83.6467ZM48.5223 97.866C48.7996 97.0094 49.1692 96.2013 49.6312 95.4417C49.6957 95.3338 49.7296 95.2279 49.733 95.1241C49.7345 95.01 49.7324 94.892 49.7267 94.7699C49.7219 94.5869 49.6671 94.5698 49.5622 94.7185C48.5896 96.1131 48.0217 97.6606 47.8584 99.361C47.8563 99.392 47.8645 99.4228 47.8817 99.4486C47.8989 99.4745 47.9242 99.4939 47.9537 99.5039C47.9831 99.5139 48.0149 99.5138 48.0443 99.5037C48.0737 99.4937 48.0989 99.4741 48.116 99.4482C48.3876 99.0226 48.4119 98.1982 48.5223 97.866Z" fill="#151515"/>
<path d="M161.964 27.2219C167.875 29.2962 162.141 37.5521 157.933 32.9699C156.242 31.129 156.354 28.5783 158.513 27.0901C158.603 27.0294 158.702 26.9971 158.811 26.9933C160.366 26.9516 161.417 27.0278 161.964 27.2219ZM162.642 28.6654C160.797 26.9982 156.694 28.4953 158.252 31.4549C160.479 35.6824 165.432 31.1827 162.642 28.6654Z" fill="#151515"/>
<path d="M173.838 33.7828C172.407 35.3918 171.173 37.1404 170.137 39.0286C170.075 39.1442 170.055 39.2661 170.078 39.3943C170.144 39.7558 170.039 40.0135 169.764 40.1675C168.86 40.6669 168.169 41.3079 167.339 41.9067C167.231 41.9841 167.163 42.088 167.135 42.2183C166.891 43.4345 167.32 44.3295 168.424 44.9035C168.51 44.9465 168.6 44.9594 168.695 44.9421C169.132 44.8532 169.471 44.9769 169.713 45.3131C169.771 45.3922 169.81 45.4833 169.828 45.5797C169.846 45.6761 169.842 45.7752 169.817 45.8699C169.791 45.9645 169.745 46.0522 169.681 46.1264C169.617 46.2006 169.537 46.2594 169.447 46.2985C168.546 46.6876 166.845 46.4862 166.403 45.4445C166.158 44.8634 166.602 44.2955 166.279 43.5575C166.231 43.4508 166.16 43.4289 166.066 43.4919C165.484 43.8806 165.016 44.1388 164.469 44.6588C163.335 45.727 161.849 46.2344 160.778 44.6806C160.721 44.5978 160.697 44.4972 160.709 44.3982C160.722 44.2992 160.771 44.2087 160.846 44.1442C161.182 43.8593 161.548 43.8438 161.945 44.0976C161.999 44.1319 162.062 44.1509 162.126 44.1526C162.19 44.1543 162.253 44.1387 162.309 44.1073L163.013 43.7144C163.12 43.6546 163.235 43.6144 163.358 43.5936C164.25 43.4424 164.939 42.9699 165.426 42.1762C165.495 42.0636 165.509 41.9438 165.465 41.817L164.527 39.0532C164.484 38.9239 164.49 38.7986 164.545 38.6775L164.733 38.2508C164.788 38.1272 164.802 37.9974 164.774 37.8613C164.416 35.9734 164.322 34.0627 164.494 32.1295C164.501 32.0453 164.53 31.9644 164.577 31.8944C164.624 31.8245 164.688 31.7676 164.764 31.7294C164.839 31.6911 164.923 31.6726 165.007 31.6757C165.091 31.6788 165.174 31.7033 165.246 31.7469C165.588 31.9494 165.697 32.3058 165.632 32.7092C165.321 34.5533 165.446 36.3642 166.006 38.142C166.047 38.2687 166.134 38.3283 166.266 38.3208C167.162 38.2662 168.012 38.422 168.815 38.7883C168.946 38.8466 169.05 38.8146 169.125 38.6921C170.416 36.6157 172.021 34.465 173.942 32.24C174.433 31.6749 174.758 30.9644 174.916 30.1085C174.938 29.9931 174.996 29.9013 175.092 29.8333C177.997 27.7225 182.369 29.1139 181.835 33.1279C181.341 36.8475 174.81 37.8194 174.052 33.8446C174.021 33.6804 173.949 33.6598 173.838 33.7828ZM177.14 30.4734C176.97 30.7883 176.702 30.9097 176.335 30.8377C176.274 30.825 176.21 30.8293 176.15 30.8499C176.091 30.8706 176.038 30.9069 175.998 30.9551C175.105 31.9954 174.32 34.2065 175.799 35.0914C176.358 35.4244 178.04 35.6171 178.591 35.4284C182.281 34.1736 181.545 29.3629 177.589 29.5368C177.429 29.5452 177.31 29.5916 177.231 29.6758C177.129 29.7866 177.107 29.9172 177.167 30.0678C177.192 30.1337 177.202 30.204 177.198 30.274C177.193 30.344 177.173 30.412 177.14 30.4734ZM166.463 41.2051C166.466 41.2311 166.476 41.2556 166.493 41.2761C166.509 41.2966 166.53 41.3124 166.555 41.3216C166.579 41.3308 166.606 41.3332 166.632 41.3286C166.657 41.3239 166.681 41.3123 166.701 41.2951L168.428 39.8313C168.449 39.8132 168.464 39.7896 168.472 39.7632C168.48 39.7368 168.48 39.7087 168.472 39.6822C168.464 39.6558 168.449 39.6321 168.429 39.6139C168.408 39.5958 168.383 39.5839 168.355 39.5797L166.378 39.2938C166.355 39.2901 166.332 39.2919 166.311 39.2989C166.289 39.3059 166.269 39.318 166.253 39.3342C166.237 39.3503 166.225 39.3701 166.218 39.3918C166.211 39.4136 166.209 39.4367 166.213 39.4592L166.463 41.2051Z" fill="#151515"/>
<path d="M159.469 29.6525C158.976 30.518 159.092 31.514 159.728 31.877C160.364 32.24 161.28 31.8327 161.773 30.9671C162.266 30.1016 162.15 29.1057 161.514 28.7426C160.878 28.3796 159.963 28.787 159.469 29.6525Z" fill="#151515"/>
<path d="M178.701 32.9503C179.377 32.3628 179.6 31.5128 179.199 31.0519C178.798 30.591 177.926 30.6936 177.25 31.2811C176.574 31.8687 176.351 32.7186 176.752 33.1796C177.153 33.6405 178.025 33.5379 178.701 32.9503Z" fill="#151515"/>
<path d="M110.905 50.425L110.672 50.773C110.654 50.7987 110.627 50.8173 110.597 50.8256C110.566 50.8339 110.534 50.8314 110.505 50.8185C110.476 50.8056 110.453 50.7832 110.439 50.755C110.425 50.7267 110.421 50.6945 110.427 50.6637C110.481 50.441 110.62 50.3273 110.846 50.3227C110.859 50.3227 110.871 50.326 110.882 50.3322C110.893 50.3384 110.902 50.3472 110.908 50.3578C110.914 50.3683 110.917 50.3802 110.917 50.3921C110.916 50.4039 110.912 50.4153 110.905 50.425Z" fill="#151515"/>
</svg>
