<svg width="143" height="149" viewBox="0 0 143 149" fill="none" xmlns="http://www.w3.org/2000/svg">
<path d="M89.3022 6.35893C89.227 6.03885 89.0752 5.80133 88.8468 5.64636C88.7354 5.57249 88.7203 5.58915 88.8012 5.69632L89.3022 6.35893C90.7466 8.48797 91.9849 10.785 93.0172 13.25C93.1604 13.5904 93.3649 13.9206 93.631 14.2407C93.8348 14.4862 93.8609 14.8316 93.516 14.9424C93.4064 14.9773 93.2881 14.9729 93.1813 14.9302C93.0745 14.8874 92.9859 14.8088 92.9305 14.7078C92.6919 14.2762 92.4758 13.8388 92.282 13.3956C91.6227 11.8879 90.8594 10.4345 89.9919 9.03543C89.0304 7.48283 87.9909 5.89692 86.8732 4.27769C86.8655 4.26692 86.8539 4.25925 86.8407 4.25618C86.8276 4.25312 86.8139 4.25488 86.8022 4.26112C86.7906 4.26737 86.7818 4.27765 86.7777 4.28995C86.7736 4.30225 86.7744 4.3157 86.78 4.32766C87.6128 6.28072 88.9162 7.96657 89.7533 9.9218C89.994 10.4801 90.3627 10.9863 90.5817 11.4947C90.8832 12.1964 91.1977 13.2044 91.6379 13.8084C91.7811 14.0039 91.9719 14.156 91.9871 14.4123C92.0239 15.0619 91.1738 15.0771 90.9331 14.4732C90.6338 13.7258 90.3295 12.9807 90.0201 12.2377C89.9145 11.9842 89.6774 11.5092 89.3087 10.8125C88.9769 10.1803 88.7622 9.4721 88.4 8.88336C87.4718 7.37565 86.6166 5.82812 85.8344 4.24076C85.5829 3.73023 85.4376 3.12628 85.186 2.57012C85.1571 2.50639 85.1079 2.47091 85.0385 2.46367C84.8477 2.44629 84.6771 2.3688 84.5267 2.23121C84.3995 2.1139 84.3192 2.13997 84.286 2.30942C83.9216 4.2299 83.5956 6.10692 83.3079 7.9405C83.1192 9.14623 83.0932 10.3715 83.0086 11.6098C83.0042 11.6822 83.0209 11.7496 83.0585 11.8119C83.4561 12.4578 83.3382 12.9988 82.705 13.4347C82.6471 13.4738 82.5893 13.4738 82.5315 13.4347L82.1584 13.1827C82.1505 13.1775 82.1412 13.1747 82.1317 13.1744C82.1222 13.1741 82.1128 13.1765 82.1045 13.1812C82.0963 13.1859 82.0894 13.1927 82.0848 13.2011C82.0802 13.2094 82.0779 13.2188 82.0782 13.2283C82.0941 13.4818 81.969 13.6194 81.703 13.6411C81.6192 13.6469 81.5693 13.6911 81.5534 13.7736L81.3343 14.8555C81.317 14.9385 81.2718 15.0131 81.2064 15.0669C81.1409 15.1206 81.059 15.1503 80.9743 15.151C80.2131 15.1575 80.443 13.7171 80.5688 13.3044C80.7878 12.5874 80.4929 12.1204 80.675 11.5121C80.944 10.6127 81.116 9.59666 81.1912 8.46407C81.21 8.17875 81.3437 7.90067 81.5924 7.62983C81.618 7.60131 81.6359 7.5677 81.6445 7.53207L83.2124 1.27749C83.2298 1.20942 83.232 1.1399 83.2189 1.06893C83.1351 0.599678 83.2833 0.291909 83.6635 0.145629C84.9691 -0.354042 85.2922 0.547538 86.2118 1.11021C86.887 1.52298 87.4559 2.05597 87.9186 2.70916C88.3501 3.31963 88.7665 4.12127 89.3564 4.76216C91.4189 6.9933 93.2406 9.41996 95.1968 11.7402C95.4635 12.0574 95.6349 12.4636 95.8864 12.8308C95.9229 12.8845 95.947 12.9458 95.9568 13.01C95.9667 13.0743 95.9621 13.1399 95.9434 13.2021C95.9247 13.2644 95.8923 13.3217 95.8487 13.3698C95.8051 13.4179 95.7513 13.4557 95.6913 13.4803C95.658 13.4934 95.6002 13.4731 95.5178 13.4195C95.4715 13.3891 95.4317 13.3449 95.3985 13.287C94.8288 12.2659 94.1782 11.3998 93.4466 10.6887C93.143 10.3932 93.1155 10.4179 93.3642 10.7626C93.8066 11.3737 94.2968 12.066 94.8346 12.8394C94.9712 13.0371 95.2423 13.2892 95.0949 13.5542C95.0615 13.6136 95.014 13.6638 94.9565 13.7004C94.8991 13.7369 94.8335 13.7586 94.7656 13.7636C94.6977 13.7685 94.6297 13.7566 94.5676 13.7287C94.5054 13.7009 94.4511 13.6581 94.4095 13.6042C93.3743 12.25 92.4309 10.8509 91.5794 9.40693C91.2541 8.85367 90.8912 8.33589 90.4907 7.8536C90.0873 7.36552 89.6911 6.86729 89.3022 6.35893Z" fill="#151515"/>
<path d="M61.1112 6.4641C63.8307 5.54441 65.8939 4.93032 67.3007 4.62183C68.3605 4.38865 70.2755 4.11781 73.0456 3.80932C73.8683 3.71808 74.5543 3.65725 75.1037 3.62683C75.6199 3.59931 76.3052 3.55152 77.1597 3.48345C77.978 3.41683 78.7971 3.44579 79.6168 3.57035C79.6906 3.58049 79.7614 3.57107 79.8294 3.54211C80.2284 3.37265 80.5689 3.44434 80.8509 3.75718C80.9087 3.82236 80.9268 3.89694 80.9051 3.98095C80.8118 4.33723 80.5602 4.51538 80.1786 4.49365C79.5699 4.45889 78.9612 4.42993 78.3525 4.40675C77.871 4.38937 77.2631 4.41038 76.5286 4.46976C75.5809 4.54797 74.6353 4.51538 73.7244 4.63486C71.8087 4.88398 69.8959 5.14757 67.986 5.42565C67.0217 5.56469 65.6113 5.94849 63.7548 6.57707C63.7389 6.58286 62.7767 6.89063 60.8683 7.50037C58.3887 8.2926 56.0617 9.4165 53.8872 10.8721C52.998 11.4673 52.4775 10.3637 53.1585 10.0226C54.1778 9.50992 55.1364 8.81907 56.1253 8.38023C57.1851 7.91097 58.2514 7.45475 59.3242 7.01156C59.9032 6.77259 60.6037 6.63572 61.1112 6.4641Z" fill="#151515"/>
<path d="M53.3386 18.5852C52.9439 19.1718 52.7451 19.5817 52.7422 19.8148C52.7306 20.5289 52.4118 21.0177 51.7858 21.2813C51.7193 21.3088 51.6853 21.3587 51.6838 21.4312C51.681 21.5992 51.6528 21.7339 51.5993 21.8352C51.5593 21.9096 51.4936 21.9667 51.4145 21.9958C51.3354 22.025 51.2484 22.0241 51.17 21.9933C51.0915 21.9626 51.027 21.9041 50.9886 21.8289C50.9502 21.7538 50.9406 21.6672 50.9617 21.5854C50.9891 21.4826 50.9906 21.3863 50.966 21.2965C50.9313 21.1705 50.885 21.1668 50.8272 21.2856C50.6364 21.6795 50.3262 21.8331 49.8968 21.7462C49.826 21.7317 49.7797 21.7592 49.758 21.8287L49.5455 22.5196C49.5252 22.5819 49.5209 22.6456 49.5325 22.7108C49.7479 23.8969 49.9865 25.0788 50.2482 26.2562C50.298 26.4865 50.2677 26.5669 50.1549 26.7581C50.1159 26.8247 50.1079 26.8942 50.131 26.9667L52.4277 34.0185C52.4508 34.0924 52.4935 34.1539 52.5557 34.2032C53.4015 34.8709 53.7203 35.7493 53.5121 36.8384C53.5008 36.898 53.5068 36.9591 53.5294 37.0144C54.7078 39.9139 56.2237 42.5709 58.0772 44.9852C58.9859 46.1692 59.9705 47.1012 61.2783 48.0528C62.2672 48.7697 63.4578 49.8842 64.6137 50.2426C64.9 50.331 65.1603 50.4425 65.3945 50.5772C66.9878 51.4911 68.6071 52.3572 70.2524 53.1755C71.1025 53.597 71.9657 53.7056 72.8831 53.9098C72.9568 53.9257 73.024 53.912 73.0848 53.8685C73.1932 53.7874 73.3204 53.7867 73.4665 53.8663C73.5241 53.8968 73.5686 53.9474 73.5917 54.009C73.6148 54.0705 73.615 54.1387 73.5922 54.2009C73.4795 54.5079 73.2474 54.5833 72.8961 54.4268C72.6185 54.303 72.3886 54.1466 72.085 54.0923C69.9466 53.6969 67.7627 52.3847 65.7415 51.3115C65.4581 51.1594 64.9434 50.9393 64.1973 50.6511C63.4528 50.3614 62.7718 49.9617 62.1544 49.4519C61.6672 49.0507 61.2464 48.7357 60.8922 48.5068C59.7341 47.758 58.7503 46.8811 57.9406 45.8759C55.6013 42.9692 53.6942 39.7003 52.2195 36.0694C50.6638 32.24 49.3814 28.3208 48.3722 24.3119C48.352 24.2366 48.3086 24.1794 48.2421 24.1402C47.8083 23.8911 47.6067 23.5008 47.637 22.9693C47.638 22.9565 47.6348 22.9439 47.6278 22.9333C47.6208 22.9226 47.6104 22.9147 47.5981 22.9105C47.5859 22.9063 47.5725 22.9062 47.56 22.9102C47.5474 22.9141 47.5364 22.9219 47.5286 22.9323L47.2532 23.3234C47.2083 23.3886 47.1476 23.432 47.071 23.4537C46.6878 23.558 46.4616 23.4233 46.3922 23.0497C46.3796 22.9852 46.3904 22.9189 46.4225 22.8628C46.6437 22.474 46.8064 22.2089 46.8715 21.7549C47.0666 20.3963 47.1317 19.4296 47.0666 18.8546C46.711 15.7146 46.5057 12.5653 46.4507 9.40647C46.4507 9.34564 46.4796 9.3087 46.5375 9.29567C46.7168 9.25656 46.8534 9.31232 46.9474 9.46295C46.9552 9.47511 46.9654 9.48553 46.9775 9.49359C46.9895 9.50165 47.003 9.50717 47.0172 9.50981C47.0314 9.51246 47.046 9.51217 47.0601 9.50897C47.0742 9.50577 47.0875 9.49972 47.0992 9.49119C47.4635 9.21963 47.778 9.18053 48.1987 9.40647C48.8493 9.75551 49.9033 10.2603 51.3607 10.9207C51.5241 10.9945 51.6585 11.0286 51.7641 11.0228C51.8349 11.0184 51.9029 11.0308 51.9679 11.0597C53.246 11.6231 54.548 12.1221 55.8738 12.5566C56.2136 12.6681 56.6184 12.8491 57.0883 13.0997C57.4859 13.3111 57.8987 13.4864 58.3266 13.6254C58.5421 13.6964 58.6809 13.7862 58.743 13.8948C58.8471 14.0788 58.7951 14.2721 58.5869 14.4749C58.4322 14.6255 58.1539 14.6834 57.7519 14.6487C57.684 14.6429 57.6196 14.6248 57.5589 14.5944C57.3608 14.4959 57.1483 14.4705 56.9213 14.5183C56.8832 14.5261 56.8437 14.5236 56.8071 14.511C56.7705 14.4984 56.738 14.4761 56.7131 14.4466C56.5931 14.3032 56.4341 14.2497 56.236 14.2859C56.1565 14.3018 56.1442 14.3402 56.1991 14.401C56.7999 15.0766 57.6196 15.2504 58.1943 15.7132C58.5963 16.0376 58.9592 16.404 59.283 16.8125C59.3307 16.8704 59.3503 16.9363 59.3416 17.0102C59.2838 17.5982 58.9577 17.8487 58.3635 17.7618C58.345 17.7588 58.3258 17.762 58.3092 17.7709C58.2925 17.7798 58.2792 17.7939 58.2715 17.8109C58.2638 17.8279 58.262 17.8468 58.2665 17.8647C58.271 17.8826 58.2815 17.8984 58.2963 17.9096C58.6794 18.2253 58.845 18.6258 58.7929 19.111C58.7828 19.208 58.811 19.292 58.8775 19.363C58.9932 19.4904 59.0329 19.6476 58.9968 19.8344C58.9936 19.8491 58.9863 19.8625 58.9757 19.8731C58.9652 19.8837 58.9518 19.8911 58.9371 19.8943C58.9225 19.8975 58.9073 19.8964 58.8932 19.8912C58.8792 19.886 58.8669 19.8768 58.858 19.8648C58.6599 19.5998 58.3989 19.4564 58.0751 19.4347C58.0354 19.4319 57.9968 19.421 57.9617 19.4027C57.9266 19.3843 57.8958 19.359 57.8712 19.3282L57.1165 18.3766C56.917 18.1261 56.7558 18.1485 56.6329 18.444C56.4738 18.8235 56.3596 19.3195 56.2902 19.9321C56.1991 20.7273 55.2926 20.5404 55.3078 19.83C55.3251 18.9726 55.3251 18.2441 55.3078 17.6445C55.3049 17.5475 55.2687 17.533 55.1993 17.6011C55.0446 17.7531 54.9514 17.911 54.9196 18.0747C54.7519 18.9408 54.3817 19.67 53.8092 20.2624C53.7853 20.2871 53.7547 20.3045 53.721 20.3126C53.6872 20.3206 53.6516 20.319 53.6183 20.308C53.126 20.1364 53.0957 19.8279 53.2779 19.3673C53.3718 19.1269 53.4094 18.8705 53.3906 18.5982C53.3863 18.5432 53.3689 18.5389 53.3386 18.5852ZM47.8083 12.0982C47.8734 12.0316 47.9479 11.9975 48.0317 11.9961C48.1084 11.9946 48.1199 11.9657 48.0664 11.9092L47.6565 11.4768C47.5842 11.4001 47.5466 11.4146 47.5438 11.5203L47.5307 12.2872C47.5298 12.3024 47.5341 12.3175 47.5429 12.33C47.5516 12.3424 47.5643 12.3516 47.5789 12.3559C47.5936 12.3602 47.6092 12.3594 47.6233 12.3536C47.6374 12.3478 47.6491 12.3374 47.6565 12.3241L47.7346 12.1959C47.7563 12.1612 47.7809 12.1286 47.8083 12.0982ZM48.7366 13.7623C48.9028 14.0969 49.0394 14.4365 49.1464 14.7812C49.1487 14.7861 49.1524 14.7901 49.1572 14.7925C49.1619 14.795 49.1674 14.7958 49.1726 14.7948C49.1779 14.7938 49.1826 14.791 49.1861 14.787C49.1897 14.783 49.1917 14.7778 49.192 14.7725C49.1414 14.0078 49.2137 13.2547 49.4089 12.5131C49.4291 12.4335 49.3987 12.39 49.3178 12.3828L48.7192 12.3263C48.6802 12.3219 48.6592 12.3393 48.6563 12.3784C48.6086 13.0982 48.6353 13.5595 48.7366 13.7623ZM51.2132 14.4684C51.3303 14.325 51.407 14.1613 51.4431 13.9774C51.459 13.8977 51.4337 13.8333 51.3672 13.784L50.4498 13.1084C50.3674 13.0461 50.3147 13.0657 50.2915 13.167L50.0768 14.1034C50.0508 14.2192 50.0963 14.2692 50.2135 14.2533C50.5576 14.204 50.8258 14.317 51.018 14.5922C51.0629 14.6559 51.1127 14.6603 51.1677 14.6052C51.2024 14.5705 51.2176 14.5248 51.2132 14.4684ZM56.6459 13.9252L56.4182 13.847C56.3155 13.8108 56.2974 13.8362 56.3639 13.9231C56.429 14.0085 56.5136 14.0549 56.6177 14.0621C56.6358 14.0658 56.6547 14.0622 56.6701 14.052C56.6856 14.0419 56.6964 14.0259 56.7001 14.0078C56.7038 13.9896 56.7002 13.9707 56.6901 13.9553C56.6799 13.9398 56.664 13.929 56.6459 13.9252ZM49.8187 19.1783C49.9706 18.2246 50.3002 17.1948 50.5778 16.3628C50.7448 15.8653 50.7838 15.459 50.3891 15.1136C50.3731 15.1 50.3538 15.0907 50.3332 15.0868C50.3126 15.0829 50.2913 15.0844 50.2714 15.0912C50.2515 15.098 50.2337 15.1098 50.2197 15.1255C50.2058 15.1413 50.1962 15.1603 50.1918 15.1809C49.9272 16.4801 49.7652 17.7763 49.706 19.0697C49.7031 19.1305 49.7103 19.179 49.7277 19.2152C49.7696 19.3108 49.7999 19.2985 49.8187 19.1783ZM48.6926 18.3787C48.715 18.379 48.7382 18.2601 48.757 18.0481C48.7758 17.836 48.7888 17.5483 48.7929 17.2481C48.795 17.0995 48.7949 16.9523 48.7925 16.8149C48.7902 16.6775 48.7857 16.5526 48.7793 16.4474C48.7729 16.3422 48.7648 16.2587 48.7553 16.2017C48.7458 16.1447 48.7352 16.1153 48.7241 16.1152C48.7017 16.1149 48.6785 16.2338 48.6597 16.4459C48.6409 16.6579 48.628 16.9456 48.6238 17.2458C48.6217 17.3944 48.6218 17.5416 48.6242 17.679C48.6265 17.8164 48.631 17.9413 48.6374 18.0465C48.6438 18.1517 48.652 18.2352 48.6614 18.2922C48.6709 18.3492 48.6815 18.3786 48.6926 18.3787ZM54.3492 17.5511L54.8458 16.7364C54.8878 16.6684 54.8769 16.6097 54.8133 16.5605L54.5574 16.3628C54.488 16.3077 54.4446 16.3237 54.4273 16.4106L54.2126 17.499C54.2084 17.5164 54.2108 17.5347 54.2192 17.5506C54.2275 17.5664 54.2413 17.5787 54.2581 17.585C54.2748 17.5914 54.2932 17.5915 54.31 17.5853C54.3268 17.579 54.3407 17.5669 54.3492 17.5511Z" fill="#151515"/>
<path d="M79.5267 106.445C79.7335 105.938 80.0284 105.251 80.4116 104.383C80.867 103.348 81.6159 102.828 82.6584 102.823C83.1427 102.822 83.5873 102.983 83.9921 103.308C84.6037 103.799 85.0505 104.419 85.3324 105.168C86.0105 106.961 86.5556 108.856 86.9676 110.855C87.1353 111.668 87.3457 112.415 87.5987 113.097C88.3361 115.078 89.119 117.075 89.5007 119.161C89.6641 120.053 89.8072 120.727 89.9301 121.183C90.1079 121.849 90.2865 122.515 90.4658 123.18C90.5713 123.572 90.7318 124.345 90.9472 125.498C91.1424 126.545 91.4851 127.496 91.6477 128.585C91.8198 129.738 92.1696 130.837 92.6974 131.883C92.8839 132.252 93.2222 132.749 93.4846 132.991C93.8851 133.361 94.1338 133.278 94.2307 132.741C94.7251 129.96 94.9977 127.149 95.0483 124.307C95.0591 123.697 95.2283 122.367 95.1133 121.394C95.041 120.775 95.0034 120.338 95.0006 120.082C94.9702 116.606 95.0136 113.134 94.9745 109.66C94.9644 108.693 95.0042 107.93 95.0938 107.373C95.5044 104.848 95.9237 102.607 96.3517 100.649C96.4919 100.012 96.8729 99.7501 97.4946 99.8645C97.5669 99.8776 97.6037 99.8479 97.6052 99.7755C97.6269 98.3445 97.7223 96.9194 97.8915 95.5C98.0042 94.5398 97.9956 93.4492 98.1278 92.6084C98.3982 90.9009 98.7539 89.2136 99.1949 87.5466C99.3973 86.7833 99.7414 85.7666 100.227 84.4964C100.524 83.7215 100.899 82.715 101.353 81.4766C101.985 79.7546 102.93 77.9514 104.189 76.0671C104.372 75.7956 104.682 75.5653 104.988 75.7022C105.045 75.7283 105.096 75.7671 105.137 75.8156C105.178 75.8641 105.208 75.9212 105.224 75.9827C105.24 76.0441 105.242 76.1084 105.23 76.1707C105.218 76.2331 105.192 76.292 105.154 76.343C104.398 77.3714 103.772 78.4706 103.274 79.6409C102.394 81.7113 101.782 84.6724 101.116 87.1555C100.794 88.3634 100.527 89.5119 100.316 90.6011C100.027 92.0972 99.818 93.2587 99.6893 94.0857C99.471 95.4906 99.4139 96.9845 99.518 98.5676C99.5831 99.5626 99.9691 100.553 99.5809 101.77C99.5614 101.834 99.5189 101.889 99.4616 101.924L99.2209 102.072C99.1544 102.114 99.1327 102.172 99.1558 102.246C99.2491 102.55 99.3315 102.763 99.3445 103.102C99.364 103.712 99.6828 104.186 99.7696 104.727C99.8715 105.378 99.9734 105.98 100.177 106.662C100.339 107.208 100.465 107.764 100.555 108.329C100.685 109.143 101.071 109.93 101.112 110.827C101.116 110.901 101.137 110.969 101.175 111.031C101.611 111.748 101.565 112.671 101.886 113.636C102.407 115.2 102.47 117.066 102.808 118.352C103.396 120.586 103.936 122.831 104.426 125.087C104.709 126.395 105.131 127.656 105.692 128.872C105.728 128.95 105.787 129.003 105.868 129.03L106.59 129.278C106.665 129.302 106.717 129.352 106.746 129.426C106.829 129.627 106.808 129.82 106.683 130.006C106.642 130.068 106.643 130.129 106.688 130.188C106.903 130.475 106.907 130.747 106.699 131.005C106.291 131.511 105.423 132.061 104.938 132.48C103.555 133.672 102.205 134.898 100.886 136.158C100.826 136.217 100.837 136.256 100.919 136.273C102.801 136.656 103.905 136.186 105.992 135.415C107.347 134.915 108.722 134.34 110.038 133.877C115.038 132.117 119.973 130.193 124.844 128.105C126.967 127.192 129.145 126.501 131.17 126.019C131.487 125.942 131.731 126.052 131.901 126.347C131.939 126.411 131.994 126.434 132.066 126.417L132.194 126.384C132.275 126.362 132.305 126.312 132.285 126.232C132.127 125.604 132.697 125.493 132.962 125.202C134.152 123.889 135.295 122.537 136.391 121.146C136.413 121.118 136.427 121.084 136.432 121.048C136.437 121.012 136.433 120.975 136.419 120.942L136.237 120.521C136.209 120.457 136.175 120.453 136.135 120.51C135.95 120.775 135.64 121.426 135.226 121.051C135.181 121.008 135.151 120.953 135.141 120.892C135.069 120.414 135.128 119.956 135.317 119.519C135.347 119.451 135.36 119.38 135.354 119.306C135.274 118.331 135.573 117.468 135.543 116.569C135.488 115.005 135.451 113.484 135.616 111.889C135.676 111.308 135.718 110.726 135.744 110.143C135.77 109.555 135.846 108.915 135.972 108.224C136.128 107.368 136.18 106.462 136.339 105.659C136.628 104.21 136.897 102.758 137.147 101.303C137.204 100.983 137.484 100.577 137.564 100.175C137.76 99.2048 138 98.2453 138.282 97.2967C138.465 96.6811 138.566 96.1155 138.583 95.5999C138.627 94.3508 138.689 93.208 138.273 91.9893C137.669 90.218 137.061 88.4496 136.449 86.6841C136.356 86.4125 136.393 86.0671 136.286 85.7586C135.627 83.8367 134.964 81.9162 134.298 79.9972C133.825 78.6314 133.286 77.2903 132.682 75.9737C131.287 72.9294 130.344 70.8916 129.854 69.8604C129.691 69.5215 129.501 69.2629 129.132 68.9132C128.774 68.5764 128.624 67.9725 129.162 67.6705C129.177 67.662 129.191 67.6506 129.202 67.6368C129.212 67.623 129.22 67.6072 129.225 67.5902C129.229 67.5733 129.231 67.5555 129.229 67.538C129.226 67.5204 129.221 67.5035 129.212 67.488C127.061 63.6355 124.901 59.7887 122.734 55.9478C121.832 54.3488 120.748 52.8607 119.897 51.2357C118.713 48.9676 117.724 47.2535 116.198 44.4966C115.041 42.4081 113.787 40.3805 112.435 38.4137C111.533 37.1015 109.976 35.3635 109.013 33.5821C107.18 30.1821 105.148 26.9104 103.318 23.5061C103.017 22.9485 102.534 22.2185 101.869 21.3162C101.306 20.5515 100.825 19.8223 100.425 19.1285C99.69 17.854 99.0994 16.8735 98.6527 16.187C98.5356 16.0074 98.3028 15.7394 97.9544 15.3832C97.9023 15.331 97.8416 15.2955 97.7722 15.2767C97.2719 15.1362 96.9683 14.8154 96.8613 14.3143C96.7984 14.0275 96.5772 13.5452 96.857 13.2324C96.9016 13.1823 96.9559 13.1418 97.0167 13.1134C97.0775 13.0851 97.1433 13.0695 97.2102 13.0677C97.2771 13.0659 97.3436 13.0778 97.4055 13.1028C97.4675 13.1277 97.5236 13.1652 97.5705 13.2129C98.0389 13.6865 98.2406 14.3534 98.6679 14.8466C99.5202 15.835 100.223 17.1385 100.758 18.014C101.229 18.7831 101.602 19.5826 102.138 20.306C102.966 21.4212 103.647 22.4741 104.181 23.4648C105.898 26.6598 107.435 29.4044 108.789 31.6985C109.349 32.6479 109.997 34.2208 110.891 35.3114C112.413 37.1768 113.745 39.0292 114.886 40.8686C116.402 43.3148 118.308 46.7835 120.602 51.2748C121.205 52.4523 122.175 53.7623 122.836 54.9506C124.187 57.3729 125.491 59.6367 126.872 62.2241C127.523 63.4428 128.327 64.7485 128.911 65.813C129.427 66.7573 129.94 67.7031 130.45 68.6503C131.687 70.9466 132.695 73.4406 133.816 75.8325C134.241 76.7421 134.619 77.7023 134.951 78.7132C135.629 80.7858 136.409 82.9749 137.291 85.2806C137.736 86.448 138.186 87.7218 138.64 89.102C139.828 92.7192 141.136 96.3234 142.07 100.069C142.385 101.333 142.246 102.667 142.407 103.973C142.587 105.457 142.576 106.94 142.372 108.422C142.362 108.496 142.393 108.541 142.465 108.557C143.48 108.789 142.786 110.833 142.526 111.418C142.488 111.5 142.475 111.586 142.485 111.674C142.542 112.183 142.438 112.65 142.172 113.075C142.133 113.138 142.113 113.21 142.116 113.284C142.157 114.722 141.736 116.147 141.613 117.377C141.429 119.199 141.214 120.588 140.967 121.544C140.842 122.026 140.487 123.01 139.9 124.496C139.707 124.986 139.459 125.488 139.156 126.004C138.557 127.018 138.087 127.992 137.338 128.939C136.844 129.565 136.406 130.229 135.874 130.796C134.479 132.29 133.07 133.77 131.645 135.237C131.223 135.673 130.36 136.272 129.056 137.034C128.441 137.394 127.55 137.776 126.382 138.178C125.354 138.533 124.451 138.879 123.673 139.215C121.593 140.114 119.898 140.726 118.59 141.05C116.875 141.475 115.706 141.814 115.083 142.067C113.466 142.726 111.825 143.311 110.158 143.82C108.935 144.194 107.526 144.507 105.931 144.759C104.463 144.992 102.994 145.217 101.524 145.435C100.711 145.554 100.006 145.871 99.2231 145.993C96.6076 146.398 93.9907 146.8 91.3723 147.199C90.726 147.296 89.7848 147.218 88.991 147.34C87.1057 147.628 85.2204 147.916 83.335 148.202C82.1899 148.376 81.0514 148.354 79.8998 148.37C79.8882 148.37 79.4798 148.409 78.6744 148.487C78.0715 148.546 77.486 148.387 76.9546 148.385C75.2833 148.379 73.6242 148.232 71.9774 147.944C71.6131 147.879 71.1295 147.929 70.8237 147.844C69.2882 147.416 67.6443 147.001 66.2824 146.134C64.8163 145.198 63.7732 144.602 62.871 143.119C62.6035 142.68 62.409 142.148 62.2876 141.522C62.0165 140.114 61.9992 139.021 62.6975 137.746C62.7235 137.7 62.7597 137.664 62.8059 137.64C62.8392 137.622 62.8558 137.599 62.8558 137.57C62.8558 137.538 62.8442 137.533 62.8211 137.555C62.2471 138.085 61.5893 138.291 60.8476 138.172C60.0885 138.05 59.8673 137.535 60.3271 136.89C60.6264 136.467 61.0608 135.765 61.6305 134.783C61.6811 134.696 61.6558 134.653 61.5546 134.655C61.1642 134.662 60.7803 134.669 60.403 134.676C60.043 134.682 59.6642 134.75 59.2666 134.881C57.9176 135.319 56.9807 135.54 56.4559 135.541C48.2307 135.567 42.6101 135.569 39.5941 135.545C39.0997 135.541 38.4772 135.389 37.9307 135.376C35.9109 135.325 33.8918 135.277 31.8735 135.23C31.366 135.22 30.7913 135.091 30.3228 135.083C29.0737 135.059 27.0842 135.057 24.3545 135.074C23.6952 135.078 23.2658 134.724 22.6456 134.735C21.5338 134.752 20.4241 134.755 19.3166 134.744C18.7679 134.739 18.3689 134.468 17.8614 134.468C16.725 134.471 15.59 134.471 14.4565 134.468C13.8644 134.466 13.4827 134.807 12.9059 134.811C11.7883 134.82 10.6714 134.83 9.55519 134.842C9.48724 134.842 9.44242 134.874 9.42073 134.939L9.07591 135.986C9.0682 136.006 9.05395 136.023 9.03551 136.034C9.01708 136.044 8.99557 136.048 8.97456 136.045C8.95354 136.042 8.93429 136.031 8.91998 136.015C8.90568 136 8.89718 135.979 8.8959 135.958L8.85686 133.59C8.85542 133.532 8.8294 133.49 8.77879 133.464C8.60096 133.371 8.51204 133.204 8.51204 132.962C8.51348 131.547 8.55108 130.134 8.62481 128.722C8.6812 127.654 8.83156 126.251 9.07591 124.511C9.47206 121.697 9.77134 118.872 9.97376 116.037C10.0193 115.398 10.2492 114.564 10.1364 113.679C10.1338 113.67 10.128 113.661 10.12 113.656C10.112 113.65 10.1022 113.647 10.0924 113.648C10.0825 113.648 10.0731 113.652 10.0658 113.658C10.0584 113.665 10.0535 113.674 10.0518 113.684C10.041 114.259 9.85231 114.848 9.79592 115.35C9.55302 117.495 9.20603 119.623 8.75494 121.735C8.51204 122.88 8.44698 123.86 8.4318 124.976C8.43083 125.035 8.41402 125.093 8.38312 125.143C8.35222 125.193 8.30839 125.234 8.25622 125.262C8.20406 125.289 8.1455 125.302 8.08671 125.298C8.02792 125.295 7.97107 125.276 7.92215 125.243C7.73419 125.116 7.64383 124.882 7.65106 124.542C7.69154 122.574 7.9301 120.635 8.36674 118.726C8.87855 116.499 9.03904 114.296 9.43158 112.08C9.44314 112.012 9.41712 111.99 9.3535 112.013C9.1482 112.085 8.9906 112.043 8.88072 111.887C8.75494 111.705 8.81566 111.533 8.85903 111.324C8.87494 111.249 8.8453 111.203 8.77012 111.188C8.3783 111.102 8.00311 111.15 7.64455 111.331C7.58094 111.364 7.5166 111.365 7.45154 111.333L7.13273 111.181C7.06333 111.148 6.99032 111.136 6.91369 111.146L6.84429 111.157C6.8255 111.159 6.82405 111.164 6.83996 111.172L7.94167 111.746C8.02986 111.792 8.05516 111.861 8.01757 111.952C7.85998 112.343 7.5925 112.455 7.21514 112.287C6.38669 111.917 5.67391 111.643 5.07679 111.463C4.60979 111.324 4.22087 111.163 3.91002 110.979C3.24422 110.586 2.73674 110.171 1.92781 110.049C0.971404 109.904 -0.878514 109.206 0.483442 107.948C1.10514 107.372 1.6625 106.743 2.15552 106.06C2.31456 105.842 2.54951 105.602 2.86036 105.341C3.47194 104.829 3.69748 104.105 4.21798 103.586C4.88811 102.917 5.72524 102.187 6.23705 101.398C6.43224 101.098 6.59706 100.816 6.86598 100.566C8.01251 99.4959 9.05422 98.3329 9.99111 97.0772C10.0403 97.0121 10.0663 96.9396 10.0692 96.86L10.093 96.4146C10.0974 96.3523 10.1205 96.298 10.1624 96.2517C10.4588 95.9331 10.7343 95.5999 10.9887 95.2523C11.5526 94.4833 12.0644 94.7005 12.8647 94.694C14.1124 94.6839 15.3601 94.6882 16.6079 94.7071C16.991 94.7143 17.411 94.7882 17.8679 94.9286C18.4983 95.1227 19.1402 95.2581 19.7937 95.3349C19.9614 95.3552 20.1797 95.4088 20.4487 95.4957C20.7414 95.5913 21.0364 95.5891 21.3313 95.7042C22.3203 96.0851 23.3403 96.3234 24.3914 96.419C24.9054 96.4668 25.415 96.6862 25.9854 96.6818C27.1262 96.6731 28.2669 96.6717 29.4076 96.6775C30.4291 96.684 31.3682 97.0208 32.3766 97.0208C33.7256 97.0237 35.0738 97.0207 36.4213 97.0121C37.228 97.0077 37.9871 96.6949 38.8025 96.6949C39.8912 96.6949 40.9561 96.4016 41.9602 96.4059C46.3338 96.4262 50.7066 96.4153 55.0788 96.3733C55.6448 96.369 56.046 96.6319 56.5643 96.6384C57.4738 96.6514 58.381 96.6384 59.2861 96.5993C59.5348 96.5891 59.6844 96.7586 59.735 97.1076C59.8088 97.5965 59.4878 97.7529 59.0519 97.7572C58.2032 97.763 57.3559 97.763 56.5101 97.7572C56.0786 97.7551 55.5776 97.4618 55.0527 97.4618C50.8469 97.4473 46.6417 97.4386 42.4373 97.4357C41.9515 97.4357 41.3248 97.4835 40.557 97.5791C39.9671 97.6529 39.3389 97.7007 38.6724 97.7225C38.0326 97.7442 37.4254 97.9723 36.7878 97.9723C35.2249 97.9752 33.6627 97.9766 32.1012 97.9766C31.2315 97.9788 30.4812 97.7073 29.644 97.7094C28.1216 97.7116 26.4343 97.8528 24.9401 97.5769C24.6235 97.519 24.2128 97.4545 23.7083 97.3836C23.0866 97.2952 21.9762 97.0055 20.3771 96.5146C20.0041 96.4001 19.4655 96.2835 18.7614 96.1648C18.0284 96.041 17.3192 95.7477 16.5905 95.7412C15.4093 95.731 14.2273 95.7296 13.0447 95.7368C12.9767 95.7368 12.9507 95.7694 12.9666 95.8346C13.1271 96.4994 13.0186 97.0794 13.2008 97.7464C13.4676 98.7262 13.242 99.6038 13.4936 100.547C13.7076 101.356 13.7538 102.187 13.6324 103.039C13.6284 103.068 13.6307 103.098 13.6392 103.127C13.6477 103.155 13.6622 103.182 13.6816 103.205C13.7011 103.227 13.7252 103.245 13.7522 103.258C13.7792 103.27 13.8086 103.277 13.8384 103.277C16.824 103.299 19.8277 103.308 22.8494 103.304C23.3895 103.301 23.7885 103.547 24.3003 103.545C30.1573 103.523 36.0143 103.535 41.8713 103.582C42.9318 103.59 44.0248 103.338 44.9834 103.332C46.2037 103.323 47.4246 103.32 48.6464 103.321C49.2493 103.322 50.1883 103.38 51.4635 103.493C52.6057 103.593 53.7508 103.611 54.8988 103.547C55.2479 103.527 55.5646 103.312 55.9679 103.314C56.0402 103.316 56.1039 103.294 56.1588 103.249C56.7639 102.747 57.4882 103.178 57.8157 102.313C57.8533 102.214 57.8591 102.046 57.833 101.809C57.6856 100.512 59.7719 101.209 59.3772 99.3953C59.3598 99.32 59.3179 99.2628 59.2514 99.2236C58.514 98.7935 59.2817 97.6899 60.1753 98.6393C60.2476 98.716 60.2873 98.7015 60.2945 98.5958C60.3314 97.9723 60.2598 97.4943 60.4247 96.8556C60.5143 96.5051 60.549 96.1474 60.5288 95.7824C60.4984 95.2567 60.7196 94.92 60.7066 94.4181C60.6907 93.7258 60.7355 93.0393 60.8411 92.3586C60.9509 91.6605 61.1815 91.0754 61.5329 90.6032C61.9392 90.0587 62.4416 89.6024 63.0401 89.2346C63.1023 89.1955 63.1703 89.1774 63.244 89.1803C63.6026 89.1933 63.959 89.2078 64.3132 89.2237C64.9985 89.2563 65.4192 89.5279 65.9592 89.9059C66.0503 89.9696 66.0872 89.9464 66.0698 89.8363C65.9007 88.74 65.725 87.6523 65.5428 86.5733C65.4257 85.8846 65.5277 85.2263 65.4214 84.5572C64.6768 79.9081 63.9329 75.259 63.1898 70.6099C63.038 69.6583 63.0813 68.7176 62.9556 67.9442C62.409 64.6218 61.8683 61.2986 61.3334 57.9747C61.2466 57.4359 61.3334 56.9037 61.2509 56.3736C61.0326 54.9716 60.8027 53.5711 60.5613 52.172C60.528 51.9837 60.4276 51.7303 60.2598 51.4116C60.0516 51.0148 59.9844 50.5759 60.0581 50.0951C60.0736 49.9916 60.1227 49.896 60.1979 49.823C60.2732 49.75 60.3703 49.7036 60.4745 49.691C60.8129 49.6476 61.0362 49.7801 61.1295 50.1255C61.316 50.8207 61.5285 51.4659 61.6326 52.1785C61.8018 53.3372 61.984 54.4929 62.1792 55.6458C62.3223 56.4952 62.2269 57.2708 62.3548 58.0877C62.8753 61.3652 63.3994 64.6428 63.9272 67.9203C64.0356 68.5851 63.9293 69.2064 64.0356 69.856C64.7802 74.4747 65.5313 79.092 66.2889 83.7078C66.4429 84.6528 66.3366 85.5674 66.5166 86.4842C66.8564 88.2178 67.1246 89.9609 67.3212 91.7134C67.5323 93.602 67.7022 94.9525 67.8308 95.7651C68.0434 97.1105 68.2624 98.4553 68.488 99.7994C68.5682 100.282 68.8393 100.79 68.9044 101.194C69.1617 102.797 69.4155 104.402 69.6656 106.008C69.7523 106.569 70.0516 106.99 70.1188 107.555C70.236 108.522 70.6263 109.484 70.7673 110.316C70.8909 111.059 70.9538 111.746 71.1902 112.489C71.5394 113.59 71.5871 114.679 71.9688 115.769C72.2398 116.547 72.2485 117.407 72.4676 118.118C72.628 118.643 72.8015 119.117 72.8688 119.673C73.0163 120.897 73.1666 121.778 73.3199 122.317C73.5946 123.286 73.8527 124.259 74.0941 125.237C74.2951 126.048 74.5242 126.808 74.7816 127.516C75.172 128.587 75.5602 129.658 75.9202 130.74C76.2527 131.745 76.7255 132.682 77.3385 133.551C77.5662 133.873 77.7853 133.959 78.1366 134.099C78.2031 134.125 78.2508 134.104 78.2797 134.038C78.6383 133.214 78.832 132.294 78.8609 131.279C78.9549 128.113 78.9701 125.312 78.9065 122.878C78.8978 122.532 78.7677 122.295 78.7287 121.941C78.7229 121.885 78.6932 121.867 78.6397 121.887L78.1995 122.048C78.1214 122.077 78.0578 122.125 78.0086 122.193C77.8496 122.413 77.6335 122.478 77.3602 122.387C77.2489 122.35 77.1554 122.272 77.098 122.17C77.0407 122.067 77.0236 121.947 77.0501 121.833C77.2568 120.939 77.3233 120.03 77.2496 119.106C77.2439 119.037 77.2574 118.966 77.2886 118.902C77.4838 118.495 77.4477 118.112 77.1802 117.753C77.1339 117.69 77.1057 117.621 77.0956 117.544C76.9713 116.552 76.9496 115.874 77.0305 115.509C77.2496 114.524 77.2127 113.423 77.3212 112.569C77.4802 111.316 77.598 110.06 77.6747 108.8C77.692 108.505 77.7412 108.142 77.8221 107.714C77.9067 107.264 78.0824 104.683 79.1928 105.313C79.5571 105.522 79.5159 106.06 79.5051 106.441C79.5051 106.481 79.5123 106.483 79.5267 106.445ZM100.223 87.1772C100.22 87.1856 100.221 87.1946 100.225 87.2024C100.229 87.2101 100.236 87.2159 100.245 87.2185C100.253 87.2211 100.262 87.2203 100.27 87.2162C100.277 87.2121 100.283 87.2051 100.286 87.1968C100.348 87.0548 100.381 86.902 100.385 86.7384C100.384 86.7274 100.379 86.717 100.372 86.7092C100.364 86.7014 100.353 86.6966 100.342 86.6956C100.331 86.6945 100.32 86.6974 100.311 86.7036C100.302 86.7098 100.295 86.7191 100.292 86.7297L100.223 87.1772ZM100.197 87.3554C100.198 87.3493 100.198 87.3428 100.195 87.3372C100.192 87.3316 100.187 87.3272 100.181 87.3248C100.176 87.3224 100.169 87.3222 100.163 87.3242C100.157 87.3263 100.152 87.3304 100.149 87.3358C100.054 87.4792 100.024 87.6356 100.06 87.8051C100.06 87.8137 100.064 87.8219 100.07 87.8278C100.077 87.8337 100.085 87.8369 100.094 87.8366C100.102 87.8363 100.111 87.8326 100.116 87.8263C100.122 87.8199 100.126 87.8115 100.125 87.8029L100.197 87.3554ZM99.6872 89.53C99.7363 89.446 99.7363 89.3584 99.6872 89.2672C99.6438 89.1875 99.6221 89.1933 99.6221 89.2845L99.6199 89.5126C99.6199 89.601 99.6423 89.6068 99.6872 89.53ZM62.7452 90.2491C61.8278 91.003 61.2791 92.0284 61.3919 93.2189C61.4006 93.3116 61.4302 93.3188 61.4808 93.2406C61.9254 92.5737 62.5522 91.5765 63.3611 91.3354C64.2741 91.0638 65.2262 90.7727 65.8551 91.0377C65.8734 91.0451 65.8937 91.0461 65.9126 91.0407C65.9316 91.0353 65.9482 91.0237 65.9599 91.0078C65.9715 90.9919 65.9776 90.9725 65.9771 90.9528C65.9766 90.933 65.9695 90.914 65.9571 90.8987C65.2024 90.0058 63.7558 89.4214 62.7452 90.2491ZM99.4304 90.7914C99.4375 90.7919 99.4452 90.7832 99.453 90.7659C99.4608 90.7486 99.4686 90.723 99.4759 90.6906C99.4832 90.6581 99.4899 90.6195 99.4956 90.5768C99.5013 90.5341 99.506 90.4883 99.5092 90.4419C99.5157 90.3482 99.5163 90.258 99.5108 90.191C99.5053 90.1241 99.4941 90.0859 99.4798 90.0849C99.4727 90.0844 99.465 90.093 99.4572 90.1103C99.4494 90.1276 99.4416 90.1532 99.4343 90.1857C99.427 90.2181 99.4203 90.2568 99.4146 90.2994C99.4089 90.3421 99.4043 90.388 99.401 90.4343C99.3945 90.528 99.3939 90.6183 99.3994 90.6852C99.4049 90.7522 99.4161 90.7904 99.4304 90.7914ZM99.1884 91.4136C99.132 91.9741 99.0734 92.3195 98.952 92.8235C98.9303 92.909 98.9404 93.0024 98.9823 93.1038C99.0069 93.1689 99.025 93.1675 99.0365 93.0994L99.3553 91.205C99.3727 91.1036 99.3481 91.0928 99.2816 91.1724C99.2296 91.2347 99.1985 91.3151 99.1884 91.4136ZM72.5673 128.593L72.9013 128.898C72.9606 128.95 73.0271 128.963 73.1008 128.937L73.8273 128.678C73.8587 128.666 73.8843 128.643 73.8989 128.613C73.9134 128.583 73.9158 128.549 73.9054 128.517C73.4124 127.058 72.9707 125.583 72.5803 124.094C72.3374 123.166 72.023 122.104 71.6369 120.907C71.2813 119.802 70.9885 118.73 70.7586 117.692C70.6777 117.326 70.8085 117.089 71.1512 116.982C71.222 116.96 71.2502 116.913 71.2357 116.84C71.0796 116.097 70.789 115.474 70.6957 114.716C70.6133 114.051 70.4651 113.401 70.2511 112.767C70.0364 112.126 69.9714 111.513 69.8803 110.873C69.7415 109.878 69.3229 108.898 69.182 107.838C69.106 107.262 68.8154 106.812 68.72 106.206C68.4974 104.808 68.2718 103.411 68.0434 102.013C67.9219 101.279 67.5901 100.525 67.4817 99.8298C67.1593 97.7833 66.8296 95.7339 66.4927 93.6816C66.4812 93.6092 66.4443 93.5535 66.3821 93.5144C66.0207 93.2797 65.7973 92.943 65.712 92.5042C65.6967 92.4251 65.6659 92.3499 65.6214 92.2829C65.5768 92.2159 65.5195 92.1585 65.4526 92.114C65.3858 92.0695 65.3108 92.0388 65.2321 92.0237C65.1534 92.0087 65.0725 92.0095 64.9942 92.0262L63.7168 92.2956C63.6416 92.3115 63.6055 92.3579 63.6083 92.4346C63.6387 93.397 63.0792 93.9163 62.9122 94.7918C62.7907 95.4305 62.5131 95.9215 62.4372 96.5928C62.1163 99.3562 62.0931 101.957 62.3678 104.394C62.4589 105.198 62.4459 105.956 62.5977 106.63C63.1905 109.27 63.779 111.912 64.3631 114.555C64.5496 115.391 65.1351 116.219 65.4149 116.968C65.7951 117.984 66.0988 118.735 66.3258 119.221C66.5354 119.67 66.685 120.106 66.7747 120.527C66.9091 121.17 67.2778 121.631 67.4166 122.278C67.6096 123.175 68.0542 123.823 68.232 124.735C68.3708 125.439 68.6875 125.852 69.0757 126.397C69.286 126.69 69.1733 127.131 68.8089 127.223C68.6528 127.262 68.5964 127.359 68.6398 127.516C68.8378 128.217 68.7677 128.724 68.4294 129.037C67.7051 129.707 67.0168 130.414 66.3648 131.157C65.8255 131.77 65.3477 132.248 64.9313 132.591C64.3002 133.11 63.8491 133.718 63.2006 134.192C63.1385 134.237 63.111 134.298 63.1182 134.374C63.1464 134.672 63.1854 135.206 62.691 135.124C62.6599 135.119 62.628 135.12 62.5975 135.13C62.5671 135.139 62.539 135.154 62.5153 135.176C62.1915 135.472 62.031 135.835 62.0339 136.267C62.0341 136.283 62.0377 136.3 62.0445 136.315C62.0512 136.331 62.0609 136.344 62.073 136.356C62.0851 136.367 62.0994 136.376 62.115 136.382C62.1306 136.388 62.1473 136.391 62.164 136.391C62.6845 136.372 63.0618 136.186 63.2961 135.834C63.6539 135.296 63.9163 134.95 64.4585 134.496C64.864 134.157 65.1351 133.768 65.5819 133.482C66.1747 133.101 66.7682 132.721 67.3624 132.343C67.9277 131.983 68.4309 131.592 68.8718 131.172C69.333 130.732 69.787 130.283 70.2338 129.825C70.442 129.61 70.7499 129.473 70.9646 129.243C71.1989 128.988 71.3644 128.835 71.4613 128.785C71.7692 128.622 72.1018 128.544 72.4589 128.55C72.4983 128.551 72.5366 128.567 72.5673 128.593ZM11.9646 97.049C11.1969 97.8897 12.2726 98.7131 11.4355 99.7342C11.3892 99.7907 11.3639 99.8551 11.3596 99.9275C11.3205 100.463 11.2041 100.98 11.0104 101.479C10.8087 101.996 10.7979 102.359 10.7849 102.884C10.7834 102.939 10.8102 102.968 10.8651 102.971C11.0415 102.978 11.194 103.045 11.3227 103.171C11.3714 103.22 11.4375 103.248 11.507 103.249L12.4331 103.254C12.5083 103.254 12.5524 103.216 12.5654 103.141C12.6883 102.398 12.6731 101.665 12.5198 100.942C12.4302 100.516 12.3861 100.133 12.3875 99.7928C12.3875 99.4018 12.3702 99.0115 12.3355 98.6219C12.2943 98.1678 12.0319 97.6638 12.1186 97.1229C12.1217 97.1038 12.1186 97.0843 12.1097 97.0672C12.1008 97.0501 12.0866 97.0364 12.0693 97.0281C12.0519 97.0198 12.0323 97.0173 12.0135 97.0211C11.9946 97.0248 11.9775 97.0346 11.9646 97.049ZM10.1268 98.7341C10.1413 98.7437 10.1627 98.7426 10.1896 98.7309C10.2166 98.7191 10.2487 98.697 10.284 98.6657C10.3193 98.6344 10.3572 98.5946 10.3954 98.5485C10.4337 98.5024 10.4717 98.451 10.5071 98.3972C10.5425 98.3434 10.5748 98.2882 10.602 98.2348C10.6291 98.1814 10.6508 98.1308 10.6656 98.086C10.6803 98.0411 10.688 98.0029 10.6882 97.9734C10.6884 97.944 10.681 97.9239 10.6665 97.9143C10.652 97.9047 10.6306 97.9059 10.6037 97.9176C10.5767 97.9294 10.5447 97.9515 10.5093 97.9828C10.474 98.0141 10.4362 98.0539 10.3979 98.1C10.3596 98.146 10.3216 98.1975 10.2862 98.2513C10.2508 98.3051 10.2185 98.3603 10.1914 98.4137C10.1642 98.4671 10.1426 98.5177 10.1278 98.5625C10.113 98.6073 10.1053 98.6456 10.1051 98.675C10.105 98.7045 10.1123 98.7246 10.1268 98.7341ZM98.5616 98.6371C98.5587 98.6284 98.5573 98.6197 98.5573 98.611V98.6088C98.5601 98.6103 98.5616 98.6132 98.5616 98.6132C98.4705 99.5459 98.4423 100.191 98.477 100.549C98.5883 101.702 98.6751 101.7 98.7373 100.542C98.7647 100.006 98.7062 99.3714 98.5616 98.6371ZM138.24 99.6234C138.201 99.9036 138.171 100.349 138.301 100.621C138.311 100.644 138.316 100.643 138.316 100.618L138.319 99.6299C138.319 99.6195 138.316 99.6092 138.309 99.6013C138.303 99.5934 138.293 99.5884 138.283 99.5875C138.272 99.5867 138.262 99.59 138.254 99.5967C138.246 99.6034 138.241 99.613 138.24 99.6234ZM9.46844 102.319L9.71134 101.422C9.71306 101.414 9.71199 101.405 9.7083 101.397C9.70462 101.389 9.69853 101.382 9.69102 101.378C9.68351 101.374 9.67501 101.373 9.6669 101.375C9.65878 101.376 9.65152 101.381 9.64628 101.387L8.91542 102.274C8.86771 102.33 8.88072 102.359 8.95446 102.361L9.39688 102.372C9.43591 102.373 9.45977 102.356 9.46844 102.319ZM73.6365 130.603C73.3199 130.538 73.2526 130.255 73.322 129.977C73.3408 129.903 73.3177 129.887 73.2526 129.927C72.6779 130.284 72.0902 130.501 71.5741 130.922C69.8651 132.317 68.133 133.686 66.3778 135.031C66.3127 135.08 66.3207 135.099 66.4016 135.089C67.5294 134.946 68.5964 134.631 69.7805 134.989C69.9511 135.04 70.4492 135.275 71.2748 135.693C71.9991 136.062 72.7705 136.293 73.5888 136.384C75.2067 136.564 76.4407 137.366 77.7701 138.222C78.0564 138.407 78.438 138.485 78.6679 138.632C79.1277 138.932 79.7024 139.38 80.3921 139.975C80.7412 140.277 81.3615 140.492 81.7237 140.492C82.5246 140.489 83.2143 140.625 83.7926 140.901C84.7056 141.335 85.2977 141.415 86.2324 141.342C86.9611 141.285 87.4353 141.263 87.6551 141.276C88.0975 141.302 88.5378 141.343 88.9759 141.398C89.4414 141.456 89.8802 141.452 90.2923 141.387C91.2017 141.247 92.1125 141.104 93.0248 140.959C93.0917 140.949 93.1603 140.957 93.2244 140.981C93.6986 141.168 94.1114 141.234 94.4627 141.179C96.416 140.87 97.645 140.686 98.1495 140.625C98.5161 140.581 98.8956 140.725 99.3033 140.659C100.054 140.542 100.803 140.424 101.552 140.305C102.131 140.214 102.634 139.86 103.302 139.832C103.373 139.829 103.436 139.849 103.491 139.893C103.782 140.127 104.016 140.249 104.404 140.138C105.533 139.815 106.616 139.383 107.653 138.841C108.267 138.52 108.828 138.28 109.334 138.122C111.435 137.466 113.519 136.808 115.475 135.78C118.817 134.026 122.145 132.249 125.46 130.449C125.89 130.216 126.503 129.937 127.299 129.612C127.314 129.606 127.328 129.597 127.339 129.586C127.35 129.574 127.359 129.56 127.365 129.545C127.37 129.53 127.373 129.514 127.372 129.498C127.371 129.482 127.367 129.466 127.36 129.452L127.056 128.824C127.017 128.746 126.957 128.723 126.876 128.756C124.605 129.709 122.399 130.656 120.257 131.596C119.361 131.99 118.554 132.324 117.835 132.6C117.017 132.911 116.197 133.216 115.376 133.514C111.861 134.79 108.358 136.098 104.866 137.438C103.296 138.04 101.648 138.114 99.9235 137.659C97.4924 137.021 99.8238 134.968 100.611 134.285C101.957 133.118 103.323 131.959 104.708 130.809C104.766 130.762 104.771 130.707 104.725 130.646C104.341 130.15 103.968 129.502 103.608 128.702C102.543 126.338 101.755 123.991 101.246 121.659C101.044 120.731 100.819 119.886 100.572 119.126C99.7696 116.643 99.2664 114.081 98.4119 111.622C98.2833 111.25 98.2406 110.886 98.284 110.531C98.2915 110.471 98.3193 110.414 98.3629 110.371C98.4065 110.328 98.4633 110.301 98.5241 110.295C98.5848 110.288 98.6461 110.303 98.6977 110.335C98.7494 110.368 98.7886 110.417 98.8088 110.475C99.3886 112.146 99.886 113.871 100.301 115.65C100.606 116.961 101.04 118.228 101.602 119.452C101.632 119.518 101.68 119.568 101.745 119.602C102.062 119.762 102.24 119.997 102.279 120.305C102.377 121.093 102.591 121.881 102.921 122.669C102.924 122.678 102.93 122.685 102.938 122.689C102.946 122.694 102.955 122.695 102.964 122.692C102.973 122.69 102.98 122.685 102.984 122.677C102.988 122.669 102.989 122.66 102.986 122.652C102.451 119.487 101.59 116.407 100.403 113.41C100.095 112.634 99.8498 111.887 99.5809 111.12C99.1558 109.912 99.017 108.717 98.7893 107.468C98.73 107.139 98.5985 106.774 98.3946 106.373C97.6572 104.916 97.8784 103.562 97.7483 102.126C97.7353 101.987 97.7071 101.983 97.6637 102.115C97.2228 103.425 96.9437 104.71 96.8266 105.971C96.455 109.99 96.2909 114.117 96.3343 118.352C96.3473 119.611 96.3256 120.776 96.2692 121.848C96.1652 123.821 96.0936 125.432 95.9418 127.759C95.8637 128.935 95.8586 130.112 95.9266 131.29C95.996 132.543 95.8138 133.931 95.2695 135.057C95.1278 135.349 94.9536 135.543 94.7468 135.639C94.3839 135.807 94.0528 135.753 93.7535 135.478C93.2374 135 92.706 134.54 92.1595 134.099C91.6434 133.681 91.4786 133.219 91.2682 132.632C90.8012 131.331 90.3248 130.034 89.839 128.739C89.719 128.419 89.6344 128.066 89.5853 127.681C89.4595 126.69 89.0301 126.006 88.9346 125.085C88.8233 123.999 88.5985 122.939 88.2602 121.907C88.065 121.307 88.0867 120.657 87.8741 120.032C87.6732 119.441 87.5539 119.033 87.5163 118.809C87.3067 117.588 87.0992 116.366 86.8939 115.144C86.7529 114.309 86.4406 113.462 86.2433 112.595C86.0365 111.68 85.8724 111.043 85.751 110.686C85.3693 109.55 84.9218 108.441 84.4085 107.357C84.0507 106.601 83.5779 105.196 82.8622 104.227C82.816 104.163 82.7683 104.162 82.7191 104.223C82.4914 104.501 82.3027 104.679 82.1921 105.035C81.6803 106.692 81.342 108.224 81.1771 109.63C80.9299 111.715 80.7824 114.922 80.4137 117.711C80.1188 119.932 80.4007 121.924 80.1036 124.027C80.0039 124.731 80.1839 125.341 80.1578 126C80.1188 127.005 80.327 128.003 80.2945 129.032C80.2663 129.977 79.8824 131.051 79.8152 132.115C79.761 132.984 79.3966 135.656 78.0282 135.332C77.7375 135.263 77.4253 135.104 77.0913 134.857C76.4819 134.403 76.0785 133.529 75.6035 132.895C75.2912 132.481 75.0288 131.841 74.8163 130.974C74.7491 130.699 74.6037 130.434 74.517 130.151C74.5123 130.135 74.5027 130.121 74.4895 130.11C74.4763 130.1 74.4602 130.094 74.4434 130.093C74.4267 130.093 74.4101 130.097 74.3961 130.106C74.3821 130.116 74.3713 130.129 74.3652 130.145C74.2105 130.518 73.9676 130.671 73.6365 130.603ZM8.06745 103.662C8.14986 103.613 8.19902 103.548 8.21492 103.469C8.22649 103.401 8.20408 103.385 8.14769 103.423C8.01902 103.507 7.9301 103.613 7.88094 103.74C7.85203 103.816 7.87444 103.837 7.94817 103.803C8.01757 103.773 8.05733 103.726 8.06745 103.662ZM32.4352 106.443C32.2125 106.418 32.0405 106.497 31.919 106.68C31.8985 106.711 31.8904 106.749 31.8964 106.785C31.9025 106.822 31.9222 106.855 31.9516 106.877L32.5067 107.303C32.5389 107.328 32.563 107.363 32.5761 107.402C32.5892 107.44 32.5907 107.483 32.5805 107.523C32.4439 108.04 31.5091 109.228 32.793 109.23C33.8441 109.232 34.8981 109.229 35.955 109.224C36.0244 109.224 36.0873 109.203 36.1437 109.163C37.343 108.283 38.7808 109.343 39.8739 109.88C40.5115 110.193 41.084 110.143 41.7693 110.149C41.7863 110.149 41.8036 110.154 41.8192 110.164L42.2963 110.471C42.3182 110.485 42.3435 110.493 42.3697 110.494C42.3958 110.495 42.4218 110.489 42.4449 110.476C42.468 110.464 42.4873 110.445 42.5009 110.422C42.5144 110.399 42.5217 110.373 42.5219 110.347L42.5197 108.085C42.5198 108.057 42.5298 108.03 42.5479 108.008C42.5661 107.986 42.5914 107.971 42.6195 107.966C42.8768 107.916 43.0489 107.78 43.1356 107.555C43.1493 107.52 43.1527 107.482 43.1454 107.445C43.1381 107.408 43.1204 107.374 43.0944 107.347C42.6368 106.866 42.9231 106.215 43.1595 105.704C43.185 105.65 43.1933 105.59 43.1833 105.53C43.1168 105.139 43.1927 104.779 43.4111 104.451C43.4411 104.406 43.4584 104.354 43.4611 104.3C43.4637 104.246 43.4517 104.193 43.4263 104.146C43.4008 104.098 43.3629 104.059 43.3167 104.031C43.2704 104.004 43.2176 103.99 43.1638 103.99L33.3113 104.007C33.1815 104.007 33.057 104.059 32.9648 104.15C32.8726 104.242 32.8202 104.366 32.819 104.496L32.8104 105.261C32.8104 105.329 32.7887 105.389 32.7453 105.441C32.5241 105.703 32.4489 106.007 32.5198 106.352C32.5218 106.363 32.5211 106.376 32.5177 106.387C32.5143 106.399 32.5082 106.409 32.5001 106.418C32.4919 106.427 32.4817 106.434 32.4705 106.438C32.4592 106.442 32.4472 106.444 32.4352 106.443ZM10.1104 105.648C9.95713 105.215 9.98532 104.791 10.195 104.377C10.2253 104.316 10.2109 104.27 10.1516 104.238L9.99327 104.149C9.93833 104.117 9.90074 104.131 9.8805 104.192C9.54363 105.219 9.06578 106.444 8.44698 107.866C8.2995 108.205 8.13034 108.477 7.9395 108.683C7.87877 108.748 7.89251 108.783 7.9807 108.787C8.5077 108.811 9.85664 108.578 9.527 109.649C9.50242 109.731 9.52917 109.787 9.60724 109.819L9.73953 109.875C9.84074 109.917 9.89568 109.883 9.90436 109.773C10.0012 108.538 10.1697 107.432 10.4097 106.456C10.4834 106.159 10.4263 105.945 10.2383 105.815C10.1776 105.773 10.135 105.717 10.1104 105.648ZM141.552 107.46C141.606 107.005 141.684 106.671 141.561 106.199C141.538 106.113 141.515 106.113 141.494 106.199C141.381 106.624 141.401 107.044 141.554 107.46V107.462L141.552 107.464C141.552 107.464 141.552 107.462 141.552 107.46ZM80.7 106.341C80.5554 106.551 80.5005 106.781 80.5352 107.032C80.5554 107.179 80.5836 107.181 80.6198 107.036C80.6877 106.768 80.7188 106.494 80.713 106.215L80.7152 106.213H80.7174V106.286C80.7174 106.307 80.7116 106.325 80.7 106.341ZM4.81099 107.693C4.82614 107.707 4.8938 107.663 4.99909 107.572C5.10438 107.48 5.23869 107.348 5.37245 107.204C5.50621 107.061 5.62848 106.917 5.71236 106.806C5.79623 106.694 5.83485 106.623 5.81971 106.609C5.80456 106.595 5.7369 106.639 5.6316 106.73C5.52631 106.822 5.39201 106.954 5.25824 107.098C5.12448 107.241 5.00222 107.385 4.91834 107.496C4.83446 107.608 4.79585 107.679 4.81099 107.693ZM2.38758 108.381L2.48951 108.428C2.57047 108.468 2.603 108.443 2.5871 108.355C2.57553 108.292 2.54445 108.241 2.49384 108.2C2.3789 108.107 1.89528 108.111 1.68057 108.024C1.60828 107.995 1.54322 108.007 1.48539 108.059L1.30755 108.222C1.29641 108.233 1.28867 108.247 1.28532 108.262C1.28197 108.277 1.28315 108.292 1.28872 108.307C1.29429 108.321 1.30399 108.334 1.31661 108.343C1.32922 108.351 1.34419 108.356 1.3596 108.357L2.29866 108.359C2.32866 108.359 2.35911 108.366 2.38758 108.381ZM1.53961 109.224C1.61334 109.247 1.62274 109.231 1.5678 109.176C1.38707 108.999 1.17743 108.87 0.938873 108.789C0.680072 108.704 0.664891 108.749 0.89333 108.924C1.04225 109.038 1.25767 109.138 1.53961 109.224ZM141.196 109.71C141.189 109.927 141.222 110.072 141.294 110.143C141.349 110.196 141.382 110.185 141.392 110.108C141.421 109.888 141.355 109.755 141.196 109.71C141.234 109.463 141.214 109.264 141.136 109.115C141.092 109.032 141.056 109.036 141.027 109.126C140.943 109.391 141 109.586 141.196 109.71ZM2.88855 109.571C3.03313 109.678 3.19868 109.701 3.38519 109.639C3.47772 109.608 3.47772 109.578 3.38519 109.547L2.45264 109.245C2.44045 109.24 2.4269 109.24 2.41469 109.245C2.40247 109.25 2.39249 109.259 2.38674 109.271C2.38099 109.283 2.3799 109.296 2.38367 109.309C2.38744 109.321 2.39581 109.332 2.4071 109.339C2.50975 109.41 2.61963 109.463 2.73674 109.497C2.79126 109.513 2.8426 109.538 2.88855 109.571ZM100.093 109.558C99.9929 109.371 99.9655 109.381 100.01 109.589C100.096 109.981 100.203 110.368 100.333 110.751C100.336 110.756 100.339 110.761 100.344 110.763C100.349 110.766 100.355 110.768 100.361 110.767C100.367 110.766 100.372 110.763 100.376 110.759C100.38 110.755 100.383 110.75 100.383 110.744C100.391 110.323 100.294 109.927 100.093 109.558ZM136.623 110.511C136.626 110.511 136.63 110.502 136.634 110.484C136.638 110.467 136.643 110.441 136.648 110.408C136.653 110.374 136.657 110.335 136.662 110.292C136.667 110.249 136.671 110.202 136.675 110.155C136.682 110.061 136.687 109.969 136.687 109.902C136.688 109.835 136.685 109.797 136.679 109.796C136.676 109.796 136.672 109.805 136.668 109.822C136.663 109.84 136.659 109.866 136.654 109.899C136.649 109.932 136.644 109.972 136.64 110.015C136.635 110.058 136.631 110.105 136.627 110.152C136.62 110.246 136.615 110.337 136.614 110.405C136.613 110.472 136.616 110.51 136.623 110.511ZM6.98743 110.071L6.84646 109.984C6.81627 109.964 6.77931 109.956 6.74372 109.964C6.70813 109.971 6.67683 109.992 6.6567 110.022C6.63657 110.052 6.62926 110.089 6.63638 110.125C6.64349 110.161 6.66446 110.192 6.69465 110.212C6.92888 110.375 7.13273 110.527 7.43852 110.529C7.96046 110.534 8.48312 110.534 9.00651 110.531C9.08747 110.53 9.12723 110.489 9.12579 110.41L9.12145 110.242C9.12117 110.227 9.11775 110.211 9.11138 110.196C9.10501 110.181 9.09583 110.168 9.08435 110.157C9.07287 110.146 9.05932 110.137 9.04448 110.131C9.02963 110.126 9.01378 110.123 8.99783 110.123L7.2043 110.132C7.12623 110.133 7.05394 110.113 6.98743 110.071ZM140.372 112.539C140.206 112.631 140.116 112.776 140.101 112.973C140.1 113.019 140.114 113.063 140.143 113.098C140.171 113.133 140.211 113.157 140.256 113.165C140.3 113.172 140.346 113.163 140.385 113.14C140.423 113.116 140.452 113.079 140.466 113.036L140.934 111.377C140.938 111.362 140.937 111.345 140.929 111.332C140.921 111.318 140.909 111.308 140.894 111.304C140.879 111.299 140.863 111.301 140.849 111.309C140.836 111.316 140.826 111.329 140.821 111.344L140.492 112.389C140.471 112.456 140.432 112.505 140.372 112.539ZM136.534 116.182C136.554 116.239 136.568 116.237 136.575 116.178C136.599 115.998 136.598 115.818 136.571 115.637C136.545 115.476 136.518 115.476 136.49 115.637C136.458 115.824 136.473 116.005 136.534 116.182ZM66.56 123.288C66.6453 123.681 66.8166 124.03 67.074 124.335C67.0821 124.347 67.0942 124.354 67.1078 124.357C67.1215 124.36 67.1356 124.357 67.1473 124.349C67.159 124.342 67.1673 124.33 67.1706 124.317C67.1739 124.303 67.1719 124.289 67.165 124.277C66.9872 123.877 66.7703 123.525 66.6446 123.145C65.9997 121.193 65.2819 119.268 64.491 117.373C64.4664 117.313 64.4267 117.278 64.3717 117.268C64.3182 117.26 64.2987 117.281 64.3132 117.333C64.3884 117.601 64.5113 118.142 64.6819 118.954C64.7881 119.465 65.2457 120.614 65.751 121.548C66.0265 122.059 66.0048 122.634 66.4711 123.119C66.5163 123.166 66.5472 123.224 66.56 123.288ZM136.263 117.618L136.117 117.599C136.112 117.598 136.106 117.598 136.101 117.6C136.096 117.601 136.091 117.604 136.087 117.607C136.083 117.611 136.079 117.615 136.076 117.62C136.074 117.625 136.072 117.63 136.072 117.635L136.067 117.662C136.046 117.83 136.027 117.996 136.012 118.152C135.997 118.307 135.986 118.449 135.979 118.568C135.973 118.688 135.971 118.782 135.974 118.847C135.978 118.912 135.986 118.945 135.998 118.945L136.039 118.952C136.051 118.954 136.068 118.924 136.087 118.861C136.106 118.799 136.129 118.707 136.152 118.589C136.176 118.472 136.201 118.332 136.226 118.178C136.25 118.024 136.274 117.858 136.295 117.69L136.299 117.664C136.3 117.658 136.3 117.653 136.298 117.648C136.297 117.642 136.294 117.637 136.291 117.633C136.287 117.629 136.283 117.625 136.278 117.623C136.273 117.62 136.268 117.619 136.263 117.618ZM135.391 126.067C134.876 126.152 134.41 126.351 133.992 126.662C133.923 126.713 133.91 126.775 133.955 126.849L134.031 126.971C134.059 127.016 134.075 127.067 134.079 127.12C134.083 127.173 134.074 127.226 134.053 127.275C134.032 127.323 134 127.366 133.959 127.399C133.918 127.433 133.87 127.455 133.818 127.466C132.989 127.635 132.262 127.948 131.639 128.404C130.915 128.937 130.549 129.206 130.542 129.21C129.327 129.978 128.106 130.736 126.879 131.483C126.438 131.751 126.038 131.958 125.679 132.104C124.252 132.684 122.994 133.462 121.635 134.172C120.656 134.683 119.351 135.061 118.26 135.669C117.293 136.209 116.302 136.706 115.289 137.157C114.981 137.296 114.664 137.255 114.346 137.407C114.026 137.559 113.86 137.637 113.847 137.642C112.827 138.031 111.973 138.693 110.837 138.798C108.997 138.965 107.534 140.103 105.757 140.429C105.235 140.525 104.712 140.611 104.187 140.688C103.664 140.763 103.043 140.903 102.324 141.107C101.288 141.4 100.231 141.568 99.1536 141.611C98.2182 141.65 97.5155 141.707 97.0457 141.78C96.0509 141.935 95.054 142.09 94.055 142.245C93.9798 142.257 93.9082 142.248 93.8403 142.219C93.3805 142.027 92.9374 141.964 92.5109 142.03C91.7157 142.156 90.9197 142.282 90.1231 142.408C89.7617 142.466 89.3633 142.462 88.9281 142.395C87.9566 142.247 86.9141 142.228 85.8008 142.337C84.822 142.431 83.8989 142.203 83.0314 141.654C82.9707 141.615 82.9049 141.594 82.834 141.589C82.1314 141.547 81.4352 141.447 80.7456 141.289C79.9713 141.113 79.3294 140.384 78.7135 139.899C78.1149 139.425 77.3559 139.178 76.6857 138.715C75.7033 138.039 74.8033 137.553 73.5584 137.396C72.5088 137.263 71.5206 136.948 70.5938 136.451C70.1355 136.207 69.7704 136.047 69.4986 135.971C68.968 135.825 68.5675 135.775 68.2971 135.821C67.2193 136.002 65.339 136.076 64.5778 136.986C64.277 137.346 63.99 137.72 63.7168 138.107C63.4406 138.499 63.2693 138.908 63.2028 139.332C62.9078 141.235 63.4703 142.796 64.8901 144.016C65.4236 144.472 66.1371 144.868 66.7899 145.272C67.3219 145.602 67.8294 145.853 68.3123 146.025C70.0111 146.634 71.8422 147.026 73.8057 147.201C76.1088 147.405 78.3123 147.471 80.4159 147.398C83.1984 147.303 86.278 146.758 89.1819 146.282C90.2467 146.108 91.2921 146.186 92.3786 146.019C94.475 145.693 96.5729 145.372 98.6722 145.057C99.672 144.907 100.581 144.535 101.611 144.379C102.89 144.183 104.17 143.988 105.449 143.792C106.966 143.56 108.232 143.301 109.247 143.014C110.759 142.584 112.243 142.07 113.699 141.472C114.831 141.007 116.231 140.567 117.898 140.153C120.557 139.493 123.244 138.205 125.97 137.273C127.235 136.839 128.152 136.446 128.72 136.093C129.991 135.305 130.784 134.745 131.099 134.414C132.52 132.925 133.936 131.43 135.345 129.93C135.52 129.744 135.705 129.502 135.9 129.202C136.328 128.55 136.898 127.987 137.254 127.357C137.713 126.545 138.18 125.737 138.653 124.933C138.921 124.475 139.315 123.441 139.834 121.831C140.168 120.794 140.275 119.673 140.463 118.598C140.515 118.301 140.479 118.289 140.353 118.563C140.174 118.95 139.921 119.277 139.594 119.545C139.532 119.594 139.488 119.657 139.464 119.732C139.216 120.46 139.127 121.066 138.659 121.705C138.587 121.802 138.606 121.826 138.718 121.778C138.952 121.68 139.114 121.726 139.206 121.917C139.685 122.932 138.366 123.532 137.625 122.893C137.571 122.847 137.52 122.849 137.473 122.902L135.508 125.059C135.486 125.084 135.473 125.115 135.471 125.148C135.47 125.181 135.48 125.213 135.499 125.239C135.668 125.459 135.68 125.702 135.534 125.967C135.519 125.993 135.498 126.016 135.474 126.033C135.449 126.051 135.42 126.062 135.391 126.067ZM138.312 122.013L138.024 122.152C138.001 122.163 137.982 122.18 137.97 122.202C137.957 122.223 137.951 122.248 137.953 122.273C137.954 122.298 137.963 122.321 137.978 122.341C137.993 122.361 138.013 122.376 138.037 122.384L138.306 122.48C138.449 122.531 138.511 122.482 138.492 122.332L138.462 122.096C138.45 121.999 138.4 121.971 138.312 122.013ZM72.4762 129.095L72.5044 129.18C72.5261 129.242 72.568 129.264 72.6302 129.245L72.8167 129.193C72.9541 129.154 72.957 129.108 72.8254 129.056L72.2854 128.839C72.2743 128.834 72.262 128.834 72.2508 128.838C72.2396 128.843 72.2304 128.851 72.225 128.861C72.2195 128.872 72.2183 128.884 72.2214 128.896C72.2246 128.907 72.2319 128.917 72.242 128.924C72.3056 128.964 72.3584 128.994 72.4003 129.013C72.4379 129.029 72.4632 129.056 72.4762 129.095ZM69.0353 131.36C69.0237 131.348 68.9845 131.364 68.9265 131.404C68.8685 131.445 68.7964 131.506 68.726 131.575C68.6911 131.609 68.6577 131.644 68.6277 131.677C68.5977 131.711 68.5717 131.743 68.5512 131.771C68.5306 131.8 68.5159 131.824 68.5079 131.842C68.4999 131.861 68.4987 131.873 68.5045 131.879C68.5162 131.891 68.5553 131.875 68.6133 131.835C68.6713 131.795 68.7434 131.734 68.8138 131.665C68.8487 131.631 68.882 131.596 68.912 131.562C68.942 131.528 68.9681 131.496 68.9886 131.468C69.0092 131.44 69.0239 131.416 69.0319 131.397C69.0399 131.379 69.0411 131.366 69.0353 131.36ZM94.5885 134.711C94.8097 134.452 94.9319 134.117 94.955 133.705C94.9561 133.693 94.9531 133.681 94.9464 133.671C94.9398 133.661 94.9298 133.654 94.9182 133.65C94.9065 133.646 94.8938 133.647 94.882 133.651C94.8702 133.655 94.8601 133.663 94.8531 133.673L94.376 134.403C94.3268 134.478 94.2567 134.518 94.1656 134.522L93.9097 134.533C93.8519 134.536 93.8388 134.561 93.8707 134.609C94.1049 134.965 94.3442 134.999 94.5885 134.711ZM64.478 134.861C64.3002 134.9 64.1744 134.994 64.1006 135.141C64.0674 135.208 64.0833 135.224 64.1484 135.189C64.2944 135.109 64.4043 135 64.478 134.861C64.7542 134.849 64.9305 134.744 65.0072 134.544C65.0375 134.466 65.0187 134.452 64.9508 134.503L64.478 134.861ZM62.0816 136.51C62.0252 136.432 61.9514 136.383 61.8604 136.364C61.7722 136.346 61.7042 136.374 61.6565 136.449L61.1469 137.249C61.0876 137.341 61.1129 137.383 61.2228 137.375C61.697 137.338 62.0772 137.145 62.3635 136.795C62.417 136.729 62.4047 136.681 62.3266 136.649L62.1922 136.597C62.1482 136.578 62.1099 136.548 62.0816 136.51Z" fill="#151515"/>
<path d="M74.0683 43.4141C75.0009 43.0984 75.9602 42.9065 76.9462 42.8384C77.0033 42.8347 77.0574 42.8118 77.0995 42.7735C77.1417 42.7352 77.1695 42.6838 77.1783 42.6277C77.6829 39.4037 78.3089 36.2218 79.0564 33.0818C79.1764 32.5807 79.373 32.1165 79.6463 31.6892C79.6882 31.6226 79.6788 31.5639 79.6181 31.5133C79.5212 31.4322 79.4865 31.3264 79.514 31.1961C79.527 31.1309 79.566 31.0889 79.6311 31.0701L80.6222 30.7833C80.646 30.7758 80.6713 30.7736 80.6964 30.777C80.7215 30.7804 80.7458 30.7892 80.7675 30.8029L82.2184 31.7023C82.2514 31.723 82.2892 31.7348 82.3282 31.7366C82.3671 31.7383 82.4059 31.7299 82.4406 31.7122C82.4753 31.6944 82.5049 31.668 82.5264 31.6354C82.5478 31.6028 82.5606 31.5652 82.5632 31.5263C82.5748 31.3597 82.7143 31.2518 82.9818 31.2026C83.1654 31.1693 83.3353 31.2352 83.4914 31.4003C83.542 31.4539 83.6042 31.4821 83.6779 31.485C84.9358 31.5386 86.1163 31.2678 87.2195 30.6725C87.4927 30.5262 87.9293 30.0483 88.5294 29.2387C88.9024 28.7368 89.759 28.9628 89.6723 29.6623C89.6217 30.0736 89.4026 30.5204 89.0152 31.0027C88.9674 31.0607 88.9436 31.1273 88.9436 31.2026C88.9392 31.5545 88.7484 31.8123 88.371 31.976C86.3657 32.8522 84.2946 33.5243 82.1577 33.9921C81.2135 34.1992 80.4726 34.0283 79.9347 33.4794C79.6629 33.2027 79.5046 33.257 79.4598 33.6423C79.1244 36.5375 78.6002 39.4015 77.8875 42.2345C77.6923 43.0035 77.7335 44.055 77.1371 44.7871C76.6686 45.3636 76.2869 45.9936 75.992 46.6772C75.9616 46.7496 75.9703 46.8155 76.018 46.8749C76.8349 47.8786 77.6287 48.8917 78.3993 49.9142C78.5901 50.1662 78.7072 50.3675 78.7506 50.5181C78.8287 50.789 78.7954 51.0337 78.6508 51.2524C78.3581 51.6956 77.9156 51.348 77.7313 50.9961C77.1949 49.9707 76.5074 49.0546 75.6689 48.2479C75.6313 48.2117 75.5973 48.2146 75.5669 48.2566C74.9655 49.0981 74.4732 49.996 74.09 50.9505C74.069 51.0028 74.0376 51.0504 73.9978 51.0902C73.9579 51.13 73.9104 51.1614 73.8581 51.1823C73.8058 51.2032 73.7498 51.2133 73.6935 51.2119C73.6372 51.2105 73.5817 51.1977 73.5305 51.1742C72.8278 50.8484 73.3071 49.5992 73.6064 49.1473C74.0676 48.4507 74.4616 47.7171 74.7884 46.9466C74.8173 46.88 74.8122 46.8155 74.7732 46.7532C74.4811 46.2927 74.1768 45.8386 73.8601 45.3911C73.5421 44.9378 73.2869 44.4721 73.0946 43.9942C71.6387 40.3574 69.8748 36.867 67.8029 33.5228C67.7973 33.5134 67.7895 33.5054 67.7803 33.4994C67.7711 33.4935 67.7606 33.4897 67.7497 33.4884C67.7388 33.4872 67.7278 33.4885 67.7175 33.4922C67.7071 33.4958 67.6978 33.5019 67.6901 33.5098C66.7164 34.5222 65.7383 34.9936 64.4501 35.4954C63.2464 35.9625 62.2618 36.4643 60.8695 36.221C60.3028 36.1211 59.8473 36.0624 59.5032 36.0451C58.4492 35.9864 57.6641 35.7844 57.2651 34.8002C57.2289 34.7108 57.229 34.6108 57.2654 34.5212C57.3019 34.4315 57.3717 34.3594 57.4603 34.3201C57.9143 34.1188 58.4022 34.0254 58.9242 34.0399C59.6117 34.0594 60.1365 33.8487 60.7871 33.8422C61.8426 33.8349 62.8806 33.7017 63.9014 33.4424C64.1746 33.3744 64.4255 33.2302 64.6539 33.0101C65.4448 32.2468 66.305 31.5792 67.2347 31.0071C67.2581 30.9924 67.2843 30.9826 67.3117 30.9784C67.339 30.9742 67.3669 30.9755 67.3937 30.9824C67.4205 30.9893 67.4455 31.0016 67.4674 31.0186C67.4893 31.0355 67.5075 31.0567 67.521 31.0809C67.735 31.4647 67.9764 31.8485 68.2453 32.2323C68.5511 32.669 68.5338 33.1231 68.7615 33.5749C69.9904 35.9879 71.2078 38.4058 72.4136 40.8289C72.5611 41.1243 73.0209 41.7891 73.7929 42.8232C73.8695 42.926 73.9093 43.0854 73.9122 43.3012C73.9123 43.32 73.9168 43.3385 73.9254 43.3552C73.934 43.3719 73.9464 43.3863 73.9616 43.3974C73.9768 43.4084 73.9944 43.4156 74.013 43.4185C74.0315 43.4214 74.0505 43.4199 74.0683 43.4141ZM74.218 44.0007L73.7148 44.0289C73.6983 44.0301 73.6823 44.0356 73.6685 44.045C73.6548 44.0544 73.6439 44.0673 73.6368 44.0824C73.6297 44.0974 73.6268 44.1141 73.6283 44.1307C73.6298 44.1473 73.6357 44.1631 73.6454 44.1767L73.7647 44.3396C73.8095 44.399 73.858 44.4026 73.91 44.3505L74.2332 44.0376C74.2361 44.0346 74.2382 44.0307 74.239 44.0266C74.2398 44.0224 74.2393 44.0181 74.2377 44.0141C74.2361 44.0102 74.2334 44.0068 74.2299 44.0045C74.2264 44.0021 74.2222 44.0008 74.218 44.0007Z" fill="#151515"/>
<path d="M100.426 30.5867C100.407 30.5882 100.387 30.594 100.365 30.6041C100.314 30.6274 100.263 30.6275 100.223 30.6044C100.183 30.5813 100.156 30.5367 100.149 30.4797C100.141 30.4227 100.154 30.3575 100.183 30.2975C100.212 30.2375 100.256 30.1871 100.307 30.1566C100.606 29.9828 100.899 30.0038 101.187 30.2196C101.232 30.2533 101.264 30.3007 101.278 30.3543C101.365 30.6613 101.327 30.9502 101.163 31.2211C101.153 31.2385 101.142 31.2392 101.129 31.2232L100.591 30.5867C100.59 30.583 100.572 30.5809 100.542 30.5809C100.511 30.5809 100.47 30.583 100.426 30.5867Z" fill="#151515"/>
<path d="M97.2994 37.4426C98.1409 36.3172 98.751 35.2817 99.1298 34.3359C99.1848 34.1983 99.1371 34.0789 98.9867 33.9775C98.9589 33.9582 98.9366 33.9323 98.9218 33.9022C98.907 33.8722 98.9002 33.839 98.9021 33.8058C98.9542 32.8304 100.73 32.8912 100.403 34.0492C100.212 34.7255 99.9409 35.3693 99.5896 35.9805C98.8349 37.2898 98.0101 38.5506 97.1151 39.7628C96.7609 40.2436 96.4283 40.786 96.1175 41.39C95.2876 43.0063 94.3442 44.3163 93.2873 45.32C92.1437 46.4063 91.3145 47.2485 90.7998 47.8466C90.7506 47.9045 90.721 47.9712 90.7109 48.0465C90.6256 48.6417 90.335 49.0632 89.839 49.3109C89.0511 49.7048 88.352 50.098 87.7419 50.4905C86.873 51.051 86.2404 51.4377 85.8443 51.6506C85.1893 52.0011 84.5394 52.3603 83.8946 52.7282C82.9295 53.28 81.9341 53.5972 80.9083 53.973C80.4615 54.136 79.8391 54.0947 79.388 54.5987C79.3388 54.6523 79.2803 54.6899 79.2123 54.7117C78.3774 54.981 78.2559 53.9274 78.733 53.5407C79.1379 53.2134 80.0646 52.8057 81.5133 52.3176C82.9085 51.8469 84.6262 50.9496 86.6662 49.6259C86.7311 49.5835 86.7812 49.5211 86.8093 49.4477L86.844 49.3543C86.8672 49.2891 86.904 49.2804 86.9547 49.3282C87.0732 49.4441 87.1903 49.4499 87.306 49.3456C87.3681 49.2906 87.4404 49.2674 87.5229 49.2761C88.1185 49.3413 88.4597 49.1219 88.5465 48.6178C88.6332 48.1051 88.6824 47.8314 88.694 47.7966C89.0822 46.6126 89.4378 45.4178 89.9735 44.2946C90.5041 43.1794 91.042 42.0671 91.587 40.9577C91.9926 40.1321 93.5519 38.5028 94.5994 39.2371C94.6572 39.2762 94.7064 39.2675 94.7469 39.211C95.0375 38.8091 95.2153 38.2985 95.636 38.0313C95.6968 37.9922 95.7474 37.943 95.7878 37.8836L96.4927 36.869C96.543 36.7982 96.6158 36.7464 96.6991 36.722C96.7825 36.6977 96.8716 36.7022 96.9521 36.7348C97.0326 36.7675 97.0997 36.8264 97.1427 36.902C97.1856 36.9776 97.2019 37.0655 97.1888 37.1515C97.1729 37.2514 97.1773 37.3427 97.2018 37.4252C97.2235 37.4947 97.2561 37.5005 97.2994 37.4426Z" fill="#151515"/>
<path d="M34.7006 104.518L33.8592 105.761C33.8086 105.835 33.7442 105.849 33.6662 105.804C33.1861 105.531 33.051 105.095 33.2606 104.499C33.2881 104.422 33.3416 104.384 33.4211 104.386L34.6312 104.388C34.7353 104.388 34.7585 104.431 34.7006 104.518Z" fill="#151515"/>
<path d="M38.4788 105.275L38.9386 105.297C39.0239 105.3 39.0492 105.341 39.0145 105.421C39.0058 105.441 38.9964 105.461 38.9863 105.481C38.9779 105.498 38.9647 105.513 38.9482 105.523C38.9317 105.532 38.9127 105.538 38.8931 105.538C38.2063 105.534 37.5195 105.531 36.8328 105.531C36.1258 105.531 35.5164 105.264 34.7703 105.247C34.7509 105.246 34.7318 105.24 34.7152 105.23C34.6986 105.22 34.685 105.206 34.6758 105.189C34.6665 105.172 34.662 105.153 34.6626 105.133C34.6632 105.114 34.6689 105.096 34.6792 105.08C35.0031 104.56 35.538 104.358 36.2841 104.476C37.1545 104.613 37.8282 104.859 38.3053 105.212C38.3574 105.251 38.4152 105.272 38.4788 105.275Z" fill="#151515"/>
<path d="M38.9693 104.993C38.5211 104.907 38.1091 104.739 37.7331 104.487C37.6681 104.443 37.6753 104.421 37.7548 104.421L42.0337 104.439C42.0532 104.438 42.0723 104.444 42.0873 104.457C42.1023 104.469 42.1121 104.487 42.1148 104.506C42.1175 104.525 42.113 104.545 42.102 104.561C42.091 104.577 42.0744 104.589 42.0554 104.593C41.2732 104.823 40.5431 105.043 39.865 105.253C39.6004 105.336 39.3633 105.28 39.1537 105.086C39.1016 105.038 39.0402 105.007 38.9693 104.993Z" fill="#151515"/>
<path d="M41.7758 105.782C41.7469 105.789 41.7158 105.797 41.6825 105.806C41.6633 105.811 41.6428 105.81 41.6244 105.802C41.6061 105.794 41.5912 105.78 41.5823 105.762C41.5735 105.744 41.5713 105.723 41.5761 105.704C41.581 105.684 41.5925 105.667 41.6088 105.656L42.3179 105.128C42.7546 104.802 42.8905 104.899 42.7257 105.419L42.2854 106.811C42.2749 106.845 42.2537 106.874 42.2251 106.895C42.1965 106.916 42.162 106.926 42.1268 106.926C42.0916 106.925 42.0576 106.913 42.0299 106.891C42.0022 106.869 41.9822 106.839 41.9731 106.805L41.8907 106.509C41.8676 106.431 41.8828 106.362 41.9363 106.301C42.0476 106.175 42.0635 106.034 41.984 105.877C41.9649 105.841 41.9342 105.811 41.8965 105.794C41.8589 105.777 41.8164 105.772 41.7758 105.782Z" fill="#151515"/>
<path d="M41.3088 105.379C41.037 105.687 40.6972 105.861 40.2895 105.9C40.2585 105.903 40.2273 105.895 40.2018 105.877C40.1762 105.858 40.1581 105.832 40.1509 105.801C40.1437 105.771 40.1478 105.74 40.1626 105.712C40.1773 105.685 40.2017 105.665 40.2309 105.655L41.2372 105.274C41.2508 105.269 41.2658 105.269 41.2796 105.273C41.2935 105.278 41.3055 105.286 41.3138 105.298C41.322 105.31 41.326 105.325 41.3251 105.339C41.3242 105.354 41.3184 105.368 41.3088 105.379Z" fill="#151515"/>
<path d="M35.579 105.825L34.4814 105.585C34.3878 105.565 34.2954 105.624 34.275 105.718L34.2694 105.744C34.249 105.838 34.3083 105.93 34.402 105.951L35.4996 106.19C35.5932 106.211 35.6856 106.151 35.7061 106.058L35.7116 106.032C35.732 105.938 35.6727 105.846 35.579 105.825Z" fill="#151515"/>
<path d="M37.7726 106.398C37.3758 106.433 37.0418 106.659 36.6688 106.394C36.6545 106.383 36.644 106.368 36.6389 106.351C36.6338 106.333 36.6343 106.315 36.6404 106.298C36.6464 106.281 36.6577 106.266 36.6725 106.256C36.6874 106.246 36.705 106.241 36.723 106.242L37.7705 106.318C37.7811 106.318 37.7915 106.323 37.7992 106.33C37.807 106.338 37.8115 106.348 37.8118 106.359C37.812 106.37 37.8081 106.38 37.8007 106.387C37.7934 106.395 37.7833 106.399 37.7726 106.398Z" fill="#151515"/>
<path d="M40.5911 106.668C40.7038 106.595 40.8043 106.613 40.8925 106.72C40.902 106.732 40.9076 106.747 40.9089 106.762C40.9101 106.777 40.9068 106.793 40.8994 106.806C40.892 106.819 40.8808 106.83 40.8673 106.837C40.8537 106.845 40.8383 106.848 40.8231 106.846L40.6258 106.822C40.6089 106.82 40.5931 106.812 40.5806 106.8C40.5681 106.789 40.5593 106.774 40.5556 106.757C40.5518 106.74 40.5532 106.723 40.5595 106.707C40.5659 106.691 40.5769 106.677 40.5911 106.668Z" fill="#151515"/>
<path d="M41.1049 107.06L41.1721 106.949C41.1878 106.923 41.212 106.904 41.2405 106.894C41.2689 106.884 41.3 106.884 41.3282 106.895L41.981 107.129C42.0226 107.144 42.0576 107.173 42.0798 107.212C42.1019 107.25 42.1098 107.295 42.102 107.338C42.0942 107.382 42.0712 107.421 42.0371 107.449C42.0031 107.477 41.9601 107.493 41.916 107.492C41.556 107.49 40.593 107.559 40.2894 107.357C40.2301 107.318 40.2352 107.294 40.3046 107.283L40.901 107.194C40.9892 107.181 41.0572 107.136 41.1049 107.06Z" fill="#151515"/>
<path d="M34.1206 107.209C34.1236 107.2 34.13 107.192 34.1385 107.188C34.147 107.183 34.1569 107.182 34.1661 107.185L34.1921 107.192C34.6445 107.328 35.0757 107.469 35.3911 107.581C35.7066 107.694 35.8806 107.771 35.8751 107.793L35.8664 107.824C35.8565 107.845 35.6685 107.812 35.3435 107.731C35.0184 107.65 34.5827 107.528 34.1314 107.392L34.1075 107.385C34.1028 107.384 34.0984 107.382 34.0945 107.379C34.0907 107.376 34.0874 107.372 34.085 107.368C34.0826 107.363 34.081 107.359 34.0804 107.354C34.0798 107.349 34.0802 107.344 34.0815 107.339L34.1206 107.209Z" fill="#151515"/>
<path d="M33.9136 107.347C33.6187 107.481 33.3114 107.51 32.9919 107.431C32.9768 107.427 32.9637 107.418 32.9548 107.406C32.9459 107.393 32.9419 107.377 32.9435 107.362C32.9451 107.346 32.9521 107.332 32.9634 107.321C32.9747 107.31 32.9894 107.304 33.0049 107.303L33.8941 107.262C33.9041 107.261 33.9139 107.264 33.9218 107.27C33.9297 107.276 33.9352 107.285 33.9375 107.295C33.9398 107.305 33.9386 107.315 33.9343 107.325C33.93 107.334 33.9226 107.342 33.9136 107.347Z" fill="#151515"/>
<path d="M36.8602 107.494C37.3893 107.478 37.8166 107.411 37.8145 107.345C37.8125 107.279 37.3818 107.239 36.8527 107.255C36.3236 107.272 35.8963 107.339 35.8983 107.405C35.9004 107.471 36.3311 107.511 36.8602 107.494Z" fill="#151515"/>
<path d="M32.6475 108.742C32.6421 108.742 32.6368 108.741 32.6319 108.738C32.627 108.736 32.6226 108.733 32.619 108.729C32.6154 108.725 32.6126 108.72 32.6108 108.715C32.609 108.71 32.6082 108.704 32.6085 108.699V108.679C32.6145 108.47 32.7344 108.273 32.9417 108.13C33.1491 107.988 33.427 107.912 33.7145 107.919L33.9487 107.923C34.2367 107.931 34.5106 108.022 34.7103 108.175C34.91 108.329 35.0191 108.533 35.0136 108.742V108.762C35.0136 108.773 35.0092 108.783 35.0015 108.791C34.9938 108.799 34.9833 108.803 34.9724 108.803L32.6475 108.742Z" fill="#151515"/>
<path d="M38.696 108.765C37.7331 108.269 36.6661 108.113 35.7921 108.802C35.7732 108.816 35.751 108.826 35.7273 108.831C35.7037 108.835 35.6794 108.834 35.6564 108.827C35.6334 108.82 35.6125 108.807 35.5954 108.79C35.5782 108.774 35.5654 108.753 35.5579 108.73L35.4148 108.285C35.383 108.188 35.4177 108.14 35.5189 108.141C35.8543 108.146 36.1883 108.143 36.5208 108.135C37.2191 108.115 38.0519 107.789 38.7286 107.93C39.5252 108.097 40.1903 108.096 40.7238 107.926C40.9493 107.855 41.3802 107.87 42.0163 107.97C42.0785 107.98 42.1089 108.017 42.1074 108.08L42.0749 109.512C42.0735 109.583 42.0373 109.624 41.9665 109.636C40.5828 109.847 39.891 109.382 38.696 108.765Z" fill="#151515"/>
</svg>
