<svg width="147" height="147" viewBox="0 0 147 147" fill="none" xmlns="http://www.w3.org/2000/svg">
<path d="M94.1698 50.9798C92.3842 51.057 90.6565 51.5265 88.8773 51.4686C88.6716 51.4629 88.4072 51.3943 88.0842 51.2628C87.5933 51.0613 86.9503 51.1063 86.543 51.0377C83.9664 50.6069 82.2387 49.9123 79.7093 48.7827C78.511 48.2489 77.4157 47.5287 76.1595 46.787C74.479 45.7967 72.9535 44.4677 71.583 42.8C70.8413 41.8954 70.2797 40.7079 69.6045 39.5375C68.5298 37.6811 67.8389 35.6033 67.5316 33.304C67.3387 31.8656 67.4609 29.6685 67.746 27.9622C67.9947 26.4788 68.2047 25.1005 68.6506 23.6086C69.1629 21.8873 69.4866 20.0588 70.2047 18.4469C71.6309 15.2358 73.2178 12.1062 74.9656 9.05803C74.977 9.03945 75.495 8.10842 76.5196 6.26495C77.0841 5.2489 77.6943 4.25857 78.3503 3.29396C78.7104 2.7645 79.615 2.60802 79.7071 3.40972C79.7116 3.44825 79.7269 3.48467 79.7512 3.51467C79.7755 3.54467 79.8078 3.56701 79.8443 3.57906C80.163 3.68338 80.2852 3.91131 80.2109 4.26286C80.1937 4.34145 80.2037 4.41648 80.2409 4.48793C80.4638 4.9145 80.3523 5.31749 80.4917 5.73549C81.2176 7.91622 81.7628 10.1412 82.1272 12.4106C82.1386 12.4777 82.178 12.5142 82.2451 12.5199C83.0954 12.6085 83.95 12.6764 84.8088 12.7235C85.5534 12.765 86.2793 12.8657 86.9867 13.0258C88.2793 13.3173 89.5997 13.5038 90.8001 13.9711C92.0348 14.4527 93.2409 14.9979 94.4185 15.6066C94.8629 15.8367 95.5195 16.144 96.3884 16.5284C97.5502 17.0428 98.5791 17.7716 99.7152 18.2947C100.961 18.867 101.805 19.6944 103.108 19.9109C103.17 19.9211 103.233 19.9185 103.294 19.9034C103.355 19.8883 103.412 19.8609 103.462 19.823C105.674 18.1596 107.852 15.9625 110.279 14.9057C110.515 14.8028 110.731 14.8285 110.928 14.9829C111.211 15.2058 111.194 15.538 111.153 15.8703C111.145 15.946 111.175 15.9975 111.245 16.0246C111.598 16.1604 111.763 16.4183 111.739 16.7985C111.651 18.1425 111.423 19.0642 111.003 20.8005C110.762 21.7994 110.613 22.8148 110.557 23.8465C110.553 23.9194 110.529 23.9844 110.485 24.0416C110.383 24.1702 110.357 24.2888 110.405 24.3974C110.684 25.0148 110.997 25.5421 111.042 26.2345C111.102 27.1283 110.965 28.0994 111.22 28.9611C111.614 30.2965 111.466 31.6941 111.473 33.0725C111.476 33.7641 111.413 34.4865 111.284 35.2396C111.08 36.425 111.033 37.5225 110.583 38.6479C110.202 39.6053 109.826 40.5628 109.456 41.5203C109.148 42.312 108.467 43.2201 107.413 44.2447C105.996 45.6209 104.549 47.2565 102.761 48.1396C102.461 48.2897 102.358 48.5105 102.092 48.6841C100.529 49.7101 99.2101 50.5361 98.1354 51.162C97.2966 51.6494 96.4106 51.7229 95.4774 51.3828C95.4002 51.3557 95.3359 51.3735 95.2845 51.4364C95.0587 51.7108 94.7736 51.7873 94.4292 51.6658C94.332 51.6315 94.282 51.5629 94.2791 51.46L94.2684 51.072C94.267 51.0077 94.2341 50.977 94.1698 50.9798ZM78.5067 5.27034C78.5139 5.29749 78.521 5.32393 78.5282 5.34965C78.5625 5.46969 78.6225 5.48398 78.7082 5.39252L79.004 5.07527C79.0598 5.01525 79.0791 4.94523 79.0619 4.8652L78.9204 4.15782C78.9019 4.07065 78.869 4.06493 78.8218 4.14067L78.3803 4.84162C78.336 4.91164 78.3353 4.98238 78.3781 5.05383L78.4917 5.24033C78.4989 5.25033 78.5039 5.26033 78.5067 5.27034ZM78.6932 10.5006L78.3202 11.1587C78.2645 11.2573 78.2838 11.2752 78.3781 11.2123C78.6325 11.048 78.7411 10.8115 78.7039 10.5028L78.7021 10.5001L78.6992 10.4987L78.696 10.4989L78.6932 10.5006ZM79.9043 11.028C79.9033 11.0188 79.8999 11.01 79.8943 11.0026C79.8887 10.9952 79.8813 10.9895 79.8727 10.986C79.8642 10.9825 79.8548 10.9813 79.8457 10.9827C79.8365 10.984 79.8279 10.9878 79.8207 10.9937C79.7293 11.0651 79.6914 11.1494 79.7071 11.2466C79.712 11.2752 79.7277 11.3007 79.751 11.3179C79.7743 11.335 79.8034 11.3424 79.8321 11.3385C79.8607 11.3346 79.8868 11.3197 79.9047 11.297C79.9226 11.2742 79.9309 11.2454 79.9279 11.2166L79.9043 11.028ZM88.1507 50.4804C88.3707 50.4032 88.5608 50.4382 88.7208 50.5854C88.7737 50.634 88.8359 50.6619 88.9073 50.669C89.4447 50.7219 89.9691 50.6912 90.4807 50.5769C91.3482 50.3825 91.8212 50.281 91.8998 50.2725C92.8358 50.1567 93.7611 50.076 94.6757 50.0302C94.7023 50.0287 94.7282 50.0208 94.751 50.007C94.7739 49.9933 94.7931 49.9743 94.807 49.9515C94.8209 49.9288 94.8291 49.903 94.8309 49.8764C94.8326 49.8498 94.8279 49.8231 94.8172 49.7987C94.5492 49.1921 94.8729 49.0463 95.3359 48.6584C96.0433 48.0653 96.8235 47.6001 97.6767 47.2629C99.1365 46.6863 100.258 45.7603 101.792 45.2801C102.445 45.0757 103.099 44.8764 103.754 44.682C103.974 44.6177 104.476 44.632 105.261 44.7249C105.334 44.7335 105.399 44.7163 105.458 44.6735C106.522 43.9118 107.406 42.9915 108.107 41.9125C108.778 40.8815 109.205 39.5096 109.681 38.2792C109.854 37.8319 109.976 37.3532 110.047 36.843C110.221 35.5826 110.485 34.365 110.495 33.1496C110.504 32.225 110.491 31.3004 110.457 30.3758C110.442 29.9171 110.296 29.5506 110.18 29.1133C109.916 28.1187 110.107 26.929 109.919 26.0716C109.804 25.56 109.533 25.0426 109.104 24.5196C108.78 24.123 108.802 23.7651 109.211 23.4778C109.283 23.4264 109.295 23.3635 109.248 23.2892L108.718 22.4832C108.7 22.4542 108.689 22.4209 108.687 22.3865C108.684 22.3521 108.691 22.3175 108.705 22.286C108.907 21.8659 109.042 21.5958 109.093 21.1113C109.211 20.0481 109.499 19.0263 109.959 18.046C109.993 17.9737 110.002 17.8924 109.985 17.8145C109.841 17.1914 109.984 16.6463 110.416 16.179C110.446 16.1472 110.463 16.1057 110.465 16.0622C110.467 16.0187 110.453 15.976 110.426 15.9418C110.399 15.9076 110.361 15.8841 110.318 15.8757C110.275 15.8674 110.231 15.8745 110.193 15.896C108.441 16.8863 106.78 18.0875 105.209 19.4994C104.829 19.8395 104.185 20.236 103.278 20.689C103.215 20.7205 103.151 20.7233 103.087 20.6976C102.26 20.3589 101.537 20.1339 100.744 19.6323C99.9467 19.1285 99.0529 18.7877 98.2812 18.3161C96.9093 17.478 95.0594 16.7342 94.0005 16.2283C93.0073 15.7553 91.9984 15.3158 90.9737 14.91C90.365 14.6685 89.6976 14.4755 88.9716 14.3312C88.2886 14.194 87.6055 14.0568 86.9224 13.9196C86.0835 13.7496 85.2568 13.6574 84.4423 13.6431C83.512 13.626 82.5802 13.6167 81.6471 13.6153C81.2033 13.6153 80.6632 13.9711 80.2516 13.4716C80.2044 13.4145 80.1651 13.4195 80.1337 13.4866C79.9279 13.9089 79.4606 14.492 78.989 13.9089C78.939 13.8475 78.8883 13.8468 78.8368 13.9068C78.6632 14.1083 78.511 14.3591 78.3117 14.5198C76.5825 15.906 75.2035 17.2936 74.1746 18.6827C73.7816 19.2143 73.4015 19.6108 73.0342 19.8723C72.6291 20.1574 71.7266 21.2121 71.2979 20.5047C71.0771 20.1403 71.3579 19.7352 71.6152 19.4672C71.6666 19.4143 71.6616 19.3672 71.6002 19.3257C71.2586 19.0957 71.1943 18.7741 71.4072 18.3611C71.6459 17.8995 71.7738 17.4715 71.7909 17.0771C71.7952 16.9499 71.7666 16.9421 71.7052 17.0535C71.0321 18.2668 70.5119 19.5365 70.1447 20.8627C69.6945 22.4918 69.4673 23.3128 69.463 23.3256C68.8428 25.4135 68.4212 27.5435 68.1983 29.7156C67.8625 32.9796 68.452 36.0492 69.9668 38.9244C70.3197 39.5918 70.6691 40.2613 71.015 40.9329C71.4165 41.7103 71.8138 42.3505 72.2068 42.8536C74.061 45.2222 76.1938 46.4912 78.6139 47.9531C79.5485 48.5169 80.5431 48.8663 81.5485 49.2971C83.6792 50.2124 85.5805 50.729 87.8356 50.8877C87.9084 50.892 87.9549 50.8598 87.9749 50.7912L88.0306 50.6069C88.0492 50.544 88.0892 50.5018 88.1507 50.4804ZM75.2506 15.7202C75.2494 15.7307 75.2516 15.7412 75.2567 15.7503C75.2619 15.7594 75.2698 15.7667 75.2794 15.771C75.2889 15.7753 75.2996 15.7764 75.3099 15.7742C75.3201 15.772 75.3294 15.7666 75.3364 15.7588L75.6686 15.3816C75.6768 15.3723 75.6818 15.3606 75.6829 15.3483C75.684 15.3359 75.681 15.3236 75.6746 15.313C75.6681 15.3025 75.6584 15.2943 75.6469 15.2896C75.6354 15.285 75.6228 15.2841 75.6108 15.2872C75.3978 15.3473 75.2778 15.4916 75.2506 15.7202ZM104.393 46.5641L102.954 47.5266L102.951 47.5286L102.949 47.5319L102.949 47.5358L102.95 47.5394L102.954 47.5437C102.971 47.569 103.004 47.5828 103.052 47.5841C103.1 47.5854 103.162 47.5743 103.235 47.5514C103.308 47.5285 103.39 47.4942 103.476 47.4506C103.562 47.407 103.65 47.3549 103.737 47.2972L103.88 47.2007C103.966 47.1429 104.049 47.0808 104.122 47.0178C104.195 46.9548 104.258 46.8922 104.307 46.8337C104.356 46.7751 104.39 46.7217 104.407 46.6766C104.425 46.6314 104.425 46.5954 104.408 46.5705L104.405 46.5662L104.403 46.5636L104.399 46.5622L104.396 46.5624L104.393 46.5641ZM97.5202 50.2939C97.5702 50.2939 97.6095 50.2803 97.6381 50.2532C97.644 50.2479 97.6479 50.2407 97.6491 50.2329C97.6503 50.225 97.6488 50.217 97.6447 50.2102C97.6407 50.2033 97.6344 50.1981 97.6269 50.1954C97.6195 50.1927 97.6113 50.1927 97.6038 50.1953L96.8557 50.4097C96.8524 50.4109 96.8496 50.4131 96.8476 50.4159C96.8456 50.4188 96.8445 50.4222 96.8445 50.4257C96.8445 50.4292 96.8456 50.4327 96.8476 50.4355C96.8496 50.4384 96.8524 50.4406 96.8557 50.4418C97.0586 50.4904 97.238 50.4554 97.3937 50.3368C97.4309 50.3096 97.4731 50.2953 97.5202 50.2939Z" fill="#151515"/>
<path d="M79.0176 41.651C77.9916 42.174 76.8791 42.1876 75.6801 41.6917C75.21 41.4973 74.8877 41.2544 74.7134 40.9629C74.4433 40.5127 73.6909 39.0572 74.3811 38.7443C74.4467 38.7141 74.5183 38.6991 74.5905 38.7004C74.6628 38.7017 74.7338 38.7192 74.7982 38.7518C74.8627 38.7844 74.9191 38.831 74.963 38.8884C75.0069 38.9457 75.0374 39.0122 75.052 39.083C75.1506 39.5567 75.4657 40.4163 75.9395 40.6563C76.8805 41.1322 78.2138 41.2844 78.9491 40.412C78.9948 40.3577 79.0019 40.2984 78.9705 40.2341C78.8933 40.0769 78.8562 39.9697 78.859 39.9125C78.8862 39.4381 78.8983 39.0401 78.8955 38.7186C78.8847 37.904 79.1505 37.2245 79.0991 36.3885C79.0934 36.317 79.1184 36.2592 79.1741 36.2149L79.6028 35.8762C79.6614 35.829 79.6957 35.7683 79.7057 35.694C79.7808 35.1731 80.1237 34.8215 80.2738 34.4078C80.6253 33.4289 80.939 32.4379 81.2148 31.4347C81.6178 29.9771 82.0358 28.523 82.4688 27.0725C82.5545 26.7839 82.6224 26.5102 82.6724 26.2515C82.6767 26.2305 82.6759 26.2087 82.6701 26.188C82.6642 26.1673 82.6535 26.1482 82.6388 26.1325C82.6241 26.1168 82.6059 26.1048 82.5857 26.0975C82.5654 26.0903 82.5437 26.088 82.5224 26.0908C80.456 26.3466 78.7711 25.6842 77.4678 24.1037C76.7748 23.2648 76.4511 22.2959 76.4968 21.197C76.4996 21.1297 76.484 21.063 76.4518 21.0041C75.6908 19.6536 77.6908 18.4254 78.8312 18.166C80.023 17.8945 81.1126 18.061 82.1001 18.6654C82.5867 18.9634 82.9768 19.5143 83.3991 19.9494C83.8471 20.4125 83.8921 20.854 84.1108 21.4242C84.4473 22.3074 84.2908 23.6535 84.1129 24.5624C84.0272 25.0147 83.7314 25.2462 83.4677 25.5999C83.4234 25.6585 83.4284 25.7128 83.4827 25.7628C83.8471 26.1029 83.9186 26.4523 83.6971 26.811C83.5041 27.1197 83.3912 27.3298 83.3584 27.4412C82.5695 30.0607 81.755 32.6737 80.9147 35.2803C80.8918 35.3517 80.9183 35.3932 80.994 35.4046C81.7757 35.5204 82.4881 35.8169 83.1312 36.2942C83.2029 36.3473 83.2898 36.3756 83.3788 36.3748C83.4678 36.3741 83.554 36.3442 83.6242 36.2899C86.538 34.0291 89.4726 31.7977 92.4278 29.5955C92.6465 29.434 92.8715 29.3011 93.1031 29.1968C93.186 29.1599 93.28 29.1567 93.3649 29.188C93.4499 29.2192 93.519 29.2824 93.5575 29.364C93.6332 29.5241 93.5889 29.662 93.4246 29.7777C93.1531 29.9678 92.8844 30.1643 92.6186 30.3672C90.1406 32.2593 87.6898 34.187 85.2662 36.1506C84.8103 36.5207 84.363 36.9037 83.9243 37.2995C83.8986 37.3232 83.8781 37.352 83.8641 37.3841C83.8501 37.4162 83.8429 37.4509 83.8428 37.486C83.8428 38.4656 83.0797 38.8622 82.203 39.2287C81.4942 39.526 80.8404 39.9154 80.2416 40.397C80.1865 40.4397 80.1497 40.5018 80.1387 40.5706C80.0601 41.0122 80.1273 41.4488 80.3402 41.8803C81.4892 44.2104 84.2673 44.4076 86.4001 43.3079C86.6338 43.1879 87.0582 43.1472 87.2361 43.2994C87.2943 43.3493 87.3391 43.4129 87.3664 43.4845C87.3938 43.556 87.4029 43.6333 87.3929 43.7093C87.3829 43.7852 87.3541 43.8575 87.3091 43.9196C87.2642 43.9816 87.2044 44.0315 87.1354 44.0646C85.0304 45.0657 82.8632 45.3765 80.8804 44.0603C80.0873 43.5344 79.5099 42.7492 79.1484 41.7046C79.1255 41.636 79.0819 41.6181 79.0176 41.651ZM83.4656 22.3481C83.3712 21.7736 83.0261 21.2913 82.9532 20.7683C82.9485 20.7351 82.9371 20.7032 82.9198 20.6745C82.9025 20.6458 82.8796 20.6208 82.8525 20.6011C82.3509 20.2281 82.0358 19.6258 81.517 19.375C80.2152 18.7433 78.9934 18.8641 77.8515 19.7372C77.5829 19.943 77.405 20.2081 77.3178 20.5325C77.0863 21.3964 77.0627 22.123 77.485 22.944C78.2124 24.3588 79.4242 25.1698 81.1205 25.377C81.6292 25.4384 82.1044 25.3355 82.546 25.0683C82.6074 25.0311 82.6746 25.0097 82.7475 25.004C83.5556 24.9461 83.3712 23.8036 83.4441 23.2505C83.4941 22.8718 83.5013 22.571 83.4656 22.3481Z" fill="#151515"/>
<path d="M78.3567 20.9527C78.5646 20.4297 78.9848 19.5529 79.72 20.016C79.7786 20.0531 79.8422 20.066 79.9108 20.0545C80.2923 19.9959 80.6303 20.0953 80.9247 20.3525C80.9804 20.4011 81.0176 20.4611 81.0362 20.5326C81.2141 21.2399 80.8732 21.8208 80.4338 22.5175C79.7679 23.575 78.9169 23.7951 77.8808 23.1777C77.7903 23.1238 77.7195 23.0421 77.679 22.9448C77.6385 22.8476 77.6303 22.7398 77.6557 22.6375C77.8015 22.0438 78.1209 21.54 78.3567 20.9527Z" fill="#151515"/>
<path d="M103.483 27.7101L103.923 27.8065C103.973 27.8175 104.02 27.8396 104.06 27.8711C104.101 27.9027 104.134 27.9429 104.157 27.9889C104.18 28.0348 104.192 28.0854 104.193 28.1369C104.194 28.1885 104.184 28.2396 104.163 28.2867C103.421 29.9415 102.187 31.0833 100.461 31.7121C99.6579 32.0051 98.9534 32.1058 98.3475 32.0144C97.703 31.9172 97.0607 31.805 96.4204 31.6778C95.5887 31.5128 94.3026 30.8161 94.1032 29.9287C94.0332 29.6157 94.1211 29.3592 94.3669 29.1591C94.4226 29.112 94.4555 29.052 94.4655 28.9791C94.5341 28.4646 94.4676 27.9352 94.7506 27.4936C95.2279 26.7476 95.8467 26.1574 96.6069 25.723C96.9127 25.5486 97.3379 25.3907 97.8823 25.2493C98.4997 25.0885 99.0077 24.8956 99.6637 24.9213C100.224 24.9427 100.785 24.9556 101.346 24.9599C101.416 24.9598 101.484 24.9808 101.541 25.0199C102.412 25.6115 103.005 25.4765 103.093 26.7498C103.115 27.0541 103.202 27.3421 103.355 27.6136C103.383 27.6651 103.426 27.6972 103.483 27.7101ZM102.735 28.1367L102.266 26.4582C102.247 26.3911 102.207 26.3418 102.146 26.3103L101.027 25.7401C100.965 25.7085 100.894 25.7024 100.828 25.723C100.45 25.8416 100.075 25.8409 99.7022 25.7208C99.6322 25.6994 99.5615 25.6973 99.49 25.7144C99.0256 25.833 98.559 25.9488 98.0903 26.0617C96.922 26.3425 96.1418 26.9384 95.4601 27.8708C95.4158 27.9309 95.3929 27.9973 95.3915 28.0702C95.3701 29.1527 94.95 30.4581 96.4676 30.7775C97.3422 30.9619 98.3518 31.322 99.2199 31.1591C100.895 30.849 102.173 29.938 103.055 28.426C103.095 28.3574 103.077 28.3139 103.001 28.2953L102.864 28.261C102.833 28.2532 102.805 28.2377 102.783 28.2158C102.76 28.194 102.744 28.1667 102.735 28.1367Z" fill="#151515"/>
<path d="M99.8555 28.8139C99.221 29.5127 98.1063 30.5395 97.0431 30.1086C97.0106 30.096 96.9814 30.0759 96.9579 30.0498C96.9344 30.0238 96.9174 29.9925 96.9081 29.9586C96.7195 29.2941 96.9767 28.8375 97.0817 28.2523C97.136 27.945 97.2082 27.7171 97.2982 27.5685C97.9113 26.561 98.743 25.9694 99.9027 26.5503C100.79 26.9962 100.361 28.2587 99.8555 28.8139Z" fill="#151515"/>
<path d="M57.4297 50.0048C57.5926 49.7583 57.657 49.3746 57.9056 49.0959C58.4372 48.4943 58.7638 48.0863 58.8852 47.872C59.1696 47.3661 59.6212 46.7987 60.24 46.17C60.7458 45.6555 61.3668 44.8903 62.1027 43.8742C62.9687 42.6759 64.0984 41.4841 64.9837 40.1808C65.02 40.1277 65.0714 40.086 65.1316 40.0608C65.6803 39.84 66.2141 38.9504 66.7221 38.2366C66.9193 37.9594 67.2009 37.9065 67.5667 38.078C67.6193 38.103 67.6617 38.1454 67.6867 38.198C68.0147 38.884 67.5645 39.0662 67.2066 39.482C66.7007 40.0694 66.1962 40.6581 65.6932 41.2483C64.5678 42.5666 63.5561 44.11 62.4457 45.5076C61.9855 46.0864 61.3839 46.7173 60.6408 47.4004C59.1146 48.8037 57.7377 50.2513 56.5101 51.7432C56.0085 52.352 55.9642 52.3199 56.3772 51.6468C56.6116 51.2638 56.9624 50.7165 57.4297 50.0048Z" fill="#151515"/>
<path d="M102.495 60.8554C102.289 61.2584 102.1 62.1094 101.517 62.0236C101.451 62.0143 101.387 61.9889 101.332 61.9498C101.277 61.9106 101.232 61.8587 101.201 61.7985C101.171 61.7384 101.155 61.6717 101.155 61.6042C101.156 61.5366 101.173 61.4702 101.204 61.4106C101.515 60.8204 101.736 60.168 101.869 59.4535C101.915 59.2062 101.89 58.9262 101.794 58.6132C101.509 57.6872 101.644 56.8298 101.479 55.9616C101.409 55.5958 101.334 55.2314 101.254 54.8684C101.089 54.1267 100.686 53.3657 100.493 52.5555C100.478 52.4926 100.44 52.4662 100.377 52.4762C99.6718 52.5726 99.3245 51.906 99.586 51.2843C99.8304 50.6991 100.538 50.9392 100.838 51.3379C100.886 51.4051 100.962 51.5537 101.065 51.7838C101.089 51.8367 101.12 51.8402 101.157 51.7945C101.194 51.7488 101.199 51.693 101.17 51.6273C101.004 51.2386 100.936 50.8485 100.966 50.4569C100.971 50.402 100.988 50.3488 101.015 50.3011C101.043 50.2534 101.081 50.2124 101.126 50.181C101.171 50.1497 101.223 50.1287 101.277 50.1197C101.332 50.1107 101.387 50.1139 101.44 50.1289C101.7 50.2033 101.85 50.4176 101.89 50.772C102.033 52.0453 102.225 53.3107 102.467 54.5683C102.481 54.6483 102.525 54.6705 102.598 54.6347C103.556 54.1631 103.652 55.3807 103.474 56.0088C103.2 56.9777 103.288 58.1052 103.267 59.1105C103.252 59.7836 103.267 60.5131 103.312 61.2991C103.432 63.3955 103.434 64.8717 103.318 65.7277C103.188 66.6909 103.119 67.3783 103.112 67.7898C103.108 68.1221 102.956 68.3343 102.93 68.6365C102.826 69.8555 102.701 71.0716 102.555 72.2849C102.526 72.515 102.497 73.0394 102.467 73.8583C102.439 74.5849 102.251 75.2645 102.251 75.9525C102.251 78.6149 102.251 81.2765 102.253 83.9373C102.253 84.7176 101.948 85.5022 102.055 86.3917C102.064 86.4589 102.102 86.4903 102.169 86.4861C102.736 86.4575 103.284 86.5382 103.813 86.7283C103.982 86.7883 104.198 86.9426 104.461 87.1913C105.095 87.7872 105.652 87.7036 106.465 87.6907C106.538 87.6893 106.573 87.7243 106.572 87.7958L106.563 88.411C106.562 88.4882 106.538 88.5567 106.49 88.6168C106.068 89.1441 106.137 89.7314 106.019 90.2116C105.506 92.2808 105.178 93.9778 105.035 95.3026C104.84 97.1203 106.737 96.668 107.832 96.3208C108.154 96.2193 108.478 96.1843 108.803 96.2157C109.644 96.2972 110.525 96.4708 110.808 95.5255C111.043 94.7324 111.239 94.2501 111.245 93.4291C111.256 91.8278 111.727 90.4388 111.931 88.7947C111.935 88.7618 111.932 88.7285 111.922 88.697C111.912 88.6656 111.895 88.6367 111.873 88.6125C111.709 88.4324 111.507 88.3717 111.269 88.4303C111.201 88.4474 111.148 88.4853 111.11 88.5439C110.976 88.7511 110.894 88.9119 110.866 89.0262C110.641 89.9008 110.434 90.7796 110.244 91.6628C110.15 92.1022 110.381 92.4688 110.403 92.801C110.448 93.527 110.288 94.2093 109.922 94.8481C109.881 94.9196 109.819 94.9503 109.738 94.9403C108.696 94.8003 107.673 94.8917 106.668 95.2147C106.581 95.2433 106.536 95.2118 106.533 95.1204C106.526 94.9489 106.607 94.831 106.776 94.7667C106.84 94.7424 106.886 94.6981 106.913 94.6338C107.086 94.2165 107.174 93.7785 107.176 93.3198C107.179 92.5524 107.262 91.7943 107.425 91.0454C107.669 89.9243 107.597 88.9683 107.601 87.8772C107.601 87.8029 107.637 87.7772 107.708 87.8001L107.783 87.8258C107.833 87.8415 107.86 87.8765 107.862 87.9308L107.899 88.6103C107.905 88.7361 107.97 88.7983 108.096 88.7968L108.921 88.7882C108.997 88.7882 109.023 88.824 108.998 88.8954C108.51 90.3273 110.017 90.3509 109.974 88.9855C109.972 88.9083 110.01 88.8711 110.087 88.874C110.634 88.9019 111.273 88.5889 110.836 87.9651C110.79 87.898 110.807 87.8601 110.887 87.8515C111.738 87.7636 112.589 88.023 113.307 88.0273C114.267 88.033 115.226 88.038 116.184 88.0423C117.026 88.0466 117.95 88.3531 118.925 88.2116C119.047 88.1945 119.058 88.1502 118.958 88.0787L117.671 87.1677C117.6 87.1163 117.541 87.1291 117.496 87.2063C117.327 87.4864 117.078 87.5578 116.747 87.4206C116.675 87.3906 116.619 87.342 116.58 87.2749C115.689 85.7415 114.868 84.5533 114.117 83.7101C113.011 82.464 111.925 81.0149 110.859 79.363C110.565 78.9085 110.541 78.4634 110.788 78.0275C110.824 77.9632 110.835 77.8953 110.821 77.8239C110.758 77.5252 110.679 77.2337 110.585 76.9493C110.499 76.6849 110.315 76.6206 110.034 76.7564C110.018 76.7642 110.004 76.7758 109.994 76.79C109.984 76.8043 109.977 76.8209 109.974 76.8384C109.971 76.856 109.973 76.874 109.978 76.8911C109.984 76.9081 109.993 76.9237 110.006 76.9364L110.426 77.3523C110.445 77.3703 110.459 77.3924 110.468 77.4169C110.477 77.4414 110.48 77.4677 110.478 77.4938L110.13 80.8806C110.125 80.9349 110.15 80.9599 110.205 80.9556C110.244 80.9528 110.28 80.9578 110.312 80.9706C110.391 81.0006 110.426 81.0564 110.418 81.1378L110.351 81.8216C110.344 81.906 110.3 81.9574 110.218 81.976L110.068 82.0124C110.004 82.0281 109.967 82.0682 109.957 82.1325L109.607 84.2546C109.596 84.316 109.622 84.3468 109.687 84.3468L110.062 84.3446C110.143 84.3446 110.184 84.3854 110.184 84.4668L110.186 85.2857C110.186 85.3728 110.147 85.4357 110.068 85.4743C109.511 85.753 109.852 86.0595 109.605 86.4646C109.258 87.0348 108.561 86.5847 108.608 86.1474C108.658 85.6929 108.688 85.2406 108.698 84.7905C108.699 84.7555 108.692 84.7209 108.679 84.6891C108.665 84.6573 108.645 84.629 108.619 84.6061C108.438 84.4418 108.368 84.2732 108.409 84.1003C109.012 81.588 109.243 79.0836 109.101 76.587C109.094 76.4592 109.136 76.3335 109.218 76.2356C109.3 76.1376 109.416 76.0748 109.543 76.0597C110.76 75.914 112.006 75.8154 113.241 75.5731C114.951 75.2359 116.672 74.9644 118.402 74.7586C120.512 74.5056 122.668 74.8443 124.762 74.452C125.838 74.2506 126.91 73.9762 127.997 73.8604C128.471 73.809 128.947 73.7554 129.425 73.6997C130.25 73.6011 132.578 73.4917 132.507 74.5871C132.464 75.2645 132.494 75.9311 132.468 76.6063C132.43 77.5688 132.025 78.527 131.853 79.5259C131.767 80.0232 131.57 80.469 131.416 80.9685C131.382 81.0828 131.42 81.1207 131.532 81.0821C131.962 80.9335 132.404 80.8778 132.859 80.9149C132.93 80.9206 132.964 80.9592 132.959 81.0307L132.914 81.6887C132.91 81.7573 132.874 81.7924 132.805 81.7938L131.84 81.8174C131.733 81.8202 131.728 81.8438 131.825 81.8881C132.194 82.0582 132.575 82.1618 132.968 82.1989C133.339 82.2332 133.821 82.3918 133.665 82.8356C133.642 82.8974 133.639 82.9644 133.655 83.0281C133.671 83.0918 133.706 83.1494 133.754 83.1937C133.803 83.238 133.864 83.2671 133.929 83.2774C133.994 83.2877 134.061 83.2786 134.121 83.2514L134.835 82.9213C134.909 82.887 134.95 82.9113 134.957 82.9942L135.073 84.5461C135.074 84.5605 135.079 84.5744 135.087 84.5863C135.095 84.5981 135.107 84.6076 135.12 84.6137C135.133 84.6198 135.147 84.6223 135.162 84.621C135.176 84.6197 135.19 84.6145 135.201 84.6061C135.389 84.4761 135.587 84.4675 135.795 84.5804C135.868 84.6204 135.908 84.6819 135.915 84.7648C135.96 85.2278 135.937 85.5214 136.164 85.963C136.35 86.3231 136.365 86.6876 136.526 87.0198C136.862 87.7086 137.132 88.4196 137.336 89.1527C137.733 90.5803 137.553 92.3294 137.568 93.8599C137.582 95.3476 137.737 96.8159 138.031 98.265C138.218 99.1853 138.313 99.8648 138.316 100.304C138.32 100.997 138.257 101.685 138.125 102.37C137.973 103.15 137.495 103.847 137.246 104.67C137.227 104.736 137.183 104.793 137.122 104.829C136.971 104.917 136.894 105.048 136.893 105.221C136.881 108.049 136.844 110.64 136.781 112.993C136.748 114.251 136.753 115.571 136.796 116.955C136.851 118.754 136.851 120.077 136.798 120.925C136.747 121.755 136.538 123.446 136.17 125.999C135.997 127.188 136.044 128.47 135.924 129.718C135.862 130.361 135.915 131.424 135.656 132.271C135.444 132.965 135.088 133.008 134.456 133.182C134.094 133.283 133.834 133.223 133.675 133.002C133.64 132.953 133.594 132.939 133.538 132.961C132.653 133.315 132.106 133.574 131.896 133.737C131.43 134.097 131.065 134.323 130.801 134.414C130.741 134.436 130.711 134.478 130.713 134.541V134.599C130.714 134.656 130.688 134.693 130.634 134.71L129.768 134.978C129.709 134.997 129.673 134.975 129.66 134.914L129.53 134.243C129.525 134.215 129.51 134.191 129.489 134.172C129.468 134.154 129.44 134.143 129.412 134.142L128.736 134.12C128.706 134.119 128.676 134.126 128.649 134.141C128.622 134.156 128.6 134.178 128.584 134.204L128.295 134.699C128.272 134.738 128.237 134.769 128.196 134.788C128.155 134.807 128.109 134.813 128.066 134.804C127.635 134.726 127.219 134.742 126.816 134.854C126.747 134.873 126.674 134.873 126.606 134.854C126.537 134.834 126.475 134.796 126.427 134.743C126.379 134.69 126.346 134.625 126.333 134.555C126.32 134.485 126.327 134.412 126.353 134.346L126.389 134.251C126.426 134.158 126.395 134.111 126.295 134.11C124.466 134.1 122.639 134.098 120.814 134.105C119.882 134.11 118.875 134.183 117.791 134.324C116.426 134.504 115.12 134.674 113.714 134.665C111.454 134.649 109.193 134.645 106.932 134.652C106.32 134.654 105.599 134.595 104.767 134.476C103.402 134.281 102.028 134.209 100.645 134.262C99.7275 134.298 98.8444 134.009 97.8712 134.073C97.8107 134.076 97.7503 134.064 97.6954 134.037C97.5068 133.943 97.3825 133.895 97.3224 133.893C94.7887 133.862 93.0381 133.858 92.0707 133.883C91.8049 133.889 91.5198 134.054 91.2068 134.054C89.9821 134.058 88.7581 134.059 87.5349 134.056C87.0676 134.055 86.2702 134.101 85.1427 134.196C84.1909 134.274 83.237 134.269 82.281 134.181C81.8673 134.14 81.4707 133.99 81.042 133.902C80.971 133.888 80.9065 133.853 80.8577 133.801C80.6104 133.548 80.3096 133.455 79.9552 133.522C79.9179 133.529 79.8796 133.529 79.8424 133.521C79.8053 133.512 79.77 133.497 79.7387 133.475C78.9456 132.909 77.8995 133.555 77.2372 134.172C75.4566 135.831 73.6074 137.412 71.6896 138.916C67.9298 141.864 64.8766 144.094 62.5301 145.606C62.3158 145.744 61.9749 145.757 61.5076 145.642C61.4758 145.634 61.4462 145.619 61.4212 145.597C61.3963 145.576 61.3767 145.548 61.364 145.518C61.2268 145.172 61.2347 144.826 61.3876 144.478C61.41 144.426 61.4182 144.369 61.4112 144.313C61.1411 142.287 61.9835 140.898 63.2204 139.226C64.3079 137.755 65.8662 136.06 67.8955 134.142C67.9484 134.093 67.9662 134.035 67.9491 133.966C67.8762 133.675 67.9184 133.403 68.0755 133.152C68.1327 133.06 68.1084 133.024 68.0027 133.044C66.4464 133.32 64.9838 133.404 63.6148 133.295C62.0085 133.167 60.7281 133.078 59.7735 133.029C59.582 133.021 59.0375 132.963 58.1401 132.856C57.3963 132.768 56.6696 132.864 55.9472 132.734C54.9419 132.549 54.1766 132.464 52.8991 132.279C51.9945 132.149 51.047 132.122 50.0567 132.198C49.8523 132.213 49.7437 132.313 49.7309 132.496C49.7282 132.528 49.7177 132.56 49.7001 132.587C49.6826 132.615 49.6586 132.638 49.6301 132.654C48.8563 133.104 48.3761 132.376 47.6452 132.388C46.5191 132.408 45.3937 132.423 44.269 132.431C42.8972 132.442 41.6217 132.912 40.312 133.259C39.6404 133.439 38.8794 133.613 38.0291 133.782C36.6086 134.065 35.1975 134.386 33.7956 134.746C33.7227 134.765 33.6841 134.811 33.6798 134.886L33.6669 135.074C33.6649 135.107 33.656 135.14 33.6409 135.169C33.6258 135.198 33.6047 135.223 33.5791 135.244C33.1775 135.564 32.8031 135.527 32.4558 135.132C32.4015 135.069 32.3494 135.071 32.2993 135.137C31.9992 135.527 31.6098 135.671 31.1311 135.57C31.0496 135.552 31.0125 135.585 31.0196 135.668C31.0725 136.23 30.8074 136.513 30.2244 136.519C30.1756 136.519 30.1281 136.536 30.0893 136.566C28.8375 137.537 27.7178 138.639 26.7303 139.874C26.466 140.205 26.048 140.536 25.4764 140.866C25.0033 141.141 24.6189 141.415 24.3231 141.689C22.664 143.237 20.9791 144.755 19.2686 146.242C18.6369 146.791 17.9131 146.941 17.0971 146.693C17.0243 146.671 16.9807 146.623 16.9664 146.547C16.8721 146.067 17.0843 145.612 17.095 145.203C17.115 144.425 17.2193 143.78 17.408 143.267C18.1296 141.292 18.8391 139.312 19.5365 137.327C20.1067 135.702 20.9341 134.301 21.7465 132.809C21.778 132.75 21.7608 132.725 21.6951 132.734C18.9013 133.102 16.2033 132.8 13.601 131.827C13.3109 131.718 12.9086 131.602 12.3941 131.477C11.1359 131.171 9.86258 130.331 8.75221 129.58C8.31064 129.28 7.5561 129.023 7.09095 128.41C6.3507 127.434 5.54329 126.517 4.66871 125.658C4.36004 125.355 4.09209 124.948 3.92704 124.616C2.48656 121.735 1.59269 119.806 1.24543 118.828C0.754551 117.45 0.62808 115.214 0.475886 114.127C0.255099 112.556 -0.00213026 111.06 1.33075e-05 109.459C0.0057295 107.447 0.00715864 105.435 0.00430055 103.425C0.00430055 103.104 0.0478866 102.699 0.135059 102.209C0.231519 101.654 0.220801 101.116 0.347272 100.584C0.86816 98.4107 1.27973 96.235 2.09 94.085C2.31436 93.492 2.67662 92.746 3.17679 91.8471C3.87988 90.5846 4.42435 89.2084 5.15316 88.0444C6.69081 85.5836 7.7576 83.9459 8.35351 83.1314C8.92942 82.3397 9.55177 81.5773 10.2206 80.8442C10.2263 80.8399 10.2256 80.8392 10.2184 80.842C8.87868 81.3736 8.01911 82.2761 7.49608 83.5987C7.33317 84.0124 7.12953 85.187 6.47145 85.0263C6.41697 85.0131 6.3662 84.9877 6.32301 84.952C6.27982 84.9163 6.24534 84.8712 6.2222 84.8201C6.19905 84.7691 6.18785 84.7134 6.18944 84.6574C6.19103 84.6014 6.20537 84.5465 6.23138 84.4968C6.79085 83.4272 7.20027 82.3404 8.21204 81.4808C8.97086 80.8356 10.0212 80.259 10.9429 79.7145C12.2734 78.93 13.771 78.6191 15.4359 78.7821C17.0693 78.9428 17.1314 79.9396 17.3694 81.3951C17.5094 82.2525 17.5244 83.2457 17.4144 84.3746C17.2586 85.9795 16.9621 87.2878 16.5248 88.2995C15.4937 90.6832 14.1304 92.8589 13.0565 95.219C12.4706 96.5065 11.8204 97.7605 11.1059 98.9809C10.5335 99.9541 10.2742 100.983 9.86687 102.029C9.15092 103.864 8.70291 105.812 8.33636 107.744C7.81976 110.453 7.98267 113.433 7.9891 116.213C7.99553 118.455 8.39853 120.342 8.94085 122.44C9.24524 123.618 9.62751 124.684 10.0877 125.638C10.5178 126.536 11.0523 127.539 11.691 128.648C11.9569 129.111 12.3134 129.347 12.7607 129.355C14.8843 129.395 17.0093 129.403 19.1357 129.379C19.3372 129.377 19.6659 129.243 20.1217 128.976C20.1789 128.942 20.2075 128.891 20.2075 128.824C20.2075 128.226 20.1667 127.635 20.0853 127.049C19.9867 126.334 19.9381 125.748 19.9395 125.289C19.9409 123.104 19.9402 120.92 19.9374 118.738C19.9374 118.498 19.9895 118.14 20.0939 117.664C20.2225 117.077 20.1131 116.562 20.2675 115.949C20.3918 115.458 20.4182 114.936 20.3468 114.385C20.3254 114.222 20.3689 114.077 20.4776 113.952C20.5233 113.897 20.549 113.835 20.5547 113.765C20.8205 110.912 21.2385 108.893 22.1581 106.398C22.4939 105.485 22.7926 104.592 23.0541 103.72C24.1045 100.222 25.3163 96.7816 26.6896 93.3991C26.7282 93.3033 27.2598 91.9765 28.2844 89.4185C29.3219 86.8269 30.3808 84.5869 31.8964 82.3125C33.6669 79.6588 35.0688 76.5892 36.8073 74.2913C38.1849 72.4692 39.5468 70.6365 40.8929 68.793C42.0762 67.1725 43.4738 65.582 44.85 64.0986C47.4665 61.2834 49.9195 58.331 52.2088 55.2414C52.3389 55.0642 52.5782 54.6705 52.9269 54.0603C53.1542 53.6594 54.1702 52.0517 54.7833 52.8234C54.989 53.0828 54.9119 53.3036 54.6697 53.5115C53.8872 54.1803 53.3835 55.2285 52.9141 55.8308C50.6476 58.7432 48.5755 61.1719 46.6977 63.1168C44.2912 65.6091 42.7943 67.2382 42.2069 68.0042C41.8197 68.5101 41.4324 69.0181 41.0451 69.5283C40.715 69.9613 40.0612 70.5915 39.7225 71.2946C39.6925 71.356 39.6932 71.4167 39.7247 71.4768L39.8833 71.7876C39.9247 71.8705 39.9205 71.9505 39.8704 72.0277C38.9401 73.4553 37.8255 74.765 36.9187 76.1605C36.3164 77.0865 35.6798 77.9375 35.1117 78.9214C33.7956 81.1936 32.0335 83.3714 30.7174 85.8708C30.2944 86.6768 29.7464 87.8922 29.0733 89.5171C27.965 92.188 26.7046 95.1182 25.605 98.1814C23.7722 103.302 22.6361 108.644 21.8516 114.168C21.733 114.997 21.6665 115.727 21.6522 116.359C21.6351 117.075 21.9459 117.883 21.7465 118.779C21.7384 118.813 21.7375 118.848 21.7437 118.882C21.75 118.916 21.7634 118.948 21.783 118.976C22.1317 119.488 22.3117 119.878 22.3232 120.147C22.4196 122.513 23.0155 124.211 23.4421 126.296C23.4978 126.567 23.7122 126.86 23.6479 127.231C23.6307 127.333 23.5722 127.395 23.4721 127.418L22.9148 127.544C22.8619 127.555 22.8369 127.588 22.8398 127.64C22.8548 128.155 22.992 129.135 22.5332 129.478C22.4832 129.516 22.4604 129.567 22.4646 129.63L22.5332 130.464C22.5351 130.493 22.5451 130.521 22.5621 130.545C22.5791 130.569 22.6025 130.588 22.6297 130.601C22.7383 130.651 22.8512 130.667 22.9684 130.65C23.0413 130.64 23.1113 130.651 23.1784 130.682C23.5857 130.877 23.6522 131.529 23.1249 131.54C23.0962 131.54 23.0681 131.548 23.0433 131.563C23.0185 131.579 22.9978 131.6 22.9834 131.625L22.724 132.082C22.6797 132.158 22.7011 132.19 22.7883 132.178C23.1506 132.127 23.7143 132.069 23.68 132.641C23.6586 133.004 23.2106 133.257 23.1742 133.555C23.127 133.93 23.0005 134.38 22.5654 134.446C22.3182 134.483 22.1331 134.39 22.0102 134.166C21.9831 134.115 21.953 134.114 21.9202 134.161C21.1399 135.304 20.5118 136.521 20.036 137.812C19.1378 140.251 18.4304 141.977 17.7552 144.097C17.5451 144.759 17.6223 145.449 17.3994 146.159C17.3942 146.175 17.3926 146.191 17.3945 146.208C17.3965 146.224 17.4021 146.24 17.4109 146.254C17.4197 146.268 17.4315 146.28 17.4454 146.289C17.4593 146.299 17.4751 146.304 17.4916 146.307C18.0603 146.387 18.5462 146.241 18.9492 145.869C20.7398 144.213 22.5232 142.549 24.2995 140.877C25.2141 140.015 25.9472 139.297 26.4988 138.721C27.3906 137.786 28.4323 136.982 29.3219 136.035C29.4834 135.862 29.7078 135.777 29.995 135.78C30.0539 135.78 30.1114 135.761 30.1583 135.725C30.2052 135.69 30.2389 135.639 30.2541 135.582C30.2693 135.526 30.2652 135.465 30.2423 135.411C30.2195 135.356 30.1792 135.311 30.1279 135.282C29.6156 134.995 29.7228 134.043 30.4945 134.118C30.8846 134.156 31.274 134.162 31.6627 134.138C31.7413 134.132 31.8063 134.1 31.8578 134.041L32.996 132.753C33.0446 132.697 33.0346 132.654 32.966 132.624C32.6387 132.483 32.5123 132.22 32.5866 131.835C32.6037 131.751 32.6545 131.711 32.7388 131.715L33.6734 131.763C33.7245 131.765 33.7755 131.756 33.8228 131.736C33.8702 131.716 33.9128 131.687 33.9478 131.649L39.2638 125.833C39.311 125.783 39.3688 125.755 39.4374 125.748C39.7275 125.722 40.0083 125.749 40.2799 125.829C41.3045 126.129 40.8479 127.334 39.9112 127.248C39.8397 127.242 39.7747 127.26 39.7161 127.302C39.2724 127.621 39.0366 128.082 38.7772 128.408C37.9069 129.498 37.0359 130.586 36.1642 131.673C36.1328 131.711 36.1421 131.731 36.1921 131.733C39.4432 131.84 41.6575 131.818 42.835 131.668C45.2572 131.36 47.6659 130.982 50.061 130.534C50.5311 130.446 51.0034 130.428 51.4779 130.481C51.5608 130.491 51.6144 130.535 51.6386 130.614C51.7058 130.837 51.6587 131.024 51.4972 131.177C51.4257 131.246 51.4393 131.279 51.5379 131.276C51.8652 131.266 52.2831 131.312 52.7919 131.415C54.8826 131.84 57.1405 132.094 59.5656 132.178C60.4894 132.211 61.6062 132.455 62.6737 132.393C63.0896 132.367 63.3726 132.599 63.7777 132.601C64.4379 132.605 65.0981 132.606 65.7583 132.605C66.3242 132.605 66.8065 132.335 67.4389 132.395C67.5104 132.401 67.5768 132.386 67.6383 132.352C67.8912 132.211 68.1641 132.154 68.4571 132.183C68.5467 132.191 68.6363 132.165 68.7079 132.11C69.0852 131.82 69.3753 131.455 69.5782 131.017C69.6139 130.942 69.5925 130.892 69.5139 130.867C69.2109 130.768 69.1216 130.578 69.2459 130.296C69.3617 130.036 69.5939 129.861 69.9426 129.771C70.0085 129.753 70.0679 129.717 70.1141 129.666C70.4713 129.266 70.8136 128.969 71.1408 128.774C71.5481 128.534 72.1805 128.639 72.159 129.225C72.144 129.602 71.8225 129.754 71.6682 129.986C71.3295 130.494 71.0015 131.007 70.6843 131.525C70.6485 131.585 70.6607 131.632 70.7207 131.666C71.0873 131.878 71.0187 132.202 70.785 132.489C70.6371 132.669 70.5835 132.699 70.5149 132.942C70.3949 133.377 70.1827 133.75 69.8783 134.058C69.5725 134.368 69.416 134.528 69.4088 134.536C68.3499 135.765 67.2753 136.981 66.1849 138.185C66.1778 138.192 65.8298 138.551 65.141 139.261C64.4451 139.981 63.787 140.829 63.1668 141.805C62.8409 142.317 62.7295 142.841 62.8324 143.379C62.8495 143.473 62.8902 143.484 62.9546 143.413C64.7323 141.478 66.3078 140.016 67.6811 139.027C69.2717 137.881 70.257 137.095 70.6371 136.669C71.0558 136.2 71.4231 135.894 71.7389 135.75C71.9404 135.657 72.1055 135.317 72.3091 135.171C73.1751 134.549 74.2855 133.687 75.3251 133.432C76.1933 133.22 76.8856 133.188 77.6337 132.622C77.7004 132.571 77.782 132.543 77.8662 132.542C77.9505 132.541 78.0329 132.568 78.101 132.618C78.2897 132.758 78.5312 132.793 78.8256 132.723C79.8845 132.473 80.942 132.219 81.998 131.962C82.8755 131.748 83.7379 131.165 84.5853 130.213C84.6311 130.161 84.6632 130.103 84.6818 130.037C84.7761 129.707 85.0148 129.557 85.3977 129.587C85.4663 129.591 85.5292 129.573 85.5864 129.531C87.0569 128.459 87.6935 127.068 88.5038 125.321C88.9904 124.269 89.9485 122.856 90.2272 121.733C90.7702 119.535 91.3519 117.348 91.9721 115.171C92.0564 114.877 92.0657 114.582 91.9999 114.286C91.8985 113.834 91.7934 113.384 91.6848 112.933C91.5477 112.365 91.5112 111.487 91.3033 110.781C91.1947 110.408 91.1254 110.123 91.0954 109.926C90.8467 108.31 90.6681 106.685 90.5595 105.052C90.478 103.838 90.358 102.778 90.1993 101.87C89.3269 96.8717 88.2208 92.2501 87.5906 88.4989C87.5792 88.4317 87.5406 88.3924 87.4749 88.381C87.2334 88.3381 87.0797 88.1959 87.014 87.9544C86.4895 86.0538 86.4974 84.201 87.0376 82.3961C87.1576 81.996 87.4041 81.8724 87.7771 82.0253C87.8367 82.0489 87.886 82.0921 87.9164 82.1475C88.0879 82.4476 88.1822 82.7248 88.1994 82.9792C88.388 85.8158 88.7646 88.6268 89.3291 91.412C89.3419 91.4791 89.3727 91.5377 89.4212 91.5878C89.9164 92.1065 89.8521 92.7967 90.0043 93.294C90.4387 94.7159 90.7431 96.0071 90.9174 97.1675C90.966 97.489 90.9074 97.8391 90.7417 98.2178C90.7137 98.2835 90.7055 98.3557 90.7181 98.4257C90.8317 99.0731 90.8574 99.7741 91.0053 100.391C91.434 102.178 91.8492 103.975 92.2507 105.785C92.267 105.857 92.2616 105.934 92.2351 106.005C92.2086 106.075 92.1625 106.136 92.103 106.178C92.0435 106.22 91.9736 106.242 91.9029 106.241C91.8322 106.24 91.7643 106.215 91.7084 106.17L91.6484 106.121C91.5527 106.044 91.5112 106.067 91.5241 106.19L91.8242 109.292C91.8413 109.473 91.9235 109.51 92.0707 109.403C92.3165 109.223 92.6001 109.174 92.9217 109.257C92.9512 109.265 92.9774 109.282 92.9966 109.306C93.0158 109.329 93.0271 109.358 93.0289 109.388C93.1146 110.627 93.051 111.851 92.8381 113.06C92.7666 113.467 92.7616 113.852 92.8231 114.215C93.3361 117.292 93.917 120.357 94.5658 123.411C94.7544 124.303 94.9867 125.168 95.2625 126.007C95.8327 127.754 96.1135 128.942 97.3503 129.938C97.4017 129.98 97.4546 129.98 97.5089 129.938C98.7629 128.978 99.6418 127.945 100.18 126.395C100.849 124.467 101.182 122.518 101.179 120.547C101.172 115.783 101.178 111.019 101.198 106.254C101.202 104.919 101.466 103.234 101.395 101.69C101.38 101.377 101.577 101.086 101.577 100.827C101.576 96.6394 101.577 92.4516 101.582 88.2631C101.582 88.1945 101.56 88.133 101.515 88.0787L101.099 87.5943C101.045 87.53 101.023 87.4564 101.033 87.3735C101.073 87.052 101.227 86.8297 101.496 86.7068C101.562 86.6768 101.593 86.6261 101.59 86.5546C101.541 85.4443 101.772 84.3039 101.755 83.2943C101.7 80.2776 101.723 77.263 101.826 74.2505C101.848 73.6375 102.068 72.72 102.053 71.9248C102.04 71.2195 102.272 70.6322 102.276 69.9162C102.279 69.4532 102.301 69.0924 102.343 68.8337C102.771 66.1929 102.851 63.5391 102.581 60.8725C102.569 60.7696 102.541 60.7639 102.495 60.8554ZM113.466 79.5259C113.298 79.3844 113.103 79.2965 112.88 79.2622C112.839 79.2565 112.83 79.2708 112.853 79.3051L114.156 81.1829C114.227 81.2886 114.261 81.2779 114.257 81.1507C114.251 81.0021 114.224 80.8563 114.177 80.7134C114.172 80.6986 114.172 80.6825 114.176 80.6676C114.181 80.6527 114.191 80.6397 114.204 80.6306C114.217 80.6215 114.232 80.6167 114.248 80.6169C114.265 80.6171 114.28 80.6224 114.293 80.632C114.637 80.8978 114.84 81.2536 114.902 81.6995C114.91 81.7623 114.934 81.8195 114.973 81.8709C115.519 82.6012 116.058 83.335 116.591 84.0724C116.838 84.4154 117.318 84.5526 117.568 84.8891C117.754 85.1377 117.909 85.4028 118.031 85.6844C118.197 86.0602 118.352 86.3153 118.497 86.4496C118.834 86.7611 119.238 86.9619 119.708 87.052C119.776 87.0662 119.835 87.0984 119.884 87.1484C120.354 87.65 120.925 88.0044 121.598 88.2116C121.664 88.2302 121.701 88.2059 121.708 88.1387C121.77 87.605 121.783 87.1913 122.064 86.7068C122.341 86.2267 122.632 85.7429 122.938 85.2556C122.98 85.1899 123.037 85.167 123.11 85.187C123.847 85.3814 124.373 85.1428 124.687 84.4711C125.142 83.5022 125.905 82.529 126.327 81.8174C126.794 81.0307 127.716 79.8238 127.731 78.9021C127.732 78.8294 127.705 78.7586 127.654 78.7049C127.595 78.642 127.563 78.5706 127.555 78.4905C127.548 78.4076 127.586 78.3098 127.669 78.1969C128.335 77.2923 128.883 76.3205 129.313 75.2816C129.866 73.9483 131.392 74.8636 130.231 75.8818C130.168 75.9361 130.159 75.9983 130.205 76.0683L130.709 76.8421C130.743 76.8951 130.763 76.9565 130.765 77.0196C130.768 77.0828 130.752 77.1452 130.721 77.2001C130.407 77.7517 130.162 78.3484 129.986 78.99C129.853 79.4702 129.465 80.4776 128.91 80.5376C128.211 80.6105 128.205 79.8346 128.522 79.4144C128.531 79.4044 128.529 79.398 128.516 79.3951C128.501 79.3923 128.484 79.388 128.462 79.3823C128.456 79.3808 128.452 79.383 128.449 79.3887C127.622 80.4948 126.863 81.6466 126.173 82.8441C125.883 83.3436 125.427 83.813 125.116 84.4132C124.61 85.3907 123.832 86.1302 123.313 86.9962C123.092 87.3663 122.877 87.7436 122.67 88.128C122.637 88.188 122.653 88.2302 122.717 88.2545L123.03 88.3767C123.099 88.4024 123.17 88.4181 123.243 88.4238L127.665 88.7325C127.74 88.7382 127.805 88.7147 127.86 88.6618C128.173 88.356 128.49 88.3552 128.812 88.6596C128.838 88.6841 128.872 88.6971 128.908 88.6959C128.944 88.6947 128.978 88.6793 129.002 88.6532L129.849 87.7615C129.876 87.7329 129.895 87.6986 129.906 87.6614C129.918 87.6242 129.92 87.5851 129.913 87.5471C129.865 87.2813 129.918 87.0448 130.074 86.8376C130.121 86.7757 130.142 86.6981 130.132 86.6211C130.079 86.2052 130.141 85.8115 130.318 85.44C130.347 85.3811 130.358 85.3152 130.353 85.2492C130.268 84.3361 130.338 83.4465 130.563 82.5805C130.657 82.2132 130.739 81.8424 130.809 81.468C130.878 81.0921 130.974 80.722 131.097 80.3576C131.364 79.5688 131.425 78.7413 131.643 77.9375C131.93 76.8871 131.858 75.7768 131.823 74.6943C131.822 74.6242 131.787 74.5785 131.72 74.5571C130.886 74.2913 130.154 74.2191 129.525 74.3406C129.121 74.4178 128.777 74.4699 128.494 74.4971C127.257 74.615 126.048 74.9193 124.829 75.1594C124.119 75.3009 123.388 75.3702 122.636 75.3674C121.518 75.3645 120.4 75.3652 119.281 75.3695C118.801 75.3716 118.349 75.5367 117.849 75.571C117.281 75.6081 116.924 75.6389 116.78 75.6632C115.381 75.8961 113.982 76.1369 112.585 76.3856C112.34 76.4299 112.087 76.4706 111.824 76.5077C111.744 76.5192 111.722 76.5613 111.759 76.6342C111.849 76.8157 111.994 77.0265 112.195 77.2666C112.676 77.8467 113.118 78.5856 113.521 79.483C113.566 79.5816 113.547 79.5959 113.466 79.5259ZM15.2365 79.7595L16.1004 80.2397C16.2604 80.3283 16.289 80.2969 16.1861 80.1454C15.9703 79.8281 15.6617 79.6681 15.2601 79.6652C15.1301 79.6652 15.1222 79.6966 15.2365 79.7595ZM6.58078 127.265C7.02235 127.773 7.44892 128.455 8.1413 128.937C8.15347 128.945 8.16792 128.948 8.18205 128.946C8.19618 128.943 8.20905 128.936 8.21836 128.925C8.22766 128.914 8.23279 128.901 8.23281 128.886C8.23283 128.872 8.22774 128.858 8.21846 128.847C6.55077 127.098 5.26677 125.422 4.86806 122.967C4.78518 122.456 4.90522 122.109 5.22818 121.926C5.28917 121.891 5.35871 121.874 5.42881 121.877C5.49891 121.88 5.56674 121.903 5.6245 121.943C5.68225 121.983 5.7276 122.038 5.75532 122.103C5.78305 122.167 5.79203 122.238 5.78123 122.307C5.42325 124.678 6.87873 126.785 8.62789 128.425C8.90084 128.681 9.21165 128.88 9.56034 129.023C9.59324 129.037 9.62905 129.042 9.66458 129.039C9.70011 129.036 9.73426 129.024 9.76398 129.004L9.93118 128.892C9.95461 128.876 9.98146 128.866 10.0097 128.862C10.0379 128.858 10.0668 128.86 10.0941 128.869L11.2945 129.25C11.4503 129.3 11.4867 129.255 11.4038 129.113C10.2234 127.095 9.4253 125.491 9.00944 124.301C8.56072 123.022 8.14987 121.328 7.77689 119.221C7.62541 118.375 7.55039 117.469 7.55181 116.502C7.55324 114.8 7.5511 113.099 7.54538 111.399C7.54253 110.181 7.61969 109.106 7.77689 108.175C8.17845 105.8 8.79937 103.481 9.63965 101.219C9.9569 100.364 10.2784 99.2467 10.8508 98.2886C10.8688 98.2585 10.8798 98.2247 10.8828 98.1898C10.8857 98.1549 10.8806 98.1197 10.8679 98.0871C10.4928 97.1053 11.0073 96.563 11.3652 95.7827C11.5439 95.3897 11.7196 95.0489 11.8925 94.7602C12.6885 93.4384 13.5159 91.8886 14.3748 90.1108C14.6385 89.5685 14.7864 88.9983 14.99 88.5589C15.6259 87.1913 16.0982 85.7694 16.4069 84.2932C16.5527 83.5944 16.6598 81.9953 16.3362 81.3886C16.1618 81.0614 15.8903 80.797 15.5216 80.5955C14.8771 80.2454 14.2383 80.0218 13.6053 79.9246C12.8379 79.806 12.2219 79.9567 11.7575 80.3769C11.2759 80.8113 10.3363 81.9245 8.93871 83.7166C8.30707 84.5283 7.23242 86.1181 5.71477 88.486C5.01811 89.5728 4.4908 90.8547 3.83057 92.0315C3.23323 93.0975 2.82881 93.9021 2.61731 94.4451C1.91637 96.2522 1.45979 98.1964 1.02893 100.085C0.41801 102.764 0.516614 105.311 0.473743 108.031C0.455165 109.236 0.499465 110.366 0.606644 111.422C0.812427 113.449 1.05394 115.472 1.33117 117.493C1.4112 118.072 1.56411 118.63 1.7899 119.167C2.66161 121.236 3.46903 123.027 4.21213 124.539C4.47651 125.079 4.85806 125.562 5.3568 125.988C5.86054 126.419 6.18207 126.809 6.58078 127.265ZM130.614 86.4303C131.157 85.6458 131.767 85.2964 132.351 84.6747C132.416 84.6033 132.406 84.5476 132.318 84.5075C131.688 84.2139 131.118 83.888 130.979 83.3629C130.974 83.3405 130.961 83.3208 130.942 83.3075C130.923 83.2942 130.901 83.2883 130.878 83.291C130.855 83.2937 130.834 83.3047 130.819 83.322C130.804 83.3392 130.796 83.3614 130.796 83.3843L130.745 85.4914C130.745 85.5357 130.73 85.5782 130.702 85.6115C130.511 85.8544 130.476 86.1266 130.597 86.4282C130.601 86.441 130.607 86.4417 130.614 86.4303ZM115.809 83.4872C116.157 84.3332 116.685 85.0213 117.393 85.5515C117.504 85.6358 117.528 85.6158 117.463 85.4914C117.055 84.7012 116.509 84.0288 115.826 83.4743C115.801 83.4543 115.796 83.4586 115.809 83.4872ZM135.186 119.78C135.325 120.016 135.372 120.279 135.328 120.571C135.328 120.577 135.325 120.579 135.319 120.577C135.232 120.57 135.239 120.57 135.341 120.575C135.349 120.577 135.354 120.573 135.354 120.565C135.525 118.661 135.478 116.768 135.634 114.867C135.789 112.973 135.71 111.091 135.399 109.221C135.396 109.205 135.389 109.196 135.377 109.195C135.364 109.194 135.347 109.197 135.324 109.206C135.319 109.207 135.317 109.209 135.317 109.212C135.339 109.9 135.045 110.475 135.049 111.105C135.056 111.871 135.055 112.643 135.045 113.42C135.044 113.554 134.976 113.615 134.841 113.602L134.556 113.579C134.489 113.572 134.452 113.535 134.445 113.469C134.342 112.415 134.372 111.367 134.535 110.327C134.636 109.675 134.625 109.148 134.623 108.522C134.621 107.812 134.929 107.146 134.824 106.346C134.584 104.516 134.464 102.957 134.203 100.85C133.881 98.2628 133.71 95.4569 133.529 92.7496C133.525 92.671 133.484 92.6267 133.405 92.6167L133.043 92.5716C133.02 92.569 132.997 92.5608 132.978 92.5478C132.958 92.5348 132.941 92.5173 132.929 92.4966C132.628 91.9807 132.468 91.3448 132.449 90.5888C132.411 89.0055 132.447 87.7 132.558 86.6725C132.567 86.5939 132.547 86.5854 132.498 86.6468L131.577 87.7958C131.55 87.8301 131.537 87.8694 131.538 87.9137L131.572 89.0562C131.573 89.0768 131.568 89.0971 131.559 89.1156C131.55 89.134 131.537 89.1499 131.52 89.162C131.503 89.174 131.484 89.1818 131.464 89.1847C131.443 89.1875 131.422 89.1854 131.403 89.1784L131.317 89.1484C131.262 89.1269 131.207 89.1312 131.154 89.1612C130.587 89.4856 130.254 89.9801 130.156 90.6446C129.885 92.4881 129.687 94.3401 129.56 96.2007C129.268 100.485 129.019 104.772 128.814 109.062C128.794 109.452 128.835 110.106 128.749 110.631C128.619 111.435 128.642 112.149 128.486 112.974C128.324 113.824 128.103 115.719 127.823 118.659C127.772 119.18 127.791 119.842 127.716 120.43C127.517 121.981 127.528 123.546 127.525 125.109C127.525 125.615 127.463 126.161 127.339 126.749C127.04 128.164 126.908 129.599 126.942 131.055C126.944 131.117 126.974 131.147 127.034 131.147H127.347C127.457 131.147 127.505 131.202 127.491 131.312C127.472 131.471 127.513 131.605 127.613 131.713C127.626 131.726 127.634 131.743 127.638 131.76C127.642 131.778 127.64 131.796 127.634 131.813C127.628 131.83 127.618 131.845 127.604 131.857C127.59 131.868 127.573 131.876 127.555 131.878L127.079 131.955C126.988 131.97 126.969 132.015 127.022 132.091L127.167 132.296C127.18 132.314 127.196 132.329 127.215 132.34C127.234 132.351 127.254 132.357 127.276 132.359C127.298 132.361 127.319 132.359 127.34 132.352C127.36 132.344 127.379 132.333 127.395 132.318C127.756 131.97 128.173 131.718 128.646 131.559C128.714 131.537 128.766 131.497 128.805 131.439C129.587 130.284 130.653 129.04 130.638 127.585C130.623 126.258 130.623 123.437 131.639 122.742C131.703 122.698 131.735 122.715 131.733 122.794C131.689 124.552 131.642 126.309 131.594 128.065C131.568 128.995 131 130.269 131.95 130.974C132.003 131.014 132.06 131.021 132.121 130.995L132.331 130.909C132.35 130.902 132.371 130.899 132.391 130.902C132.412 130.905 132.431 130.913 132.447 130.926C132.463 130.938 132.476 130.955 132.484 130.974C132.492 130.993 132.495 131.013 132.492 131.034C132.463 131.254 132.515 131.448 132.646 131.617C132.657 131.63 132.663 131.645 132.666 131.662C132.668 131.678 132.667 131.695 132.661 131.71C132.655 131.726 132.645 131.74 132.633 131.75C132.62 131.761 132.605 131.768 132.588 131.771L132.421 131.803C132.412 131.806 132.405 131.812 132.399 131.819C132.394 131.827 132.392 131.836 132.393 131.846C132.393 131.855 132.397 131.864 132.404 131.87C132.41 131.877 132.419 131.881 132.428 131.883L132.548 131.885C132.628 131.886 132.7 131.909 132.764 131.953C133.737 132.631 134.29 131.008 134.411 130.401C134.436 130.271 134.407 130.258 134.323 130.363L133.459 131.447C133.446 131.463 133.43 131.474 133.412 131.482C133.394 131.489 133.374 131.491 133.354 131.488C133.335 131.485 133.317 131.478 133.301 131.466C133.286 131.454 133.273 131.438 133.266 131.42C133.069 130.938 133.033 130.434 133.159 129.908C133.177 129.834 133.225 129.794 133.302 129.788L133.793 129.76C133.836 129.757 133.877 129.739 133.907 129.708C133.938 129.677 133.956 129.636 133.958 129.593C133.97 129.408 134.038 129.245 134.162 129.107C134.182 129.084 134.197 129.057 134.205 129.028C134.213 128.998 134.214 128.967 134.209 128.937C134.148 128.616 134.2 128.324 134.365 128.061C134.398 128.01 134.413 127.951 134.411 127.891C134.336 126.346 134.515 124.882 134.946 123.499C135.069 123.106 135.112 122.727 135.075 122.363C135.015 121.786 134.987 121.451 134.991 121.36C135.016 120.845 135.042 120.328 135.071 119.808C135.078 119.672 135.116 119.663 135.186 119.78ZM102.291 87.4035C102.28 87.4119 102.271 87.4238 102.266 87.4374C102.262 87.4511 102.261 87.4658 102.266 87.4796C102.27 87.4933 102.278 87.5054 102.29 87.5141C102.301 87.5227 102.315 87.5275 102.33 87.5278L102.551 87.5364C102.57 87.5379 102.589 87.5326 102.605 87.5214C102.621 87.5101 102.633 87.4937 102.638 87.4749C102.643 87.4561 102.641 87.4361 102.633 87.4183C102.625 87.4006 102.611 87.3863 102.593 87.3778C102.491 87.3221 102.39 87.3306 102.291 87.4035ZM136.453 91.757C136.475 91.7568 136.494 91.6512 136.507 91.4633C136.52 91.2755 136.526 91.0208 136.524 90.7554C136.523 90.6239 136.52 90.4937 136.515 90.3723C136.51 90.2509 136.503 90.1406 136.495 90.0477C136.486 89.9548 136.477 89.8811 136.467 89.8309C136.457 89.7807 136.446 89.7549 136.436 89.755C136.415 89.7552 136.396 89.8609 136.382 90.0488C136.369 90.2366 136.363 90.4913 136.365 90.7567C136.367 90.8882 136.37 91.0184 136.375 91.1398C136.38 91.2612 136.387 91.3715 136.395 91.4644C136.403 91.5573 136.412 91.631 136.422 91.6812C136.433 91.7314 136.443 91.7572 136.453 91.757ZM136.597 95.4012C136.453 94.6338 136.503 93.8171 136.5 93.0368C136.499 92.9011 136.455 92.8846 136.368 92.9875L136.25 93.129C136.2 93.1876 136.178 93.2562 136.185 93.3348C136.347 94.9925 136.505 96.6509 136.661 98.31C136.68 98.5015 136.798 98.6851 137.015 98.8609C137.072 98.908 137.092 98.8959 137.075 98.8244C136.855 97.957 136.728 97.0774 136.696 96.1857C136.687 95.9699 136.654 95.7084 136.597 95.4012ZM136.828 100.942C136.724 101.51 136.753 102.081 136.914 102.655C136.937 102.739 136.959 102.739 136.981 102.653C137.219 101.674 137.301 100.678 137.225 99.6647C137.224 99.6609 137.221 99.6577 137.218 99.6553C137.215 99.653 137.211 99.6518 137.207 99.6518C137.203 99.6518 137.199 99.653 137.196 99.6553C137.192 99.6577 137.19 99.6609 137.189 99.6647C137.146 100.132 136.897 100.567 136.828 100.942ZM20.7948 117.268L21.0049 116.976C21.0435 116.923 21.0627 116.864 21.0627 116.798C21.0499 115.821 21.1235 114.852 21.2835 113.892C21.3664 113.394 21.4336 112.896 21.485 112.395C21.535 111.895 21.6086 111.397 21.7058 110.901C21.9473 109.658 22.1817 108.414 22.4089 107.169C22.4796 106.779 22.7004 106.306 22.7197 105.819C22.7254 105.697 22.7004 105.69 22.6447 105.797C22.3575 106.351 22.2824 107.026 22.0852 107.523C21.5908 108.772 21.3157 109.767 21.26 110.507C21.2371 110.824 21.2021 111.093 21.1549 111.313C21.0706 111.709 21.0256 111.972 21.0199 112.104C21.0006 112.533 21.0327 112.79 20.887 113.236C20.7941 113.517 20.7619 113.81 20.7905 114.115C20.7977 114.186 20.7798 114.25 20.7369 114.307C20.4797 114.648 20.5847 115.317 20.5804 115.733C20.574 116.359 20.3296 117.002 20.3446 117.716C20.3618 118.415 20.186 119.073 20.2846 119.782C20.2946 119.849 20.3132 119.852 20.3404 119.791C20.6719 119.035 20.8091 118.244 20.7519 117.418C20.7491 117.364 20.7642 117.311 20.7948 117.268ZM92.5723 112.721C92.6066 112.428 92.6173 112.134 92.6044 111.838C92.6016 111.767 92.6123 111.697 92.6366 111.628C92.8538 111.032 92.9038 110.412 92.7866 109.767C92.7681 109.669 92.7188 109.649 92.6387 109.71L92.1993 110.035C92.1293 110.088 92.1 110.158 92.1114 110.243L92.4501 112.723C92.4944 113.041 92.5351 113.04 92.5723 112.721ZM20.3811 122.86L20.6105 122.764C20.6933 122.73 20.7362 122.667 20.7391 122.577L20.8055 120.963C20.8074 120.92 20.7937 120.877 20.767 120.842C20.7402 120.808 20.7022 120.785 20.6598 120.777L20.4025 120.723C20.3111 120.703 20.2661 120.74 20.2675 120.832L20.2868 122.798C20.2868 122.865 20.3182 122.886 20.3811 122.86ZM20.7176 127.896C20.8312 126.933 20.6555 126.236 20.3811 125.358C20.3779 125.348 20.3712 125.339 20.3623 125.334C20.3535 125.329 20.3429 125.327 20.3328 125.329C20.3226 125.33 20.3134 125.336 20.3069 125.344C20.3004 125.352 20.2971 125.362 20.2975 125.373L20.4454 127.887C20.4484 127.92 20.4635 127.951 20.4879 127.975C20.5123 127.998 20.5442 128.011 20.5777 128.012C20.6112 128.013 20.6439 128.002 20.6697 127.98C20.6955 127.959 20.7125 127.929 20.7176 127.896ZM12.5678 130.626L10.5378 129.606L10.5337 129.605L10.5294 129.605L10.5255 129.607L10.5228 129.61L10.5185 129.621C10.4879 129.683 10.5621 129.795 10.7249 129.932C10.8877 130.068 11.1257 130.219 11.3867 130.35L11.466 130.389C11.727 130.52 11.9897 130.621 12.1963 130.67C12.4029 130.719 12.5365 130.712 12.5678 130.65L12.5721 130.641L12.5735 130.637L12.5732 130.633L12.5711 130.629L12.5678 130.626ZM20.7519 130.206L20.7455 129.82C20.7453 129.806 20.7411 129.791 20.7335 129.778C20.7259 129.765 20.715 129.755 20.702 129.747C20.689 129.74 20.6744 129.736 20.6594 129.736C20.6445 129.736 20.6298 129.74 20.6169 129.748C20.0188 130.078 19.5279 130.404 18.8249 130.47C18.2289 130.526 17.6323 130.574 17.035 130.614C15.5323 130.719 14.1283 130.498 12.7157 130.114C12.7025 130.11 12.6885 130.111 12.6761 130.116C12.6637 130.122 12.6536 130.132 12.6478 130.144C12.6419 130.157 12.6405 130.171 12.6439 130.185C12.6473 130.199 12.6553 130.211 12.6664 130.219C13.6631 130.929 14.4627 131.089 15.7681 130.993C16.6456 130.929 17.5273 130.882 18.4133 130.854C18.4566 130.852 18.4999 130.864 18.5376 130.888C18.9749 131.161 19.4086 131.176 19.8388 130.933C19.9045 130.896 19.9745 130.882 20.0488 130.89C20.3961 130.927 20.7055 130.837 20.977 130.62C21.0327 130.577 21.0313 130.535 20.9727 130.494L20.8612 130.414C20.7898 130.364 20.7534 130.295 20.7519 130.206ZM15.5216 130.052C16.1154 130.08 16.6706 129.994 17.1765 130.007C17.1793 130.007 17.1807 130.005 17.1807 130.005C17.1807 129.995 17.1807 129.99 17.1807 129.99L15.5238 129.977C15.5138 129.977 15.5041 129.981 15.4968 129.989C15.4896 129.996 15.4853 130.006 15.4851 130.016C15.4848 130.025 15.4885 130.035 15.4953 130.042C15.5022 130.049 15.5116 130.052 15.5216 130.052ZM84.5382 131.074C84.6782 131.092 84.7704 131.042 84.8147 130.924C84.8206 130.91 84.8217 130.895 84.818 130.88C84.8143 130.865 84.8059 130.852 84.7941 130.842C84.7823 130.833 84.7677 130.827 84.7525 130.827C84.7373 130.826 84.7223 130.83 84.7097 130.839L84.5125 130.963C84.4167 131.024 84.4253 131.062 84.5382 131.074ZM21.6372 131.546L20.1153 131.52C20.1106 131.52 20.1059 131.521 20.1015 131.522C20.0971 131.524 20.0931 131.526 20.0896 131.53C20.0862 131.533 20.0835 131.537 20.0816 131.541C20.0798 131.545 20.0788 131.55 20.0788 131.555V131.567C20.0778 131.619 20.0921 131.67 20.121 131.718C20.15 131.766 20.193 131.81 20.2475 131.847C20.3021 131.884 20.3672 131.914 20.439 131.935C20.5109 131.956 20.5881 131.967 20.6662 131.968L21.0692 131.973C21.2263 131.975 21.3778 131.937 21.4903 131.866C21.6028 131.794 21.6672 131.696 21.6694 131.593V131.58C21.6694 131.572 21.6661 131.563 21.6601 131.557C21.6541 131.55 21.6459 131.547 21.6372 131.546ZM18.4872 131.905C18.4879 131.893 18.4719 131.881 18.4402 131.868C18.4084 131.856 18.3615 131.843 18.3022 131.832C18.2428 131.82 18.1722 131.81 18.0943 131.801C18.0164 131.792 17.9328 131.785 17.8482 131.78C17.6773 131.77 17.513 131.77 17.3912 131.779C17.2695 131.789 17.2003 131.807 17.199 131.83C17.1983 131.842 17.2143 131.854 17.246 131.867C17.2778 131.879 17.3247 131.892 17.384 131.903C17.4434 131.915 17.514 131.926 17.5919 131.934C17.6698 131.943 17.7535 131.95 17.838 131.955C18.0089 131.965 18.1732 131.965 18.295 131.956C18.4167 131.946 18.4859 131.928 18.4872 131.905ZM83.4985 131.799L81.818 132.502L81.8129 132.505C81.8129 132.505 81.81 132.508 81.809 132.509C81.8079 132.511 81.8067 132.515 81.8067 132.515L81.8065 132.52L81.8084 132.525L81.812 132.529L81.8169 132.531L81.8223 132.53L83.5714 132.5C83.6243 132.499 83.6479 132.471 83.6422 132.419L83.5821 131.846C83.5764 131.793 83.5486 131.778 83.4985 131.799ZM129.476 132.819L129.549 132.806C129.575 132.802 129.6 132.789 129.619 132.77C129.639 132.751 129.652 132.726 129.658 132.699L129.75 132.241C129.792 132.042 129.748 132.021 129.617 132.178L129.142 132.759C129.07 132.846 129.089 132.88 129.199 132.86C129.221 132.856 129.242 132.852 129.262 132.849C129.343 132.841 129.415 132.831 129.476 132.819ZM84.3431 132.399L84.2895 132.421C84.2224 132.446 84.2245 132.463 84.296 132.47L85.2777 132.571C85.3692 132.581 85.3827 132.552 85.3184 132.485L84.8147 131.968C84.8023 131.955 84.7869 131.945 84.77 131.939C84.753 131.932 84.7347 131.93 84.7167 131.932C84.6986 131.934 84.6813 131.94 84.6659 131.949C84.6506 131.959 84.6377 131.972 84.6282 131.988L84.4074 132.346C84.3931 132.371 84.3717 132.389 84.3431 132.399ZM87.2584 132.605L86.4567 132.039C86.4295 132.02 86.4138 132.028 86.4095 132.061L86.3388 132.564C86.3316 132.626 86.3588 132.656 86.4202 132.656L87.2434 132.659C87.3034 132.659 87.3084 132.641 87.2584 132.605ZM126.267 132.343L126.261 132.146C126.261 132.133 126.255 132.12 126.246 132.11C126.236 132.1 126.223 132.095 126.209 132.095L126.183 132.097C125.425 132.118 124.698 132.152 124.161 132.19C123.623 132.229 123.32 132.269 123.315 132.303L123.318 132.35C123.315 132.367 123.388 132.381 123.531 132.393C123.675 132.404 123.886 132.412 124.153 132.417C124.421 132.421 124.738 132.422 125.088 132.418C125.438 132.415 125.813 132.408 126.192 132.397L126.218 132.395C126.231 132.394 126.244 132.389 126.253 132.379C126.262 132.37 126.267 132.357 126.267 132.343ZM121.545 133.119C121.17 133.31 120.69 133.248 120.246 133.049C120.181 133.021 120.111 133.012 120.042 133.023C119.672 133.087 119.36 132.995 119.105 132.746C119.047 132.688 118.976 132.662 118.893 132.669C116.828 132.854 114.759 132.941 112.685 132.931C111.687 132.927 110.61 133.141 109.549 133.154C108.45 133.167 107.558 133.321 106.548 133.473C106.308 133.51 105.509 133.46 105.432 133.495C104.851 133.76 104.881 133.893 105.519 133.893C108.235 133.895 110.976 133.898 113.744 133.902C114.575 133.903 115.378 133.858 116.154 133.765C117.746 133.574 119.307 133.302 120.906 133.295C121.692 133.291 122.468 133.287 123.234 133.282C123.237 133.283 123.24 133.282 123.242 133.28C123.244 133.278 123.245 133.276 123.246 133.273C123.246 133.27 123.245 133.267 123.243 133.265C123.242 133.263 123.239 133.261 123.236 133.261L121.729 133.087C121.665 133.079 121.603 133.089 121.545 133.119ZM36.5693 133.304C36.8794 133.238 37.1774 133.139 37.4632 133.008L37.4679 133.006L37.4714 133.002L37.4731 132.997L37.4729 132.992L37.4706 132.987L37.4668 132.984L37.4619 132.982L37.4568 132.982L35.116 132.991C35.0872 132.991 35.0586 132.997 35.0323 133.01C35.006 133.023 34.9826 133.041 34.9638 133.064L34.5308 133.58C34.4736 133.649 34.4894 133.677 34.578 133.664C35.2468 133.564 35.9105 133.444 36.5693 133.304ZM131.352 133.059C131.132 133.174 130.927 133.302 130.739 133.443C130.731 133.45 130.725 133.459 130.723 133.469C130.722 133.48 130.723 133.49 130.728 133.499C130.733 133.508 130.741 133.515 130.751 133.519C130.761 133.523 130.772 133.523 130.781 133.52C131.057 133.407 131.258 133.3 131.384 133.199C131.735 132.912 131.725 132.865 131.352 133.059ZM81.9809 133.499C82.1338 133.557 82.2917 133.586 82.4546 133.585L85.207 133.555C85.2584 133.553 85.2663 133.535 85.2305 133.499C85.0834 133.355 84.934 133.285 84.7825 133.289C83.6564 133.312 82.5311 133.299 81.4064 133.25C81.3635 133.249 81.3328 133.264 81.3142 133.297C81.2685 133.372 81.2892 133.407 81.3764 133.402C81.585 133.391 81.7865 133.423 81.9809 133.499ZM65.3039 142.74C67.4989 141.214 69.5439 139.492 71.6789 137.885C72.4906 137.273 74.0332 135.925 76.3069 133.842C76.3397 133.81 76.334 133.797 76.2897 133.801C75.6138 133.858 75.1915 133.937 75.0229 134.037C73.9997 134.64 72.8057 135.557 71.441 136.787C70.7164 137.44 69.9755 138.051 69.2181 138.62C67.4689 139.93 65.8105 141.349 64.2428 142.877C63.8013 143.306 63.4297 143.774 63.1282 144.283C63.0767 144.37 63.0889 144.381 63.1646 144.315C63.4411 144.071 63.6405 143.835 63.9942 143.662C64.5022 143.411 64.9738 142.969 65.3039 142.74ZM62.1529 144.802C62.1486 144.889 62.1822 144.908 62.2536 144.858L62.6952 144.553C62.7709 144.502 62.7652 144.461 62.678 144.431L62.3201 144.305C62.3041 144.299 62.287 144.297 62.2702 144.299C62.2533 144.301 62.2372 144.307 62.2231 144.316C62.209 144.326 62.1972 144.338 62.1887 144.353C62.1802 144.368 62.1753 144.384 62.1743 144.401L62.1529 144.802Z" fill="#151515"/>
<path d="M54.5136 68.4005C54.8422 68.0704 55.0259 67.6638 55.0645 67.1808C55.0716 67.0979 55.1095 67.0336 55.1781 66.9879L55.5746 66.7242C55.6347 66.6842 55.6797 66.6306 55.7097 66.5635C56.117 65.6117 56.3356 64.5357 56.8372 63.5925C57.0473 63.1966 57.3145 63.1288 57.6389 63.3888C57.7355 63.4665 57.8017 63.5758 57.826 63.6976C57.8503 63.8194 57.8311 63.9461 57.7718 64.0555C57.431 64.675 57.2702 65.4595 57.0558 66.0126C55.9197 68.9264 54.913 71.8845 54.0355 74.887C54.017 74.947 53.977 74.9841 53.9155 74.9984L53.8019 75.022C53.7233 75.0392 53.679 75.0877 53.669 75.1678C53.5039 76.4025 53.2832 77.6136 53.2296 78.8633C53.0752 82.3423 52.5865 85.8235 52.8459 89.3046C52.8502 89.3589 52.8673 89.4139 52.8973 89.4697C52.9173 89.504 52.9352 89.5383 52.9509 89.5726C52.968 89.6069 52.9766 89.644 52.9766 89.684C52.9695 91.0802 53.0366 92.4714 53.1781 93.8576C53.2839 94.8951 53.326 95.7575 53.3046 96.4449C53.2789 97.3094 53.2317 98.1747 53.1631 99.0407C53.1588 99.1093 53.1724 99.1729 53.2038 99.2315C53.4911 99.7545 53.3689 100.588 53.371 101.174C53.3725 101.302 53.4189 101.709 53.5104 102.393C53.6175 103.186 53.4932 103.874 53.0259 104.567C52.5758 105.231 52.2628 106.044 51.2425 105.804C50.8938 105.721 50.5737 105.581 50.2822 105.384C50.2538 105.364 50.2214 105.352 50.1874 105.347C50.1534 105.342 50.1187 105.345 50.086 105.355C50.0533 105.366 50.0235 105.384 49.9988 105.407C49.9741 105.431 49.9551 105.461 49.9435 105.493L49.7141 106.119C49.7097 106.132 49.7011 106.143 49.6896 106.15C49.6782 106.157 49.6645 106.16 49.6509 106.158C49.6372 106.156 49.6244 106.15 49.6145 106.14C49.6046 106.13 49.5981 106.118 49.5962 106.104C49.4912 105.291 49.444 104.385 48.8202 104.027C48.3701 103.765 48.1922 103.544 47.8749 103.206C47.8549 103.186 47.8321 103.181 47.8063 103.191C47.7906 103.198 47.7742 103.205 47.757 103.212L47.7543 103.215C47.7543 103.215 47.7543 103.219 47.7551 103.222C47.7559 103.224 47.7573 103.227 47.7591 103.23C47.7609 103.234 47.7632 103.237 47.7656 103.24L48.2329 103.817C48.2915 103.888 48.2743 103.927 48.1815 103.932C48.0057 103.941 47.8871 103.898 47.8256 103.804C47.4355 103.206 46.9896 102.698 46.6788 102.052C46.1401 100.932 45.2962 99.3637 44.1473 97.3473C43.5535 96.3034 42.8268 94.655 42.5053 93.2745C42.2109 92.0127 41.958 90.7422 41.7465 89.4632C41.6993 89.1817 41.5678 88.8723 41.352 88.5351C41.3106 88.4722 41.3185 88.4165 41.3756 88.3679L41.4785 88.28C41.53 88.2357 41.5557 88.1792 41.5557 88.1106C41.5071 84.3637 41.5464 80.6181 41.6736 76.874C41.6993 76.1152 41.8772 74.4897 42.2073 71.9974C42.2545 71.648 42.098 71.3694 42.2502 71.005C42.3417 70.7863 42.4231 70.4533 42.4946 70.0061C42.6403 69.0865 44.1151 69.6138 43.7421 70.752C43.7193 70.822 43.6742 70.872 43.6071 70.9021L43.472 70.9599C43.3977 70.9928 43.3584 71.0492 43.3541 71.1293C43.2813 72.5455 43.1648 73.9581 43.0047 75.3671C42.7882 77.2642 42.904 79.1119 42.6896 81.0133C42.4838 82.8289 42.6296 84.6273 42.6832 86.2929C42.7118 87.1703 42.7611 87.9242 42.8311 88.5544C42.949 89.5876 43.0047 90.5179 43.2941 91.5339C43.5428 92.4071 43.7843 93.2809 44.0186 94.1555C44.6724 96.6056 45.5384 98.6935 46.9425 100.674C47.7013 101.746 48.3344 102.675 48.8417 103.461C49.076 103.824 49.3468 104.11 49.6541 104.32C50.2007 104.693 51.4504 105.542 51.9563 104.961C52.4021 104.448 52.6179 103.838 52.6036 103.131C52.5808 102.075 52.5372 101.021 52.4729 99.9689C52.4614 99.8031 52.4107 99.6495 52.3207 99.508C52.2847 99.4527 52.2695 99.3859 52.2778 99.3194C52.3536 98.7278 52.345 98.1454 52.2521 97.5724C52.1849 97.1551 52.1399 96.7864 52.1171 96.4663C52.0885 96.0847 52.037 95.7053 51.9627 95.3281C51.9499 95.258 51.9584 95.1901 51.9884 95.1244C52.0342 95.0244 52.0513 94.9436 52.0399 94.8822C51.9198 94.2248 51.7312 93.5903 51.474 92.9787C51.4454 92.9115 51.444 92.8444 51.4697 92.7772C51.5783 92.4814 51.6326 92.2885 51.6326 92.1984C51.6598 90.3292 51.6705 88.9538 51.6648 88.0721C51.6633 87.8791 51.6326 87.6498 51.5726 87.384C51.5526 87.2954 51.5319 87.2954 51.5104 87.384L51.414 87.7677C51.3954 87.8408 51.3554 87.9066 51.2991 87.9568C51.2427 88.0069 51.1727 88.039 51.0979 88.0489C51.0232 88.0588 50.9471 88.0461 50.8797 88.0124C50.8122 87.9787 50.7564 87.9256 50.7194 87.8599L50.1471 86.8374C50.1305 86.8068 50.1069 86.7805 50.0782 86.7608C50.0495 86.741 50.0166 86.7283 49.9821 86.7238C49.419 86.6537 49.1289 86.3708 49.1118 85.8749C49.0875 85.179 49.0617 84.483 49.0346 83.7871C49.0332 83.7169 49.0124 83.6487 48.9746 83.5899C48.2115 82.4023 48.4151 80.8954 48.4601 78.964C48.4816 78.0652 48.6488 77.1177 48.9617 76.1217C49.2247 75.2885 49.5519 74.3911 49.9435 73.4293C50.4751 72.126 51.131 71.0307 51.9113 70.1432C52.1814 69.8374 52.6587 69.5537 53.3432 69.2922C53.4161 69.2651 53.4746 69.2186 53.5189 69.1529L54.3013 67.9911C54.3814 67.8725 54.4192 67.8846 54.415 68.0275L54.4085 68.3555C54.4057 68.4598 54.4407 68.4748 54.5136 68.4005ZM53.1996 70.8549C53.101 71.1993 53.1195 71.5466 53.2553 71.8967C53.311 72.0382 53.3417 72.0324 53.3475 71.8795L53.3818 70.8849C53.3818 70.8624 53.3737 70.8404 53.359 70.823C53.3444 70.8056 53.3241 70.7941 53.3019 70.7904C53.2797 70.7868 53.2571 70.7913 53.2383 70.8031C53.2195 70.815 53.2058 70.8334 53.1996 70.8549ZM51.4054 72.051C50.6873 73.1164 50.3529 74.2203 49.8835 75.3907C49.6134 76.0652 49.4304 76.6768 49.3347 77.2256C49.0575 78.8061 48.9839 80.4067 49.1139 82.0272L49.1158 82.0317L49.1203 82.0336L49.1249 82.0317L49.1268 82.0272C49.5255 80.0994 49.8063 78.1495 49.9692 76.1774C49.9935 75.8759 50.1471 75.4486 50.4301 74.8955C50.6873 74.3939 50.8688 73.9817 50.9745 73.6587C51.1474 73.1314 51.3054 72.6019 51.4483 72.0703C51.4503 72.0647 51.4501 72.0586 51.4478 72.0531C51.4454 72.0477 51.4411 72.0433 51.4357 72.0408C51.4303 72.0384 51.4242 72.0381 51.4186 72.04C51.4129 72.0419 51.4082 72.0458 51.4054 72.051ZM50.8974 86.3036C50.8631 86.4337 50.8716 86.5616 50.9231 86.6873C50.9817 86.8274 51.0124 86.8216 51.0153 86.6702L51.0217 86.3036C51.0303 85.9606 50.9888 85.9606 50.8974 86.3036ZM43.5985 94.2927C43.4635 93.1095 42.9726 91.7697 42.6553 90.6036C42.4345 89.7955 42.4581 88.9874 42.3938 88.1407C42.3944 88.1282 42.39 88.1159 42.3815 88.1067C42.3731 88.0974 42.3613 88.0919 42.3488 88.0914C42.3363 88.0908 42.3241 88.0952 42.3148 88.1037C42.3056 88.1121 42.3001 88.1239 42.2995 88.1364C41.9458 90.3292 42.5867 92.3721 43.5856 94.297C43.5971 94.3213 43.6014 94.3199 43.5985 94.2927ZM47.6725 102.99C47.6815 102.984 47.6813 102.964 47.6719 102.932C47.6624 102.899 47.644 102.854 47.6176 102.799C47.5912 102.744 47.5573 102.681 47.5179 102.613C47.4786 102.544 47.4345 102.472 47.3881 102.4C47.3418 102.329 47.2942 102.259 47.2479 102.195C47.2017 102.131 47.1577 102.074 47.1186 102.028C47.0795 101.981 47.046 101.946 47.02 101.924C46.9939 101.902 46.9759 101.894 46.9669 101.899C46.958 101.905 46.9582 101.925 46.9676 101.958C46.9771 101.991 46.9955 102.036 47.0219 102.09C47.0483 102.145 47.0822 102.208 47.1215 102.277C47.1609 102.345 47.205 102.417 47.2513 102.489C47.2977 102.561 47.3453 102.63 47.3916 102.694C47.4378 102.758 47.4817 102.815 47.5209 102.862C47.56 102.908 47.5935 102.943 47.6195 102.965C47.6455 102.988 47.6636 102.996 47.6725 102.99Z" fill="#151515"/>
<path d="M78.7587 64.0114L78.6623 63.8592C78.6051 63.7692 78.6273 63.7406 78.7287 63.7735C78.8545 63.8121 78.9609 63.8821 79.0481 63.9836C79.1067 64.0522 79.0989 64.1107 79.0245 64.1593L78.7973 64.3137C78.7101 64.3723 78.6873 64.353 78.7287 64.2558L78.7716 64.1593C78.793 64.1079 78.7887 64.0586 78.7587 64.0114Z" fill="#151515"/>
<path d="M78.7119 67.7884L79.042 67.2825C79.0455 67.2784 79.0503 67.2756 79.0555 67.2746C79.0608 67.2736 79.0662 67.2744 79.071 67.2769C79.0757 67.2794 79.0795 67.2834 79.0816 67.2883C79.0838 67.2932 79.0842 67.2987 79.0828 67.3039C79.0056 67.4968 78.902 67.6726 78.7719 67.8312C78.7663 67.8392 78.7577 67.8446 78.748 67.8462C78.7384 67.8478 78.7285 67.8455 78.7205 67.8398C78.7125 67.8341 78.7072 67.8255 78.7056 67.8159C78.704 67.8062 78.7062 67.7963 78.7119 67.7884Z" fill="#151515"/>
<path d="M122.306 72.3918C121.706 72.3218 121.111 72.3304 120.522 72.4175C119.981 72.4976 119.516 72.5326 119.129 72.5226C118.21 72.4968 117.033 72.5197 115.596 72.5912C114.673 72.6369 112.815 72.6283 110.023 72.5654C110.007 72.5652 109.99 72.5686 109.975 72.5753C109.961 72.5821 109.947 72.5921 109.937 72.6046C109.926 72.6171 109.918 72.6318 109.914 72.6476C109.91 72.6634 109.909 72.68 109.912 72.6962C109.995 73.1492 109.837 73.3707 109.438 73.3607C108.372 73.3364 107.107 73.1378 105.644 72.7648C105.569 72.7462 105.518 72.7719 105.489 72.842C105.414 73.0177 105.289 73.0963 105.116 73.0777C104.548 73.0199 103.813 71.4058 104.632 71.2964C104.778 71.2764 104.962 71.3293 105.185 71.4551C105.892 71.8495 106.657 72.0117 107.479 71.9417C107.552 71.9359 107.62 71.9502 107.684 71.9845C107.836 72.0646 107.972 72.106 108.094 72.1089C109.886 72.1646 112.065 72.1774 114.632 72.1474C114.963 72.1432 115.242 72.1174 115.468 72.0703C116.874 71.7745 118.589 71.9481 120.04 71.9245C120.11 71.9246 120.179 71.9037 120.237 71.8645C120.346 71.793 120.46 71.7544 120.58 71.7487C121.369 71.7087 122.124 71.6887 122.846 71.6887C122.907 71.6887 122.966 71.7014 123.022 71.726C123.077 71.7507 123.127 71.7868 123.167 71.8319C123.208 71.877 123.238 71.9302 123.257 71.9878C123.275 72.0455 123.281 72.1065 123.275 72.1667C123.215 72.7069 123.257 73.275 123.403 73.8709C123.475 74.1695 123.301 74.3875 122.882 74.5247C122.809 74.549 122.743 74.5382 122.683 74.4925C122.37 74.2567 122.195 73.9402 122.158 73.5429C122.151 73.481 122.169 73.4187 122.207 73.3693C122.403 73.1121 122.469 72.8169 122.404 72.484C122.393 72.4297 122.36 72.399 122.306 72.3918Z" fill="#151515"/>
<path d="M107.339 78.5721C107.652 78.9622 108.872 80.0919 107.873 80.4713C106.804 80.8807 104.39 75.9291 104.062 75.0974C103.843 74.5422 103.052 74.1885 103.02 73.6419C102.997 73.2582 103.299 73.0738 103.657 73.0781C104.238 73.0867 105.322 73.4811 105.087 74.2185C105.065 74.2885 105.077 74.3521 105.123 74.4093C105.822 75.2538 107.532 76.9044 107.292 78.3963C107.281 78.4621 107.297 78.5206 107.339 78.5721Z" fill="#151515"/>
<path d="M45.8499 82.5146C46.0142 82.2574 46.2129 82.0273 46.4458 81.8244C46.4673 81.8058 46.4894 81.8015 46.5123 81.8115C46.5166 81.813 46.5216 81.8151 46.5273 81.818C46.5273 81.818 46.5216 81.8258 46.5101 81.8415L45.7749 82.8426C45.7664 82.8551 45.7538 82.8643 45.7393 82.8685C45.7248 82.8727 45.7092 82.8716 45.6954 82.8655C45.6816 82.8593 45.6704 82.8485 45.6637 82.8349C45.6571 82.8213 45.6555 82.8058 45.6591 82.7911C45.672 82.7311 45.6984 82.6818 45.7384 82.6432C45.797 82.5832 45.8342 82.5404 45.8499 82.5146Z" fill="#151515"/>
</svg>
