<svg width="261" height="449" viewBox="0 0 261 449" fill="none" xmlns="http://www.w3.org/2000/svg">
<path opacity="0.8784" d="M2.01637 1.84935C4.75238 -0.886411 23.9826 2.08384 27.8912 2.08384C31.7998 2.08384 49.9356 1.92751 53.8442 1.92751C57.7528 1.92751 75.7323 2.3965 79.6409 2.47466C83.5495 2.47466 102.076 2.47466 105.985 2.47466C109.893 2.3965 127.56 1.92751 131.469 1.84935C135.377 1.77118 153.435 1.69302 157.344 1.77118C161.252 1.84935 179.701 2.47466 183.609 2.47466C187.518 2.47466 205.263 2.24017 209.171 2.24017C213.08 2.24017 231.45 2.162 235.359 2.31833C239.267 2.55283 256.309 2.08384 258.732 5.13225C261.156 8.18067 258.576 27.331 258.576 31.2392C258.576 35.1474 258.654 53.3598 258.654 57.268C258.654 61.1762 258.498 79.3104 258.42 83.2186C258.341 87.1268 258.107 104.636 258.107 108.544C258.107 112.452 258.732 131.055 258.732 134.963C258.732 138.872 258.576 156.537 258.498 160.445C258.498 164.353 258.341 182.331 258.341 186.239C258.341 190.148 258.029 208.516 258.029 212.425C258.029 216.333 258.185 234.858 258.263 238.766C258.341 242.674 258.732 260.808 258.732 264.717C258.732 268.625 258.498 286.212 258.42 290.12C258.341 294.028 258.185 312.71 258.107 316.618C258.029 320.526 257.951 338.504 257.951 342.412C257.951 346.32 258.498 364.454 258.576 368.363C258.576 372.271 258.107 390.483 258.107 394.391C258.107 398.3 258.654 415.809 258.654 419.717C258.654 423.625 260.921 443.557 258.263 446.293C255.527 449.107 236.531 446.449 232.623 446.371C228.714 446.293 210.657 445.746 206.748 445.746C202.839 445.746 184.782 446.136 180.873 446.215C176.965 446.293 158.594 446.293 154.686 446.293C150.777 446.293 132.485 446.058 128.576 446.058C124.668 446.058 106.845 446.058 102.936 446.058C99.0274 446.058 81.048 446.449 77.1394 446.449C73.2308 446.449 54.6259 445.824 50.7173 445.746C46.8088 445.667 28.4384 445.902 24.5298 445.746C20.6212 445.589 4.36152 446.527 1.9382 443.479C-0.485123 440.43 2.32906 421.28 2.32906 417.372C2.32906 413.464 2.01637 394.939 1.9382 391.03C1.86003 387.122 1.78186 369.457 1.78186 365.549C1.78186 361.641 1.54734 342.881 1.54734 338.973C1.54734 335.065 1.70368 317.009 1.78186 313.1C1.86003 309.192 2.17271 290.98 2.17271 287.072C2.17271 283.163 1.70368 265.42 1.78186 261.512C1.78186 257.604 2.25089 239.313 2.25089 235.405C2.25089 231.497 2.25089 213.597 2.25089 209.689C2.25089 205.781 2.25089 187.177 2.25089 183.269C2.25089 179.361 2.09454 161.618 2.01637 157.709C2.01637 153.801 1.9382 135.667 1.9382 131.759C1.9382 127.851 1.78186 109.716 1.78186 105.808C1.78186 101.9 2.09454 83.6876 2.01637 79.7794C2.01637 75.8711 1.46917 58.0496 1.46917 54.1414C1.46917 50.2332 2.01637 32.0208 2.01637 28.1126C2.01637 24.2044 -0.797809 4.66327 2.01637 1.84935Z" stroke="#151515" stroke-width="1.35211" stroke-miterlimit="10" stroke-linecap="square"/>
</svg>
