<svg width="121" height="135" viewBox="0 0 121 135" fill="none" xmlns="http://www.w3.org/2000/svg">
<path d="M37 21L43 2H44.5L49.5 9.5L84 10.5L89.5 3L91 2L94 14V24.5L89.5 38L83.5 46L89.5 55L95 57.5L101 55L100 45L101 29.5L107 23.5L111.5 25.5L115 32L116 46.5L113.5 62L107 74L97.5 81L100 84.5L106 99L104.5 114L99.5 125L102 127.5L100 129.5L90.5 131.5L60 132.5H26L12.5 128.5L18 125L12.5 119L6.5 106.5L9.5 90L11 76L15 62L31 45L39 39L37 21Z" fill="#F8F7F2"/>
<path d="M43.9566 48.8091C39.7591 46.5488 36.9311 38.9195 36.2107 34.5187C35.5082 30.2377 35.3126 26.6481 35.6238 23.7497C36.0018 20.246 37.9805 16.8088 38.8786 13.2784C39.7057 10.0366 40.5253 6.79628 41.3376 3.55747C43.1873 -3.82757 48.7099 6.71487 49.5858 8.39793C49.6592 8.54028 49.7686 8.6613 49.9034 8.74922C50.0382 8.83715 50.1938 8.889 50.3551 8.89974C56.5891 9.32309 62.8601 9.5999 69.1682 9.73016C73.2101 9.81454 78.5637 9.36158 83.2992 9.62359C83.4545 9.63184 83.6095 9.60266 83.7511 9.53851C83.8927 9.47436 84.0168 9.37712 84.1129 9.255C85.7611 7.15007 87.2388 4.95187 88.5461 2.66043C89.5199 0.959605 91.0628 0.42227 92.0277 2.505C93.8893 6.53724 95.0039 10.7723 95.3715 15.2101C95.6249 18.3053 95.6916 22.8216 95.0647 26.1344C93.7663 32.9777 90.9605 39.9986 86.1272 45.1854C84.2685 47.1808 82.404 48.8506 80.5335 50.1946C73.7437 55.0795 64.2459 55.3593 56.0288 54.2802C53.521 53.9471 52.0803 53.5874 49.8304 52.1974C47.9095 51.0103 45.9516 49.8808 43.9566 48.8091ZM38.1539 22.0089C37.3935 29.8292 38.2384 38.4932 43.1473 44.9456C44.3834 46.5754 46.3354 47.3259 48.4964 48.4006C50.0082 49.1511 52.0314 50.7364 53.6988 51.1716C57.007 52.0302 60.5983 52.4195 64.4727 52.3395C70.3065 52.2196 74.8909 51.478 79.3552 48.1785C87.4923 42.1612 92.8503 31.5078 93.2594 21.4538C93.5173 14.9792 92.7925 8.84201 90.5915 2.78921C90.5804 2.75861 90.5606 2.73207 90.5345 2.71275C90.5084 2.69343 90.477 2.68217 90.4442 2.68029C90.4114 2.67842 90.3784 2.68602 90.3493 2.70218C90.3203 2.71835 90.2963 2.7424 90.2802 2.77145C88.8603 5.43296 87.2403 7.97309 85.4202 10.3918C84.9014 11.0846 84.107 11.4177 83.0369 11.391C78.457 11.2711 73.2724 11.733 68.519 11.502C62.9283 11.2326 57.3361 11.0062 51.7424 10.8226C50.0349 10.7693 49.0878 10.8981 48.2652 9.52589C46.9668 7.35434 45.6685 4.89859 43.7742 3.18C43.7269 3.13717 43.6693 3.10702 43.6071 3.09244C43.5449 3.07785 43.4802 3.07932 43.419 3.0967C43.3579 3.11408 43.3024 3.14679 43.258 3.1917C43.2135 3.23661 43.1815 3.29222 43.1651 3.35319C41.9171 7.85319 40.6409 12.3014 39.3366 16.6978C38.6756 18.927 38.2813 20.6974 38.1539 22.0089Z" fill="#151515"/>
<path d="M76.419 25.7831C77.8626 25.0193 78.9253 23.9535 79.6071 22.5858C79.655 22.4868 79.7321 22.4049 79.828 22.3511C79.924 22.2973 80.0341 22.2741 80.1437 22.2848C80.2532 22.2954 80.3568 22.3393 80.4406 22.4106C80.5243 22.4819 80.5841 22.5771 80.612 22.6835C81.0745 24.3754 78.4999 26.3693 77.2371 26.9422C76.2115 27.4099 75.2347 27.5402 74.3069 27.333C73.0707 27.0532 70.9853 25.459 71.2921 23.9668C71.3043 23.9089 71.3325 23.8554 71.3736 23.8127C71.4147 23.77 71.4671 23.7398 71.5246 23.7254C71.5822 23.711 71.6426 23.7131 71.699 23.7315C71.7554 23.7499 71.8055 23.7837 71.8435 23.8292C73.0396 25.2858 74.2179 26.9511 76.419 25.7831Z" fill="#151515"/>
<path d="M111.774 27.9194C110.799 26.0779 109.076 25.1276 106.607 25.0684C105.767 25.0506 104.562 26.2052 104.037 27.0046C101.445 30.9702 101.111 34.8559 101.178 39.532C101.254 44.6212 104.544 53.0809 100.804 57.0687C97.8787 60.1906 91.5424 60.2128 88.9501 56.598C87.3167 54.3213 86.0228 52.286 85.0683 50.4919C84.6325 49.6718 84.7215 48.8902 85.3351 48.1472C85.377 48.0973 85.4307 48.0591 85.4907 48.0365C85.5508 48.0139 85.6152 48.0077 85.6775 48.0184C87.0514 48.2671 89.1946 52.0195 90.453 53.8846C91.9337 56.074 93.6011 56.7445 96.1668 56.2916C99.2304 55.7587 99.7062 53.6715 99.5506 50.7983C99.4201 48.3529 99.14 45.9223 98.7102 43.5065C97.6119 37.3516 98.2878 30.1531 102.17 25.135C105.825 20.4055 112.107 22.3595 114.429 27.08C116.584 31.4587 117.589 35.7914 117.443 40.0782C117.314 43.9195 117.328 48.0317 116.79 51.6021C115.98 56.9843 114.437 61.3452 112.383 67.056C110.965 71.0083 109.622 73.5396 106.447 76.4039C101.454 80.9157 95.482 83.3626 89.3947 85.6496C88.4402 86.0078 87.5672 85.999 86.7758 85.623C86.6556 85.5658 86.5547 85.4749 86.4855 85.3614C86.4162 85.2478 86.3816 85.1166 86.3858 84.9838C86.3901 84.8509 86.433 84.7221 86.5094 84.6133C86.5857 84.5044 86.6922 84.4201 86.8158 84.3707C92.9208 81.946 99.0614 79.5524 104.379 75.1649C106.92 73.0659 108.841 70.1749 110.142 66.4921C111.746 61.9388 112.721 58.9087 113.068 57.4018C114.266 52.1853 114.818 46.9141 114.726 41.5881C114.682 38.9592 114.457 36.6307 114.051 34.6027C113.538 32.0389 112.779 29.8111 111.774 27.9194Z" fill="#151515"/>
<path d="M48.1525 22.8925C50.4691 26.2985 54.2575 27.2666 57.1433 23.7939C57.2286 23.6937 57.3444 23.624 57.473 23.5955C57.6016 23.567 57.7361 23.5812 57.8558 23.636C57.9756 23.6908 58.0742 23.7832 58.1366 23.899C58.199 24.0149 58.2218 24.148 58.2016 24.278C58.0993 24.8819 57.6724 25.5925 57.1389 25.9655C53.3949 28.6004 50.1 28.0378 47.2543 24.278C46.86 23.7599 46.8007 23.298 47.0764 22.8925C47.1365 22.8054 47.2169 22.7343 47.3106 22.6852C47.4043 22.636 47.5086 22.6104 47.6144 22.6104C47.7203 22.6104 47.8246 22.636 47.9183 22.6852C48.012 22.7343 48.0924 22.8054 48.1525 22.8925Z" fill="#151515"/>
<path d="M106.111 28.4246C106.375 29.6447 107.177 30.507 107.902 30.3505C108.627 30.194 109 29.0779 108.736 27.8578C108.472 26.6376 107.67 25.7753 106.945 25.9318C106.22 26.0884 105.847 27.2044 106.111 28.4246Z" fill="#151515"/>
<path d="M109.807 28.9356C109.907 29.62 110.423 30.1114 110.96 30.0331C111.497 29.9549 111.851 29.3367 111.751 28.6523C111.651 27.9679 111.135 27.4765 110.598 27.5548C110.061 27.633 109.707 28.2512 109.807 28.9356Z" fill="#151515"/>
<path d="M103.353 30.5818C103.812 31.3959 104.657 31.7904 105.239 31.4629C105.82 31.1354 105.92 30.21 105.461 29.3959C105.001 28.5818 104.157 28.1874 103.575 28.5148C102.993 28.8423 102.894 29.7677 103.353 30.5818Z" fill="#151515"/>
<path d="M109.325 39.4528C111.34 38.5945 112.39 36.5325 111.67 34.8474C110.95 33.1622 108.733 32.4919 106.719 33.3502C104.704 34.2085 103.654 36.2704 104.373 37.9556C105.093 39.6408 107.31 40.3111 109.325 39.4528Z" fill="#151515"/>
<path d="M64.1326 39.4346C64.1079 39.446 64.0859 39.4627 64.0683 39.4834C64.0507 39.5042 64.0379 39.5285 64.0307 39.5547C64.0235 39.581 64.0221 39.6084 64.0266 39.6353C64.0312 39.6621 64.0416 39.6876 64.0571 39.71C66.4404 43.0939 71.7006 45.9182 75.2489 42.2412C75.3438 42.1435 75.4549 42.074 75.5824 42.0325L75.8714 41.9392C75.9227 41.9236 75.9776 41.9234 76.029 41.9389C76.0804 41.9544 76.126 41.9848 76.1596 42.0261C76.1932 42.0674 76.2134 42.1176 76.2176 42.1703C76.2217 42.2229 76.2095 42.2755 76.1827 42.3212C72.7589 48.2807 65.6222 44.3284 62.7142 40.3406C62.6696 40.2786 62.61 40.2289 62.541 40.196C62.4721 40.1632 62.3959 40.1483 62.3196 40.1527C62.2433 40.1571 62.1693 40.1807 62.1046 40.2214C62.0399 40.262 61.9865 40.3182 61.9494 40.385C60.1619 43.532 57.4777 44.7429 53.8968 44.0175C52.4739 43.7289 50.2818 42.2679 50.3574 40.6692C50.3618 40.5592 50.4003 40.4533 50.4675 40.3661C50.5346 40.2788 50.6272 40.2144 50.7324 40.1818C50.8377 40.1492 50.9505 40.15 51.0553 40.184C51.1601 40.2179 51.2518 40.2835 51.3178 40.3716C52.9867 42.5654 55.1863 43.2907 57.9164 42.5476C59.0399 42.2457 59.907 41.4478 60.5176 40.154C60.574 40.0327 60.5591 39.9202 60.4732 39.8166C59.8773 39.1105 57.4673 36.6147 59.0503 35.6733C60.4154 34.8606 64.9286 35.7532 66.6405 36.0374C66.7942 36.0626 66.9347 36.1395 67.0383 36.2551C67.1419 36.3707 67.2024 36.518 67.2096 36.6725C67.2719 37.8448 65.0086 39.0394 64.1326 39.4346Z" fill="#151515"/>
<path d="M27.591 99.5668C29.0139 106.619 35.9371 111.428 42.4379 113.333C50.3216 115.642 59.3791 114.936 66.9604 111.521C71.3268 109.559 73.3722 106.184 75.4576 101.707C78.0574 96.1178 78.3686 90.4262 76.3914 84.6324C74.2037 78.2199 69.3659 69.7469 62.505 67.3888C61.091 66.9033 59.1894 66.6028 56.8001 66.4874C51.5354 66.2268 46.379 66.7938 41.3307 68.1882C36.2217 69.6003 32.3799 72.0872 29.383 76.2304C29.3138 76.323 29.2134 76.3872 29.1003 76.4112C28.9872 76.4351 28.8692 76.4171 28.7685 76.3605C28.6677 76.304 28.591 76.2127 28.5527 76.1037C28.5144 75.9948 28.5171 75.8757 28.5604 75.7686C30.5568 71.0658 36.2395 68.0061 41.0195 66.6117C47.7515 64.64 54.3842 64.1145 60.9176 65.0352C64.0657 65.4793 66.9574 66.9995 69.5927 69.5959C76.3647 76.266 81.994 88.0385 79.1349 97.5906C77.8395 101.91 76.1557 105.546 74.0837 108.497C70.7844 113.196 63.1586 115.523 57.6183 116.357C52.567 117.121 47.3291 116.624 42.349 115.412C37.0487 114.124 32.54 111.197 29.045 107.227C27.1538 105.081 26.143 102.496 26.0125 99.4735C26.0066 99.3344 25.934 99.2545 25.7946 99.2337C19.863 98.3811 14.4071 94.0291 10.9878 89.0377C9.68496 87.137 9.0002 85.5383 8.88904 83.1359C8.5511 75.8559 10.1044 69.1281 13.549 62.9525C14.791 60.7321 16.5059 58.3237 18.6936 55.7273C23.2438 50.3244 28.4729 45.5831 34.3808 41.5035C34.5172 41.4082 34.6828 41.3637 34.8492 41.3775C35.0155 41.3912 35.1722 41.4625 35.2924 41.579C35.6866 41.9609 35.6466 42.365 35.1723 42.7913C29.1962 48.1469 23.3624 53.0406 18.4134 59.8528C13.1844 67.0513 10.8588 74.9382 11.3746 83.8553C11.4191 84.6694 11.7378 85.5605 12.3306 86.5286C15.0222 90.9339 18.6936 94.0573 23.3446 95.8987C27.1775 97.4174 30.5168 97.1022 33.2692 93.8471C33.7139 93.3201 33.951 92.8242 33.9807 92.3594C33.986 92.2715 33.9668 92.1838 33.9252 92.1062C33.8836 92.0286 33.8212 91.964 33.745 91.9198C30.7065 90.1582 28.6523 87.8283 27.5821 84.93C25.679 79.7698 25.3055 71.35 28.3336 66.3719C29.4096 64.6 31.3483 62.4818 33.536 62.0599C33.577 62.0514 33.6196 62.0555 33.6583 62.0715C33.6969 62.0875 33.7299 62.1147 33.7529 62.1496C33.7759 62.1845 33.7879 62.2256 33.7873 62.2674C33.7866 62.3092 33.7735 62.3498 33.7494 62.3841C32.46 64.3069 30.6058 66.0166 29.7165 67.9617C28.6938 70.2058 28.1009 72.5668 27.9379 75.0448C27.8089 76.9454 28.4492 79.0903 27.7644 80.9643C27.2976 82.2433 27.8623 83.3046 28.1202 84.4859C28.6048 86.7151 30.7258 85.4051 30.6191 83.9485C30.2678 79.2147 35.3324 75.1202 39.3609 73.3839C42.7314 71.9303 45.4675 70.977 47.5692 70.524C53.4741 69.251 58.6676 70.148 63.1497 73.2151C69.357 77.4605 73.3722 86.1112 73.7946 93.4696C74.1 98.7897 72.1598 103.177 67.9742 106.632C65.3507 108.793 62.6221 110.247 59.7882 110.993C54.5057 112.383 47.4358 112.636 42.5624 109.727C38.4316 107.263 33.1225 103.426 30.8592 99.0517C30.826 98.9863 30.7726 98.9333 30.707 98.9005C30.6413 98.8677 30.5669 98.8569 30.4946 98.8696L27.7422 99.3448C27.6147 99.3684 27.5644 99.4425 27.591 99.5668ZM51.611 82.3188C51.7901 82.4092 51.9338 82.5564 52.0193 82.7367C52.1047 82.917 52.1269 83.12 52.0824 83.3135C50.9618 88.2753 50.2415 93.2772 49.9214 98.3189C49.7969 100.348 49.3922 102.267 49.0276 104.243C48.998 104.409 49.0676 104.503 49.2366 104.527L51.6155 104.851C51.737 104.869 51.8082 104.819 51.8289 104.7L57.2492 75.2979C57.27 75.1943 57.227 75.1351 57.1203 75.1203L50.8329 74.3653C50.768 74.3575 50.7021 74.3688 50.6436 74.3981C50.5851 74.4273 50.5365 74.473 50.5039 74.5296C49.6368 76.0128 48.8409 77.4028 47.6403 78.6551C46.3953 79.9548 45.131 81.2441 43.8474 82.523C43.7326 82.635 43.6617 82.7846 43.6474 82.9449L43.3806 86.0224C43.3628 86.203 43.4369 86.3303 43.6029 86.4043C44.5589 86.8351 45.2392 86.5819 46.0084 85.8359C46.9244 84.9477 50.3794 81.6971 51.611 82.3188ZM38.7611 84.3401C38.9359 84.2576 39.09 84.136 39.2148 83.9823C39.3396 83.8286 39.4325 83.6458 39.4883 83.4443C39.5441 83.2428 39.5617 83.0266 39.54 82.808C39.5183 82.5894 39.4579 82.3726 39.362 82.1702C39.2662 81.9677 39.1369 81.7835 38.9815 81.628C38.8261 81.4725 38.6476 81.3488 38.4563 81.264C38.265 81.1792 38.0646 81.1349 37.8665 81.1336C37.6683 81.1324 37.4764 81.1742 37.3017 81.2567C37.127 81.3392 36.9728 81.4607 36.848 81.6144C36.7233 81.7681 36.6303 81.9509 36.5745 82.1524C36.5187 82.3539 36.5012 82.5701 36.5228 82.7888C36.5445 83.0074 36.605 83.2241 36.7008 83.4266C36.7966 83.629 36.9259 83.8133 37.0813 83.9687C37.2367 84.1242 37.4152 84.2479 37.6065 84.3327C37.7978 84.4176 37.9983 84.4619 38.1964 84.4631C38.3945 84.4644 38.5864 84.4226 38.7611 84.3401ZM62.3849 85.0632C61.7891 86.129 62.7762 86.955 62.874 87.923C62.8856 88.0345 62.9216 88.1421 62.9797 88.238C63.0378 88.3339 63.1164 88.4158 63.2099 88.4778C63.3034 88.5398 63.4095 88.5803 63.5206 88.5965C63.6316 88.6127 63.7449 88.6041 63.8523 88.5714C64.9135 88.2457 65.6768 87.5915 66.1422 86.6086C67.4806 83.802 63.6388 82.7984 62.3849 85.0632ZM34.1185 89.1931L37.6801 91.1693C37.8954 91.2886 38.1493 91.3177 38.3861 91.2503C38.6228 91.1829 38.8231 91.0243 38.943 90.8096L39.2498 90.2633C39.4043 89.9859 39.4975 89.6779 39.5239 89.357C39.5504 89.0361 39.5095 88.7085 39.4038 88.393C39.2981 88.0775 39.1296 87.7802 38.9078 87.5183C38.686 87.2563 38.4154 87.0347 38.1115 86.8661L37.5512 86.5553C36.9383 86.2151 36.2269 86.111 35.5732 86.2659C34.9196 86.4208 34.3771 86.8219 34.0651 87.3813L33.7583 87.9319C33.6388 88.1469 33.6097 88.4005 33.6772 88.6369C33.7447 88.8734 33.9034 89.0734 34.1185 89.1931ZM68.5522 96.4538C69.4059 93.6561 64.955 93.2431 63.3276 93.3053C61.8009 93.3615 60.7768 94.1224 60.255 95.5878C59.7926 96.8875 60.2773 97.6691 61.709 97.9326C63.5677 98.2745 67.8586 98.7275 68.5522 96.4538ZM42.6119 95.9498C42.4334 95.7455 42.1804 95.6096 41.8673 95.5499C41.5543 95.4902 41.1872 95.5079 40.7872 95.6019C40.3872 95.696 39.962 95.8645 39.5359 96.098C39.1099 96.3315 38.6913 96.6253 38.3041 96.9627C37.9169 97.3 37.5686 97.6743 37.2791 98.0642C36.9897 98.4541 36.7648 98.8519 36.6172 99.235C36.4696 99.618 36.4022 99.9788 36.4189 100.297C36.4357 100.615 36.5361 100.883 36.7146 101.088C36.8931 101.292 37.1461 101.428 37.4592 101.488C37.7723 101.547 38.1393 101.53 38.5394 101.436C38.9394 101.342 39.3646 101.173 39.7906 100.94C40.2167 100.706 40.6353 100.412 41.0225 100.075C41.4097 99.7375 41.758 99.3632 42.0474 98.9733C42.3369 98.5834 42.5618 98.1856 42.7094 97.8026C42.857 97.4195 42.9244 97.0588 42.9076 96.7409C42.8909 96.423 42.7904 96.1542 42.6119 95.9498ZM56.7067 102.684L60.6374 107.076C60.7051 107.152 60.7871 107.214 60.8787 107.258C60.9704 107.302 61.0698 107.328 61.1714 107.334C61.2731 107.34 61.3748 107.325 61.4709 107.292C61.5669 107.258 61.6554 107.206 61.7313 107.138L62.1404 106.77C62.3307 106.601 62.473 106.381 62.5592 106.125C62.6455 105.868 62.6739 105.579 62.643 105.274C62.612 104.97 62.5222 104.655 62.3787 104.348C62.2353 104.042 62.041 103.75 61.8069 103.488L60.4062 101.925C59.9338 101.398 59.3291 101.029 58.7247 100.898C58.1202 100.767 57.5656 100.886 57.1825 101.228L56.769 101.596C56.6168 101.733 56.5248 101.924 56.5131 102.127C56.5014 102.331 56.5711 102.531 56.7067 102.684Z" fill="#151515"/>
<path d="M16.186 125.381C11.5706 120.363 8.26682 114.646 6.27478 108.231C5.94871 107.174 5.81828 105.997 5.88349 104.7C6.12953 99.9514 6.87506 95.2871 8.12008 90.7071C8.34834 89.8604 8.65366 89.1869 9.03606 88.6866C9.12482 88.5726 9.25005 88.4925 9.39082 88.4597C9.5316 88.4268 9.6794 88.4432 9.80953 88.5061C9.93965 88.569 10.0442 88.6746 10.1058 88.8053C10.1673 88.9359 10.1821 89.0837 10.1477 89.2239C8.87895 94.3071 8.19419 99.3904 8.0934 104.474C8.0356 107.409 9.58743 110.402 11.1748 113.488C13.324 117.663 16.1771 121.4 19.7343 124.701C19.764 124.73 19.8017 124.749 19.8425 124.756C19.8833 124.763 19.9252 124.758 19.9628 124.741C20.0004 124.723 20.0318 124.695 20.0529 124.659C20.0741 124.624 20.0839 124.583 20.0812 124.542C19.5476 113.79 32.1268 111.796 38.6765 117.707C41.3488 120.118 41.5311 123.152 41.7045 126.5C41.7105 126.639 41.6778 126.769 41.6067 126.891C40.5707 128.609 37.8672 128.552 36.1242 128.472C32.0126 128.273 27.8981 128.195 23.7807 128.236C22.5268 128.248 21.7531 127.696 21.4596 126.58C21.4468 126.533 21.4223 126.491 21.3884 126.456C21.3546 126.422 21.3125 126.396 21.2664 126.383C21.2202 126.369 21.1716 126.368 21.1252 126.379C21.0788 126.391 21.0362 126.414 21.0016 126.447C19.6854 127.684 18.4256 127.606 17.2221 126.211C17.2051 126.192 17.1826 126.177 17.1575 126.171C17.1324 126.164 17.1058 126.165 17.0813 126.174C17.0567 126.182 17.0354 126.198 17.0201 126.219C17.0047 126.24 16.9961 126.265 16.9953 126.291C16.9642 127.397 15.2834 127.459 14.5097 128.099C14.4654 128.136 14.4311 128.183 14.4101 128.237C14.3891 128.29 14.3821 128.349 14.3896 128.406C14.3972 128.463 14.4191 128.517 14.4533 128.564C14.4875 128.61 14.5329 128.647 14.5853 128.671C16.355 129.492 18.1217 130.097 19.8855 130.488C25.3681 131.696 30.3793 132.157 36.3821 132.006C47.9919 131.718 59.6061 130.985 71.216 131.345C74.8932 131.456 78.4326 131.278 82.0788 131.203C83.472 131.173 84.9186 131.075 86.4186 130.91C91.3008 130.359 95.7962 130.723 100.47 128.107C100.63 128.016 100.656 127.896 100.55 127.748L99.9359 126.891C99.9153 126.862 99.8885 126.839 99.8575 126.822C99.8264 126.806 99.792 126.796 99.7569 126.795C99.7217 126.794 99.6867 126.801 99.6546 126.815C99.6224 126.829 99.5939 126.85 99.5713 126.877C99.0155 127.561 98.0906 128.778 97.1613 128.88C96.5344 128.951 96.0719 128.503 95.5205 128.187C95.3968 128.116 95.2512 128.087 95.107 128.107C94.1021 128.236 83.6662 129.164 85.1469 126.336C85.2102 126.215 85.3055 126.114 85.4222 126.043C85.539 125.973 85.6729 125.936 85.8094 125.936L96.3743 125.931C96.4414 125.931 96.5079 125.917 96.5693 125.888C96.6307 125.86 96.6855 125.819 96.73 125.767C100.815 121.048 103.403 115.618 104.494 109.478C104.642 108.646 104.72 106.919 104.729 104.296C104.744 101.261 104.74 99.5295 104.716 99.1002C104.414 93.7713 102.261 89.8145 99.0689 85.5025C98.4108 84.6055 97.9572 83.4909 99.3001 82.9802C99.8929 82.7522 100.444 82.9091 100.954 83.4509C104.695 87.3943 106.948 92.066 107.713 97.466C107.926 98.97 107.941 101.694 107.757 105.637C107.41 113.084 105.196 118.751 100.856 125.239C100.84 125.263 100.828 125.291 100.824 125.32C100.819 125.349 100.821 125.379 100.83 125.407C100.838 125.435 100.853 125.461 100.873 125.482C100.893 125.504 100.918 125.521 100.945 125.532C102.505 126.133 103.117 127.25 102.782 128.885C102.747 129.053 102.652 129.2 102.515 129.298C99.8322 131.186 97.0813 132.268 94.2622 132.544C86.2111 133.325 79.8007 133.752 75.0311 133.823C71.0737 133.885 65.4044 133.414 60.6511 133.503C51.9922 133.663 43.3349 133.823 34.679 133.983C30.3748 134.063 26.1121 133.712 21.8909 132.93C18.5293 132.308 16.2572 131.904 13.6071 130.75C11.704 129.919 11.2104 127.952 12.8601 126.549C13.7642 125.782 14.8491 125.442 16.1149 125.527C16.2631 125.539 16.2868 125.49 16.186 125.381ZM33.8742 121.486C34.1588 121.255 34.4715 121.211 34.8124 121.353C36.182 121.93 36.6533 124.426 36.4977 125.723C36.474 125.936 36.5658 126.02 36.7733 125.976L38.2407 125.669C38.4156 125.634 38.5016 125.527 38.4986 125.35C38.4245 122.164 37.261 119.898 35.0081 118.551C33.0724 117.393 30.8551 117.019 28.3561 117.427C24.7041 118.022 22.7105 120.54 22.3756 124.981C22.3734 125.017 22.379 125.053 22.3922 125.087C22.4053 125.12 22.4255 125.15 22.4515 125.175C22.4774 125.2 22.5084 125.218 22.5421 125.229C22.5759 125.24 22.6117 125.243 22.6468 125.239C24.544 125.011 26.4337 125.064 28.3161 125.399C28.3897 125.411 28.4652 125.405 28.5359 125.381C28.6066 125.357 28.6702 125.316 28.721 125.261C28.7717 125.207 28.8081 125.14 28.8266 125.068C28.8452 124.996 28.8455 124.92 28.8274 124.848C28.5873 123.892 28.0626 123.132 27.2534 122.57C27.1521 122.499 27.0659 122.409 27 122.305C26.9341 122.2 26.8897 122.084 26.8694 121.962C26.8491 121.84 26.8533 121.715 26.8819 121.594C26.9104 121.474 26.9626 121.36 27.0355 121.26C27.5157 120.611 28.2272 120.603 28.9075 120.984C30.4934 121.87 31.3071 123.279 31.3486 125.212C31.3516 125.381 31.4375 125.473 31.6065 125.487L34.3589 125.763C34.5101 125.778 34.5664 125.712 34.5279 125.567L33.643 122.215C33.6074 122.083 33.6103 121.945 33.6513 121.816C33.6923 121.686 33.7697 121.572 33.8742 121.486Z" fill="#151515"/>
<path d="M66.6691 128.535C66.2199 128.507 65.8 128.303 65.5015 127.966C65.2031 127.63 65.0505 127.189 65.0772 126.741L65.1128 126.092C65.1816 124.933 65.468 123.799 65.9555 122.754C66.443 121.708 67.1222 120.773 67.9542 120C68.7862 119.227 69.7548 118.632 70.8046 118.25C71.8544 117.867 72.9648 117.704 74.0725 117.77L76.3091 117.903C77.4167 117.969 78.4999 118.262 79.4968 118.766C80.4938 119.27 81.385 119.975 82.1195 120.84C82.8541 121.706 83.4176 122.715 83.7779 123.81C84.1382 124.906 84.2882 126.066 84.2194 127.225L84.1794 127.873C84.1664 128.095 84.1095 128.313 84.0122 128.514C83.9148 128.714 83.7788 128.894 83.612 129.042C83.4452 129.19 83.2508 129.304 83.0399 129.377C82.829 129.45 82.6058 129.48 82.383 129.467L66.6691 128.535ZM72.9386 121.936C74.2103 121.127 75.0641 122.406 74.1881 123.512C73.5449 124.323 73.0202 125.18 72.614 126.083C72.5966 126.121 72.5884 126.162 72.5901 126.204C72.5919 126.245 72.6035 126.286 72.624 126.322C72.6446 126.357 72.6734 126.388 72.7081 126.409C72.7427 126.431 72.7822 126.444 72.823 126.447L81.7783 127.273C81.8227 127.278 81.8676 127.272 81.9095 127.257C81.9515 127.241 81.9894 127.216 82.0206 127.184C82.0518 127.151 82.0753 127.112 82.0896 127.069C82.1038 127.026 82.1084 126.981 82.1029 126.936C81.5871 123.161 79.4409 121.028 75.6643 120.537C71.289 119.971 68.7767 121.782 68.1275 125.968C68.1008 126.128 68.169 126.214 68.3321 126.225L70.2263 126.359C70.4071 126.37 70.5034 126.286 70.5153 126.105C70.6131 124.294 71.4209 122.904 72.9386 121.936Z" fill="#151515"/>
<path d="M75.975 124.274C75.5347 125.244 75.631 126.235 76.1901 126.488C76.7492 126.742 77.5594 126.161 77.9997 125.192C78.44 124.222 78.3436 123.231 77.7845 122.978C77.2254 122.725 76.4153 123.305 75.975 124.274Z" fill="#151515"/>
<path d="M41.9551 126.491C42.7792 126 43.541 125.739 44.2406 125.709C50.6643 125.428 57.1251 125.424 63.6229 125.696C63.7089 125.699 63.7933 125.721 63.8703 125.759C63.9473 125.798 64.0151 125.853 64.0691 125.92C64.1231 125.988 64.162 126.066 64.1832 126.15C64.2044 126.234 64.2074 126.321 64.192 126.407L64.1342 126.718C64.1223 126.781 64.0904 126.839 64.0432 126.883C63.996 126.927 63.936 126.954 63.8719 126.962C62.3334 127.136 60.7919 127.199 59.2475 127.148C53.8762 126.974 48.5033 126.932 43.129 127.024C42.6695 127.03 42.2782 126.938 41.9551 126.749C41.933 126.735 41.9148 126.716 41.9021 126.694C41.8895 126.671 41.8828 126.646 41.8828 126.62C41.8828 126.594 41.8895 126.569 41.9021 126.546C41.9148 126.523 41.933 126.505 41.9551 126.491Z" fill="#151515"/>
</svg>
