<svg width="150" height="171" viewBox="0 0 150 171" fill="none" xmlns="http://www.w3.org/2000/svg">
<path d="M83.5 75.5L96 48L102 42.5L109 31L112 41.5L127.5 46.5L135.5 40L133.5 48V71.5L130.5 78L125.5 79L124 86L127.5 89L132.5 86L140 87.5L141 93L135.5 96.5L127.5 106.5L124 141.5L116.5 157H126.5L129.5 159L130.5 166.5L123 168L76 160L61.5 154.5L34.5 166.5L12 169L9.5 166.5L14.5 160L26 157L58 150V131L69 100L83.5 75.5Z" fill="#F8F7F2"/>
<path d="M33.2315 16.6704C33.2888 19.6093 33.6854 22.4924 34.4214 25.3195C35.8193 30.7156 36.5522 34.5893 36.5387 39.7407C36.5326 41.1452 36.3517 42.7234 35.9958 44.4753C35.566 46.5956 35.376 48.7341 34.2992 50.5781C33.503 51.9494 32.4142 53.517 31.0328 55.281C30.1279 56.4318 29.8565 56.8078 28.2685 56.8939C21.8804 57.2443 15.6295 56.5813 9.5159 54.9049C3.49425 53.2512 -0.98466 49.8668 0.187096 42.9802C0.37711 41.8686 1.06931 39.9023 2.26368 37.0812C3.08105 35.1541 3.85769 33.212 4.59362 31.2547C5.60251 28.5544 7.93245 26.1169 9.70592 23.8606C12.9588 19.7241 16.4062 16.8743 20.9032 14.464C22.3358 13.6938 23.7745 12.9326 25.2192 12.1805C25.3972 12.0869 25.3881 12.0219 25.1921 11.9857C20.2125 11.0222 15.3988 9.55724 10.751 7.59092C8.73322 6.73915 2.88349 4.55083 3.30424 1.69649C3.68879 -0.944901 7.9053 0.142465 9.76925 0.713332C12.5471 1.56208 15.3355 2.38365 18.1344 3.17803C21.1611 4.03433 26.1965 5.89644 27.9564 8.55596C28.0348 8.67678 28.1253 8.68584 28.2278 8.58314C30.0767 6.64703 32.4142 5.05373 35.2402 3.80326C36.0139 3.45893 37.0047 3.16444 37.4209 4.17025C38.0271 5.63819 34.0278 9.93329 33.0098 10.9346C32.9773 10.9667 32.9565 11.0088 32.9508 11.0541C32.9451 11.0995 32.9547 11.1454 32.9782 11.1846C33.0017 11.2238 33.0376 11.254 33.0803 11.2703C33.123 11.2865 33.1698 11.288 33.2134 11.2744C34.9009 10.7262 39.0993 9.40773 40.7914 9.91064C40.9144 9.94715 41.027 10.0124 41.1198 10.101C41.2126 10.1896 41.283 10.299 41.325 10.42C41.3671 10.541 41.3796 10.6702 41.3615 10.7967C41.3435 10.9233 41.2953 11.0435 41.2212 11.1475C40.4068 12.2938 38.0316 13.0731 36.7196 13.5624C36.5145 13.6379 36.5085 13.7255 36.7015 13.8252C45.6232 18.383 53.3866 24.5946 61.6523 30.0677C72.0669 36.9694 82.1165 44.3741 91.8012 52.2817C91.9309 52.3874 92.0395 52.3693 92.127 52.2273C94.0995 49.077 96.3978 46.1954 99.0218 43.5827C99.9598 42.6494 100.718 41.7221 101.297 40.8009C103.354 37.5328 105.307 34.2087 107.156 30.8288C107.79 29.6735 109.278 29.2567 110.31 30.2081C112.296 32.0385 112.459 37.6068 112.554 39.8812C112.556 39.9517 112.581 40.0198 112.624 40.0764C112.667 40.133 112.726 40.1755 112.793 40.1983C117.568 41.7388 122.198 43.6069 126.682 45.8028C127.029 45.9719 127.42 45.8481 127.854 45.4313C129.763 43.6039 131.587 41.695 133.324 39.7045C133.93 39.0128 134.674 38.9056 135.554 39.3828C135.681 39.4523 135.765 39.555 135.808 39.6909C136.019 40.3554 136.064 41.0214 135.943 41.6889C135.346 44.9963 134.846 48.3173 134.441 51.6519C134.283 52.9567 134.618 54.0758 134.631 55.3535C134.683 59.5368 134.744 63.7186 134.817 67.899C134.925 73.8387 133.622 79.9189 126.275 79.8826C126.207 79.882 126.14 79.8973 126.08 79.9273C126.019 79.9573 125.966 80.0011 125.925 80.0553C125.884 80.1094 125.856 80.1724 125.844 80.2392C125.832 80.306 125.835 80.3747 125.855 80.4399C126.253 81.8535 128.008 83.1447 126.836 84.513C126.798 84.5576 126.776 84.6142 126.774 84.6735C126.773 84.7328 126.791 84.7913 126.827 84.8392L128.289 86.7466C128.327 86.7954 128.381 86.8282 128.442 86.8383C128.502 86.8484 128.564 86.835 128.614 86.801C132.122 84.445 135.728 83.9587 139.432 85.3421C142.122 86.3419 143.325 88.3263 143.042 91.2954C142.603 95.8986 139.554 95.9757 136.296 97.9284C136.13 98.0281 136.139 98.1066 136.323 98.164L137.242 98.4404C137.362 98.4766 137.47 98.5355 137.563 98.6171C141.495 102.088 144.449 106.066 147.661 109.966C147.815 110.157 147.919 110.462 147.973 110.882C148.439 114.524 142.712 112.821 141.295 111.978C140.695 111.616 140.065 110.924 139.404 109.903C137.634 107.151 135.55 104.655 133.152 102.414C133.08 102.344 133.015 102.352 132.957 102.436L128.451 109.056C128.422 109.097 128.408 109.148 128.411 109.201C129.343 123.853 127.66 137.146 121.43 150.136C120.964 151.105 118.575 155.935 116.915 154.263C116.462 153.805 116.548 153.244 116.897 152.714C121.235 146.058 123.267 138.936 124.692 131.215C125.859 124.918 126.063 118.022 126.334 111.389C126.349 111.021 126.207 110.947 125.909 111.167C122.918 113.414 119.575 114.565 115.779 114.914C112.694 115.19 109.554 115.652 106.763 113.994C104.939 112.911 105.844 111.058 107.894 111.462C115.824 113.016 123.868 110.972 128.225 103.682C130.149 100.457 131.762 98.1474 133.061 96.7549C134.799 94.8928 136.124 94.4987 138.142 93.7058C140.915 92.6184 141.151 88.9848 138.178 87.9156C133.889 86.3706 130.324 88.2327 127.506 91.5311C126.118 93.1591 124.683 94.7418 123.199 96.2792C118.919 100.715 115.951 103.651 109.88 99.9899C108.061 98.8889 109.16 96.6915 110.875 97.5116C113.811 98.9206 115.956 99.3963 118.421 97.0902C120.551 95.0937 122.535 93.1274 124.375 91.1912C124.701 90.8469 124.684 90.5192 124.325 90.2081C117.209 84.0282 110.418 77.803 103.772 71.2607C100.056 67.606 96.2982 63.995 92.4979 60.4279C92.3863 60.3221 92.3064 60.3433 92.2582 60.4913C91.5584 62.6026 90.7019 64.6399 89.6884 66.6032C87.4037 71.0387 85.3995 76.3034 83.0967 79.7648C80.0324 84.3741 76.9771 88.9863 73.9308 93.6016C72.0623 96.4287 70.5015 100.366 69.2528 103.175C67.6905 106.688 66.279 110.261 65.0182 113.895C64.4799 115.435 64.516 117.193 64.0003 118.774C63.0382 121.737 62.0881 124.703 61.1501 127.672C60.9239 128.391 60.9601 128.968 61.2587 129.403C61.3491 129.533 61.3838 129.676 61.3627 129.834C61.0159 132.407 60.6419 135.643 60.2407 139.543C60.0145 141.727 59.8064 143.584 60.7203 145.655C61.5075 147.435 62.1635 149.501 63.3352 150.937C64.7257 152.638 66.4298 153.979 68.4475 154.961C68.5863 155.03 68.6949 155.131 68.7733 155.264C69.4398 156.451 70.4548 157.17 71.818 157.421C76.2396 158.233 80.6854 158.851 85.1552 159.274C88.9284 159.627 91.8435 159.991 93.9004 160.366C98.316 161.172 102.701 162.121 107.057 163.211C108.988 163.691 111.567 164.969 113.35 165.15C116.701 165.489 120.02 166.013 123.307 166.722C123.576 166.78 124.061 166.789 124.764 166.75C124.924 166.741 124.971 166.665 124.904 166.523C124.226 165.097 123.164 164.09 121.719 163.501C119.815 162.722 120.769 160.968 122.52 161.403C125.072 162.038 126.702 163.586 127.411 166.047C127.45 166.18 127.538 166.238 127.673 166.22C130.342 165.884 129.741 162.056 128.877 160.588C128.267 159.552 127.251 158.724 125.827 158.105C121.498 156.22 116.376 157.249 112.078 159.011C111.487 159.253 110.886 159.229 110.273 158.939C110.196 158.901 110.127 158.849 110.071 158.785C110.015 158.722 109.973 158.647 109.948 158.567C109.721 157.836 109.886 157.211 110.441 156.691C110.546 156.592 110.667 156.566 110.803 156.614C111.196 156.746 111.54 156.855 111.952 156.664C116.123 154.764 120.325 154.228 124.556 155.056C126.56 155.446 129.216 156.85 130.487 158.517C132.17 160.719 133.292 165.92 130.279 167.814C125.479 170.836 120.977 168.825 115.933 168.177C111.879 167.66 108.21 166.718 104.324 165.898C102.6 165.535 100.388 164.271 97.9134 164.104C95.226 163.918 92.4572 164.335 89.7382 164.276C88.5951 164.249 87.2394 164.049 85.671 163.678C82.6006 162.947 79.2015 162.409 75.4735 162.065C73.4316 161.875 71.0912 161.361 68.4521 160.524C65.3214 159.528 62.6506 157.835 60.4398 155.446C60.3222 155.319 60.2392 155.34 60.191 155.509L60.0462 156.003C60.0276 156.068 59.9955 156.129 59.9518 156.182C59.9082 156.234 59.854 156.276 59.7928 156.306C58.6708 156.841 57.5685 157.409 56.4857 158.01C52.4411 160.253 48.125 162.038 43.9492 164.027C38.5203 166.614 34.2178 168.172 28.8159 169.341C24.889 170.188 20.2789 170.447 15.9764 170.918C12.5245 171.294 7.84196 170.496 7.84649 166.061C7.85101 164.357 8.87799 163.27 10.0588 162.151C12.5923 159.744 15.5089 158.176 18.8085 157.448C24.2918 156.234 29.9289 155.319 35.1724 153.796C41.6826 151.903 47.4419 149.886 54.6489 149.673C56.7481 149.61 57.0286 151.826 55.0198 152.088C50.3509 152.692 45.7544 153.636 41.2302 154.92C36.8056 156.175 32.847 157.344 28.6305 158.001C25.6656 158.463 22.7159 158.992 19.7812 159.587C16.5449 160.245 13.752 161.813 11.4025 164.289C10.2081 165.544 10.8596 167.117 12.5335 167.166C15.9402 167.262 20.5865 166.627 23.0296 166.392C30.0963 165.703 36.4572 164.231 43.3475 161.53C49.2199 159.229 52.6944 157.888 57.4312 155.26C57.579 155.178 57.6212 155.06 57.5579 154.906C57.0904 153.734 56.8778 152.516 56.92 151.25C56.9259 151.1 56.8865 150.951 56.8069 150.824C55.145 148.067 54.3397 145.325 54.391 142.601C54.5674 133.503 57.2684 124.048 60.4307 115.865C62.8316 109.649 65.3922 103.5 68.1128 97.4164C69.283 94.7977 70.6538 92.1699 72.2252 89.533C75.6274 83.8213 79.0763 78.1383 82.5719 72.484C84.178 69.8879 85.6122 66.8931 87.2228 64.1249C88.3764 62.1404 88.6298 59.8389 89.2315 57.6505C89.2493 57.5853 89.2481 57.5163 89.2281 57.4514C89.2081 57.3864 89.17 57.3282 89.1184 57.2836C78.9933 48.5574 69.2347 42.0242 59.2997 34.2994C51.7263 28.4095 43.7879 23.0496 35.4845 18.2199C34.6521 17.7351 34.254 17.1733 33.5211 16.5345C33.322 16.3623 33.2255 16.4076 33.2315 16.6704ZM35.4303 6.00971C35.4545 5.97623 35.4669 5.9356 35.4655 5.89426C35.4641 5.85292 35.4489 5.81324 35.4224 5.78151C35.3959 5.74978 35.3596 5.72781 35.3192 5.71908C35.2789 5.71035 35.2367 5.71537 35.1995 5.73334C33.3476 6.66062 31.6194 7.77819 30.0148 9.08605C29.8972 9.17969 29.9032 9.26728 30.0329 9.34883L30.2908 9.50741C30.4296 9.595 30.5155 9.71884 30.5487 9.87892C30.6573 10.3864 30.9272 10.7473 31.3585 10.9618C31.5003 11.0312 31.6194 11.0025 31.7159 10.8757L35.4303 6.00971ZM38.8101 11.2769C38.7905 11.2013 38.7418 11.1365 38.6746 11.0969C38.6074 11.0573 38.5273 11.046 38.4518 11.0655L33.1256 12.445C33.0501 12.4645 32.9855 12.5133 32.9459 12.5806C32.9063 12.6479 32.895 12.7282 32.9146 12.8038L32.9191 12.8213C32.9386 12.897 32.9873 12.9617 33.0545 13.0013C33.1217 13.041 33.2019 13.0523 33.2774 13.0327L38.6035 11.6533C38.679 11.6337 38.7437 11.5849 38.7833 11.5176C38.8228 11.4503 38.8341 11.3701 38.8146 11.2944L38.8101 11.2769ZM9.6833 46.6274C8.63369 44.8695 10.0498 39.6003 10.6243 37.5796C11.2125 35.5317 12.3525 33.3615 13.1669 31.2185C13.4323 30.5268 13.2981 30.0888 12.7642 29.9046C12.6106 29.8499 12.4438 29.844 12.2867 29.8878C12.1296 29.9316 11.9899 30.0229 11.8866 30.1492C9.44955 33.1244 7.84347 36.3321 7.06834 39.7724C6.29018 43.2293 5.28129 46.727 8.13151 48.8655C8.67441 49.2733 9.31231 49.2748 10.0452 48.8701C10.1178 48.8302 10.1784 48.7713 10.2205 48.6996C10.2627 48.6279 10.285 48.5459 10.285 48.4623C10.285 47.9126 10.0844 47.3009 9.6833 46.6274ZM105.283 40.2708C105.178 40.4973 105.246 40.5774 105.487 40.5109C106.98 40.0941 108.489 40.0201 110.015 40.2889C110.051 40.295 110.088 40.2929 110.122 40.2828C110.157 40.2728 110.189 40.255 110.217 40.2307C110.244 40.2064 110.266 40.1763 110.28 40.1425C110.295 40.1087 110.302 40.0721 110.3 40.0352C110.222 37.5554 109.836 35.1224 109.142 32.7363C109.131 32.6976 109.108 32.6633 109.076 32.6381C109.045 32.6128 109.006 32.5977 108.966 32.5947C108.926 32.5918 108.886 32.6011 108.851 32.6216C108.816 32.642 108.788 32.6725 108.771 32.7091L105.283 40.2708ZM127.32 47.982C126.675 48.0908 126.094 48.0213 125.579 47.7736C121.799 45.9583 117.918 44.3937 113.933 43.0798C113.354 42.8895 112.733 42.808 112.069 42.8352C110.436 42.8986 108.703 42.7491 107.301 43.0526C104.93 43.5661 102.92 44.7003 101.27 46.4552C98.7956 49.083 95.7734 50.6008 94.1945 54.103C94.1577 54.1873 94.1488 54.2811 94.1692 54.3708C94.1895 54.4605 94.2381 54.5413 94.3076 54.6014C103.537 62.444 111.861 70.998 120.208 79.6788C121.171 80.6815 122.288 81.4925 123.561 82.1117C123.675 82.1691 123.731 82.1329 123.728 82.003L123.656 80.014C123.65 79.86 123.577 79.7528 123.439 79.6924C120.769 78.5687 119.577 76.8229 119.86 74.4549C120.083 72.6063 121.006 71.0417 122.629 69.7611C125.09 67.8189 127.988 67.6392 131.324 69.2219C131.763 69.4258 132.193 69.9242 132.446 70.3138C132.466 70.3448 132.496 70.3682 132.531 70.3806C132.565 70.3929 132.603 70.3935 132.638 70.3821C132.673 70.3708 132.704 70.3482 132.724 70.3178C132.745 70.2874 132.756 70.251 132.754 70.2141C132.559 64.4375 132.532 58.7515 132.215 53.0156C132.003 49.2642 132.853 45.6895 133.731 42.2054C133.74 42.1678 133.735 42.1283 133.718 42.0937C133.701 42.059 133.672 42.0314 133.637 42.0154C133.602 41.9994 133.562 41.9961 133.525 42.0059C133.488 42.0158 133.455 42.0382 133.432 42.0695C132.274 43.7051 129.266 47.6468 127.32 47.982ZM129.433 77.0102C129.121 75.3519 129.668 72.8374 131.464 72.1533C131.606 72.0989 131.615 72.0279 131.492 71.9403C128.81 69.9891 126.334 69.9589 124.063 71.8497C122.375 73.2542 122.081 75.2523 123.466 76.9739C123.56 77.0884 123.689 77.1681 123.832 77.2005C125.701 77.5856 127.32 78.315 129.284 77.3137C129.408 77.2503 129.457 77.1491 129.433 77.0102ZM59.5342 134.563C59.536 134.548 59.5348 134.532 59.5305 134.517C59.5263 134.502 59.5193 134.488 59.5097 134.476C59.5001 134.464 59.4882 134.454 59.4748 134.446C59.4613 134.439 59.4464 134.434 59.4311 134.432L59.2603 134.412C59.245 134.41 59.2294 134.412 59.2146 134.416C59.1997 134.42 59.1858 134.427 59.1737 134.437C59.1616 134.446 59.1515 134.458 59.1439 134.472C59.1364 134.485 59.1316 134.5 59.1298 134.515L58.2599 141.931C58.2581 141.946 58.2593 141.962 58.2635 141.977C58.2678 141.992 58.2748 142.006 58.2844 142.018C58.294 142.03 58.3059 142.04 58.3194 142.048C58.3328 142.055 58.3477 142.06 58.363 142.062L58.5338 142.082C58.5491 142.084 58.5646 142.082 58.5795 142.078C58.5944 142.074 58.6083 142.067 58.6204 142.057C58.6325 142.048 58.6426 142.036 58.6502 142.022C58.6577 142.009 58.6625 141.994 58.6643 141.979L59.5342 134.563ZM61.7113 151.403C61.7243 151.393 61.7273 151.37 61.7202 151.335C61.7131 151.3 61.6959 151.254 61.6698 151.198C61.6437 151.143 61.609 151.08 61.5679 151.013C61.5267 150.946 61.4798 150.876 61.4299 150.807C61.329 150.668 61.2219 150.542 61.1321 150.457C61.0422 150.372 60.977 150.335 60.9508 150.354C60.9378 150.364 60.9348 150.387 60.9419 150.422C60.949 150.457 60.9662 150.503 60.9923 150.559C61.0184 150.614 61.0531 150.677 61.0942 150.744C61.1354 150.812 61.1823 150.882 61.2322 150.95C61.3331 151.089 61.4402 151.215 61.53 151.3C61.6199 151.385 61.6851 151.422 61.7113 151.403ZM62.9777 153.682C63.0054 153.661 62.9652 153.553 62.8661 153.382C62.7669 153.211 62.6168 152.991 62.4488 152.77C62.2809 152.549 62.1088 152.346 61.9705 152.204C61.8321 152.063 61.7388 151.996 61.7112 152.017C61.6835 152.038 61.7237 152.146 61.8229 152.317C61.9221 152.488 62.0721 152.708 62.2401 152.929C62.408 153.15 62.5801 153.353 62.7185 153.494C62.8568 153.636 62.9501 153.703 62.9777 153.682ZM59.7159 154.521L58.9649 153.851C58.7206 153.633 58.6211 153.686 58.6663 154.009L58.7206 154.385C58.7417 154.524 58.8216 154.603 58.9604 154.621L59.639 154.698C59.8471 154.722 59.8728 154.663 59.7159 154.521ZM85.2502 160.103C84.6742 160.043 84.2127 160.012 83.8659 160.012C83.6789 160.012 83.6713 160.049 83.8432 160.121C87.6646 161.719 91.6384 162.223 95.7644 161.634C95.7822 161.63 95.798 161.62 95.8093 161.606C95.8206 161.591 95.8268 161.573 95.8268 161.555C95.8268 161.537 95.8206 161.519 95.8093 161.505C95.798 161.49 95.7822 161.48 95.7644 161.476C92.2536 160.926 88.7489 160.469 85.2502 160.103Z" fill="#151515"/>
<path d="M130.321 62.9997C131.2 62.252 131.34 60.9795 130.636 60.1573C129.931 59.3351 128.648 59.2747 127.77 60.0223C126.892 60.7699 126.751 62.0425 127.455 62.8647C128.16 63.6868 129.443 63.7473 130.321 62.9997Z" fill="#151515"/>
<path d="M127.15 72.1474C127.355 71.9744 127.573 71.9537 127.803 72.0852C127.869 72.1246 127.924 72.1922 127.959 72.2776C127.994 72.363 128.007 72.4615 127.997 72.558C127.986 72.6546 127.952 72.7439 127.901 72.8122C127.849 72.8805 127.783 72.9241 127.711 72.9362L127.373 72.9985C127.297 73.0067 127.221 72.9808 127.157 72.9248C127.094 72.8688 127.045 72.7857 127.02 72.6887C126.994 72.5916 126.993 72.4859 127.017 72.388C127.041 72.2901 127.088 72.2056 127.15 72.1474Z" fill="#151515"/>
</svg>
