<svg width="121" height="135" viewBox="0 0 121 135" fill="none" xmlns="http://www.w3.org/2000/svg">
<path d="M6.92969 58.7695L8.42969 25.2695L53.4297 16.2695L82.4297 13.2695L107.43 9.76953L107.93 12.7695L110.43 13.2695L108.93 43.7695L112.93 48.2695L113.43 57.2695L117.43 117.27L2.92969 132.27L1.42969 64.2695L6.92969 58.7695Z" fill="#F8F7F2"/>
<path d="M46.073 17.0814C43.9356 15.889 48.6352 12.5217 49.7249 11.6064C53.0206 8.83251 56.4327 6.20837 59.9613 3.73398C62.4772 1.97056 64.2233 -1.69905 67.9678 0.904103C71.8273 3.58563 75.5676 5.92986 79.1887 7.9368C79.9011 8.33148 80.7075 8.89969 81.6079 9.64145C82.9766 10.7723 84.4814 11.6918 86.1223 12.3999C86.2482 12.4545 86.3892 12.4692 86.5262 12.4419C93.3729 11.09 100.252 9.99133 107.163 9.14601C109.018 8.92348 108.808 10.9934 108.774 12.1732C108.772 12.316 108.842 12.386 108.985 12.3832C110.024 12.379 111.555 12.0137 111.568 13.6175C111.593 16.7077 111.173 19.7224 110.962 22.7915C110.87 24.1043 110.769 26.4863 110.659 29.9376C110.527 34.0551 110.198 38.1599 109.671 42.2522C109.64 42.4957 109.742 42.5811 109.978 42.5083L110.55 42.332C110.685 42.29 110.821 42.2886 110.958 42.3278C112.443 42.7518 112.102 44.0786 111.997 45.2584C111.98 45.4403 112.052 45.4851 112.212 45.3928C112.708 45.0989 113.222 45.0653 113.752 45.292C113.829 45.3255 113.895 45.3812 113.941 45.452C113.988 45.5229 114.012 45.6059 114.013 45.6909C114.01 46.3095 113.899 47.0708 113.68 47.9749C113.366 49.2737 113.293 51.2177 113.461 53.8068C113.461 53.8348 113.475 53.846 113.503 53.8404L113.63 53.8152C113.669 53.8068 113.687 53.783 113.684 53.7438C113.651 52.4003 113.609 49.6796 115.447 50.2926C115.678 50.3695 115.879 50.5172 116.021 50.7147C116.163 50.9123 116.239 51.1495 116.238 51.3926C116.213 54.8859 115.792 58.6562 115.767 61.8304C115.725 67.5685 115.712 73.3066 115.729 79.0448C115.746 84.5408 116.343 89.9402 116.857 95.3984C117.252 99.6096 118.544 103.796 118.67 108.192C118.751 110.996 119.085 113.776 119.671 116.53C119.758 116.933 120.148 117.427 120.841 118.012C120.898 118.06 120.942 118.121 120.969 118.191C120.996 118.261 121.006 118.336 120.997 118.411C120.837 119.641 119.272 119.255 118.468 119.188C118.224 119.165 118.204 119.221 118.409 119.356L119.112 119.801C119.314 119.93 119.459 120.133 119.516 120.368C119.709 121.17 119.141 121.35 118.51 121.199C116.432 120.699 114.16 119.75 112.027 119.885C109.809 120.028 107.622 120.133 105.421 120.494C99.3332 121.493 93.6996 122.593 87.1194 123.248C85.3103 123.43 82.626 123.776 79.0666 124.285C73.9884 125.011 68.2833 125.129 63.811 125.725C59.4382 126.305 55.078 126.965 50.7304 127.707C44.4153 128.782 38.1085 129.252 31.7849 130.054C30.0824 130.269 27.5454 130.712 24.1739 131.381C19.156 132.38 14.0848 132.994 8.96032 133.224C8.25629 133.255 6.586 133.551 3.94942 134.114C3.81654 134.141 3.6971 134.215 3.61283 134.324C3.11076 134.959 2.47826 135.147 1.71534 134.887C1.58527 134.843 1.47603 134.755 1.4082 134.639C0.880889 133.757 0.620036 133.003 0.625646 132.376C0.737841 120.897 0.643878 109.419 0.343757 97.9428C0.066075 87.2993 0.221746 76.6306 0.00296643 65.9786C-0.0348993 64.1186 0.284855 62.9304 1.24412 61.5113C2.75875 59.2734 3.29728 58.1104 5.88478 57.1111C5.95052 57.0851 6.00692 57.0399 6.04667 56.9816C6.08642 56.9232 6.1077 56.8542 6.10776 56.7836C6.05728 46.2955 5.4935 35.6477 7.04599 25.3107C7.23112 24.0637 9.49044 23.7488 10.5296 23.5935C15.4017 22.8755 21.1152 22.4263 25.1627 21.8301C32.6264 20.73 40.2795 18.3956 46.0477 17.2368C46.1964 17.2088 46.2048 17.157 46.073 17.0814ZM10.2351 60.9907C10.2141 61.1026 10.1563 61.2043 10.0708 61.2798C9.98533 61.3553 9.87709 61.4002 9.7632 61.4074C9.64931 61.4146 9.53626 61.3838 9.44191 61.3197C9.34755 61.2556 9.27729 61.162 9.24221 61.0536L8.80465 59.7311C8.70087 59.4232 8.63916 59.4316 8.61953 59.7563L8.44703 62.7079C8.42739 62.999 8.56062 63.1824 8.84672 63.2579C14.5055 64.719 19.5249 66.6756 24.6662 69.8792C28.4107 72.2108 32.2113 74.4599 36.068 76.6264C36.211 76.7075 36.2896 76.6655 36.3036 76.5004C36.4887 74.3381 38.6429 72.898 40.1112 71.5166C40.2262 71.4075 40.2206 71.3039 40.0944 71.2059C37.002 68.8085 35.5673 64.7149 34.1452 61.0998C32.5381 57.0104 31.684 52.7614 31.583 48.3528C31.5549 47.082 31.7218 45.7496 32.0837 44.3557C32.8438 41.4475 33.6446 38.8429 34.486 36.5421C35.256 34.4385 37.3849 35.8283 38.2179 36.9073C39.6063 38.7127 40.9316 40.5098 42.1938 42.2984C42.3422 42.5091 42.5473 42.6732 42.7851 42.7714C43.0229 42.8696 43.2834 42.8977 43.5359 42.8526C45.4124 42.5251 47.2089 42.227 49.1527 42.2186C53.4778 42.1976 57.9502 42.4705 62.2458 41.9331C64.8712 41.6056 67.0253 41.5132 69.4529 41.5216C69.5707 41.5226 69.6858 41.4851 69.7806 41.4146C69.8755 41.3442 69.9451 41.2447 69.9789 41.1312C70.8372 38.2593 71.687 35.4028 72.5285 32.5618C73.2437 30.1391 75.6966 30.1266 76.5633 32.4736C78.3851 37.4154 81.0819 42.2942 82.0791 48.1681C83.0047 53.6305 82.2768 57.9551 79.2139 62.3342C78.9558 62.7037 79.0526 62.887 79.5042 62.8842H79.8155C79.939 62.8814 80.0554 62.9094 80.1647 62.9682C82.4086 64.183 83.9233 66.001 84.7086 68.4222C84.7507 68.5426 84.8222 68.5636 84.9232 68.4852C88.8164 65.4762 92.7474 62.5148 96.7163 59.6009C98.7246 58.1286 101.5 55.6682 105.043 52.2197C105.144 52.1218 105.186 52.0028 105.169 51.8629C105.093 51.2205 104.967 50.704 105.013 50.0826C105.686 40.9254 105.985 31.7514 106.713 22.5984C107.021 18.7217 107.148 14.8296 107.091 10.922C107.091 10.8807 107.081 10.8401 107.062 10.8032C107.044 10.7663 107.017 10.734 106.984 10.7086C106.952 10.6833 106.914 10.6655 106.873 10.6567C106.833 10.6478 106.791 10.6481 106.751 10.6575C105.73 10.8982 104.669 11.1012 103.57 11.2663C97.7583 12.1424 91.9747 13.1725 86.2191 14.3565C83.0748 15.0031 80.3106 15.4649 77.9265 15.7421C73.8622 16.2151 70.9508 16.467 69.1921 16.4978C64.0199 16.5818 60.7593 16.6951 59.4101 16.8379C53.3067 17.4929 46.4951 18.7511 38.9752 20.6125C35.2027 21.5474 32.4693 22.1744 30.7752 22.4934C23.4503 23.879 16.1801 24.1813 9.54934 25.2813C9.24361 25.3317 9.01922 25.5137 8.87617 25.8272C8.79483 26.0063 8.84532 26.0581 9.02763 25.9825C9.353 25.8482 9.65172 25.9041 9.92379 26.1505C9.97222 26.1936 10.0083 26.2489 10.0282 26.3109C10.0482 26.3729 10.0513 26.4392 10.0374 26.5031C9.93641 26.9762 10.0921 27.2673 10.5044 27.3765C10.6839 27.4212 10.7695 27.5374 10.761 27.7249C10.5367 33.2615 10.3473 38.8009 10.1931 44.3431C10.0584 48.9826 10.3151 53.7522 10.4329 58.4799C10.4553 59.384 10.3894 60.2209 10.2351 60.9907ZM107.289 50.3262C108.131 49.3479 108.362 48.6425 108.379 47.2612C108.459 41.761 109.191 36.2523 109.3 30.8823C109.389 26.4318 109.57 21.9686 110.07 17.5475C110.236 16.0863 110.244 15.0339 110.096 14.3901C109.975 13.8583 109.616 13.6931 109.018 13.8947C108.903 13.9338 108.847 14.015 108.85 14.1382C108.951 19.2815 108.261 25.6382 108.084 29.4464C107.759 36.4217 107.401 43.3452 107.012 50.217C106.995 50.5249 107.087 50.5613 107.289 50.3262ZM8.96032 28.5857C8.86776 28.7228 8.81446 28.909 8.80044 29.1441C8.45264 35.5568 8.40916 41.7274 8.67001 47.6558C8.67001 47.6642 8.67562 47.6712 8.68684 47.6768C8.72331 47.6936 8.76258 47.7104 8.80465 47.7272C8.86916 47.7468 8.90282 47.723 8.90562 47.6558C9.34318 39.5399 9.88593 34.8542 9.04867 28.5311C9.04587 28.5115 9.03465 28.5031 9.01501 28.5059C9.00099 28.5087 8.99117 28.5101 8.98556 28.5101C8.97715 28.5101 8.97294 28.5143 8.97294 28.5227C8.97294 28.5283 8.97294 28.5339 8.97294 28.5395C8.97294 28.5563 8.96873 28.5717 8.96032 28.5857ZM74.3503 34.3126C73.5817 36.9661 72.8777 39.4615 72.2382 41.7987C71.9605 42.8148 71.7249 43.7721 70.5132 43.8477C66.9538 44.0604 64.0171 44.2731 61.7031 44.4859C56.9741 44.9183 52.7794 44.8889 48.2734 45.0149C45.1095 45.1031 42.2569 47.0218 39.8882 43.8519C38.6849 42.2424 37.5391 40.6231 36.4508 38.9941C36.4328 38.9659 36.4073 38.9435 36.3771 38.9293C36.3468 38.9151 36.3131 38.9097 36.2795 38.9136C36.246 38.9175 36.214 38.9306 36.1871 38.9515C36.1601 38.9723 36.1393 39.0002 36.1269 39.0318C35.155 41.6686 34.0905 44.4565 34.1368 47.2947C34.1761 49.6572 34.4299 51.993 34.8984 54.3022C35.6262 57.8837 37.3007 61.5323 38.8827 64.992C40.1701 67.7924 43.2751 71.9029 46.5189 72.4991C47.7503 72.7258 48.9522 73.0421 50.1246 73.448C52.7626 74.3633 53.8523 74.5648 56.3977 74.3255C63.1967 73.6929 68.7209 70.9302 72.9703 66.0374C75.7008 62.901 78.5786 59.2188 79.4369 55.0832C80.2068 51.3884 79.2307 46.9043 78.0316 43.2011C77.1902 40.6105 75.4862 37.344 74.4091 34.3126C74.3867 34.251 74.3671 34.251 74.3503 34.3126ZM76.3698 86.8878C75.5998 89.4322 74.691 93.2739 71.4977 93.5174C67.7308 93.8057 65.2022 92.1557 63.9119 88.5673C63.8446 88.3797 63.7478 88.3643 63.6216 88.5211C62.7156 89.6351 61.6414 90.5532 60.3988 91.2754C60.3674 91.2942 60.3417 91.3213 60.3246 91.3536C60.3074 91.386 60.2995 91.4222 60.3016 91.4584C60.3038 91.4946 60.316 91.5292 60.3369 91.5584C60.3578 91.5876 60.3865 91.6103 60.4199 91.6239C64.0928 93.2319 67.7658 95.1801 71.3504 96.5027C73.8973 97.4431 76.4567 98.3459 79.0288 99.2108C82.7733 100.466 84.6918 101.73 87.8178 103.926C90.7083 105.962 95.2353 108.12 98.5254 110.203C101.29 111.954 104.05 114.032 107.054 115.342C109.553 116.429 113.049 115.997 115.658 115.556C115.693 115.55 115.726 115.537 115.756 115.518C115.786 115.499 115.812 115.474 115.832 115.445C115.852 115.416 115.866 115.383 115.873 115.349C115.879 115.315 115.879 115.28 115.872 115.245C115.203 112.138 115.414 109.061 115.178 105.874C115.108 104.886 114.847 103.131 114.395 100.609C113.963 98.1989 113.656 95.5272 113.474 92.5937C113.123 87.0432 112.933 82.0398 112.902 77.5836C112.86 71.5376 112.485 65.4874 112.582 59.4246C112.585 59.1475 112.454 58.8004 112.191 58.3833C112.115 58.263 112.084 58.1328 112.098 57.9928C112.297 55.8152 112.063 53.6837 111.396 51.5983C111.342 51.4304 111.38 51.2848 111.509 51.1617L111.896 50.8006C111.935 50.7647 111.966 50.7213 111.988 50.673C112.009 50.6247 112.021 50.5724 112.022 50.5193L112.115 48.2898C112.115 48.2593 112.107 48.2293 112.09 48.2036C112.073 48.1779 112.05 48.1578 112.022 48.146C111.994 48.1342 111.964 48.1311 111.934 48.1373C111.905 48.1435 111.879 48.1586 111.858 48.1807C110.685 49.4025 109.578 50.725 108.379 51.8167C104.815 55.0538 101.378 58.2658 97.4694 61.2048C92.8624 64.6687 88.1797 68.0486 83.7915 71.7853C83.1561 72.3312 82.6891 72.4025 81.8855 72.3144C81.8155 72.3069 81.7449 72.3195 81.6822 72.3508C81.6195 72.3821 81.5674 72.4307 81.5321 72.4907C79.5827 75.7292 78.1845 79.1777 77.3374 82.8361C76.7737 85.2629 76.4511 86.6135 76.3698 86.8878ZM9.46099 56.431C9.45538 57.2175 9.468 57.7395 9.49885 57.997C9.70361 59.7773 9.78635 59.7633 9.74708 57.9551C9.73306 57.2945 9.69379 56.6339 9.62928 55.9733C9.62367 55.9341 9.60824 55.9299 9.583 55.9607C9.50446 56.0531 9.46379 56.2098 9.46099 56.431ZM77.7876 71.2983C76.1426 71.8861 74.8846 72.096 73.513 73.4984C70.1303 76.9664 67.1516 79.9223 66.6004 85.0278C66.2442 88.3223 67.547 90.2775 70.509 90.8933C72.6463 91.3383 73.2858 89.0081 73.7234 87.4504C74.3404 85.2503 74.9449 83.0475 75.5367 80.8418C76.4876 77.2897 77.4805 75.0393 79.2307 72.0499C79.8366 71.0114 80.4999 70.2122 81.2208 69.6524C81.2891 69.5981 81.3719 69.5654 81.4583 69.5586C81.5447 69.5519 81.6305 69.5714 81.7046 69.6146L82.6681 70.1731C82.7083 70.1956 82.754 70.206 82.7996 70.2031C82.8453 70.2001 82.8888 70.1838 82.9247 70.1563L83.5222 69.6902C83.6736 69.5699 83.6778 69.4467 83.5348 69.3207C82.6457 68.537 81.8266 67.6875 81.0777 66.7722C80.3541 65.8863 79.5042 65.2649 78.6712 64.5091C78.6177 64.4597 78.5765 64.3987 78.5509 64.3309C78.5253 64.2631 78.5161 64.1904 78.5239 64.1186L78.5996 63.4721C78.6221 63.2873 78.5786 63.2691 78.4692 63.4175C73.9463 69.6272 69.23 74.2877 61.6231 76.1393C56.7763 77.3191 53.3516 77.592 48.8161 75.8496C46.6255 75.0099 44.4798 74.0246 42.3789 72.8938C42.3294 72.8675 42.2728 72.8582 42.218 72.8673C42.1631 72.8764 42.1132 72.9035 42.076 72.9442C40.7381 74.3591 39.3455 76.1351 37.6415 77.105C37.5069 77.1834 37.5097 77.2575 37.6499 77.3275C40.3005 78.6991 42.9694 80.0342 45.6564 81.333C50.8188 83.8228 54.2772 85.9389 58.0343 89.5077C58.127 89.5957 58.2363 89.6643 58.3559 89.7094C58.4755 89.7546 58.603 89.7755 58.7307 89.7708C58.8585 89.7661 58.9841 89.7359 59.1 89.6821C59.216 89.6283 59.32 89.5519 59.4059 89.4574L63.4323 85.0194C63.5277 84.913 63.5866 84.7885 63.609 84.6457C64.3369 79.8761 67.0927 76.2359 70.5469 73.0533C72.7262 71.0464 74.3797 69.4509 77.064 69.6692C77.9447 69.742 78.2715 70.1926 78.0443 71.0212C78.0078 71.1583 77.9222 71.2507 77.7876 71.2983ZM45.2399 84.7087C37.7677 81.4842 30.5901 77.6886 23.7069 73.3682C19.3271 70.6139 15.6415 68.7371 11.2323 67.4691C7.6252 66.4335 4.8035 65.5392 2.76717 64.7862C2.62692 64.7358 2.5596 64.7848 2.56521 64.9332C2.85972 71.0422 3.3057 77.1722 3.37722 83.256C3.46978 91.1998 3.65911 99.1408 3.94521 107.079C4.2271 114.834 4.13454 122.589 4.13874 130.243C4.13874 130.822 4.36314 130.926 4.81192 130.554C8.0263 127.871 12.2504 125.41 15.0146 123.42C18.6161 120.828 22.2246 118.246 25.84 115.674C30.7121 112.206 38.0917 105.295 44.6551 100.668C48.6156 97.8742 52.5648 95.0821 56.5029 92.2914C56.5305 92.2718 56.5535 92.2462 56.5699 92.2166C56.5864 92.1869 56.596 92.154 56.598 92.1201C56.6 92.0863 56.5944 92.0524 56.5816 92.021C56.5688 91.9896 56.5491 91.9615 56.5239 91.9388C53.1637 88.9129 49.4023 86.5029 45.2399 84.7087ZM103.2 118.197C102.716 117.16 103.742 116.69 104.529 116.387C104.675 116.331 104.684 116.26 104.554 116.173C99.6684 112.876 94.6309 109.833 89.4419 107.045C87.4308 105.966 85.4828 104.455 83.4128 103.275C82.1253 102.542 80.5013 101.864 78.5407 101.243C71.3799 98.984 67.2904 97.4054 60.5503 94.1262C59.6079 93.6686 58.6276 93.8449 57.6304 93.2319C57.5042 93.1536 57.3836 93.1606 57.2686 93.2529C51.9842 97.5859 46.0856 101.57 41.0452 105.651C35.6641 110.014 30.5438 114.28 24.2581 118.692C18.8868 122.466 13.493 126.209 8.07678 129.924C8.06845 129.928 8.06224 129.936 8.0591 129.945C8.05597 129.953 8.05609 129.963 8.05946 129.972C8.06282 129.981 8.06924 129.989 8.0777 129.995C8.08616 130.001 8.0962 130.004 8.10623 130.004C14.4256 129.505 18.452 129.045 20.1854 128.622C25.8512 127.239 31.0374 126.328 35.744 125.889C42.4757 125.265 48.5146 124.485 53.8607 123.55C58.8127 122.685 63.933 122.089 68.9944 121.879C72.7136 121.72 76.1131 121.573 80.0427 121.086C83.3553 120.671 86.6805 120.376 90.0183 120.2C92.1892 120.088 96.541 119.499 103.074 118.432C103.219 118.41 103.261 118.331 103.2 118.197Z" fill="#151515"/>
<path d="M65.5128 51.6498C64.7508 52.5889 64.6792 53.7915 65.3528 54.3358C66.0265 54.8802 67.1903 54.5603 67.9523 53.6212C68.7143 52.6822 68.7859 51.4796 68.1123 50.9352C67.4386 50.3908 66.2748 50.7108 65.5128 51.6498Z" fill="#151515"/>
<path d="M43.1253 56.0964C44.3612 55.8003 45.1785 54.7925 44.9506 53.8455C44.7228 52.8985 43.5362 52.3709 42.3003 52.667C41.0644 52.9631 40.2472 53.9708 40.475 54.9178C40.7028 55.8648 41.8894 56.3925 43.1253 56.0964Z" fill="#151515"/>
<path d="M53.9641 66.5367C53.1983 67.8803 52.2307 69.0629 51.061 70.0846C50.9614 70.1714 50.839 70.2282 50.7079 70.2482C50.5768 70.2683 50.4425 70.2509 50.3205 70.198C49.5169 69.8537 49.7694 69.1189 50.2448 68.6403C51.2377 67.641 52.0974 66.5675 52.8239 65.4199C52.892 65.3124 52.9173 65.1834 52.8947 65.0582C52.8721 64.9331 52.8033 64.8209 52.7019 64.7439C51.3261 63.7027 49.5758 61.5236 51.507 60.0583C51.6191 59.9737 51.7546 59.9267 51.8941 59.9239C53.4087 59.8959 54.8658 59.6552 56.2655 59.2017C56.7928 59.0282 57.1967 59.024 57.4772 59.1891C59.0339 60.1044 56.1098 63.8496 55.424 64.681C55.3879 64.7261 55.3655 64.7802 55.3596 64.8369C55.3536 64.8935 55.3643 64.9502 55.3903 65C56.1589 66.5088 57.2233 67.7557 58.5837 68.741C58.6798 68.8122 58.7937 68.8545 58.9119 68.8628C59.7084 68.9356 60.3536 68.6822 60.8472 68.1028C60.926 68.0113 61.0266 67.9409 61.1398 67.8984C61.2529 67.8559 61.3749 67.8427 61.4942 67.8599C61.6136 67.8771 61.7265 67.9242 61.8223 67.9968C61.9181 68.0694 61.9937 68.1651 62.0421 68.275C62.8246 70.03 59.8753 70.7354 58.7772 70.6556C56.6988 70.4961 55.18 68.2288 54.2796 66.5409C54.1758 66.3478 54.0706 66.3464 53.9641 66.5367Z" fill="#151515"/>
</svg>
