<svg width="137" height="227" viewBox="0 0 137 227" fill="none" xmlns="http://www.w3.org/2000/svg">
<path d="M135 1.5L46 55L65.5 51.5L83.5 59L88 68L103 44L135 1.5Z" fill="#F8F7F2"/>
<path d="M33.5 91L43.5 84.5L47 84L49.5 88L47 93L44 97L39 114L41 123.5L47 109.5L54.5 98.5V110.5L67 114.5L77.5 104L79.5 115.5L71 132.5L84.5 169L81.5 187L69 197L60.5 198L61.5 202L70 205.5H96L109 208.5L117 217.5L112 226L105.5 224.5L97.5 215L85.5 212L65.5 210.5L57 206.5V200L53.5 196.5L16.5 182L12 176L14.5 172.5L27 175V169.5L27.5 158L25.5 134.5V106.5L33.5 91Z" fill="#F8F7F2"/>
<path d="M73.5924 55.4564C73.2495 57.5713 72.9621 59.6254 72.2359 61.6693C70.7063 65.9702 69.4641 70.3522 68.5093 74.8153C68.3429 75.5913 68.0252 76.0883 67.1831 75.9869C66.9058 75.9541 66.6508 75.8179 66.4679 75.6049C66.2851 75.3919 66.1876 75.1176 66.1947 74.8356C66.3813 67.1874 66.2754 60.3405 63.6481 53.0777C63.6251 53.0125 63.5788 52.9582 63.5182 52.9254C63.4577 52.8926 63.3871 52.8836 63.3203 52.9002C56.2504 54.6618 49.3485 56.9492 42.6148 59.7623C39.5555 61.0404 37.1316 61.8705 35.3431 62.2525C34.2842 62.4825 33.5261 62.1393 33.0688 61.223C33.0034 61.088 32.9839 60.9347 33.0134 60.7868C33.1815 60.0057 33.5429 59.4698 34.0976 59.1791C47.2323 52.2037 55.7881 47.5444 59.7652 45.2012C69.1498 39.6679 78.8066 34.5556 88.05 28.8042C95.362 24.2565 102.753 19.8458 110.223 15.5719C113.884 13.4773 117.011 10.9972 120.45 8.61854C125.008 5.46896 130.061 2.90265 134.948 0.219677C135.526 -0.0981537 136.064 -0.0711043 136.561 0.300826C136.689 0.397257 136.794 0.520518 136.87 0.661956C136.945 0.803395 136.989 0.959585 136.998 1.11956C137.007 1.27954 136.982 1.43942 136.923 1.58799C136.864 1.73656 136.773 1.87022 136.657 1.97958C135.583 2.99394 134.605 3.99815 133.687 5.22045C128.488 12.1383 122.931 18.8635 118.014 25.9285C112.81 33.3992 107.339 40.733 102.477 48.3762C98.4498 54.7227 94.4577 61.0894 90.5008 67.4765C90.0368 68.2271 89.43 68.8188 88.6803 69.2516C88.5358 69.3361 88.3845 69.3564 88.2265 69.3125C87.3255 69.069 86.7355 68.5297 86.4565 67.6946C85.5639 65.0167 84.7621 62.3844 83.0224 60.3303C80.6725 57.5544 77.63 55.857 73.895 55.2383C73.7202 55.2112 73.6193 55.2839 73.5924 55.4564ZM130.732 6.47318C117.212 16.2769 104.711 27.166 91.7463 37.6544C85.9371 42.3509 80.3699 47.7219 74.7321 52.7785C74.5405 52.9475 74.569 53.0608 74.8178 53.1183C81.3482 54.584 86.0934 59.6609 87.813 66.0716C87.8332 66.1426 87.8685 66.2085 87.9189 66.2694C87.9996 66.3708 88.0483 66.43 88.0651 66.4469C88.24 66.6329 88.3896 66.616 88.5139 66.3962C92.4742 59.458 96.5605 52.6297 100.773 45.9113C102.548 43.0812 104.442 40.2901 106.456 37.5378C111.015 31.3164 114.911 26.226 118.145 22.2667C124.509 14.4764 128.73 9.23729 130.808 6.54925C130.962 6.34976 130.937 6.3244 130.732 6.47318ZM80.2539 36.7365L49.4578 54.1884V54.1935L62.6648 50.1259C62.741 50.1029 62.8097 50.0592 62.8638 49.9994C62.918 49.9396 62.9554 49.866 62.9724 49.7861C63.3909 47.7777 64.3944 47.3669 65.9224 46.3424C70.7332 43.1269 75.5877 39.9807 80.4859 36.9038C80.5161 36.8869 80.5178 36.8666 80.4909 36.843C80.4775 36.8328 80.464 36.8227 80.4506 36.8125C80.3531 36.7415 80.2875 36.7162 80.2539 36.7365Z" fill="#151515"/>
<path d="M42.0277 75.9173C41.9875 75.9488 41.9414 75.972 41.8921 75.9857C41.8428 75.9994 41.7913 76.0033 41.7405 75.9972C41.6897 75.9911 41.6406 75.975 41.596 75.95C41.5515 75.925 41.5123 75.8915 41.4809 75.8514L41.3633 75.6993C41.0029 75.2426 40.9059 74.6109 41.0936 73.9427C41.2814 73.2745 41.7386 72.6244 42.365 72.1351L44.0667 70.8017C44.3776 70.5593 44.7207 70.3639 45.0764 70.2266C45.4322 70.0893 45.7936 70.0128 46.14 70.0015C46.4865 69.9902 46.8111 70.0443 47.0955 70.1607C47.3798 70.2771 47.6182 70.4536 47.7972 70.6801L47.9147 70.8271C47.9467 70.8667 47.9704 70.9121 47.9847 70.9608C47.9989 71.0095 48.0033 71.0606 47.9976 71.111C47.9919 71.1614 47.9762 71.2102 47.9515 71.2545C47.9267 71.2989 47.8934 71.338 47.8534 71.3696L42.0277 75.9173Z" fill="#151515"/>
<path d="M35.3211 82.9126C34.812 84.018 34.2981 85.6987 33.0156 85.9888C32.9381 86.0058 32.858 86.0034 32.7818 85.9817C32.7057 85.96 32.6355 85.9196 32.5772 85.8637C31.5447 84.8533 32.1057 83.7229 32.6526 82.3474C33.4494 80.3516 34.6564 78.4358 36.6884 78.0057C36.7273 77.9972 36.7676 77.9983 36.806 78.0089C36.8445 78.0195 36.8801 78.0393 36.9102 78.0669C36.9403 78.0945 36.964 78.129 36.9795 78.1678C36.995 78.2066 37.0018 78.2487 36.9996 78.2908C36.9053 80.2115 36.0284 81.382 35.3211 82.9126Z" fill="#151515"/>
<path d="M27.9809 168.145L26.8952 171.176C26.8312 171.352 26.7571 171.357 26.673 171.192L25.562 169.021C25.5323 168.961 25.5184 168.893 25.5216 168.823C25.6428 166.543 25.9307 162.002 26.3851 155.201C26.7992 148.987 26.2943 143.279 25.1076 136.453C23.9528 129.831 23.2846 124.948 23.1028 121.804C22.4766 111.046 24.6278 99.2249 31.849 90.835C34.9041 87.2828 40.8527 83.1182 45.9075 83.0018C47.8197 82.9546 48.9323 83.8367 49.2454 85.6483C49.2747 85.8243 49.3683 85.983 49.508 86.0936C50.5146 86.8931 50.6358 87.9153 49.8716 89.1601C49.0434 90.5129 48.3381 91.6295 47.7557 92.51C43.9028 98.3647 41.7768 104.614 40.5598 111.805C39.9774 115.262 40.2249 118.445 41.3021 121.353C41.3998 121.613 41.4806 121.608 41.5445 121.338C43.4634 112.945 47.3265 105.505 53.1337 99.0174C53.6522 98.4406 54.243 98.0729 54.9062 97.9143C55.0779 97.8738 55.2378 97.9008 55.3859 97.9953C55.965 98.3562 56.2545 98.8488 56.2545 99.4729C56.2511 101.271 56.1703 104.702 56.0121 109.765C56.0054 109.944 56.0862 110.062 56.2545 110.12C59.3382 111.162 62.3933 112.193 65.4198 113.211C66.4499 113.559 67.3286 113.464 68.0558 112.928C71.1799 110.627 73.7772 107.849 75.8476 104.594C76.3155 103.858 76.7851 103.4 77.2564 103.217C81.1902 101.709 80.3014 115.063 79.9429 116.526C78.4919 122.409 76.0748 127.78 72.6915 132.638C72.6003 132.77 72.541 132.921 72.5182 133.08C72.4955 133.239 72.5098 133.401 72.5602 133.554C75.4032 142.126 79.3571 150.521 82.9273 158.92C85.3866 164.714 86.2551 169.952 85.937 175.979C85.772 179.015 85.0314 182.189 83.7151 185.502C82.1463 189.456 79.7443 192.382 76.5091 194.281C73.0449 196.316 69.4344 198.041 65.6773 199.458C63.4908 200.283 60.4811 200.425 59.2944 198.006C59.2035 197.82 59.2625 197.722 59.4712 197.712C61.9304 197.591 63.8291 197.495 66.1369 196.452C71.3179 194.109 77.0191 191.868 79.7056 187.131C83.3111 180.776 83.9575 173.074 82.4122 166.055C81.9712 164.045 80.8115 160.887 78.933 156.583C76.637 151.323 74.4353 146.03 72.3279 140.704C71.6613 139.017 71.1496 137.3 70.7927 135.552C70.7865 135.518 70.7704 135.486 70.7463 135.461C70.7221 135.436 70.6911 135.419 70.6572 135.411C70.6232 135.403 70.5877 135.406 70.5553 135.419C70.5228 135.431 70.4947 135.453 70.4746 135.481C69.6717 136.559 67.8992 139.312 66.349 138.973C66.184 138.936 66.0965 138.835 66.0864 138.669C66.0426 137.853 66.2294 137.163 66.6469 136.6C68.3891 134.252 71.0705 131.261 72.6511 128.488C74.9487 124.45 77.5291 118.813 77.5695 114.021C77.5897 111.491 77.5965 108.868 77.5897 106.152C77.5901 106.1 77.5735 106.05 77.5425 106.008C77.5115 105.967 77.4677 105.936 77.4179 105.922C77.3682 105.908 77.3151 105.91 77.2668 105.929C77.2184 105.948 77.1776 105.982 77.1504 106.026C75.6961 108.303 70.0201 115.65 67.2226 115.939C66.2968 116.037 64.8256 115.745 62.8091 115.063C59.3449 113.893 56.879 113.107 55.4112 112.705C53.5781 112.199 53.0832 111.172 53.1539 109.275C53.2448 106.9 53.4266 104.192 53.6993 101.153C53.7015 101.14 53.6994 101.127 53.6932 101.116C53.687 101.105 53.6771 101.096 53.6652 101.091C53.6534 101.087 53.6403 101.086 53.6281 101.09C53.6159 101.094 53.6054 101.102 53.5983 101.112C47.4073 108.505 43.2615 117.669 42.8878 127.4C42.8474 128.395 43.0106 129.397 43.3776 130.406C44.3707 133.145 45.4261 135.859 46.5438 138.548C46.6987 138.912 46.7475 139.504 46.6902 140.324C46.6801 140.483 46.596 140.56 46.4377 140.557C43.9028 140.486 42.8979 136.256 42.1152 134.358C39.9539 129.133 38.5871 123.708 38.0147 118.084C37.9037 116.988 37.9575 115.804 38.1763 114.532C38.3817 113.355 38.5719 112.176 38.747 110.995C39.4539 106.254 40.9638 100.672 43.5594 96.3254C43.8657 95.8126 44.3859 95.2796 45.1198 94.7264C47.1447 93.1931 48.9172 90.2329 48.1547 87.6218C48.1008 87.443 47.9931 87.3081 47.8315 87.217C47.4477 86.9977 47.2104 86.662 47.1195 86.21C47.109 86.155 47.0868 86.1029 47.0542 86.0574C47.0216 86.0118 46.9794 85.9738 46.9305 85.9459C46.8816 85.9181 46.8272 85.9011 46.7709 85.896C46.7146 85.8909 46.6578 85.8979 46.6044 85.9165L41.6253 87.6977C41.393 87.7787 41.3291 87.7095 41.4334 87.4902C41.4604 87.4329 41.4856 87.3738 41.5092 87.3131C41.5164 87.2922 41.5176 87.2695 41.5124 87.248C41.5073 87.2264 41.4961 87.2067 41.4802 87.1913C41.4643 87.1759 41.4443 87.1653 41.4226 87.1609C41.4009 87.1565 41.3784 87.1584 41.3577 87.1664C35.0101 89.4738 30.4755 95.9864 28.3445 102.266C24.1683 114.568 26.1529 126.14 28.2687 139.069C29.6018 147.216 28.8191 154.574 28.2839 162.382C28.1475 164.375 28.5161 166.298 28.7232 168.287C28.7285 168.345 28.7122 168.402 28.6774 168.449C28.6426 168.495 28.5918 168.526 28.535 168.537C28.4782 168.548 28.4194 168.537 28.3702 168.507C28.3209 168.476 28.2847 168.429 28.2687 168.373L28.2081 168.155C28.1408 167.909 28.065 167.906 27.9809 168.145Z" fill="#151515"/>
<path d="M28.7519 174.5C28.1208 175.332 28.0006 175.621 27.7602 176.686C27.7101 176.893 27.5865 176.969 27.3895 176.914C25.3961 176.359 23.4428 175.715 21.5295 174.98C19.7665 174.303 15.0685 173.001 14.0818 175.477C12.6694 179.043 24.3493 183.732 26.6332 184.595C35.6787 188.014 44.801 191.2 54 194.153C54.9249 194.453 55.5827 195.137 55.9734 196.205C56.0335 196.367 55.9918 196.495 55.8482 196.588C54.0601 197.725 50.0533 196.226 47.9296 195.487C41.0579 193.099 34.2663 190.566 27.3495 188.307C23.0621 186.901 9.67426 181.385 11.1067 175.203C11.7278 172.52 14.0417 171.01 16.6913 171C20.9235 170.979 24.4746 173.197 28.6617 174.231C28.8287 174.272 28.8587 174.362 28.7519 174.5Z" fill="#151515"/>
<path d="M109.272 224.429C112.456 224.659 114.563 221.257 114.776 218.419C115.076 214.463 110.1 211.907 107.069 210.262C104.357 208.79 101.488 207.844 98.4621 207.424C94.5423 206.881 88.9519 207.552 84.5954 207.475C80.3963 207.398 76.05 206.46 71.8204 206.004C69.373 205.738 58.3294 204.293 60.2487 199.657C60.2827 199.576 60.3393 199.508 60.4115 199.46C60.4838 199.412 60.5684 199.386 60.6549 199.386C60.7414 199.386 60.8261 199.412 60.8983 199.46C60.9705 199.508 61.0271 199.576 61.0611 199.657C62.3254 202.736 66.1691 203.53 69.1141 203.801C72.4686 204.116 75.8198 204.469 79.1676 204.862C84.3365 205.467 88.8352 204.724 93.6893 204.222C101.61 203.402 109.43 206.276 115.233 211.594C119.732 215.713 118.336 222.128 113.979 225.658C111.466 227.697 108.419 227.17 105.911 225.689C104.987 225.146 103.963 224.082 102.839 222.497C100.554 219.279 98.4418 216.108 94.8622 214.72C90.3889 212.983 86.1238 212.224 81.163 212.204C73.7397 212.173 66.7632 212.583 60.1167 210.088C55.8279 208.476 54.2352 205.383 55.3387 200.809C55.5249 200.034 55.8753 199.481 56.3898 199.149C56.5507 199.043 56.7407 198.991 56.9326 199.001C57.1245 199.011 57.3083 199.082 57.4578 199.204C57.6073 199.325 57.7147 199.492 57.7645 199.679C57.8144 199.866 57.8042 200.065 57.7353 200.246C55.9887 204.913 58.7813 207.152 62.8992 208.484C67.4351 209.95 72.0438 210.692 76.7253 210.713C82.9351 210.739 89.0687 211.148 94.8216 213.024C98.2337 214.141 101.24 216.605 103.189 219.408C104.972 221.959 106.221 224.213 109.272 224.429Z" fill="#151515"/>
</svg>
