<svg width="6" height="12" viewBox="0 0 6 12" xmlns="http://www.w3.org/2000/svg">
    <path
        d="M3.61741 0.319409C3.05106 0.346638 2.45748 0.569905 2.31589 1.28329C2.1743 2.00212 2.29956 2.33431 2.53917 2.48679C2.77333 2.63926 2.76245 2.7155 2.75155 2.95511C2.74066 3.18928 2.32135 3.08037 1.95649 3.79919C1.58619 4.51258 0.780215 6.58738 1.00893 6.89233C1.4228 7.44235 1.81489 6.36955 2.06539 6.0537C2.2451 5.83588 1.88569 7.29531 1.80945 8.0686C1.73321 8.84189 1.54261 10.481 1.69509 10.7097C1.90203 11.0256 2.37036 11.1236 2.51739 10.8731C2.65898 10.6226 3.19809 7.98146 3.32334 7.98691C3.60652 7.9978 3.56841 10.1597 3.92782 10.8622C4.09119 11.1835 4.5214 10.8023 4.6412 10.6498C4.76101 10.4919 4.63031 6.33143 4.6412 6.07548C4.65209 5.81954 5.06051 7.17006 5.39814 6.83787C5.77934 6.45668 5.35459 4.97001 5.32191 4.79575C5.28379 4.56703 4.90804 3.82642 4.6412 3.32542C4.43427 2.93333 3.99861 3.10759 3.99317 2.94966C3.98772 2.79174 3.99316 2.57936 4.19465 2.49768C4.3907 2.41055 4.57041 1.89321 4.58674 1.35408C4.60308 0.798625 4.18376 0.292181 3.61741 0.319409Z"
        fill="currentColor" />
</svg>