<svg width="8" height="16" viewBox="0 0 8 16" fill="none" xmlns="http://www.w3.org/2000/svg">
<path d="M4.67035 0.203647C3.88863 0.281812 3.02874 0.594484 2.79423 1.61062C2.55971 2.62676 2.79422 3.09573 3.10691 3.33023C3.4196 3.56472 3.41959 3.6429 3.41959 3.95556C3.41959 4.26822 2.79422 4.11187 2.24702 5.20617C1.69982 6.22231 0.527231 9.19257 0.91809 9.66156C1.54346 10.4432 2.09067 8.87991 2.48152 8.48909C2.71604 8.17643 2.24701 10.2869 2.09067 11.3812C2.01249 12.4755 1.69982 14.8204 1.93434 15.1331C2.24702 15.6021 2.8724 15.7584 3.10691 15.3676C3.34143 14.9767 4.04497 11.2248 4.27949 11.2248C4.67035 11.2248 4.67035 14.3514 5.13938 15.3676C5.3739 15.8365 5.99926 15.2894 6.1556 15.0549C6.31195 14.8204 6.1556 8.87991 6.1556 8.48909C6.1556 8.09827 6.78097 10.0524 7.25 9.58339C7.7972 9.03624 7.17183 6.92581 7.17183 6.69132C7.09365 6.37866 6.54647 5.28434 6.23378 4.58086C5.92109 4.03371 5.29571 4.2682 5.29571 4.0337C5.29571 3.79921 5.2957 3.48656 5.60839 3.4084C5.92108 3.25207 6.1556 2.54858 6.1556 1.76694C6.07743 0.907128 5.45206 0.125483 4.67035 0.203647Z" fill="#151515"/>
</svg>
