<?xml version="1.0" standalone="no"?>
<!DOCTYPE svg PUBLIC "-//W3C//DTD SVG 20010904//EN"
 "http://www.w3.org/TR/2001/REC-SVG-20010904/DTD/svg10.dtd">
<svg version="1.0" xmlns="http://www.w3.org/2000/svg"
 width="501.000000pt" height="501.000000pt" viewBox="0 0 501.000000 501.000000"
 preserveAspectRatio="xMidYMid meet">
<metadata>
Created by potrace 1.14, written by Peter Selinger 2001-2017
</metadata>
<g transform="translate(0.000000,501.000000) scale(0.100000,-0.100000)"
fill="#000000" stroke="none">
<path d="M2877 3988 c-8 -18 -18 -48 -20 -67 -3 -19 -13 -41 -23 -50 -9 -9
-14 -11 -11 -5 10 18 -52 11 -63 -6 -8 -12 -10 -11 -10 5 0 17 -2 17 -10 5 -5
-8 -10 -10 -10 -3 0 6 -8 9 -18 6 -10 -2 -24 3 -31 11 -18 22 -48 20 -54 -3
-4 -15 -14 -18 -63 -17 -33 1 -64 5 -71 9 -6 4 -14 4 -17 -1 -2 -4 -22 -9 -42
-10 -21 -2 -40 -5 -43 -7 -2 -3 -10 0 -18 6 -7 6 -13 8 -13 3 0 -5 -46 -8
-102 -7 -67 1 -107 -2 -117 -10 -12 -10 -13 -9 -6 3 7 13 6 13 -7 2 -13 -10
-17 -10 -20 0 -4 10 -9 10 -23 -2 -15 -12 -17 -12 -10 -1 6 10 4 12 -5 6 -11
-7 -141 -14 -272 -16 -10 0 -18 -6 -18 -12 0 -7 -4 -6 -11 3 -8 11 -12 12 -16
3 -2 -7 -9 -13 -14 -13 -6 0 -8 4 -5 9 3 5 -9 7 -27 5 -69 -7 -293 -13 -309
-8 -10 3 -18 13 -18 22 0 15 2 15 10 2 5 -8 10 -10 10 -5 0 16 -14 31 -27 29
-26 -3 -28 -5 -13 -14 13 -8 12 -10 -2 -10 -16 0 -21 -9 -20 -30 0 -3 -6 -11
-14 -18 -8 -7 -14 -9 -14 -3 0 10 -25 9 -35 -1 -3 -3 -27 -3 -52 0 -41 4 -46
3 -39 -13 5 -13 3 -15 -6 -8 -23 18 -108 10 -125 -12 -15 -20 -15 -20 -9 0 5
17 1 20 -29 21 -19 0 -35 -3 -35 -7 0 -4 -10 -5 -22 -1 -16 4 -19 2 -13 -9 7
-11 6 -12 -6 -4 -14 11 -95 12 -105 2 -3 -3 -13 -3 -22 0 -9 4 -13 2 -9 -4 4
-6 -3 -8 -18 -5 -16 3 -25 0 -25 -8 0 -7 -7 -10 -15 -6 -9 3 -15 0 -15 -9 0
-8 -6 -15 -14 -15 -8 0 -16 -6 -19 -14 -6 -15 9 -16 33 -1 11 6 10 3 -2 -11
-16 -19 -16 -20 7 -22 19 -1 23 2 19 16 -5 14 -4 15 5 2 6 -8 11 -26 11 -40
-1 -25 -1 -25 -17 -5 -12 16 -14 16 -10 3 3 -10 2 -20 -4 -23 -5 -4 -6 -11 -3
-17 4 -7 2 -8 -5 -4 -6 4 -9 12 -6 17 11 16 -7 9 -21 -8 -7 -10 -14 -13 -14
-6 0 14 -100 -34 -100 -48 0 -6 -6 -7 -12 -3 -7 4 -3 -4 10 -18 18 -20 20 -27
9 -31 -9 -3 -14 1 -13 10 0 9 -5 18 -13 21 -10 3 -11 0 -5 -9 5 -8 10 -25 12
-39 1 -14 8 -30 15 -35 7 -6 17 -20 24 -32 10 -17 9 -24 -8 -39 -16 -14 -19
-14 -19 -2 0 8 -7 15 -15 15 -8 0 -12 -4 -9 -9 3 -4 0 -8 -6 -8 -7 0 -10 -6
-7 -14 6 -15 -21 -28 -65 -29 -15 -1 -24 -5 -21 -11 4 -5 -1 -7 -10 -3 -9 3
-17 1 -19 -5 -7 -21 -54 -17 -68 5 -13 22 -13 22 8 4 20 -18 20 -18 15 2 -5
19 -15 26 -36 22 -5 -1 -6 3 -3 8 3 5 -1 12 -9 15 -13 4 -14 10 -5 26 7 12 16
18 23 13 7 -4 7 0 -2 10 -15 18 -26 23 -16 7 3 -5 -1 -10 -10 -10 -9 0 -13 -4
-10 -10 4 -6 -10 -8 -38 -5 -29 3 -44 0 -45 -8 -1 -7 -5 -27 -8 -44 -5 -24 -3
-33 7 -33 9 -1 8 -4 -3 -11 -19 -11 -25 -49 -7 -49 6 0 3 -7 -6 -16 -12 -13
-13 -19 -4 -30 10 -12 8 -13 -6 -7 -15 5 -17 3 -12 -11 4 -9 3 -15 -2 -11 -5
3 -13 1 -16 -5 -4 -6 -3 -10 2 -9 19 3 27 -2 14 -10 -10 -7 -11 -13 -2 -30 7
-11 8 -21 3 -21 -5 0 -8 -10 -6 -22 1 -13 3 -27 3 -32 1 -4 9 -5 19 -2 15 5
15 4 2 -6 -9 -8 -16 -34 -18 -68 -4 -76 -4 -79 -15 -77 -5 1 -11 -3 -14 -10
-3 -8 3 -11 17 -8 11 2 18 0 15 -6 -4 -5 -11 -7 -16 -4 -5 4 -9 2 -9 -4 0 -6
-8 -8 -18 -5 -14 5 -14 4 -3 -4 18 -13 23 -42 8 -42 -7 0 -4 -5 5 -11 9 -5 15
-16 12 -23 -3 -8 -1 -17 5 -21 22 -13 10 -34 -34 -56 -49 -24 -51 -28 -32 -49
10 -12 9 -12 -5 -1 -12 9 -18 10 -18 2 0 -6 -4 -10 -8 -9 -9 3 -62 -55 -62
-67 0 -4 7 -5 15 -1 9 3 15 0 15 -10 0 -8 -3 -13 -7 -11 -15 10 -5 -73 11 -88
9 -9 14 -21 11 -26 -4 -5 3 -9 14 -9 12 0 21 -4 21 -10 0 -5 5 -10 11 -10 5 0
7 6 3 13 -5 8 -2 8 9 -2 16 -12 22 -8 18 12 -1 5 3 6 9 2 6 -3 8 -11 5 -16 -4
-5 2 -9 11 -9 10 0 14 -3 10 -7 -4 -5 -12 -8 -17 -8 -5 0 -8 -4 -6 -10 1 -5 8
-9 14 -9 7 1 13 -4 13 -12 0 -13 18 -19 50 -15 9 2 6 -4 -8 -14 -12 -9 -20
-21 -17 -26 4 -5 -1 -12 -10 -15 -11 -5 -13 -10 -5 -19 8 -9 8 -15 0 -20 -5
-3 -10 -13 -10 -21 0 -7 -10 -25 -22 -40 -18 -20 -23 -38 -23 -85 0 -37 4 -59
11 -59 7 0 15 -12 18 -26 5 -17 12 -24 21 -20 9 3 15 -1 15 -10 0 -8 -4 -12
-10 -9 -5 3 -10 2 -10 -3 0 -13 39 -23 45 -12 3 5 1 11 -5 15 -5 3 -10 11 -10
18 0 6 6 2 14 -9 11 -15 12 -22 3 -33 -10 -12 -9 -14 5 -9 11 5 15 2 13 -10
-1 -9 -7 -16 -13 -15 -6 1 -13 -4 -15 -12 -4 -10 1 -12 21 -9 19 3 23 2 13 -5
-7 -5 -10 -14 -7 -20 4 -6 4 -11 -1 -12 -4 0 -16 -2 -26 -4 -11 -2 -16 1 -14
8 2 7 0 20 -5 31 -7 13 -7 16 1 12 10 -7 13 -3 15 26 1 6 -6 12 -14 13 -13 2
-15 -7 -14 -44 1 -25 3 -46 4 -46 1 0 4 -10 5 -22 1 -13 -1 -23 -5 -23 -4 0
-7 -7 -7 -15 0 -8 4 -15 9 -15 4 0 8 5 8 11 0 5 5 7 11 3 8 -4 3 -12 -12 -20
-13 -7 -18 -13 -11 -14 7 0 10 -5 6 -12 -4 -7 -3 -8 5 -4 6 4 14 0 17 -9 5
-12 9 -13 14 -5 5 8 9 7 13 -5 4 -10 0 -18 -11 -22 -9 -4 -44 -24 -76 -46 -54
-36 -58 -41 -41 -53 16 -12 15 -13 -11 -11 -23 2 -28 -2 -26 -15 2 -10 -2 -18
-8 -18 -5 0 -10 -4 -10 -10 0 -5 3 -9 8 -9 20 3 33 -2 27 -11 -4 -6 -10 -8
-14 -6 -4 3 -6 -8 -5 -24 1 -16 -3 -28 -8 -27 -6 1 -13 -4 -16 -12 -2 -8 0
-11 6 -7 7 4 8 -4 1 -26 -12 -42 -11 -45 3 -27 7 8 12 12 11 10 -2 -2 3 -11
10 -19 8 -11 8 -14 0 -9 -6 4 -14 3 -17 -2 -3 -5 1 -12 10 -15 8 -3 12 -10 9
-16 -7 -11 23 -9 43 3 8 6 12 2 12 -12 0 -12 -5 -21 -12 -21 -6 0 -9 -3 -5 -6
3 -3 14 -1 24 5 10 6 14 11 9 11 -13 0 25 40 37 40 6 0 2 -6 -8 -14 -10 -7
-19 -23 -20 -34 -1 -16 1 -19 11 -11 14 12 25 -12 26 -60 1 -27 1 -28 20 -9
10 10 17 24 16 31 -2 7 1 13 6 14 5 1 13 7 18 15 8 10 9 9 5 -4 -3 -9 -3 -19
1 -21 4 -2 2 -3 -4 -1 -6 1 -11 -4 -11 -11 0 -7 6 -11 14 -8 7 3 13 0 13 -7 0
-6 5 -8 12 -4 7 4 8 3 4 -5 -6 -8 -12 -9 -20 -2 -9 8 -18 4 -34 -13 -11 -13
-17 -28 -14 -32 4 -5 0 -3 -8 3 -13 10 -16 8 -16 -8 0 -10 4 -19 9 -19 4 0 5
-5 2 -10 -11 -18 5 -68 30 -92 26 -26 50 -78 36 -78 -4 0 -6 -11 -3 -25 2 -14
9 -25 14 -25 6 0 8 -8 6 -18 -3 -12 2 -24 14 -31 12 -7 17 -8 14 -2 -4 7 -1 8
8 5 9 -3 13 -10 10 -15 -3 -5 2 -6 11 -3 14 6 14 9 -2 28 -13 15 -13 17 -2 8
9 -6 19 -8 23 -4 4 4 7 3 6 -3 -5 -25 1 -56 10 -50 5 3 19 -4 31 -16 17 -17
21 -18 16 -5 -4 9 -3 15 2 11 5 -3 12 1 15 7 3 7 3 2 0 -12 -6 -24 -5 -24 8
-6 12 15 17 16 23 6 6 -9 4 -11 -5 -5 -9 6 -11 4 -5 -4 9 -16 23 -3 28 26 2
13 7 26 12 30 4 5 5 3 1 -4 -3 -6 -2 -15 4 -18 8 -5 8 -11 1 -19 -8 -9 -7 -13
4 -13 7 0 13 3 12 6 -1 3 3 7 8 9 6 1 10 -2 10 -7 0 -5 4 -13 9 -18 5 -4 6 -3
3 3 -11 19 22 25 33 6 11 -16 11 -16 6 1 -3 11 0 17 10 17 8 0 13 -4 9 -9 -3
-5 0 -13 6 -17 8 -4 9 -3 5 4 -4 7 -2 12 4 12 7 0 9 7 6 16 -3 9 -2 12 5 9 6
-4 8 -13 5 -21 -3 -7 -1 -16 3 -19 5 -3 12 3 16 13 6 16 7 16 21 -2 10 -14 14
-16 14 -5 1 8 12 27 25 43 l24 30 -3 -27 c-2 -15 1 -30 7 -34 6 -3 7 -1 4 5
-8 12 77 11 89 -1 4 -4 12 -7 17 -7 6 0 7 3 4 7 -4 3 -2 11 3 18 7 8 5 12 -5
12 -8 0 -12 -3 -10 -7 2 -4 -8 -7 -24 -7 -15 0 -28 6 -28 12 0 7 8 10 19 7 13
-3 17 0 12 11 -6 18 31 43 41 27 3 -5 13 -6 22 -3 11 4 14 3 9 -6 -5 -7 -14
-10 -22 -7 -8 3 -14 0 -14 -5 0 -7 11 -9 25 -7 14 3 25 1 25 -3 0 -5 5 -9 11
-9 5 0 8 3 6 8 -3 4 1 13 9 20 11 10 13 8 10 -15 -2 -16 -1 -22 1 -15 3 7 9
10 14 7 5 -3 6 1 3 10 -5 11 -2 14 10 9 9 -3 13 -10 10 -15 -3 -5 0 -9 5 -9 6
0 11 -5 11 -11 0 -5 -4 -8 -8 -5 -5 3 -9 -1 -9 -9 0 -12 4 -12 19 2 12 10 15
19 8 23 -6 4 -8 14 -4 24 5 13 9 14 20 5 8 -6 11 -15 8 -20 -3 -5 4 -9 15 -9
15 0 19 5 14 18 -3 9 -3 14 1 10 7 -5 13 -26 15 -50 1 -5 10 1 21 12 25 25 36
25 43 0 6 -25 33 -26 46 -1 6 10 8 20 6 23 -3 3 2 5 10 5 8 0 15 -4 15 -9 0
-4 3 -7 8 -7 4 1 18 1 31 0 21 -1 22 -3 10 -18 -10 -11 -10 -14 -1 -9 10 6 16
-3 14 -25 -1 -3 6 -6 13 -6 10 0 12 4 5 12 -6 8 -7 22 -2 35 l9 24 5 -22 c4
-14 2 -20 -4 -15 -7 4 -8 1 -3 -6 5 -9 12 -7 26 8 26 28 33 26 14 -3 -12 -18
-13 -26 -4 -32 8 -4 9 -3 5 4 -7 12 -1 13 99 16 48 1 65 10 49 24 -4 4 -4 1 0
-5 4 -7 2 -13 -4 -13 -17 0 -6 23 12 26 11 1 15 -5 14 -20 -2 -13 3 -23 10
-23 7 0 11 4 8 9 -3 4 0 8 5 8 6 0 10 5 9 11 -2 6 4 14 12 16 12 4 12 3 1 -5
-15 -11 2 -27 19 -17 9 6 14 -8 11 -28 -1 -5 3 -6 9 -2 6 3 8 11 5 16 -4 5 2
9 12 10 14 0 12 3 -7 11 -21 9 -22 12 -7 15 22 5 47 -25 39 -45 -3 -10 0 -13
9 -10 8 3 13 12 11 19 -1 9 3 7 12 -4 12 -16 14 -16 20 -1 4 11 0 18 -14 21
-11 3 -20 13 -19 22 0 10 2 11 6 4 2 -7 9 -13 14 -13 6 0 6 7 0 19 -8 14 -7
22 7 32 15 12 15 12 5 -1 -8 -10 -9 -21 -3 -30 9 -15 11 -13 14 12 0 6 8 13
16 15 13 4 13 3 0 -6 -8 -6 -11 -11 -5 -11 5 0 4 -5 -3 -12 -16 -16 -15 -29 1
-26 6 2 11 -2 10 -7 -1 -7 16 -10 40 -9 56 3 54 2 61 19 7 19 1 19 -18 0 -13
-13 -15 -13 -21 5 -3 11 -13 20 -20 20 -9 0 -12 6 -8 17 4 11 8 12 11 5 5 -16
34 -15 52 1 12 10 12 9 1 -6 -12 -15 -12 -17 1 -12 9 4 18 -1 22 -11 5 -14 9
-14 23 -3 15 12 16 12 10 -3 -3 -10 -2 -18 2 -18 5 0 18 -3 28 -6 16 -6 16 -5
-2 10 -11 10 -14 14 -6 10 10 -5 13 -3 8 8 -9 25 5 30 17 6 6 -11 22 -23 36
-25 17 -2 21 0 11 6 -11 7 -11 9 0 14 10 4 9 6 -3 6 -10 1 -18 -4 -18 -11 0
-6 -3 -8 -7 -5 -10 11 -13 56 -3 62 4 3 7 -2 6 -11 0 -10 8 -18 22 -20 16 -3
21 0 17 8 -4 7 0 5 9 -6 9 -11 21 -16 32 -12 9 3 22 2 28 -2 18 -15 48 -10 41
6 -4 12 -3 13 10 2 13 -11 14 -10 9 5 -5 13 -4 16 4 11 7 -4 12 -1 12 9 0 9
-5 13 -10 10 -13 -8 -42 14 -34 26 3 5 10 7 15 3 5 -3 7 -10 4 -15 -9 -13 9
-11 25 4 8 6 12 8 8 3 -11 -13 10 -46 26 -40 17 7 31 -12 16 -21 -6 -4 -17 -2
-25 5 -10 8 -15 8 -21 -1 -4 -8 -3 -9 4 -5 8 5 12 -1 12 -16 0 -17 -3 -19 -9
-9 -10 15 -31 7 -31 -12 0 -8 3 -8 9 2 6 9 11 10 15 3 4 -6 13 -9 21 -6 8 4
12 11 8 18 -4 6 1 5 11 -3 15 -12 17 -12 14 0 -2 8 3 13 11 11 8 -2 11 3 8 12
-4 9 0 13 11 11 9 -1 20 3 24 9 4 6 10 -3 14 -21 4 -18 10 -30 15 -27 5 3 6
10 3 16 -4 7 -2 8 5 4 6 -4 9 -11 6 -16 -3 -5 0 -12 6 -16 8 -4 9 -3 5 4 -4 7
-2 12 4 12 7 0 7 7 -1 23 -11 19 -10 20 3 10 8 -7 18 -10 21 -6 4 3 14 0 23
-8 9 -8 24 -14 33 -14 9 0 15 -7 13 -15 -3 -11 1 -11 16 3 10 9 24 17 31 17 7
0 9 5 6 10 -4 6 -10 8 -15 5 -5 -3 -16 3 -26 12 -16 16 -16 16 -9 -7 7 -22 6
-23 -9 -11 -13 11 -16 11 -16 1 0 -8 -3 -11 -6 -7 -3 3 2 17 12 30 19 24 19
24 36 4 13 -14 18 -16 18 -6 1 10 3 10 10 -2 7 -11 22 -16 44 -15 19 1 32 -2
30 -6 -10 -16 9 -7 22 10 13 16 14 16 7 -2 -4 -13 -3 -17 5 -12 7 4 12 14 12
22 0 8 5 14 11 14 7 0 9 -9 6 -22 -6 -22 -5 -22 8 -4 8 10 12 22 10 26 -3 6
30 6 45 0 3 -1 8 -2 13 -1 4 0 7 -3 7 -9 0 -5 -3 -10 -8 -10 -4 0 -13 -10 -21
-23 -13 -20 -13 -21 2 -8 9 7 26 11 38 8 15 -4 18 -2 10 7 -14 17 25 41 43 27
14 -12 36 4 32 23 -2 6 -1 8 1 3 3 -4 9 -5 13 -2 5 3 5 -9 0 -26 -8 -26 -7
-29 5 -19 8 7 12 16 9 21 -3 5 0 9 5 9 6 0 11 -11 11 -25 0 -14 -5 -25 -12
-25 -6 0 -8 -3 -5 -6 10 -10 39 18 33 32 -8 21 5 24 40 9 29 -12 36 -12 49 1
14 15 20 8 16 -19 0 -4 8 -7 19 -7 12 0 17 5 14 14 -3 8 -1 16 4 20 9 6 10
-23 0 -39 -3 -6 4 -11 17 -11 18 -1 22 2 18 15 -4 9 -2 13 2 8 5 -4 18 1 29
10 20 18 20 18 2 -11 -10 -16 -13 -25 -7 -22 6 4 11 1 11 -6 0 -8 3 -9 8 -3 4
6 13 10 20 11 31 3 33 4 22 25 -10 18 -9 19 7 12 10 -5 24 -8 31 -7 6 1 17 2
23 3 5 0 7 6 4 11 -4 6 -11 8 -16 5 -5 -4 -9 -2 -9 4 0 22 17 18 33 -8 13 -22
24 -27 59 -30 23 -1 46 -7 50 -14 6 -9 8 -9 8 1 0 7 4 11 9 8 5 -3 15 2 22 11
12 14 12 16 -1 8 -12 -6 -12 -5 -3 5 6 7 10 18 9 24 -1 6 2 1 8 -11 5 -12 16
-25 24 -28 13 -5 13 -3 1 11 -13 16 -12 16 8 5 15 -7 20 -17 17 -29 -5 -14 -4
-14 4 -2 6 8 8 18 6 22 -3 4 2 5 10 2 9 -3 14 -10 11 -15 -3 -4 4 -13 15 -19
16 -9 20 -8 20 5 0 18 26 20 33 3 4 -10 6 -10 6 -1 2 25 -38 36 -54 15 -9 -11
-11 -9 -11 7 0 11 4 17 8 15 4 -3 8 1 8 8 0 10 2 10 9 -1 6 -10 10 -10 16 -1
5 8 13 1 23 -20 11 -22 17 -27 23 -18 5 7 3 16 -4 20 -8 5 -4 8 11 8 17 0 22
-6 22 -27 0 -26 9 -27 14 -1 8 36 18 49 32 37 11 -9 14 -8 14 5 0 9 4 16 10
16 5 0 7 -8 4 -17 -5 -15 -3 -15 10 1 14 17 16 18 16 3 0 -9 -4 -17 -8 -17 -4
0 -8 -9 -9 -20 -2 -17 1 -18 18 -9 11 6 18 16 16 24 -4 9 1 11 15 7 11 -3 24
1 29 9 6 9 9 10 9 2 0 -7 10 -17 21 -24 16 -8 20 -8 14 0 -5 8 2 10 22 5 26
-6 27 -5 9 8 -16 13 -16 15 -2 15 16 0 19 -6 19 -39 0 -22 4 -22 23 -4 11 11
11 16 1 19 -7 3 -6 6 5 6 9 1 19 -5 22 -11 4 -7 4 -3 2 8 -2 12 1 28 6 35 7
11 8 9 6 -5 -2 -10 3 -21 11 -24 8 -3 11 0 7 7 -4 6 -2 11 3 11 6 0 11 -4 11
-10 0 -5 6 -10 14 -10 15 0 32 -36 27 -55 -1 -5 3 -5 10 2 10 10 9 16 -2 29
-13 16 -12 16 9 5 13 -7 20 -17 15 -24 -5 -8 -2 -8 9 1 13 10 17 10 22 0 3 -7
3 -3 0 9 -5 24 29 52 41 33 3 -5 11 -10 16 -10 6 0 7 5 3 12 -4 7 -3 8 4 4 18
-11 15 -16 -16 -27 -16 -5 -29 -16 -29 -23 0 -8 6 -12 14 -9 7 3 11 8 8 12 -2
4 2 8 10 8 11 0 11 -5 4 -19 -9 -17 -8 -18 10 -6 12 7 21 19 21 26 0 7 5 10
10 7 6 -4 8 -11 4 -16 -3 -5 -1 -8 5 -7 5 2 16 -5 23 -14 9 -13 17 -15 28 -8
13 8 13 11 1 22 -9 8 -11 9 -7 1 3 -6 2 -14 -3 -17 -5 -3 -11 1 -15 9 -3 8 -1
15 5 15 6 0 7 5 3 11 -5 8 -9 8 -14 -1 -5 -8 -9 -6 -14 6 -4 10 -4 15 0 11 4
-4 14 -1 22 6 11 8 14 8 9 0 -4 -6 1 -17 11 -25 10 -7 21 -20 25 -28 4 -12 6
-11 6 3 1 9 6 17 12 17 5 0 7 -5 4 -10 -3 -6 1 -10 9 -10 9 0 16 -5 16 -12 0
-6 3 -8 6 -5 4 4 2 13 -4 20 -7 8 -9 17 -5 20 3 4 0 15 -8 24 -13 16 -12 17 3
5 9 -7 18 -9 20 -5 3 4 3 1 1 -7 -3 -8 -5 -19 -6 -24 -2 -12 60 -12 87 -1 11
5 21 3 26 -5 5 -8 13 -9 21 -4 18 10 49 13 43 3 -2 -4 0 -10 6 -14 5 -3 10 -1
10 5 0 8 6 8 20 0 15 -8 20 -8 20 1 0 7 8 5 20 -6 19 -17 19 -17 7 14 -6 17
-14 27 -17 22 -3 -5 -12 -2 -20 7 -13 14 -12 15 4 9 14 -6 17 -4 12 10 -5 15
-4 15 9 -1 8 -11 15 -26 15 -33 0 -7 6 -10 16 -6 13 5 13 7 2 14 -21 14 -3 10
26 -4 14 -8 23 -17 19 -21 -4 -4 0 -4 10 0 9 3 14 11 10 18 -4 6 2 4 12 -4 17
-14 18 -13 13 7 -4 13 -1 26 4 30 6 3 8 1 4 -5 -3 -6 -2 -13 4 -17 6 -4 8 -10
6 -14 -3 -4 1 -8 9 -8 8 0 15 4 15 9 0 4 -4 8 -10 8 -5 0 -10 5 -10 11 0 5 5
7 11 3 7 -4 6 2 -2 17 -11 22 -11 23 5 10 9 -8 20 -10 24 -6 4 4 1 10 -5 12
-7 3 -13 9 -13 14 0 6 6 7 13 3 6 -3 0 5 -15 20 -27 26 -45 35 -33 16 3 -5 1
-10 -5 -10 -7 0 -9 7 -6 16 3 8 -1 22 -9 30 -12 12 -15 12 -15 2 -1 -7 -7 -2
-15 12 -8 14 -14 19 -15 11 0 -11 -3 -10 -13 3 -8 10 -26 20 -41 21 -15 2 -42
10 -59 19 -18 8 -45 13 -60 12 -30 -4 -35 5 -13 23 11 9 16 9 22 0 5 -9 10 -7
15 7 7 17 8 17 8 -4 1 -13 5 -20 11 -17 6 4 8 11 4 16 -3 5 0 8 7 7 6 -2 14 3
17 11 3 8 0 11 -7 7 -6 -4 -11 -1 -11 9 0 8 7 18 15 21 8 4 15 10 15 16 0 5
-4 6 -10 3 -6 -3 -7 1 -4 9 6 15 -19 50 -28 41 -2 -3 -4 11 -4 29 0 19 4 32 7
30 4 -2 10 3 13 12 3 8 2 12 -3 9 -5 -3 -13 -1 -16 5 -4 6 -3 10 2 9 23 -4 43
2 38 12 -4 6 -13 8 -21 5 -19 -7 -18 -4 8 18 17 15 20 15 15 3 -3 -9 -1 -19 4
-23 6 -3 9 -14 6 -23 -3 -11 2 -17 14 -17 14 0 15 3 7 14 -9 10 -8 12 3 10 8
-2 13 3 11 12 -3 12 -1 13 9 3 19 -18 29 -16 22 5 -3 9 -3 14 1 10 4 -3 9 -14
10 -24 2 -10 9 -20 17 -22 11 -3 11 -1 -1 7 -12 9 -10 11 10 12 23 0 23 1 5 9
-18 7 -19 8 -3 15 10 4 15 11 12 16 -3 5 -11 6 -17 2 -8 -5 -8 -2 1 9 10 13 8
20 -16 46 -23 25 -32 29 -43 19 -11 -10 -11 -9 0 5 12 16 7 43 -7 34 -4 -2
-13 2 -20 10 -7 8 -8 14 -2 14 5 0 10 5 10 11 0 6 -6 9 -13 6 -8 -3 -14 1 -14
9 0 7 9 16 19 20 10 3 18 10 18 16 0 7 -5 6 -14 -1 -11 -9 -16 -9 -22 0 -4 8
-3 9 4 5 6 -4 17 2 24 14 19 30 26 25 22 -15 -2 -21 1 -35 8 -35 6 0 8 3 5 7
-4 3 1 12 11 19 21 17 56 18 46 2 -4 -7 -3 -8 5 -4 18 11 -6 36 -27 29 -13 -4
-12 -2 3 10 11 9 25 16 30 17 6 0 3 -4 -5 -10 -12 -8 -12 -10 3 -16 9 -3 17
-13 17 -22 0 -12 3 -13 12 -4 15 15 32 16 22 1 -4 -8 0 -7 15 1 12 6 19 15 16
21 -4 5 -11 6 -17 3 -7 -5 -8 -2 -2 7 5 8 9 17 9 21 0 3 3 9 7 13 3 4 5 -1 4
-12 -2 -13 26 -53 38 -53 1 0 1 20 0 45 -1 25 2 42 7 40 4 -3 5 -13 2 -23 -6
-15 -5 -15 10 -3 19 15 33 9 22 -8 -3 -6 -11 -9 -16 -6 -5 4 -7 -4 -5 -17 3
-13 5 -27 5 -31 1 -5 5 -6 11 -2 5 3 7 12 4 20 -4 8 1 18 10 21 9 3 13 11 9
17 -3 6 -1 7 5 3 6 -4 20 -2 30 3 14 7 19 6 19 -4 0 -8 -7 -11 -16 -7 -13 4
-13 2 2 -15 9 -11 14 -23 11 -26 -4 -4 -13 1 -21 11 -13 15 -13 15 -3 -6 11
-22 12 -22 34 -5 13 10 22 21 19 25 -2 4 3 5 11 2 9 -3 12 -13 9 -22 -4 -13
-2 -12 10 3 8 11 13 24 10 29 -4 5 -1 6 5 3 18 -12 44 4 37 22 -5 13 -4 14 7
3 10 -10 10 -17 0 -32 -17 -28 -15 -33 6 -12 9 9 17 32 17 49 0 26 -11 43 -53
83 -29 28 -64 51 -77 52 -13 1 -23 7 -22 13 1 5 -9 9 -22 7 -15 -2 -21 0 -16
7 8 14 -17 10 -27 -4 -4 -6 -8 -2 -8 8 0 16 -7 19 -42 21 -7 0 -33 7 -58 16
-25 9 -56 15 -70 14 -14 -1 -29 1 -35 5 -5 3 -18 6 -27 6 -23 0 -23 2 1 55 11
25 22 59 24 75 3 20 9 30 21 29 9 -1 16 2 16 7 0 5 -4 9 -9 9 -6 0 -9 9 -8 19
0 11 6 17 14 14 7 -3 10 -10 6 -16 -3 -5 -1 -7 5 -3 11 6 42 -19 42 -35 0 -16
-18 -10 -23 9 -3 9 -4 6 -4 -9 1 -30 27 -35 35 -7 2 10 9 18 14 18 6 0 8 -7 4
-15 -3 -8 -1 -15 4 -15 6 0 10 7 10 16 0 10 6 14 14 11 8 -3 17 1 20 9 4 11
10 12 25 4 30 -16 64 -13 57 5 -7 20 4 19 19 -2 10 -13 13 -14 20 -2 5 8 5 11
0 7 -9 -9 -40 30 -31 39 3 4 6 2 6 -4 0 -14 36 -23 38 -9 0 6 4 21 7 34 5 13
3 22 -3 22 -6 0 -18 3 -28 7 -13 5 -15 3 -9 -7 5 -9 4 -11 -4 -6 -9 6 -9 11
-1 21 13 16 -31 47 -67 47 -13 0 -21 3 -18 6 6 6 -47 31 -80 38 -11 2 -31 6
-45 10 -14 3 -37 7 -52 8 -15 2 -49 15 -75 28 -26 14 -66 31 -88 38 -22 7 -45
16 -51 21 -6 5 -15 5 -19 1 -5 -4 -4 0 1 8 5 8 7 23 6 33 -3 17 35 40 50 30 4
-2 5 2 2 10 -3 8 0 18 7 23 7 4 10 3 7 -2 -7 -12 7 -49 18 -49 5 0 15 -4 23
-9 9 -6 12 -5 8 1 -4 6 0 14 9 17 8 3 13 2 10 -3 -3 -5 0 -11 8 -14 10 -4 12
1 9 16 -3 13 -1 18 4 12 4 -6 14 -10 21 -9 6 1 17 2 22 3 6 0 8 12 4 25 -6 25
6 30 34 13 6 -5 17 -5 22 -2 6 3 10 0 10 -7 0 -9 3 -9 10 2 7 11 10 11 10 2 0
-7 4 -11 8 -8 5 3 9 -1 9 -9 0 -8 -4 -12 -9 -9 -4 3 -8 -2 -8 -10 0 -18 16
-21 25 -6 5 8 12 7 23 -2 12 -10 14 -10 8 0 -4 6 -3 12 2 12 5 0 17 15 26 33
8 17 16 25 16 17 0 -17 50 -21 51 -4 0 5 6 16 12 24 10 13 10 13 -5 1 -20 -15
-25 -2 -6 17 7 7 8 12 2 12 -5 0 -2 5 6 10 13 8 12 10 -2 10 -10 0 -18 5 -18
12 0 6 -3 9 -6 5 -4 -3 -15 4 -25 16 -10 12 -18 18 -19 14 0 -4 -10 2 -22 13
-14 13 -32 20 -45 17 -13 -2 -21 1 -20 7 1 6 -13 12 -30 14 -18 2 -33 8 -33
15 0 8 -3 8 -12 -1 -8 -8 -17 -8 -31 0 -15 7 -22 7 -28 -3 -7 -11 -9 -11 -9 1
0 11 -12 15 -40 16 -35 1 -39 -1 -28 -15 12 -14 11 -15 -7 -1 -11 8 -22 18
-25 21 -11 13 -69 18 -74 6 -2 -7 -5 -5 -5 5 -1 9 5 19 12 21 8 4 8 8 2 14 -5
4 -16 15 -23 24 -11 14 -10 17 5 15 19 -1 24 22 8 40 -7 8 -17 9 -30 2 -17 -8
-18 -7 -4 4 9 7 15 21 13 30 -1 11 3 15 12 11 8 -3 11 -10 7 -17 -3 -6 5 1 20
17 25 26 44 37 33 18 -3 -5 2 -15 12 -22 15 -12 16 -12 5 2 -7 9 -10 19 -6 22
3 4 -2 17 -13 28 -19 22 -19 22 4 8 12 -8 22 -22 22 -31 0 -20 16 -25 18 -5 2
29 11 77 16 86 3 5 -1 11 -9 14 -9 4 -12 1 -9 -7 7 -18 -12 -30 -22 -15 -4 8
-3 9 4 5 7 -4 12 -5 12 -2 0 3 -10 10 -21 17 -12 6 -19 7 -15 1 3 -5 -1 -13
-10 -16 -12 -5 -15 -2 -10 10 4 11 1 14 -13 9 -12 -3 -21 0 -25 10 -4 11 -2
14 6 9 8 -5 9 -2 5 10 -4 11 -3 15 4 11 6 -4 8 -14 4 -24 -3 -9 -3 -12 2 -6 4
6 22 26 38 45 17 19 21 27 9 17 -11 -9 -24 -14 -28 -10 -4 5 -6 4 -4 -2 2 -5
-1 -10 -7 -10 -5 0 -9 3 -8 6 1 4 -7 4 -19 1 -14 -3 -19 -1 -14 6 4 7 14 12
22 12 10 0 12 5 8 13 -5 8 -2 8 9 -2 16 -12 22 -8 18 12 -1 5 4 5 10 2 6 -4
29 -7 50 -7 22 1 37 -3 34 -9 -4 -5 1 -9 10 -9 10 0 14 -5 9 -12 -6 -10 -4
-10 7 0 16 15 29 16 29 1 0 -5 -4 -7 -10 -4 -6 3 -7 -1 -4 -10 5 -13 9 -13 22
-3 12 10 14 10 8 1 -5 -9 -1 -12 11 -10 10 1 18 -2 18 -8 0 -5 -3 -9 -7 -7
-13 4 -9 -5 9 -19 14 -12 16 -12 8 0 -5 9 -4 12 3 7 6 -3 13 -2 16 3 11 16 -6
41 -27 41 -11 0 -17 3 -13 7 16 16 35 9 46 -18 7 -17 17 -26 24 -22 6 4 5 -1
-3 -10 -8 -10 -16 -15 -19 -12 -3 3 -12 -1 -20 -7 -17 -15 -44 -20 -36 -7 13
22 -64 11 -90 -13 -16 -14 -17 -18 -4 -13 13 5 17 2 15 -13 0 -12 -4 -19 -8
-16 -8 4 -22 -26 -15 -33 7 -8 47 8 42 16 -3 4 -1 13 5 21 5 9 9 10 9 3 0 -6
8 -10 18 -8 10 1 16 10 15 21 -1 18 -1 18 11 2 7 -10 19 -18 25 -18 7 0 9 -4
6 -10 -3 -6 1 -7 10 -4 14 6 14 8 -1 25 -10 11 -12 19 -6 19 7 0 12 -5 12 -11
0 -5 4 -8 9 -5 10 7 9 -20 -2 -30 -13 -13 -7 -22 11 -19 9 1 25 -2 34 -6 11
-6 19 -5 24 3 4 6 3 9 -2 5 -5 -3 -16 0 -24 6 -18 14 -26 42 -9 31 6 -3 15 -1
19 6 5 9 9 9 14 1 4 -6 2 -11 -3 -11 -6 0 -11 -5 -11 -10 0 -15 33 -8 46 9 7
8 11 22 9 30 -1 9 3 19 9 23 7 5 4 8 -7 8 -9 0 -16 5 -15 12 2 7 -11 17 -28
23 -20 6 -30 16 -28 27 1 9 -5 19 -13 22 -9 4 -12 1 -8 -7 4 -6 -2 -1 -13 13
-18 22 -22 23 -39 10 -16 -13 -17 -13 -6 0 10 13 8 18 -8 29 -12 7 -23 10 -26
7 -3 -3 -14 -1 -24 5 -14 7 -19 6 -19 -3 0 -8 -5 -6 -11 5 -5 9 -19 17 -30 17
-11 0 -18 -4 -14 -9 9 -15 -29 -31 -46 -20 -12 8 -12 10 1 8 30 -3 39 1 34 15
-3 8 -16 13 -29 11 -14 -1 -22 2 -19 6 3 5 -7 9 -21 9 -14 0 -36 9 -48 21 -17
15 -18 19 -4 14 10 -4 17 -2 17 4 0 12 22 11 31 -2 3 -5 9 -2 12 7 7 17 -20
49 -34 41 -5 -4 -9 -1 -9 5 0 7 7 10 15 7 8 -4 17 -2 20 4 4 5 3 9 -2 8 -20
-3 -34 2 -28 11 4 6 10 8 15 5 4 -3 11 2 14 11 3 8 2 12 -3 9 -5 -3 -13 0 -17
6 -4 7 -3 9 4 5 6 -3 20 3 31 15 16 17 23 19 38 9 16 -10 16 -10 -4 -5 -14 4
-23 2 -23 -4 0 -10 22 -16 44 -12 5 1 13 -4 17 -11 7 -10 9 -9 9 4 0 9 6 20
13 24 6 4 9 4 5 0 -8 -10 30 -48 42 -41 4 3 11 -1 13 -7 4 -10 6 -9 6 1 1 11
4 11 19 0 15 -12 16 -12 5 2 -7 9 -9 20 -5 25 4 4 0 4 -8 -2 -22 -15 -43 -11
-46 9 -1 11 2 14 9 10 7 -4 25 -8 41 -9 16 -2 32 -8 36 -14 5 -8 11 -6 20 5 7
8 9 15 6 15 -4 0 0 7 8 16 9 8 13 20 10 26 -4 6 -2 8 4 4 5 -3 13 0 16 6 3 7
3 0 0 -17 -9 -54 -9 -58 5 -63 10 -3 12 1 8 17 -3 15 -1 21 6 18 7 -2 11 -13
9 -23 -2 -15 -1 -16 7 -4 5 8 7 18 5 22 -3 4 0 8 5 8 6 0 11 -5 11 -11 0 -5 5
-7 10 -4 6 3 10 -2 11 -12 0 -13 2 -14 6 -4 3 8 -5 23 -18 33 -15 13 -18 18
-7 14 13 -4 16 -1 12 12 -5 15 -4 15 9 -1 9 -11 16 -14 19 -7 5 16 38 1 38
-18 0 -13 3 -12 16 4 8 10 13 13 9 7 -4 -8 0 -13 10 -13 9 0 13 5 10 11 -4 6
2 13 14 16 12 3 21 10 21 15 0 5 -4 6 -10 3 -6 -3 -7 1 -4 10 5 11 10 13 19 5
9 -8 13 -4 13 15 0 29 -15 44 -46 45 -54 1 -66 2 -54 7 6 3 9 10 5 16 -4 7 5
4 21 -6 27 -18 27 -18 16 2 -6 12 -17 21 -25 21 -8 0 -15 4 -15 9 0 11 -58 35
-82 34 -10 -1 -18 1 -18 5 0 8 -11 9 -67 13 -16 1 -32 4 -38 8 -5 4 -21 8 -35
10 -34 3 -65 8 -65 11 0 1 -26 2 -57 3 -38 1 -58 6 -58 13 0 7 -3 14 -7 17 -5
2 -3 2 4 1 7 -2 19 4 28 12 13 14 15 13 16 -8 0 -16 2 -19 7 -8 4 8 13 16 21
18 12 3 12 0 2 -12 -11 -13 -11 -17 2 -22 22 -8 37 3 30 24 -3 11 1 9 11 -6
10 -12 22 -19 28 -16 7 5 5 11 -6 19 -15 11 -15 13 -1 19 9 3 14 2 11 -3 -3
-5 0 -11 8 -14 10 -4 12 4 8 40 -5 44 -4 45 19 39 l24 -6 -22 11 c-25 13 -29
24 -13 34 5 3 7 13 4 23 -5 14 -4 15 5 2 10 -13 14 -11 30 10 11 14 22 22 25
19 7 -7 -31 -49 -44 -49 -6 0 -10 -4 -10 -9 0 -5 8 -8 18 -6 9 2 23 4 30 4 7
1 11 5 8 9 -2 4 0 14 5 22 8 12 9 11 7 -5 -2 -13 2 -19 11 -17 7 1 19 -2 25
-7 9 -8 13 -6 13 4 0 8 -5 15 -11 15 -6 0 -6 4 2 8 30 20 20 47 -25 68 -25 12
-42 16 -40 10 6 -14 -30 -19 -38 -5 -3 5 1 6 9 3 9 -3 16 -2 16 4 0 5 -9 12
-20 15 -11 3 -24 6 -28 8 -33 11 -126 28 -169 31 -7 1 -13 10 -13 20 0 11 -4
16 -10 13 -5 -3 -10 -2 -10 4 0 5 5 13 10 16 6 4 8 11 4 16 -4 6 -10 6 -17 0
-8 -6 -16 -4 -24 4 -10 11 -10 15 0 18 7 3 8 6 1 6 -6 1 -19 -9 -30 -21 -10
-12 -14 -18 -7 -15 6 4 14 3 17 -2 4 -5 -3 -12 -14 -16 -11 -4 -18 -9 -16 -13
8 -14 -20 -27 -56 -26 -21 0 -38 -4 -38 -10 0 -6 -5 -3 -11 7 -6 9 -15 14 -22
10 -17 -10 -57 -13 -57 -3 0 4 -9 6 -20 3 -14 -4 -20 0 -20 11 0 19 -9 20 -35
3 -11 -7 -32 -12 -47 -11 -16 0 -28 -4 -28 -10 0 -6 -4 -5 -9 3 -6 8 -14 10
-22 5 -20 -12 -40 -14 -33 -3 3 5 -6 9 -19 9 -14 0 -27 7 -31 15 -3 8 -12 15
-20 15 -8 0 -17 4 -20 9 -4 5 3 7 14 4 27 -7 25 1 -3 20 -21 14 -23 14 -22 -2
0 -9 4 -22 9 -29 4 -7 1 -15 -8 -18 -9 -3 -13 -10 -10 -15 3 -5 2 -9 -3 -10
-7 -1 -344 -8 -490 -10 -41 -1 -61 -5 -56 -12 4 -6 1 -7 -7 -2 -19 12 -62 13
-82 3 -10 -5 -19 -4 -23 2 -5 8 -11 7 -21 -1 -8 -6 -14 -10 -15 -8 -6 32 -5
40 8 48 11 6 12 10 4 15 -6 4 -11 2 -11 -4 0 -6 -4 -8 -10 -5 -9 5 -15 -16
-11 -38 1 -5 -3 -5 -9 -2 -6 4 -9 13 -6 21 3 8 0 14 -7 14 -7 1 1 8 16 16 21
12 26 19 18 28 -6 7 -7 16 -3 20 4 4 3 7 -3 6 -23 -5 -46 1 -40 10 3 6 0 10
-8 10 -8 0 -22 -15 -30 -32z m63 -13 c0 -8 -9 -19 -20 -25 -16 -9 -18 -8 -14
5 3 8 10 12 15 9 5 -3 9 2 9 10 0 9 2 16 5 16 3 0 5 -7 5 -15z m774 -51 c5
-14 4 -15 -9 -4 -17 14 -19 20 -6 20 5 0 12 -7 15 -16z m136 -74 c0 -5 -8 -10
-17 -10 -15 0 -16 2 -3 10 19 12 20 12 20 0z m-210 -15 c0 -8 -4 -15 -10 -15
-5 0 -7 7 -4 15 4 8 8 15 10 15 2 0 4 -7 4 -15z m320 -11 c0 -8 -19 -13 -24
-6 -3 5 1 9 9 9 8 0 15 -2 15 -3z m487 -59 c0 -8 -4 -12 -9 -9 -4 3 -8 9 -8
15 0 5 4 9 8 9 5 0 9 -7 9 -15z m3 -49 c0 -11 -19 -15 -25 -6 -3 5 1 10 9 10
9 0 16 -2 16 -4z m-3600 -31 c0 -2 -6 -5 -13 -8 -8 -3 -14 1 -14 8 0 7 6 11
14 8 7 -3 13 -6 13 -8z m67 -7 c0 -13 -1 -17 -4 -10 -4 10 -8 10 -21 0 -12 -9
-11 -6 2 10 11 12 20 22 20 22 1 0 2 -10 3 -22z m-117 2 c-13 -9 -13 -11 0
-19 8 -5 19 -7 25 -4 5 4 7 2 2 -2 -14 -16 -47 -12 -47 5 0 19 9 30 24 30 6 0
4 -5 -4 -10z m2370 -16 c0 -8 -19 -13 -24 -6 -3 5 1 9 9 9 8 0 15 -2 15 -3z
m956 -31 c-14 -7 -26 -18 -26 -23 0 -6 -4 -10 -8 -10 -4 0 -8 11 -8 25 0 17 3
21 12 14 7 -6 15 -4 24 6 7 8 17 12 23 8 5 -3 -2 -12 -17 -20z m-502 -1 c2 -4
-5 -9 -17 -9 -17 -2 -19 0 -7 7 18 12 18 12 24 2z m446 -24 c0 -4 -9 -8 -20
-8 -11 0 -20 4 -20 8 0 4 9 8 20 8 11 0 20 -4 20 -8z m80 2 c0 -5 -10 -10 -22
-10 -19 0 -20 2 -8 10 19 13 30 13 30 0z m-3396 -61 c-3 -5 -10 -7 -15 -3 -5
3 -7 10 -3 15 3 5 10 7 15 3 5 -3 7 -10 3 -15z m26 -17 c0 -5 -7 -9 -15 -9 -8
0 -12 4 -9 9 3 4 9 8 15 8 5 0 9 -4 9 -8z m3314 -34 c-3 -4 0 -9 5 -9 6 -1 16
-3 21 -4 6 -1 15 -3 20 -4 6 0 10 -6 10 -12 0 -5 -3 -8 -7 -6 -5 3 -8 -6 -8
-19 0 -13 5 -24 10 -24 6 0 3 -4 -5 -9 -8 -6 -18 -7 -22 -5 -4 3 -8 -1 -8 -8
0 -9 -3 -9 -10 2 -5 8 -10 10 -10 5 0 -6 -9 -11 -20 -11 -21 0 -28 15 -7 17 9
0 9 2 -1 6 -10 4 -10 8 0 20 10 12 9 14 -4 11 -9 -1 -17 1 -17 7 -1 5 9 10 21
10 26 0 35 20 12 29 -12 5 -15 2 -10 -11 6 -14 5 -15 -5 -6 -10 10 -9 17 6 33
14 15 21 17 26 8 4 -7 5 -16 3 -20z m191 7 c-1 -14 2 -25 6 -25 8 0 13 23 10
43 -1 5 3 6 9 2 6 -3 8 -10 5 -15 -3 -4 1 -10 9 -13 10 -4 12 1 9 16 -4 21 -4
21 11 3 18 -22 5 -49 -19 -40 -7 3 -16 0 -20 -5 -3 -6 -11 -9 -16 -6 -5 3 -6
-1 -2 -11 5 -15 7 -15 15 0 5 9 14 16 19 16 6 0 7 -6 3 -12 -4 -7 2 -5 13 5
21 18 22 18 32 0 10 -15 11 -13 7 15 -2 18 0 30 5 26 5 -3 9 -16 9 -30 0 -26
1 -27 24 -18 9 3 13 10 10 15 -3 5 3 6 12 2 13 -5 16 -2 12 9 -4 9 0 15 8 15
10 0 12 -7 8 -21 -5 -17 -4 -19 7 -8 17 16 34 16 20 -1 -8 -10 -7 -14 2 -14
14 0 32 17 34 32 2 14 23 19 23 5 0 -6 -4 -8 -10 -5 -6 3 -7 -1 -4 -10 6 -13
9 -12 23 7 9 13 15 27 13 31 -1 5 2 6 8 2 7 -4 5 -14 -5 -28 -20 -29 -19 -36
7 -29 13 3 19 1 15 -5 -4 -6 -20 -10 -36 -9 -17 1 -28 -1 -25 -5 2 -5 -14 -7
-36 -5 -22 2 -40 0 -40 -4 0 -4 -15 -6 -32 -5 -18 1 -36 -3 -40 -9 -6 -8 -8
-7 -8 1 0 9 -7 10 -22 4 -13 -4 -29 -6 -36 -4 -7 3 -19 0 -26 -7 -17 -14 -27
-1 -21 29 2 12 -1 21 -8 21 -7 0 -6 4 3 10 13 8 13 10 -2 10 -9 0 -19 4 -22 9
-4 5 4 7 16 3 16 -4 20 -2 15 10 -3 9 -3 19 0 22 10 10 11 7 8 -19z m200 15
c3 -5 1 -10 -4 -10 -6 0 -11 5 -11 10 0 6 2 10 4 10 3 0 8 -4 11 -10z m160
-11 c-4 -5 -3 -9 2 -9 4 0 8 -13 9 -29 1 -23 -4 -30 -21 -33 -13 -3 -22 0 -22
8 0 7 4 11 8 9 9 -6 20 21 12 29 -3 3 -15 1 -27 -5 -19 -9 -19 -8 2 7 12 9 22
23 22 31 0 8 5 11 10 8 6 -4 8 -11 5 -16z m-3815 1 c0 -5 -5 -10 -11 -10 -5 0
-7 5 -4 10 3 6 8 10 11 10 2 0 4 -4 4 -10z m2806 -43 c1 -18 0 -26 -3 -19 -3
6 -9 10 -14 7 -5 -4 -6 1 -3 10 5 11 2 14 -10 9 -9 -3 -16 -1 -16 5 0 6 3 10
8 10 21 -4 32 2 26 14 -4 6 -3 8 1 4 5 -4 10 -22 11 -40z m144 29 c0 -2 -7 -7
-16 -10 -8 -3 -12 -2 -9 4 6 10 25 14 25 6z m54 -23 c5 -13 9 -13 24 -2 15 13
16 12 3 -3 -7 -10 -17 -15 -22 -12 -17 10 -9 -9 9 -22 16 -12 16 -12 -3 -11
-11 1 -24 7 -28 12 -5 6 -7 -1 -4 -16 2 -14 -1 -26 -7 -27 -6 0 -20 -3 -32 -5
-13 -4 -21 0 -21 9 0 8 5 14 11 14 6 0 4 5 -4 10 -12 8 -11 10 7 10 12 0 24 4
27 8 3 4 -8 7 -24 6 -20 -1 -27 2 -24 11 8 20 36 28 46 13 5 -9 8 -6 8 9 0 25
24 22 34 -4z m-144 -7 c0 -3 -4 -8 -10 -11 -5 -3 -10 -1 -10 4 0 6 5 11 10 11
6 0 10 -2 10 -4z m275 -25 c-6 -5 -25 10 -25 20 0 5 6 4 14 -3 8 -7 12 -15 11
-17z m-1195 15 c0 -2 -7 -7 -16 -10 -8 -3 -12 -2 -9 4 6 10 25 14 25 6z m1420
0 c0 -3 -4 -8 -10 -11 -5 -3 -10 -1 -10 4 0 6 5 11 10 11 6 0 10 -2 10 -4z
m-3525 -46 c-1 -19 -55 -59 -55 -41 0 11 26 32 32 26 2 -3 5 2 5 10 0 8 -5 15
-11 15 -6 0 -4 4 4 9 19 13 27 6 25 -19z m2896 7 c-10 -9 -11 -8 -5 6 3 10 9
15 12 12 3 -3 0 -11 -7 -18z m84 11 c4 4 2 -3 -4 -15 -9 -18 -9 -23 1 -23 20
-1 -24 -24 -51 -28 -20 -3 -22 -1 -13 11 7 8 8 18 4 23 -4 5 3 1 15 -9 14 -12
23 -15 28 -8 3 6 0 11 -7 11 -10 0 -10 2 1 9 18 12 5 32 -17 25 -14 -5 -14 -4
-2 4 9 7 19 7 26 2 6 -6 14 -6 19 -2z m359 -4 c3 -8 2 -12 -4 -9 -6 3 -10 10
-10 16 0 14 7 11 14 -7z m-1918 -6 c-3 -21 -16 -38 -29 -38 -7 0 -6 4 3 10 8
5 16 14 16 20 2 16 4 20 8 20 2 0 3 -6 2 -12z m1875 5 c-11 -5 -11 -7 0 -14
11 -7 10 -9 -3 -9 -10 0 -18 5 -18 11 0 5 -5 7 -12 3 -6 -4 -8 -3 -5 2 3 5 16
10 29 11 13 0 17 -1 9 -4z m-416 -23 c3 -6 -1 -7 -9 -4 -18 7 -21 14 -7 14 6
0 13 -4 16 -10z m305 6 c0 -3 -4 -8 -10 -11 -5 -3 -10 -1 -10 4 0 6 5 11 10
11 6 0 10 -2 10 -4z m-1045 -24 c-3 -3 -11 0 -18 7 -9 10 -8 11 6 5 10 -3 15
-9 12 -12z m405 14 c0 -2 -9 -6 -20 -9 -11 -3 -18 -1 -14 4 5 9 34 13 34 5z
m346 -24 c-17 -16 -18 -16 -5 5 7 12 15 20 18 17 3 -2 -3 -12 -13 -22z m1049
18 c3 -5 1 -10 -4 -10 -6 0 -11 5 -11 10 0 6 2 10 4 10 3 0 8 -4 11 -10z
m-2475 -5 c0 -2 -6 -8 -13 -14 -10 -8 -14 -7 -14 2 0 8 6 14 14 14 7 0 13 -1
13 -2z m1263 -4 c13 8 17 8 13 1 -3 -6 -2 -13 4 -17 12 -7 4 -25 -12 -25 -5 0
-8 7 -5 14 4 10 1 13 -7 10 -7 -3 -19 3 -26 13 -12 15 -12 16 0 6 9 -9 19 -9
33 -2z m1331 0 c-9 -9 -34 -9 -40 0 -3 5 6 8 20 7 14 -1 23 -4 20 -7z m-4398
-13 c4 -7 3 -8 -4 -4 -10 6 -16 -4 -14 -25 1 -3 -5 -6 -13 -6 -8 0 -12 4 -9 8
2 4 1 9 -3 12 -5 2 -3 2 4 1 6 -2 14 4 17 12 7 17 12 18 22 2z m2004 2 c0 -5
-5 -10 -11 -10 -5 0 -7 5 -4 10 3 6 8 10 11 10 2 0 4 -4 4 -10z m1120 4 c0 -8
-19 -13 -24 -6 -3 5 1 9 9 9 8 0 15 -2 15 -3z m55 -3 c3 -5 2 -12 -3 -15 -5
-3 -9 1 -9 9 0 17 3 19 12 6z m956 -18 c-12 -20 -14 -14 -5 12 4 9 9 14 11 11
3 -2 0 -13 -6 -23z m-94 2 c0 -8 -4 -12 -9 -9 -5 3 -6 10 -3 15 9 13 12 11 12
-6z m-1022 -13 c-3 -3 -11 0 -18 7 -9 10 -8 11 6 5 10 -3 15 -9 12 -12z m1186
5 c-6 -8 -8 -17 -4 -20 3 -4 1 -7 -5 -7 -13 0 -16 22 -5 33 12 13 25 7 14 -6z
m-436 -7 c4 -6 12 -7 18 -4 7 4 9 4 5 -1 -4 -4 -1 -14 7 -21 10 -10 12 -31 9
-76 -3 -35 -6 -69 -6 -77 -1 -12 -3 -11 -12 0 -6 8 -24 23 -40 33 -25 16 -28
16 -23 2 4 -10 1 -16 -9 -16 -12 0 -12 4 -4 20 6 10 17 17 24 14 8 -3 17 -1
21 5 4 7 0 8 -11 4 -13 -5 -15 -3 -9 7 6 10 4 12 -8 7 -9 -3 -19 -1 -23 6 -4
7 -4 9 1 5 5 -5 13 2 20 15 12 23 16 24 50 11 16 -6 15 -3 -5 14 -14 12 -20
22 -15 21 25 -3 26 2 5 21 -13 11 -18 20 -12 20 6 0 14 -5 17 -10z m-455 -26
c0 -8 -19 -13 -24 -6 -3 5 1 9 9 9 8 0 15 -2 15 -3z m190 -31 c0 -20 5 -33 13
-33 9 0 8 -3 -2 -9 -9 -6 -10 -11 -3 -15 22 -14 1 -31 -36 -29 -20 1 -39 2
-42 3 -3 2 -9 2 -13 1 -5 -1 -6 3 -3 8 4 5 2 11 -3 13 -5 1 -3 12 6 23 15 20
15 20 9 -1 -4 -14 -2 -24 7 -27 10 -4 14 2 13 16 0 12 4 21 9 20 6 -1 10 11 9
25 -2 33 1 39 21 39 10 0 15 -10 15 -34z m-3215 7 c-3 -5 -10 -10 -16 -10 -5
0 -9 5 -9 10 0 6 7 10 16 10 8 0 12 -4 9 -10z m3349 -6 c3 -8 2 -12 -4 -9 -6
3 -10 10 -10 16 0 14 7 11 14 -7z m-3174 -6 c0 -14 -15 -16 -27 -3 -10 11 -9
13 7 12 11 -1 20 -5 20 -9z m2825 2 c3 -6 -1 -7 -9 -4 -18 7 -21 14 -7 14 6 0
13 -4 16 -10z m-2964 -22 c1 -13 1 -26 1 -29 -1 -3 -2 -26 -3 -50 -2 -44 -3
-45 -35 -44 -37 0 -54 12 -32 20 10 4 14 14 11 26 -3 10 0 20 6 20 6 1 16 3
21 4 6 1 13 3 18 4 4 1 0 6 -8 11 -12 8 -12 10 5 10 16 0 17 2 5 9 -8 6 -18 7
-22 5 -4 -3 -8 0 -8 6 0 6 -5 8 -12 4 -6 -4 -8 -3 -5 4 4 5 17 8 29 4 14 -3
19 -2 14 6 -4 7 -2 12 3 12 6 0 12 -10 12 -22z m2998 -10 c-13 -11 -19 -17
-12 -14 20 11 23 -9 2 -22 -16 -10 -20 -10 -25 2 -3 8 -13 12 -24 9 -24 -6
-34 11 -15 27 10 9 15 9 15 1 0 -6 -5 -11 -12 -11 -6 0 -8 -3 -4 -7 4 -5 14 0
21 11 8 10 25 19 39 19 15 0 23 4 19 10 -4 6 -1 7 7 2 10 -6 7 -13 -11 -27z
m-3122 -27 c-1 -16 -6 -27 -10 -24 -14 8 -3 -31 11 -42 10 -8 9 -11 -7 -11
-11 0 -17 4 -15 8 3 4 -1 8 -8 8 -8 0 -9 3 -3 8 6 4 11 18 13 32 5 52 23 71
19 21z m3493 25 c0 -2 -7 -7 -16 -10 -8 -3 -12 -2 -9 4 6 10 25 14 25 6z
m-3245 -38 c-1 -13 -6 -24 -11 -25 -5 -1 -9 6 -8 17 0 10 -3 17 -7 14 -4 -2
-11 1 -15 7 -4 7 -3 9 4 5 6 -3 13 -2 17 4 10 16 21 4 20 -22z m3175 22 c-14
-9 -6 -15 15 -10 6 1 7 -1 3 -5 -3 -4 -10 -7 -15 -7 -4 0 -13 -4 -20 -9 -7 -7
-14 -6 -18 1 -4 6 -1 9 6 8 7 -2 14 3 15 10 3 21 4 22 17 22 8 0 7 -4 -3 -10z
m-3385 -18 c-3 -3 -11 0 -18 7 -9 10 -8 11 6 5 10 -3 15 -9 12 -12z m45 8 c0
-5 -4 -10 -10 -10 -5 0 -10 5 -10 10 0 6 5 10 10 10 6 0 10 -4 10 -10z m3293
-5 c-3 -9 -8 -14 -10 -11 -3 3 -2 9 2 15 9 16 15 13 8 -4z m124 -7 c-3 -8 -6
-5 -6 6 -1 11 2 17 5 13 3 -3 4 -12 1 -19z m258 12 c3 -6 -1 -7 -9 -4 -18 7
-21 14 -7 14 6 0 13 -4 16 -10z m-3875 -51 c0 -6 -5 -7 -11 -4 -7 5 -9 -3 -6
-23 4 -24 2 -29 -9 -25 -9 3 -12 13 -8 25 4 14 2 18 -5 14 -7 -5 -9 -1 -5 8 3
9 10 13 15 10 5 -3 9 0 9 6 0 6 5 8 10 5 6 -3 10 -11 10 -16z m18 -44 c-3 -3
-9 2 -12 12 -6 14 -5 15 5 6 7 -7 10 -15 7 -18z m63 8 c13 -16 12 -17 -3 -4
-10 7 -18 15 -18 17 0 8 8 3 21 -13z m3634 -1 c-3 -3 -11 0 -18 7 -9 10 -8 11
6 5 10 -3 15 -9 12 -12z m3 -31 c3 -23 3 -58 0 -73 -2 -7 4 -12 12 -10 11 3
12 1 3 -8 -8 -9 -19 -9 -47 1 -20 7 -36 17 -36 21 0 17 -4 23 -19 35 -9 7 -11
13 -5 13 13 0 32 -20 32 -35 0 -5 6 -11 14 -13 8 -2 9 -1 3 5 -6 4 -11 13 -10
20 0 16 15 30 15 14 0 -7 4 -10 9 -7 4 3 7 16 6 29 -2 13 2 24 9 24 7 0 13 -7
14 -16z m-320 -36 c3 -11 0 -15 -7 -10 -6 3 -8 11 -5 17 4 6 -1 8 -14 4 -22
-7 -37 7 -27 25 9 14 49 -13 53 -36z m22 15 c0 -11 -2 -20 -4 -20 -2 0 -6 9
-9 20 -3 11 -1 20 4 20 5 0 9 -9 9 -20z m123 -17 c-3 -7 -8 -13 -12 -13 -4 0
-8 6 -8 13 0 8 6 14 13 14 7 0 10 -6 7 -14z m-1413 -18 c5 3 8 -4 7 -15 -1
-20 -2 -20 -14 -4 -7 10 -13 23 -12 28 0 6 3 5 6 -2 2 -6 9 -10 13 -7z m-170
-19 c0 -2 -7 -7 -16 -10 -8 -3 -12 -2 -9 4 6 10 25 14 25 6z m820 -11 c0 -2
-9 -3 -19 -2 -11 0 -18 5 -15 9 4 6 34 0 34 -7z m-696 -80 c-4 -8 -8 -15 -10
-15 -2 0 -4 7 -4 15 0 8 4 15 10 15 5 0 7 -7 4 -15z m2141 5 c3 -5 2 -10 -4
-10 -5 0 -13 5 -16 10 -3 6 -2 10 4 10 5 0 13 -4 16 -10z m-4240 -58 c-3 -3
-11 0 -18 7 -9 10 -8 11 6 5 10 -3 15 -9 12 -12z m-25 -8 c0 -2 -7 -4 -15 -4
-8 0 -15 4 -15 10 0 5 7 7 15 4 8 -4 15 -8 15 -10z m33 -17 c-4 -6 0 -8 10 -4
11 4 14 2 10 -9 -4 -10 -9 -12 -18 -4 -6 5 -14 8 -17 5 -2 -3 -5 1 -5 8 0 8 6
14 13 14 7 0 10 -5 7 -10z m-203 -7 c0 -5 0 -12 0 -15 0 -14 -13 -8 -16 8 -1
9 2 17 7 17 5 0 9 -4 9 -10z m170 0 c0 -5 -5 -10 -11 -10 -5 0 -7 5 -4 10 3 6
8 10 11 10 2 0 4 -4 4 -10z m3557 -15 c0 -8 -4 -12 -9 -9 -5 3 -6 10 -3 15 9
13 12 11 12 -6z m-3186 -22 c-12 -20 -14 -14 -5 12 4 9 9 14 11 11 3 -2 0 -13
-6 -23z m-114 -5 c-3 -8 -6 -5 -6 6 -1 11 2 17 5 13 3 -3 4 -12 1 -19z m3323
-26 c-7 -3 -8 -8 -1 -16 7 -8 4 -12 -10 -13 -11 -1 -17 2 -14 7 3 4 -3 6 -14
3 -10 -3 -22 0 -25 6 -5 7 -1 8 11 4 10 -3 15 -3 12 1 -4 4 3 17 15 29 21 22
21 22 29 2 5 -12 4 -21 -3 -23z m-135 28 c-4 -6 5 -10 19 -10 14 0 26 -5 26
-11 0 -5 -6 -7 -12 -4 -7 4 -5 0 5 -8 10 -8 15 -17 10 -19 -11 -7 -54 5 -54
15 2 21 0 27 -10 27 -5 0 -7 -5 -3 -12 5 -7 3 -8 -6 -3 -10 6 -9 11 5 22 22
16 28 17 20 3z m202 4 c-3 -3 -12 -4 -19 -1 -8 3 -5 6 6 6 11 1 17 -2 13 -5z
m37 -37 c-3 -9 -10 -14 -16 -11 -5 4 -5 11 1 18 6 7 9 15 7 18 -1 3 1 2 6 -2
5 -3 6 -14 2 -23z m-3444 13 c0 -5 -5 -10 -11 -10 -5 0 -7 5 -4 10 3 6 8 10
11 10 2 0 4 -4 4 -10z m3160 0 c0 -5 -5 -10 -11 -10 -5 0 -7 5 -4 10 3 6 8 10
11 10 2 0 4 -4 4 -10z m-3140 -21 c0 -11 -4 -18 -10 -14 -5 3 -7 12 -3 20 7
21 13 19 13 -6z m-437 -101 c-8 -14 -19 -8 -20 12 -1 16 1 17 12 7 7 -6 11
-15 8 -19z m4292 -18 c3 -5 -1 -10 -10 -10 -9 0 -13 5 -10 10 3 6 8 10 10 10
2 0 7 -4 10 -10z m-4287 -13 c-12 -10 -14 -17 -6 -31 8 -15 8 -17 -2 -11 -9 5
-11 4 -6 -3 4 -7 15 -12 24 -12 9 0 24 -5 32 -10 12 -8 13 -11 2 -22 -11 -11
-13 -10 -10 1 2 8 -6 14 -19 16 -18 1 -20 -1 -11 -12 9 -11 9 -16 -2 -23 -7
-4 -10 -15 -7 -25 4 -9 11 -14 15 -11 5 3 9 -1 9 -9 0 -15 -18 -16 -29 0 -5 6
-8 4 -8 -4 0 -11 -4 -9 -14 4 -8 11 -12 24 -9 29 4 5 1 6 -6 2 -8 -6 -9 -12
-2 -20 8 -9 7 -13 -4 -13 -7 0 -14 3 -13 6 2 26 -4 29 -21 14 -11 -9 -18 -20
-15 -25 11 -18 -14 -7 -32 14 -16 19 -16 20 -1 9 23 -18 33 -8 12 12 -19 19
-19 24 -1 24 8 0 15 -3 14 -6 0 -3 0 -13 1 -21 1 -12 5 -11 16 4 8 10 12 23 9
27 -3 5 3 6 13 2 14 -5 15 -3 7 7 -9 9 -7 17 7 31 10 10 24 19 29 19 14 0 13
13 -2 29 -7 8 -8 11 -3 8 6 -3 17 -2 25 4 22 13 28 10 8 -4z m-81 -19 c-3 -8
-6 -5 -6 6 -1 11 2 17 5 13 3 -3 4 -12 1 -19z m4418 -8 c-2 -16 0 -30 4 -30 4
0 15 -6 26 -13 17 -13 16 -14 -5 -12 -13 1 -26 7 -28 14 -3 9 -9 7 -23 -5 -11
-10 -19 -12 -19 -6 0 7 -5 12 -10 12 -7 0 -7 -7 0 -20 6 -11 15 -18 20 -15 6
3 7 -1 4 -10 -6 -13 -10 -11 -25 12 -20 31 -16 40 21 45 14 1 25 10 26 18 2
30 4 40 9 40 2 0 2 -13 0 -30z m-4174 -7 c13 -16 12 -17 -3 -4 -10 7 -18 15
-18 17 0 8 8 3 21 -13z m3569 -15 c0 -5 -5 -8 -11 -8 -5 0 -7 5 -4 10 3 6 1
10 -5 10 -6 0 -8 5 -4 11 6 11 23 -6 24 -23z m571 9 c-10 -9 -11 -8 -5 6 3 10
9 15 12 12 3 -3 0 -11 -7 -18z m124 14 c3 -5 2 -12 -3 -15 -5 -3 -9 1 -9 9 0
17 3 19 12 6z m-290 -11 c-3 -5 -14 -10 -23 -9 -14 0 -13 2 3 9 27 11 27 11
20 0z m-3709 -20 c-10 -3 -17 -9 -16 -13 0 -4 -4 -15 -9 -25 -7 -11 -11 -12
-11 -4 0 7 -4 11 -8 8 -5 -3 -9 1 -9 9 0 8 9 17 19 21 10 3 18 9 18 14 0 5 8
6 17 3 15 -6 15 -7 -1 -13z m3269 10 c3 -5 -1 -10 -10 -10 -9 0 -13 5 -10 10
3 6 8 10 10 10 2 0 7 -4 10 -10z m526 1 c0 10 2 11 6 1 2 -6 10 -9 16 -5 7 3
9 3 5 -2 -4 -4 -3 -17 3 -28 8 -14 8 -18 0 -12 -7 4 -19 1 -28 -7 -14 -11 -16
-11 -8 1 6 11 4 13 -8 8 -9 -3 -19 -2 -22 3 -3 5 -12 7 -20 3 -10 -3 -15 1
-15 15 0 15 5 19 20 15 12 -3 20 0 20 7 0 10 3 10 15 0 12 -10 15 -10 16 1z
m174 -1 c-3 -5 2 -10 12 -10 14 0 15 -2 4 -9 -9 -6 -19 -5 -26 2 -10 9 -10 14
-1 19 15 10 18 10 11 -2z m-4191 -9 c3 -5 -1 -11 -9 -15 -8 -3 -17 0 -21 6 -4
7 -3 8 4 4 7 -4 12 -2 12 3 0 13 7 14 14 2z m3880 -12 c-3 -5 0 -9 5 -9 6 0
11 4 11 8 0 4 8 8 18 9 10 1 19 -4 19 -10 0 -7 -15 -13 -33 -14 -24 -1 -33 3
-37 17 -3 13 0 17 9 13 8 -3 11 -9 8 -14z m391 11 c3 -6 -1 -7 -9 -4 -18 7
-21 14 -7 14 6 0 13 -4 16 -10z m-4310 -20 c3 -5 1 -10 -4 -10 -6 0 -11 5 -11
10 0 6 2 10 4 10 3 0 8 -4 11 -10z m-95 -24 c0 -3 -4 -8 -10 -11 -5 -3 -10 -1
-10 4 0 6 5 11 10 11 6 0 10 -2 10 -4z m4220 -47 c0 -5 -4 -9 -10 -9 -5 0 -10
7 -10 16 0 8 5 12 10 9 6 -3 10 -10 10 -16z m-4240 7 c0 -3 -4 -8 -10 -11 -5
-3 -10 -1 -10 4 0 6 5 11 10 11 6 0 10 -2 10 -4z m4031 -19 c-10 -9 -11 -8 -5
6 3 10 9 15 12 12 3 -3 0 -11 -7 -18z m51 8 c2 3 5 -2 5 -10 0 -19 0 -19 -23
7 -12 14 -13 18 -3 10 9 -6 18 -10 21 -7z m328 -15 c-13 -24 -27 -33 -34 -21
-3 5 1 11 9 15 8 3 15 13 15 21 0 9 5 13 10 10 7 -4 7 -12 0 -25z m-237 -13
c7 3 8 2 4 -2 -14 -16 -36 -14 -29 3 4 10 7 12 10 4 2 -7 9 -9 15 -5z m-333
-38 c0 -17 -3 -19 -13 -10 -8 6 -18 7 -22 3 -5 -4 -5 -1 -1 6 4 7 12 10 17 7
5 -4 9 -1 9 4 0 6 2 11 5 11 3 0 5 -10 5 -21z m177 -13 c-3 -8 -1 -17 6 -20 7
-2 7 -5 1 -5 -5 -1 -19 6 -30 14 -16 13 -16 14 -1 9 9 -3 17 -1 17 5 0 6 3 11
6 11 3 0 4 -6 1 -14z m-3661 -85 c-3 -5 1 -14 9 -21 12 -10 13 -16 4 -26 -9
-11 -8 -14 0 -14 7 0 9 -4 6 -10 -3 -5 -10 -10 -15 -10 -14 0 -21 32 -10 45 8
9 8 15 0 20 -10 6 -5 25 6 25 3 0 3 -4 0 -9z m124 5 c0 -2 -8 -10 -17 -17 -16
-13 -17 -12 -4 4 13 16 21 21 21 13z m-18 -66 c-2 -7 5 -10 20 -6 13 3 17 3
10 0 -10 -5 -9 -9 5 -20 14 -11 15 -13 2 -8 -10 3 -19 -1 -22 -10 -4 -10 -1
-16 8 -16 10 0 14 -9 13 -25 -2 -23 -3 -23 -21 -7 -13 12 -17 25 -13 45 5 26
4 28 -9 17 -14 -11 -14 -10 -6 13 7 17 7 27 0 31 -5 2 -4 3 3 2 7 -2 12 -9 10
-16z m3859 -7 c13 -16 12 -17 -3 -4 -17 13 -22 21 -14 21 2 0 10 -8 17 -17z
m-3984 -38 c-3 -7 1 -21 9 -32 14 -17 14 -16 4 5 -8 16 -8 22 0 22 6 0 9 4 6
9 -3 5 1 11 9 15 8 3 17 1 20 -4 4 -6 2 -10 -4 -10 -6 0 -7 -7 -4 -17 5 -12 3
-14 -8 -8 -12 7 -12 6 -1 -7 7 -8 11 -25 9 -36 -4 -25 -17 -42 -17 -22 0 9 -4
9 -13 2 -8 -7 -18 -6 -31 4 -11 8 -15 14 -10 14 6 0 14 -3 20 -7 5 -5 1 0 -9
10 -11 10 -14 17 -7 17 7 0 10 7 7 15 -4 8 -1 17 4 21 7 4 7 10 1 16 -6 6 -8
17 -5 25 5 13 7 13 15 -2 5 -9 7 -22 5 -30z m223 11 c0 -3 -4 -8 -10 -11 -5
-3 -10 -1 -10 4 0 6 5 11 10 11 6 0 10 -2 10 -4z m79 -17 c-12 -24 -26 -32
-34 -19 -8 14 10 37 29 37 11 0 13 -5 5 -18z m2438 6 c0 -8 -4 -15 -9 -15 -10
0 -11 14 -1 23 9 10 10 9 10 -8z m87 0 c-4 -8 -11 -15 -16 -15 -6 0 -4 -8 3
-17 13 -17 12 -17 -6 -2 -11 10 -29 19 -40 23 -12 3 -9 4 7 2 16 -2 33 3 39
10 15 18 20 18 13 -1z m1139 -12 c-4 -11 -3 -14 5 -9 8 5 12 -1 11 -16 0 -13
-3 -17 -6 -10 -2 6 -8 10 -12 7 -7 -3 -8 31 -2 43 5 10 9 -2 4 -15z m-1104 -7
c9 -11 8 -15 -4 -20 -10 -4 -14 -2 -9 5 4 6 0 15 -7 20 -8 5 -9 9 -3 9 6 0 17
-6 23 -14z m-141 -21 c-3 -3 -9 2 -12 12 -6 14 -5 15 5 6 7 -7 10 -15 7 -18z
m1357 -3 c2 -12 -1 -25 -7 -28 -7 -4 -8 -2 -4 4 4 7 1 12 -6 13 -9 0 -10 2 -1
5 7 3 9 13 6 22 -3 9 -3 14 1 11 4 -4 8 -16 11 -27z m55 13 c7 -9 8 -15 2 -15
-5 0 -12 7 -16 15 -3 8 -4 15 -2 15 2 0 9 -7 16 -15z m-22 -20 c-3 -3 -9 2
-12 12 -6 14 -5 15 5 6 7 -7 10 -15 7 -18z m-3022 -7 c4 -7 3 -8 -4 -4 -7 4
-12 2 -12 -5 0 -7 -3 -10 -6 -6 -6 5 3 27 11 27 2 0 7 -5 11 -12z m-1501 -26
c-3 -3 -11 0 -18 7 -9 10 -8 11 6 5 10 -3 15 -9 12 -12z m3608 -5 c3 -7 -3
-13 -14 -14 -15 -1 -16 1 -6 12 15 18 14 18 20 2z m507 -1 c0 -2 -8 -10 -17
-17 -16 -13 -17 -12 -4 4 13 16 21 21 21 13z m452 -19 c-7 -8 -9 -17 -5 -21 4
-4 13 4 20 16 7 13 12 18 13 12 0 -19 -29 -50 -37 -39 -9 12 -28 13 -39 3 -4
-5 -12 -8 -18 -8 -6 0 -5 4 3 9 13 8 13 12 0 28 -13 17 -13 17 13 0 27 -17 28
-17 40 2 7 11 14 18 17 16 2 -3 -1 -11 -7 -18z m-4547 3 c3 -6 -1 -7 -9 -4
-18 7 -21 14 -7 14 6 0 13 -4 16 -10z m1187 3 c-6 -2 -9 -10 -6 -15 4 -7 2 -8
-5 -4 -13 9 -5 26 12 25 9 0 8 -2 -1 -6z m888 3 c0 -3 -4 -8 -10 -11 -5 -3
-10 -1 -10 4 0 6 5 11 10 11 6 0 10 -2 10 -4z m2355 -5 c-9 -8 -36 -10 -30 -2
2 4 11 8 20 8 8 0 13 -3 10 -6z m-3717 -32 c-3 -8 -7 -3 -11 10 -4 17 -3 21 5
13 5 -5 8 -16 6 -23z m3019 25 c-3 -3 -12 -4 -19 -1 -8 3 -5 6 6 6 11 1 17 -2
13 -5z m397 -10 c3 -8 2 -12 -4 -9 -6 3 -10 10 -10 16 0 14 7 11 14 -7z m-544
0 c0 -8 -19 -13 -24 -6 -3 5 1 9 9 9 8 0 15 -2 15 -3z m-3050 -24 c0 -5 -4
-10 -10 -10 -5 0 -10 5 -10 10 0 6 5 10 10 10 6 0 10 -4 10 -10z m180 -21 c0
-5 -7 -9 -15 -9 -8 0 -15 7 -15 15 0 9 6 12 15 9 8 -4 15 -10 15 -15z m104 -1
c-3 -4 -9 -8 -15 -8 -5 0 -9 4 -9 8 0 5 7 9 15 9 8 0 12 -4 9 -9z m3066 -80
c0 -4 -7 -8 -15 -8 -8 0 -15 4 -15 8 0 5 7 9 15 9 8 0 15 -4 15 -9z m-630 -52
c-7 -7 -13 -7 -20 0 -6 6 -3 10 10 10 13 0 16 -4 10 -10z m-184 -24 c1 -7 0
-8 -3 -2 -2 5 -9 10 -14 10 -6 0 -7 -5 -3 -12 4 -7 3 -8 -5 -4 -14 9 -4 29 12
23 6 -2 12 -9 13 -15z m84 -13 c-7 -11 -14 -18 -17 -15 -3 3 0 12 7 21 18 21
23 19 10 -6z m-871 -12 c0 -9 -2 -8 -6 1 -2 6 -10 9 -15 6 -7 -4 -8 -2 -4 5 9
13 26 5 25 -12z m945 12 c-4 -8 0 -9 15 -4 12 4 21 2 21 -4 0 -13 -37 -15 -44
-2 -3 4 -3 11 1 15 10 10 15 7 7 -5z m-1687 -21 c0 -13 -1 -17 -4 -10 -3 6
-10 9 -16 5 -7 -4 -6 1 2 10 17 21 17 21 18 -5z m-726 -5 c13 -16 12 -17 -3
-4 -10 7 -18 15 -18 17 0 8 8 3 21 -13z m-750 -36 c5 -19 4 -27 -6 -27 -7 0
-15 -6 -18 -12 -3 -10 -8 -10 -18 1 -9 9 -9 11 -1 7 11 -6 14 0 11 20 0 4 5
11 13 15 10 7 10 9 1 9 -7 0 -13 5 -13 11 0 21 24 2 31 -24z m4352 20 c7 4 6
0 -1 -10 -8 -9 -11 -20 -8 -26 9 -14 -23 -7 -37 9 -10 12 -9 12 6 0 16 -12 18
-12 17 1 -4 24 1 46 7 31 2 -6 10 -9 16 -5z m-190 -17 c-3 -11 -10 -17 -16
-13 -6 3 -7 1 -3 -5 10 -16 26 -15 26 2 0 8 7 17 16 20 13 5 14 4 6 -7 -7 -8
-9 -17 -5 -20 3 -4 1 -13 -6 -21 -9 -11 -9 -15 1 -19 8 -4 5 -8 -9 -12 -13 -4
-20 -11 -17 -16 3 -5 -2 -6 -10 -3 -9 3 -16 1 -16 -6 0 -6 -5 -8 -11 -4 -18
11 -69 13 -69 2 0 -5 -5 -6 -10 -3 -6 4 -8 11 -4 16 3 6 -5 8 -20 5 -23 -4
-25 -2 -16 14 9 16 8 18 -6 13 -12 -4 -15 -3 -10 5 9 16 38 15 56 0 12 -11 12
-10 1 4 -11 15 -11 18 0 22 8 2 21 6 30 9 9 3 22 0 28 -6 6 -6 11 -7 11 -1 0
5 5 2 11 -6 9 -13 10 -13 6 0 -2 8 -10 14 -16 12 -7 -1 -10 2 -6 8 3 6 11 8
16 5 5 -4 9 -1 9 5 0 6 5 8 10 5 6 -3 10 -1 10 4 0 6 4 11 9 11 5 0 7 -9 4
-20z m234 4 c-3 -3 -12 -4 -19 -1 -8 3 -5 6 6 6 11 1 17 -2 13 -5z m-123 -24
c-13 -11 -18 -12 -21 -2 -3 6 -9 10 -14 6 -5 -3 -9 -1 -9 4 0 5 13 9 30 8 27
-1 28 -2 14 -16z m-54 -9 c0 -5 -6 -12 -12 -14 -8 -3 -6 -6 5 -6 9 -1 17 2 17
7 0 4 18 7 40 7 22 1 40 -3 40 -8 0 -4 5 -5 10 -2 9 6 14 -8 11 -28 -1 -5 3
-6 8 -3 5 4 11 3 14 -1 2 -5 3 -3 1 3 -1 6 3 18 9 25 10 11 9 11 -5 0 -11 -8
-18 -9 -18 -3 0 18 24 20 44 3 18 -15 18 -15 7 7 -8 15 -8 22 -1 22 15 0 30
-44 18 -49 -6 -2 -5 -7 2 -11 15 -10 40 -2 40 12 0 5 -5 6 -12 2 -7 -5 -8 -3
-4 5 6 9 13 8 26 -6 20 -21 19 -50 -1 -44 -8 2 -59 5 -114 7 -55 1 -109 6
-119 10 -15 6 -17 4 -11 -7 8 -12 6 -12 -8 0 -16 13 -14 36 3 26 5 -3 12 0 16
6 4 7 3 9 -2 6 -16 -9 -35 8 -28 26 7 18 24 23 24 8z m295 -21 c-6 -9 8 -14
28 -11 4 0 7 -3 7 -9 0 -14 -22 -12 -43 4 -14 11 -15 15 -5 19 19 8 20 8 13
-3z m-1482 -15 c8 -8 18 -11 22 -7 5 4 5 1 0 -6 -5 -10 -10 -11 -18 -3 -7 7
-15 7 -24 -1 -10 -8 -17 -8 -26 1 -7 7 -7 12 -2 11 6 -2 17 -2 25 -1 13 1 13
2 0 11 -9 6 -10 10 -3 10 6 0 18 -7 26 -15z m1522 -17 c24 11 35 7 35 -12 0
-6 -5 -4 -11 4 -9 12 -10 11 -6 -6 3 -13 -1 -21 -9 -21 -7 0 -11 4 -9 8 3 3
-6 9 -20 11 -14 3 -25 1 -25 -4 0 -5 -6 -8 -12 -5 -7 2 -13 8 -13 13 0 5 -4
14 -8 21 -4 7 5 6 24 -4 23 -12 36 -13 54 -5z m-4211 -6 c3 -5 -1 -9 -9 -9 -8
0 -12 4 -9 9 3 4 7 8 9 8 2 0 6 -4 9 -8z m-20 -47 c3 -8 1 -15 -4 -15 -6 0
-10 7 -10 15 0 8 2 15 4 15 2 0 6 -7 10 -15z m3791 -14 c-3 -5 5 -17 17 -25
12 -9 16 -16 9 -16 -7 0 -11 -6 -8 -14 4 -10 1 -13 -7 -10 -7 3 -13 -2 -13
-11 0 -8 4 -15 9 -15 4 0 8 -4 8 -8 0 -6 -47 -9 -57 -3 -2 0 -6 1 -10 2 -5 1
-16 5 -26 11 -15 7 -16 12 -6 24 9 11 8 14 -4 14 -11 0 -13 6 -9 22 5 21 5 21
13 1 4 -12 12 -24 18 -28 6 -3 8 -12 5 -18 -4 -7 -3 -9 1 -4 13 11 17 49 5 42
-10 -6 -27 22 -18 30 9 9 45 -30 41 -42 -5 -15 6 -16 26 -4 8 5 9 11 3 15 -6
3 -9 14 -7 24 5 23 4 22 11 22 3 0 3 -4 -1 -9z m-4157 -51 c-11 -17 -13 -17
-25 -2 -13 15 -13 15 -8 -5 8 -30 -3 -63 -21 -63 -9 0 -14 11 -14 31 0 27 2
30 15 19 18 -15 19 -7 5 21 -6 11 -7 19 -3 18 26 -4 43 2 37 14 -6 8 -3 8 9
-1 13 -11 14 -17 5 -32z m1368 16 c0 -14 -5 -21 -9 -17 -4 4 -5 15 -1 24 9 24
12 21 10 -7z m2938 16 c3 -5 -1 -9 -9 -9 -8 0 -12 4 -9 9 3 4 7 8 9 8 2 0 6
-4 9 -8z m121 -11 c3 -5 2 -12 -3 -15 -5 -3 -9 1 -9 9 0 17 3 19 12 6z m-4391
-16 c3 -8 1 -15 -4 -15 -6 0 -10 7 -10 15 0 8 2 15 4 15 2 0 6 -7 10 -15z
m356 -15 c0 -5 -2 -10 -4 -10 -3 0 -8 5 -11 10 -3 6 -1 10 4 10 6 0 11 -4 11
-10z m560 -5 c0 -8 -4 -15 -8 -15 -5 0 -9 7 -9 15 0 8 4 15 9 15 4 0 8 -7 8
-15z m262 -17 c-8 -8 -9 -4 -5 13 4 13 8 18 11 10 2 -7 -1 -18 -6 -23z m1113
23 c3 -5 2 -12 -3 -15 -5 -3 -9 1 -9 9 0 17 3 19 12 6z m1895 -6 c11 -13 10
-14 -4 -9 -9 3 -16 10 -16 15 0 13 6 11 20 -6z m-4180 -20 c0 -2 -8 -1 -17 2
-15 6 -16 4 -6 -8 10 -13 10 -16 -2 -16 -8 0 -12 4 -9 9 8 13 -10 10 -25 -4
-11 -11 -12 -10 -5 2 17 31 29 38 47 29 9 -6 17 -12 17 -14z m341 0 c5 4 6 -1
3 -9 -5 -12 -9 -13 -19 -3 -7 7 -10 16 -7 22 3 5 7 4 10 -3 2 -7 8 -10 13 -7z
m155 -7 c-2 -13 -9 -22 -15 -20 -16 3 -13 -6 9 -30 22 -24 26 -38 10 -38 -6 0
-9 -3 -7 -7 2 -8 -6 -13 -23 -13 -5 0 -6 8 -3 18 7 16 6 16 -11 0 -9 -10 -25
-18 -34 -18 -15 0 -15 2 -2 10 12 8 12 12 2 18 -10 7 -10 12 3 22 14 11 20 11
37 1 19 -12 19 -12 5 9 -14 20 -13 23 7 45 27 29 27 29 22 3z m125 -21 c4 -16
3 -27 -2 -27 -6 0 -8 -4 -5 -9 3 -5 0 -14 -7 -19 -10 -9 -13 -4 -15 19 -2 21
1 28 9 23 7 -4 10 -2 7 7 -3 8 -10 13 -16 12 -5 -1 -12 3 -15 11 -3 8 3 12 16
11 14 -1 23 -11 28 -28z m1154 23 c3 -6 -1 -7 -9 -4 -18 7 -21 14 -7 14 6 0
13 -4 16 -10z m-1898 -15 c0 -8 -4 -12 -9 -9 -5 3 -6 10 -3 15 9 13 12 11 12
-6z m548 5 c3 -5 1 -10 -4 -10 -6 0 -11 5 -11 10 0 6 2 10 4 10 3 0 8 -4 11
-10z m288 -7 c-3 -7 -8 -13 -12 -13 -4 0 -8 6 -8 13 0 8 6 14 13 14 7 0 10 -6
7 -14z m30 -3 c3 -11 1 -18 -4 -14 -5 3 -9 12 -9 20 0 20 7 17 13 -6z m2322
11 c3 -5 2 -12 -3 -15 -5 -3 -9 1 -9 9 0 17 3 19 12 6z m112 -14 c0 -8 -6 -14
-14 -14 -17 0 -17 14 0 20 6 3 12 6 13 6 0 1 1 -5 1 -12z m-2297 -1 c0 -2 -8
-10 -17 -17 -16 -13 -17 -12 -4 4 13 16 21 21 21 13z m290 -6 c0 -5 -5 -10
-11 -10 -5 0 -7 5 -4 10 3 6 8 10 11 10 2 0 4 -4 4 -10z m2442 -26 c-4 -20 -2
-25 8 -19 9 5 11 4 6 -4 -4 -6 -12 -9 -17 -6 -5 4 -9 -1 -9 -10 0 -9 4 -14 9
-10 5 3 12 1 15 -4 4 -5 -2 -8 -11 -7 -11 2 -18 12 -17 25 0 16 -4 20 -15 16
-10 -4 -7 2 7 15 12 12 19 26 16 32 -4 6 -3 8 3 5 6 -4 8 -19 5 -33z m578 26
c0 -5 -4 -10 -10 -10 -5 0 -10 5 -10 10 0 6 5 10 10 10 6 0 10 -4 10 -10z
m-3852 -18 c-8 -9 -14 -9 -24 -1 -18 15 -18 14 10 14 18 0 22 -3 14 -13z
m3162 13 c0 -2 -10 -9 -22 -15 -22 -11 -22 -10 -4 4 21 17 26 19 26 11z
m-3571 -23 c7 -14 6 -18 -9 -18 -13 0 -16 4 -10 12 6 6 7 14 3 17 -3 4 -3 7 0
7 3 0 11 -8 16 -18z m807 6 c4 -6 3 -8 -4 -4 -6 3 -13 2 -17 -4 -4 -6 -11 -8
-16 -4 -5 3 -7 10 -4 15 8 13 32 11 41 -3z m3346 -9 c-10 -39 -12 -60 -4 -55
5 3 9 -1 9 -9 0 -10 -9 -13 -28 -11 -16 2 -26 -1 -23 -5 3 -5 -2 -6 -10 -3
-18 7 -18 7 -10 28 3 9 12 16 18 16 7 0 12 10 11 23 -3 29 2 36 23 32 9 -1 15
-9 14 -16z m-4114 0 c-2 -3 3 -13 10 -22 10 -12 10 -17 1 -23 -7 -4 -9 -3 -5
4 3 6 -2 15 -11 21 -14 8 -15 10 -3 11 13 0 13 1 0 11 -10 7 -11 9 -2 7 8 -2
12 -6 10 -9z m175 -12 c7 3 3 -4 -7 -16 -16 -17 -17 -21 -4 -16 15 6 17 0 9
-33 -1 -2 -8 3 -16 12 -17 17 -20 36 -5 36 5 0 8 6 6 13 -1 6 -1 9 1 4 3 -4
10 -4 16 0z m202 3 c-3 -5 2 -13 10 -17 13 -8 12 -11 -10 -23 -23 -12 -28 -12
-43 4 -14 14 -14 17 -2 14 9 -2 14 3 13 12 -2 10 5 16 17 17 11 1 18 -2 15 -7z
m3157 -8 c-4 -11 -2 -13 9 -7 12 7 12 6 0 -9 -14 -17 -16 -17 -28 0 -14 19
-10 31 11 31 8 0 12 -6 8 -15z m388 8 c0 -5 -5 -10 -11 -10 -5 0 -7 5 -4 10 3
6 8 10 11 10 2 0 4 -4 4 -10z m36 -56 l0 -25 -18 23 c-22 29 -23 37 0 31 11
-3 18 -14 18 -29z m-83 11 c-3 -9 -8 -14 -10 -11 -3 3 -2 9 2 15 9 16 15 13 8
-4z m-3909 -17 c-3 -5 -9 -6 -14 -3 -5 3 -12 -4 -15 -16 -4 -11 -9 -18 -12
-16 -9 9 16 44 31 44 8 0 13 -4 10 -9z m3966 2 c0 -5 -7 -7 -15 -4 -8 4 -15 8
-15 10 0 2 7 4 15 4 8 0 15 -4 15 -10z m347 -3 c2 -3 -8 -4 -22 -4 -14 0 -25
3 -25 8 0 7 38 4 47 -4z m-4362 -47 c3 -5 1 -10 -4 -10 -6 0 -11 5 -11 10 0 6
2 10 4 10 3 0 8 -4 11 -10z m4380 1 c3 -5 2 -12 -3 -15 -5 -3 -9 1 -9 9 0 17
3 19 12 6z m-392 -70 c-3 -9 11 -15 20 -9 1 1 12 -4 24 -10 14 -8 20 -18 17
-27 -4 -8 -1 -15 5 -15 6 0 11 8 12 18 0 10 3 12 6 4 2 -6 10 -9 16 -5 7 4 5
-2 -3 -12 -10 -13 -11 -16 -2 -11 8 5 21 1 33 -10 19 -17 20 -17 13 2 -7 17
-6 17 9 5 13 -11 17 -11 17 -1 0 8 3 10 6 7 4 -4 1 -14 -7 -23 -13 -16 -12
-16 9 -5 12 6 22 16 22 22 0 6 5 7 10 4 6 -4 8 -11 5 -16 -9 -13 9 -11 22 2 9
9 16 8 28 -5 9 -9 12 -16 6 -16 -5 0 -13 5 -16 10 -5 8 -12 7 -22 -2 -9 -7
-31 -13 -51 -15 -19 -1 -39 -7 -43 -15 -7 -11 -9 -11 -9 0 0 8 -5 10 -12 5 -7
-4 -42 -8 -78 -8 -36 0 -70 -4 -77 -8 -6 -4 -14 -3 -18 2 -3 6 -12 8 -19 5 -7
-3 -48 -6 -90 -7 -56 -2 -76 1 -76 10 0 7 -1 16 -2 20 -4 11 52 14 71 4 16 -9
46 11 34 23 -4 3 2 6 12 6 14 0 15 3 5 15 -7 8 -16 12 -21 9 -5 -3 -9 -1 -9 3
0 5 9 14 20 21 17 10 21 10 27 -4 4 -10 8 -12 13 -4 9 15 73 49 85 46 6 -2 9
-9 8 -15z m-3780 -16 c-12 -32 -23 -14 -14 23 1 2 5 1 11 -3 5 -3 7 -12 3 -20z
m47 -10 c-5 -7 -7 -15 -3 -18 6 -7 -20 -11 -46 -8 -8 2 -10 -2 -5 -10 5 -8 3
-10 -6 -4 -9 5 -5 13 14 30 27 23 64 31 46 10z m327 -5 c1 -11 -2 -22 -8 -25
-7 -5 -7 18 0 43 3 8 7 -1 8 -18z m1443 16 c0 -3 -4 -8 -10 -11 -5 -3 -10 -1
-10 4 0 6 5 11 10 11 6 0 10 -2 10 -4z m100 -44 c3 -2 -9 0 -25 4 -17 4 -36
11 -42 17 -9 6 -13 6 -13 -1 0 -6 -8 -16 -18 -21 -14 -7 -19 -6 -19 4 0 7 7
11 15 7 10 -3 13 -1 8 6 -7 12 5 16 33 13 8 -2 10 2 5 11 -4 7 6 2 22 -12 16
-14 31 -26 34 -28z m314 40 c3 -5 -8 -9 -25 -9 -19 0 -25 3 -17 9 17 10 35 10
42 0z m-286 -27 c-3 -3 -9 2 -12 12 -6 14 -5 15 5 6 7 -7 10 -15 7 -18z
m-1232 -13 c-4 -3 -14 2 -24 12 -16 18 -16 18 6 6 13 -6 21 -14 18 -18z m2817
13 c-3 -9 -8 -14 -10 -11 -3 3 -2 9 2 15 9 16 15 13 8 -4z m21 -21 c3 -8 2
-12 -4 -9 -6 3 -10 10 -10 16 0 14 7 11 14 -7z m-2134 -16 c0 -6 -8 -4 -17 3
-14 12 -16 12 -11 -2 4 -9 1 -16 -7 -16 -15 0 -15 18 -1 29 12 8 36 -1 36 -14z
m-1194 -13 c0 -14 -1 -25 -2 -25 0 0 -9 9 -19 20 -18 20 -18 21 0 14 13 -5 16
-4 11 4 -4 7 -3 12 2 12 6 0 9 -11 8 -25z m154 -18 c16 -19 20 -27 10 -25 -9
2 -14 -3 -12 -12 2 -8 0 -12 -4 -8 -4 4 -12 3 -19 -2 -8 -7 -12 -5 -12 5 0 8
4 12 8 9 15 -9 15 31 0 56 -15 26 -12 23 29 -23z m3150 33 c0 -5 -5 -10 -11
-10 -5 0 -7 5 -4 10 3 6 8 10 11 10 2 0 4 -4 4 -10z m-213 -14 c12 -12 -17
-13 -33 -1 -18 14 -18 14 5 10 13 -2 26 -6 28 -9z m-3017 -18 c0 -5 -5 -6 -10
-3 -6 4 -18 1 -27 -7 -15 -12 -15 -11 -3 9 13 20 40 21 40 1z m360 12 c0 -5
-2 -10 -4 -10 -3 0 -8 5 -11 10 -3 6 -1 10 4 10 6 0 11 -4 11 -10z m2487 4
c-3 -3 -12 -4 -19 -1 -8 3 -5 6 6 6 11 1 17 -2 13 -5z m-287 -14 c0 -5 -5 -10
-11 -10 -5 0 -7 5 -4 10 3 6 8 10 11 10 2 0 4 -4 4 -10z m399 3 c-3 -20 2 -27
10 -14 8 12 14 12 33 3 l23 -12 -24 6 c-13 3 -21 2 -18 -3 3 -4 -14 -8 -39 -9
-27 0 -45 5 -48 13 -4 11 -1 11 14 3 16 -9 22 -8 26 5 6 15 25 22 23 8z
m-3119 -13 c0 -5 -2 -10 -4 -10 -3 0 -8 5 -11 10 -3 6 -1 10 4 10 6 0 11 -4
11 -10z m90 -15 c5 3 12 0 16 -6 4 -8 3 -9 -5 -5 -6 4 -14 0 -18 -10 -5 -14
-8 -13 -19 7 -18 33 -17 44 2 25 8 -9 19 -14 24 -11z m2880 10 c0 -8 -2 -15
-4 -15 -2 0 -6 7 -10 15 -3 8 -1 15 4 15 6 0 10 -7 10 -15z m50 3 c0 -10 2
-10 9 0 7 11 9 11 14 -1 7 -18 -17 -17 -35 1 -9 9 -9 12 0 12 7 0 12 -6 12
-12z m-3145 -18 c3 -5 1 -10 -4 -10 -6 0 -11 5 -11 10 0 6 2 10 4 10 3 0 8 -4
11 -10z m292 -26 c-3 -3 -15 -6 -28 -6 -13 -1 -30 -6 -36 -11 -18 -14 -16 -3
5 20 23 27 45 33 55 16 5 -8 7 -17 4 -19z m-238 14 c-1 -1 3 -13 9 -25 15 -27
0 -34 -41 -19 -18 7 -30 7 -35 1 -4 -6 -16 -11 -27 -13 -15 -2 -17 -1 -6 6 8
6 10 15 5 23 -6 12 -5 12 8 1 14 -11 20 -10 37 7 12 12 21 17 21 11 0 -5 5
-10 10 -10 6 0 9 3 9 8 -3 15 1 25 7 20 3 -4 5 -8 3 -10z m3911 8 c0 -2 -8
-10 -17 -17 -16 -13 -17 -12 -4 4 13 16 21 21 21 13z m-3855 -16 c8 13 25 13
25 0 0 -5 -3 -9 -7 -9 -19 3 -25 -2 -15 -14 8 -10 6 -13 -8 -13 -10 0 -16 4
-13 9 2 4 -1 16 -9 25 -12 15 -11 16 4 4 11 -9 18 -10 23 -2z m2311 -2 c3 -4
-1 -5 -10 -4 -8 1 -18 5 -22 8 -3 4 1 5 10 4 8 -1 18 -5 22 -8z m1593 -11 c0
-9 -2 -8 -6 1 -2 6 -10 9 -15 6 -7 -4 -8 -2 -4 5 9 13 26 5 25 -12z m-2748
-10 c-10 -9 -11 -8 -5 6 3 10 9 15 12 12 3 -3 0 -11 -7 -18z m122 4 c-4 -3
-11 -10 -15 -15 -4 -4 -6 1 -5 12 1 12 6 18 15 15 7 -3 10 -9 5 -12z m64 3
c-3 -3 -12 -4 -19 -1 -8 3 -5 6 6 6 11 1 17 -2 13 -5z m53 2 c0 -3 -4 -8 -10
-11 -5 -3 -10 -1 -10 4 0 6 5 11 10 11 6 0 10 -2 10 -4z m2480 -20 c0 -7 -9
-16 -20 -19 -13 -3 -20 0 -20 8 0 8 8 16 18 18 9 3 18 5 20 6 1 0 2 -5 2 -13z
m-3003 -18 c-3 -8 -6 -5 -6 6 -1 11 2 17 5 13 3 -3 4 -12 1 -19z m-20 -3 c0
-18 -23 -20 -33 -3 -4 6 -3 8 4 4 6 -3 13 -2 17 4 9 14 12 13 12 -5z m-48 -8
c8 -10 7 -14 -4 -14 -8 0 -16 6 -19 14 -3 7 -2 13 3 13 5 0 14 -6 20 -13z
m2767 -2 c-1 -8 -5 -17 -8 -21 -5 -4 -4 16 1 34 3 9 9 -1 7 -13z m-3643 -10
c-3 -9 -8 -14 -10 -11 -3 3 -2 9 2 15 9 16 15 13 8 -4z m642 5 c-4 -7 3 -9 19
-6 15 3 24 1 21 -5 -4 -5 -11 -7 -16 -4 -5 4 -9 4 -9 1 0 -3 10 -10 21 -17 12
-6 19 -7 15 -1 -3 5 1 12 9 16 8 3 14 2 12 -2 -1 -4 1 -8 6 -9 18 -7 26 -2 21
15 -5 14 -4 14 5 2 7 -11 6 -19 -6 -32 -9 -10 -18 -16 -21 -14 -2 3 -11 -2
-20 -10 -8 -9 -25 -14 -39 -11 -12 2 -28 -2 -34 -9 -5 -7 -22 -10 -36 -8 -20
4 -24 1 -20 -11 8 -19 3 -19 -17 0 -13 13 -16 13 -30 -1 -9 -8 -16 -11 -16 -6
0 6 -8 9 -17 7 -10 -2 -31 -4 -46 -4 -16 -1 -26 -5 -22 -10 3 -5 0 -13 -6 -17
-7 -4 -9 -3 -5 4 3 6 2 13 -4 17 -5 3 -10 2 -10 -3 0 -13 -33 -10 -42 3 -5 6
-8 6 -8 -2 0 -6 -11 -10 -25 -8 -14 1 -28 -2 -31 -7 -3 -4 -10 -5 -16 -2 -6 4
-29 8 -50 9 -22 2 -45 8 -51 15 -9 10 -9 11 2 5 10 -6 13 -4 9 6 -4 10 2 15
19 17 14 1 22 -2 18 -8 -4 -6 -11 -8 -16 -5 -5 3 -6 -1 -3 -10 5 -11 10 -13
19 -5 6 5 14 7 18 4 3 -3 4 6 3 20 -3 20 0 24 9 16 6 -5 15 -7 18 -3 4 3 13 0
22 -7 11 -9 15 -9 15 -1 0 7 8 11 18 9 11 -2 16 3 14 12 -1 10 2 9 13 -4 13
-17 19 -15 17 5 -1 3 9 5 21 5 13 -1 21 4 20 12 -2 6 2 12 7 12 6 0 10 -10 11
-22 l0 -23 9 22 c14 34 72 44 76 12 1 -5 2 -13 3 -19 0 -5 11 0 22 11 17 17
23 19 30 8 4 -8 3 -20 -4 -29 -10 -13 -10 -13 4 -3 9 7 19 10 23 6 8 -8 36 29
30 39 -3 5 0 8 5 8 6 0 10 3 10 8 -2 12 1 22 7 22 3 0 2 -5 -1 -10z m183 -15
c-2 -2 -16 -6 -31 -9 -32 -6 -27 11 7 23 18 7 36 -3 24 -14z m2783 2 c-10 -9
-11 -8 -5 6 3 10 9 15 12 12 3 -3 0 -11 -7 -18z m-3686 -7 c10 -11 16 -20 13
-20 -3 0 -13 9 -23 20 -10 11 -16 20 -13 20 3 0 13 -9 23 -20z m685 -16 c0
-18 -17 -27 -26 -13 -4 8 -3 9 4 5 16 -10 15 16 0 34 -11 12 -10 12 5 1 9 -7
17 -19 17 -27z m714 15 c-3 -5 -10 -7 -15 -3 -5 3 -7 10 -3 15 3 5 10 7 15 3
5 -3 7 -10 3 -15z m102 -4 c1 -8 -2 -15 -6 -15 -5 0 -8 9 -7 20 1 21 10 18 13
-5z m-1522 -10 c3 -8 1 -15 -3 -15 -5 0 -11 7 -15 15 -3 8 -1 15 3 15 5 0 11
-7 15 -15z m2646 5 c0 -5 -5 -10 -11 -10 -5 0 -7 5 -4 10 3 6 8 10 11 10 2 0
4 -4 4 -10z m1140 6 c0 -2 -7 -7 -16 -10 -8 -3 -12 -2 -9 4 6 10 25 14 25 6z
m115 -13 c-1 -10 1 -22 5 -28 5 -6 -1 -11 -15 -11 -13 -1 -26 4 -29 11 -2 7 3
12 12 11 11 -1 16 5 14 17 -2 9 1 17 7 17 5 0 8 -8 6 -17z m-1462 -18 c-3 -9
-8 -14 -10 -11 -3 3 -2 9 2 15 9 16 15 13 8 -4z m1408 -7 c1 -13 1 -26 0 -30
-1 -8 20 -5 37 6 7 4 16 5 19 2 9 -8 34 15 27 25 -3 5 0 9 5 9 6 0 12 -4 12
-10 4 -31 2 -38 -13 -54 -16 -16 -22 -14 -19 7 2 10 -17 9 -24 -3 -3 -5 -12
-7 -20 -3 -9 3 -23 -1 -32 -8 -14 -12 -16 -12 -8 0 6 11 4 13 -8 8 -10 -3 -17
-2 -17 2 0 5 -12 8 -26 6 -17 -2 -24 2 -20 11 3 7 2 15 -2 17 -4 2 -2 2 5 1 7
-2 15 1 18 7 4 5 10 7 15 4 4 -3 10 2 14 10 9 23 36 18 37 -7z m205 2 c0 -12
-4 -16 -9 -11 -5 5 -6 14 -3 20 10 15 12 14 12 -9z m-2535 -36 c-9 -28 -9 -29
-10 -3 -1 14 2 29 6 32 11 12 13 2 4 -29z m856 23 c0 -8 -6 -14 -14 -14 -9 0
-10 4 -2 14 6 7 12 13 14 13 1 0 2 -6 2 -13z m38 3 c3 -6 -1 -7 -9 -4 -18 7
-21 14 -7 14 6 0 13 -4 16 -10z m125 -6 c0 -2 -11 -3 -24 -2 -14 1 -23 5 -20
9 4 7 44 0 44 -7z m1562 2 c7 4 8 2 4 -5 -4 -6 -12 -9 -17 -6 -5 4 -5 -5 1
-20 8 -20 7 -24 -2 -19 -15 10 -78 12 -78 3 0 -3 -11 -4 -25 -1 -29 5 -31 11
-10 38 10 12 14 14 13 4 -2 -8 6 -15 19 -16 15 -1 20 3 16 15 -3 9 2 6 11 -6
15 -21 53 -22 40 -2 -3 5 -2 14 2 21 6 9 9 9 12 0 2 -7 9 -9 14 -6z m-2229
-11 c-3 -9 -8 -14 -10 -11 -3 3 -2 9 2 15 9 16 15 13 8 -4z m1540 0 c-3 -9 -8
-14 -10 -11 -3 3 -2 9 2 15 9 16 15 13 8 -4z m759 -10 c15 1 25 -2 23 -5 -10
-16 39 -1 53 16 12 16 14 16 9 2 -4 -10 -2 -18 2 -18 5 0 12 -7 15 -16 3 -8 2
-12 -4 -9 -6 3 -10 0 -10 -7 0 -9 -2 -10 -8 -1 -8 13 -62 13 -62 -1 0 -5 -7
-3 -15 4 -8 7 -12 16 -9 21 3 5 0 9 -5 9 -6 0 -11 -5 -11 -11 0 -5 -4 -7 -10
-4 -5 3 -10 16 -9 28 0 16 2 18 7 7 4 -8 19 -15 34 -15z m-3952 0 c5 3 10 1
10 -6 0 -7 3 -10 6 -6 4 3 13 -1 22 -9 11 -12 12 -18 3 -27 -7 -7 -12 -7 -11
-2 5 22 -1 29 -10 15 -7 -11 -10 -11 -10 -2 0 9 -5 10 -18 3 -13 -7 -19 -6
-19 2 0 7 -4 21 -9 32 -7 18 -6 18 9 7 9 -8 21 -11 27 -7z m530 5 c0 -5 -5
-10 -11 -10 -5 0 -7 5 -4 10 3 6 8 10 11 10 2 0 4 -4 4 -10z m680 0 c0 -5 -4
-10 -10 -10 -5 0 -10 5 -10 10 0 6 5 10 10 10 6 0 10 -4 10 -10z m67 -10 c-1
-12 -5 -16 -10 -11 -5 5 -6 14 -3 20 11 16 15 13 13 -9z m963 13 c0 -5 -4 -14
-9 -21 -7 -11 -9 -11 -14 1 -3 8 -3 18 0 21 9 8 23 7 23 -1z m930 -3 c0 -5 -5
-10 -11 -10 -5 0 -7 5 -4 10 3 6 8 10 11 10 2 0 4 -4 4 -10z m-1755 -18 c-3
-3 -11 0 -18 7 -9 10 -8 11 6 5 10 -3 15 -9 12 -12z m-1461 -7 c4 -11 0 -12
-17 -6 -12 5 -32 7 -44 5 -12 -2 -24 0 -27 4 -2 4 15 8 39 9 29 2 45 -2 49
-12z m1016 5 c0 -5 -5 -10 -11 -10 -5 0 -7 5 -4 10 3 6 8 10 11 10 2 0 4 -4 4
-10z m65 0 c3 -5 1 -10 -4 -10 -6 0 -11 5 -11 10 0 6 2 10 4 10 3 0 8 -4 11
-10z m90 -8 c-3 -3 -11 0 -18 7 -9 10 -8 11 6 5 10 -3 15 -9 12 -12z m985 -5
c0 -7 -9 -13 -21 -13 -18 0 -18 2 -5 12 9 6 12 15 8 19 -4 5 -1 5 6 1 6 -4 12
-13 12 -19z m255 -7 c3 -5 1 -10 -4 -10 -6 0 -11 5 -11 10 0 6 2 10 4 10 3 0
8 -4 11 -10z m-2504 -17 c13 -16 12 -17 -3 -4 -10 7 -18 15 -18 17 0 8 8 3 21
-13z m1884 8 c3 -5 2 -12 -3 -15 -5 -3 -9 1 -9 9 0 17 3 19 12 6z m502 -14 c1
-11 1 -18 0 -16 -2 2 -8 11 -15 20 -9 12 -9 16 1 16 7 0 14 -9 14 -20z m-1914
-5 c-10 -10 -20 -17 -22 -16 -6 5 20 34 30 34 5 0 1 -8 -8 -18z m1877 12 c0
-8 -19 -13 -24 -6 -3 5 1 9 9 9 8 0 15 -2 15 -3z m380 -4 c0 -5 -4 -10 -10
-10 -5 0 -10 5 -10 10 0 6 5 10 10 10 6 0 10 -4 10 -10z m423 -5 c-3 -9 -8
-14 -10 -11 -3 3 -2 9 2 15 9 16 15 13 8 -4z m547 5 c-8 -5 -19 -10 -25 -10
-5 0 -3 5 5 10 8 5 20 10 25 10 6 0 3 -5 -5 -10z m-1720 -15 c0 -12 -19 -12
-23 0 -4 9 -1 12 9 8 7 -3 14 -7 14 -8z m167 0 c0 -8 -4 -15 -9 -15 -10 0 -11
14 -1 23 9 10 10 9 10 -8z m503 -6 c0 -5 -4 -9 -8 -9 -5 0 -9 7 -9 15 0 8 4
12 9 9 4 -3 8 -9 8 -15z m195 11 c5 -8 12 -7 23 2 15 12 16 11 3 -5 -8 -9 -16
-15 -19 -12 -3 3 -12 -1 -20 -8 -13 -10 -15 -9 -9 5 3 9 1 19 -6 22 -7 2 -5 5
5 5 9 1 20 -4 23 -9z m529 -5 c-4 -8 -11 -15 -16 -15 -6 0 -5 6 2 15 7 8 14
15 16 15 2 0 1 -7 -2 -15z m-1840 -6 c3 -3 -4 -5 -14 -6 -11 -1 -20 2 -20 7 0
8 25 8 34 -1z m1389 -7 c14 -15 15 -19 2 -19 -8 0 -11 5 -8 10 4 6 0 8 -9 5
-9 -4 -15 0 -15 8 0 19 11 18 30 -4z m1027 8 c0 -5 -10 -10 -22 -9 -22 0 -22
1 -3 9 11 5 21 9 23 9 1 1 2 -3 2 -9z m-156 -16 c3 -8 2 -12 -4 -9 -6 3 -10
10 -10 16 0 14 7 11 14 -7z m-3477 -8 c-14 -11 -15 -15 -5 -19 8 -3 8 -6 2 -6
-6 -1 -18 7 -25 16 -8 10 -9 14 -2 10 6 -4 14 -3 18 3 3 5 12 10 18 10 7 0 4
-7 -6 -14z m3290 -8 c-3 -8 -6 -5 -6 6 -1 11 2 17 5 13 3 -3 4 -12 1 -19z
m-3494 -2 c4 -10 1 -13 -8 -9 -8 3 -12 9 -9 14 7 12 11 11 17 -5z m1004 -10
c-4 -10 -17 -14 -37 -13 -32 2 -39 11 -15 21 8 3 15 1 15 -4 0 -6 7 -10 15
-10 8 0 15 8 15 17 0 9 3 14 6 10 4 -3 4 -13 1 -21z m287 10 c8 3 16 -2 20
-12 5 -14 4 -15 -9 -4 -11 9 -15 9 -15 1 0 -7 -4 -9 -10 -6 -5 3 -10 14 -9 23
0 10 3 12 5 5 3 -7 11 -10 18 -7z m1306 6 c0 -5 -7 -9 -15 -9 -8 0 -12 4 -9 9
3 4 9 8 15 8 5 0 9 -4 9 -8z m-2495 -12 c-3 -5 -12 -10 -18 -10 -7 0 -6 4 3
10 19 12 23 12 15 0z m145 6 c0 -2 -7 -6 -15 -10 -8 -3 -15 -1 -15 4 0 6 7 10
15 10 8 0 15 -2 15 -4z m3540 0 c0 -3 -4 -8 -10 -11 -5 -3 -10 -1 -10 4 0 6 5
11 10 11 6 0 10 -2 10 -4z m34 -8 c-3 -4 -9 -8 -15 -8 -5 0 -9 4 -9 8 0 5 7 9
15 9 8 0 12 -4 9 -9z m-2899 -8 c-3 -5 -12 -10 -18 -10 -7 0 -6 4 3 10 19 12
23 12 15 0z"/>
<path d="M4110 3300 c0 -5 5 -10 11 -10 5 0 7 5 4 10 -3 6 -8 10 -11 10 -2 0
-4 -4 -4 -10z"/>
<path d="M4065 3270 c-3 -5 -1 -10 4 -10 6 0 11 5 11 10 0 6 -2 10 -4 10 -3 0
-8 -4 -11 -10z"/>
<path d="M3804 3295 c3 -21 16 -31 16 -12 0 9 -4 18 -9 21 -5 4 -8 -1 -7 -9z"/>
<path d="M614 3162 c3 -18 18 -20 24 -4 1 5 -4 12 -12 15 -9 4 -13 0 -12 -11z"/>
<path d="M3760 3090 c0 -5 5 -10 11 -10 5 0 7 5 4 10 -3 6 -8 10 -11 10 -2 0
-4 -4 -4 -10z"/>
<path d="M3925 2790 c-3 -5 -2 -10 4 -10 5 0 13 5 16 10 3 6 2 10 -4 10 -5 0
-13 -4 -16 -10z"/>
<path d="M150 2572 c0 -5 7 -9 15 -9 8 0 12 4 9 9 -3 4 -9 8 -15 8 -5 0 -9 -4
-9 -8z"/>
<path d="M590 2559 c0 -5 5 -7 10 -4 6 3 10 8 10 11 0 2 -4 4 -10 4 -5 0 -10
-5 -10 -11z"/>
<path d="M4390 2570 c0 -5 5 -10 10 -10 6 0 10 5 10 10 0 6 -4 10 -10 10 -5 0
-10 -4 -10 -10z"/>
<path d="M865 2210 c-3 -5 -1 -10 4 -10 6 0 11 5 11 10 0 6 -2 10 -4 10 -3 0
-8 -4 -11 -10z"/>
<path d="M4630 1750 c0 -5 5 -10 11 -10 5 0 7 5 4 10 -3 6 -8 10 -11 10 -2 0
-4 -4 -4 -10z"/>
<path d="M4501 1743 c-1 -17 16 -25 25 -12 4 7 3 9 -4 5 -5 -3 -13 0 -15 6 -4
9 -6 10 -6 1z"/>
<path d="M690 1509 c0 -5 5 -7 10 -4 6 3 10 8 10 11 0 2 -4 4 -10 4 -5 0 -10
-5 -10 -11z"/>
<path d="M4310 1501 c0 -6 4 -12 8 -15 5 -3 9 1 9 9 0 8 -4 15 -9 15 -4 0 -8
-4 -8 -9z"/>
<path d="M4298 1463 c7 -3 16 -2 19 1 4 3 -2 6 -13 5 -11 0 -14 -3 -6 -6z"/>
<path d="M4102 1331 c-11 -7 -10 -9 3 -14 9 -4 14 -3 10 2 -3 5 1 12 7 14 7 3
9 6 3 6 -5 0 -16 -3 -23 -8z"/>
<path d="M4055 1299 c-4 -6 -5 -12 -2 -15 2 -3 7 2 10 11 7 17 1 20 -8 4z"/>
<path d="M4156 1301 c-4 -5 -2 -12 3 -15 5 -4 12 -2 15 3 4 5 2 12 -3 15 -5 4
-12 2 -15 -3z"/>
<path d="M4005 1290 c3 -5 8 -10 11 -10 2 0 4 5 4 10 0 6 -5 10 -11 10 -5 0
-7 -4 -4 -10z"/>
<path d="M369 1293 c-13 -16 -12 -17 4 -4 9 7 17 15 17 17 0 8 -8 3 -21 -13z"/>
<path d="M4120 1030 c-6 -11 -8 -20 -6 -20 3 0 10 9 16 20 6 11 8 20 6 20 -3
0 -10 -9 -16 -20z"/>
<path d="M4085 1020 c-3 -5 -1 -10 4 -10 6 0 11 5 11 10 0 6 -2 10 -4 10 -3 0
-8 -4 -11 -10z"/>
<path d="M3717 4013 c-8 -17 0 -38 13 -35 10 2 11 0 2 -11 -10 -11 -9 -17 2
-27 24 -19 36 -4 24 30 -5 17 -14 27 -19 24 -5 -3 -6 2 -3 10 6 16 -11 23 -19
9z"/>
<path d="M2670 3930 c0 -6 -7 -10 -17 -10 -21 0 -14 -7 12 -12 11 -1 25 -9 31
-17 6 -8 13 -10 16 -5 2 5 -6 19 -19 31 -13 12 -23 18 -23 13z"/>
<path d="M4514 3726 c-10 -8 -17 -16 -14 -19 3 -2 14 4 24 14 23 22 18 25 -10
5z"/>
<path d="M4550 3729 c0 -5 5 -7 10 -4 6 3 10 8 10 11 0 2 -4 4 -10 4 -5 0 -10
-5 -10 -11z"/>
<path d="M277 3473 c-4 -6 -1 -14 5 -17 10 -5 10 -7 1 -12 -14 -6 -18 -34 -5
-34 19 1 32 18 26 35 -6 14 -4 16 6 10 9 -5 11 -4 6 4 -4 6 -11 9 -16 6 -4 -3
-10 0 -12 7 -3 9 -6 9 -11 1z"/>
<path d="M345 3390 c-3 -5 3 -10 15 -10 12 0 18 5 15 10 -3 6 -10 10 -15 10
-5 0 -12 -4 -15 -10z"/>
<path d="M4770 3351 c0 -5 5 -13 10 -16 6 -3 10 -2 10 4 0 5 -4 13 -10 16 -5
3 -10 2 -10 -4z"/>
<path d="M4676 3341 c-4 -5 -2 -12 3 -15 5 -4 12 -2 15 3 4 5 2 12 -3 15 -5 4
-12 2 -15 -3z"/>
<path d="M4307 3305 c3 -8 9 -12 14 -9 12 7 11 11 -5 17 -10 4 -13 1 -9 -8z"/>
<path d="M4377 3053 c5 -12 3 -14 -7 -8 -8 5 -11 4 -7 -3 6 -9 15 -9 46 -3 7
2 -21 31 -30 31 -5 0 -5 -7 -2 -17z"/>
<path d="M4590 3036 c0 -2 7 -6 15 -10 8 -3 15 -1 15 4 0 6 -7 10 -15 10 -8 0
-15 -2 -15 -4z"/>
<path d="M4477 2913 c-10 -10 -8 -33 2 -33 6 0 9 9 8 20 -1 23 -1 22 -10 13z"/>
<path d="M4435 2902 c3 -3 0 -11 -6 -19 -8 -9 -8 -13 -1 -13 6 0 16 8 21 18 8
14 6 19 -5 19 -7 0 -12 -3 -9 -5z"/>
<path d="M4306 2855 c4 -8 11 -15 16 -15 6 0 5 6 -2 15 -7 8 -14 15 -16 15 -2
0 -1 -7 2 -15z"/>
<path d="M4297 2829 c7 -7 15 -10 18 -7 3 3 -2 9 -12 12 -14 6 -15 5 -6 -5z"/>
<path d="M4470 2420 c0 -5 5 -10 11 -10 5 0 7 5 4 10 -3 6 -8 10 -11 10 -2 0
-4 -4 -4 -10z"/>
<path d="M195 2340 c4 -6 11 -8 16 -5 14 9 11 15 -7 15 -8 0 -12 -5 -9 -10z"/>
<path d="M4740 2036 c0 -2 7 -7 16 -10 8 -3 12 -2 9 4 -6 10 -25 14 -25 6z"/>
<path d="M206 1734 c-4 -9 -4 -19 -1 -22 2 -3 7 3 11 12 4 9 4 19 1 22 -2 3
-7 -3 -11 -12z"/>
<path d="M4760 1610 c0 -5 5 -10 10 -10 6 0 10 5 10 10 0 6 -4 10 -10 10 -5 0
-10 -4 -10 -10z"/>
<path d="M4895 1610 c-3 -5 1 -10 10 -10 9 0 13 5 10 10 -3 6 -8 10 -10 10 -2
0 -7 -4 -10 -10z"/>
<path d="M4510 1337 c0 -19 16 -31 24 -18 3 5 -1 14 -9 21 -12 10 -15 10 -15
-3z"/>
<path d="M240 1260 c-8 -5 -12 -12 -9 -15 4 -3 12 1 19 10 14 17 11 19 -10 5z"/>
<path d="M2640 925 c-17 -21 -9 -27 13 -10 10 7 14 16 9 19 -5 3 -15 -1 -22
-9z"/>
<path d="M2726 921 c-4 -5 -2 -12 3 -15 5 -4 12 -2 15 3 4 5 2 12 -3 15 -5 4
-12 2 -15 -3z"/>
<path d="M2856 917 c3 -10 9 -15 12 -12 3 3 0 11 -7 18 -10 9 -11 8 -5 -6z"/>
<path d="M2251 904 c0 -11 3 -14 6 -6 3 7 2 16 -1 19 -3 4 -6 -2 -5 -13z"/>
<path d="M3577 913 c-3 -5 4 -15 16 -23 21 -12 21 -12 7 6 -8 10 -15 20 -16
22 -1 2 -4 -1 -7 -5z"/>
<path d="M3610 910 c0 -5 5 -10 11 -10 5 0 7 5 4 10 -3 6 -8 10 -11 10 -2 0
-4 -4 -4 -10z"/>
<path d="M3885 912 c-6 -4 -17 -16 -25 -27 -14 -18 -13 -19 1 -8 9 7 18 11 21
8 3 -3 11 1 17 9 13 15 1 29 -14 18z"/>
<path d="M2064 902 c-13 -8 -15 -44 -2 -36 5 3 6 9 3 14 -3 4 1 10 7 13 7 2
11 7 8 10 -3 3 -10 3 -16 -1z"/>
<path d="M2353 895 c-3 -9 -3 -18 -1 -21 3 -3 8 4 11 16 6 23 -1 27 -10 5z"/>
<path d="M2491 894 c0 -11 3 -14 6 -6 3 7 2 16 -1 19 -3 4 -6 -2 -5 -13z"/>
<path d="M2920 900 c-12 -7 -12 -11 -2 -20 6 -5 10 -7 7 -4 -3 4 0 13 6 21 13
15 10 16 -11 3z"/>
<path d="M3687 896 c-12 -9 -14 -16 -8 -21 6 -3 11 -1 11 5 0 6 4 9 8 6 5 -3
9 1 9 9 0 8 -1 15 -1 15 -1 0 -9 -7 -19 -14z"/>
<path d="M910 895 c0 -2 9 -9 19 -15 14 -7 22 -7 27 2 4 7 3 8 -4 4 -7 -4 -12
-2 -12 3 0 6 -7 11 -15 11 -8 0 -15 -2 -15 -5z"/>
<path d="M1230 886 c0 -17 37 -28 46 -14 3 5 1 15 -6 21 -10 9 -11 9 -6 0 5
-8 1 -13 -9 -13 -9 0 -13 5 -10 10 3 6 1 10 -4 10 -6 0 -11 -6 -11 -14z"/>
<path d="M2510 888 c0 -6 3 -8 7 -5 3 4 13 1 22 -6 14 -11 14 -10 2 6 -15 20
-31 22 -31 5z"/>
<path d="M3720 891 c0 -6 4 -13 10 -16 6 -3 7 1 4 9 -7 18 -14 21 -14 7z"/>
<path d="M3576 877 c3 -10 9 -15 12 -12 3 3 0 11 -7 18 -10 9 -11 8 -5 -6z"/>
<path d="M733 855 c0 -8 4 -12 9 -9 4 3 8 9 8 15 0 5 -4 9 -8 9 -5 0 -9 -7 -9
-15z"/>
<path d="M1655 859 c-4 -6 -5 -12 -2 -15 2 -3 7 2 10 11 7 17 1 20 -8 4z"/>
<path d="M4386 857 c3 -10 9 -15 12 -12 3 3 0 11 -7 18 -10 9 -11 8 -5 -6z"/>
<path d="M4516 855 c4 -8 8 -15 10 -15 2 0 4 7 4 15 0 8 -4 15 -10 15 -5 0 -7
-7 -4 -15z"/>
<path d="M4270 849 c0 -5 5 -7 10 -4 6 3 10 8 10 11 0 2 -4 4 -10 4 -5 0 -10
-5 -10 -11z"/>
<path d="M4606 848 c3 -5 10 -6 15 -3 13 9 11 12 -6 12 -8 0 -12 -4 -9 -9z"/>
</g>
</svg>
